<svg id="Calque_1" xmlns="http://www.w3.org/2000/svg" viewBox="0 0 455.7 134"><style>.st0{fill:#fec570}</style><path class="st0" d="M70.2 6.2h379.2v66.4l-55.1 55.1H15.1l55.2-55.1-.1-66.4M64 0v70.1l-53.3 53.2L0 134H396.9l1.8-1.8 55.1-55.1 1.8-1.8V0H64z"/><path class="st0" d="M273.7 64.3l-13.9-43h8.2l9 30.5 8.6-30.5h8l-13.8 43h-6.1zM336.4 41.5s.8.6 2.4 1.9c1.6 1.3 2.8 2.6 3.4 4.1.7 1.4 1 3.1 1 5 0 2.3-.5 4.4-1.6 6.4s-2.7 3.6-5 4.8c-2.3 1.2-5.2 1.9-8.7 1.9-5.6 0-10.4-2-14.6-6l3.4-5.9v-.1l.1.1c3.3 3.5 7.3 5.2 11.7 5.2 2.2 0 3.8-.5 5-1.5 1.2-1 1.8-2.5 1.8-4.5 0-1-.3-1.9-.8-2.7-.5-.8-1.4-1.6-2.6-2.5-1.2-.8-2.9-1.7-5.1-2.7-4-1.7-6.9-3.7-8.7-5.8s-2.7-4.7-2.7-7.5c0-2.1.6-4 1.7-5.7 1.2-1.7 2.8-3.1 4.8-4.1 2-1 4.3-1.5 6.9-1.5 2.9 0 5.3.5 7.4 1.4s4 2.4 5.9 4.4l-3.9 5.4v.1c-1.1-1.7-2.4-2.9-4-3.7-1.6-.8-3.4-1.2-5.4-1.2-1.3 0-2.3.2-3.3.7-.9.4-1.6 1-2.1 1.7s-.7 1.5-.7 2.4c0 1 .3 1.9.8 2.7.5.8 1.4 1.6 2.7 2.4 1.3.8 3.1 1.8 5.6 3 3.1 1.1 4.6 1.8 4.6 1.8zm-19.8 11.8v-.1l.4.2-.1.2-.3-.3zm1.2.3c0 .1 0 .1 0 0-.1.1-.3 0-.4-.1s-.3-.2-.4-.2l.1-.2.7.4v.1zm19.6-22.3c.1-.1.2 0 .4.1.1.1.3.2.4.3l-.1.2-.6-.4v-.2zm1.2.6c-.1 0-.2 0-.4-.2l.2-.3c.1.3.2.4.2.5zM371.7 62.8c-2.4-1.8-4.3-4.4-5.6-7.8s-1.9-7.5-1.9-12.3c0-4.7.6-8.7 1.9-12.1s3.2-5.9 5.6-7.7c2.4-1.8 5.4-2.7 8.7-2.7 3.4 0 6.3.9 8.7 2.7 2.4 1.8 4.3 4.4 5.6 7.7 1.3 3.4 1.9 7.4 1.9 12.1 0 4.8-.6 8.9-1.9 12.3-1.3 3.4-3.2 6-5.6 7.8-2.4 1.8-5.4 2.7-8.7 2.7-3.3 0-6.3-.9-8.7-2.7zm13.2-5.6c1.2-1.4 2.2-3.4 2.9-6s1-5.6 1-9c0-3.2-.3-5.9-1-8.3-.7-2.4-1.6-4.2-2.9-5.6-1.2-1.3-2.7-2-4.4-2-1.7 0-3.2.7-4.4 2-1.3 1.3-2.2 3.2-2.9 5.6-.7 2.4-1 5.2-1 8.3 0 3.4.3 6.4 1 9 .7 2.6 1.6 4.6 2.9 6 1.2 1.4 2.7 2.1 4.4 2.1s3.1-.7 4.4-2.1zM404 21.3h9.4l13.7 30.8V21.3h7.5v.8c-.2.3-.4.6-.5.9-.1.3-.1.9-.1 1.6v39.7h-8.5l-14.6-32.5v32.5H404v-43zM299.8 21h8v43h-8zM349.8 21h8v43h-8zM84.6 21.3h11.1c3.7 0 6.6.5 8.7 1.5 2.2 1 4 2.5 5.5 4.5 2.9 4 4.4 9.3 4.4 15.8 0 6.8-1.6 12-4.7 15.7-3.2 3.7-8.1 5.5-14.8 5.5H84.6v-43zm10.2 36.9c4 0 7-1.3 9-3.8s2.9-6.2 2.9-11.1c0-10.4-3.7-15.6-11.2-15.6h-3.3v30.5h2.6zM121.2 64.3v-43h28v6.6h-20.5v10.6h17v6.8h-17v12.3H149v6.6h-27.8zM173 21.3h9.4l13.7 30.8V21.3h7.5v.8c-.2.3-.4.6-.5.9-.1.3-.1.9-.1 1.6v39.7h-8.5L180 31.8v32.5h-7v-43zM211.4 64.3v-43h28v6.6h-20.5v10.6h17v6.8h-17v12.3h20.3v6.6h-27.8zM156.8 21h8v43h-8z"/></svg>