<svg enable-background="new 0 0 439.4 134" viewBox="0 0 439.4 134" xmlns="http://www.w3.org/2000/svg"><g fill="#fec570"><path d="m70.7 6.2h362.4v66.4l-55.1 55.1h-362.4l55.2-55.1zm-6.2-6.2v70.1l-53.3 53.2-10.7 10.7h380.1l1.8-1.8 55.1-55.1 1.8-1.8v-75.3z"/><path d="m257.4 64.3-13.9-43h8.2l9 30.5 8.6-30.5h8l-13.8 43zm62.7-22.8s.8.6 2.4 1.9 2.8 2.6 3.4 4.1c.7 1.4 1 3.1 1 5 0 2.3-.5 4.4-1.6 6.4s-2.7 3.6-5 4.8-5.2 1.9-8.7 1.9c-5.6 0-10.4-2-14.6-6l3.4-5.9v-.1l.1.1c3.3 3.5 7.3 5.2 11.7 5.2 2.2 0 3.8-.5 5-1.5s1.8-2.5 1.8-4.5c0-1-.3-1.9-.8-2.7s-1.4-1.6-2.6-2.5c-1.2-.8-2.9-1.7-5.1-2.7-4-1.7-6.9-3.7-8.7-5.8s-2.7-4.7-2.7-7.5c0-2.1.6-4 1.7-5.7 1.2-1.7 2.8-3.1 4.8-4.1s4.3-1.5 6.9-1.5c2.9 0 5.3.5 7.4 1.4s4 2.4 5.9 4.4l-3.9 5.4v.1c-1.1-1.7-2.4-2.9-4-3.7s-3.4-1.2-5.4-1.2c-1.3 0-2.3.2-3.3.7-.9.4-1.6 1-2.1 1.7s-.7 1.5-.7 2.4c0 1 .3 1.9.8 2.7s1.4 1.6 2.7 2.4 3.1 1.8 5.6 3c3.1 1.1 4.6 1.8 4.6 1.8zm-19.8 11.8.4.1-.1.2s-.3-.3-.3-.3zm1.2.3c0 .1 0 .1 0 0-.1.1-.3 0-.4-.1s-.3-.2-.4-.2l.1-.2zm19.6-22.3c.1-.1.2 0 .4.1.1.1.3.2.4.3l-.1.2-.6-.4zm1.2.6c-.1 0-.2 0-.4-.2l.2-.3c.1.3.2.4.2.5zm33.1 30.9c-2.4-1.8-4.3-4.4-5.6-7.8s-1.9-7.5-1.9-12.3c0-4.7.6-8.7 1.9-12.1s3.2-5.9 5.6-7.7 5.4-2.7 8.7-2.7c3.4 0 6.3.9 8.7 2.7s4.3 4.4 5.6 7.7c1.3 3.4 1.9 7.4 1.9 12.1 0 4.8-.6 8.9-1.9 12.3s-3.2 6-5.6 7.8-5.4 2.7-8.7 2.7-6.3-.9-8.7-2.7zm13.2-5.6c1.2-1.4 2.2-3.4 2.9-6s1-5.6 1-9c0-3.2-.3-5.9-1-8.3s-1.6-4.2-2.9-5.6c-1.2-1.3-2.7-2-4.4-2s-3.2.7-4.4 2c-1.3 1.3-2.2 3.2-2.9 5.6s-1 5.2-1 8.3c0 3.4.3 6.4 1 9s1.6 4.6 2.9 6c1.2 1.4 2.7 2.1 4.4 2.1s3.1-.7 4.4-2.1zm19.1-35.9h9.4l13.7 30.8v-30.8h7.5v.8c-.2.3-.4.6-.5.9s-.1.9-.1 1.6v39.7h-8.5l-14.6-32.5v32.5h-6.9zm-104.2-.3h8v43h-8zm50 0h8v43h-8z"/><path d="m98.4 64.3v-17l-13.3-26h8.6l8.9 17.4 7.9-17.4h8.4l-12.3 26.1v16.9z"/><path d="m129.1 62.9c-2.4-1.8-4.3-4.4-5.6-7.8s-1.9-7.5-1.9-12.3c0-4.7.6-8.7 1.9-12.1s3.2-5.9 5.6-7.7 5.4-2.7 8.7-2.7c3.4 0 6.3.9 8.7 2.7s4.3 4.4 5.6 7.7c1.3 3.4 1.9 7.4 1.9 12.1 0 4.8-.6 8.9-1.9 12.3s-3.2 6-5.6 7.8-5.4 2.7-8.7 2.7c-3.4 0-6.3-.9-8.7-2.7zm13.1-5.6c1.2-1.4 2.2-3.4 2.9-6s1-5.6 1-9c0-3.2-.3-5.9-1-8.3s-1.6-4.2-2.9-5.6c-1.2-1.3-2.7-2-4.4-2s-3.2.7-4.4 2c-1.3 1.3-2.2 3.2-2.9 5.6s-1 5.2-1 8.3c0 3.4.3 6.4 1 9s1.6 4.6 2.9 6c1.2 1.4 2.7 2.1 4.4 2.1s3.2-.7 4.4-2.1z"/><path d="m162.6 61c-2.5-2.8-3.8-6.8-3.8-11.9v-27.8h8.3v.8c-.2.3-.4.6-.5.9s-.1.9-.1 1.6v24.6c0 3.2.5 5.6 1.6 7.2s2.9 2.5 5.4 2.5c2.6 0 4.4-.8 5.5-2.5s1.6-4.1 1.6-7.4v-27.7h7.6v27.6c0 5.4-1.3 9.5-3.9 12.3-2.6 2.7-6.2 4.1-10.8 4.1-4.8 0-8.4-1.4-10.9-4.3z"/><path d="m195.4 21.3h13.6c5.1 0 8.9 1.1 11.4 3.4 2.4 2.3 3.7 5.4 3.7 9.5 0 1.6-.3 3.1-1 4.7s-1.7 3-2.9 4.2-2.7 2.1-4.3 2.6l10.1 18.7h-8.7l-8.9-17.8h-5v17.8h-7.9v-43.1zm14 18.7c2.2 0 3.9-.5 5-1.5s1.7-2.4 1.7-4.2c0-2-.5-3.5-1.6-4.5s-2.7-1.5-5-1.5h-6.2v11.7z"/></g></svg>