<?xml version="1.0" encoding="utf-8"?>
<!-- Generator: Adobe Illustrator 21.1.0, SVG Export Plug-In . SVG Version: 6.00 Build 0)  -->
<!DOCTYPE svg PUBLIC "-//W3C//DTD SVG 1.1//EN" "http://www.w3.org/Graphics/SVG/1.1/DTD/svg11.dtd">
<svg version="1.1" id="Calque_1" xmlns="http://www.w3.org/2000/svg" xmlns:xlink="http://www.w3.org/1999/xlink" x="0px" y="0px"
	 viewBox="0 0 801.4 268.3" style="enable-background:new 0 0 801.4 268.3;" xml:space="preserve">
<style type="text/css">
	.st0{fill:#1A1A1A;}
	.st1{fill:none;}
</style>
<path class="st0" d="M509.1,40.4L509.1,40.4h-16.8v25.4h16.8l0,0c7,0,12.7-5.7,12.7-12.7S516.1,40.4,509.1,40.4z"/>
<path class="st0" d="M624.7,40.4L624.7,40.4h-16.9v25.4h16.9l0,0c7,0,12.7-5.7,12.7-12.7S631.7,40.4,624.7,40.4z"/>
<path class="st0" d="M312.8,40.2h-7.4v65.9h5.8c8.9,0,15.5-2.7,19.9-8.2s6.5-13.5,6.5-24C337.7,51.5,329.4,40.2,312.8,40.2z"/>
<g>
	<path class="st1" d="M539.1,53.3c0-14.1-10.6-25.9-24.3-27.6h-39.9v95.2h17.5V80.7h10.7l21.7,40.2v0.1h17.7l-22.3-41.3
		C531.2,76,539.1,65.5,539.1,53.3z"/>
	<polygon class="st1" points="390.4,40.7 416.1,40.7 416.1,121 433.6,121 433.6,40.7 459.2,40.7 459.2,25.7 390.4,25.7 	"/>
	<path class="st1" d="M332.8,28.9c-4.8-2.1-11.3-3.2-19.4-3.2h-24.6v95.2h22.8c14.9,0,25.8-4.1,32.8-12.2c7-8.1,10.5-19.7,10.5-34.8
		c0-14.5-3.3-26.1-9.8-35C341.7,34.4,337.6,31,332.8,28.9z"/>
	<polygon class="st1" points="230,25.7 212.4,25.7 212.4,120.9 271.6,120.9 271.7,120.9 271.7,106.2 230,106.2 	"/>
	<rect x="556.2" y="25.7" class="st1" width="17.1" height="95.2"/>
	<rect x="102" y="25.7" class="st1" width="17.1" height="95.2"/>
	<polygon class="st1" points="25.6,120.8 42.8,120.8 42.8,80.7 76.3,80.7 76.3,65.7 42.8,65.7 42.8,40.2 84.8,40.2 84.8,25.7 
		25.6,25.7 	"/>
	<polygon class="st1" points="136.2,120.9 195.4,120.9 195.4,106.2 152.8,106.2 152.8,80.8 186.9,80.8 186.9,65.8 152.8,65.8 
		152.8,40.4 195.4,40.4 195.4,25.7 136.2,25.7 	"/>
	<path class="st1" d="M630.3,25.7h-40v95.2h17.5V80.8h22.7c13.6-1.7,24.1-13.6,24.1-27.5C654.6,39.2,644,27.4,630.3,25.7z"/>
	<path class="st0" d="M679.7,146.6V0H0v146.5l121.7,121.8h679.7L679.7,146.6z M84.8,40.2h-42v25.5h33.5v15H42.8v40.1H25.6V25.7h59.2
		V40.2z M119.1,120.9H102V25.7h17.1V120.9z M195.4,40.4h-42.6v25.4h34.1v15h-34.1v25.4h42.6v14.7h-59.2V25.7h59.2V40.4z
		 M271.7,120.9L271.7,120.9h-59.3V25.7H230v80.5h41.7V120.9z M344.4,108.7c-7,8.1-17.9,12.2-32.8,12.2h-22.8V25.7h24.6
		c8.1,0,14.6,1.1,19.4,3.2c4.8,2.1,8.9,5.5,12.3,10c6.5,8.9,9.8,20.5,9.8,35C354.9,89,351.4,100.6,344.4,108.7z M459.2,40.7h-25.6
		V121h-17.5V40.7h-25.7v-15h68.8V40.7z M524.8,121L524.8,121l-21.7-40.3h-10.7v40.2h-17.5V25.7h39.9c13.7,1.7,24.3,13.5,24.3,27.6
		c0,12.2-7.9,22.7-18.9,26.4l22.3,41.3H524.8z M573.3,120.9h-17.1V25.7h17.1V120.9z M630.5,80.8h-22.7v40.1h-17.5V25.7h40
		c13.7,1.7,24.3,13.5,24.3,27.6C654.6,67.2,644.1,79.1,630.5,80.8z"/>
</g>
</svg>
