<?xml version="1.0" encoding="utf-8"?>
<!-- Generator: Adobe Illustrator 23.0.6, SVG Export Plug-In . SVG Version: 6.00 Build 0)  -->
<svg version="1.1" id="Calque_1" xmlns="http://www.w3.org/2000/svg" xmlns:xlink="http://www.w3.org/1999/xlink" x="0px" y="0px"
	 viewBox="0 0 618.8 134" style="enable-background:new 0 0 618.8 134;" xml:space="preserve">
<style type="text/css">
	.st0{fill:#FEC570;}
</style>
<g>
	<path class="st0" d="M70.2,6.2h542.4v66.4l-55.1,55.1H15.1l55.2-55.1L70.2,6.2z M64,0v70.1l-53.3,53.2L0,134h560.1l1.8-1.8
		L617,77.1l1.8-1.8V0L64,0z"/>
</g>
<g>
	<path class="st0" d="M94.8,59V29.7h-9.4v-5.4h25.6v5.4h-9.8V59H94.8z"/>
	<path class="st0" d="M119.4,59l-4.2-34.7h6.1l2,22.9l4.1-20h4l4.1,19.9l1.4-22.7h5.8L138.5,59h-4.9l-4.6-21.1L124.4,59H119.4z"/>
	<path class="st0" d="M152.5,57.9c-2-1.5-3.5-3.6-4.5-6.3c-1-2.8-1.6-6.1-1.6-9.9c0-3.8,0.5-7,1.6-9.8s2.5-4.8,4.5-6.2
		c2-1.4,4.3-2.2,7.1-2.2s5.1,0.7,7.1,2.2c2,1.4,3.5,3.5,4.5,6.2c1,2.7,1.6,6,1.6,9.8c0,3.8-0.5,7.1-1.6,9.9c-1,2.8-2.5,4.9-4.5,6.3
		c-2,1.5-4.3,2.2-7.1,2.2S154.5,59.3,152.5,57.9z M163.2,53.3c1-1.1,1.8-2.7,2.3-4.8c0.5-2.1,0.8-4.5,0.8-7.2c0-2.6-0.3-4.8-0.8-6.7
		c-0.5-1.9-1.3-3.4-2.3-4.5s-2.2-1.6-3.6-1.6c-1.4,0-2.5,0.5-3.6,1.6c-1,1.1-1.8,2.6-2.3,4.5c-0.5,1.9-0.8,4.2-0.8,6.7
		c0,2.8,0.3,5.2,0.8,7.2c0.5,2.1,1.3,3.7,2.3,4.8c1,1.1,2.2,1.7,3.6,1.7S162.2,54.5,163.2,53.3z"/>
	<path class="st0" d="M202,24.3v5.2h-5.2v18.3c0,2.7-0.4,5-1.3,6.8s-2.1,3.2-3.6,4c-1.5,0.9-3.2,1.3-5,1.3c-1.8,0-3.6-0.4-5.1-1.2
		c-1.6-0.8-3-2-4.2-3.6l3.5-4l0-0.1l0.1,0.1c0.7,1.3,1.5,2.1,2.3,2.7c0.8,0.5,1.7,0.8,2.7,0.8c1,0,1.9-0.3,2.5-0.8s1.1-1.3,1.4-2.4
		s0.4-2.5,0.4-4.3V29.5h-6.4v-5.2H202z M181,50.8C181,50.7,181,50.7,181,50.8c0.1,0,0.1,0,0.1,0c0,0,0.1,0.1,0.1,0.1l-0.2,0.2
		C181,50.9,181,50.8,181,50.8z M181.9,51.2C181.9,51.2,181.8,51.3,181.9,51.2c-0.1,0.1-0.2,0-0.3-0.1c-0.1-0.1-0.2-0.2-0.3-0.2
		l0.1-0.2L181.9,51.2L181.9,51.2z"/>
	<path class="st0" d="M227.6,59l-2.5-9h-8.9l-2.5,9h-6.4l11.6-34.7h3.6L234.1,59H227.6z M217.5,45.7h6.4l-3.2-11.5L217.5,45.7z"/>
	<path class="st0" d="M270.8,24.3h11.8c2.6,0,4.8,0.5,6.6,1.4c1.7,0.9,3,2.2,3.9,3.7c0.8,1.6,1.3,3.3,1.3,5.3c0,2-0.4,3.7-1.2,5.2
		c-0.8,1.5-2.1,2.8-3.8,3.7c-1.7,0.9-3.8,1.3-6.4,1.3h-5.7v14h-6.4V24.3z M282.4,39.7c1.8,0,3.2-0.4,4.1-1.3c0.9-0.9,1.3-2,1.3-3.5
		c0-1.5-0.5-2.7-1.4-3.7c-0.9-0.9-2.3-1.4-4-1.4h-5.3v9.8H282.4z"/>
	<path class="st0" d="M301.8,59V24.3h22.6v5.4h-16.5v8.6h13.7v5.5h-13.7v10h16.4V59H301.8z"/>
	<path class="st0" d="M331.9,24.3h11c4.2,0,7.2,0.9,9.2,2.7c2,1.8,3,4.4,3,7.6c0,1.3-0.3,2.5-0.8,3.8c-0.6,1.3-1.3,2.4-2.3,3.4
		c-1,1-2.2,1.7-3.5,2.1l8.1,15.1h-7l-7.2-14.4h-4.1V59h-6.4V24.3z M343.3,39.4c1.8,0,3.1-0.4,4-1.3s1.3-2,1.3-3.4
		c0-1.6-0.4-2.8-1.3-3.6s-2.2-1.2-4.1-1.2h-5v9.5H343.3z"/>
	<path class="st0" d="M380,40.6c0,0,0.7,0.5,2,1.6s2.2,2.1,2.8,3.3c0.5,1.1,0.8,2.5,0.8,4c0,1.8-0.4,3.6-1.3,5.2
		c-0.9,1.6-2.2,2.9-4,3.9c-1.8,1-4.2,1.5-7,1.5c-4.5,0-8.4-1.6-11.8-4.8l2.7-4.7l0-0.1l0.1,0.1c2.7,2.8,5.9,4.2,9.5,4.2
		c1.7,0,3.1-0.4,4-1.2c1-0.8,1.4-2,1.4-3.7c0-0.8-0.2-1.6-0.6-2.2c-0.4-0.7-1.1-1.3-2.1-2s-2.4-1.4-4.1-2.2c-3.2-1.4-5.6-3-7-4.7
		c-1.5-1.7-2.2-3.8-2.2-6.1c0-1.7,0.5-3.2,1.4-4.6c0.9-1.4,2.2-2.5,3.9-3.3c1.6-0.8,3.5-1.2,5.5-1.2c2.3,0,4.3,0.4,6,1.1
		s3.3,1.9,4.8,3.5l-3.1,4.4l0,0.1c0,0,0,0,0,0c-0.9-1.4-1.9-2.4-3.3-3c-1.3-0.6-2.8-0.9-4.4-0.9c-1,0-1.9,0.2-2.6,0.5
		s-1.3,0.8-1.7,1.4c-0.4,0.6-0.6,1.2-0.6,1.9c0,0.8,0.2,1.5,0.6,2.2c0.4,0.6,1.2,1.3,2.2,1.9s2.5,1.5,4.5,2.4
		C378.9,40.1,380,40.6,380,40.6z M364,50.2C364,50.2,364,50.2,364,50.2c0-0.1,0-0.1,0-0.1l0.3,0.1l-0.1,0.2
		C364.1,50.3,364,50.2,364,50.2z M365,50.4C365,50.5,365,50.5,365,50.4c-0.1,0.1-0.2,0-0.3-0.1s-0.2-0.1-0.3-0.2l0.1-0.2L365,50.4
		L365,50.4z M380.9,32.4C380.9,32.4,380.9,32.4,380.9,32.4c0.1-0.1,0.2,0,0.3,0.1c0.1,0.1,0.2,0.2,0.3,0.2l-0.1,0.1L380.9,32.4
		L380.9,32.4z M381.8,32.9C381.8,32.9,381.8,32.9,381.8,32.9c-0.1,0-0.2,0-0.4-0.2l0.2-0.2C381.8,32.7,381.8,32.8,381.8,32.9z"/>
	<path class="st0" d="M393.4,24.3h11.8c2.6,0,4.8,0.5,6.6,1.4c1.7,0.9,3,2.2,3.9,3.7c0.8,1.6,1.3,3.3,1.3,5.3c0,2-0.4,3.7-1.2,5.2
		c-0.8,1.5-2.1,2.8-3.8,3.7c-1.7,0.9-3.8,1.3-6.4,1.3h-5.7v14h-6.4V24.3z M405,39.7c1.8,0,3.2-0.4,4.1-1.3c0.9-0.9,1.3-2,1.3-3.5
		c0-1.5-0.5-2.7-1.4-3.7c-0.9-0.9-2.3-1.4-4-1.4h-5.3v9.8H405z"/>
	<path class="st0" d="M424.4,59V24.3H447v5.4h-16.5v8.6h13.7v5.5h-13.7v10h16.4V59H424.4z"/>
	<path class="st0" d="M462.2,43.2l-1.5,1.6V59h-6.4V24.3h6.9V25c-0.2,0.2-0.3,0.5-0.4,0.7c-0.1,0.3-0.1,0.7-0.1,1.3v10.6l11.8-13.7
		c1.3,0.3,2.4,0.4,3.2,0.4h3.8l-12.9,14.8L480,59l-7.6,0.3L462.2,43.2z"/>
	<path class="st0" d="M493,59V29.7h-9.4v-5.4h25.6v5.4h-9.8V59H493z"/>
	<path class="st0" d="M524.3,59V45.3l-10.7-21h7l7.2,14l6.3-14h6.7l-9.9,21.1V59H524.3z"/>
	<path class="st0" d="M548.3,59l-4.2-34.7h6.1l2,22.9l4.1-20h4l4.1,19.9l1.4-22.7h5.8L567.4,59h-4.9L558,37.9L553.3,59H548.3z"/>
	<path class="st0" d="M595.2,59l-2.5-9h-8.9l-2.5,9H575l11.6-34.7h3.6L601.8,59H595.2z M585.1,45.7h6.4l-3.2-11.5L585.1,45.7z"/>
</g>
</svg>
