<?xml version="1.0" encoding="utf-8"?>
<!-- Generator: Adobe Illustrator 25.0.0, SVG Export Plug-In . SVG Version: 6.00 Build 0)  -->
<svg version="1.1" id="Calque_1" xmlns="http://www.w3.org/2000/svg" xmlns:xlink="http://www.w3.org/1999/xlink" x="0px" y="0px"
	 viewBox="0 0 2148.9 1241.6" style="enable-background:new 0 0 2148.9 1241.6;" xml:space="preserve">
<style type="text/css">
	.st0{fill:#FFFFFF;}
</style>
<g>
	<g>
		<g>
			<path class="st0" d="M1647,1078.3c-10.5,30.4-8.1,63.2,9.5,86.6c33.8-11.8,64.2-39.9,72.4-73.7c4.7-16.2,3.4-32.8,0-46.7
				c-4.7-13.9-12.8-26.7-23.3-36.2c-7.1,3.4-12.8,8.1-18.6,12.8c-5.7,4.7-10.5,10.5-16.2,16.2c-4.7,5.7-9.5,11.8-12.8,18.6
				C1654.5,1062.8,1650.4,1070.2,1647,1078.3z"/>
			<path class="st0" d="M1647,1078.3c-10.5,30.4-8.1,63.2,9.5,86.6c33.8-11.8,64.2-39.9,72.4-73.7c4.7-16.2,3.4-32.8,0-46.7
				c-4.7-13.9-12.8-26.7-23.3-36.2c-7.1,3.4-12.8,8.1-18.6,12.8c-5.7,4.7-10.5,10.5-16.2,16.2c-4.7,5.7-9.5,11.8-12.8,18.6
				C1654.5,1062.8,1650.4,1070.2,1647,1078.3z"/>
			<path class="st0" d="M1737,1241c-39.9-4.7-61.9-26.7-70-54.8c31.4-21,69-32.8,106.5-32.8c18.6,0,35.2,4.7,49,11.8
				c12.8,7.1,23.3,17.6,30.4,31.4c-8.1,8.1-16.2,13.9-25.7,19.9c-9.5,5.7-18.6,11.8-29.1,15.2c-10.5,3.4-19.9,7.1-30.4,8.1
				C1756.9,1242,1747.5,1242,1737,1241z"/>
		</g>
		<g>
			<path class="st0" d="M1804.9,234.7c31.4,4.7,63.2-4.7,82.8-26.7c-9.5-15.2-21-30.4-37.5-39.9c-7.1-4.7-15.2-9.5-23.3-11.8
				c-8.1-3.4-17.6-4.7-25.7-4.7c-33.8-2.4-61.9,15.2-76.1,39.9c5.7,5.7,10.5,10.5,16.2,16.2c5.7,4.7,12.8,9.5,18.6,12.8
				C1773.2,227.6,1788.4,232.4,1804.9,234.7z"/>
			<path class="st0" d="M1947.3,114.4c3.4,39.9-13.9,66.6-40.9,79.5c-13.9-12.8-24.7-29.1-33.8-45.6c-4.7-8.1-8.1-16.2-11.8-25.7
				c-3.4-9.5-5.7-17.6-7.1-26.7c-5.7-37.5,2.4-67.6,26.7-85.2c9.5,5.7,17.6,13.9,24.7,21c7.1,8.1,13.9,16.2,21,25.7
				C1936.8,75.8,1944.9,94.4,1947.3,114.4z"/>
		</g>
		<g>
			<path class="st0" d="M1872.6,336.2c15.2,5.7,31.4,8.1,45.6,7.1c15.2-1,29.1-5.7,40.9-13.9c-2.4-8.1-7.1-16.2-11.8-24.7
				c-4.7-8.1-9.5-15.2-16.2-22.3c-5.7-7.1-12.8-11.8-21-16.2c-3.4-2.4-7.1-4.7-11.8-5.7c-3.4-1-8.1-3.4-12.8-4.7
				c-33.8-9.5-63.2,1-82.8,22.3c3.4,7.1,7.1,12.8,11.8,18.6c4.7,5.7,10.5,11.8,15.2,16.2C1843.5,322.3,1858.7,330.4,1872.6,336.2z"
				/>
			<path class="st0" d="M2038.6,250c-2.4,19.9-9.5,35.2-19.9,46.7c-10.5,11.8-23.3,18.6-37.5,22.3c-4.7-8.1-9.5-16.2-12.8-24.7
				c-3.4-8.1-7.1-17.6-9.5-26.7c-2.4-9.5-4.7-18.6-5.7-28.1c0-4.7-1-9.5-1-13.9c0-4.7,0-9.5,0-13.9c1-37.5,17.6-66.6,44.3-78.4
				c7.1,8.1,13.9,17.6,19.9,26.7c5.7,9.5,10.5,18.6,13.9,29.1C2037.2,210.1,2040.9,230,2038.6,250z"/>
		</g>
		<g>
			<path class="st0" d="M1916.9,450.8c28.1,17.6,59.5,23.3,86.6,11.8c0-9.5-2.4-17.6-5.7-26.7c-2.4-8.1-5.7-17.6-10.5-24.7
				c-9.5-15.2-22.3-28.1-37.5-37.5c-31.4-16.2-61.9-12.8-86.6,3.4c3.4,15.2,11.8,28.1,19.9,40.9c4.7,5.7,9.5,11.8,15.2,17.6
				C1904,440.3,1910.1,446.1,1916.9,450.8z"/>
			<path class="st0" d="M2097.1,402.8c-12.8,37.5-40.9,53.8-70,53.8c-2.4-9.5-5.7-17.6-7.1-26.7c-2.4-9.5-2.4-18.6-3.4-28.1
				c-1-18.6,0-37.5,5.7-56.1c9.5-35.2,31.4-60.9,60.9-66.6c10.5,18.6,18.6,40.9,21,61.9c1,10.5,1,21,1,31.4
				C2102.8,383.2,2100.5,393.7,2097.1,402.8z"/>
		</g>
		<g>
			<path class="st0" d="M1934.4,571.2c23.3,23.3,52.7,35.2,81.8,30.4c1-9.5,1-18.6,1-26.7c-1-9.5-2.4-17.6-4.7-26.7
				c-5.7-17.6-15.2-32.8-28.1-44.3c-26.7-23.3-58.5-25.7-85.2-15.2c0,8.1,1,15.2,3.4,22.3s3.4,15.2,7.1,22.3
				c3.4,7.1,7.1,13.9,11.8,19.9C1924,559.3,1928.7,565.4,1934.4,571.2z"/>
			<path class="st0" d="M2120.4,564.1c-21,32.8-52.7,43.3-80.5,37.5c0-9.5-1-18.6-1-28.1c0-9.5,1-18.6,3.4-28.1
				c2.4-18.6,8.1-36.2,17.6-52.7c16.2-32.8,43.3-52.7,73.7-51.4c3.4,10.5,5.7,21,7.1,32.8c1,10.5,1,22.3,0,32.8
				c-1,10.5-2.4,21-5.7,30.4C2130.9,546.5,2126.1,556,2120.4,564.1z"/>
		</g>
		<g>
			<path class="st0" d="M1925.3,693.9c17.6,28.1,43.3,45.6,72.4,46.7c3.4-8.1,5.7-17.6,7.1-26.7c1-9.5,1-18.6,1-26.7
				c-2.4-17.6-8.1-35.2-17.6-49c-21-28.1-51.4-37.5-79.5-33.8c-1,7.1-2.4,15.2-1,22.3c0,8.1,0,15.2,2.4,22.3
				c1,7.1,3.4,15.2,7.1,22.3C1918.2,679.7,1921.6,686.8,1925.3,693.9z"/>
			<path class="st0" d="M2108.6,727.7c-26.7,28.1-60.9,31.4-86.6,18.6c1-9.5,3.4-18.6,4.7-28.1c2.4-9.5,4.7-18.6,9.5-26.7
				c7.1-17.6,16.2-33.8,29.1-48c23.3-28.1,53.8-40.9,82.8-33.8c1,10.5,1,22.3,0,32.8c-1,10.5-3.4,22.3-7.1,31.4
				c-3.4,10.5-7.1,19.9-12.8,29.1C2122.8,712.5,2115.7,720.6,2108.6,727.7z"/>
		</g>
		<g>
			<path class="st0" d="M1890.1,810.9c2.4,8.1,5.7,15.2,10.5,22.3c3.4,7.1,8.1,12.8,13.9,17.6c10.5,10.5,22.3,18.6,37.5,22.3
				c10.5-15.2,16.2-32.8,18.6-50.4c2.4-17.6,0-36.2-5.7-51.4c-13.9-32.8-41.9-48-70-50.4c-3.4,7.1-4.7,13.9-7.1,22.3
				c-2.4,7.1-3.4,15.2-3.4,22.3C1883,779.1,1884.4,794.3,1890.1,810.9z"/>
			<path class="st0" d="M2061.9,884.3c-8.1,5.7-16.2,9.5-24.7,11.8c-8.1,2.4-16.2,3.4-23.3,2.4c-15.2-1-29.1-5.7-40.9-15.2
				c7.1-17.6,13.9-35.2,25.7-50.4c10.5-15.2,23.3-29.1,38.5-40.9c29.1-22.3,61.9-28.1,87.6-15.2c-1,10.5-4.7,22.3-7.1,32.8
				c-3.4,10.5-8.1,19.9-13.9,29.1C2093.4,858.6,2078.1,873.8,2061.9,884.3z"/>
		</g>
		<g>
			<path class="st0" d="M1830.6,917.1c3.4,32.8,19.9,59.5,45.6,73.7c7.1-5.7,12.8-12.8,17.6-21c4.7-8.1,9.5-16.2,11.8-24.7
				c7.1-16.2,8.1-35.2,4.7-51.4c-2.4-16.2-10.5-31.4-21-41.9c-10.5-10.5-23.3-18.6-36.2-22.3C1835,853.8,1825.9,884.3,1830.6,917.1z
				"/>
			<path class="st0" d="M1981.1,1025.9c-37.5,12.8-67.6,2.4-86.6-19.9c4.7-8.1,10.5-15.2,16.2-22.3c5.7-7.1,11.8-13.9,18.6-21
				c13.9-12.8,29.1-23.3,46.7-31.4c17.6-7.1,33.8-11.8,49-10.5c15.2,1,29.1,5.7,40.9,15.2C2051.4,977.9,2017.6,1013.1,1981.1,1025.9
				z"/>
		</g>
		<g>
			<path class="st0" d="M1747.5,1008.4c-3.4,31.4,5.7,63.2,28.1,81.8c15.2-9.5,29.1-22.3,38.5-37.5c4.7-8.1,9.5-15.2,11.8-23.3
				s4.7-17.6,4.7-25.7c1-17.6-3.4-32.8-10.5-45.6c-8.1-12.8-18.6-23.3-31.4-30.4c-2.4,2.4-5.7,5.7-8.1,8.1c-2.4,2.4-4.7,5.7-7.1,8.1
				c-4.7,5.7-9.5,12.8-11.8,19.9C1754.6,975.6,1748.8,990.8,1747.5,1008.4z"/>
			<path class="st0" d="M1871.5,1147.3c-39.9,4.7-66.6-12.8-80.5-38.5c12.8-13.9,29.1-24.7,44.3-35.2c8.1-4.7,16.2-8.1,25.7-11.8
				c8.1-3.4,17.6-5.7,26.7-8.1c18.6-3.4,35.2-3.4,50.4,1c15.2,3.4,26.7,11.8,36.2,23.3c-3.4,4.7-5.7,9.5-9.5,13.9
				c-3.4,4.7-7.1,8.1-11.8,11.8c-8.1,8.1-16.2,15.2-24.7,21C1910.1,1136.8,1890.1,1145,1871.5,1147.3z"/>
		</g>
		<path class="st0" d="M1767.4,24.1c17.6,12.8,31.4,26.7,40.9,43.3c4.7,8.1,8.1,16.2,10.5,24.7c2.4,8.1,3.4,16.2,3.4,24.7
			c-8.1,1-16.2,0-24.7-1c-8.1-1-16.2-2.4-24.7-4.7c-16.2-5.7-32.8-11.8-48-23.3c-7.1-5.7-15.2-10.5-21-17.6
			c-7.1-5.7-11.8-12.8-17.6-19.9c-10.5-12.8-18.6-28.1-23.3-44.3c15.2-5.7,32.8-7.1,51.4-4.7c9.5,1,18.6,4.7,28.1,8.1
			C1748.8,13.6,1759.3,18.4,1767.4,24.1z"/>
	</g>
	<g>
		<g>
			<path class="st0" d="M501.8,1078.3c10.5,30.4,8.1,63.2-9.5,86.6c-33.8-11.8-64.2-39.9-72.4-73.7c-4.7-16.2-3.4-32.8,0-46.7
				c4.7-13.9,12.8-26.7,23.3-36.2c7.1,3.4,12.8,8.1,18.6,12.8c5.7,4.7,10.5,10.5,16.2,16.2c4.7,5.7,9.5,11.8,12.8,18.6
				C496.1,1063.1,499.5,1070.2,501.8,1078.3z"/>
			<path class="st0" d="M501.8,1078.3c10.5,30.4,8.1,63.2-9.5,86.6c-33.8-11.8-64.2-39.9-72.4-73.7c-4.7-16.2-3.4-32.8,0-46.7
				c4.7-13.9,12.8-26.7,23.3-36.2c7.1,3.4,12.8,8.1,18.6,12.8c5.7,4.7,10.5,10.5,16.2,16.2c4.7,5.7,9.5,11.8,12.8,18.6
				C496.1,1063.1,499.5,1070.2,501.8,1078.3z"/>
			<path class="st0" d="M411.9,1241c39.9-4.7,61.9-26.7,70-54.8c-31.4-21-69-32.8-106.5-32.8c-18.6,0-35.2,4.7-49,11.8
				c-12.8,7.1-23.3,17.6-30.4,31.4c8.1,8.1,16.2,13.9,25.7,19.9c9.5,5.7,18.6,11.8,29.1,15.2c10.5,3.4,19.9,7.1,30.4,8.1
				C392,1242,402.8,1242,411.9,1241z"/>
		</g>
		<g>
			<path class="st0" d="M344.3,234.7c-31.4,4.7-63.2-4.7-82.8-26.7c9.5-15.2,21-30.4,37.5-39.9c7.1-4.7,15.2-9.5,23.3-11.8
				c8.1-3.4,17.6-4.7,25.7-4.7c33.8-2.4,61.9,15.2,76.1,39.9c-5.7,5.7-10.5,10.5-16.2,16.2c-5.7,4.7-12.8,9.5-18.6,12.8
				C375.7,227.6,360.5,232.4,344.3,234.7z"/>
			<path class="st0" d="M201.6,114.4c-3.4,39.9,13.9,66.6,40.9,79.5c13.9-12.8,24.7-29.1,33.8-45.6c4.7-8.1,8.1-16.2,11.8-25.7
				c3.4-9.5,5.7-17.6,7.1-26.7c5.7-37.5-2.4-67.6-26.7-85.2c-9.5,5.7-17.6,13.9-24.7,21c-7.1,8.1-13.9,16.2-21,25.7
				C212.1,75.8,204,94.4,201.6,114.4z"/>
		</g>
		<g>
			<path class="st0" d="M276.3,336.2c-15.2,5.7-31.4,8.1-45.6,7.1c-15.2-1-29.1-5.7-40.9-13.9c2.4-8.1,7.1-16.2,11.8-24.7
				c4.7-8.1,9.5-15.2,16.2-22.3c5.7-7.1,12.8-11.8,21-16.2c3.4-2.4,7.1-4.7,11.8-5.7c3.4-1,8.1-3.4,12.8-4.7
				c33.8-9.5,63.2,1,82.8,22.3c-3.4,7.1-7.1,12.8-11.8,18.6c-4.7,5.7-10.5,11.8-15.2,16.2C305.7,322.3,291.5,330.4,276.3,336.2z"/>
			<path class="st0" d="M111.7,250c2.4,19.9,9.5,35.2,19.9,46.7c10.5,11.8,23.3,18.6,37.5,22.3c4.7-8.1,9.5-16.2,12.8-24.7
				c3.4-8.1,7.1-17.6,9.5-26.7c2.4-9.5,4.7-18.6,5.7-28.1c0-4.7,1-9.5,1-13.9c0-4.7,0-9.5,0-13.9c-1-37.5-17.6-66.6-44.3-78.4
				c-7.1,8.1-13.9,17.6-19.9,26.7c-5.7,9.5-10.5,18.6-13.9,29.1C112.7,210.1,108.3,230,111.7,250z"/>
		</g>
		<g>
			<path class="st0" d="M232,450.8c-28.1,17.6-59.5,23.3-86.6,11.8c0-9.5,2.4-17.6,5.7-26.7c2.4-8.1,5.7-17.6,10.5-24.7
				c9.5-15.2,22.3-28.1,37.5-37.5c31.4-16.2,61.9-12.8,86.6,3.4c-3.4,15.2-11.8,28.1-19.9,40.9c-4.7,5.7-9.5,11.8-15.2,17.6
				C244.9,440.3,239.1,446.1,232,450.8z"/>
			<path class="st0" d="M52.2,402.8c12.8,37.5,40.9,53.8,70,53.8c2.4-9.5,5.7-17.6,7.1-26.7c2.4-9.5,2.4-18.6,3.4-28.1
				c1-18.6,0-37.5-5.7-56.1c-9.5-35.2-31.4-60.9-60.9-66.6c-10.5,18.6-18.6,40.9-21,61.9c-1,10.5-1,21-1,31.4
				C46.1,383.2,48.4,393.7,52.2,402.8z"/>
		</g>
		<g>
			<path class="st0" d="M214.4,571.2c-23.3,23.3-52.7,35.2-81.8,30.4c-1-9.5-1-18.6-1-26.7c1-9.5,2.4-17.6,4.7-26.7
				c5.7-17.6,15.2-32.8,28.1-44.3c26.7-23.3,58.5-25.7,85.2-15.2c0,8.1-1,15.2-3.4,22.3s-3.4,15.2-7.1,22.3
				c-3.4,7.1-7.1,13.9-11.8,19.9C224.9,559.3,220.2,565.4,214.4,571.2z"/>
			<path class="st0" d="M28.8,564.1c21,32.8,52.7,43.3,80.5,37.5c0-9.5,1-18.6,1-28.1c0-9.5-1-18.6-3.4-28.1
				c-2.4-18.6-8.1-36.2-17.6-52.7c-16.2-32.8-43.3-52.7-73.7-51.4c-3.4,10.5-5.7,21-7.1,32.8c-1,10.5-1,22.3,0,32.8
				c1,10.5,2.4,21,5.7,30.4C19.4,546.5,22.7,556,28.8,564.1z"/>
		</g>
		<g>
			<path class="st0" d="M223.9,693.9c-17.6,28.1-43.3,45.6-72.4,46.7c-3.4-8.1-5.7-17.6-7.1-26.7c-1-9.5-1-18.6-1-26.7
				c2.4-17.6,8.1-35.2,17.6-49c21-28.1,51.4-37.5,79.5-33.8c1,7.1,2.4,15.2,1,22.3c0,8.1,0,15.2-2.4,22.3c-1,7.1-3.4,15.2-7.1,22.3
				C230.7,679.7,228.6,686.8,223.9,693.9z"/>
			<path class="st0" d="M40.3,727.7c26.7,28.1,60.9,31.4,86.6,18.6c-1-9.5-3.4-18.6-4.7-28.1c-2.4-9.5-4.7-18.6-9.5-26.7
				c-7.1-17.6-16.2-33.8-29.1-48c-23.3-28.1-53.8-40.9-82.8-33.8c-1,10.5-1,22.3,0,32.8c1,10.5,3.4,22.3,7.1,31.4
				c3.4,10.5,7.1,19.9,12.8,29.1C27.5,712.5,33.2,720.6,40.3,727.7z"/>
		</g>
		<g>
			<path class="st0" d="M258.7,810.9c-2.4,8.1-5.7,15.2-10.5,22.3c-3.4,7.1-8.1,12.8-13.9,17.6c-10.5,10.5-22.3,18.6-37.5,22.3
				c-10.5-15.2-16.2-32.8-18.6-50.4c-2.4-17.6,0-36.2,5.7-51.4c13.9-32.8,41.9-48,70-50.4c3.4,7.1,4.7,13.9,7.1,22.3
				c2.4,7.1,3.4,15.2,3.4,22.3C265.8,779.1,264.8,794.3,258.7,810.9z"/>
			<path class="st0" d="M88.3,884.3c8.1,5.7,16.2,9.5,24.7,11.8s16.2,3.4,23.3,2.4c15.2-1,29.1-5.7,40.9-15.2
				c-7.1-17.6-13.9-35.2-25.7-50.4c-10.5-15.2-23.3-29.1-38.5-40.9c-29.1-22.3-61.9-28.1-87.6-15.2c1,10.5,4.7,22.3,7.1,32.8
				c3.4,10.5,8.1,19.9,13.9,29.1C56.5,858.6,71.8,873.8,88.3,884.3z"/>
		</g>
		<g>
			<path class="st0" d="M319.6,917.1c-3.4,32.8-19.9,59.5-45.6,73.7c-7.1-5.7-12.8-12.8-17.6-21c-4.7-8.1-9.5-16.2-11.8-24.7
				c-7.1-16.2-8.1-35.2-4.7-51.4c2.4-16.2,10.5-31.4,21-41.9s23.3-18.6,36.2-22.3C313.9,853.8,323.3,884.3,319.6,917.1z"/>
			<path class="st0" d="M168.8,1025.9c37.5,12.8,67.6,2.4,86.6-19.9c-4.7-8.1-10.5-15.2-16.2-22.3c-5.7-7.1-11.8-13.9-18.6-21
				c-13.9-12.8-29.1-23.3-46.7-31.4c-17.6-7.1-33.8-11.8-49-10.5c-15.2,1-29.1,5.7-40.9,15.2C98.8,977.9,131.6,1013.1,168.8,1025.9z
				"/>
		</g>
		<g>
			<path class="st0" d="M401.4,1008.4c3.4,31.4-5.7,63.2-28.1,81.8c-15.2-9.5-29.1-22.3-38.5-37.5c-4.7-8.1-9.5-15.2-11.8-23.3
				s-4.7-17.6-4.7-25.7c-1-17.6,3.4-32.8,10.5-45.6c8.1-12.8,18.6-23.3,31.4-30.4c2.4,2.4,5.7,5.7,8.1,8.1c2.4,2.4,4.7,5.7,7.1,8.1
				c4.7,5.7,9.5,12.8,11.8,19.9C395.7,975.6,400.4,990.8,401.4,1008.4z"/>
			<path class="st0" d="M278.7,1147.3c39.9,4.7,66.6-12.8,80.5-38.5c-12.8-13.9-29.1-24.7-44.3-35.2c-8.1-4.7-16.2-8.1-25.7-11.8
				c-8.1-3.4-17.6-5.7-26.7-8.1c-18.6-3.4-35.2-3.4-50.4,1c-15.2,3.4-26.7,11.8-36.2,23.3c3.4,4.7,5.7,9.5,9.5,13.9
				c3.4,4.7,7.1,8.1,11.8,11.8c8.1,8.1,16.2,15.2,24.7,21C239.1,1136.8,258.7,1145,278.7,1147.3z"/>
		</g>
		<path class="st0" d="M381.5,24.1c-17.6,12.8-31.4,26.7-40.9,43.3c-4.7,8.1-8.1,16.2-10.5,24.7c-2.4,8.1-3.4,16.2-3.4,24.7
			c8.1,1,16.2,0,24.7-1c8.5-1,16.2-2.4,24.7-4.7c16.2-5.7,32.8-11.8,48-23.3c7.1-5.7,15.2-10.5,21-17.6c7.1-5.7,11.8-12.8,17.6-19.9
			c10.5-12.8,18.6-28.1,23.3-44.3c-15.2-5.7-32.8-7.1-51.4-4.7c-9.5,1-18.6,4.7-28.1,8.1C400.4,13.6,390.9,18.4,381.5,24.1z"/>
	</g>
	<g>
		<path class="st0" d="M853.1,701.3c-8.5,22.7-16.2,41.9-23,61.9c-2.4,7.1-5.7,9.1-13.2,9.1c-26.7-0.3-27,0-36.2-25.4
			c-14.5-39.6-29.4-78.8-43.6-118.7c-3.7-10.5-7.1-18.9-21.3-14.9c0-11.8,0-22.3,0-33.5c22.3,0,44.6,0,68,0c0,10.5,0,21,0,32.1
			c-5.4,0.3-10.8,1-17.9,1.4c13.9,37.9,27.7,75.1,42.6,115.3c14.9-39.9,28.4-77.1,42.3-113.9c-1-1-1.7-1.7-2-1.7
			c-15.9-1.4-15.9-1.4-15.9-17.6c0-5.1,0-10.1,0-15.9c27.7,0,54.1,0,81.5,0c0,10.5,0,21,0,33.1c-6.8,0-13.5,0.3-20.3,0
			c-6.4-0.3-9.1,2-11.2,7.8c-12.5,33.1-12.8,33.1-0.3,66.3c4.7,12.8,9.8,25.7,15.6,41.6c14.5-39.6,28.4-76.8,42.6-115
			c-6.4-0.7-11.8-1-17.9-1.4c0-10.8,0-21,0-32.1c25.4,0,50.4,0,76.1,0c0,10.5,0,21,0,31.8c-2.4,0.3-4.4,1-6.4,1
			c-17.6,0.7-17.6,0.7-23.3,16.9c-16.6,44.6-33.1,89.3-49.4,134.2c-2.4,6.1-5.1,8.5-11.8,8.5c-28.1,0-28.1,0.3-37.9-26
			C864.6,732.5,859.2,718.6,853.1,701.3z"/>
		<path class="st0" d="M788.6,291.2c0,15.6,0,30.8,0,47c6.4,0.3,12.8,0.7,19.6,1c0,10.8,0,21,0,32.1c-24.3,0-48.4,0-73,0
			c0-10.1,0-20.6,0-32.1c6.1-0.3,12.2-0.7,19.3-1c0-42.9,0-85.2,0-128.8c-6.4,0-12.5,0-19.3,0c0-11.2,0-21.3,0-32.5
			c24.3,0,48.4,0,73.4,0c0,10.5,0,20.6,0,32.1c-6.4,0-12.8,0-19.6,0c0,16.6,0,31.4,0,47.3c25.7,0,51.4,0,78.1,0
			c0-15.2,0-30.4,0-46.7c-6.1,0-12.2,0-19.3,0c0-11.5,0-22,0-33.1c24,0,48,0,73,0c0,10.5,0,21,0,32.1c-6.1,0.3-12.2,0.7-18.9,1
			c0,42.6,0,85.2,0,128.8c6.4,0,12.5,0,19.3,0c0,11.5,0,22,0,33.1c-24.7,0-48.7,0-73.4,0c0-10.8,0-21,0-32.5c6.1,0,12.5,0,19.6,0
			c0-16.6,0-32.1,0-48C840.6,291.2,815.3,291.2,788.6,291.2z"/>
		<path class="st0" d="M1307.6,772c0-11.5,0-21.6,0-32.5c7.4-0.3,14.5-0.7,22.3-1c0-41.6,0-82.5,0-124.8c-7.1-0.3-14.2-0.7-22-1.4
			c0-10.8,0-21.3,0-32.8c7.4,0,14.5,0,21.6,0c21.6,0,43.6-0.3,65.3,0.3c47.7,1.4,81.5,31.1,88.6,78.1c4.1,27,0,53.1-15.6,76.4
			c-16.6,24.3-39.6,37.2-69,37.9C1369.1,772.3,1339,772,1307.6,772z M1364,738.9c28.1,0,57.1,5.4,74.7-24
			c14.9-24.7,13.5-61.9-3-83.2c-19.3-24.7-46.3-16.9-72-18.9C1364,655.4,1364,696.6,1364,738.9z"/>
		<path class="st0" d="M1246.7,701c7.8,11.5,15.2,22.7,23,33.1c2,2.4,6.1,4.4,9.1,4.7c6.4,0.7,12.8,0.3,20.3,0.3
			c0,11.2,0,21.3,0,33.1c-13.5,0-27,0.3-40.9-0.3c-2.7,0-5.4-3.7-7.4-6.4c-10.8-15.2-22.7-30.1-31.8-46
			c-7.8-13.5-17.9-14.9-31.8-11.8c0,9.8,0,19.9,0,31.1c6.4,0,12.8,0,19.6,0c0,11.5,0,21.6,0,32.8c-17.2,0-34.5,0-53.1,0
			c0-52.1,0-104.1,0-157.2c-7.1-0.7-13.5-1-20.6-1.7c0-10.8,0-21.3,0-34.1c33.5,1.4,66.6,1,99.4,4.4c24,2.7,39.6,18.9,45.3,42.6
			c6.4,26.7-0.3,50-21.6,68C1253.8,695.9,1250.4,698,1246.7,701z M1187.5,672.6c10.8,0,20.6,0.3,30.1,0c14.5-0.7,24.7-11.5,26-26
			c1.4-15.2-6.8-28.7-21-31.4c-11.5-2-23.3-1.7-35.2-2.4C1187.5,633.4,1187.5,652.7,1187.5,672.6z"/>
		<path class="st0" d="M947.8,209.4c-6.8-0.3-12.8-0.7-19.6-1c0-10.8,0-21,0-32.1c51.1,0,101.4,0,153.5,0c0,17.6,0,34.8-0.3,52.1
			c0,1.7-3.4,4.4-5.1,4.7c-8.5,0.3-17.2,0.3-27,0.3c0-8.5,0-15.9,0-23.7c-23,0-44.6,0-66.9,0c0,15.6,0,30.8,0,47
			c19.3,0,38.5,0,58.5,0c0,11.5,0,22,0,33.8c-19.3,0-38.5,0-58.5,0c0,16.6,0,31.8,0,47.7c22,0,43.6,0,65.9,0
			c0.3-8.1,0.7-15.6,1-23.3c10.8,0,20.6,0,31.4,0c0,18.9,0,37.5,0,56.8c-50.7,0-100.8,0-152.2,0c0-10.5,0-21,0-32.1
			c6.4-0.3,12.5-0.7,19.3-1C947.8,295.6,947.8,253,947.8,209.4z"/>
		<path class="st0" d="M630.3,613.8c-6.8-0.7-12.2-1-17.9-1.7c0-10.8,0-21,0-32.8c21.6,0,42.9-0.3,64.2,0.3c2,0,4.7,5.1,6.1,8.1
			c16.6,44,32.8,87.9,49,131.9c4.1,11.5,6.1,24.7,24.3,17.9c0,12.2,0,22.3,0,33.5c-23.3,0-46.7,0-70.7,0c0-10.1,0-20.3,0-31.8
			c5.4-0.3,11.2-0.7,18.6-1c-3.7-9.8-6.8-19.3-10.8-28.1c-0.7-1.7-4.4-3-6.8-3c-16.9-0.3-33.8-0.3-50.7,0c-2.4,0-5.7,1.7-6.8,3.4
			c-3.7,8.8-6.8,17.9-10.5,28.1c6.4,0.3,11.5,0.7,17.2,0.7c0,10.8,0,21.3,0,32.1c-25.4,0-50.4,0-75.7,0c0-10.8,0-21,0-31.4
			c1-0.3,2-1,2.7-1c21.3-1,21.3-1,28.7-21C604.6,683.8,617.1,649.6,630.3,613.8z M662.5,626.3c-0.7,0-1.7,0-2.4,0
			c-5.4,15.2-11.2,30.1-16.9,46c12.5,0,24,0,36.5,0C673.6,656,668.2,641.2,662.5,626.3z"/>
		<path class="st0" d="M749,475.5c0.3-55.1,43.3-97.7,98.4-97.4c52.4,0.3,94.7,44.3,94.3,98.1c-0.3,54.4-43.6,98.1-97.4,97.7
			C791.3,573.5,748.7,529.6,749,475.5z M783.5,475.1c0,35.2,27.4,63.9,61.5,64.2c33.5,0.3,61.9-28.7,62.2-63.6
			c0.3-34.1-27.4-62.9-60.9-63.2C811.6,412.3,783.5,440.3,783.5,475.1z"/>
		<path class="st0" d="M1146,737.9c0,12.5,0,22.7,0,33.5c-22.3,0-44,0-66.3,0c0-10.8,0-21.3,0-32.5c5.7,0,11.2,0,18.6,0
			c-3.7-10.5-6.8-19.6-10.8-28.7c-0.7-2-5.1-3.4-7.4-3.4c-16.2-0.3-32.5-0.3-48.7,0c-3,0-7.1,2.7-8.5,5.1c-3.7,8.1-6.4,16.6-9.8,26
			c6.4,0.3,11.5,0.7,17.6,0.7c0,10.5,0,21,0,32.1c-25,0-49.7,0-75.4,0c0-10.5,0-21,0-31.4c0.7-0.3,1-1,1.7-1
			c18.6,3.7,25-6.4,30.1-22.7c11.2-34.1,24.7-67.3,37.5-102.8c-6.1-0.7-11.5-1-17.2-1.7c0-10.8,0-21.3,0-32.8
			c21,0,41.2-0.3,61.5,0.3c2.7,0,6.8,5.1,8.1,8.8c17.2,46,34.1,92,51.1,138C1130.7,734.5,1133.1,742.9,1146,737.9z M1036.7,672.6
			c12.8,0,24,0,36.9,0c-6.1-16.6-11.8-31.8-18.3-49.7C1048.6,640.8,1042.8,656,1036.7,672.6z"/>
		<path class="st0" d="M1331.2,539.7c0-9.1,0-16.2,0-24c10.8,0,20.6,0,31.4,0c0,18.3,0,36.5,0,55.5c-3,0.3-6.4,0.7-9.8,0.7
			c-41.9,0-83.9-0.3-125.8,0.3c-8.8,0-13.2-1.7-11.8-11.5c0.3-2,0.3-4.1,0-6.1c-1.4-10.1,0.7-16.9,13.5-15.2c2,0.3,7.1-3.7,7.1-5.7
			c0.3-39.9,0.3-79.5,0.3-120.4c-6.8-0.3-12.8-0.7-19.6-1c0-10.5,0-20.3,0-31.8c14.9,0,29.1,0,43.6,0c18.3,0,36.9,0.3,55.1,0
			c5.7,0,7.8,2,8.1,7.8c1.4,24.7,1.7,24.7-23.3,24.7c-7.8,0-15.2,0.3-23,0c-5.7-0.3-9.1,1.4-8.8,8.1c0.3,10.1,0.3,19.9,0,30.1
			c-0.3,6.8,2.7,8.5,8.8,8.1c12.5-0.3,25,0,37.5,0c6.1,0,8.5,1.7,8.8,8.1c1.4,24,1.4,24-23,24c-10.1,0-23.7-2.7-29.8,2.7
			c-5.1,4.7-2,18.9-2,28.7c0,18.6-2.4,17.2,17.2,17.2C1299.8,539.7,1314.7,539.7,1331.2,539.7z"/>
		<path class="st0" d="M1003.3,380.1c0,11.2,0,21.3,0,31.8c-6.1,0.3-11.8,0.7-18.9,1.4c14.2,38.9,28.4,76.4,42.3,113.9
			c1,0,1.7,0,2.7,0c13.9-37.5,27.7-75.1,41.9-113.9c-6.8-0.3-11.8-0.7-17.9-1c0-10.5,0-20.6,0-31.1c23.3,0,46.7,0,70.3,0
			c0,10.1,0,20.3,0,30.4c-0.7,0.3-1.4,1-2,1c-14.5-2.7-19.9,5.1-24.3,17.9c-15.2,44-32.1,87.6-48,131.2c-3,8.1-6.8,11.2-15.6,10.8
			c-24-0.7-24,0-32.5-22.3c-15.6-42.3-31.4-84.9-46.7-127.1c-2.7-7.8-6.8-11.5-14.9-10.1c-8.8,1.7-11.2-2.4-11.2-10.8
			c0.3-21.3,0-21.3,21.6-21.3C967.4,380.1,984.7,380.1,1003.3,380.1z"/>
		<path class="st0" d="M1604.4,579.3c0,17.6,0,33.8,0,50.7c-10.1,0-20.3,0-30.8,0c-0.7-2.4-1.4-5.1-2.4-7.8
			c-4.1-10.8-14.5-17.6-26-16.2c-12.2,1.4-21,9.1-23,20.6c-1.7,10.8,3.4,20.6,15.2,25.4c12.5,5.1,25.7,8.1,38.2,12.8
			c31.4,12.5,44.3,40.2,33.8,71.3c-12.2,35.8-52.7,50.4-86.2,30.8c-10.1,10.5-22.7,3-34.8,5.4c0-19.3,0-37.5,0-56.8
			c9.5,0,18.3-0.3,27,0.3c2,0.3,4.7,4.1,5.7,6.8c5.4,17.9,20.6,26.4,37.9,20.6c10.5-3.4,16.6-11.2,17.6-22c1-10.8-3-19.3-12.8-23.7
			s-19.9-7.1-30.1-10.8c-22-7.4-40.6-18.6-46-43.3c-4.4-20.6,1.4-38.5,17.2-52.4c15.9-13.9,34.5-18.6,55.1-12.2
			c6.1,2,10.8,3.4,17.6,1.7C1585.5,577.9,1594.6,579.3,1604.4,579.3z"/>
		<path class="st0" d="M632,209.4c-8.8,0-17.2,0-26.7,0c0,8.5,0,16.9,0,26c-11.5,0-21.6,0-32.5,0c0-19.6,0-38.9,0-59.2
			c51.1,0,101.8,0,153.2,0c0,19.6,0,39.2,0,59.2c-10.5,0-20.6,0-31.8,0c0-8.5,0-16.9,0-25.7c-9.8,0-18.6,0-27.7,0
			c0,42.6,0,85.2,0,128.5c6.4,0,12.5,0,19.3,0c0,11.5,0,22,0,33.1c-24.3,0-48.4,0-73,0c0-10.5,0-20.6,0-32.5
			c6.1-0.3,12.5-0.7,19.3-1C632,295.3,632,253,632,209.4z"/>
		<path class="st0" d="M633,412.3c-7.8,0-13.5,0-19.9,0c0-10.8,0-21,0-31.8c24,0,47.7,0,72,0c0,10.1,0,20.3,0,31.1
			c-5.7,0.3-11.8,0.7-18.9,1c-0.3,3-0.7,6.1-0.7,9.1c0,35.5,0,71.3-0.3,106.8c0,7.8,2,11.5,10.5,10.8c10.1-0.7,19.9-0.3,30.1,0
			c7.8,0.3,10.8-2.4,10.1-10.1c-0.3-4.4,0-8.8,0-13.9c10.5,0,19.9,0,30.4,0c0,18.6,0,36.5,0,55.5c-3.7,0.3-7.1,0.7-10.5,0.7
			c-37.2,0-74-0.3-111.2,0.3c-9.8,0-12.8-3-11.8-12.5c0.7-6.1,0-12.2,0-17.9c1.7-1,2-1.7,2.7-1.7c17.9-2,17.9-2,17.9-21
			c0-31.1,0-62.2,0-93.3C633,421.7,633,417.7,633,412.3z"/>
		<path class="st0" d="M1206.8,540.4c0,10.8,0,20.3,0,30.4c-24.3,0-48,0-72.4,0c0-10.1,0-19.9,0-29.8c0.7-0.3,1-1,1.7-1
			c18.3-2,18.3-2,18.3-21.6c0-31.1,0-62.2,0-93.3c0-3.7,0-7.4,0-12.2c-7.1-0.3-13.2-0.7-19.9-1c0-10.1,0-20.3,0-31.1
			c23.7,0,47.7,0,72,0c0,10.1,0,20.3,0,31.1c-6.4,0.3-12.5,0.7-19.9,1c0,4.1,0,7.8,0,11.5c0,33.8,0.3,68-0.3,101.8
			c-0.3,10.8,2.7,15.2,13.9,13.9C1202.1,539.4,1204.1,540.1,1206.8,540.4z"/>
		<path class="st0" d="M1452.6,176.9c10.1,0,19.9,0,30.4,0c0,10.5,0,20.3,0,30.8c-9.8,0-19.9,0-30.4,0
			C1452.6,198.2,1452.6,188.4,1452.6,176.9z"/>
		<path class="st0" d="M1331.6,217.5c10.5,0,20.6,0,31.1,0c0,10.5,0,19.9,0,30.4c-10.1,0-20.3,0-31.1,0
			C1331.6,237.8,1331.6,228,1331.6,217.5z"/>
		<path class="st0" d="M1210.9,13.3c10.5,0,20.3,0,30.8,0c0,10.5,0,20.3,0,30.8c-10.1,0-20.3,0-30.8,0
			C1210.9,34.2,1210.9,24.4,1210.9,13.3z"/>
		<path class="st0" d="M1251.1,13.3c10.5,0,19.9,0,30.4,0c0,10.5,0,20.3,0,31.1c-10.1,0-19.9,0-30.4,0
			C1251.1,33.9,1251.1,23.8,1251.1,13.3z"/>
		<path class="st0" d="M1451.9,44.4c0-10.8,0-20.3,0-30.8c10.5,0,20.6,0,31.1,0c0,10.1,0,19.9,0,30.8
			C1472.9,44.4,1462.8,44.4,1451.9,44.4z"/>
		<path class="st0" d="M1130.4,54.5c10.5,0,19.9,0,30.4,0c0,10.5,0,20.6,0,31.1c-10.1,0-19.9,0-30.4,0
			C1130.4,75.5,1130.4,65.7,1130.4,54.5z"/>
		<path class="st0" d="M1241.6,86c-10.5,0-19.9,0-30.4,0c0-10.5,0-20.3,0-31.1c9.8,0,19.6,0,30.4,0
			C1241.6,64.7,1241.6,74.8,1241.6,86z"/>
		<path class="st0" d="M1281.5,86c-3,0.3-5.1,0.3-7.1,0.3c-25.7,0.3-29.4-4.7-22.3-31.8c9.5,0,18.9,0,29.4,0
			C1281.5,65,1281.5,74.8,1281.5,86z"/>
		<path class="st0" d="M1362.7,380.8c0,10.5,0,20.3,0,30.8c-10.1,0-19.9,0-30.8,0c0-9.8,0-19.9,0-30.8
			C1341.7,380.8,1351.5,380.8,1362.7,380.8z"/>
		<path class="st0" d="M1483.4,54.9c0,10.5,0,20.3,0,30.4c-10.5,0-20.3,0-31.1,0c0-10.1,0-19.9,0-30.4
			C1462.4,54.9,1472.2,54.9,1483.4,54.9z"/>
		<path class="st0" d="M1120.6,167.1c-11.2,0-20.3,0-30.1,0c0-10.1,0-20.3,0-30.8c9.5,0,19.3,0,30.1,0
			C1120.6,146.2,1120.6,156.3,1120.6,167.1z"/>
		<path class="st0" d="M1130.4,166.8c0-10.5,0-20.3,0-30.8c10.1,0,19.9,0,30.8,0c0,9.8,0,19.9,0,30.8
			C1151,166.8,1141.2,166.8,1130.4,166.8z"/>
		<path class="st0" d="M1532.8,85.6c0-10.5,0-19.9,0-30.4c10.1,0,20.3,0,31.1,0c0,10.1,0,19.9,0,30.4
			C1553.7,85.6,1543.9,85.6,1532.8,85.6z"/>
		<path class="st0" d="M1242,167.1c-10.8,0-20.6,0-31.1,0c0-10.5,0-20.3,0-30.8c10.1,0,20.3,0,31.1,0
			C1242,146.2,1242,156,1242,167.1z"/>
		<path class="st0" d="M1251.1,166.8c0-10.5,0-20.3,0-30.8c10.5,0,20.3,0,30.8,0c0,10.5,0,20.3,0,30.8
			C1271.7,166.8,1261.9,166.8,1251.1,166.8z"/>
		<path class="st0" d="M1331.6,339.9c10.1,0,20.3,0,31.1,0c0,10.1,0,19.9,0,30.4c-10.1,0-20.3,0-31.1,0
			C1331.6,360.5,1331.6,350.4,1331.6,339.9z"/>
		<path class="st0" d="M1362.7,136c0,10.5,0,20.6,0,31.1c-10.5,0-20.3,0-30.8,0c0-10.1,0-20.3,0-31.1
			C1341.7,136,1351.5,136,1362.7,136z"/>
		<path class="st0" d="M1483.4,218.5c0,10.1,0,19.3,0,29.4c-10.5,0-20.6,0-31.1,0c0-2.7-0.3-5.1-0.3-7.4
			C1451.3,215.1,1457.4,210.7,1483.4,218.5z"/>
		<path class="st0" d="M1210.9,289.2c0-10.5,0-20.3,0-30.4c10.5,0,20.6,0,31.1,0c0,10.1,0,19.9,0,30.4
			C1231.5,289.2,1221.4,289.2,1210.9,289.2z"/>
		<path class="st0" d="M1483.1,167.1c-10.5,0-19.9,0-30.4,0c0-10.5,0-20.6,0-31.4c9.8,0,19.9,0,30.4,0
			C1483.1,145.8,1483.1,156,1483.1,167.1z"/>
		<path class="st0" d="M1362.7,299.7c0,10.5,0,19.9,0,30.4c-10.5,0-20.6,0-31.4,0c0-10.1,0-19.6,0-30.4
			C1341.4,299.7,1351.5,299.7,1362.7,299.7z"/>
		<path class="st0" d="M1563.9,167.1c-10.5,0-20.3,0-30.8,0c0-10.5,0-20.6,0-31.1c10.1,0,19.9,0,30.8,0
			C1563.9,146.2,1563.9,156.3,1563.9,167.1z"/>
		<path class="st0" d="M1573,135.7c10.5,0,20.3,0,30.4,0c0,10.5,0,20.6,0,31.4c-10.1,0-19.9,0-30.4,0
			C1573,156.6,1573,146.8,1573,135.7z"/>
		<path class="st0" d="M1251.1,289.2c0-10.5,0-20.6,0-31.1c10.5,0,19.9,0,30.4,0c0,10.1,0,20.3,0,31.1
			C1271.4,289.2,1261.6,289.2,1251.1,289.2z"/>
		<path class="st0" d="M1362.7,177.3c0,10.5,0,20.3,0,30.8c-10.5,0-20.6,0-31.1,0c0-10.5,0-20.3,0-30.8
			C1342.1,177.3,1351.9,177.3,1362.7,177.3z"/>
		<path class="st0" d="M1362.7,289.5c-10.8,0-20.6,0-31.1,0c0-10.5,0-20.3,0-31.1c10.1,0,20.3,0,31.1,0
			C1362.7,268.6,1362.7,278.4,1362.7,289.5z"/>
		<path class="st0" d="M1129.7,176.9c11.2,0,20.6,0,31.1,0c0,10.5,0,20.6,0,31.8c-8.8,0-17.2,0.3-25.7-0.3c-2,0-5.1-3.7-5.1-5.7
			C1129.4,194.5,1129.7,186.4,1129.7,176.9z"/>
		<path class="st0" d="M1483.1,289.5c-10.8,0-20.6,0-31.1,0c0-10.5,0-20.3,0-30.8c10.1,0,20.3,0,31.1,0
			C1483.1,268.6,1483.1,278.4,1483.1,289.5z"/>
		<path class="st0" d="M1241.6,208c-10.5,0-20.3,0-30.8,0c0-10.5,0-20.3,0-30.8c10.1,0,19.9,0,30.8,0
			C1241.6,187.1,1241.6,196.9,1241.6,208z"/>
		<path class="st0" d="M1281.9,176.6c0,11.2,0,20.6,0,32.1c-8.8,0-18.3,2-26.4-0.7c-11.5-4.1-3.4-15.2-5.1-23.3
			c-0.3-2.4,3.4-7.8,5.7-7.8C1264.3,175.9,1272.7,176.6,1281.9,176.6z"/>
		<path class="st0" d="M1121.6,177.3c0,9.1,0.3,17.2-0.3,25.4c0,2-3,5.7-5.1,5.7c-8.5,0.7-16.9,0.3-26,0.3c0-11.2,0-20.6,0-31.4
			C1100.6,177.3,1110.1,177.3,1121.6,177.3z"/>
		<path class="st0" d="M1281.9,299.3c0,10.5,0,19.9,0,31.4c-8.8,0-17.6,0.3-26.4-0.3c-1.7,0-4.7-3.4-4.7-5.1
			c-0.7-8.5-0.3-16.9-0.3-26C1261.6,299.3,1271.1,299.3,1281.9,299.3z"/>
		<path class="st0" d="M1564.2,248.3c-11.2,0-20.6,0-31.1,0c0-10.1,0-19.9,0-31.4c8.8,0,17.9-0.3,27,0.3c1.4,0,4.1,3,4.1,4.7
			C1564.5,230.4,1564.2,238.8,1564.2,248.3z"/>
		<path class="st0" d="M1533.1,176.9c10.5,0,20.3,0,31.1,0c0,9.1,0.3,17.6-0.3,26c0,2-3.4,5.1-5.7,5.4c-8.1,0.7-16.2,0.3-25.4,0.3
			C1533.1,197.9,1533.1,188.1,1533.1,176.9z"/>
		<path class="st0" d="M1603.8,208c-2.7,0.3-4.4,0.7-6.1,0.7c-27,1-30.1-3-23.7-32.1c3.7,0,7.8,0,11.8,0c5.7,0,11.5,0,17.9,0
			C1603.8,187.4,1603.8,197.2,1603.8,208z"/>
		<path class="st0" d="M1161.5,216.8c0,11.5,0,20.6,0,31.1c-10.1,0-20.3,0-31.8,0c0-8.8-0.3-17.2,0.3-26c0-1.7,3-4.7,5.1-5.1
			C1143.6,216.5,1152,216.8,1161.5,216.8z"/>
		<path class="st0" d="M1281.9,216.5c0,11.5,0,21,0,31.4c-10.1,0-19.9,0-31.4,0c0-8.8-0.3-17.2,0.3-25.7c0-2,3.4-5.1,5.7-5.4
			C1264.3,216.1,1272.7,216.5,1281.9,216.5z"/>
		<path class="st0" d="M1211.2,218.2c1-0.7,1-1,1.4-1c29.1-4.4,33.5,0.3,28.7,30.8c-9.8,0-19.6,0-30.1,0
			C1211.2,238.1,1211.2,228.3,1211.2,218.2z"/>
		<path class="st0" d="M1090.2,126.5c0-11.5,0-21,0-31.8c8.8,0,17.2-0.3,25.7,0.3c2,0,5.1,3.4,5.4,5.7c0.7,6.4,0.7,13.2,0,19.6
			c-0.3,2.4-3.7,5.7-5.7,6.1C1107.4,126.9,1099.3,126.5,1090.2,126.5z"/>
		<path class="st0" d="M1532.4,125.5c0-8.8-0.3-16.9,0.3-25c0.3-2,4.1-5.4,6.4-5.7c7.8-0.7,15.9-0.3,24.3-0.3c0,10.5,0,20.3,0,30.8
			C1553.7,125.5,1543.9,125.5,1532.4,125.5z"/>
		<path class="st0" d="M1412.4,136.7c1-0.7,1.4-1,1.7-1c30.1-2.7,32.5,0,28.1,31.8c-4.7,0-9.8,0-14.9,0c-4.7,0-9.5,0-14.9,0
			C1412.4,156.6,1412.4,146.8,1412.4,136.7z"/>
		<path class="st0" d="M1201.7,233.1c0,15.9,0,15.9-15.2,15.9c-17.2,0-16.2,2-16.2-14.9c0-17.6,0-17.6,13.5-17.6
			C1203.4,216.8,1201.4,213.8,1201.7,233.1z"/>
		<path class="st0" d="M1291.7,248.6c0-11.2,0-21,0-32.1c9.1,0,17.6-0.3,26,0.3c1.7,0,4.4,2.7,4.4,4.4c0.3,7.4,0.7,15.2,0,22.7
			c0,1.7-3.4,4.1-5.4,4.4C1308.6,248.9,1300.8,248.6,1291.7,248.6z"/>
		<path class="st0" d="M1242.7,125.9c-11.5,0-21.3,0-32.1,0c0-8.8-0.3-16.9,0-25.4c0-2,2-5.1,3.4-5.1c8.1-0.3,16.6-0.7,24.7,0
			c1.4,0,3.4,3,3.7,5.1C1242.7,108.3,1242.7,116.7,1242.7,125.9z"/>
		<path class="st0" d="M1402.9,247.9c-4.1,0.3-6.4,0.7-8.8,0.7c-23.7,0.7-26.4-2.4-22.3-26c0.3-2,2.7-5.4,4.4-5.7
			c7.4-0.7,15.2-0.7,22.7,0c1.7,0,3.7,3.7,4.1,5.7C1403.3,230.7,1402.9,239.1,1402.9,247.9z"/>
		<path class="st0" d="M1412.4,248.6c0-11.5,0-21,0-32.1c9.1,0,17.6-0.3,26,0c1.7,0,4.4,2,4.4,3.4c0.3,8.1,0.3,16.6,0,24.7
			c0,1.4-3.4,3.4-5.1,3.7C1429.3,248.9,1421.2,248.6,1412.4,248.6z"/>
		<path class="st0" d="M1523,208c-10.1,0-19.3,0-30.4,0c0-9.1-0.3-17.9,0.3-26.7c0-1.7,3-4.7,4.7-4.7c8.1-0.7,16.2-0.3,25.4-0.3
			C1523,187.4,1523,197.2,1523,208z"/>
		<path class="st0" d="M1492.5,217.2c10.8,0,20.3,0,30.1,0c0,10.5,0,19.9,0,31.4c-8.1,0-16.6,0.3-24.7-0.3c-2,0-5.4-3.4-5.4-5.4
			C1492.2,234.7,1492.5,226.6,1492.5,217.2z"/>
		<path class="st0" d="M1411.7,176.9c4.4-0.3,7.4-0.3,10.1-0.3c22.3-0.3,25.7,3.7,21.3,26.4c-0.3,2.4-3.4,5.4-5.4,5.4
			c-8.1,0.7-16.2,0.3-25,0.3c-0.3-4.7-0.3-8.1-0.3-11.5C1411.7,190.8,1411.7,184.4,1411.7,176.9z"/>
		<path class="st0" d="M1200.7,289.5c-10.5,0-19.6,0-29.4,0c0-10.5,0-20.3,0-30.8c9.5,0,18.9,0,29.4,0
			C1200.7,268.6,1200.7,278.7,1200.7,289.5z"/>
		<path class="st0" d="M1201.1,13.3c0,10.1,0,20.3,0,30.8c-9.5,0-19.3,0-29.4,0c0-10.1,0-19.9,0-30.8
			C1181.1,13.3,1190.6,13.3,1201.1,13.3z"/>
		<path class="st0" d="M1402.2,208.7c-8.5,0-16.2,0-24,0c-0.7,0-1.7,0-2-0.3c-8.8-6.8-2.7-16.6-4.1-24.7c-1-4.7,1.4-7.8,7.1-7.4
			c7.4,0.3,14.9,0,23.3,0C1402.2,187.1,1402.2,196.9,1402.2,208.7z"/>
		<path class="st0" d="M1321.4,258.4c0,10.8,0,20.6,0,31.1c-10.1,0-19.3,0-29.4,0c0-10.1,0-20.3,0-31.1
			C1301.8,258.4,1311.3,258.4,1321.4,258.4z"/>
		<path class="st0" d="M1292,208.7c-0.3-3.7-0.7-6.4-0.7-9.1c0-7.1,0-14.2,0-23c9.5,0,17.9-0.3,26.4,0.3c1.7,0,4.4,2.7,4.4,4.4
			c0.3,7.4,0.7,15.2,0,22.7c0,1.7-3,4.7-5.1,4.7C1308.9,209,1300.5,208.7,1292,208.7z"/>
		<path class="st0" d="M1373.2,258.1c9.8,0,18.9,0,29.1,0c0,10.5,0,20.6,0,30.8c-1.4,0.3-2.4,1-3.4,1
			C1370.8,291.9,1367.4,287.8,1373.2,258.1z"/>
		<path class="st0" d="M1412.4,289.9c0-11.2,0-21,0-32.1c8.8,0,17.2,0,25.7,0c0.3,0,0.7,0,1,0c8.8,7.1,2.7,16.6,4.1,24.7
			c0.7,4.7-1.4,7.8-7.1,7.4C1428.6,289.9,1421.2,289.9,1412.4,289.9z"/>
		<path class="st0" d="M1200.7,208.7c-8.5,0-16.9,0-25,0c-0.3,0-0.7,0-1,0c-9.1-7.1-2.7-16.9-3.7-25.7c-0.3-1.7,4.1-6.1,6.4-6.4
			c24.3-2.7,25-2,24.3,22.7C1201.7,202.3,1201.1,205,1200.7,208.7z"/>
		<path class="st0" d="M1493.2,289.5c0-10.5,0-20.3,0-31.1c9.8,0,19.3,0,29.8,0c0,10.1,0,20.3,0,31.1
			C1512.8,289.5,1503.7,289.5,1493.2,289.5z"/>
		<path class="st0" d="M1161.8,125.9c-11.2,0-21,0-31.8,0c0-9.1-0.3-17.6,0-26.4c0-1.7,2-4.4,3.4-4.4c8.1-0.3,16.6-0.3,24.7,0
			c1.4,0,3.4,4.1,3.4,6.1C1161.8,109,1161.8,116.7,1161.8,125.9z"/>
		<path class="st0" d="M1291.7,299c8.8,0,16.9-0.3,25,0s5.7,7.4,5.1,11.2c-1.4,7.1,6.1,17.2-5.1,20.3c-7.8,2-16.2,0.3-25,0.3
			C1291.7,320,1291.7,310.1,1291.7,299z"/>
		<path class="st0" d="M1522.6,167.1c-10.1,0-19.3,0-29.4,0c0-10.5,0-20.3,0-30.8c9.5,0,18.9,0,29.4,0
			C1522.6,145.8,1522.6,156,1522.6,167.1z"/>
		<path class="st0" d="M1402.2,330.8c-8.8,0-17.2,0.3-25.7-0.3c-1.7,0-4.4-2.7-4.4-4.4c-0.3-7.4-0.7-15.2,0-22.7
			c0-1.7,3.4-4.4,5.1-4.7c8.1-0.7,16.2-0.3,25-0.3C1402.2,309.8,1402.2,319.6,1402.2,330.8z"/>
		<path class="st0" d="M1412.4,299c9.1,0,17.2-0.3,25.4,0.3c2,0,5.1,3.4,5.4,5.7c0.7,6.8,0.7,13.9,0,20.6c-0.3,2-3,5.1-4.7,5.4
			c-8.5,0.7-16.9,0.3-26,0.3C1412.4,320,1412.4,310.5,1412.4,299z"/>
		<path class="st0" d="M1402.6,135.3c0,11.2,0,21,0,32.1c-9.1,0-18.6,2-26.4-0.7c-9.8-3.4-3.4-13.5-4.4-20.6
			c-0.3-3.4,2.4-10.1,4.4-10.1C1384.7,134.7,1393.5,135.3,1402.6,135.3z"/>
		<path class="st0" d="M1291.7,370.7c0-10.1,0-19.3,0-31.1c9.1,0,18.3-0.3,27.7,0.3c1,0,2.7,3.7,2.7,5.7c3,24.7,1.7,26-23,25.4
			C1297.1,371,1295.1,371,1291.7,370.7z"/>
		<path class="st0" d="M1292,135.3c4.7,0,8.1,0,11.5,0c5.4,0,11.2,0,17.6,0c0,10.5,0,20.6,0,31.4c-9.5,0-18.9,0-29.1,0
			C1292,156.6,1292,146.5,1292,135.3z"/>
		<path class="st0" d="M1402.9,370.7c-4.1,0.3-6.4,0.7-8.8,0.7c-24,0.3-26.4-2-22.3-26c0.3-2,2.7-5.4,4.4-5.7
			c7.4-0.7,15.2-0.7,22.7,0c1.4,0,3.7,3,3.7,4.7C1402.9,352.7,1402.9,361.2,1402.9,370.7z"/>
		<path class="st0" d="M1171.3,135.7c9.8,0,18.9,0,29.1,0c0,10.1,0,19.9,0,31.1c-9.1,0-18.6,0-29.1,0
			C1171.3,157,1171.3,146.8,1171.3,135.7z"/>
		<path class="st0" d="M1493.2,85.6c0-10.5,0-20.3,0-30.8c9.8,0,19.3,0,29.4,0c0,10.1,0,20.3,0,30.8
			C1513.1,85.6,1504,85.6,1493.2,85.6z"/>
		<path class="st0" d="M1604.4,125.9c-11.2,0-20.6,0-31.8,0c0-9.1,0-17.6,0-26c0-0.3,0-0.7,0-1c7.1-8.8,16.6-3,24.7-4.1
			c2-0.3,6.1,4.4,6.4,7.4C1604.8,109.6,1604.4,117.4,1604.4,125.9z"/>
		<path class="st0" d="M1282.2,125.9c-10.8,0-20.6,0-31.8,0c0-8.8-0.3-16.9,0-25c0-2,2-5.4,3.4-5.4c8.1-0.3,16.6-0.7,24.7,0
			c1.4,0,3.4,4.1,3.4,6.4C1282.6,109.3,1282.2,116.7,1282.2,125.9z"/>
		<path class="st0" d="M1412.7,54.2c8.5,0,16.9-0.3,25,0c2,0,5.1,2,5.1,3.4c0.3,8.1,0.7,16.6,0,24.7c0,1.4-3.7,3.7-5.7,3.7
			c-7.8,0.3-15.6,0.3-24.3,0.3C1412.7,75.5,1412.7,65.4,1412.7,54.2z"/>
		<path class="st0" d="M1330.9,421.7c11.2,0,21,0,32.1,0c0,9.1,2.4,18.9-0.7,26.7c-3.7,10.1-14.9,3.7-22.7,4.4
			c-2.7,0.3-8.1-3.4-8.5-5.4C1330.6,439.3,1330.9,430.9,1330.9,421.7z"/>
		<path class="st0" d="M1402.6,54.2c0,11.5,0,21,0,32.1c-8.8,0-17.9,2-25.7-0.3c-11.2-3.7-3.4-14.9-5.1-22.3c-1-4.1-1-9.5,6.1-9.5
			C1385.7,54.2,1393.5,54.2,1402.6,54.2z"/>
		<path class="st0" d="M1291.7,85.6c0-10.5,0-20.3,0-31.8c8.5,0,16.6-0.3,24.7,0.3c2,0,5.4,3.4,5.4,5.4c0.7,8.5,0.3,16.9,0.3,26
			C1311.6,85.6,1302.5,85.6,1291.7,85.6z"/>
		<path class="st0" d="M1483.7,125.9c-10.8,0-20.6,0-32.1,0c0-8.8,0-17.2,0-25.7c0-0.3,0-0.7,0-1c6.8-9.1,16.2-2.7,24.3-4.4
			c4.7-1,7.8,1,7.4,6.8C1483.4,109.3,1483.7,116.7,1483.7,125.9z"/>
		<path class="st0" d="M1412.4,13.3c3.7,0,6.8-0.3,9.8-0.3c21.3-0.3,26.4,6.1,20.6,27.4c-0.3,2-3.4,4.4-5.1,4.7
			c-8.1,0.7-16.2,0.3-25.4,0.3C1412.4,34.2,1412.4,24.4,1412.4,13.3z"/>
		<path class="st0" d="M1363,125.9c-10.8,0-20.6,0-32.1,0c0-8.8,0-17.2,0-25.7c0-0.3,0-0.7,0-1c6.8-9.1,16.2-2.7,24.3-4.4
			c4.7-1,7.8,1,7.8,6.8C1363,109.3,1363,116.7,1363,125.9z"/>
		<path class="st0" d="M1493.2,12.9c10.1,0,19.3,0,29.1,0c0,10.1,0,20.3,0,31.1c-9.5,0-18.9,0-29.1,0
			C1493.2,34.2,1493.2,24.1,1493.2,12.9z"/>
		<path class="st0" d="M1401.9,125.9c-3.4,0.3-6.1,0.7-8.8,0.7c-22.7,0.3-25-2.4-21.3-25.4c0.3-2.4,4.1-4.4,6.1-6.4
			c0.3-0.3,0.7,0,1,0C1402.9,92.1,1406,96.1,1401.9,125.9z"/>
		<path class="st0" d="M1411.7,125.2c0-3.7,0-7.1,0-10.5c0-19.9,7.1-25.4,26.4-19.6c2,0.7,3.4,2.7,4.7,4.4c0.7,0.7,0.3,2,0.3,3
			C1445.5,126.5,1441.8,129.6,1411.7,125.2z"/>
		<path class="st0" d="M1306.6,126.5c-17.9,0-15.6,1-15.6-15.6c0-17.2-2.7-16.2,16.9-16.2c14.2,0,14.2,0,14.2,16.2
			C1322.5,126.5,1322.5,126.5,1306.6,126.5z"/>
		<path class="st0" d="M1523.6,111c-0.3,17.2,2,15.2-16.6,15.6c-14.5,0-14.5,0-14.5-15.6c0-16.2,0-16.2,15.2-16.2
			C1523.6,94.4,1523.6,94.4,1523.6,111z"/>
		<path class="st0" d="M1201.7,111c-0.3,17.2,1.7,15.2-16.9,15.6c-14.5,0-14.5,0-14.5-16.6c0-15.2,0-15.2,16.2-15.2
			C1201.7,94.8,1201.7,94.8,1201.7,111z"/>
	</g>
	<g>
		<g>
			<path class="st0" d="M633.5,1008.7v21.9h-55v-17.3c0-3.7,1.4-6.1,18-31.4c7.2-11.2,11.9-18.7,13.1-21.4c1.2-2.5,1.9-6.1,1.9-10.5
				v-12.1c0-3.9-1.8-5.6-5.8-5.6c-4.7,0-5.8,1.4-5.8,7.4v17.5h-21.5V929c0-5.8,1.2-9.5,4-11.7c3.9-3.2,12.4-5.4,20.8-5.4
				c10,0,18.2,1.8,23.3,4.7c4.9,3,6.8,8.2,6.8,18v18.7c0,8.2-1.9,13.5-10.5,28c-8.8,14-9.3,14.7-11.2,17.7c-2.1,3.1-4,6.3-6.1,9.6
				H633.5z"/>
			<path class="st0" d="M645.2,931.8c0-9.8,1.4-13.5,6-16.1c4.4-2.5,12.8-3.9,23.5-3.9c21.9,0,28.2,5.3,28.2,23.3v67.3
				c0,13.1-1.2,20.8-3.9,23.3c-4.4,4-13.8,6.5-25.9,6.5c-10.9,0-19.3-2.6-23.3-7.2c-3.5-4-4.6-9.1-4.6-21.7V931.8z M681.3,937.9
				c0-4.6-2.6-7.2-7.4-7.2c-4.9,0-6.7,2.3-6.7,8.4v61.1c0,8.2,1.8,11,7,11c4.7,0,7-2.8,7-8.9V937.9z"/>
			<path class="st0" d="M770.1,1008.7v21.9h-55v-17.3c0-3.7,1.4-6.1,18-31.4c7.2-11.2,11.9-18.7,13.1-21.4c1.2-2.5,1.9-6.1,1.9-10.5
				v-12.1c0-3.9-1.8-5.6-5.8-5.6c-4.7,0-5.8,1.4-5.8,7.4v17.5h-21.5V929c0-5.8,1.2-9.5,4-11.7c3.9-3.2,12.4-5.4,20.8-5.4
				c10,0,18.2,1.8,23.3,4.7c4.9,3,6.8,8.2,6.8,18v18.7c0,8.2-1.9,13.5-10.5,28c-8.8,14-9.3,14.7-11.2,17.7c-2.1,3.1-4,6.3-6.1,9.6
				H770.1z"/>
			<path class="st0" d="M781.8,931.8c0-9.8,1.4-13.5,6-16.1c4.4-2.5,12.8-3.9,23.5-3.9c21.9,0,28.2,5.3,28.2,23.3v67.3
				c0,13.1-1.2,20.8-3.9,23.3c-4.4,4-13.8,6.5-25.9,6.5c-10.9,0-19.3-2.6-23.3-7.2c-3.5-4-4.6-9.1-4.6-21.7V931.8z M817.9,937.9
				c0-4.6-2.6-7.2-7.4-7.2c-4.9,0-6.7,2.3-6.7,8.4v61.1c0,8.2,1.8,11,7,11c4.7,0,7-2.8,7-8.9V937.9z"/>
			<path class="st0" d="M908.1,957.7v-17.9c0-7-1.4-8.8-7.4-8.8c-4.6,0-6,1.4-6,6v65.5c0,6.8,1.8,9.5,6.5,9.5c4.9,0,6.7-2.5,6.8-9.5
				l0.2-14.5H899v-19.6h30.7v42.4c0,9.6-2.5,15.6-7.4,17.9c-4.6,2.5-13,3.9-21.9,3.9c-10.9,0-20.3-2.8-24.3-7.2
				c-3.2-3.2-4-7.5-4-18.7v-75.5c0-8.2,2.3-13.8,6.7-16.1c4.4-2.5,8.6-3.2,19.4-3.2c25.6,0,31.5,4,31.5,21v24.9H908.1z"/>
			<path class="st0" d="M998.7,1004.7c0,14.9-0.7,18.2-5.1,21.9c-4.7,3.9-12.8,5.8-24.2,5.8c-21,0-28.4-5.6-28.4-22.2v-77.6
				c0-8.1,1.4-13.1,4.6-15.8c3.7-3.2,12.3-5.1,22.8-5.1c22.6,0,30.3,4.9,30.3,19.4V1004.7z M963.8,1004.5c0,5.6,1.8,7.7,6.5,7.7
				c5.1,0,6.5-1.4,6.5-6.5v-68c0-5.1-1.8-6.8-6.7-6.8c-4.6,0-6.3,1.8-6.3,6.8V1004.5z"/>
			<path class="st0" d="M1035.1,913.8v95.6h25.4v21.2h-48.9V913.8H1035.1z"/>
			<path class="st0" d="M1070.3,913.8h37.7c17,0.5,20,3.9,20,23.1v73.6c-0.7,15.8-5.1,20.5-19.3,20.1h-38.4V913.8z M1097.7,1011.1
				c7-0.2,8.6-1.8,8.8-8.1v-62.5c-0.2-6.1-2.1-8.4-7.9-8.6h-6v79.2H1097.7z"/>
			<path class="st0" d="M1177.7,913.8l2.8,57.6l1.2,25.6l1.6-24.5l4.7-58.7h21.7l5.8,63.4l1.2,18l1.1-19.3l3-62.2h21.4l-12.3,116.8
				h-26.8l-3.2-53.2l-0.5-16.6l-1.1,17.2l-3.9,52.7h-28l-11.4-116.8H1177.7z"/>
			<path class="st0" d="M1272.5,913.8v116.8h-21.4V913.8H1272.5z"/>
			<path class="st0" d="M1311.7,913.8l14.9,68l-1.4-15.2v-52.7h20v116.8h-24.9l-13.8-69.5l0.5,18v51.5h-20.1V913.8H1311.7z"/>
			<path class="st0" d="M1384.4,913.8l14.9,68l-1.4-15.2v-52.7h20v116.8H1393l-13.8-69.5l0.5,18v51.5h-20.1V913.8H1384.4z"/>
			<path class="st0" d="M1481.6,913.8v18.9h-27.1v24.9h24.5v20.7h-24.5v30.8h28.7v21.5h-51V913.8H1481.6z"/>
			<path class="st0" d="M1527.9,913.8c19.3,0.2,22.6,2.8,23.1,18.6v27c-0.4,8.8-2.3,11.7-9.8,14.7c7.2,1.9,8.9,4.2,9.3,11.7v28
				c0.2,8.2,1.2,12.6,4,16.8h-19.6c-6-0.2-6.8-1.9-7-15.2v-27.7c-0.3-6.7-1.4-7.5-7.9-7.7h-4v50.6H1493V913.8H1527.9z M1521.4,961.9
				c6.3-0.2,8.1-2.3,8.2-9.3v-13c-0.5-5.3-3.7-8.1-8.9-7.9h-4.7v30.1H1521.4z"/>
		</g>
		<g>
			<path class="st0" d="M576.8,1063.2h49.8c22.5,0.7,26.4,5.1,26.4,30.6v97.2c-0.9,20.8-6.7,27.1-25.5,26.6h-50.7V1063.2z
				 M612.9,1191.9c9.3-0.2,11.3-2.3,11.6-10.6v-82.6c-0.2-8.1-2.8-11.1-10.4-11.3h-7.9v104.6H612.9z"/>
			<path class="st0" d="M744.1,1183.4c0,19.7-0.9,24.1-6.7,28.9c-6.3,5.1-16.9,7.6-31.9,7.6c-27.8,0-37.5-7.4-37.5-29.4V1088
				c0-10.6,1.9-17.4,6-20.8c4.9-4.2,16.2-6.7,30.1-6.7c29.9,0,40,6.5,40,25.7V1183.4z M698.1,1183.1c0,7.4,2.3,10.2,8.6,10.2
				c6.7,0,8.6-1.9,8.6-8.6V1095c0-6.7-2.3-9-8.8-9c-6,0-8.3,2.3-8.3,9V1183.1z"/>
			<path class="st0" d="M806.1,1125.7V1095c0-4.2-0.5-5.3-2.1-6.7c-2.1-1.6-4.9-2.5-7.4-2.5c-5.3,0-8.1,2.8-8.1,8.3v87
				c0,8.3,2.1,11.6,7.9,11.6c6.7,0,9.7-3.7,9.7-12.3v-27.3h28v38c0,13.4-2.1,19.2-8.8,22.9c-5.6,3.5-15,5.1-28.7,5.1
				c-15.3,0-27.8-3.2-32.4-8.3c-3.2-3.7-5.1-10.4-5.1-18.7v-101.6c0-11.6,2.1-19,6-22.4c4.9-4.2,16.4-6.9,29.9-6.9
				c13,0,23.4,1.8,29.6,5.6c7.2,3.9,9,8.6,9,21.5v37.7H806.1z"/>
			<path class="st0" d="M876.3,1063.2v121.5c0,5.1,3.7,8.1,9.7,8.1c6,0,8.8-2.5,8.8-8.1v-121.5H923v121.5c0,15.7-0.5,20.1-3,24.3
				c-4.2,6.9-14.8,10.4-32.2,10.4c-16.9,0-28.9-3.2-34-9c-4.4-4.9-5.8-10.9-5.8-25.7v-121.5H876.3z"/>
			<path class="st0" d="M979.5,1063l10.6,81.5l9.7-81.2h38.2v154.4h-25.9v-80.3l1.2-35.4l-12.5,115.7h-20.6l-14.6-115.5l1.6,36.8
				v78.7h-26.6V1063H979.5z"/>
			<path class="st0" d="M1122.3,1063.2v25h-35.9v32.9h32.4v27.3h-32.4v40.7h38v28.5H1057v-154.4H1122.3z"/>
			<path class="st0" d="M1170.2,1063.2l19.7,89.8l-1.9-20.1v-69.7h26.4v154.4h-32.9l-18.3-91.9l0.7,23.8v68h-26.6v-154.4H1170.2z"/>
			<path class="st0" d="M1226.9,1063.2h70.8v25.5h-21.3v128.9h-28.2v-128.9h-21.3V1063.2z"/>
			<path class="st0" d="M1319.4,1063.2h41.7l22.4,154.4h-28.7l-5.1-38.9h-19.2l-4.6,38.9h-30.1L1319.4,1063.2z M1345.6,1152.8
				l-5.8-72.7l-6,72.7H1345.6z"/>
			<path class="st0" d="M1438.8,1063.2c25.5,0.2,29.9,3.7,30.5,24.5v35.6c-0.5,11.6-3,15.5-13,19.4c9.5,2.5,11.8,5.6,12.3,15.5v37
				c0.2,10.9,1.6,16.7,5.3,22.2h-25.9c-7.9-0.2-9-2.5-9.3-20.1v-36.6c-0.5-8.8-1.9-10-10.4-10.2h-5.3v66.9h-30.3v-154.4H1438.8z
				 M1430.3,1126.9c8.3-0.2,10.6-3,10.9-12.3v-17.1c-0.7-6.9-4.9-10.6-11.8-10.4h-6.2v39.8H1430.3z"/>
			<path class="st0" d="M1509.9,1063.2l14.1,47.4l2.8,11.8l2.1-12.3l13.7-47h29.9l-32.6,90.7v63.6h-29.9v-65.3l-31.2-89.1H1509.9z"
				/>
		</g>
	</g>
</g>
</svg>
