<svg enable-background="new 0 0 554.44 392.56" viewBox="0 0 554.44 392.56" xmlns="http://www.w3.org/2000/svg"><g fill="#fff"><path d="m224.53 325.61c2.67-3.5 9.49-12.76 12.21-16.91.6-.92 1.2-2.21 1.2-3.5 0-1.75-1.47-3.32-4.06-3.32-1.89 0-3.59 1.34-4.47 2.3-.37.37-.92.37-1.29 0l-2.81-2.86c-.32-.28-.37-.83-.05-1.2 0 0 3.73-4.52 9.22-4.52 6.59 0 10.46 4.19 10.46 9.31 0 2.44-.69 3.82-1.8 5.99-1.47 2.63-5.25 7.56-7.42 10.6h8.11c.46 0 .88.42.88.88v4.15c0 .46-.41.88-.88.88h-18.43c-.51 0-.88-.42-.88-.88v-.92z"/><path d="m249.73 311.74c0-10.09 4.29-16.13 11.8-16.13s11.8 6.04 11.8 16.13-4.29 16.13-11.8 16.13c-7.51-.01-11.8-6.04-11.8-16.13zm16.18 0c0-6.04-1.57-9.45-4.38-9.45s-4.38 3.41-4.38 9.45c0 6.08 1.57 9.45 4.38 9.45 2.81-.01 4.38-3.37 4.38-9.45z"/><path d="m276.74 325.61c2.67-3.5 9.49-12.76 12.21-16.91.6-.92 1.2-2.21 1.2-3.5 0-1.75-1.47-3.32-4.05-3.32-1.89 0-3.59 1.34-4.47 2.3-.37.37-.92.37-1.29 0l-2.81-2.86c-.32-.28-.37-.83-.05-1.2 0 0 3.73-4.52 9.22-4.52 6.59 0 10.46 4.19 10.46 9.31 0 2.44-.69 3.82-1.8 5.99-1.47 2.63-5.25 7.56-7.42 10.6h8.11c.46 0 .88.42.88.88v4.15c0 .46-.42.88-.88.88h-18.43c-.51 0-.88-.42-.88-.88z"/><path d="m301.95 311.74c0-10.09 4.29-16.13 11.8-16.13s11.8 6.04 11.8 16.13-4.29 16.13-11.8 16.13c-7.52-.01-11.8-6.04-11.8-16.13zm16.17 0c0-6.04-1.57-9.45-4.38-9.45s-4.38 3.41-4.38 9.45c0 6.08 1.57 9.45 4.38 9.45 2.81-.01 4.38-3.37 4.38-9.45z"/><path d="m533.21 30.33c-5.76 14.93-6.13 31.95-5.38 47.76-1.53-6.19-3.44-12.5-5.78-19.11-.6-1.56-1.21-3.07-1.82-4.55.29-7.09-2.1-14.79-5.13-21-7.32-14.96-20.54-27.04-35.87-33.43l26.45 38.95c3.75 5.34 8.15 11.39 13.01 15.95 3.03 7.41 5.55 15.76 7.35 23.08-6.01-13.28-17.75-25.16-33.02-26.18 7.28 11.64 23.57 40.11 36.08 41.64 2.02 13.47 2.8 28.94 1.55 44.03-1.93-15.19-9.34-30.9-23.88-37.46 2.54 12.05 9.3 48.16 22.12 53.7-2.08 15.46-5.27 30.09-9.73 44.15 2.08-15.84-1.3-33.97-14.21-44.56-.8 13.64-3.16 51.3 8.97 59.32-5.14 13.05-11.49 25.67-19.19 38.1 5.37-14.58 5.09-32.8-4.95-45.34-3.87 13.29-14.15 48.23-4.23 59.17-8.32 11.73-18.11 22.63-28.23 31.85 9.74-12.91 14.34-30.89 6.49-45.81-7.23 12.83-25.32 44.13-18.92 56.2-10.49 8.04-23.73 16.4-36.84 22.73 13.1-10.09 23.33-26.75 19.76-43.72-9.47 9.28-38.14 35.88-34.67 50.38-13.57 5.54-26.76 9.44-41.21 12.26 15.61-6.41 30.04-20.47 30.64-38.2-12.19 6.93-47.5 26.15-47.56 40.95-42.92 5.75-67.94 13.2-103.61 38.82.64.86 1.28 1.71 1.92 2.56 35.13-25.35 59.74-32.7 102.05-38.46 1.38 5.49 7.45 9.11 12.32 11.09 17.1 6.96 39.52 4.68 56.94-.35-13.94-10.92-35.47-13.69-52.73-13.46 14.85-2.9 28.37-6.91 42.28-12.63 5.14 8.85 21.17 8.44 29.87 7.08 13.54-2.12 26.67-7.8 38.23-15.05-16.12-6.03-37.07-3.05-53.6 1.47 13.42-6.49 27.09-15.12 37.83-23.41 4.07 3.69 10.87 3.6 15.93 2.73 17.68-3.02 33.84-15.86 45.4-28.96-16.86-1.04-35 7.21-48.83 15.71 10.21-9.35 20.1-20.42 28.48-32.31 4.75 2.58 11.52.34 15.96-1.86 15.47-7.67 27.33-24.23 34.83-39.4-16.76 3.87-31.25 16.63-42.64 29.01 8.26-13.18 15.01-26.55 20.4-40.39 5.29.71 10.93-3.09 14.65-6.44 12.73-11.47 20.19-30 23.77-46.46-14.35 7.71-25.43 22.92-32.91 37.09 4.28-13.87 7.35-28.28 9.34-43.49 8.33-.49 15.45-12.89 17.91-20.06 4.47-13.01 6.33-26.44 5.36-40.22-11.71 12.11-17.51 28.79-21.64 44.87 1.28-15.48.49-31.64-1.66-45.51 4.86-2.2 7.62-8.39 8.96-13.21 4.33-16.29.5-34.56-6.61-49.62z"/><path d="m21.23 30.33c5.76 14.93 6.13 31.95 5.38 47.76 1.53-6.19 3.43-12.5 5.78-19.11.6-1.56 1.21-3.07 1.82-4.55-.29-7.09 2.1-14.79 5.13-21 7.32-14.96 20.54-27.04 35.88-33.43l-26.45 38.95c-3.75 5.34-8.15 11.39-13.02 15.95-3.03 7.41-5.55 15.76-7.35 23.08 6.02-13.28 17.76-25.16 33.03-26.18-7.28 11.63-23.57 40.1-36.08 41.64-2.03 13.47-2.8 28.94-1.55 44.03 1.93-15.19 9.33-30.9 23.88-37.46-2.54 12.05-9.3 48.16-22.13 53.7 2.08 15.46 5.27 30.09 9.74 44.15-2.08-15.84 1.3-33.97 14.2-44.56.79 13.64 3.15 51.3-8.96 59.32 5.14 13.05 11.49 25.67 19.19 38.1-5.37-14.58-5.09-32.8 4.95-45.34 3.87 13.29 14.15 48.23 4.23 59.17 8.32 11.73 18.11 22.63 28.23 31.85-9.74-12.91-14.34-30.89-6.49-45.81 7.23 12.83 25.32 44.13 18.92 56.2 10.49 8.04 23.73 16.4 36.84 22.73-13.1-10.09-23.33-26.75-19.76-43.72 9.46 9.28 38.14 35.88 34.67 50.38 13.57 5.54 26.75 9.44 41.21 12.26-15.61-6.41-30.04-20.47-30.64-38.2 12.18 6.93 47.5 26.15 47.56 40.95 42.91 5.75 67.94 13.2 103.61 38.82-.64.86-1.28 1.71-1.92 2.56-35.13-25.35-59.75-32.7-102.05-38.46-1.39 5.49-7.46 9.11-12.32 11.09-17.1 6.96-39.52 4.68-56.94-.35 13.94-10.92 35.46-13.69 52.73-13.46-14.86-2.9-28.37-6.91-42.28-12.63-5.14 8.85-21.17 8.44-29.87 7.08-13.54-2.12-26.67-7.8-38.23-15.05 16.12-6.03 37.07-3.05 53.59 1.47-13.41-6.49-27.08-15.12-37.83-23.41-4.06 3.69-10.88 3.6-15.93 2.73-17.67-3.02-33.85-15.86-45.4-28.96 16.86-1.04 35 7.21 48.83 15.71-10.21-9.35-20.1-20.42-28.48-32.31-4.75 2.58-11.52.34-15.96-1.86-15.47-7.67-27.33-24.23-34.83-39.4 16.76 3.87 31.26 16.63 42.65 29.01-8.26-13.18-15-26.55-20.4-40.39-5.29.71-10.93-3.09-14.65-6.44-12.73-11.47-20.19-30-23.77-46.46 14.35 7.71 25.43 22.92 32.91 37.09-4.29-13.87-7.35-28.28-9.34-43.49-8.34-.49-15.45-12.89-17.92-20.06-4.47-13.01-6.33-26.44-5.36-40.22 11.71 12.11 17.51 28.79 21.64 44.87-1.28-15.48-.49-31.64 1.66-45.51-4.85-2.2-7.62-8.39-8.96-13.21-4.32-16.29-.5-34.56 6.61-49.62z"/><path d="m85.22 87.61c0-.24.19-.46.42-.46h5.71c4.52 0 8.21 3.79 8.21 8.41 0 4.68-3.7 8.46-8.21 8.46h-5.71c-.23 0-.42-.22-.42-.46zm5.89 12.85c2.64 0 4.56-2.14 4.56-4.89 0-2.72-1.92-4.87-4.56-4.87h-2.25v9.76z"/><path d="m111.37 86.91c4.68 0 8.42 3.88 8.42 8.7s-3.74 8.65-8.42 8.65-8.4-3.83-8.4-8.65c.01-4.82 3.73-8.7 8.4-8.7zm0 13.5c2.57 0 4.68-2.17 4.68-4.8 0-2.65-2.11-4.85-4.68-4.85-2.55 0-4.66 2.19-4.66 4.85.01 2.63 2.11 4.8 4.66 4.8z"/><path d="m131.64 86.91c2.34 0 4.07.75 5.66 2.24.21.19.21.48.02.67l-1.82 1.95c-.16.17-.42.17-.58 0-.87-.8-2.01-1.23-3.16-1.23-2.64 0-4.59 2.27-4.59 4.97 0 2.68 1.97 4.89 4.61 4.89 1.1 0 2.29-.41 3.13-1.16.16-.14.47-.14.61.02l1.82 2c.16.17.14.48-.02.65-1.59 1.59-3.6 2.34-5.68 2.34-4.68 0-8.45-3.83-8.45-8.65 0-4.81 3.77-8.69 8.45-8.69z"/><path d="m141.65 87.61c0-.24.21-.46.44-.46h2.88c.26 0 .44.22.44.46v9.76c0 1.69 1.22 3.04 2.88 3.04 1.68 0 2.92-1.35 2.92-3.04v-9.76c0-.24.19-.46.44-.46h2.88c.23 0 .44.22.44.46v9.96c0 3.66-2.99 6.7-6.69 6.7-3.67 0-6.64-3.04-6.64-6.7v-9.96z"/><path d="m162.12 87.3c.02-.22.23-.39.42-.39h.37c.12 0 .33.1.4.24l5.43 10.42h.05l5.43-10.42c.07-.14.28-.24.4-.24h.37c.19 0 .4.17.42.39l2.64 16.2c.05.31-.16.53-.44.53h-2.76c-.21 0-.42-.19-.44-.39l-1.05-7.45h-.05l-3.93 7.81c-.07.14-.28.27-.4.27h-.42c-.14 0-.33-.12-.4-.27l-3.95-7.81h-.05l-1.03 7.45c-.02.19-.21.39-.44.39h-2.76c-.28 0-.49-.22-.44-.53z"/><path d="m182.8 87.61c0-.24.19-.46.44-.46h9.69c.26 0 .44.22.44.46v2.63c0 .24-.19.46-.44.46h-6.48v2.99h5.33c.23 0 .44.22.44.46v2.63c0 .27-.21.46-.44.46h-5.33v3.26h6.48c.26 0 .44.22.44.46v2.63c0 .24-.19.46-.44.46h-9.69c-.26 0-.44-.22-.44-.46z"/><path d="m198.24 87.35c0-.24.21-.43.44-.43h.58l9.34 9.26h.02v-8.56c0-.24.19-.46.44-.46h2.81c.23 0 .44.22.44.46v16.22c0 .24-.21.43-.44.43h-.37c-.07 0-.26-.07-.3-.12l-9.24-9.57h-.02v8.99c0 .24-.19.46-.44.46h-2.78c-.23 0-.44-.22-.44-.46z"/><path d="m220.21 90.7h-3.34c-.26 0-.44-.22-.44-.46v-2.63c0-.24.19-.46.44-.46h10.39c.26 0 .44.22.44.46v2.63c0 .24-.19.46-.44.46h-3.34v12.87c0 .24-.21.46-.44.46h-2.81c-.23 0-.44-.22-.44-.46v-12.87z"/><path d="m228.85 103.4 7.32-16.22c.07-.14.23-.27.4-.27h.23c.16 0 .33.12.4.27l7.32 16.22c.14.31-.05.63-.4.63h-2.6c-.42 0-.61-.14-.82-.6l-.84-1.9h-6.36l-.84 1.93c-.12.29-.37.58-.84.58h-2.57c-.36-.01-.55-.32-.4-.64zm9.61-5.16-1.78-3.98h-.02l-1.75 3.98z"/><path d="m248.19 87.61c0-.24.19-.46.44-.46h6.99c2.81 0 5.1 2.34 5.1 5.21 0 2.22-1.43 4-3.46 4.85l3.21 6.12c.16.31 0 .7-.4.7h-3.11c-.19 0-.33-.12-.37-.22l-3.11-6.39h-1.61v6.15c0 .24-.21.46-.44.46h-2.78c-.26 0-.44-.22-.44-.46v-15.96zm7.14 6.75c.96 0 1.78-.92 1.78-1.93s-.82-1.83-1.78-1.83h-3.46v3.76z"/><path d="m268.57 95.9-5.17-8.05c-.19-.31 0-.7.37-.7h3.04c.19 0 .3.12.37.22l3.25 4.94 3.25-4.94c.07-.1.16-.22.37-.22h3.04c.37 0 .56.39.37.7l-5.24 8.03v7.69c0 .24-.21.46-.44.46h-2.78c-.26 0-.44-.22-.44-.46v-7.67z"/><path d="m288.04 87.61c0-.24.19-.46.44-.46h9.69c.26 0 .44.22.44.46v2.63c0 .24-.19.46-.44.46h-6.48v3.47h5.33c.23 0 .44.22.44.46v2.63c0 .24-.21.46-.44.46h-5.33v5.86c0 .24-.21.46-.44.46h-2.76c-.26 0-.44-.22-.44-.46v-15.97z"/><path d="m302.96 87.61c0-.24.21-.46.44-.46h2.81c.23 0 .44.22.44.46v15.96c0 .24-.21.46-.44.46h-2.81c-.23 0-.44-.22-.44-.46z"/><path d="m312.44 87.61c0-.24.19-.46.44-.46h2.78c.23 0 .44.22.44.46v12.87h5.57c.26 0 .44.22.44.46v2.63c0 .24-.19.46-.44.46h-8.8c-.26 0-.44-.22-.44-.46v-15.96z"/><path d="m327.76 87.3c.02-.22.23-.39.42-.39h.37c.12 0 .33.1.4.24l5.43 10.42h.05l5.43-10.42c.07-.14.28-.24.4-.24h.37c.19 0 .4.17.42.39l2.64 16.2c.05.31-.16.53-.44.53h-2.76c-.21 0-.42-.19-.44-.39l-1.05-7.45h-.05l-3.93 7.81c-.07.14-.28.27-.4.27h-.42c-.14 0-.33-.12-.4-.27l-3.95-7.81h-.05l-1.03 7.45c-.02.19-.21.39-.44.39h-2.76c-.28 0-.49-.22-.44-.53z"/><path d="m355.37 87.61c0-.24.19-.46.44-.46h9.69c.26 0 .44.22.44.46v2.63c0 .24-.19.46-.44.46h-6.48v3.47h5.33c.23 0 .44.22.44.46v2.63c0 .24-.21.46-.44.46h-5.33v5.86c0 .24-.21.46-.44.46h-2.76c-.26 0-.44-.22-.44-.46v-15.97z"/><path d="m370.3 87.61c0-.24.19-.46.44-.46h9.69c.26 0 .44.22.44.46v2.63c0 .24-.19.46-.44.46h-6.48v2.99h5.33c.23 0 .44.22.44.46v2.63c0 .27-.21.46-.44.46h-5.33v3.26h6.48c.26 0 .44.22.44.46v2.63c0 .24-.19.46-.44.46h-9.69c-.26 0-.44-.22-.44-.46z"/><path d="m384.83 101.74 1.1-2c.19-.31.63-.27.8-.14.09.05 1.78 1.33 3.32 1.33.94 0 1.61-.6 1.61-1.45 0-1.01-.82-1.78-2.41-2.43-2.01-.82-4.54-2.44-4.54-5.33 0-2.39 1.8-4.8 5.4-4.8 2.43 0 4.3 1.28 5.01 1.81.28.17.23.6.14.77l-1.19 1.86c-.16.27-.58.48-.8.31-.21-.12-1.92-1.45-3.34-1.45-.84 0-1.47.58-1.47 1.23 0 .89.7 1.57 2.55 2.34 1.82.75 4.73 2.22 4.73 5.5 0 2.48-2.08 4.99-5.52 4.99-3.04 0-4.72-1.3-5.26-1.86-.25-.25-.32-.34-.13-.68z"/><path d="m402.44 90.7h-3.34c-.26 0-.44-.22-.44-.46v-2.63c0-.24.19-.46.44-.46h10.39c.26 0 .44.22.44.46v2.63c0 .24-.19.46-.44.46h-3.34v12.87c0 .24-.21.46-.44.46h-2.81c-.23 0-.44-.22-.44-.46v-12.87z"/><path d="m414.02 87.61c0-.24.21-.46.44-.46h2.81c.23 0 .44.22.44.46v15.96c0 .24-.21.46-.44.46h-2.81c-.23 0-.44-.22-.44-.46z"/><path d="m421.39 87.78c-.14-.31.05-.63.4-.63h3.11c.19 0 .35.14.4.27l3.86 8.8h.14l3.86-8.8c.05-.12.21-.27.4-.27h3.11c.35 0 .54.31.4.63l-7.35 16.22c-.07.14-.21.27-.4.27h-.23c-.19 0-.33-.12-.4-.27z"/><path d="m437.33 103.4 7.32-16.22c.07-.14.23-.27.4-.27h.23c.16 0 .33.12.4.27l7.32 16.22c.14.31-.05.63-.4.63h-2.6c-.42 0-.61-.14-.82-.6l-.84-1.9h-6.36l-.84 1.93c-.12.29-.37.58-.84.58h-2.57c-.36-.01-.55-.32-.4-.64zm9.61-5.16-1.78-3.98h-.02l-1.75 3.98z"/><path d="m456.67 87.61c0-.24.19-.46.44-.46h2.78c.23 0 .44.22.44.46v12.87h5.57c.26 0 .44.22.44.46v2.63c0 .24-.19.46-.44.46h-8.8c-.26 0-.44-.22-.44-.46v-15.96z"/><path d="m275.81 73.56c-.01-.12-.03-.25-.04-.36 0 0 .01 0 .01-.01.02.12.02.24.03.37z"/><path d="m275.99 75.16c-.14.05-.27.1-.41.14 0 0 0 0 0-.01.14-.03.28-.07.41-.13z"/><path d="m276.35 72.6c-.38.21-.75.41-1.13.59.01-.01.01-.03 0-.04.23-.11.46-.22.69-.34.15-.06.29-.14.44-.21z"/><path d="m291.6 24.43c-1.17-1.03-2.49-1.77-3.91-2.27.33.25.65.49.96.77 5.98 5.18 6.84 16 2.67 27.07-1.68 1.24-3.33 2.65-4.92 4.23-.12.11-.24.24-.36.36.01-.02.02-.03.03-.04 6.79-12.45 7.22-25.8 1.22-32.5l-.31-.34c-.26-.28-.54-.56-.84-.8-7.52-6.52-20.59-1.8-30.03 9.81-9.43 11.62-13.44 27.92-8.39 37.49 1.75 3.32 4.34 5.46 7.46 6.42 6.8 7.57 20.2 4.68 31.11-8.76 1.5-1.84 2.84-3.76 4.03-5.71.01-.02.02-.03.03-.04.4-.65.78-1.31 1.14-1.97.02-.05.04-.11.06-.16.03-.06.05-.12.08-.18.3-.75.67-1.48 1.09-2.18.01-.02.01-.03.02-.04-.64.46-1.27.94-1.88 1.43-2.51 1.99-4.76 4.15-6.74 6.14-.63.64-1.23 1.24-1.79 1.83-.19.2-.38.4-.56.58 0 .01-.01.01-.02.02h-.01c-.3.33-.6.65-.9.97s-.6.63-.91.93c-2.79 2.75-5.68 4.85-8.51 6.29-.07.04-.13.07-.2.11-1.03.52-2.07.95-3.07 1.29-.13.05-.27.1-.41.13v.01h-.01c-4.07 1.3-7.91 1.19-11.05-.32 3.33.62 7.13.01 11.05-1.84.23-.11.46-.22.69-.34.17-.08.34-.17.5-.26.05-.03.11-.05.18-.09 2.73-1.47 5.49-3.52 8.17-6.17.67-.66 1.33-1.36 1.99-2.09.44-.49.87-1 1.31-1.52.11-.12.22-.26.34-.4.09-.11.19-.21.27-.33.19-.22.41-.46.63-.72.11-.13.23-.26.34-.4.16-.18.33-.36.49-.56.34-.37.7-.77 1.09-1.17.19-.21.4-.42.59-.64.8-.85 1.7-1.76 2.67-2.68h.01c.49-.48.98-.94 1.5-1.4.52-.47 1.05-.94 1.6-1.41.56-.48 1.13-.95 1.72-1.41.28-.23.56-.45.85-.66.77-.59 1.56-1.17 2.37-1.71.01-.04.02-.06.03-.1.17-.67.38-1.32.64-1.96.11-.32.26-.64.4-.94.07-.33.14-.66.21-.99.01-.04.02-.09.03-.13.02-.1.04-.19.05-.3.02-.11.03-.18.03-.18 1.49-8.48-.09-16.06-4.83-20.17zm-11.05 7.17c3.57-1.64 6.59.11 6.68 4.03.09 4.07-2.96 8.76-6.73 10.33-3.69 1.54-6.53-.56-6.42-4.55.12-3.86 2.98-8.19 6.47-9.81zm-14.36-1.91c.05-.16.11-.33.17-.49 1.26-3.5 4.37-6.54 7.21-7.01 1.15-.19 2.1.08 2.79.68 1.13 1.01 1.52 2.95.84 5.36-1.11 3.95-4.63 7.49-7.73 7.79-3.02.3-4.45-2.57-3.28-6.33zm-.52 13.26c1.1-1.36 2.56-1.75 3.27-.87.72.89.41 2.75-.72 4.14s-2.61 1.76-3.31.82c-.69-.91-.34-2.74.76-4.09zm-6.81 19.93c-2.69 3.32-6 4.12-7.69 2.09-.13-.17-.26-.35-.37-.56-1.1-1.95-.77-5.15.64-8.03.46-.95 1.02-1.85 1.69-2.67 2.72-3.35 6.22-4.21 7.87-1.84 1.71 2.46.77 7.42-2.14 11.01zm2.85-20.55c-2.05 3.79-5.53 6.03-7.79 5.08-.04-.02-.1-.04-.14-.06-1.01-.49-1.56-1.57-1.67-2.96-.11-1.6.37-3.6 1.45-5.55 1.11-2.01 2.67-3.6 4.22-4.46 1.21-.67 2.42-.89 3.4-.53.18.07.34.15.5.26 1.86 1.19 1.95 4.69.03 8.22zm2.44 20.69c-.81-3.71 1.24-8.73 4.58-11.37 3.38-2.67 6.99-2.01 8.05 1.6 1.09 3.76-.95 9.18-4.61 11.94-3.59 2.73-7.18 1.69-8.02-2.17z"/><path d="m292.82 55.39c-.03.06-.05.12-.08.19-.01 0-.01.01-.01.01-.01.02-.01.03-.02.04-.34.71-.7 1.44-1.09 2.18-.04.07-.07.13-.11.2-.36.69-.76 1.39-1.17 2.1-.01.02-.02.03-.03.04l.24-1.38.3-1.77.04-.19c.42-.34.85-.65 1.28-.96.22-.15.43-.3.65-.46z"/><path d="m296.39 44.59s-.01.06-.03.18c-.02.11-.04.2-.05.3-.01.04-.02.09-.03.13-.07.41-.2 1.02-.4 1.81-.14.55-.32 1.17-.53 1.88-.01.03-.02.05-.03.08-.11.07-.21.14-.32.22-.81.55-1.61 1.12-2.37 1.71-.29.21-.56.43-.85.66l.04-.19.33-1.9.1-.57z"/><path d="m267.74 73.56c-.01-.12-.03-.25-.04-.36 0 0 .01 0 .01-.01.02.12.02.24.03.37z"/><path d="m271.2 73.88c-1.17.64-2.34 1.16-3.49 1.57 0-.04.01-.1.01-.14 0 0 0 0 0-.01.13-.04.27-.08.41-.13 1.01-.34 2.04-.77 3.07-1.29z"/><path d="m297.92 47.38c-.87.49-1.73 1.01-2.57 1.56-.01.01-.02.01-.03.02-.11.07-.21.14-.32.22-.81.55-1.61 1.12-2.37 1.71-.29.21-.56.43-.85.66-.59.46-1.17.94-1.72 1.41s-1.08.94-1.6 1.41-1.02.93-1.5 1.4c-.01 0-.01 0-.01 0-.96.94-1.85 1.84-2.67 2.68-.19.22-.4.43-.59.64-.38.41-.74.8-1.09 1.17-.16.19-.33.38-.49.56-.11.13-.23.26-.34.4-.22.26-.43.49-.63.72-.09.11-.19.22-.27.33-.11.14-.23.27-.34.4-.43.52-.87 1.03-1.31 1.52-.65.73-1.32 1.43-1.99 2.09-2.68 2.65-5.45 4.7-8.17 6.17-.08.04-.16.09-.24.13.03-.02.04-.03.06-.04 3.7-2.08 7.46-5.25 10.95-9.5 1.68-2 5.14-5.96 9.52-9.71.79-.67 1.61-1.34 2.45-1.98.92-.72 1.87-1.39 2.84-2.04.12-.08.25-.16.37-.24.11-.07.21-.14.32-.2.87-.52 1.73-1.03 2.59-1.49z"/><path d="m317.34 51.45-.46.48c-3.82-1.68-4.93-2.47-9.8-2.12-3.64.26-7.05 1.44-10.2 3.11 3.34-1.87 6.99-3.2 10.89-3.48 4.77-.34 5.93.41 9.57 2.01z"/><path d="m322.42 45.67c-4.67-2.49-12.31-2.67-15.69-2.43-3.38.25-7.02 1.51-10.85 3.76-.07.04-.14.08-.21.12-.57.34-1.15.71-1.73 1.09-.59.39-1.19.8-1.79 1.25-1.2.87-2.41 1.83-3.63 2.88-.73.63-1.44 1.25-2.12 1.89-.11.11-.23.2-.34.32-3.04 2.82-5.53 5.63-7.22 7.66-3.5 4.24-7.4 7.49-11.26 9.54.06.46.11.93.13 1.39.01.01.01.03 0 .04.38-.19.75-.38 1.13-.59.08-.04.16-.09.24-.13 2.73-1.47 5.49-3.52 8.17-6.17.67-.66 1.33-1.36 1.99-2.09.44-.49.87-1 1.31-1.52.11-.12.22-.26.34-.4.09-.11.19-.21.27-.33.19-.22.41-.46.63-.72.11-.13.23-.26.34-.4.16-.18.33-.36.49-.56.34-.37.71-.77 1.09-1.17.19-.21.4-.42.59-.64.81-.85 1.7-1.75 2.67-2.68h.01c.49-.48.98-.94 1.5-1.4.52-.47 1.05-.94 1.6-1.41.56-.48 1.13-.95 1.72-1.41.28-.23.56-.45.85-.66.77-.59 1.56-1.17 2.37-1.71.11-.08.21-.15.32-.22.01-.01.02-.01.03-.02.84-.56 1.69-1.08 2.57-1.56 3.1-1.73 6.36-2.96 9.6-3.2 3.22-.23 10.62-.03 14.96 2.29l-4.92 5.08c-.08-.04-.15-.07-.23-.11-3.64-1.61-4.79-2.36-9.57-2.01-3.9.28-7.56 1.61-10.89 3.48-1.4.73-2.75 1.57-4.05 2.47-.22.16-.43.31-.65.47-.43.31-.86.63-1.28.96-3.86 2.97-7.17 6.37-9.82 9.11-.01.01-.02.01-.03.02-3.12 3.45-6.41 6.06-9.64 7.82-.07.04-.13.07-.2.11-1.03.52-2.07.95-3.07 1.29-.13.05-.27.1-.41.13v.01h-.01c-.03.53-.1 1.06-.19 1.58 4.83-1.57 9.83-4.95 14.36-9.9l.17-.17c2.37-2.45 5.21-5.37 8.49-8.03.32-.26.64-.52.96-.77l.03-.03c.46-.35.93-.71 1.4-1.05 4.92-3.57 9.58-5.46 14.23-5.8 4.02-.3 5.1.19 8.01 1.49.36.16.75.34 1.17.51l.85.37 6.77-7.01z"/><path d="m296.87 52.92c-1.39.78-2.74 1.64-4.02 2.57-.04.03-.08.05-.11.09-.01 0-.01.01-.01.01-.64.46-1.27.94-1.88 1.43-2.51 1.99-4.76 4.15-6.74 6.14-.63.64-1.23 1.24-1.79 1.83-.19.2-.38.4-.56.58 0 .01-.01.01-.02.02-.3.33-.6.65-.91.97-.3.32-.6.63-.91.93-2.79 2.75-5.68 4.85-8.51 6.29 3.23-1.77 6.51-4.37 9.64-7.82.01-.01.02-.01.03-.02 2.65-2.74 5.96-6.13 9.82-9.11.42-.34.85-.65 1.28-.96.22-.16.43-.31.65-.47 1.29-.91 2.64-1.75 4.04-2.48z"/><path d="m133.98 70.61-7.35-41.89c-.06-.5-.44-.94-1.12-.94h-1c-.56 0-.87.25-1.06.62l-13.72 29.43c-.06 0-.06 0-.19 0l-13.71-29.42c-.19-.37-.56-.62-1.06-.62h-1c-.68 0-1.06.43-1.12.94l-7.41 41.89c-.12.87.37 1.44 1.18 1.44h5.61c.56 0 1.06-.5 1.12-.94l3.61-23.63h.19l11.03 24.5c.19.37.5.68 1.06.68h1.13c.56 0 .94-.31 1.06-.68l10.9-24.5h.19l3.68 23.62c.12.43.63.94 1.18.94h5.68c.81 0 1.31-.57 1.12-1.44z"/><path d="m169.08 35.89c.68 0 1.18-.56 1.18-1.18v-5.11c0-.63-.5-1.19-1.18-1.19h-25.37c-.69 0-1.19.56-1.19 1.19v41.27c0 .62.5 1.18 1.19 1.18h25.37c.68 0 1.18-.56 1.18-1.18v-5.12c0-.62-.5-1.18-1.18-1.18h-18.46v-10.9h15.4c.62 0 1.18-.5 1.18-1.19v-5.18c0-.62-.56-1.18-1.18-1.18h-15.4v-10.23z"/><path d="m203.18 64.56h-15.9v-34.96c0-.63-.56-1.19-1.18-1.19h-5.74c-.69 0-1.18.56-1.18 1.19v41.27c0 .62.49 1.18 1.18 1.18h22.82c.68 0 1.18-.56 1.18-1.18v-5.12c0-.62-.5-1.19-1.18-1.19z"/><path d="m232.41 49.86c2.93-1.38 6.86-5.11 6.86-9.91 0-6.55-5.74-11.54-13.15-11.54h-14.27c-.69 0-1.18.56-1.18 1.19v41.27c0 .62.49 1.18 1.18 1.18h15.09c7.6 0 13.59-5.05 13.59-12.03-.02-5.74-4.81-9.1-8.12-10.16zm-13.71-14.03h6.66c3.19 0 5.37 2.18 5.37 5.3s-2.18 5.61-5.37 5.61h-6.66zm7.54 28.86h-7.54v-11.1h6.8c3.24 0 6.36 2.31 6.36 5.43-.01 3.24-2.51 5.67-5.62 5.67z"/><path d="m337.01 28.41h-5.92c-.69 0-1.18.56-1.18 1.19v25.56c0 5.23-3.68 9.41-9.1 9.41-5.43 0-9.04-4.18-9.04-9.47v-5.61c-1.05-.15-2.3-.17-4-.04-1.47.11-2.9.35-4.29.72v5.36c0 9.48 7.54 17.14 17.33 17.14 9.85 0 17.39-7.66 17.39-17.14v-25.93c-.01-.63-.57-1.19-1.19-1.19zm-25.24 15.76v-14.57c0-.63-.5-1.19-1.18-1.19h-5.92c-.63 0-1.18.56-1.18 1.19v15.37c1.34-.41 2.7-.67 4.04-.78 1.04-.07 2.54-.11 4.24-.02z"/><path d="m372.29 54.4c5.42-2.18 9.22-6.86 9.22-12.59 0-7.42-6.11-13.41-13.59-13.41h-17.82c-.69 0-1.19.56-1.19 1.19v41.27c0 .62.5 1.18 1.19 1.18h5.73c.63 0 1.19-.56 1.19-1.18v-15.9h6.91l8.3 16.52c.12.25.43.56 1 .56h6.54c1.06 0 1.5-1 1.06-1.81zm-5.04-6.11h-10.16v-12.4h10.16c3.3 0 6.17 2.75 6.17 6.05 0 3.48-2.87 6.35-6.17 6.35z"/><path d="m426.09 28.41h-5.74c-.69 0-1.18.56-1.18 1.19v25.74h-.06l-25.93-27.55h-1.55c-.63 0-1.19.49-1.19 1.12v41.96c0 .62.56 1.18 1.19 1.18h5.67c.69 0 1.18-.56 1.18-1.18v-26.81h.06l26.06 28.61h1.5c.62 0 1.18-.49 1.18-1.12v-41.95c-.01-.63-.57-1.19-1.19-1.19z"/><path d="m465.17 35.89c.69 0 1.19-.56 1.19-1.18v-5.11c0-.63-.5-1.19-1.19-1.19h-25.37c-.68 0-1.18.56-1.18 1.19v41.27c0 .62.5 1.18 1.18 1.18h25.37c.69 0 1.19-.56 1.19-1.18v-5.12c0-.62-.5-1.18-1.19-1.18h-18.45v-10.9h15.39c.63 0 1.19-.5 1.19-1.19v-5.18c0-.62-.56-1.18-1.19-1.18h-15.39v-10.23z"/><path d="m98.06 149.69c0-.35.28-.67.67-.67h8.16c4.13 0 7.53 2.83 7.53 6.51 0 2.7-2.42 4.66-4.06 5.53 1.86.77 4.69 2.49 4.69 5.71 0 3.92-3.47 6.76-7.63 6.76h-8.68c-.38 0-.67-.31-.67-.67v-23.17zm8.19 9.27c1.33 0 2.45-1.12 2.45-2.52s-1.12-2.38-2.45-2.38h-2.73v4.9zm.46 9.56c1.37 0 2.52-1.12 2.52-2.56 0-1.4-1.5-2.45-2.87-2.45h-2.83v5.01z"/><path d="m119.48 149.69c0-.35.28-.67.67-.67h14.49c.38 0 .67.31.67.67v3.82c0 .35-.28.67-.67.67h-9.7v4.34h7.98c.35 0 .67.31.67.67v3.82c0 .39-.31.67-.67.67h-7.98v4.73h9.7c.38 0 .67.31.67.67v3.82c0 .35-.28.67-.67.67h-14.49c-.38 0-.67-.31-.67-.67z"/><path d="m138.59 170.2 1.64-2.91c.28-.46.95-.39 1.19-.21.14.07 2.66 1.92 4.97 1.92 1.4 0 2.42-.88 2.42-2.1 0-1.47-1.23-2.59-3.61-3.54-3.01-1.19-6.79-3.54-6.79-7.74 0-3.47 2.7-6.97 8.09-6.97 3.64 0 6.44 1.85 7.49 2.62.42.25.35.88.21 1.12l-1.79 2.7c-.25.39-.88.7-1.19.46-.31-.17-2.87-2.1-5-2.1-1.26 0-2.21.84-2.21 1.79 0 1.3 1.05 2.28 3.82 3.4 2.73 1.08 7.07 3.22 7.07 7.98 0 3.6-3.12 7.25-8.26 7.25-4.55 0-7.07-1.89-7.88-2.7-.34-.34-.45-.48-.17-.97z"/><path d="m162.32 154.17h-5c-.39 0-.67-.31-.67-.67v-3.82c0-.35.28-.67.67-.67h15.54c.39 0 .67.31.67.67v3.82c0 .35-.28.67-.67.67h-5v18.69c0 .35-.32.67-.67.67h-4.2c-.35 0-.67-.31-.67-.67z"/><path d="m184.75 149.69c0-.35.31-.67.67-.67h4.2c.35 0 .67.31.67.67v23.17c0 .35-.31.67-.67.67h-4.2c-.35 0-.67-.31-.67-.67z"/><path d="m196.27 149.3c0-.35.32-.63.67-.63h.88l13.97 13.44h.04v-12.43c0-.35.28-.67.67-.67h4.2c.35 0 .67.31.67.67v23.56c0 .35-.31.63-.67.63h-.56c-.11 0-.38-.1-.46-.18l-13.83-13.9h-.04v13.06c0 .35-.28.67-.67.67h-4.17c-.35 0-.67-.31-.67-.67z"/><path d="m226.51 154.17h-5c-.39 0-.67-.31-.67-.67v-3.82c0-.35.28-.67.67-.67h15.54c.39 0 .67.31.67.67v3.82c0 .35-.28.67-.67.67h-5v18.69c0 .35-.32.67-.67.67h-4.2c-.35 0-.67-.31-.67-.67z"/><path d="m241.21 149.69c0-.35.28-.67.67-.67h14.49c.38 0 .67.31.67.67v3.82c0 .35-.28.67-.67.67h-9.7v4.34h7.98c.35 0 .67.31.67.67v3.82c0 .39-.31.67-.67.67h-7.98v4.73h9.7c.38 0 .67.31.67.67v3.82c0 .35-.28.67-.67.67h-14.49c-.38 0-.67-.31-.67-.67z"/><path d="m261.72 149.69c0-.35.28-.67.67-.67h10.47c4.2 0 7.63 3.4 7.63 7.56 0 3.22-2.14 5.81-5.18 7.04l4.79 8.89c.25.46 0 1.02-.59 1.02h-4.66c-.28 0-.49-.17-.56-.31l-4.66-9.28h-2.42v8.93c0 .35-.32.67-.67.67h-4.17c-.38 0-.67-.31-.67-.67v-23.18zm10.67 9.8c1.43 0 2.66-1.33 2.66-2.8s-1.23-2.66-2.66-2.66h-5.18v5.46z"/><path d="m285.13 149.3c0-.35.32-.63.67-.63h.88l13.97 13.44h.04v-12.43c0-.35.28-.67.67-.67h4.2c.35 0 .67.31.67.67v23.56c0 .35-.31.63-.67.63h-.56c-.11 0-.39-.1-.46-.18l-13.83-13.9h-.03v13.06c0 .35-.28.67-.67.67h-4.17c-.35 0-.67-.31-.67-.67z"/><path d="m309.07 172.61 10.96-23.56c.1-.21.35-.38.59-.38h.35c.24 0 .49.17.59.38l10.96 23.56c.21.46-.07.91-.59.91h-3.89c-.63 0-.91-.21-1.23-.88l-1.26-2.77h-9.52l-1.26 2.8c-.17.42-.56.84-1.26.84h-3.85c-.52.01-.8-.44-.59-.9zm14.39-7.49-2.66-5.78h-.04l-2.62 5.78z"/><path d="m337.28 154.17h-5c-.38 0-.67-.31-.67-.67v-3.82c0-.35.28-.67.67-.67h15.54c.39 0 .67.31.67.67v3.82c0 .35-.28.67-.67.67h-5v18.69c0 .35-.32.67-.67.67h-4.2c-.35 0-.67-.31-.67-.67z"/><path d="m351.98 149.69c0-.35.31-.67.67-.67h4.2c.35 0 .67.31.67.67v23.17c0 .35-.32.67-.67.67h-4.2c-.35 0-.67-.31-.67-.67z"/><path d="m374.31 148.67c7 0 12.6 5.64 12.6 12.64s-5.6 12.57-12.6 12.57-12.57-5.57-12.57-12.57c.01-7 5.57-12.64 12.57-12.64zm0 19.6c3.85 0 7-3.15 7-6.97 0-3.85-3.15-7.04-7-7.04-3.82 0-6.96 3.19-6.96 7.04 0 3.82 3.15 6.97 6.96 6.97z"/><path d="m391.11 149.3c0-.35.31-.63.67-.63h.88l13.97 13.44h.03v-12.43c0-.35.28-.67.67-.67h4.2c.35 0 .67.31.67.67v23.56c0 .35-.32.63-.67.63h-.56c-.1 0-.38-.1-.46-.18l-13.83-13.9h-.04v13.06c0 .35-.28.67-.67.67h-4.17c-.35 0-.67-.31-.67-.67z"/><path d="m415.05 172.61 10.96-23.56c.1-.21.35-.38.59-.38h.35c.24 0 .49.17.59.38l10.96 23.56c.21.46-.07.91-.59.91h-3.89c-.63 0-.91-.21-1.23-.88l-1.26-2.77h-9.52l-1.26 2.8c-.17.42-.56.84-1.26.84h-3.85c-.52.01-.8-.44-.59-.9zm14.39-7.49-2.66-5.78h-.04l-2.62 5.78z"/><path d="m441.37 149.69c0-.35.28-.67.67-.67h4.17c.35 0 .67.31.67.67v18.69h8.33c.38 0 .67.31.67.67v3.82c0 .35-.28.67-.67.67h-13.16c-.39 0-.67-.31-.67-.67v-23.18z"/><path d="m83.75 205.2 1.64-2.91c.28-.46.95-.39 1.19-.21.14.07 2.66 1.92 4.97 1.92 1.4 0 2.42-.88 2.42-2.1 0-1.47-1.23-2.59-3.61-3.54-3.01-1.19-6.79-3.54-6.79-7.74 0-3.47 2.7-6.97 8.09-6.97 3.64 0 6.44 1.85 7.49 2.62.42.25.35.88.21 1.12l-1.79 2.7c-.25.39-.88.7-1.19.46-.31-.17-2.87-2.1-5-2.1-1.26 0-2.21.84-2.21 1.79 0 1.3 1.05 2.28 3.82 3.4 2.73 1.08 7.07 3.22 7.07 7.98 0 3.61-3.12 7.25-8.26 7.25-4.55 0-7.07-1.89-7.88-2.7-.35-.34-.45-.48-.17-.97z"/><path d="m104.33 184.69c0-.35.32-.67.67-.67h4.17c.38 0 .67.31.67.67v8.82h10.01v-8.82c0-.35.28-.67.67-.67h4.17c.35 0 .67.31.67.67v23.17c0 .35-.32.67-.67.67h-4.17c-.38 0-.67-.32-.67-.67v-9.21h-10.01v9.21c0 .35-.28.67-.67.67h-4.17c-.35 0-.67-.32-.67-.67z"/><path d="m142.13 183.67c7 0 12.6 5.64 12.6 12.64s-5.6 12.57-12.6 12.57-12.57-5.56-12.57-12.57c0-7 5.57-12.64 12.57-12.64zm0 19.6c3.85 0 7-3.15 7-6.97 0-3.85-3.15-7.04-7-7.04-3.82 0-6.97 3.19-6.97 7.04 0 3.82 3.15 6.97 6.97 6.97z"/><path d="m158.96 184.69c0-.35.28-.67.67-.67h10.47c4.2 0 7.63 3.4 7.63 7.56 0 3.22-2.13 5.81-5.18 7.04l4.8 8.89c.25.45 0 1.01-.6 1.01h-4.66c-.28 0-.49-.17-.56-.32l-4.66-9.28h-2.42v8.93c0 .35-.31.67-.67.67h-4.17c-.38 0-.67-.32-.67-.67v-23.16zm10.68 9.8c1.44 0 2.66-1.33 2.66-2.8s-1.22-2.66-2.66-2.66h-5.18v5.46z"/><path d="m185.56 189.17h-5c-.39 0-.67-.31-.67-.67v-3.82c0-.35.28-.67.67-.67h15.54c.39 0 .67.31.67.67v3.82c0 .35-.28.67-.67.67h-5v18.69c0 .35-.32.67-.67.67h-4.2c-.35 0-.67-.32-.67-.67z"/><path d="m207.99 184.69c0-.35.28-.67.63-.67h8.54c6.76 0 12.29 5.5 12.29 12.22 0 6.79-5.53 12.29-12.29 12.29h-8.54c-.35 0-.63-.32-.63-.67zm8.82 18.65c3.96 0 6.83-3.12 6.83-7.11 0-3.96-2.87-7.07-6.83-7.07h-3.36v14.18z"/><path d="m244.5 183.67c7 0 12.6 5.64 12.6 12.64s-5.6 12.57-12.6 12.57-12.57-5.56-12.57-12.57c0-7 5.57-12.64 12.57-12.64zm0 19.6c3.85 0 7-3.15 7-6.97 0-3.85-3.15-7.04-7-7.04-3.82 0-6.97 3.19-6.97 7.04 0 3.82 3.15 6.97 6.97 6.97z"/><path d="m272.18 183.67c3.5 0 6.09 1.08 8.47 3.26.32.28.32.7.04.98l-2.73 2.84c-.25.25-.63.25-.88 0-1.29-1.16-3.01-1.79-4.73-1.79-3.96 0-6.86 3.29-6.86 7.21 0 3.89 2.94 7.11 6.9 7.11 1.65 0 3.43-.6 4.69-1.68.25-.21.7-.21.91.04l2.73 2.91c.25.25.21.7-.04.95-2.38 2.31-5.39 3.39-8.51 3.39-7 0-12.64-5.56-12.64-12.57.02-7.01 5.65-12.65 12.65-12.65z"/><path d="m284.54 184.69c0-.35.32-.67.67-.67h4.31c.38 0 .67.31.67.67v14.18c0 2.45 1.82 4.41 4.31 4.41 2.52 0 4.38-1.96 4.38-4.41v-14.18c0-.35.28-.67.67-.67h4.31c.35 0 .67.31.67.67v14.46c0 5.32-4.48 9.73-10.01 9.73-5.5 0-9.94-4.41-9.94-9.73v-14.46z"/><path d="m312.54 184.23c.04-.31.35-.56.63-.56h.56c.18 0 .49.14.6.35l8.12 15.12h.07l8.12-15.12c.11-.21.42-.35.59-.35h.56c.28 0 .59.25.63.56l3.96 23.52c.07.46-.25.77-.67.77h-4.13c-.32 0-.63-.28-.67-.56l-1.58-10.82h-.07l-5.88 11.34c-.1.21-.42.38-.59.38h-.63c-.21 0-.49-.17-.6-.38l-5.92-11.34h-.07l-1.54 10.82c-.04.28-.32.56-.67.56h-4.13c-.42 0-.73-.32-.67-.77z"/><path d="m340.85 184.69c0-.35.28-.67.67-.67h14.49c.38 0 .67.31.67.67v3.82c0 .35-.28.67-.67.67h-9.7v4.34h7.98c.35 0 .67.31.67.67v3.82c0 .39-.32.67-.67.67h-7.98v4.73h9.7c.38 0 .67.32.67.67v3.82c0 .35-.28.67-.67.67h-14.49c-.39 0-.67-.32-.67-.67z"/><path d="m361.33 184.3c0-.35.31-.63.67-.63h.88l13.97 13.44h.03v-12.43c0-.35.28-.67.67-.67h4.2c.35 0 .67.31.67.67v23.56c0 .35-.32.63-.67.63h-.56c-.1 0-.38-.1-.46-.17l-13.83-13.9h-.04v13.06c0 .35-.28.67-.67.67h-4.17c-.35 0-.67-.32-.67-.67z"/><path d="m391.57 189.17h-5c-.38 0-.67-.31-.67-.67v-3.82c0-.35.28-.67.67-.67h15.54c.39 0 .67.31.67.67v3.82c0 .35-.28.67-.67.67h-5v18.69c0 .35-.32.67-.67.67h-4.2c-.35 0-.67-.32-.67-.67z"/><path d="m401.86 207.61 10.96-23.56c.1-.21.35-.38.59-.38h.35c.24 0 .49.17.59.38l10.96 23.56c.21.46-.07.91-.59.91h-3.89c-.63 0-.91-.21-1.23-.88l-1.26-2.77h-9.52l-1.26 2.8c-.17.42-.56.84-1.26.84h-3.85c-.52.01-.8-.44-.59-.9zm14.38-7.49-2.66-5.78h-.04l-2.62 5.78z"/><path d="m428.18 184.69c0-.35.28-.67.67-.67h10.47c4.2 0 7.63 3.4 7.63 7.56 0 3.22-2.14 5.81-5.18 7.04l4.8 8.89c.24.45 0 1.01-.6 1.01h-4.66c-.28 0-.49-.17-.56-.32l-4.66-9.28h-2.42v8.93c0 .35-.32.67-.67.67h-4.17c-.39 0-.67-.32-.67-.67v-23.16zm10.67 9.8c1.43 0 2.66-1.33 2.66-2.8s-1.23-2.66-2.66-2.66h-5.18v5.46z"/><path d="m456.04 196.73-7.74-11.69c-.28-.46 0-1.02.56-1.02h4.55c.28 0 .46.17.56.31l4.87 7.18 4.87-7.18c.11-.14.25-.31.56-.31h4.55c.56 0 .84.56.56 1.02l-7.84 11.66v11.17c0 .35-.32.67-.67.67h-4.17c-.38 0-.67-.32-.67-.67v-11.14z"/><path d="m166.26 218.67c7 0 12.6 5.64 12.6 12.64s-5.6 12.57-12.6 12.57-12.57-5.57-12.57-12.57 5.57-12.64 12.57-12.64zm0 19.6c3.85 0 7-3.15 7-6.96 0-3.85-3.15-7.04-7-7.04-3.82 0-6.97 3.19-6.97 7.04 0 3.81 3.15 6.96 6.97 6.96z"/><path d="m183.09 219.69c0-.35.28-.67.67-.67h10.47c4.2 0 7.63 3.4 7.63 7.56 0 3.22-2.13 5.81-5.18 7.04l4.8 8.89c.25.45 0 1.01-.6 1.01h-4.66c-.28 0-.49-.17-.56-.32l-4.66-9.28h-2.42v8.93c0 .35-.31.67-.67.67h-4.17c-.38 0-.67-.32-.67-.67v-23.16zm10.68 9.8c1.44 0 2.66-1.33 2.66-2.8s-1.22-2.66-2.66-2.66h-5.18v5.46z"/><path d="m212.11 219.86c-.14-.49.14-.84.63-.84h4.09c.28 0 .56.25.63.49l3.01 11.87h.14l5.42-12.32c.11-.21.32-.38.6-.38h.63c.31 0 .53.17.59.38l5.43 12.32h.14l3.01-11.87c.07-.25.35-.49.63-.49h4.1c.49 0 .77.35.63.84l-6.62 23.52c-.07.28-.35.49-.63.49h-.56c-.25 0-.49-.17-.59-.38l-6.41-14.32h-.1l-6.37 14.32c-.11.21-.35.38-.59.38h-.56c-.28 0-.56-.21-.63-.49z"/><path d="m245.53 219.69c0-.35.28-.67.67-.67h14.49c.38 0 .67.32.67.67v3.82c0 .35-.28.67-.67.67h-9.7v4.34h7.98c.35 0 .67.32.67.67v3.82c0 .38-.31.67-.67.67h-7.98v4.73h9.7c.38 0 .67.32.67.67v3.82c0 .35-.28.67-.67.67h-14.49c-.38 0-.67-.32-.67-.67z"/><path d="m266.04 219.69c0-.35.28-.67.67-.67h8.16c4.13 0 7.53 2.84 7.53 6.51 0 2.7-2.42 4.66-4.06 5.53 1.86.77 4.69 2.49 4.69 5.71 0 3.92-3.47 6.76-7.63 6.76h-8.68c-.38 0-.67-.32-.67-.67v-23.17zm8.19 9.27c1.33 0 2.45-1.12 2.45-2.52s-1.12-2.38-2.45-2.38h-2.73v4.9zm.46 9.56c1.37 0 2.52-1.12 2.52-2.55 0-1.4-1.5-2.45-2.87-2.45h-2.83v5z"/><path d="m286.06 240.2 1.64-2.91c.28-.46.95-.38 1.19-.21.14.07 2.66 1.92 4.97 1.92 1.4 0 2.42-.88 2.42-2.1 0-1.47-1.22-2.59-3.61-3.54-3.01-1.19-6.79-3.54-6.79-7.74 0-3.47 2.7-6.97 8.09-6.97 3.64 0 6.44 1.86 7.49 2.62.42.25.35.88.21 1.12l-1.79 2.7c-.25.38-.88.7-1.19.46-.31-.17-2.87-2.1-5-2.1-1.26 0-2.21.84-2.21 1.79 0 1.29 1.05 2.27 3.82 3.39 2.73 1.09 7.07 3.22 7.07 7.98 0 3.61-3.12 7.25-8.26 7.25-4.55 0-7.07-1.89-7.88-2.7-.34-.33-.45-.47-.17-.96z"/><path d="m306.64 219.69c0-.35.28-.67.67-.67h14.49c.38 0 .67.32.67.67v3.82c0 .35-.28.67-.67.67h-9.7v4.34h7.98c.35 0 .67.32.67.67v3.82c0 .38-.32.67-.67.67h-7.98v4.73h9.7c.38 0 .67.32.67.67v3.82c0 .35-.28.67-.67.67h-14.49c-.39 0-.67-.32-.67-.67z"/><path d="m327.15 219.69c0-.35.28-.67.67-.67h10.47c4.2 0 7.63 3.4 7.63 7.56 0 3.22-2.14 5.81-5.18 7.04l4.8 8.89c.24.45 0 1.01-.6 1.01h-4.66c-.28 0-.49-.17-.56-.32l-4.66-9.28h-2.42v8.93c0 .35-.32.67-.67.67h-4.17c-.39 0-.67-.32-.67-.67v-23.16zm10.68 9.8c1.43 0 2.66-1.33 2.66-2.8s-1.23-2.66-2.66-2.66h-5.18v5.46z"/><path d="m350.6 219.69c0-.35.31-.67.67-.67h4.2c.35 0 .67.32.67.67v23.17c0 .35-.32.67-.67.67h-4.2c-.35 0-.67-.32-.67-.67z"/><path d="m362.15 219.69c0-.35.28-.67.67-.67h14.49c.38 0 .67.32.67.67v3.82c0 .35-.28.67-.67.67h-9.7v4.34h7.98c.35 0 .67.32.67.67v3.82c0 .38-.32.67-.67.67h-7.98v4.73h9.7c.38 0 .67.32.67.67v3.82c0 .35-.28.67-.67.67h-14.49c-.39 0-.67-.32-.67-.67z"/><path d="m381.26 240.2 1.64-2.91c.28-.46.95-.38 1.19-.21.14.07 2.66 1.92 4.97 1.92 1.4 0 2.42-.88 2.42-2.1 0-1.47-1.22-2.59-3.61-3.54-3.01-1.19-6.79-3.54-6.79-7.74 0-3.47 2.7-6.97 8.09-6.97 3.64 0 6.44 1.86 7.49 2.62.42.25.35.88.21 1.12l-1.79 2.7c-.25.38-.88.7-1.19.46-.31-.17-2.87-2.1-5-2.1-1.26 0-2.21.84-2.21 1.79 0 1.29 1.05 2.27 3.82 3.39 2.73 1.09 7.07 3.22 7.07 7.98 0 3.61-3.12 7.25-8.26 7.25-4.55 0-7.07-1.89-7.88-2.7-.34-.33-.45-.47-.17-.96z"/></g></svg>