<svg enable-background="new 0 0 554.4 392.6" viewBox="0 0 554.4 392.6" xmlns="http://www.w3.org/2000/svg"><g fill="#fff"><path d="m224.5 325.6c2.7-3.5 9.5-12.8 12.2-16.9.6-.9 1.2-2.2 1.2-3.5 0-1.8-1.5-3.3-4.1-3.3-1.9 0-3.6 1.3-4.5 2.3-.4.4-.9.4-1.3 0l-2.8-2.9c-.3-.3-.4-.8-.1-1.2 0 0 3.7-4.5 9.2-4.5 6.6 0 10.5 4.2 10.5 9.3 0 2.4-.7 3.8-1.8 6-1.5 2.6-5.2 7.6-7.4 10.6h8.1c.5 0 .9.4.9.9v4.1c0 .5-.4.9-.9.9h-18.4c-.5 0-.9-.4-.9-.9z"/><path d="m249.7 311.7c0-10.1 4.3-16.1 11.8-16.1s11.8 6 11.8 16.1-4.3 16.1-11.8 16.1c-7.5.1-11.8-6-11.8-16.1zm16.2 0c0-6-1.6-9.5-4.4-9.5s-4.4 3.4-4.4 9.5 1.6 9.5 4.4 9.5 4.4-3.4 4.4-9.5z"/><path d="m276.7 325.6c2.7-3.5 9.5-12.8 12.2-16.9.6-.9 1.2-2.2 1.2-3.5 0-1.8-1.5-3.3-4-3.3-1.9 0-3.6 1.3-4.5 2.3-.4.4-.9.4-1.3 0l-2.8-2.9c-.3-.3-.4-.8 0-1.2 0 0 3.7-4.5 9.2-4.5 6.6 0 10.5 4.2 10.5 9.3 0 2.4-.7 3.8-1.8 6-1.5 2.6-5.2 7.6-7.4 10.6h8.1c.5 0 .9.4.9.9v4.1c0 .5-.4.9-.9.9h-18.4c-.5 0-.9-.4-.9-.9v-.9z"/><path d="m302 311.7c0-10.1 4.3-16.1 11.8-16.1s11.8 6 11.8 16.1-4.3 16.1-11.8 16.1c-7.6.1-11.8-6-11.8-16.1zm16.1 0c0-6-1.6-9.5-4.4-9.5s-4.4 3.4-4.4 9.5 1.6 9.5 4.4 9.5c2.9 0 4.4-3.4 4.4-9.5z"/><path d="m533.2 30.3c-5.8 14.9-6.1 31.9-5.4 47.8-1.5-6.2-3.4-12.5-5.8-19.1-.6-1.6-1.2-3.1-1.8-4.5.3-7.1-2.1-14.8-5.1-21-7.3-15-20.5-27-35.9-33.4l26.5 39c3.8 5.3 8.2 11.4 13 16 3 7.4 5.5 15.8 7.3 23.1-6-13.3-17.8-25.2-33-26.2 7.3 11.6 23.6 40.1 36.1 41.6 2 13.5 2.8 28.9 1.5 44-1.9-15.2-9.3-30.9-23.9-37.5 2.5 12.1 9.3 48.2 22.1 53.7-2.1 15.5-5.3 30.1-9.7 44.2 2.1-15.8-1.3-34-14.2-44.6-.8 13.6-3.2 51.3 9 59.3-5.1 13.1-11.5 25.7-19.2 38.1 5.4-14.6 5.1-32.8-5-45.3-3.9 13.3-14.1 48.2-4.2 59.2-8.3 11.7-18.1 22.6-28.2 31.9 9.7-12.9 14.3-30.9 6.5-45.8-7.2 12.8-25.3 44.1-18.9 56.2-10.5 8-23.7 16.4-36.8 22.7 13.1-10.1 23.3-26.8 19.8-43.7-9.5 9.3-38.1 35.9-34.7 50.4-13.6 5.5-26.8 9.4-41.2 12.3 15.6-6.4 30-20.5 30.6-38.2-12.2 6.9-47.5 26.1-47.6 41-42.9 5.8-67.9 13.2-103.6 38.8.6.9 1.3 1.7 1.9 2.6 35.1-25.4 59.7-32.7 102-38.5 1.4 5.5 7.5 9.1 12.3 11.1 17.1 7 39.5 4.7 56.9-.4-13.9-10.9-35.5-13.7-52.7-13.5 14.9-2.9 28.4-6.9 42.3-12.6 5.1 8.9 21.2 8.4 29.9 7.1 13.5-2.1 26.7-7.8 38.2-15-16.1-6-37.1-3-53.6 1.5 13.4-6.5 27.1-15.1 37.8-23.4 4.1 3.7 10.9 3.6 15.9 2.7 17.7-3 33.8-15.9 45.4-29-16.9-1-35 7.2-48.8 15.7 10.2-9.4 20.1-20.4 28.5-32.3 4.8 2.6 11.5.3 16-1.9 15.5-7.7 27.3-24.2 34.8-39.4-16.8 3.9-31.2 16.6-42.6 29 8.3-13.2 15-26.6 20.4-40.4 5.3.7 10.9-3.1 14.7-6.4 12.7-11.5 20.2-30 23.8-46.5-14.3 7.7-25.4 22.9-32.9 37.1 4.3-13.9 7.3-28.3 9.3-43.5 8.3-.5 15.5-12.9 17.9-20.1 4.5-13 6.3-26.4 5.4-40.2-11.7 12.1-17.5 28.8-21.6 44.9 1.3-15.5.5-31.6-1.7-45.5 4.9-2.2 7.6-8.4 9-13.2 4.3-16.5.4-34.8-6.7-49.9z"/><path d="m21.2 30.3c5.8 14.9 6.1 31.9 5.4 47.8 1.5-6.2 3.4-12.5 5.8-19.1.6-1.6 1.2-3.1 1.8-4.5-.3-7.1 2.1-14.8 5.1-21 7.3-15 20.5-27 35.9-33.4l-26.5 39c-3.8 5.3-8.1 11.4-13 16-3 7.4-5.5 15.8-7.4 23.1 6-13.3 17.8-25.2 33-26.2-7.3 11.6-23.6 40.1-36.1 41.6-2 13.5-2.8 28.9-1.5 44 1.9-15.2 9.3-30.9 23.9-37.5-2.5 12.1-9.3 48.2-22.1 53.7 2.1 15.5 5.3 30.1 9.7 44.2-2.1-15.8 1.3-34 14.2-44.6.8 13.6 3.2 51.3-9 59.3 5.1 13.1 11.5 25.7 19.2 38.1-5.4-14.6-5.1-32.8 4.9-45.3 3.9 13.3 14.2 48.2 4.2 59.2 8.3 11.7 18.1 22.6 28.2 31.9-9.7-12.9-14.3-30.9-6.5-45.8 7.2 12.8 25.3 44.1 18.9 56.2 10.5 8 23.7 16.4 36.8 22.7-13.1-10.1-23.3-26.8-19.8-43.7 9.5 9.3 38.1 35.9 34.7 50.4 13.6 5.5 26.8 9.4 41.2 12.3-15.6-6.4-30-20.5-30.6-38.2 12.2 6.9 47.5 26.1 47.6 41 42.9 5.8 67.9 13.2 103.6 38.8-.6.9-1.3 1.7-1.9 2.6-35.1-25.4-59.8-32.7-102.1-38.5-1.4 5.5-7.5 9.1-12.3 11.1-17.1 7-39.5 4.7-56.9-.4 13.9-10.9 35.5-13.7 52.7-13.5-14.9-2.9-28.4-6.9-42.3-12.6-5.1 8.9-21.2 8.4-29.9 7.1-13.5-2.1-26.7-7.8-38.2-15 16.1-6 37.1-3 53.6 1.5-13.4-6.5-27.1-15.1-37.8-23.4-4.1 3.7-10.9 3.6-15.9 2.7-17.7-3-33.8-15.9-45.4-29 16.9-1 35 7.2 48.8 15.7-10-9.6-19.9-20.7-28.3-32.6-4.8 2.6-11.5.3-16-1.9-15.5-7.7-27.3-24.2-34.8-39.4 16.8 3.9 31.3 16.6 42.7 29-8.3-13.2-15-26.6-20.4-40.4-5.3.7-10.9-3.1-14.6-6.4-12.8-11.4-20.2-30-23.8-46.4 14.4 7.7 25.4 22.9 32.9 37.1-4.3-13.9-7.4-28.3-9.3-43.5-8.3-.5-15.4-12.9-17.9-20.1-4.5-13-6.3-26.4-5.4-40.2 11.7 12.1 17.5 28.8 21.6 44.9-1.3-15.5-.5-31.6 1.7-45.5-4.9-2.2-7.6-8.4-9-13.2-4.3-16.3-.5-34.6 6.6-49.7z"/><path d="m85.2 87.6c0-.2.2-.5.4-.5h5.7c4.5 0 8.2 3.8 8.2 8.4 0 4.7-3.7 8.5-8.2 8.5h-5.7c-.2 0-.4-.2-.4-.5zm5.9 12.9c2.6 0 4.6-2.1 4.6-4.9 0-2.7-1.9-4.9-4.6-4.9h-2.2v9.8z"/><path d="m111.4 86.9c4.7 0 8.4 3.9 8.4 8.7s-3.7 8.7-8.4 8.7-8.4-3.8-8.4-8.7c0-4.8 3.7-8.7 8.4-8.7zm0 13.5c2.6 0 4.7-2.2 4.7-4.8 0-2.7-2.1-4.8-4.7-4.8s-4.7 2.2-4.7 4.8 2.1 4.8 4.7 4.8z"/><path d="m131.6 86.9c2.3 0 4.1.8 5.7 2.2.2.2.2.5 0 .7l-1.8 1.9c-.2.2-.4.2-.6 0-.9-.8-2-1.2-3.2-1.2-2.6 0-4.6 2.3-4.6 5s2 4.9 4.6 4.9c1.1 0 2.3-.4 3.1-1.2.2-.1.5-.1.6 0l1.8 2c.2.2.1.5 0 .7-1.6 1.6-3.6 2.3-5.7 2.3-4.7 0-8.4-3.8-8.4-8.7.1-4.7 3.9-8.6 8.5-8.6z"/><path d="m141.6 87.6c0-.2.2-.5.4-.5h2.9c.3 0 .4.2.4.5v9.8c0 1.7 1.2 3 2.9 3s2.9-1.3 2.9-3v-9.8c0-.2.2-.5.4-.5h2.9c.2 0 .4.2.4.5v10c0 3.7-3 6.7-6.7 6.7s-6.6-3-6.6-6.7z"/><path d="m162.1 87.3c0-.2.2-.4.4-.4h.4c.1 0 .3.1.4.2l5.4 10.4h.1l5.4-10.4c.1-.1.3-.2.4-.2h.4c.2 0 .4.2.4.4l2.6 16.2c.1.3-.2.5-.4.5h-2.8c-.2 0-.4-.2-.4-.4l-1.1-7.4h-.1l-3.9 7.8c-.1.1-.3.3-.4.3h-.4c-.1 0-.3-.1-.4-.3l-3.9-7.8h-.1l-1 7.4c0 .2-.2.4-.4.4h-2.8c-.3 0-.5-.2-.4-.5z"/><path d="m182.8 87.6c0-.2.2-.5.4-.5h9.7c.3 0 .4.2.4.5v2.6c0 .2-.2.5-.4.5h-6.5v3h5.3c.2 0 .4.2.4.5v2.6c0 .3-.2.5-.4.5h-5.3v3.3h6.5c.3 0 .4.2.4.5v2.6c0 .2-.2.5-.4.5h-9.7c-.3 0-.4-.2-.4-.5z"/><path d="m198.2 87.3c0-.2.2-.4.4-.4h.6l9.3 9.3v-8.6c0-.2.2-.5.4-.5h2.8c.2 0 .4.2.4.5v16.2c0 .2-.2.4-.4.4h-.4c-.1 0-.3-.1-.3-.1l-9.2-9.6v9c0 .2-.2.5-.4.5h-2.8c-.2 0-.4-.2-.4-.5z"/><path d="m220.2 90.7h-3.3c-.3 0-.4-.2-.4-.5v-2.6c0-.2.2-.5.4-.5h10.4c.3 0 .4.2.4.5v2.6c0 .2-.2.5-.4.5h-3.3v12.9c0 .2-.2.5-.4.5h-2.8c-.2 0-.4-.2-.4-.5z"/><path d="m228.9 103.4 7.3-16.2c.1-.1.2-.3.4-.3h.2c.2 0 .3.1.4.3l7.3 16.2c.1.3-.1.6-.4.6h-2.6c-.4 0-.6-.1-.8-.6l-.8-1.9h-6.4l-.8 1.9c-.1.3-.4.6-.8.6h-2.6c-.4 0-.6-.3-.4-.6zm9.6-5.2-1.8-4-1.8 4z"/><path d="m248.2 87.6c0-.2.2-.5.4-.5h7c2.8 0 5.1 2.3 5.1 5.2 0 2.2-1.4 4-3.5 4.8l3.2 6.1c.2.3 0 .7-.4.7h-3c-.2 0-.3-.1-.4-.2l-3.1-6.4h-1.6v6.2c0 .2-.2.5-.4.5h-2.8c-.3 0-.4-.2-.4-.5zm7.1 6.8c1 0 1.8-.9 1.8-1.9s-.8-1.8-1.8-1.8h-3.5v3.8h3.5z"/><path d="m268.6 95.9-5.2-8.1c-.2-.3 0-.7.4-.7h3c.2 0 .3.1.4.2l3.2 4.9 3.2-4.9c.1-.1.2-.2.4-.2h3c.4 0 .6.4.4.7l-5.2 8v7.7c0 .2-.2.5-.4.5h-2.8c-.3 0-.4-.2-.4-.5z"/><path d="m288 87.6c0-.2.2-.5.4-.5h9.7c.3 0 .4.2.4.5v2.6c0 .2-.2.5-.4.5h-6.5v3.5h5.3c.2 0 .4.2.4.5v2.6c0 .2-.2.5-.4.5h-5.3v5.9c0 .2-.2.5-.4.5h-2.8c-.3 0-.4-.2-.4-.5z"/><path d="m303 87.6c0-.2.2-.5.4-.5h2.8c.2 0 .4.2.4.5v16c0 .2-.2.5-.4.5h-2.8c-.2 0-.4-.2-.4-.5z"/><path d="m312.4 87.6c0-.2.2-.5.4-.5h2.8c.2 0 .4.2.4.5v12.9h5.6c.3 0 .4.2.4.5v2.6c0 .2-.2.5-.4.5h-8.8c-.3 0-.4-.2-.4-.5z"/><path d="m327.8 87.3c0-.2.2-.4.4-.4h.4c.1 0 .3.1.4.2l5.4 10.4 5.4-10.4c.1-.1.3-.2.4-.2h.4c.2 0 .4.2.4.4l2.6 16.2c0 .3-.2.5-.4.5h-2.8c-.2 0-.4-.2-.4-.4l-1-7.4-4 7.8c-.1.1-.3.3-.4.3h-.4c-.1 0-.3-.1-.4-.3l-4-7.8-1 7.4c0 .2-.2.4-.4.4h-2.8c-.3 0-.5-.2-.4-.5z"/><path d="m355.4 87.6c0-.2.2-.5.4-.5h9.7c.3 0 .4.2.4.5v2.6c0 .2-.2.5-.4.5h-6.5v3.5h5.3c.2 0 .4.2.4.5v2.6c0 .2-.2.5-.4.5h-5.3v5.9c0 .2-.2.5-.4.5h-2.8c-.3 0-.4-.2-.4-.5z"/><path d="m370.3 87.6c0-.2.2-.5.4-.5h9.7c.3 0 .4.2.4.5v2.6c0 .2-.2.5-.4.5h-6.5v3h5.3c.2 0 .4.2.4.5v2.6c0 .3-.2.5-.4.5h-5.3v3.3h6.5c.3 0 .4.2.4.5v2.6c0 .2-.2.5-.4.5h-9.7c-.3 0-.4-.2-.4-.5z"/><path d="m384.8 101.7 1.1-2c.2-.3.6-.3.8-.1.1.1 1.8 1.3 3.3 1.3.9 0 1.6-.6 1.6-1.4 0-1-.8-1.8-2.4-2.4-2-.8-4.5-2.4-4.5-5.3 0-2.4 1.8-4.8 5.4-4.8 2.4 0 4.3 1.3 5 1.8.3.2.2.6.1.8l-1.2 1.9c-.2.3-.6.5-.8.3-.2-.1-1.9-1.4-3.3-1.4-.8 0-1.5.6-1.5 1.2 0 .9.7 1.6 2.5 2.3 1.8.8 4.7 2.2 4.7 5.5 0 2.5-2.1 5-5.5 5-3 0-4.7-1.3-5.3-1.9-.1-.3-.2-.4 0-.8z"/><path d="m402.4 90.7h-3.3c-.3 0-.4-.2-.4-.5v-2.6c0-.2.2-.5.4-.5h10.4c.3 0 .4.2.4.5v2.6c0 .2-.2.5-.4.5h-3.3v12.9c0 .2-.2.5-.4.5h-2.8c-.2 0-.4-.2-.4-.5z"/><path d="m414 87.6c0-.2.2-.5.4-.5h2.8c.2 0 .4.2.4.5v16c0 .2-.2.5-.4.5h-2.8c-.2 0-.4-.2-.4-.5z"/><path d="m421.4 87.8c-.1-.3 0-.6.4-.6h3.1c.2 0 .4.1.4.3l3.9 8.8h.1l3.9-8.8c0-.1.2-.3.4-.3h3.1c.4 0 .5.3.4.6l-7.4 16.2c-.1.1-.2.3-.4.3h-.2c-.2 0-.3-.1-.4-.3z"/><path d="m437.3 103.4 7.3-16.2c.1-.1.2-.3.4-.3h.2c.2 0 .3.1.4.3l7.3 16.2c.1.3 0 .6-.4.6h-2.5c-.4 0-.6-.1-.8-.6l-.8-1.9h-6.4l-.8 1.9c-.1.3-.4.6-.8.6h-2.6c-.4 0-.6-.3-.5-.6zm9.6-5.2-1.8-4-1.8 4z"/><path d="m456.7 87.6c0-.2.2-.5.4-.5h2.8c.2 0 .4.2.4.5v12.9h5.6c.3 0 .4.2.4.5v2.6c0 .2-.2.5-.4.5h-8.8c-.3 0-.4-.2-.4-.5z"/><path d="m275.8 73.6c0-.1 0-.2 0-.4z"/><path d="m276 75.2c-.1.1-.3.1-.4.1.1 0 .3-.1.4-.1z"/><path d="m276.4 72.6c-.4.2-.8.4-1.1.6.2-.1.5-.2.7-.3.1-.2.2-.2.4-.3z"/><path d="m291.6 24.4c-1.2-1-2.5-1.8-3.9-2.3.3.2.6.5 1 .8 6 5.2 6.8 16 2.7 27.1-1.7 1.2-3.3 2.7-4.9 4.2-.1.1-.2.2-.4.4 6.8-12.5 7.2-25.8 1.2-32.5l-.3-.3c-.3-.3-.5-.6-.8-.8-7.5-6.5-20.6-1.8-30 9.8s-13.4 27.9-8.4 37.5c1.8 3.3 4.3 5.5 7.5 6.4 6.8 7.6 20.2 4.7 31.1-8.8 1.5-1.8 2.8-3.8 4-5.7.4-.7.8-1.3 1.1-2 0 0 0-.1.1-.2 0-.1 0-.1.1-.2.3-.8.7-1.5 1.1-2.2-.6.5-1.3.9-1.9 1.4-2.5 2-4.8 4.2-6.7 6.1-.6.6-1.2 1.2-1.8 1.8-.2.2-.4.4-.6.6-.3.3-.6.7-.9 1s-.6.6-.9.9c-2.8 2.8-5.7 4.8-8.5 6.3-.1 0-.1.1-.2.1-1 .5-2.1.9-3.1 1.3-.1.1-.3.1-.4.1-4.1 1.3-7.9 1.2-11-.3 3.3.6 7.1 0 11-1.8.2-.1.5-.2.7-.3s.3-.2.5-.3c0 0 .1-.1.2-.1 2.7-1.5 5.5-3.5 8.2-6.2.7-.7 1.3-1.4 2-2.1.4-.5.9-1 1.3-1.5.1-.1.2-.3.3-.4s.2-.2.3-.3c.2-.2.4-.5.6-.7.1-.1.2-.3.3-.4.2-.2.3-.4.5-.6.3-.4.7-.8 1.1-1.2.2-.2.4-.4.6-.6.8-.8 1.7-1.8 2.7-2.7.5-.5 1-.9 1.5-1.4s1-.9 1.6-1.4 1.1-1 1.7-1.4c.3-.2.6-.5.9-.7.8-.6 1.6-1.2 2.4-1.7v-.1c.2-.7.4-1.3.6-2 .1-.3.3-.6.4-.9s.1-.7.2-1v-.1c0-.1 0-.2 0-.3s0-.2 0-.2c1.5-8.4-.1-16-4.8-20.1zm-11 7.2c3.6-1.6 6.6.1 6.7 4 .1 4.1-3 8.8-6.7 10.3s-6.5-.6-6.4-4.5c0-3.9 2.9-8.2 6.4-9.8zm-14.4-1.9c0-.2.1-.3.2-.5 1.3-3.5 4.4-6.5 7.2-7 1.1-.2 2.1.1 2.8.7 1.1 1 1.5 3 .8 5.4-1.1 3.9-4.6 7.5-7.7 7.8-3 .2-4.5-2.7-3.3-6.4zm-.5 13.2c1.1-1.4 2.6-1.8 3.3-.9s.4 2.8-.7 4.1-2.6 1.8-3.3.8c-.8-.8-.4-2.6.7-4zm-6.8 20c-2.7 3.3-6 4.1-7.7 2.1-.1-.2-.3-.3-.4-.6-1.1-2-.8-5.2.6-8 .5-1 1-1.8 1.7-2.7 2.7-3.3 6.2-4.2 7.9-1.8s.8 7.4-2.1 11zm2.8-20.6c-2 3.8-5.5 6-7.8 5.1 0 0-.1 0-.1-.1-1-.5-1.6-1.6-1.7-3-.1-1.6.4-3.6 1.4-5.5 1.1-2 2.7-3.6 4.2-4.5 1.2-.7 2.4-.9 3.4-.5.2.1.3.2.5.3 1.9 1.2 2 4.7.1 8.2zm2.5 20.7c-.8-3.7 1.2-8.7 4.6-11.4s7-2 8 1.6c1.1 3.8-1 9.2-4.6 11.9-3.6 2.8-7.2 1.8-8-2.1z"/><path d="m292.8 55.4c0 .1 0 .1-.1.2-.3.7-.7 1.4-1.1 2.2 0 .1-.1.1-.1.2-.4.7-.8 1.4-1.2 2.1l.2-1.4.3-1.8v-.2c.4-.3.9-.7 1.3-1 .3 0 .5-.2.7-.3z"/><path d="m296.4 44.6v.2.3.1c-.1.4-.2 1-.4 1.8-.1.5-.3 1.2-.5 1.9v.1c-.1.1-.2.1-.3.2-.8.5-1.6 1.1-2.4 1.7-.3.2-.6.4-.9.7v-.2l.3-1.9.1-.6z"/><path d="m267.7 73.6c0-.1 0-.2 0-.4z"/><path d="m271.2 73.9c-1.2.6-2.3 1.2-3.5 1.6v-.1c.1 0 .3-.1.4-.1 1-.5 2.1-.9 3.1-1.4z"/><path d="m297.9 47.4c-.9.5-1.7 1-2.6 1.6-.1.1-.2.1-.3.2-.8.5-1.6 1.1-2.4 1.7-.3.2-.6.4-.9.7-.6.5-1.2.9-1.7 1.4s-1.1.9-1.6 1.4-1 .9-1.5 1.4c-1 .9-1.9 1.8-2.7 2.7-.2.2-.4.4-.6.6-.4.4-.7.8-1.1 1.2-.2.2-.3.4-.5.6-.1.1-.2.3-.3.4-.2.3-.4.5-.6.7-.1.1-.2.2-.3.3s-.2.3-.3.4c-.4.5-.9 1-1.3 1.5-.6.7-1.3 1.4-2 2.1-2.7 2.7-5.5 4.7-8.2 6.2-.1 0-.2.1-.2.1h.1c3.7-2.1 7.5-5.2 11-9.5 1.7-2 5.1-6 9.5-9.7.8-.7 1.6-1.3 2.5-2s1.9-1.4 2.8-2c.1-.1.2-.2.4-.2.1-.1.2-.1.3-.2.8-.7 1.7-1.2 2.5-1.6z"/><path d="m317.3 51.4-.5.5c-3.8-1.7-4.9-2.5-9.8-2.1-3.6.3-7 1.4-10.2 3.1 3.3-1.9 7-3.2 10.9-3.5 4.8-.3 6 .4 9.6 2z"/><path d="m322.4 45.7c-4.7-2.5-12.3-2.7-15.7-2.4-3.4.2-7 1.5-10.9 3.8-.1 0-.1.1-.2.1-.6.3-1.1.7-1.7 1.1s-1.2.8-1.8 1.2c-1.2.9-2.4 1.8-3.6 2.9-.7.6-1.4 1.2-2.1 1.9-.1.1-.2.2-.3.3-3 2.8-5.5 5.6-7.2 7.7-3.5 4.2-7.4 7.5-11.3 9.5.1.5.1.9.1 1.4.4-.2.8-.4 1.1-.6.1 0 .2-.1.2-.1 2.7-1.5 5.5-3.5 8.2-6.2.7-.7 1.3-1.4 2-2.1.4-.5.9-1 1.3-1.5.1-.1.2-.3.3-.4s.2-.2.3-.3c.2-.2.4-.5.6-.7.1-.1.2-.3.3-.4.2-.2.3-.4.5-.6.3-.4.7-.8 1.1-1.2.2-.2.4-.4.6-.6.8-.8 1.7-1.8 2.7-2.7.5-.5 1-.9 1.5-1.4s1-.9 1.6-1.4 1.1-1 1.7-1.4c.3-.2.6-.5.9-.7.8-.6 1.6-1.2 2.4-1.7.1-.1.2-.2.3-.2.8-.6 1.7-1.1 2.6-1.6 3.1-1.7 6.4-3 9.6-3.2s10.6 0 15 2.3l-4.9 5.1c-.1 0-.1-.1-.2-.1-3.6-1.6-4.8-2.4-9.6-2-3.9.3-7.6 1.6-10.9 3.5-1.4.7-2.8 1.6-4 2.5-.2.2-.4.3-.6.5-.4.3-.9.6-1.3 1-3.9 3-7.2 6.4-9.8 9.1-3.1 3.4-6.4 6.1-9.6 7.8-.1 0-.1.1-.2.1-1 .5-2.1.9-3.1 1.3-.1.1-.3.1-.4.1 0 .5-.1 1.1-.2 1.6 4.8-1.6 9.8-4.9 14.4-9.9l.2-.2c2.4-2.4 5.2-5.4 8.5-8 .3-.3.6-.5 1-.8.5-.3.9-.7 1.4-1 4.9-3.6 9.6-5.5 14.2-5.8 4-.3 5.1.2 8 1.5.4.2.8.3 1.2.5l.9.4 6.8-7z"/><path d="m296.9 52.9c-1.4.8-2.7 1.6-4 2.6 0 0-.1 0-.1.1-.6.5-1.3.9-1.9 1.4-2.5 2-4.8 4.2-6.7 6.1-.6.6-1.2 1.2-1.8 1.8-.2.2-.4.4-.6.6-.3.3-.6.7-.9 1s-.6.6-.9.9c-2.8 2.8-5.7 4.8-8.5 6.3 3.2-1.8 6.5-4.4 9.6-7.8 2.6-2.7 6-6.1 9.8-9.1.4-.3.9-.7 1.3-1 .2-.2.4-.3.6-.5 1.3-.8 2.7-1.7 4.1-2.4z"/><path d="m134 70.6-7.3-41.9c-.1-.5-.4-.9-1.1-.9h-1c-.6 0-.9.2-1.1.6l-13.7 29.4c-.1 0-.1 0-.2 0l-13.8-29.4c-.2-.4-.6-.6-1.1-.6h-1c-.7 0-1.1.4-1.1.9l-7.4 41.9c-.1.9.4 1.4 1.2 1.4h5.6c.6 0 1.1-.5 1.1-.9l3.6-23.6h.2l11.1 24.5c.2.4.5.7 1.1.7h1.1c.6 0 .9-.3 1.1-.7l10.9-24.5h.2l3.7 23.6c.1.4.6.9 1.2.9h5.7c.7.1 1.2-.5 1-1.4z"/><path d="m169.1 35.9c.7 0 1.2-.6 1.2-1.2v-5.1c0-.6-.5-1.2-1.2-1.2h-25.4c-.7 0-1.2.6-1.2 1.2v41.3c0 .6.5 1.2 1.2 1.2h25.4c.7 0 1.2-.6 1.2-1.2v-5.1c0-.6-.5-1.2-1.2-1.2h-18.5v-10.9h15.4c.6 0 1.2-.5 1.2-1.2v-5.2c0-.6-.6-1.2-1.2-1.2h-15.4v-10.2z"/><path d="m203.2 64.6h-15.9v-35c0-.6-.6-1.2-1.2-1.2h-5.7c-.7 0-1.2.6-1.2 1.2v41.3c0 .6.5 1.2 1.2 1.2h22.8c.7 0 1.2-.6 1.2-1.2v-5.1c0-.7-.5-1.2-1.2-1.2z"/><path d="m232.4 49.9c2.9-1.4 6.9-5.1 6.9-9.9 0-6.5-5.7-11.5-13.1-11.5h-14.3c-.7 0-1.2.6-1.2 1.2v41.3c0 .6.5 1.2 1.2 1.2h15.1c7.6 0 13.6-5.1 13.6-12-.1-5.9-4.9-9.3-8.2-10.3zm-13.7-14.1h6.7c3.2 0 5.4 2.2 5.4 5.3s-2.2 5.6-5.4 5.6h-6.7zm7.5 28.9h-7.5v-11.1h6.8c3.2 0 6.4 2.3 6.4 5.4 0 3.3-2.5 5.7-5.7 5.7z"/><path d="m337 28.4h-5.9c-.7 0-1.2.6-1.2 1.2v25.6c0 5.2-3.7 9.4-9.1 9.4s-9-4.2-9-9.5v-5.6c-1-.2-2.3-.2-4 0-1.5.1-2.9.3-4.3.7v5.4c0 9.5 7.5 17.1 17.3 17.1 9.9 0 17.4-7.7 17.4-17.1v-26c0-.6-.6-1.2-1.2-1.2zm-25.2 15.8v-14.6c0-.6-.5-1.2-1.2-1.2h-5.9c-.6 0-1.2.6-1.2 1.2v15.4c1.3-.4 2.7-.7 4-.8 1.1-.1 2.6-.1 4.3 0z"/><path d="m372.3 54.4c5.4-2.2 9.2-6.9 9.2-12.6 0-7.4-6.1-13.4-13.6-13.4h-17.8c-.7 0-1.2.6-1.2 1.2v41.3c0 .6.5 1.2 1.2 1.2h5.7c.6 0 1.2-.6 1.2-1.2v-15.9h6.9l8.3 16.5c.1.2.4.6 1 .6h6.5c1.1 0 1.5-1 1.1-1.8zm-5.1-6.1h-10.2v-12.4h10.2c3.3 0 6.2 2.8 6.2 6 0 3.5-2.8 6.4-6.2 6.4z"/><path d="m426.1 28.4h-5.7c-.7 0-1.2.6-1.2 1.2v25.7h-.1l-25.9-27.5h-1.5c-.6 0-1.2.5-1.2 1.1v42c0 .6.6 1.2 1.2 1.2h5.7c.7 0 1.2-.6 1.2-1.2v-26.8h.1l26.1 28.6h1.5c.6 0 1.2-.5 1.2-1.1v-42c-.2-.6-.8-1.2-1.4-1.2z"/><path d="m465.2 35.9c.7 0 1.2-.6 1.2-1.2v-5.1c0-.6-.5-1.2-1.2-1.2h-25.4c-.7 0-1.2.6-1.2 1.2v41.3c0 .6.5 1.2 1.2 1.2h25.4c.7 0 1.2-.6 1.2-1.2v-5.1c0-.6-.5-1.2-1.2-1.2h-18.5v-10.9h15.4c.6 0 1.2-.5 1.2-1.2v-5.2c0-.6-.6-1.2-1.2-1.2h-15.4v-10.2z"/><path d="m210.5 173.8h8.5c1.1 0 2.1-.2 3.1-.5.9-.3 1.8-.8 2.5-1.4s1.3-1.4 1.7-2.2c.4-.9.6-1.8.6-2.8 0-.8-.2-1.6-.5-2.3s-.7-1.3-1.2-1.7c-.5-.5-1-.9-1.5-1.2-.3-.2-.7-.4-1-.5.3-.2.5-.3.8-.6.5-.4.9-.8 1.3-1.3s.7-1.1 1-1.7.4-1.3.4-2c0-.9-.2-1.8-.6-2.7-.4-.8-.9-1.5-1.6-2.1s-1.5-1.1-2.4-1.4-1.9-.5-3-.5h-8c-.3 0-.5.1-.6.3-.2.2-.3.4-.3.6v23.2c0 .3.1.5.3.6.1.1.3.2.5.2zm10.8-8.7c.2.3.3.7.3 1.1 0 .8-.3 1.5-.8 2.1s-1.2.8-2.1.8h-4v-5.7h3.6c.4 0 .8.1 1.2.2s.8.3 1.1.6c.2.3.5.6.7.9zm-6.7-6v-5.6h3.5c.8 0 1.5.2 2 .8.5.5.8 1.2.8 2s-.3 1.5-.8 2.1-1.2.8-2 .8h-3.5z"/><path d="m232.3 173.8h14.2c.3 0 .5-.1.6-.3.2-.2.3-.4.3-.6v-2.9c0-.3-.1-.5-.3-.6-.2-.2-.4-.3-.6-.3h-10.1v-5.6h8.4c.3 0 .5-.1.6-.3.2-.2.3-.4.3-.6v-2.9c0-.3-.1-.5-.3-.6-.2-.2-.4-.3-.6-.3h-8.4v-5.2h10.1c.3 0 .5-.1.6-.3.2-.2.3-.4.3-.6v-2.9c0-.3-.1-.5-.3-.6-.2-.2-.4-.3-.6-.3h-14.2c-.3 0-.5.1-.6.3-.2.2-.3.4-.3.6v23.2c0 .3.1.5.3.6s.4.2.6.2z"/><path d="m257.1 169.3c-.6-.2-1.2-.5-1.7-.7-.5-.3-.9-.5-1.2-.7-.5-.4-.6-.4-.6-.4-.2-.1-.5-.2-.8-.2-.2 0-.6.1-.8.5l-1.3 2.2c-.2.4-.3.6-.2.8s.2.3.4.5.5.4.9.7 1 .6 1.6.9c.7.3 1.4.6 2.3.8s1.9.3 3 .3c1.3 0 2.4-.2 3.4-.6s1.9-.9 2.6-1.6 1.3-1.4 1.7-2.3.6-1.8.6-2.7c0-1.2-.2-2.2-.7-3.1s-1.1-1.6-1.8-2.3c-.7-.6-1.5-1.2-2.4-1.6s-1.7-.8-2.6-1.2c-1.4-.6-2.4-1.2-3.1-1.7-.6-.6-.9-1.2-.9-2 0-.5.2-1 .7-1.5s1.2-.7 2.1-.7c.5 0 .9.1 1.5.3l1.5.6c.5.2.9.4 1.2.6s.5.3.6.4c.3.2.6.2.9.1s.5-.3.7-.6l1.3-2c.1-.2.2-.5.2-.8s-.2-.5-.4-.7c-.2-.1-.5-.3-.9-.6s-.9-.5-1.6-.8c-.6-.3-1.3-.5-2.1-.7s-1.7-.3-2.6-.3c-1.4 0-2.7.2-3.7.6s-1.9 1-2.5 1.6c-.7.7-1.1 1.4-1.5 2.3-.3.8-.5 1.7-.5 2.5 0 1.1.2 2 .6 2.8s.9 1.5 1.5 2.2c.6.6 1.4 1.2 2.2 1.6s1.6.8 2.4 1.2c1.4.6 2.5 1.2 3.3 1.8.7.6 1 1.3 1 2.1 0 .7-.3 1.2-.8 1.7-.6 1.1-2 1.3-3.5.7z"/><path d="m269.6 153.5h5.1v19.4c0 .3.1.5.3.6.2.2.4.3.6.3h3.3c.3 0 .5-.1.6-.3.2-.2.3-.4.3-.6v-19.4h5.1c.3 0 .5-.1.6-.3.2-.2.3-.4.3-.6v-2.9c0-.3-.1-.5-.3-.6-.2-.2-.4-.3-.6-.3h-15.3c-.3 0-.5.1-.6.3-.2.2-.3.4-.3.6v2.9c0 .3.1.5.3.6.1.2.3.3.6.3z"/><path d="m304.7 173.6c.2.3.4.5.8.5h.3c.2 0 .6-.1.8-.5l10.8-23.5c.2-.4.1-.7 0-.9-.2-.3-.4-.4-.8-.4h-3.6c-.2 0-.4.1-.5.2s-.2.2-.3.3l-6.6 14.8-6.6-14.8c-.1-.1-.2-.2-.3-.3s-.3-.2-.5-.2h-3.6c-.3 0-.6.1-.8.4-.1.2-.2.5 0 .9z"/><path d="m321.4 173.8h3.2c.3 0 .5-.1.6-.3.2-.2.3-.4.3-.6v-8.7h3.5l4.6 9.2c.1.1.1.2.2.3s.3.2.5.2h3.7c.5 0 .7-.3.8-.5.1-.3.1-.6 0-.9l-4.7-8.6c.7-.3 1.3-.7 1.9-1.1.6-.5 1.2-1.1 1.7-1.7s.8-1.3 1.1-2 .4-1.5.4-2.4c0-1.1-.2-2.1-.6-3s-1-1.8-1.7-2.5-1.6-1.3-2.5-1.7-2-.6-3.1-.6h-10c-.3 0-.5.1-.6.3-.2.2-.3.4-.3.6v23.2c0 .3.1.5.3.6s.5.2.7.2zm4.2-13.8v-6.5h5.5c.4 0 .8.1 1.2.2.4.2.7.4 1 .7s.5.6.7 1 .3.8.3 1.2c0 .5-.1.9-.3 1.3s-.4.8-.7 1.1-.6.5-1 .7-.8.3-1.2.3z"/><path d="m166.5 183.8h-3.3c-.3 0-.5.1-.6.3-.2.2-.3.4-.3.6v23.2c0 .3.1.5.3.6.2.2.4.3.6.3h3.3c.3 0 .5-.1.6-.3.2-.2.3-.4.3-.6v-23.2c0-.3-.1-.5-.3-.6-.1-.2-.3-.3-.6-.3z"/><path d="m193.8 183.8h-3.2c-.3 0-.5.1-.6.3-.2.2-.3.4-.3.6v13.9l-14.2-15-.1-.1h-1c-.3 0-.5.1-.6.2-.2.2-.3.4-.3.6v23.6c0 .3.1.5.3.6s.4.3.6.3h3.2c.3 0 .5-.1.6-.3.2-.2.3-.4.3-.6v-14.4l14.3 15.7h1c.2 0 .5-.1.6-.2.2-.2.3-.4.3-.6v-23.6c0-.3-.1-.5-.3-.6-.1-.3-.4-.4-.6-.4z"/><path d="m199 188.5h5.1v19.4c0 .3.1.5.3.6s.4.3.6.3h3.3c.3 0 .5-.1.6-.3.2-.2.3-.4.3-.6v-19.4h5.1c.3 0 .5-.1.6-.3.2-.2.3-.4.3-.6v-2.9c0-.3-.1-.5-.3-.6-.2-.2-.4-.3-.6-.3h-15.3c-.3 0-.5.1-.6.3-.2.2-.3.4-.3.6v2.9c0 .3.1.5.3.6.1.2.3.3.6.3z"/><path d="m234.3 208.6c.2-.2.3-.4.3-.6v-3c0-.3-.1-.5-.3-.7s-.4-.3-.6-.3h-10.1v-5.6h8.4c.3 0 .5-.1.6-.3.2-.2.3-.4.3-.6v-2.9c0-.3-.1-.5-.3-.6-.2-.2-.4-.3-.6-.3h-8.4v-5.2h10.1c.3 0 .5-.1.6-.3.2-.2.3-.4.3-.6v-2.9c0-.3-.1-.5-.3-.6-.2-.2-.4-.3-.6-.3h-14.2c-.3 0-.5.1-.6.3-.2.2-.3.4-.3.6v23.2c0 .3.1.5.3.6s.4.3.6.3h14.2c.2 0 .5-.1.6-.2z"/><path d="m252.5 208.4c.1.1.1.2.2.3s.3.2.5.2h3.7c.5 0 .7-.3.8-.5.1-.3.1-.6 0-.9l-4.7-8.6c.7-.3 1.3-.7 1.9-1.1.6-.5 1.2-1.1 1.7-1.7s.8-1.3 1.1-2 .4-1.5.4-2.4c0-1.1-.2-2.1-.6-3s-1-1.8-1.7-2.5-1.6-1.3-2.5-1.7-2-.6-3.1-.6h-10c-.3 0-.5.1-.6.3-.2.2-.3.4-.3.6v23.2c0 .3.1.5.3.6.2.2.4.3.6.3h3.2c.3 0 .5-.1.6-.3.2-.2.3-.4.3-.6v-8.7h3.5zm-2.6-13.4h-5.5v-6.5h5.5c.4 0 .8.1 1.2.2.4.2.7.4 1 .7s.5.6.7 1 .3.8.3 1.2c0 .5-.1.9-.3 1.3s-.4.8-.7 1.1-.6.5-1 .7-.8.3-1.2.3z"/><path d="m278.7 208.6c.2.1.4.2.8.2h3c.3 0 .6-.1.8-.4.1-.2.2-.5 0-.9l-10.7-23.5c-.1-.2-.1-.3-.3-.4-.1-.1-.3-.2-.6-.2h-.3c-.4 0-.7.2-.8.5l-10.9 23.5c-.2.4-.1.7 0 .9.2.3.4.4.8.4h3c.3 0 .6-.1.8-.3s.3-.4.4-.6l1.6-3.6h10.1l1.6 3.6c.4.5.5.7.7.8zm-4.1-8.6h-6.3l3.1-7z"/><path d="m305.9 205.7c.2-.2.3-.4.3-.6 0-.3-.1-.5-.2-.7l-2.2-2.2c-.3-.3-.8-.3-1.2 0-.7.6-1.5 1.1-2.4 1.4s-1.8.5-2.8.5c-1.1 0-2.1-.2-3-.6s-1.7-1-2.4-1.7-1.2-1.5-1.6-2.5c-.4-.9-.6-2-.6-3 0-1.1.2-2.1.6-3 .4-1 .9-1.8 1.6-2.5s1.5-1.3 2.4-1.7c1.7-.8 3.9-.8 5.8-.1.9.4 1.7.8 2.4 1.5.2.2.4.3.6.3s.4-.1.6-.3l2.1-2.2c.2-.2.3-.4.3-.7 0-.2-.1-.5-.4-.7-1.2-1.1-2.5-1.9-3.9-2.5s-3-.8-4.8-.8-3.5.3-5 1c-1.6.7-2.9 1.6-4.1 2.7-1.1 1.1-2.1 2.5-2.7 4.1-.7 1.6-1 3.3-1 5 0 1.8.3 3.5 1 5s1.6 2.9 2.7 4.1c1.1 1.1 2.5 2.1 4.1 2.7 1.6.7 3.3 1 5 1 1.6 0 3.1-.3 4.6-.8 1.6-.6 3-1.5 4.2-2.7z"/><path d="m313.8 208.6c.2.2.4.3.6.3h3.3c.3 0 .5-.1.6-.3.2-.2.3-.4.3-.6v-19.4h5.1c.3 0 .5-.1.6-.3.2-.2.3-.4.3-.6v-2.9c0-.3-.1-.5-.3-.6-.2-.2-.4-.3-.6-.3h-15.3c-.3 0-.5.1-.6.3s-.3.4-.3.6v2.9c0 .3.1.5.3.6.2.2.4.3.7.3h5.1v19.4c-.1.2 0 .4.2.6z"/><path d="m328.9 183.8c-.3 0-.5.1-.6.3s-.3.4-.3.6v23.2c0 .3.1.5.3.6.2.2.4.3.6.3h3.3c.3 0 .5-.1.6-.3.2-.2.3-.4.3-.6v-23.2c0-.3-.1-.5-.3-.6-.2-.2-.4-.3-.6-.3z"/><path d="m336 184.2c-.1.2-.2.5 0 .9l10.8 23.6c.2.3.4.5.8.5h.3c.2 0 .6-.1.8-.5l10.8-23.5c.2-.4.1-.7 0-.9-.2-.3-.4-.4-.8-.4h-3.6c-.2 0-.4.1-.6.2-.1.1-.2.2-.3.3l-6.6 14.8-6.6-14.8c-.1-.1-.2-.2-.3-.3s-.3-.2-.5-.2h-3.6c-.1-.1-.4.1-.6.3z"/><path d="m378.4 208.6c.2-.2.3-.4.3-.6v-3c0-.3-.1-.5-.3-.6-.2-.2-.4-.3-.6-.3h-10.1v-5.6h8.4c.3 0 .5-.1.6-.3.2-.2.3-.4.3-.6v-2.9c0-.3-.1-.5-.3-.6-.2-.2-.4-.3-.6-.3h-8.4v-5.2h10.1c.3 0 .5-.1.6-.3.2-.2.3-.4.3-.6v-2.9c0-.3-.1-.5-.3-.6-.2-.2-.4-.3-.6-.3h-14.2c-.3 0-.5.1-.6.3s-.3.4-.3.6v23.2c0 .3.1.5.3.6.2.2.4.3.6.3h14.2c.2-.1.4-.2.6-.3z"/><path d="m161.6 222.5c-1.1-1.1-2.5-2-4-2.7s-3.2-1-4.9-1h-8.3c-.3 0-.5.1-.6.3-.2.2-.2.4-.2.6v23.2c0 .3.1.5.2.6.2.2.4.3.6.3h8.3c1.7 0 3.3-.3 4.9-1 1.5-.7 2.9-1.6 4-2.7s2-2.5 2.7-4 1-3.2 1-4.9-.3-3.3-1-4.8-1.6-2.8-2.7-3.9zm-1.7 8.8c0 1.1-.2 2.1-.6 3.1-.4.9-.9 1.8-1.6 2.5s-1.5 1.2-2.4 1.6-1.9.6-3.1.6h-3.7v-15.5h3.7c1.1 0 2.1.2 3.1.6.9.4 1.7.9 2.4 1.6s1.2 1.5 1.6 2.4.6 2 .6 3.1z"/><path d="m189.7 222.2c-1.2-1.1-2.5-2.1-4.1-2.7-1.6-.7-3.2-1-5-1s-3.5.3-5 1-2.9 1.6-4.1 2.7c-1.2 1.2-2.1 2.5-2.7 4.1-.7 1.6-1 3.3-1 5 0 1.8.3 3.5 1 5s1.6 2.9 2.7 4.1c1.1 1.1 2.5 2.1 4.1 2.7 1.6.7 3.2 1 5 1s3.5-.3 5-1c1.6-.7 2.9-1.6 4.1-2.7s2.1-2.5 2.7-4.1c.7-1.6 1-3.2 1-5s-.3-3.5-1-5c-.6-1.5-1.5-2.9-2.7-4.1zm-12.1 16.3c-.9-.4-1.8-1-2.5-1.7s-1.3-1.5-1.7-2.5c-.4-.9-.6-2-.6-3s.2-2.1.6-3 1-1.8 1.7-2.5 1.5-1.3 2.5-1.7c.9-.4 2-.6 3-.6s2.1.2 3 .6 1.8 1 2.5 1.7 1.3 1.5 1.7 2.5c.4.9.6 2 .6 3 0 1.1-.2 2.1-.6 3s-1 1.8-1.7 2.5-1.5 1.3-2.5 1.7c-1.8.8-4.1.8-6 0z"/><path d="m203.6 225.7c.7-.7 1.5-1.3 2.4-1.7 1.7-.8 3.9-.8 5.8-.1.9.4 1.7.8 2.4 1.5.2.2.4.3.6.3s.4-.1.6-.3l2.1-2.2c.2-.2.3-.4.3-.7 0-.2-.1-.5-.4-.7-1.2-1.1-2.5-1.9-3.9-2.5s-3-.8-4.8-.8-3.5.3-5 1c-1.6.7-2.9 1.6-4.1 2.7-1.1 1.1-2.1 2.5-2.7 4.1-.7 1.6-1 3.3-1 5s.3 3.5 1 5c.7 1.6 1.6 2.9 2.7 4.1 1.1 1.1 2.5 2.1 4.1 2.7 1.6.7 3.3 1 5 1 1.6 0 3.1-.3 4.6-.8 1.5-.6 2.9-1.4 4.1-2.6.2-.2.3-.4.3-.6 0-.3-.1-.5-.2-.7l-2.2-2.2c-.3-.3-.8-.3-1.2 0-.7.6-1.5 1.1-2.4 1.4s-1.8.5-2.8.5c-1.1 0-2.1-.2-3-.6s-1.7-1-2.4-1.7-1.2-1.5-1.6-2.5c-.4-.9-.6-2-.6-3 0-1.1.2-2.1.6-3 .5-1 1-1.9 1.7-2.6z"/><path d="m240.7 218.8h-3.3c-.3 0-.5.1-.6.3-.2.2-.3.4-.3.7v14.3c0 .7-.1 1.4-.4 2-.2.6-.6 1.1-1 1.6-.4.4-.9.8-1.5 1.1s-1.2.4-2 .4-1.4-.1-2-.4-1.1-.6-1.5-1.1-.7-1-1-1.6c-.2-.6-.4-1.3-.4-2v-14.3c0-.2-.1-.5-.3-.6-.2-.2-.4-.3-.6-.3h-3.3c-.3 0-.5.1-.6.3-.2.2-.3.4-.3.7v14.6c0 1.4.3 2.7.8 3.8.5 1.2 1.2 2.2 2.1 3.1s2 1.6 3.2 2.1 2.5.8 3.9.8 2.7-.3 3.9-.8 2.3-1.2 3.2-2.1 1.6-1.9 2.1-3.1.8-2.5.8-3.8v-14.6c0-.3-.1-.5-.3-.7-.2-.3-.4-.4-.6-.4z"/><path d="m269.4 219.2c0-.2-.1-.4-.3-.5-.2-.2-.4-.2-.6-.2h-.5c-.4 0-.7.2-.8.5l-7.5 16.1-7.5-16.2c-.2-.3-.4-.5-.8-.5h-.6c-.3 0-.5.1-.6.2s-.2.3-.3.5l-4.2 23.5c0 .3 0 .6.2.8s.4.3.7.3h3.1c.2 0 .4-.1.6-.2.2-.2.2-.3.3-.5l1.9-12.6 5.9 13.2c.2.3.4.5.8.5h.6c.4 0 .7-.2.8-.5l5.9-13.2 2 12.7c.1.2.2.3.3.4.2.2.4.2.6.2h3.2c.3 0 .6-.1.7-.3.2-.2.2-.5.2-.8z"/><path d="m293.2 218.8h-14.2c-.3 0-.5.1-.6.3-.2.2-.3.4-.3.7v23.2c0 .3.1.5.3.6.2.2.4.3.6.3h14.2c.2 0 .5-.1.6-.3s.3-.4.3-.6v-3c0-.3-.1-.5-.3-.6-.2-.2-.4-.3-.6-.3h-10.1v-5.6h8.4c.3 0 .5-.1.6-.3.2-.2.3-.4.3-.6v-2.9c0-.3-.1-.5-.3-.6-.2-.2-.4-.3-.6-.3h-8.4v-5.2h10.1c.3 0 .5-.1.6-.3.2-.2.3-.4.3-.6v-2.9c0-.3-.1-.5-.3-.6s-.3-.4-.6-.4z"/><path d="m319.1 218.8h-3.2c-.3 0-.5.1-.6.3-.2.2-.3.4-.3.7v13.9l-14.2-15-.1-.1h-1c-.3 0-.5.1-.6.2-.2.2-.3.4-.3.6v23.6c0 .3.1.5.3.6.2.2.4.3.6.3h3.2c.3 0 .5-.1.6-.3.2-.2.3-.4.3-.6v-14.4l14.2 15.6.1.1h1c.2 0 .5-.1.6-.2.2-.2.3-.4.3-.6v-23.6c0-.3-.1-.5-.3-.7-.1-.3-.3-.4-.6-.4z"/><path d="m340.3 223.3c.2-.2.3-.4.3-.6v-2.9c0-.3-.1-.5-.3-.7s-.4-.3-.6-.3h-15.3c-.3 0-.5.1-.6.3s-.3.4-.3.6v2.9c0 .3.1.5.3.6.2.2.4.3.7.3h5.1v19.4c0 .3.1.5.3.6.2.2.4.3.6.3h3.3c.3 0 .5-.1.6-.3.2-.2.3-.4.3-.6v-19.4h5.1c.1 0 .3-.1.5-.2z"/><path d="m352.3 219c-.1-.2-.2-.3-.3-.4s-.3-.2-.6-.2h-.3c-.4 0-.7.2-.8.5l-10.9 23.5c-.2.4-.1.7 0 .9.2.3.4.4.8.4h3c.3 0 .6-.1.8-.3s.3-.4.4-.6l1.6-3.6h10.1l1.6 3.6c.1.3.3.5.5.6s.4.2.8.2h3c.3 0 .6-.1.8-.4.1-.2.2-.5 0-.9zm2 16h-6.3l3.1-7z"/><path d="m383.3 231c.5-.6.8-1.3 1.1-2s.4-1.5.4-2.4c0-1.1-.2-2.1-.6-3s-1-1.8-1.7-2.5-1.6-1.3-2.5-1.7-2-.6-3.1-.6h-10c-.3 0-.5.1-.6.3-.2.2-.3.4-.3.7v23.2c0 .3.1.5.3.6.2.2.4.3.6.3h3.2c.3 0 .5-.1.6-.3.2-.2.3-.4.3-.6v-8.7h3.5l4.6 9.2c.1.1.1.2.2.3s.3.2.5.2h3.7c.5 0 .7-.3.8-.5.1-.3.1-.6 0-.9l-4.7-8.6c.7-.3 1.3-.7 1.9-1.1.7-.7 1.3-1.3 1.8-1.9zm-3.6-4.3c0 .5-.1.9-.3 1.3s-.4.8-.7 1.1-.6.5-1 .7-.8.3-1.2.3h-5.5v-6.5h5.5c.4 0 .8.1 1.2.2.4.2.7.4 1 .7s.5.6.7 1c.2.3.3.7.3 1.2z"/><path d="m407.3 219.3c-.1-.2-.3-.5-.8-.5h-3.6c-.2 0-.4.1-.5.2s-.2.2-.3.3l-5.4 7.8-5.4-7.8c-.1-.1-.2-.2-.3-.3s-.3-.2-.5-.2h-3.5c-.5 0-.7.3-.8.5-.2.3-.1.6.1.9l7.9 11.6v11.1c0 .3.1.5.3.6s.4.3.6.3h3.2c.3 0 .5-.1.6-.3s.3-.4.3-.6v-11.1l8-11.6c.3-.3.3-.6.1-.9z"/></g></svg>