<?xml version="1.0" encoding="utf-8"?>
<!-- Generator: Adobe Illustrator 24.3.0, SVG Export Plug-In . SVG Version: 6.00 Build 0)  -->
<svg version="1.1" id="Layer_1" xmlns="http://www.w3.org/2000/svg" xmlns:xlink="http://www.w3.org/1999/xlink" x="0px" y="0px"
	 viewBox="0 0 635.7 367.3" style="enable-background:new 0 0 635.7 367.3;" xml:space="preserve">
<style type="text/css">
	.st0{fill:#FFFFFF;}
</style>
<g>
	<g>
		<g>
			<path class="st0" d="M487.2,319c-3.1,9-2.4,18.7,2.8,25.6c10-3.5,19-11.8,21.4-21.8c1.4-4.8,1-9.7,0-13.8
				c-1.4-4.1-3.8-7.9-6.9-10.7c-2.1,1-3.8,2.4-5.5,3.8s-3.1,3.1-4.8,4.8c-1.4,1.7-2.8,3.5-3.8,5.5S488.2,316.6,487.2,319z"/>
			<path class="st0" d="M487.2,319c-3.1,9-2.4,18.7,2.8,25.6c10-3.5,19-11.8,21.4-21.8c1.4-4.8,1-9.7,0-13.8
				c-1.4-4.1-3.8-7.9-6.9-10.7c-2.1,1-3.8,2.4-5.5,3.8s-3.1,3.1-4.8,4.8c-1.4,1.7-2.8,3.5-3.8,5.5S488.2,316.6,487.2,319z"/>
			<path class="st0" d="M513.8,367.1c-11.8-1.4-18.3-7.9-20.7-16.2c9.3-6.2,20.4-9.7,31.5-9.7c5.5,0,10.4,1.4,14.5,3.5
				c3.8,2.1,6.9,5.2,9,9.3c-2.4,2.4-4.8,4.1-7.6,5.9c-2.8,1.7-5.5,3.5-8.6,4.5s-5.9,2.1-9,2.4C519.7,367.4,516.9,367.4,513.8,367.1z
				"/>
		</g>
		<g>
			<path class="st0" d="M533.9,69.5c9.3,1.4,18.7-1.4,24.5-7.9c-2.8-4.5-6.2-9-11.1-11.8c-2.1-1.4-4.5-2.8-6.9-3.5
				c-2.4-1-5.2-1.4-7.6-1.4c-10-0.7-18.3,4.5-22.5,11.8c1.7,1.7,3.1,3.1,4.8,4.8c1.7,1.4,3.8,2.8,5.5,3.8
				C524.5,67.4,529,68.8,533.9,69.5z"/>
			<path class="st0" d="M576,33.9c1,11.8-4.1,19.7-12.1,23.5c-4.1-3.8-7.3-8.6-10-13.5c-1.4-2.4-2.4-4.8-3.5-7.6
				c-1-2.8-1.7-5.2-2.1-7.9c-1.7-11.1,0.7-20,7.9-25.2c2.8,1.7,5.2,4.1,7.3,6.2c2.1,2.4,4.1,4.8,6.2,7.6
				C572.9,22.5,575.3,28,576,33.9z"/>
		</g>
		<g>
			<path class="st0" d="M553.9,99.5c4.5,1.7,9.3,2.4,13.5,2.1c4.5-0.3,8.6-1.7,12.1-4.1c-0.7-2.4-2.1-4.8-3.5-7.3
				c-1.4-2.4-2.8-4.5-4.8-6.6c-1.7-2.1-3.8-3.5-6.2-4.8c-1-0.7-2.1-1.4-3.5-1.7c-1-0.3-2.4-1-3.8-1.4c-10-2.8-18.7,0.3-24.5,6.6
				c1,2.1,2.1,3.8,3.5,5.5s3.1,3.5,4.5,4.8C545.3,95.4,549.8,97.8,553.9,99.5z"/>
			<path class="st0" d="M603,74c-0.7,5.9-2.8,10.4-5.9,13.8c-3.1,3.5-6.9,5.5-11.1,6.6c-1.4-2.4-2.8-4.8-3.8-7.3
				c-1-2.4-2.1-5.2-2.8-7.9c-0.7-2.8-1.4-5.5-1.7-8.3c0-1.4-0.3-2.8-0.3-4.1c0-1.4,0-2.8,0-4.1c0.3-11.1,5.2-19.7,13.1-23.2
				c2.1,2.4,4.1,5.2,5.9,7.9c1.7,2.8,3.1,5.5,4.1,8.6C602.6,62.2,603.7,68.1,603,74z"/>
		</g>
		<g>
			<path class="st0" d="M567,133.4c8.3,5.2,17.6,6.9,25.6,3.5c0-2.8-0.7-5.2-1.7-7.9c-0.7-2.4-1.7-5.2-3.1-7.3
				c-2.8-4.5-6.6-8.3-11.1-11.1c-9.3-4.8-18.3-3.8-25.6,1c1,4.5,3.5,8.3,5.9,12.1c1.4,1.7,2.8,3.5,4.5,5.2
				C563.2,130.3,565,132,567,133.4z"/>
			<path class="st0" d="M620.3,119.2c-3.8,11.1-12.1,15.9-20.7,15.9c-0.7-2.8-1.7-5.2-2.1-7.9c-0.7-2.8-0.7-5.5-1-8.3
				c-0.3-5.5,0-11.1,1.7-16.6c2.8-10.4,9.3-18,18-19.7c3.1,5.5,5.5,12.1,6.2,18.3c0.3,3.1,0.3,6.2,0.3,9.3
				C622,113.4,621.3,116.5,620.3,119.2z"/>
		</g>
		<g>
			<path class="st0" d="M572.2,169c6.9,6.9,15.6,10.4,24.2,9c0.3-2.8,0.3-5.5,0.3-7.9c-0.3-2.8-0.7-5.2-1.4-7.9
				c-1.7-5.2-4.5-9.7-8.3-13.1c-7.9-6.9-17.3-7.6-25.2-4.5c0,2.4,0.3,4.5,1,6.6s1,4.5,2.1,6.6c1,2.1,2.1,4.1,3.5,5.9
				C569.1,165.5,570.5,167.3,572.2,169z"/>
			<path class="st0" d="M627.2,166.9c-6.2,9.7-15.6,12.8-23.8,11.1c0-2.8-0.3-5.5-0.3-8.3s0.3-5.5,1-8.3c0.7-5.5,2.4-10.7,5.2-15.6
				c4.8-9.7,12.8-15.6,21.8-15.2c1,3.1,1.7,6.2,2.1,9.7c0.3,3.1,0.3,6.6,0,9.7s-0.7,6.2-1.7,9C630.3,161.7,628.9,164.5,627.2,166.9z
				"/>
		</g>
		<g>
			<path class="st0" d="M569.5,205.3c5.2,8.3,12.8,13.5,21.4,13.8c1-2.4,1.7-5.2,2.1-7.9c0.3-2.8,0.3-5.5,0.3-7.9
				c-0.7-5.2-2.4-10.4-5.2-14.5c-6.2-8.3-15.2-11.1-23.5-10c-0.3,2.1-0.7,4.5-0.3,6.6c0,2.4,0,4.5,0.7,6.6c0.3,2.1,1,4.5,2.1,6.6
				C567.4,201.1,568.4,203.2,569.5,205.3z"/>
			<path class="st0" d="M623.7,215.3c-7.9,8.3-18,9.3-25.6,5.5c0.3-2.8,1-5.5,1.4-8.3c0.7-2.8,1.4-5.5,2.8-7.9
				c2.1-5.2,4.8-10,8.6-14.2c6.9-8.3,15.9-12.1,24.5-10c0.3,3.1,0.3,6.6,0,9.7c-0.3,3.1-1,6.6-2.1,9.3c-1,3.1-2.1,5.9-3.8,8.6
				C627.9,210.8,625.8,213.2,623.7,215.3z"/>
		</g>
		<g>
			<path class="st0" d="M559.1,239.9c0.7,2.4,1.7,4.5,3.1,6.6c1,2.1,2.4,3.8,4.1,5.2c3.1,3.1,6.6,5.5,11.1,6.6
				c3.1-4.5,4.8-9.7,5.5-14.9s0-10.7-1.7-15.2c-4.1-9.7-12.4-14.2-20.7-14.9c-1,2.1-1.4,4.1-2.1,6.6c-0.7,2.1-1,4.5-1,6.6
				C557,230.5,557.4,235,559.1,239.9z"/>
			<path class="st0" d="M609.9,261.6c-2.4,1.7-4.8,2.8-7.3,3.5c-2.4,0.7-4.8,1-6.9,0.7c-4.5-0.3-8.6-1.7-12.1-4.5
				c2.1-5.2,4.1-10.4,7.6-14.9c3.1-4.5,6.9-8.6,11.4-12.1c8.6-6.6,18.3-8.3,25.9-4.5c-0.3,3.1-1.4,6.6-2.1,9.7
				c-1,3.1-2.4,5.9-4.1,8.6C619.2,254,614.7,258.5,609.9,261.6z"/>
		</g>
		<g>
			<path class="st0" d="M541.5,271.3c1,9.7,5.9,17.6,13.5,21.8c2.1-1.7,3.8-3.8,5.2-6.2c1.4-2.4,2.8-4.8,3.5-7.3
				c2.1-4.8,2.4-10.4,1.4-15.2c-0.7-4.8-3.1-9.3-6.2-12.4c-3.1-3.1-6.9-5.5-10.7-6.6C542.8,252.6,540.1,261.6,541.5,271.3z"/>
			<path class="st0" d="M586,303.5c-11.1,3.8-20,0.7-25.6-5.9c1.4-2.4,3.1-4.5,4.8-6.6s3.5-4.1,5.5-6.2c4.1-3.8,8.6-6.9,13.8-9.3
				c5.2-2.1,10-3.5,14.5-3.1c4.5,0.3,8.6,1.7,12.1,4.5C606.8,289.3,596.8,299.7,586,303.5z"/>
		</g>
		<g>
			<path class="st0" d="M516.9,298.3c-1,9.3,1.7,18.7,8.3,24.2c4.5-2.8,8.6-6.6,11.4-11.1c1.4-2.4,2.8-4.5,3.5-6.9s1.4-5.2,1.4-7.6
				c0.3-5.2-1-9.7-3.1-13.5c-2.4-3.8-5.5-6.9-9.3-9c-0.7,0.7-1.7,1.7-2.4,2.4c-0.7,0.7-1.4,1.7-2.1,2.4c-1.4,1.7-2.8,3.8-3.5,5.9
				C519,288.6,517.3,293.1,516.9,298.3z"/>
			<path class="st0" d="M553.6,339.4c-11.8,1.4-19.7-3.8-23.8-11.4c3.8-4.1,8.6-7.3,13.1-10.4c2.4-1.4,4.8-2.4,7.6-3.5
				c2.4-1,5.2-1.7,7.9-2.4c5.5-1,10.4-1,14.9,0.3c4.5,1,7.9,3.5,10.7,6.9c-1,1.4-1.7,2.8-2.8,4.1c-1,1.4-2.1,2.4-3.5,3.5
				c-2.4,2.4-4.8,4.5-7.3,6.2C565,336.3,559.1,338.7,553.6,339.4z"/>
		</g>
		<path class="st0" d="M522.8,7.2c5.2,3.8,9.3,7.9,12.1,12.8c1.4,2.4,2.4,4.8,3.1,7.3c0.7,2.4,1,4.8,1,7.3c-2.4,0.3-4.8,0-7.3-0.3
			c-2.4-0.3-4.8-0.7-7.3-1.4c-4.8-1.7-9.7-3.5-14.2-6.9c-2.1-1.7-4.5-3.1-6.2-5.2c-2.1-1.7-3.5-3.8-5.2-5.9
			c-3.1-3.8-5.5-8.3-6.9-13.1c4.5-1.7,9.7-2.1,15.2-1.4c2.8,0.3,5.5,1.4,8.3,2.4C517.3,4.1,520.4,5.5,522.8,7.2z"/>
	</g>
	<g>
		<g>
			<path class="st0" d="M148.5,319c3.1,9,2.4,18.7-2.8,25.6c-10-3.5-19-11.8-21.4-21.8c-1.4-4.8-1-9.7,0-13.8
				c1.4-4.1,3.8-7.9,6.9-10.7c2.1,1,3.8,2.4,5.5,3.8s3.1,3.1,4.8,4.8c1.4,1.7,2.8,3.5,3.8,5.5C146.8,314.5,147.8,316.6,148.5,319z"
				/>
			<path class="st0" d="M148.5,319c3.1,9,2.4,18.7-2.8,25.6c-10-3.5-19-11.8-21.4-21.8c-1.4-4.8-1-9.7,0-13.8
				c1.4-4.1,3.8-7.9,6.9-10.7c2.1,1,3.8,2.4,5.5,3.8s3.1,3.1,4.8,4.8c1.4,1.7,2.8,3.5,3.8,5.5C146.8,314.5,147.8,316.6,148.5,319z"
				/>
			<path class="st0" d="M121.9,367.1c11.8-1.4,18.3-7.9,20.7-16.2c-9.3-6.2-20.4-9.7-31.5-9.7c-5.5,0-10.4,1.4-14.5,3.5
				c-3.8,2.1-6.9,5.2-9,9.3c2.4,2.4,4.8,4.1,7.6,5.9c2.8,1.7,5.5,3.5,8.6,4.5s5.9,2.1,9,2.4C116,367.4,119.2,367.4,121.9,367.1z"/>
		</g>
		<g>
			<path class="st0" d="M101.9,69.5c-9.3,1.4-18.7-1.4-24.5-7.9c2.8-4.5,6.2-9,11.1-11.8c2.1-1.4,4.5-2.8,6.9-3.5
				c2.4-1,5.2-1.4,7.6-1.4c10-0.7,18.3,4.5,22.5,11.8c-1.7,1.7-3.1,3.1-4.8,4.8c-1.7,1.4-3.8,2.8-5.5,3.8
				C111.2,67.4,106.7,68.8,101.9,69.5z"/>
			<path class="st0" d="M59.7,33.9c-1,11.8,4.1,19.7,12.1,23.5c4.1-3.8,7.3-8.6,10-13.5c1.4-2.4,2.4-4.8,3.5-7.6
				c1-2.8,1.7-5.2,2.1-7.9c1.7-11.1-0.7-20-7.9-25.2c-2.8,1.7-5.2,4.1-7.3,6.2c-2.1,2.4-4.1,4.8-6.2,7.6
				C62.8,22.5,60.4,28,59.7,33.9z"/>
		</g>
		<g>
			<path class="st0" d="M81.8,99.5c-4.5,1.7-9.3,2.4-13.5,2.1c-4.5-0.3-8.6-1.7-12.1-4.1c0.7-2.4,2.1-4.8,3.5-7.3
				c1.4-2.4,2.8-4.5,4.8-6.6c1.7-2.1,3.8-3.5,6.2-4.8c1-0.7,2.1-1.4,3.5-1.7c1-0.3,2.4-1,3.8-1.4c10-2.8,18.7,0.3,24.5,6.6
				c-1,2.1-2.1,3.8-3.5,5.5s-3.1,3.5-4.5,4.8C90.5,95.4,86.3,97.8,81.8,99.5z"/>
			<path class="st0" d="M33.1,74c0.7,5.9,2.8,10.4,5.9,13.8c3.1,3.5,6.9,5.5,11.1,6.6c1.4-2.4,2.8-4.8,3.8-7.3
				c1-2.4,2.1-5.2,2.8-7.9c0.7-2.8,1.4-5.5,1.7-8.3c0-1.4,0.3-2.8,0.3-4.1c0-1.4,0-2.8,0-4.1C58.4,51.6,53.5,43,45.6,39.5
				c-2.1,2.4-4.1,5.2-5.9,7.9c-1.7,2.8-3.1,5.5-4.1,8.6C33.4,62.2,32.1,68.1,33.1,74z"/>
		</g>
		<g>
			<path class="st0" d="M68.7,133.4c-8.3,5.2-17.6,6.9-25.6,3.5c0-2.8,0.7-5.2,1.7-7.9c0.7-2.4,1.7-5.2,3.1-7.3
				c2.8-4.5,6.6-8.3,11.1-11.1c9.3-4.8,18.3-3.8,25.6,1c-1,4.5-3.5,8.3-5.9,12.1c-1.4,1.7-2.8,3.5-4.5,5.2
				C72.5,130.3,70.8,132,68.7,133.4z"/>
			<path class="st0" d="M15.5,119.2c3.8,11.1,12.1,15.9,20.7,15.9c0.7-2.8,1.7-5.2,2.1-7.9c0.7-2.8,0.7-5.5,1-8.3
				c0.3-5.5,0-11.1-1.7-16.6c-2.8-10.4-9.3-18-18-19.7c-3.1,5.5-5.5,12.1-6.2,18.3c-0.3,3.1-0.3,6.2-0.3,9.3
				C13.7,113.4,14.4,116.5,15.5,119.2z"/>
		</g>
		<g>
			<path class="st0" d="M63.5,169c-6.9,6.9-15.6,10.4-24.2,9c-0.3-2.8-0.3-5.5-0.3-7.9c0.3-2.8,0.7-5.2,1.4-7.9
				c1.7-5.2,4.5-9.7,8.3-13.1c7.9-6.9,17.3-7.6,25.2-4.5c0,2.4-0.3,4.5-1,6.6s-1,4.5-2.1,6.6c-1,2.1-2.1,4.1-3.5,5.9
				C66.6,165.5,65.2,167.3,63.5,169z"/>
			<path class="st0" d="M8.6,166.9c6.2,9.7,15.6,12.8,23.8,11.1c0-2.8,0.3-5.5,0.3-8.3s-0.3-5.5-1-8.3c-0.7-5.5-2.4-10.7-5.2-15.6
				c-4.8-9.7-12.8-15.6-21.8-15.2c-1,3.1-1.7,6.2-2.1,9.7c-0.3,3.1-0.3,6.6,0,9.7s0.7,6.2,1.7,9C5.8,161.7,6.8,164.5,8.6,166.9z"/>
		</g>
		<g>
			<path class="st0" d="M66.3,205.3c-5.2,8.3-12.8,13.5-21.4,13.8c-1-2.4-1.7-5.2-2.1-7.9c-0.3-2.8-0.3-5.5-0.3-7.9
				c0.7-5.2,2.4-10.4,5.2-14.5c6.2-8.3,15.2-11.1,23.5-10c0.3,2.1,0.7,4.5,0.3,6.6c0,2.4,0,4.5-0.7,6.6c-0.3,2.1-1,4.5-2.1,6.6
				C68.3,201.1,67.7,203.2,66.3,205.3z"/>
			<path class="st0" d="M12,215.3c7.9,8.3,18,9.3,25.6,5.5c-0.3-2.8-1-5.5-1.4-8.3c-0.7-2.8-1.4-5.5-2.8-7.9
				c-2.1-5.2-4.8-10-8.6-14.2c-6.9-8.3-15.9-12.1-24.5-10c-0.3,3.1-0.3,6.6,0,9.7s1,6.6,2.1,9.3c1,3.1,2.1,5.9,3.8,8.6
				C8.2,210.8,9.9,213.2,12,215.3z"/>
		</g>
		<g>
			<path class="st0" d="M76.6,239.9c-0.7,2.4-1.7,4.5-3.1,6.6c-1,2.1-2.4,3.8-4.1,5.2c-3.1,3.1-6.6,5.5-11.1,6.6
				c-3.1-4.5-4.8-9.7-5.5-14.9s0-10.7,1.7-15.2c4.1-9.7,12.4-14.2,20.7-14.9c1,2.1,1.4,4.1,2.1,6.6c0.7,2.1,1,4.5,1,6.6
				C78.7,230.5,78.4,235,76.6,239.9z"/>
			<path class="st0" d="M26.2,261.6c2.4,1.7,4.8,2.8,7.3,3.5s4.8,1,6.9,0.7c4.5-0.3,8.6-1.7,12.1-4.5c-2.1-5.2-4.1-10.4-7.6-14.9
				c-3.1-4.5-6.9-8.6-11.4-12.1c-8.6-6.6-18.3-8.3-25.9-4.5c0.3,3.1,1.4,6.6,2.1,9.7c1,3.1,2.4,5.9,4.1,8.6
				C16.8,254,21.3,258.5,26.2,261.6z"/>
		</g>
		<g>
			<path class="st0" d="M94.6,271.3c-1,9.7-5.9,17.6-13.5,21.8c-2.1-1.7-3.8-3.8-5.2-6.2c-1.4-2.4-2.8-4.8-3.5-7.3
				c-2.1-4.8-2.4-10.4-1.4-15.2c0.7-4.8,3.1-9.3,6.2-12.4c3.1-3.1,6.9-5.5,10.7-6.6C92.9,252.6,95.7,261.6,94.6,271.3z"/>
			<path class="st0" d="M50,303.5c11.1,3.8,20,0.7,25.6-5.9c-1.4-2.4-3.1-4.5-4.8-6.6c-1.7-2.1-3.5-4.1-5.5-6.2
				c-4.1-3.8-8.6-6.9-13.8-9.3c-5.2-2.1-10-3.5-14.5-3.1c-4.5,0.3-8.6,1.7-12.1,4.5C29.3,289.3,39,299.7,50,303.5z"/>
		</g>
		<g>
			<path class="st0" d="M118.8,298.3c1,9.3-1.7,18.7-8.3,24.2c-4.5-2.8-8.6-6.6-11.4-11.1c-1.4-2.4-2.8-4.5-3.5-6.9
				s-1.4-5.2-1.4-7.6c-0.3-5.2,1-9.7,3.1-13.5c2.4-3.8,5.5-6.9,9.3-9c0.7,0.7,1.7,1.7,2.4,2.4c0.7,0.7,1.4,1.7,2.1,2.4
				c1.4,1.7,2.8,3.8,3.5,5.9C117.1,288.6,118.5,293.1,118.8,298.3z"/>
			<path class="st0" d="M82.5,339.4c11.8,1.4,19.7-3.8,23.8-11.4c-3.8-4.1-8.6-7.3-13.1-10.4c-2.4-1.4-4.8-2.4-7.6-3.5
				c-2.4-1-5.2-1.7-7.9-2.4c-5.5-1-10.4-1-14.9,0.3c-4.5,1-7.9,3.5-10.7,6.9c1,1.4,1.7,2.8,2.8,4.1c1,1.4,2.1,2.4,3.5,3.5
				c2.4,2.4,4.8,4.5,7.3,6.2C70.8,336.3,76.6,338.7,82.5,339.4z"/>
		</g>
		<path class="st0" d="M112.9,7.2c-5.2,3.8-9.3,7.9-12.1,12.8c-1.4,2.4-2.4,4.8-3.1,7.3c-0.7,2.4-1,4.8-1,7.3c2.4,0.3,4.8,0,7.3-0.3
			s4.8-0.7,7.3-1.4c4.8-1.7,9.7-3.5,14.2-6.9c2.1-1.7,4.5-3.1,6.2-5.2c2.1-1.7,3.5-3.8,5.2-5.9c3.1-3.8,5.5-8.3,6.9-13.1
			c-4.5-1.7-9.7-2.1-15.2-1.4c-2.8,0.3-5.5,1.4-8.3,2.4C118.5,4.1,115.7,5.5,112.9,7.2z"/>
	</g>
	<g>
		<path class="st0" d="M252.4,207.5c-2.5,6.7-4.8,12.4-6.8,18.3c-0.7,2.1-1.7,2.7-3.9,2.7c-7.9-0.1-8,0-10.7-7.5
			c-4.3-11.7-8.7-23.3-12.9-35.1c-1.1-3.1-2.1-5.6-6.3-4.4c0-3.5,0-6.6,0-9.9c6.6,0,13.2,0,20.1,0c0,3.1,0,6.2,0,9.5
			c-1.6,0.1-3.2,0.3-5.3,0.4c4.1,11.2,8.2,22.2,12.6,34.1c4.4-11.8,8.4-22.8,12.5-33.7c-0.3-0.3-0.5-0.5-0.6-0.5
			c-4.7-0.4-4.7-0.4-4.7-5.2c0-1.5,0-3,0-4.7c8.2,0,16,0,24.1,0c0,3.1,0,6.2,0,9.8c-2,0-4,0.1-6,0c-1.9-0.1-2.7,0.6-3.3,2.3
			c-3.7,9.8-3.8,9.8-0.1,19.6c1.4,3.8,2.9,7.6,4.6,12.3c4.3-11.7,8.4-22.7,12.6-34c-1.9-0.2-3.5-0.3-5.3-0.4c0-3.2,0-6.2,0-9.5
			c7.5,0,14.9,0,22.5,0c0,3.1,0,6.2,0,9.4c-0.7,0.1-1.3,0.3-1.9,0.3c-5.2,0.2-5.2,0.2-6.9,5c-4.9,13.2-9.8,26.4-14.6,39.7
			c-0.7,1.8-1.5,2.5-3.5,2.5c-8.3,0-8.3,0.1-11.2-7.7C255.8,216.7,254.2,212.6,252.4,207.5z"/>
		<path class="st0" d="M233.3,86.2c0,4.6,0,9.1,0,13.9c1.9,0.1,3.8,0.2,5.8,0.3c0,3.2,0,6.2,0,9.5c-7.2,0-14.3,0-21.6,0
			c0-3,0-6.1,0-9.5c1.8-0.1,3.6-0.2,5.7-0.3c0-12.7,0-25.2,0-38.1c-1.9,0-3.7,0-5.7,0c0-3.3,0-6.3,0-9.6c7.2,0,14.3,0,21.7,0
			c0,3.1,0,6.1,0,9.5c-1.9,0-3.8,0-5.8,0c0,4.9,0,9.3,0,14c7.6,0,15.2,0,23.1,0c0-4.5,0-9,0-13.8c-1.8,0-3.6,0-5.7,0
			c0-3.4,0-6.5,0-9.8c7.1,0,14.2,0,21.6,0c0,3.1,0,6.2,0,9.5c-1.8,0.1-3.6,0.2-5.6,0.3c0,12.6,0,25.2,0,38.1c1.9,0,3.7,0,5.7,0
			c0,3.4,0,6.5,0,9.8c-7.3,0-14.4,0-21.7,0c0-3.2,0-6.2,0-9.6c1.8,0,3.7,0,5.8,0c0-4.9,0-9.5,0-14.2
			C248.7,86.2,241.2,86.2,233.3,86.2z"/>
		<path class="st0" d="M386.8,228.4c0-3.4,0-6.4,0-9.6c2.2-0.1,4.3-0.2,6.6-0.3c0-12.3,0-24.4,0-36.9c-2.1-0.1-4.2-0.2-6.5-0.4
			c0-3.2,0-6.3,0-9.7c2.2,0,4.3,0,6.4,0c6.4,0,12.9-0.1,19.3,0.1c14.1,0.4,24.1,9.2,26.2,23.1c1.2,8,0,15.7-4.6,22.6
			c-4.9,7.2-11.7,11-20.4,11.2C405,228.5,396.1,228.4,386.8,228.4z M403.5,218.6c8.3,0,16.9,1.6,22.1-7.1c4.4-7.3,4-18.3-0.9-24.6
			c-5.7-7.3-13.7-5-21.3-5.6C403.5,193.9,403.5,206.1,403.5,218.6z"/>
		<path class="st0" d="M368.8,207.4c2.3,3.4,4.5,6.7,6.8,9.8c0.6,0.7,1.8,1.3,2.7,1.4c1.9,0.2,3.8,0.1,6,0.1c0,3.3,0,6.3,0,9.8
			c-4,0-8,0.1-12.1-0.1c-0.8,0-1.6-1.1-2.2-1.9c-3.2-4.5-6.7-8.9-9.4-13.6c-2.3-4-5.3-4.4-9.4-3.5c0,2.9,0,5.9,0,9.2
			c1.9,0,3.8,0,5.8,0c0,3.4,0,6.4,0,9.7c-5.1,0-10.2,0-15.7,0c0-15.4,0-30.8,0-46.5c-2.1-0.2-4-0.3-6.1-0.5c0-3.2,0-6.3,0-10.1
			c9.9,0.4,19.7,0.3,29.4,1.3c7.1,0.8,11.7,5.6,13.4,12.6c1.9,7.9-0.1,14.8-6.4,20.1C370.9,205.9,369.9,206.5,368.8,207.4z
			 M351.3,199c3.2,0,6.1,0.1,8.9,0c4.3-0.2,7.3-3.4,7.7-7.7c0.4-4.5-2-8.5-6.2-9.3c-3.4-0.6-6.9-0.5-10.4-0.7
			C351.3,187.4,351.3,193.1,351.3,199z"/>
		<path class="st0" d="M280.4,62c-2-0.1-3.8-0.2-5.8-0.3c0-3.2,0-6.2,0-9.5c15.1,0,30,0,45.4,0c0,5.2,0,10.3-0.1,15.4
			c0,0.5-1,1.3-1.5,1.4c-2.5,0.1-5.1,0.1-8,0.1c0-2.5,0-4.7,0-7c-6.8,0-13.2,0-19.8,0c0,4.6,0,9.1,0,13.9c5.7,0,11.4,0,17.3,0
			c0,3.4,0,6.5,0,10c-5.7,0-11.4,0-17.3,0c0,4.9,0,9.4,0,14.1c6.5,0,12.9,0,19.5,0c0.1-2.4,0.2-4.6,0.3-6.9c3.2,0,6.1,0,9.3,0
			c0,5.6,0,11.1,0,16.8c-15,0-29.8,0-45,0c0-3.1,0-6.2,0-9.5c1.9-0.1,3.7-0.2,5.7-0.3C280.4,87.5,280.4,74.9,280.4,62z"/>
		<path class="st0" d="M186.5,181.6c-2-0.2-3.6-0.3-5.3-0.5c0-3.2,0-6.2,0-9.7c6.4,0,12.7-0.1,19,0.1c0.6,0,1.4,1.5,1.8,2.4
			c4.9,13,9.7,26,14.5,39c1.2,3.4,1.8,7.3,7.2,5.3c0,3.6,0,6.6,0,9.9c-6.9,0-13.8,0-20.9,0c0-3,0-6,0-9.4c1.6-0.1,3.3-0.2,5.5-0.3
			c-1.1-2.9-2-5.7-3.2-8.3c-0.2-0.5-1.3-0.9-2-0.9c-5-0.1-10-0.1-15,0c-0.7,0-1.7,0.5-2,1c-1.1,2.6-2,5.3-3.1,8.3
			c1.9,0.1,3.4,0.2,5.1,0.2c0,3.2,0,6.3,0,9.5c-7.5,0-14.9,0-22.4,0c0-3.2,0-6.2,0-9.3c0.3-0.1,0.6-0.3,0.8-0.3
			c6.3-0.3,6.3-0.3,8.5-6.2C178.9,202.3,182.6,192.2,186.5,181.6z M196,185.3c-0.2,0-0.5,0-0.7,0c-1.6,4.5-3.3,8.9-5,13.6
			c3.7,0,7.1,0,10.8,0C199.3,194.1,197.7,189.7,196,185.3z"/>
		<path class="st0" d="M221.6,140.7c0.1-16.3,12.8-28.9,29.1-28.8c15.5,0.1,28,13.1,27.9,29c-0.1,16.1-12.9,29-28.8,28.9
			C234.1,169.7,221.5,156.7,221.6,140.7z M231.8,140.6c0,10.4,8.1,18.9,18.2,19c9.9,0.1,18.3-8.5,18.4-18.8
			c0.1-10.1-8.1-18.6-18-18.7C240.1,122,231.8,130.3,231.8,140.6z"/>
		<path class="st0" d="M339,218.3c0,3.7,0,6.7,0,9.9c-6.6,0-13,0-19.6,0c0-3.2,0-6.3,0-9.6c1.7,0,3.3,0,5.5,0
			c-1.1-3.1-2-5.8-3.2-8.5c-0.2-0.6-1.5-1-2.2-1c-4.8-0.1-9.6-0.1-14.4,0c-0.9,0-2.1,0.8-2.5,1.5c-1.1,2.4-1.9,4.9-2.9,7.7
			c1.9,0.1,3.4,0.2,5.2,0.2c0,3.1,0,6.2,0,9.5c-7.4,0-14.7,0-22.3,0c0-3.1,0-6.2,0-9.3c0.2-0.1,0.3-0.3,0.5-0.3
			c5.5,1.1,7.4-1.9,8.9-6.7c3.3-10.1,7.3-19.9,11.1-30.4c-1.8-0.2-3.4-0.3-5.1-0.5c0-3.2,0-6.3,0-9.7c6.2,0,12.2-0.1,18.2,0.1
			c0.8,0,2,1.5,2.4,2.6c5.1,13.6,10.1,27.2,15.1,40.8C334.5,217.3,335.2,219.8,339,218.3z M306.7,199c3.8,0,7.1,0,10.9,0
			c-1.8-4.9-3.5-9.4-5.4-14.7C310.2,189.6,308.5,194.1,306.7,199z"/>
		<path class="st0" d="M393.8,159.7c0-2.7,0-4.8,0-7.1c3.2,0,6.1,0,9.3,0c0,5.4,0,10.8,0,16.4c-0.9,0.1-1.9,0.2-2.9,0.2
			c-12.4,0-24.8-0.1-37.2,0.1c-2.6,0-3.9-0.5-3.5-3.4c0.1-0.6,0.1-1.2,0-1.8c-0.4-3,0.2-5,4-4.5c0.6,0.1,2.1-1.1,2.1-1.7
			c0.1-11.8,0.1-23.5,0.1-35.6c-2-0.1-3.8-0.2-5.8-0.3c0-3.1,0-6,0-9.4c4.4,0,8.6,0,12.9,0c5.4,0,10.9,0.1,16.3,0
			c1.7,0,2.3,0.6,2.4,2.3c0.4,7.3,0.5,7.3-6.9,7.3c-2.3,0-4.5,0.1-6.8,0c-1.7-0.1-2.7,0.4-2.6,2.4c0.1,3,0.1,5.9,0,8.9
			c-0.1,2,0.8,2.5,2.6,2.4c3.7-0.1,7.4,0,11.1,0c1.8,0,2.5,0.5,2.6,2.4c0.4,7.1,0.4,7.1-6.8,7.1c-3,0-7-0.8-8.8,0.8
			c-1.5,1.4-0.6,5.6-0.6,8.5c0,5.5-0.7,5.1,5.1,5.1C384.5,159.7,388.9,159.7,393.8,159.7z"/>
		<path class="st0" d="M296.8,112.5c0,3.3,0,6.3,0,9.4c-1.8,0.1-3.5,0.2-5.6,0.4c4.2,11.5,8.4,22.6,12.5,33.7c0.3,0,0.5,0,0.8,0
			c4.1-11.1,8.2-22.2,12.4-33.7c-2-0.1-3.5-0.2-5.3-0.3c0-3.1,0-6.1,0-9.2c6.9,0,13.8,0,20.8,0c0,3,0,6,0,9
			c-0.2,0.1-0.4,0.3-0.6,0.3c-4.3-0.8-5.9,1.5-7.2,5.3c-4.5,13-9.5,25.9-14.2,38.8c-0.9,2.4-2,3.3-4.6,3.2c-7.1-0.2-7.1,0-9.6-6.6
			c-4.6-12.5-9.3-25.1-13.8-37.6c-0.8-2.3-2-3.4-4.4-3c-2.6,0.5-3.3-0.7-3.3-3.2c0.1-6.3,0-6.3,6.4-6.3
			C286.2,112.5,291.3,112.5,296.8,112.5z"/>
		<path class="st0" d="M474.6,171.4c0,5.2,0,10,0,15c-3,0-6,0-9.1,0c-0.2-0.7-0.4-1.5-0.7-2.3c-1.2-3.2-4.3-5.2-7.7-4.8
			c-3.6,0.4-6.2,2.7-6.8,6.1c-0.5,3.2,1,6.1,4.5,7.5c3.7,1.5,7.6,2.4,11.3,3.8c9.3,3.7,13.1,11.9,10,21.1
			c-3.6,10.6-15.6,14.9-25.5,9.1c-3,3.1-6.7,0.9-10.3,1.6c0-5.7,0-11.1,0-16.8c2.8,0,5.4-0.1,8,0.1c0.6,0.1,1.4,1.2,1.7,2
			c1.6,5.3,6.1,7.8,11.2,6.1c3.1-1,4.9-3.3,5.2-6.5c0.3-3.2-0.9-5.7-3.8-7s-5.9-2.1-8.9-3.2c-6.5-2.2-12-5.5-13.6-12.8
			c-1.3-6.1,0.4-11.4,5.1-15.5s10.2-5.5,16.3-3.6c1.8,0.6,3.2,1,5.2,0.5C469,171,471.7,171.4,474.6,171.4z"/>
		<path class="st0" d="M187,62c-2.6,0-5.1,0-7.9,0c0,2.5,0,5,0,7.7c-3.4,0-6.4,0-9.6,0c0-5.8,0-11.5,0-17.5c15.1,0,30.1,0,45.3,0
			c0,5.8,0,11.6,0,17.5c-3.1,0-6.1,0-9.4,0c0-2.5,0-5,0-7.6c-2.9,0-5.5,0-8.2,0c0,12.6,0,25.2,0,38c1.9,0,3.7,0,5.7,0
			c0,3.4,0,6.5,0,9.8c-7.2,0-14.3,0-21.6,0c0-3.1,0-6.1,0-9.6c1.8-0.1,3.7-0.2,5.7-0.3C187,87.4,187,74.9,187,62z"/>
		<path class="st0" d="M187.3,122c-2.3,0-4,0-5.9,0c0-3.2,0-6.2,0-9.4c7.1,0,14.1,0,21.3,0c0,3,0,6,0,9.2c-1.7,0.1-3.5,0.2-5.6,0.3
			c-0.1,0.9-0.2,1.8-0.2,2.7c0,10.5,0,21.1-0.1,31.6c0,2.3,0.6,3.4,3.1,3.2c3-0.2,5.9-0.1,8.9,0c2.3,0.1,3.2-0.7,3-3
			c-0.1-1.3,0-2.6,0-4.1c3.1,0,5.9,0,9,0c0,5.5,0,10.8,0,16.4c-1.1,0.1-2.1,0.2-3.1,0.2c-11,0-21.9-0.1-32.9,0.1
			c-2.9,0-3.8-0.9-3.5-3.7c0.2-1.8,0-3.6,0-5.3c0.5-0.3,0.6-0.5,0.8-0.5c5.3-0.6,5.3-0.6,5.3-6.2c0-9.2,0-18.4,0-27.6
			C187.3,124.8,187.3,123.6,187.3,122z"/>
		<path class="st0" d="M357,159.9c0,3.2,0,6,0,9c-7.2,0-14.2,0-21.4,0c0-3,0-5.9,0-8.8c0.2-0.1,0.3-0.3,0.5-0.3
			c5.4-0.6,5.4-0.6,5.4-6.4c0-9.2,0-18.4,0-27.6c0-1.1,0-2.2,0-3.6c-2.1-0.1-3.9-0.2-5.9-0.3c0-3,0-6,0-9.2c7,0,14.1,0,21.3,0
			c0,3,0,6,0,9.2c-1.9,0.1-3.7,0.2-5.9,0.3c0,1.2,0,2.3,0,3.4c0,10,0.1,20.1-0.1,30.1c-0.1,3.2,0.8,4.5,4.1,4.1
			C355.6,159.6,356.2,159.8,357,159.9z"/>
		<path class="st0" d="M429.7,52.4c3,0,5.9,0,9,0c0,3.1,0,6,0,9.1c-2.9,0-5.9,0-9,0C429.7,58.7,429.7,55.8,429.7,52.4z"/>
		<path class="st0" d="M393.9,64.4c3.1,0,6.1,0,9.2,0c0,3.1,0,5.9,0,9c-3,0-6,0-9.2,0C393.9,70.4,393.9,67.5,393.9,64.4z"/>
		<path class="st0" d="M358.2,4c3.1,0,6,0,9.1,0c0,3.1,0,6,0,9.1c-3,0-6,0-9.1,0C358.2,10.2,358.2,7.3,358.2,4z"/>
		<path class="st0" d="M370.1,4c3.1,0,5.9,0,9,0c0,3.1,0,6,0,9.2c-3,0-5.9,0-9,0C370.1,10.1,370.1,7.1,370.1,4z"/>
		<path class="st0" d="M429.5,13.2c0-3.2,0-6,0-9.1c3.1,0,6.1,0,9.2,0c0,3,0,5.9,0,9.1C435.7,13.2,432.7,13.2,429.5,13.2z"/>
		<path class="st0" d="M334.4,16.2c3.1,0,5.9,0,9,0c0,3.1,0,6.1,0,9.2c-3,0-5.9,0-9,0C334.4,22.4,334.4,19.5,334.4,16.2z"/>
		<path class="st0" d="M367.3,25.5c-3.1,0-5.9,0-9,0c0-3.1,0-6,0-9.2c2.9,0,5.8,0,9,0C367.3,19.2,367.3,22.2,367.3,25.5z"/>
		<path class="st0" d="M379.1,25.5c-0.9,0.1-1.5,0.1-2.1,0.1c-7.6,0.1-8.7-1.4-6.6-9.4c2.8,0,5.6,0,8.7,0
			C379.1,19.3,379.1,22.2,379.1,25.5z"/>
		<path class="st0" d="M403.1,112.7c0,3.1,0,6,0,9.1c-3,0-5.9,0-9.1,0c0-2.9,0-5.9,0-9.1C396.9,112.7,399.8,112.7,403.1,112.7z"/>
		<path class="st0" d="M438.8,16.3c0,3.1,0,6,0,9c-3.1,0-6,0-9.2,0c0-3,0-5.9,0-9C432.6,16.3,435.5,16.3,438.8,16.3z"/>
		<path class="st0" d="M331.5,49.5c-3.3,0-6,0-8.9,0c0-3,0-6,0-9.1c2.8,0,5.7,0,8.9,0C331.5,43.3,331.5,46.3,331.5,49.5z"/>
		<path class="st0" d="M334.4,49.4c0-3.1,0-6,0-9.1c3,0,5.9,0,9.1,0c0,2.9,0,5.9,0,9.1C340.5,49.4,337.6,49.4,334.4,49.4z"/>
		<path class="st0" d="M453.4,25.4c0-3.1,0-5.9,0-9c3,0,6,0,9.2,0c0,3,0,5.9,0,9C459.6,25.4,456.7,25.4,453.4,25.4z"/>
		<path class="st0" d="M367.4,49.5c-3.2,0-6.1,0-9.2,0c0-3.1,0-6,0-9.1c3,0,6,0,9.2,0C367.4,43.3,367.4,46.2,367.4,49.5z"/>
		<path class="st0" d="M370.1,49.4c0-3.1,0-6,0-9.1c3.1,0,6,0,9.1,0c0,3.1,0,6,0,9.1C376.2,49.4,373.3,49.4,370.1,49.4z"/>
		<path class="st0" d="M393.9,100.6c3,0,6,0,9.2,0c0,3,0,5.9,0,9c-3,0-6,0-9.2,0C393.9,106.7,393.9,103.7,393.9,100.6z"/>
		<path class="st0" d="M403.1,40.3c0,3.1,0,6.1,0,9.2c-3.1,0-6,0-9.1,0c0-3,0-6,0-9.2C396.9,40.3,399.8,40.3,403.1,40.3z"/>
		<path class="st0" d="M438.8,64.7c0,3,0,5.7,0,8.7c-3.1,0-6.1,0-9.2,0c0-0.8-0.1-1.5-0.1-2.2C429.3,63.7,431.1,62.4,438.8,64.7z"/>
		<path class="st0" d="M358.2,85.6c0-3.1,0-6,0-9c3.1,0,6.1,0,9.2,0c0,3,0,5.9,0,9C364.3,85.6,361.3,85.6,358.2,85.6z"/>
		<path class="st0" d="M438.7,49.5c-3.1,0-5.9,0-9,0c0-3.1,0-6.1,0-9.3c2.9,0,5.9,0,9,0C438.7,43.2,438.7,46.2,438.7,49.5z"/>
		<path class="st0" d="M403.1,88.7c0,3.1,0,5.9,0,9c-3.1,0-6.1,0-9.3,0c0-3,0-5.8,0-9C396.8,88.7,399.8,88.7,403.1,88.7z"/>
		<path class="st0" d="M462.6,49.5c-3.1,0-6,0-9.1,0c0-3.1,0-6.1,0-9.2c3,0,5.9,0,9.1,0C462.6,43.3,462.6,46.3,462.6,49.5z"/>
		<path class="st0" d="M465.3,40.2c3.1,0,6,0,9,0c0,3.1,0,6.1,0,9.3c-3,0-5.9,0-9,0C465.3,46.4,465.3,43.5,465.3,40.2z"/>
		<path class="st0" d="M370.1,85.6c0-3.1,0-6.1,0-9.2c3.1,0,5.9,0,9,0c0,3,0,6,0,9.2C376.1,85.6,373.2,85.6,370.1,85.6z"/>
		<path class="st0" d="M403.1,52.5c0,3.1,0,6,0,9.1c-3.1,0-6.1,0-9.2,0c0-3.1,0-6,0-9.1C397,52.5,399.9,52.5,403.1,52.5z"/>
		<path class="st0" d="M403.1,85.7c-3.2,0-6.1,0-9.2,0c0-3.1,0-6,0-9.2c3,0,6,0,9.2,0C403.1,79.5,403.1,82.4,403.1,85.7z"/>
		<path class="st0" d="M334.2,52.4c3.3,0,6.1,0,9.2,0c0,3.1,0,6.1,0,9.4c-2.6,0-5.1,0.1-7.6-0.1c-0.6,0-1.5-1.1-1.5-1.7
			C334.1,57.6,334.2,55.2,334.2,52.4z"/>
		<path class="st0" d="M438.7,85.7c-3.2,0-6.1,0-9.2,0c0-3.1,0-6,0-9.1c3,0,6,0,9.2,0C438.7,79.5,438.7,82.4,438.7,85.7z"/>
		<path class="st0" d="M367.3,61.6c-3.1,0-6,0-9.1,0c0-3.1,0-6,0-9.1c3,0,5.9,0,9.1,0C367.3,55.4,367.3,58.3,367.3,61.6z"/>
		<path class="st0" d="M379.2,52.3c0,3.3,0,6.1,0,9.5c-2.6,0-5.4,0.6-7.8-0.2c-3.4-1.2-1-4.5-1.5-6.9c-0.1-0.7,1-2.3,1.7-2.3
			C374,52.1,376.5,52.3,379.2,52.3z"/>
		<path class="st0" d="M331.8,52.5c0,2.7,0.1,5.1-0.1,7.5c0,0.6-0.9,1.7-1.5,1.7c-2.5,0.2-5,0.1-7.7,0.1c0-3.3,0-6.1,0-9.3
			C325.6,52.5,328.4,52.5,331.8,52.5z"/>
		<path class="st0" d="M379.2,88.6c0,3.1,0,5.9,0,9.3c-2.6,0-5.2,0.1-7.8-0.1c-0.5,0-1.4-1-1.4-1.5c-0.2-2.5-0.1-5-0.1-7.7
			C373.2,88.6,376,88.6,379.2,88.6z"/>
		<path class="st0" d="M462.7,73.5c-3.3,0-6.1,0-9.2,0c0-3,0-5.9,0-9.3c2.6,0,5.3-0.1,8,0.1c0.4,0,1.2,0.9,1.2,1.4
			C462.8,68.2,462.7,70.7,462.7,73.5z"/>
		<path class="st0" d="M453.5,52.4c3.1,0,6,0,9.2,0c0,2.7,0.1,5.2-0.1,7.7c0,0.6-1,1.5-1.7,1.6c-2.4,0.2-4.8,0.1-7.5,0.1
			C453.5,58.6,453.5,55.7,453.5,52.4z"/>
		<path class="st0" d="M474.4,61.6c-0.8,0.1-1.3,0.2-1.8,0.2c-8,0.3-8.9-0.9-7-9.5c1.1,0,2.3,0,3.5,0c1.7,0,3.4,0,5.3,0
			C474.4,55.5,474.4,58.4,474.4,61.6z"/>
		<path class="st0" d="M343.6,64.2c0,3.4,0,6.1,0,9.2c-3,0-6,0-9.4,0c0-2.6-0.1-5.1,0.1-7.7c0-0.5,0.9-1.4,1.5-1.5
			C338.3,64.1,340.8,64.2,343.6,64.2z"/>
		<path class="st0" d="M379.2,64.1c0,3.4,0,6.2,0,9.3c-3,0-5.9,0-9.3,0c0-2.6-0.1-5.1,0.1-7.6c0-0.6,1-1.5,1.7-1.6
			C374,64,376.5,64.1,379.2,64.1z"/>
		<path class="st0" d="M358.3,64.6c0.3-0.2,0.3-0.3,0.4-0.3c8.6-1.3,9.9,0.1,8.5,9.1c-2.9,0-5.8,0-8.9,0
			C358.3,70.5,358.3,67.6,358.3,64.6z"/>
		<path class="st0" d="M322.5,37.5c0-3.4,0-6.2,0-9.4c2.6,0,5.1-0.1,7.6,0.1c0.6,0,1.5,1,1.6,1.7c0.2,1.9,0.2,3.9,0,5.8
			c-0.1,0.7-1.1,1.7-1.7,1.8C327.6,37.6,325.2,37.5,322.5,37.5z"/>
		<path class="st0" d="M453.3,37.2c0-2.6-0.1-5,0.1-7.4c0.1-0.6,1.2-1.6,1.9-1.7c2.3-0.2,4.7-0.1,7.2-0.1c0,3.1,0,6,0,9.1
			C459.6,37.2,456.7,37.2,453.3,37.2z"/>
		<path class="st0" d="M417.8,40.5c0.3-0.2,0.4-0.3,0.5-0.3c8.9-0.8,9.6,0,8.3,9.4c-1.4,0-2.9,0-4.4,0c-1.4,0-2.8,0-4.4,0
			C417.8,46.4,417.8,43.5,417.8,40.5z"/>
		<path class="st0" d="M355.5,69c0,4.7,0,4.7-4.5,4.7c-5.1,0-4.8,0.6-4.8-4.4c0-5.2,0-5.2,4-5.2C356,64.2,355.4,63.3,355.5,69z"/>
		<path class="st0" d="M382.1,73.6c0-3.3,0-6.2,0-9.5c2.7,0,5.2-0.1,7.7,0.1c0.5,0,1.3,0.8,1.3,1.3c0.1,2.2,0.2,4.5,0,6.7
			c0,0.5-1,1.2-1.6,1.3C387.1,73.7,384.8,73.6,382.1,73.6z"/>
		<path class="st0" d="M367.6,37.3c-3.4,0-6.3,0-9.5,0c0-2.6-0.1-5,0-7.5c0-0.6,0.6-1.5,1-1.5c2.4-0.1,4.9-0.2,7.3,0
			c0.4,0,1,0.9,1.1,1.5C367.6,32.1,367.6,34.6,367.6,37.3z"/>
		<path class="st0" d="M415,73.4c-1.2,0.1-1.9,0.2-2.6,0.2c-7,0.2-7.8-0.7-6.6-7.7c0.1-0.6,0.8-1.6,1.3-1.7c2.2-0.2,4.5-0.2,6.7,0
			c0.5,0,1.1,1.1,1.2,1.7C415.1,68.3,415,70.8,415,73.4z"/>
		<path class="st0" d="M417.8,73.6c0-3.4,0-6.2,0-9.5c2.7,0,5.2-0.1,7.7,0c0.5,0,1.3,0.6,1.3,1c0.1,2.4,0.1,4.9,0,7.3
			c0,0.4-1,1-1.5,1.1C422.8,73.7,420.4,73.6,417.8,73.6z"/>
		<path class="st0" d="M450.5,61.6c-3,0-5.7,0-9,0c0-2.7-0.1-5.3,0.1-7.9c0-0.5,0.9-1.4,1.4-1.4c2.4-0.2,4.8-0.1,7.5-0.1
			C450.5,55.5,450.5,58.4,450.5,61.6z"/>
		<path class="st0" d="M441.5,64.3c3.2,0,6,0,8.9,0c0,3.1,0,5.9,0,9.3c-2.4,0-4.9,0.1-7.3-0.1c-0.6,0-1.6-1-1.6-1.6
			C441.4,69.5,441.5,67.1,441.5,64.3z"/>
		<path class="st0" d="M417.6,52.4c1.3-0.1,2.2-0.1,3-0.1c6.6-0.1,7.6,1.1,6.3,7.8c-0.1,0.7-1,1.6-1.6,1.6c-2.4,0.2-4.8,0.1-7.4,0.1
			c-0.1-1.4-0.1-2.4-0.1-3.4C417.6,56.5,417.6,54.6,417.6,52.4z"/>
		<path class="st0" d="M355.2,85.7c-3.1,0-5.8,0-8.7,0c0-3.1,0-6,0-9.1c2.8,0,5.6,0,8.7,0C355.2,79.5,355.2,82.5,355.2,85.7z"/>
		<path class="st0" d="M355.3,4c0,3,0,6,0,9.1c-2.8,0-5.7,0-8.7,0c0-3,0-5.9,0-9.1C349.4,4,352.2,4,355.3,4z"/>
		<path class="st0" d="M414.8,61.8c-2.5,0-4.8,0-7.1,0c-0.2,0-0.5,0-0.6-0.1c-2.6-2-0.8-4.9-1.2-7.3c-0.3-1.4,0.4-2.3,2.1-2.2
			c2.2,0.1,4.4,0,6.9,0C414.8,55.4,414.8,58.3,414.8,61.8z"/>
		<path class="st0" d="M390.9,76.5c0,3.2,0,6.1,0,9.2c-3,0-5.7,0-8.7,0c0-3,0-6,0-9.2C385.1,76.5,387.9,76.5,390.9,76.5z"/>
		<path class="st0" d="M382.2,61.8c-0.1-1.1-0.2-1.9-0.2-2.7c0-2.1,0-4.2,0-6.8c2.8,0,5.3-0.1,7.8,0.1c0.5,0,1.3,0.8,1.3,1.3
			c0.1,2.2,0.2,4.5,0,6.7c0,0.5-0.9,1.4-1.5,1.4C387.2,61.9,384.7,61.8,382.2,61.8z"/>
		<path class="st0" d="M406.2,76.4c2.9,0,5.6,0,8.6,0c0,3.1,0,6.1,0,9.1c-0.4,0.1-0.7,0.3-1,0.3C405.5,86.4,404.5,85.2,406.2,76.4z"
			/>
		<path class="st0" d="M417.8,85.8c0-3.3,0-6.2,0-9.5c2.6,0,5.1,0,7.6,0c0.1,0,0.2,0,0.3,0c2.6,2.1,0.8,4.9,1.2,7.3
			c0.2,1.4-0.4,2.3-2.1,2.2C422.6,85.8,420.4,85.8,417.8,85.8z"/>
		<path class="st0" d="M355.2,61.8c-2.5,0-5,0-7.4,0c-0.1,0-0.2,0-0.3,0c-2.7-2.1-0.8-5-1.1-7.6c-0.1-0.5,1.2-1.8,1.9-1.9
			c7.2-0.8,7.4-0.6,7.2,6.7C355.5,59.9,355.3,60.7,355.2,61.8z"/>
		<path class="st0" d="M441.7,85.7c0-3.1,0-6,0-9.2c2.9,0,5.7,0,8.8,0c0,3,0,6,0,9.2C447.5,85.7,444.8,85.7,441.7,85.7z"/>
		<path class="st0" d="M343.7,37.3c-3.3,0-6.2,0-9.4,0c0-2.7-0.1-5.2,0-7.8c0-0.5,0.6-1.3,1-1.3c2.4-0.1,4.9-0.1,7.3,0
			c0.4,0,1,1.2,1,1.8C343.7,32.3,343.7,34.6,343.7,37.3z"/>
		<path class="st0" d="M382.1,88.5c2.6,0,5-0.1,7.4,0s1.7,2.2,1.5,3.3c-0.4,2.1,1.8,5.1-1.5,6c-2.3,0.6-4.8,0.1-7.4,0.1
			C382.1,94.7,382.1,91.8,382.1,88.5z"/>
		<path class="st0" d="M450.4,49.5c-3,0-5.7,0-8.7,0c0-3.1,0-6,0-9.1c2.8,0,5.6,0,8.7,0C450.4,43.2,450.4,46.2,450.4,49.5z"/>
		<path class="st0" d="M414.8,97.9c-2.6,0-5.1,0.1-7.6-0.1c-0.5,0-1.3-0.8-1.3-1.3c-0.1-2.2-0.2-4.5,0-6.7c0-0.5,1-1.3,1.5-1.4
			c2.4-0.2,4.8-0.1,7.4-0.1C414.8,91.7,414.8,94.6,414.8,97.9z"/>
		<path class="st0" d="M417.8,88.5c2.7,0,5.1-0.1,7.5,0.1c0.6,0,1.5,1,1.6,1.7c0.2,2,0.2,4.1,0,6.1c-0.1,0.6-0.9,1.5-1.4,1.6
			c-2.5,0.2-5,0.1-7.7,0.1C417.8,94.7,417.8,91.9,417.8,88.5z"/>
		<path class="st0" d="M414.9,40.1c0,3.3,0,6.2,0,9.5c-2.7,0-5.5,0.6-7.8-0.2c-2.9-1-1-4-1.3-6.1c-0.1-1,0.7-3,1.3-3
			C409.6,39.9,412.2,40.1,414.9,40.1z"/>
		<path class="st0" d="M382.1,109.7c0-3,0-5.7,0-9.2c2.7,0,5.4-0.1,8.2,0.1c0.3,0,0.8,1.1,0.8,1.7c0.9,7.3,0.5,7.7-6.8,7.5
			C383.7,109.8,383.1,109.8,382.1,109.7z"/>
		<path class="st0" d="M382.2,40.1c1.4,0,2.4,0,3.4,0c1.6,0,3.3,0,5.2,0c0,3.1,0,6.1,0,9.3c-2.8,0-5.6,0-8.6,0
			C382.2,46.4,382.2,43.4,382.2,40.1z"/>
		<path class="st0" d="M415,109.7c-1.2,0.1-1.9,0.2-2.6,0.2c-7.1,0.1-7.8-0.6-6.6-7.7c0.1-0.6,0.8-1.6,1.3-1.7
			c2.2-0.2,4.5-0.2,6.7,0c0.4,0,1.1,0.9,1.1,1.4C415,104.4,415,106.9,415,109.7z"/>
		<path class="st0" d="M346.5,40.2c2.9,0,5.6,0,8.6,0c0,3,0,5.9,0,9.2c-2.7,0-5.5,0-8.6,0C346.5,46.5,346.5,43.5,346.5,40.2z"/>
		<path class="st0" d="M441.7,25.4c0-3.1,0-6,0-9.1c2.9,0,5.7,0,8.7,0c0,3,0,6,0,9.1C447.6,25.4,444.9,25.4,441.7,25.4z"/>
		<path class="st0" d="M474.6,37.3c-3.3,0-6.1,0-9.4,0c0-2.7,0-5.2,0-7.7c0-0.1,0-0.2,0-0.3c2.1-2.6,4.9-0.9,7.3-1.2
			c0.6-0.1,1.8,1.3,1.9,2.2C474.7,32.5,474.6,34.8,474.6,37.3z"/>
		<path class="st0" d="M379.3,37.3c-3.2,0-6.1,0-9.4,0c0-2.6-0.1-5,0-7.4c0-0.6,0.6-1.6,1-1.6c2.4-0.1,4.9-0.2,7.3,0
			c0.4,0,1,1.2,1,1.9C379.4,32.4,379.3,34.6,379.3,37.3z"/>
		<path class="st0" d="M417.9,16.1c2.5,0,5-0.1,7.4,0c0.6,0,1.5,0.6,1.5,1c0.1,2.4,0.2,4.9,0,7.3c0,0.4-1.1,1.1-1.7,1.1
			c-2.3,0.1-4.6,0.1-7.2,0.1C417.9,22.4,417.9,19.4,417.9,16.1z"/>
		<path class="st0" d="M393.7,124.8c3.3,0,6.2,0,9.5,0c0,2.7,0.7,5.6-0.2,7.9c-1.1,3-4.4,1.1-6.7,1.3c-0.8,0.1-2.4-1-2.5-1.6
			C393.6,130,393.7,127.5,393.7,124.8z"/>
		<path class="st0" d="M414.9,16.1c0,3.4,0,6.2,0,9.5c-2.6,0-5.3,0.6-7.6-0.1c-3.3-1.1-1-4.4-1.5-6.6c-0.3-1.2-0.3-2.8,1.8-2.8
			C409.9,16.1,412.2,16.1,414.9,16.1z"/>
		<path class="st0" d="M382.1,25.4c0-3.1,0-6,0-9.4c2.5,0,4.9-0.1,7.3,0.1c0.6,0,1.6,1,1.6,1.6c0.2,2.5,0.1,5,0.1,7.7
			C388,25.4,385.3,25.4,382.1,25.4z"/>
		<path class="st0" d="M438.9,37.3c-3.2,0-6.1,0-9.5,0c0-2.6,0-5.1,0-7.6c0-0.1,0-0.2,0-0.3c2-2.7,4.8-0.8,7.2-1.3
			c1.4-0.3,2.3,0.3,2.2,2C438.8,32.4,438.9,34.6,438.9,37.3z"/>
		<path class="st0" d="M417.8,4c1.1,0,2-0.1,2.9-0.1c6.3-0.1,7.8,1.8,6.1,8.1c-0.1,0.6-1,1.3-1.5,1.4c-2.4,0.2-4.8,0.1-7.5,0.1
			C417.8,10.2,417.8,7.3,417.8,4z"/>
		<path class="st0" d="M403.2,37.3c-3.2,0-6.1,0-9.5,0c0-2.6,0-5.1,0-7.6c0-0.1,0-0.2,0-0.3c2-2.7,4.8-0.8,7.2-1.3
			c1.4-0.3,2.3,0.3,2.3,2C403.2,32.4,403.2,34.6,403.2,37.3z"/>
		<path class="st0" d="M441.7,3.9c3,0,5.7,0,8.6,0c0,3,0,6,0,9.2c-2.8,0-5.6,0-8.6,0C441.7,10.2,441.7,7.2,441.7,3.9z"/>
		<path class="st0" d="M414.7,37.3c-1,0.1-1.8,0.2-2.6,0.2c-6.7,0.1-7.4-0.7-6.3-7.5c0.1-0.7,1.2-1.3,1.8-1.9c0.1-0.1,0.2,0,0.3,0
			C415,27.3,415.9,28.5,414.7,37.3z"/>
		<path class="st0" d="M417.6,37.1c0-1.1,0-2.1,0-3.1c0-5.9,2.1-7.5,7.8-5.8c0.6,0.2,1,0.8,1.4,1.3c0.2,0.2,0.1,0.6,0.1,0.9
			C427.6,37.5,426.5,38.4,417.6,37.1z"/>
		<path class="st0" d="M386.5,37.5c-5.3,0-4.6,0.3-4.6-4.6c0-5.1-0.8-4.8,5-4.8c4.2,0,4.2,0,4.2,4.8
			C391.2,37.5,391.2,37.5,386.5,37.5z"/>
		<path class="st0" d="M450.7,32.9c-0.1,5.1,0.6,4.5-4.9,4.6c-4.3,0-4.3,0-4.3-4.6c0-4.8,0-4.8,4.5-4.8
			C450.7,28,450.7,28,450.7,32.9z"/>
		<path class="st0" d="M355.5,32.9c-0.1,5.1,0.5,4.5-5,4.6c-4.3,0-4.3,0-4.3-4.9c0-4.5,0-4.5,4.8-4.5
			C355.5,28.1,355.5,28.1,355.5,32.9z"/>
	</g>
	<g>
		<g>
			<path class="st0" d="M171.1,295.6c3.3-4.3,3.6-4.8,10.2-14.7c2.6-3.7,3.5-6.1,3.5-8.8v-5.7c0-1.9-1.1-2.8-3.3-2.8
				c-1,0-2.1,0.3-2.6,0.9c-0.3,0.3-0.5,0.9-0.5,1.9v8h-7.3V265c0-2.7,0.6-4.6,1.7-5.5c1.5-1.2,4.6-2,8-2c3.5,0,6.5,0.6,8.4,1.7
				c1.9,1,2.7,2.8,2.7,5.8v8.2c0.1,3.3-1,5.6-6.1,13.4c-1.4,2.1-2.8,4.2-4.3,6.4c-0.3,0.4-1.2,1.6-2.6,3.4l13.2-0.1v7.3h-21
				L171.1,295.6L171.1,295.6z"/>
			<path class="st0" d="M198.6,264.8c0-3,0.6-4.8,1.7-5.7c1.6-1.2,4.9-2.1,8.4-2.1c3.9,0,7.3,0.7,9.3,1.9c1.6,1,2.2,2.4,2.2,5.1
				v31.8c0,3.3-0.6,5.3-1.7,6.3c-1.5,1.3-4.8,2.1-8.3,2.1c-4.8,0-8.5-1-10.2-2.8c-1.2-1.3-1.5-2.7-1.5-6.5v-30.1H198.6z
				 M213.2,266.6c0-1.4-0.2-2.1-0.7-2.4c-0.7-0.6-2.1-0.9-3.4-0.9c-2.3,0-3.2,0.8-3.2,2.8v27.7c0,3,0.8,3.8,3.9,3.8
				c2.6,0,3.4-0.8,3.4-3.7V266.6z"/>
			<path class="st0" d="M226.5,295.6c3.3-4.3,3.6-4.8,10.2-14.7c2.6-3.7,3.5-6.1,3.5-8.8v-5.7c0-1.9-1.1-2.8-3.3-2.8
				c-1,0-2.1,0.3-2.6,0.9c-0.3,0.3-0.5,0.9-0.5,1.9v8h-7.3V265c0-2.7,0.6-4.6,1.7-5.5c1.5-1.2,4.6-2,8-2c3.5,0,6.5,0.6,8.4,1.7
				c1.9,1,2.7,2.8,2.7,5.8v8.2c0.1,3.3-1,5.6-6.1,13.4c-1.4,2.1-2.8,4.2-4.3,6.4c-0.3,0.4-1.2,1.6-2.6,3.4l13.2-0.1v7.3h-21
				L226.5,295.6L226.5,295.6z"/>
			<path class="st0" d="M254,264.8c0-3,0.6-4.8,1.7-5.7c1.6-1.2,4.9-2.1,8.4-2.1c3.9,0,7.3,0.7,9.3,1.9c1.6,1,2.2,2.4,2.2,5.1v31.8
				c0,3.3-0.6,5.3-1.7,6.3c-1.5,1.3-4.8,2.1-8.3,2.1c-4.8,0-8.5-1-10.2-2.8c-1.2-1.3-1.5-2.7-1.5-6.5L254,264.8L254,264.8z
				 M268.6,266.6c0-1.4-0.2-2.1-0.7-2.4c-0.7-0.6-2.1-0.9-3.4-0.9c-2.3,0-3.2,0.8-3.2,2.8v27.7c0,3,0.8,3.8,3.9,3.8
				c2.6,0,3.4-0.8,3.4-3.7L268.6,266.6L268.6,266.6z"/>
			<path class="st0" d="M291.2,257.5h20.3v6.4h-13.1v11.8h11.2v6.6h-11.2v21.4h-7.3v-46.2H291.2z"/>
			<path class="st0" d="M323.5,303.6h-7.3v-46.2h7.3V303.6z"/>
			<path class="st0" d="M330.1,257.5h8.5l7.3,31.8l-0.6-11.4v-20.5h6.4v46.2h-8.2l-6-25.2l-1.5-7.6l0.5,10.9v21.9h-6.6v-46.1H330.1z
				"/>
			<path class="st0" d="M363.6,257.5h11.1l6.6,46.2H374l-1.9-13h-6.6l-1.8,13h-7.5L363.6,257.5z M369.6,268.8l-0.5-5.3l-0.7,5.7
				l-1.9,14.8h4.9L369.6,268.8z"/>
			<path class="st0" d="M385.1,257.5h7.3v38.9h10.9v7.3h-18.2L385.1,257.5L385.1,257.5z"/>
			<path class="st0" d="M415.2,303.6h-7.3v-46.2h7.3V303.6z"/>
			<path class="st0" d="M428.7,284.3v9.8c0,2.6,1,3.5,4,3.5c2.2,0,3.3-0.8,3.3-2.5v-8.7c-0.1-3.9-0.6-4.2-8.7-4.8
				c-4.3-0.5-5.7-1.9-5.8-6.3v-11.7c0-4.6,3-6.5,10.4-6.5c7.9,0,11.1,1.9,11.1,6.6v9.8h-7v-7.4c0-2.1-1.1-2.9-3.7-2.9
				c-2.3,0-3.5,1-3.5,2.6v6.2c0.1,2.9,1.2,3.5,6.6,3.9c5.9,0.5,7.6,2.5,7.8,8.9v12.1c0,2.6-1.2,5.2-2.8,6c-1.4,0.7-5.1,1.2-8.7,1.2
				s-7-1.1-8.6-2.8c-1-1-1.5-2.7-1.5-4.8v-12.3L428.7,284.3L428.7,284.3z"/>
			<path class="st0" d="M447.7,257.5h22.8v6.6h-7.8v39.6h-7.3V264h-7.8L447.7,257.5L447.7,257.5z"/>
		</g>
		<g>
			<path class="st0" d="M185,314.7c5.6,0.2,7.3,2.1,7.3,8.2v28.3c-0.1,7.3-1.7,9.3-7.3,9.6h-14.7v-46.2H185V314.7z M182.1,354.3
				c2.4-0.1,2.8-0.9,2.9-4.2v-25.3c-0.1-3.2-0.7-3.9-3.4-3.9h-4.1v33.4H182.1z"/>
			<path class="st0" d="M197.8,321.2c0-5.1,3-7.2,10.4-7.2c8.7,0,11.5,1.9,11.5,7.9v30.6c0,4.3-0.8,6.4-3,7.5
				c-1.9,1-4.4,1.5-8.4,1.5c-4.8,0-7.3-0.7-8.9-2.4c-1.2-1.5-1.7-3-1.7-6.8L197.8,321.2L197.8,321.2z M212.7,324
				c0-2.8-1-3.7-3.9-3.7c-2.2,0-3.3,0.8-3.3,2.5v27.9c0,3.3,0.7,4.1,3.6,4.1c2.5,0,3.7-1,3.7-3.2V324H212.7z"/>
			<path class="st0" d="M239.6,333.7v-10c0-1.5-0.2-2.1-0.7-2.5c-0.7-0.5-1.8-0.8-2.9-0.8c-2.2,0-3.4,1-3.4,3V351
				c0,2.7,1,3.7,3.5,3.7c2.9,0,3.6-0.7,3.6-3.6v-9.6h7.1v11.4c0,3.9-0.7,5.8-2.5,6.9c-1.8,1-4.4,1.6-8,1.6c-4.6,0-7.6-0.8-9.3-2.6
				c-1.2-1.4-1.7-3.2-1.7-6.6v-29.4c0-3.2,0.6-5.5,1.8-6.6s4.4-1.8,8.1-1.8c4.2,0,7.1,0.5,8.7,1.5c1.9,1.1,2.6,2.9,2.6,7V334h-6.9
				V333.7z"/>
			<path class="st0" d="M259.9,314.7v36.1c0,2.8,0.8,3.9,3.1,3.9c1.2,0,2.6-0.3,3.3-0.8c0.6-0.3,0.8-1,0.8-2.9v-36.4h7.1v38.9
				c0,3.5-0.8,5.3-2.6,6.4c-1.5,0.8-4.3,1.3-7.6,1.3c-8.4,0-11.4-2.1-11.4-8.2v-38.3H259.9z"/>
			<path class="st0" d="M291,314.7l3.9,24.5l3.8-24.5h10v46.2H302v-22.1l0.6-14.1l-1.4,11.1l-3.9,25.1h-4.6l-6-36l0.6,14.5v21.5
				h-6.9v-46.2H291z"/>
			<path class="st0" d="M335.6,314.7v6.4h-12.9v11.8h11.4v6.6h-11.4v14.1h13.8v7.3h-21v-46.2L335.6,314.7L335.6,314.7z"/>
			<path class="st0" d="M341.1,314.7h8.5l7.3,31.8l-0.6-11.4v-20.5h6.4v46.2h-8.2l-6-25.2L347,328l0.5,10.9v21.9h-6.6v-46.1H341.1z"
				/>
			<path class="st0" d="M367.7,314.7h22.8v6.6h-7.8v39.6h-7.3v-39.6h-7.8L367.7,314.7L367.7,314.7z"/>
			<path class="st0" d="M398.2,314.7h11.1l6.6,46.2h-7.3l-1.9-13h-6.6l-1.8,13H391L398.2,314.7z M404.2,326l-0.5-5.3l-0.7,5.7
				l-1.9,14.8h4.9L404.2,326z"/>
			<path class="st0" d="M433.6,314.7c6,0,7.4,1.4,7.8,7.3v12c-0.1,2.6-0.7,3.5-3.2,4.6c2.5,1,3,2,3,5.5v1.4
				c-0.1,2.1-0.1,5.2-0.1,6.7c0,4.3,0.2,5.7,1,8.6H437c-1.5,0-2.1-0.2-2.4-0.8c-0.5-1-0.5-1-0.9-8.6v-0.6c0.1-2.2,0.2-4.8,0.2-6.3
				c0-2-0.6-3.5-1.5-4c-1-0.5-1.2-0.5-4.8-0.5H427v20.8h-7.3v-46.2h13.9V314.7z M430.3,334.5c3.2-0.1,4-0.8,4-3.5v-6.6
				c-0.1-2.6-1-3.5-3.5-3.6H427v13.7H430.3z"/>
			<path class="st0" d="M452.6,314.7l5.7,18.4l5.5-18.4h7.1l-9.2,25.9v20.3h-7.3l-0.1-20.6l-9.5-25.6L452.6,314.7L452.6,314.7z"/>
		</g>
	</g>
</g>
</svg>
