<?xml version="1.0" encoding="utf-8"?>
<!-- Generator: Adobe Illustrator 25.0.0, SVG Export Plug-In . SVG Version: 6.00 Build 0)  -->
<svg version="1.1" id="Calque_1" xmlns="http://www.w3.org/2000/svg" xmlns:xlink="http://www.w3.org/1999/xlink" x="0px" y="0px"
	 viewBox="0 0 635.5 367.2" style="enable-background:new 0 0 635.5 367.2;" xml:space="preserve">
<style type="text/css">
	.st0{fill:#FFFFFF;}
</style>
<g>
	<g>
		<g>
			<path class="st0" d="M487.1,318.9c-3.1,9-2.4,18.7,2.8,25.6c10-3.5,19-11.8,21.4-21.8c1.4-4.8,1-9.7,0-13.8
				c-1.4-4.1-3.8-7.9-6.9-10.7c-2.1,1-3.8,2.4-5.5,3.8s-3.1,3.1-4.8,4.8c-1.4,1.7-2.8,3.5-3.8,5.5S488.1,316.5,487.1,318.9z"/>
			<path class="st0" d="M487.1,318.9c-3.1,9-2.4,18.7,2.8,25.6c10-3.5,19-11.8,21.4-21.8c1.4-4.8,1-9.7,0-13.8
				c-1.4-4.1-3.8-7.9-6.9-10.7c-2.1,1-3.8,2.4-5.5,3.8s-3.1,3.1-4.8,4.8c-1.4,1.7-2.8,3.5-3.8,5.5S488.1,316.5,487.1,318.9z"/>
			<path class="st0" d="M513.7,367c-11.8-1.4-18.3-7.9-20.7-16.2c9.3-6.2,20.4-9.7,31.5-9.7c5.5,0,10.4,1.4,14.5,3.5
				c3.8,2.1,6.9,5.2,9,9.3c-2.4,2.4-4.8,4.1-7.6,5.9c-2.8,1.7-5.5,3.5-8.6,4.5s-5.9,2.1-9,2.4C519.6,367.3,516.8,367.3,513.7,367z"
				/>
		</g>
		<g>
			<path class="st0" d="M533.8,69.4c9.3,1.4,18.7-1.4,24.5-7.9c-2.8-4.5-6.2-9-11.1-11.8c-2.1-1.4-4.5-2.8-6.9-3.5
				c-2.4-1-5.2-1.4-7.6-1.4c-10-0.7-18.3,4.5-22.5,11.8c1.7,1.7,3.1,3.1,4.8,4.8c1.7,1.4,3.8,2.8,5.5,3.8
				C524.4,67.3,528.9,68.7,533.8,69.4z"/>
			<path class="st0" d="M575.9,33.8c1,11.8-4.1,19.7-12.1,23.5c-4.1-3.8-7.3-8.6-10-13.5c-1.4-2.4-2.4-4.8-3.5-7.6
				c-1-2.8-1.7-5.2-2.1-7.9c-1.7-11.1,0.7-20,7.9-25.2c2.8,1.7,5.2,4.1,7.3,6.2c2.1,2.4,4.1,4.8,6.2,7.6
				C572.8,22.4,575.2,27.9,575.9,33.8z"/>
		</g>
		<g>
			<path class="st0" d="M553.8,99.4c4.5,1.7,9.3,2.4,13.5,2.1c4.5-0.3,8.6-1.7,12.1-4.1c-0.7-2.4-2.1-4.8-3.5-7.3
				c-1.4-2.4-2.8-4.5-4.8-6.6c-1.7-2.1-3.8-3.5-6.2-4.8c-1-0.7-2.1-1.4-3.5-1.7c-1-0.3-2.4-1-3.8-1.4c-10-2.8-18.7,0.3-24.5,6.6
				c1,2.1,2.1,3.8,3.5,5.5s3.1,3.5,4.5,4.8C545.2,95.3,549.7,97.7,553.8,99.4z"/>
			<path class="st0" d="M602.9,73.9c-0.7,5.9-2.8,10.4-5.9,13.8c-3.1,3.5-6.9,5.5-11.1,6.6c-1.4-2.4-2.8-4.8-3.8-7.3
				c-1-2.4-2.1-5.2-2.8-7.9c-0.7-2.8-1.4-5.5-1.7-8.3c0-1.4-0.3-2.8-0.3-4.1c0-1.4,0-2.8,0-4.1c0.3-11.1,5.2-19.7,13.1-23.2
				c2.1,2.4,4.1,5.2,5.9,7.9c1.7,2.8,3.1,5.5,4.1,8.6C602.5,62.1,603.6,68,602.9,73.9z"/>
		</g>
		<g>
			<path class="st0" d="M566.9,133.3c8.3,5.2,17.6,6.9,25.6,3.5c0-2.8-0.7-5.2-1.7-7.9c-0.7-2.4-1.7-5.2-3.1-7.3
				c-2.8-4.5-6.6-8.3-11.1-11.1c-9.3-4.8-18.3-3.8-25.6,1c1,4.5,3.5,8.3,5.9,12.1c1.4,1.7,2.8,3.5,4.5,5.2
				C563.1,130.2,564.9,131.9,566.9,133.3z"/>
			<path class="st0" d="M620.2,119.1c-3.8,11.1-12.1,15.9-20.7,15.9c-0.7-2.8-1.7-5.2-2.1-7.9c-0.7-2.8-0.7-5.5-1-8.3
				c-0.3-5.5,0-11.1,1.7-16.6c2.8-10.4,9.3-18,18-19.7c3.1,5.5,5.5,12.1,6.2,18.3c0.3,3.1,0.3,6.2,0.3,9.3
				C621.9,113.3,621.2,116.4,620.2,119.1z"/>
		</g>
		<g>
			<path class="st0" d="M572.1,168.9c6.9,6.9,15.6,10.4,24.2,9c0.3-2.8,0.3-5.5,0.3-7.9c-0.3-2.8-0.7-5.2-1.4-7.9
				c-1.7-5.2-4.5-9.7-8.3-13.1c-7.9-6.9-17.3-7.6-25.2-4.5c0,2.4,0.3,4.5,1,6.6s1,4.5,2.1,6.6c1,2.1,2.1,4.1,3.5,5.9
				C569,165.4,570.4,167.2,572.1,168.9z"/>
			<path class="st0" d="M627.1,166.8c-6.2,9.7-15.6,12.8-23.8,11.1c0-2.8-0.3-5.5-0.3-8.3s0.3-5.5,1-8.3c0.7-5.5,2.4-10.7,5.2-15.6
				c4.8-9.7,12.8-15.6,21.8-15.2c1,3.1,1.7,6.2,2.1,9.7c0.3,3.1,0.3,6.6,0,9.7s-0.7,6.2-1.7,9C630.2,161.6,628.8,164.4,627.1,166.8z
				"/>
		</g>
		<g>
			<path class="st0" d="M569.4,205.2c5.2,8.3,12.8,13.5,21.4,13.8c1-2.4,1.7-5.2,2.1-7.9c0.3-2.8,0.3-5.5,0.3-7.9
				c-0.7-5.2-2.4-10.4-5.2-14.5c-6.2-8.3-15.2-11.1-23.5-10c-0.3,2.1-0.7,4.5-0.3,6.6c0,2.4,0,4.5,0.7,6.6c0.3,2.1,1,4.5,2.1,6.6
				C567.3,201,568.3,203.1,569.4,205.2z"/>
			<path class="st0" d="M623.6,215.2c-7.9,8.3-18,9.3-25.6,5.5c0.3-2.8,1-5.5,1.4-8.3c0.7-2.8,1.4-5.5,2.8-7.9
				c2.1-5.2,4.8-10,8.6-14.2c6.9-8.3,15.9-12.1,24.5-10c0.3,3.1,0.3,6.6,0,9.7c-0.3,3.1-1,6.6-2.1,9.3c-1,3.1-2.1,5.9-3.8,8.6
				C627.8,210.7,625.7,213.1,623.6,215.2z"/>
		</g>
		<g>
			<path class="st0" d="M559,239.8c0.7,2.4,1.7,4.5,3.1,6.6c1,2.1,2.4,3.8,4.1,5.2c3.1,3.1,6.6,5.5,11.1,6.6
				c3.1-4.5,4.8-9.7,5.5-14.9s0-10.7-1.7-15.2c-4.1-9.7-12.4-14.2-20.7-14.9c-1,2.1-1.4,4.1-2.1,6.6c-0.7,2.1-1,4.5-1,6.6
				C556.9,230.4,557.3,234.9,559,239.8z"/>
			<path class="st0" d="M609.8,261.5c-2.4,1.7-4.8,2.8-7.3,3.5c-2.4,0.7-4.8,1-6.9,0.7c-4.5-0.3-8.6-1.7-12.1-4.5
				c2.1-5.2,4.1-10.4,7.6-14.9c3.1-4.5,6.9-8.6,11.4-12.1c8.6-6.6,18.3-8.3,25.9-4.5c-0.3,3.1-1.4,6.6-2.1,9.7
				c-1,3.1-2.4,5.9-4.1,8.6C619.1,253.9,614.6,258.4,609.8,261.5z"/>
		</g>
		<g>
			<path class="st0" d="M541.4,271.2c1,9.7,5.9,17.6,13.5,21.8c2.1-1.7,3.8-3.8,5.2-6.2c1.4-2.4,2.8-4.8,3.5-7.3
				c2.1-4.8,2.4-10.4,1.4-15.2c-0.7-4.8-3.1-9.3-6.2-12.4c-3.1-3.1-6.9-5.5-10.7-6.6C542.7,252.5,540,261.5,541.4,271.2z"/>
			<path class="st0" d="M585.9,303.4c-11.1,3.8-20,0.7-25.6-5.9c1.4-2.4,3.1-4.5,4.8-6.6s3.5-4.1,5.5-6.2c4.1-3.8,8.6-6.9,13.8-9.3
				c5.2-2.1,10-3.5,14.5-3.1c4.5,0.3,8.6,1.7,12.1,4.5C606.7,289.2,596.7,299.6,585.9,303.4z"/>
		</g>
		<g>
			<path class="st0" d="M516.8,298.2c-1,9.3,1.7,18.7,8.3,24.2c4.5-2.8,8.6-6.6,11.4-11.1c1.4-2.4,2.8-4.5,3.5-6.9s1.4-5.2,1.4-7.6
				c0.3-5.2-1-9.7-3.1-13.5c-2.4-3.8-5.5-6.9-9.3-9c-0.7,0.7-1.7,1.7-2.4,2.4c-0.7,0.7-1.4,1.7-2.1,2.4c-1.4,1.7-2.8,3.8-3.5,5.9
				C518.9,288.5,517.2,293,516.8,298.2z"/>
			<path class="st0" d="M553.5,339.3c-11.8,1.4-19.7-3.8-23.8-11.4c3.8-4.1,8.6-7.3,13.1-10.4c2.4-1.4,4.8-2.4,7.6-3.5
				c2.4-1,5.2-1.7,7.9-2.4c5.5-1,10.4-1,14.9,0.3c4.5,1,7.9,3.5,10.7,6.9c-1,1.4-1.7,2.8-2.8,4.1c-1,1.4-2.1,2.4-3.5,3.5
				c-2.4,2.4-4.8,4.5-7.3,6.2C564.9,336.2,559,338.6,553.5,339.3z"/>
		</g>
		<path class="st0" d="M522.7,7.1c5.2,3.8,9.3,7.9,12.1,12.8c1.4,2.4,2.4,4.8,3.1,7.3c0.7,2.4,1,4.8,1,7.3c-2.4,0.3-4.8,0-7.3-0.3
			c-2.4-0.3-4.8-0.7-7.3-1.4c-4.8-1.7-9.7-3.5-14.2-6.9c-2.1-1.7-4.5-3.1-6.2-5.2c-2.1-1.7-3.5-3.8-5.2-5.9
			c-3.1-3.8-5.5-8.3-6.9-13.1c4.5-1.7,9.7-2.1,15.2-1.4c2.8,0.3,5.5,1.4,8.3,2.4C517.2,4,520.3,5.4,522.7,7.1z"/>
	</g>
	<g>
		<g>
			<path class="st0" d="M148.4,318.9c3.1,9,2.4,18.7-2.8,25.6c-10-3.5-19-11.8-21.4-21.8c-1.4-4.8-1-9.7,0-13.8
				c1.4-4.1,3.8-7.9,6.9-10.7c2.1,1,3.8,2.4,5.5,3.8s3.1,3.1,4.8,4.8c1.4,1.7,2.8,3.5,3.8,5.5C146.7,314.4,147.7,316.5,148.4,318.9z
				"/>
			<path class="st0" d="M148.4,318.9c3.1,9,2.4,18.7-2.8,25.6c-10-3.5-19-11.8-21.4-21.8c-1.4-4.8-1-9.7,0-13.8
				c1.4-4.1,3.8-7.9,6.9-10.7c2.1,1,3.8,2.4,5.5,3.8s3.1,3.1,4.8,4.8c1.4,1.7,2.8,3.5,3.8,5.5C146.7,314.4,147.7,316.5,148.4,318.9z
				"/>
			<path class="st0" d="M121.8,367c11.8-1.4,18.3-7.9,20.7-16.2c-9.3-6.2-20.4-9.7-31.5-9.7c-5.5,0-10.4,1.4-14.5,3.5
				c-3.8,2.1-6.9,5.2-9,9.3c2.4,2.4,4.8,4.1,7.6,5.9c2.8,1.7,5.5,3.5,8.6,4.5s5.9,2.1,9,2.4C115.9,367.3,119.1,367.3,121.8,367z"/>
		</g>
		<g>
			<path class="st0" d="M101.8,69.4c-9.3,1.4-18.7-1.4-24.5-7.9c2.8-4.5,6.2-9,11.1-11.8c2.1-1.4,4.5-2.8,6.9-3.5
				c2.4-1,5.2-1.4,7.6-1.4c10-0.7,18.3,4.5,22.5,11.8c-1.7,1.7-3.1,3.1-4.8,4.8c-1.7,1.4-3.8,2.8-5.5,3.8
				C111.1,67.3,106.6,68.7,101.8,69.4z"/>
			<path class="st0" d="M59.6,33.8c-1,11.8,4.1,19.7,12.1,23.5c4.1-3.8,7.3-8.6,10-13.5c1.4-2.4,2.4-4.8,3.5-7.6
				c1-2.8,1.7-5.2,2.1-7.9c1.7-11.1-0.7-20-7.9-25.2c-2.8,1.7-5.2,4.1-7.3,6.2c-2.1,2.4-4.1,4.8-6.2,7.6
				C62.7,22.4,60.3,27.9,59.6,33.8z"/>
		</g>
		<g>
			<path class="st0" d="M81.7,99.4c-4.5,1.7-9.3,2.4-13.5,2.1c-4.5-0.3-8.6-1.7-12.1-4.1c0.7-2.4,2.1-4.8,3.5-7.3
				c1.4-2.4,2.8-4.5,4.8-6.6c1.7-2.1,3.8-3.5,6.2-4.8c1-0.7,2.1-1.4,3.5-1.7c1-0.3,2.4-1,3.8-1.4c10-2.8,18.7,0.3,24.5,6.6
				c-1,2.1-2.1,3.8-3.5,5.5s-3.1,3.5-4.5,4.8C90.4,95.3,86.2,97.7,81.7,99.4z"/>
			<path class="st0" d="M33,73.9c0.7,5.9,2.8,10.4,5.9,13.8c3.1,3.5,6.9,5.5,11.1,6.6c1.4-2.4,2.8-4.8,3.8-7.3
				c1-2.4,2.1-5.2,2.8-7.9c0.7-2.8,1.4-5.5,1.7-8.3c0-1.4,0.3-2.8,0.3-4.1c0-1.4,0-2.8,0-4.1c-0.3-11.1-5.2-19.7-13.1-23.2
				c-2.1,2.4-4.1,5.2-5.9,7.9c-1.7,2.8-3.1,5.5-4.1,8.6C33.3,62.1,32,68,33,73.9z"/>
		</g>
		<g>
			<path class="st0" d="M68.6,133.3c-8.3,5.2-17.6,6.9-25.6,3.5c0-2.8,0.7-5.2,1.7-7.9c0.7-2.4,1.7-5.2,3.1-7.3
				c2.8-4.5,6.6-8.3,11.1-11.1c9.3-4.8,18.3-3.8,25.6,1c-1,4.5-3.5,8.3-5.9,12.1c-1.4,1.7-2.8,3.5-4.5,5.2
				C72.4,130.2,70.7,131.9,68.6,133.3z"/>
			<path class="st0" d="M15.4,119.1c3.8,11.1,12.1,15.9,20.7,15.9c0.7-2.8,1.7-5.2,2.1-7.9c0.7-2.8,0.7-5.5,1-8.3
				c0.3-5.5,0-11.1-1.7-16.6c-2.8-10.4-9.3-18-18-19.7c-3.1,5.5-5.5,12.1-6.2,18.3c-0.3,3.1-0.3,6.2-0.3,9.3
				C13.6,113.3,14.3,116.4,15.4,119.1z"/>
		</g>
		<g>
			<path class="st0" d="M63.4,168.9c-6.9,6.9-15.6,10.4-24.2,9c-0.3-2.8-0.3-5.5-0.3-7.9c0.3-2.8,0.7-5.2,1.4-7.9
				c1.7-5.2,4.5-9.7,8.3-13.1c7.9-6.9,17.3-7.6,25.2-4.5c0,2.4-0.3,4.5-1,6.6s-1,4.5-2.1,6.6c-1,2.1-2.1,4.1-3.5,5.9
				C66.5,165.4,65.1,167.2,63.4,168.9z"/>
			<path class="st0" d="M8.5,166.8c6.2,9.7,15.6,12.8,23.8,11.1c0-2.8,0.3-5.5,0.3-8.3s-0.3-5.5-1-8.3c-0.7-5.5-2.4-10.7-5.2-15.6
				c-4.8-9.7-12.8-15.6-21.8-15.2c-1,3.1-1.7,6.2-2.1,9.7c-0.3,3.1-0.3,6.6,0,9.7s0.7,6.2,1.7,9C5.7,161.6,6.7,164.4,8.5,166.8z"/>
		</g>
		<g>
			<path class="st0" d="M66.2,205.2c-5.2,8.3-12.8,13.5-21.4,13.8c-1-2.4-1.7-5.2-2.1-7.9c-0.3-2.8-0.3-5.5-0.3-7.9
				c0.7-5.2,2.4-10.4,5.2-14.5c6.2-8.3,15.2-11.1,23.5-10c0.3,2.1,0.7,4.5,0.3,6.6c0,2.4,0,4.5-0.7,6.6c-0.3,2.1-1,4.5-2.1,6.6
				C68.2,201,67.6,203.1,66.2,205.2z"/>
			<path class="st0" d="M11.9,215.2c7.9,8.3,18,9.3,25.6,5.5c-0.3-2.8-1-5.5-1.4-8.3c-0.7-2.8-1.4-5.5-2.8-7.9
				c-2.1-5.2-4.8-10-8.6-14.2c-6.9-8.3-15.9-12.1-24.5-10c-0.3,3.1-0.3,6.6,0,9.7s1,6.6,2.1,9.3c1,3.1,2.1,5.9,3.8,8.6
				C8.1,210.7,9.8,213.1,11.9,215.2z"/>
		</g>
		<g>
			<path class="st0" d="M76.5,239.8c-0.7,2.4-1.7,4.5-3.1,6.6c-1,2.1-2.4,3.8-4.1,5.2c-3.1,3.1-6.6,5.5-11.1,6.6
				c-3.1-4.5-4.8-9.7-5.5-14.9s0-10.7,1.7-15.2c4.1-9.7,12.4-14.2,20.7-14.9c1,2.1,1.4,4.1,2.1,6.6c0.7,2.1,1,4.5,1,6.6
				C78.6,230.4,78.3,234.9,76.5,239.8z"/>
			<path class="st0" d="M26.1,261.5c2.4,1.7,4.8,2.8,7.3,3.5s4.8,1,6.9,0.7c4.5-0.3,8.6-1.7,12.1-4.5c-2.1-5.2-4.1-10.4-7.6-14.9
				c-3.1-4.5-6.9-8.6-11.4-12.1c-8.6-6.6-18.3-8.3-25.9-4.5c0.3,3.1,1.4,6.6,2.1,9.7c1,3.1,2.4,5.9,4.1,8.6
				C16.7,253.9,21.2,258.4,26.1,261.5z"/>
		</g>
		<g>
			<path class="st0" d="M94.5,271.2c-1,9.7-5.9,17.6-13.5,21.8c-2.1-1.7-3.8-3.8-5.2-6.2c-1.4-2.4-2.8-4.8-3.5-7.3
				c-2.1-4.8-2.4-10.4-1.4-15.2c0.7-4.8,3.1-9.3,6.2-12.4c3.1-3.1,6.9-5.5,10.7-6.6C92.8,252.5,95.6,261.5,94.5,271.2z"/>
			<path class="st0" d="M49.9,303.4c11.1,3.8,20,0.7,25.6-5.9c-1.4-2.4-3.1-4.5-4.8-6.6c-1.7-2.1-3.5-4.1-5.5-6.2
				c-4.1-3.8-8.6-6.9-13.8-9.3c-5.2-2.1-10-3.5-14.5-3.1c-4.5,0.3-8.6,1.7-12.1,4.5C29.2,289.2,38.9,299.6,49.9,303.4z"/>
		</g>
		<g>
			<path class="st0" d="M118.7,298.2c1,9.3-1.7,18.7-8.3,24.2c-4.5-2.8-8.6-6.6-11.4-11.1c-1.4-2.4-2.8-4.5-3.5-6.9
				s-1.4-5.2-1.4-7.6c-0.3-5.2,1-9.7,3.1-13.5c2.4-3.8,5.5-6.9,9.3-9c0.7,0.7,1.7,1.7,2.4,2.4c0.7,0.7,1.4,1.7,2.1,2.4
				c1.4,1.7,2.8,3.8,3.5,5.9C117,288.5,118.4,293,118.7,298.2z"/>
			<path class="st0" d="M82.4,339.3c11.8,1.4,19.7-3.8,23.8-11.4c-3.8-4.1-8.6-7.3-13.1-10.4c-2.4-1.4-4.8-2.4-7.6-3.5
				c-2.4-1-5.2-1.7-7.9-2.4c-5.5-1-10.4-1-14.9,0.3c-4.5,1-7.9,3.5-10.7,6.9c1,1.4,1.7,2.8,2.8,4.1c1,1.4,2.1,2.4,3.5,3.5
				c2.4,2.4,4.8,4.5,7.3,6.2C70.7,336.2,76.5,338.6,82.4,339.3z"/>
		</g>
		<path class="st0" d="M112.8,7.1c-5.2,3.8-9.3,7.9-12.1,12.8c-1.4,2.4-2.4,4.8-3.1,7.3c-0.7,2.4-1,4.8-1,7.3c2.4,0.3,4.8,0,7.3-0.3
			s4.8-0.7,7.3-1.4c4.8-1.7,9.7-3.5,14.2-6.9c2.1-1.7,4.5-3.1,6.2-5.2c2.1-1.7,3.5-3.8,5.2-5.9c3.1-3.8,5.5-8.3,6.9-13.1
			c-4.5-1.7-9.7-2.1-15.2-1.4c-2.8,0.3-5.5,1.4-8.3,2.4C118.4,4,115.6,5.4,112.8,7.1z"/>
	</g>
	<g>
		<path class="st0" d="M252.3,207.4c-2.5,6.7-4.8,12.4-6.8,18.3c-0.7,2.1-1.7,2.7-3.9,2.7c-7.9-0.1-8,0-10.7-7.5
			c-4.3-11.7-8.7-23.3-12.9-35.1c-1.1-3.1-2.1-5.6-6.3-4.4c0-3.5,0-6.6,0-9.9c6.6,0,13.2,0,20.1,0c0,3.1,0,6.2,0,9.5
			c-1.6,0.1-3.2,0.3-5.3,0.4c4.1,11.2,8.2,22.2,12.6,34.1c4.4-11.8,8.4-22.8,12.5-33.7c-0.3-0.3-0.5-0.5-0.6-0.5
			c-4.7-0.4-4.7-0.4-4.7-5.2c0-1.5,0-3,0-4.7c8.2,0,16,0,24.1,0c0,3.1,0,6.2,0,9.8c-2,0-4,0.1-6,0c-1.9-0.1-2.7,0.6-3.3,2.3
			c-3.7,9.8-3.8,9.8-0.1,19.6c1.4,3.8,2.9,7.6,4.6,12.3c4.3-11.7,8.4-22.7,12.6-34c-1.9-0.2-3.5-0.3-5.3-0.4c0-3.2,0-6.2,0-9.5
			c7.5,0,14.9,0,22.5,0c0,3.1,0,6.2,0,9.4c-0.7,0.1-1.3,0.3-1.9,0.3c-5.2,0.2-5.2,0.2-6.9,5c-4.9,13.2-9.8,26.4-14.6,39.7
			c-0.7,1.8-1.5,2.5-3.5,2.5c-8.3,0-8.3,0.1-11.2-7.7C255.7,216.6,254.1,212.5,252.3,207.4z"/>
		<path class="st0" d="M233.2,86.1c0,4.6,0,9.1,0,13.9c1.9,0.1,3.8,0.2,5.8,0.3c0,3.2,0,6.2,0,9.5c-7.2,0-14.3,0-21.6,0
			c0-3,0-6.1,0-9.5c1.8-0.1,3.6-0.2,5.7-0.3c0-12.7,0-25.2,0-38.1c-1.9,0-3.7,0-5.7,0c0-3.3,0-6.3,0-9.6c7.2,0,14.3,0,21.7,0
			c0,3.1,0,6.1,0,9.5c-1.9,0-3.8,0-5.8,0c0,4.9,0,9.3,0,14c7.6,0,15.2,0,23.1,0c0-4.5,0-9,0-13.8c-1.8,0-3.6,0-5.7,0
			c0-3.4,0-6.5,0-9.8c7.1,0,14.2,0,21.6,0c0,3.1,0,6.2,0,9.5c-1.8,0.1-3.6,0.2-5.6,0.3c0,12.6,0,25.2,0,38.1c1.9,0,3.7,0,5.7,0
			c0,3.4,0,6.5,0,9.8c-7.3,0-14.4,0-21.7,0c0-3.2,0-6.2,0-9.6c1.8,0,3.7,0,5.8,0c0-4.9,0-9.5,0-14.2
			C248.6,86.1,241.1,86.1,233.2,86.1z"/>
		<path class="st0" d="M386.7,228.3c0-3.4,0-6.4,0-9.6c2.2-0.1,4.3-0.2,6.6-0.3c0-12.3,0-24.4,0-36.9c-2.1-0.1-4.2-0.2-6.5-0.4
			c0-3.2,0-6.3,0-9.7c2.2,0,4.3,0,6.4,0c6.4,0,12.9-0.1,19.3,0.1c14.1,0.4,24.1,9.2,26.2,23.1c1.2,8,0,15.7-4.6,22.6
			c-4.9,7.2-11.7,11-20.4,11.2C404.9,228.4,396,228.3,386.7,228.3z M403.4,218.5c8.3,0,16.9,1.6,22.1-7.1c4.4-7.3,4-18.3-0.9-24.6
			c-5.7-7.3-13.7-5-21.3-5.6C403.4,193.8,403.4,206,403.4,218.5z"/>
		<path class="st0" d="M368.7,207.3c2.3,3.4,4.5,6.7,6.8,9.8c0.6,0.7,1.8,1.3,2.7,1.4c1.9,0.2,3.8,0.1,6,0.1c0,3.3,0,6.3,0,9.8
			c-4,0-8,0.1-12.1-0.1c-0.8,0-1.6-1.1-2.2-1.9c-3.2-4.5-6.7-8.9-9.4-13.6c-2.3-4-5.3-4.4-9.4-3.5c0,2.9,0,5.9,0,9.2
			c1.9,0,3.8,0,5.8,0c0,3.4,0,6.4,0,9.7c-5.1,0-10.2,0-15.7,0c0-15.4,0-30.8,0-46.5c-2.1-0.2-4-0.3-6.1-0.5c0-3.2,0-6.3,0-10.1
			c9.9,0.4,19.7,0.3,29.4,1.3c7.1,0.8,11.7,5.6,13.4,12.6c1.9,7.9-0.1,14.8-6.4,20.1C370.8,205.8,369.8,206.4,368.7,207.3z
			 M351.2,198.9c3.2,0,6.1,0.1,8.9,0c4.3-0.2,7.3-3.4,7.7-7.7c0.4-4.5-2-8.5-6.2-9.3c-3.4-0.6-6.9-0.5-10.4-0.7
			C351.2,187.3,351.2,193,351.2,198.9z"/>
		<path class="st0" d="M280.3,61.9c-2-0.1-3.8-0.2-5.8-0.3c0-3.2,0-6.2,0-9.5c15.1,0,30,0,45.4,0c0,5.2,0,10.3-0.1,15.4
			c0,0.5-1,1.3-1.5,1.4c-2.5,0.1-5.1,0.1-8,0.1c0-2.5,0-4.7,0-7c-6.8,0-13.2,0-19.8,0c0,4.6,0,9.1,0,13.9c5.7,0,11.4,0,17.3,0
			c0,3.4,0,6.5,0,10c-5.7,0-11.4,0-17.3,0c0,4.9,0,9.4,0,14.1c6.5,0,12.9,0,19.5,0c0.1-2.4,0.2-4.6,0.3-6.9c3.2,0,6.1,0,9.3,0
			c0,5.6,0,11.1,0,16.8c-15,0-29.8,0-45,0c0-3.1,0-6.2,0-9.5c1.9-0.1,3.7-0.2,5.7-0.3C280.3,87.4,280.3,74.8,280.3,61.9z"/>
		<path class="st0" d="M186.4,181.5c-2-0.2-3.6-0.3-5.3-0.5c0-3.2,0-6.2,0-9.7c6.4,0,12.7-0.1,19,0.1c0.6,0,1.4,1.5,1.8,2.4
			c4.9,13,9.7,26,14.5,39c1.2,3.4,1.8,7.3,7.2,5.3c0,3.6,0,6.6,0,9.9c-6.9,0-13.8,0-20.9,0c0-3,0-6,0-9.4c1.6-0.1,3.3-0.2,5.5-0.3
			c-1.1-2.9-2-5.7-3.2-8.3c-0.2-0.5-1.3-0.9-2-0.9c-5-0.1-10-0.1-15,0c-0.7,0-1.7,0.5-2,1c-1.1,2.6-2,5.3-3.1,8.3
			c1.9,0.1,3.4,0.2,5.1,0.2c0,3.2,0,6.3,0,9.5c-7.5,0-14.9,0-22.4,0c0-3.2,0-6.2,0-9.3c0.3-0.1,0.6-0.3,0.8-0.3
			c6.3-0.3,6.3-0.3,8.5-6.2C178.8,202.2,182.5,192.1,186.4,181.5z M195.9,185.2c-0.2,0-0.5,0-0.7,0c-1.6,4.5-3.3,8.9-5,13.6
			c3.7,0,7.1,0,10.8,0C199.2,194,197.6,189.6,195.9,185.2z"/>
		<path class="st0" d="M221.5,140.6c0.1-16.3,12.8-28.9,29.1-28.8c15.5,0.1,28,13.1,27.9,29c-0.1,16.1-12.9,29-28.8,28.9
			C234,169.6,221.4,156.6,221.5,140.6z M231.7,140.5c0,10.4,8.1,18.9,18.2,19c9.9,0.1,18.3-8.5,18.4-18.8c0.1-10.1-8.1-18.6-18-18.7
			C240,121.9,231.7,130.2,231.7,140.5z"/>
		<path class="st0" d="M338.9,218.2c0,3.7,0,6.7,0,9.9c-6.6,0-13,0-19.6,0c0-3.2,0-6.3,0-9.6c1.7,0,3.3,0,5.5,0
			c-1.1-3.1-2-5.8-3.2-8.5c-0.2-0.6-1.5-1-2.2-1c-4.8-0.1-9.6-0.1-14.4,0c-0.9,0-2.1,0.8-2.5,1.5c-1.1,2.4-1.9,4.9-2.9,7.7
			c1.9,0.1,3.4,0.2,5.2,0.2c0,3.1,0,6.2,0,9.5c-7.4,0-14.7,0-22.3,0c0-3.1,0-6.2,0-9.3c0.2-0.1,0.3-0.3,0.5-0.3
			c5.5,1.1,7.4-1.9,8.9-6.7c3.3-10.1,7.3-19.9,11.1-30.4c-1.8-0.2-3.4-0.3-5.1-0.5c0-3.2,0-6.3,0-9.7c6.2,0,12.2-0.1,18.2,0.1
			c0.8,0,2,1.5,2.4,2.6c5.1,13.6,10.1,27.2,15.1,40.8C334.4,217.2,335.1,219.7,338.9,218.2z M306.6,198.9c3.8,0,7.1,0,10.9,0
			c-1.8-4.9-3.5-9.4-5.4-14.7C310.1,189.5,308.4,194,306.6,198.9z"/>
		<path class="st0" d="M393.7,159.6c0-2.7,0-4.8,0-7.1c3.2,0,6.1,0,9.3,0c0,5.4,0,10.8,0,16.4c-0.9,0.1-1.9,0.2-2.9,0.2
			c-12.4,0-24.8-0.1-37.2,0.1c-2.6,0-3.9-0.5-3.5-3.4c0.1-0.6,0.1-1.2,0-1.8c-0.4-3,0.2-5,4-4.5c0.6,0.1,2.1-1.1,2.1-1.7
			c0.1-11.8,0.1-23.5,0.1-35.6c-2-0.1-3.8-0.2-5.8-0.3c0-3.1,0-6,0-9.4c4.4,0,8.6,0,12.9,0c5.4,0,10.9,0.1,16.3,0
			c1.7,0,2.3,0.6,2.4,2.3c0.4,7.3,0.5,7.3-6.9,7.3c-2.3,0-4.5,0.1-6.8,0c-1.7-0.1-2.7,0.4-2.6,2.4c0.1,3,0.1,5.9,0,8.9
			c-0.1,2,0.8,2.5,2.6,2.4c3.7-0.1,7.4,0,11.1,0c1.8,0,2.5,0.5,2.6,2.4c0.4,7.1,0.4,7.1-6.8,7.1c-3,0-7-0.8-8.8,0.8
			c-1.5,1.4-0.6,5.6-0.6,8.5c0,5.5-0.7,5.1,5.1,5.1C384.4,159.6,388.8,159.6,393.7,159.6z"/>
		<path class="st0" d="M296.7,112.4c0,3.3,0,6.3,0,9.4c-1.8,0.1-3.5,0.2-5.6,0.4c4.2,11.5,8.4,22.6,12.5,33.7c0.3,0,0.5,0,0.8,0
			c4.1-11.1,8.2-22.2,12.4-33.7c-2-0.1-3.5-0.2-5.3-0.3c0-3.1,0-6.1,0-9.2c6.9,0,13.8,0,20.8,0c0,3,0,6,0,9
			c-0.2,0.1-0.4,0.3-0.6,0.3c-4.3-0.8-5.9,1.5-7.2,5.3c-4.5,13-9.5,25.9-14.2,38.8c-0.9,2.4-2,3.3-4.6,3.2c-7.1-0.2-7.1,0-9.6-6.6
			c-4.6-12.5-9.3-25.1-13.8-37.6c-0.8-2.3-2-3.4-4.4-3c-2.6,0.5-3.3-0.7-3.3-3.2c0.1-6.3,0-6.3,6.4-6.3
			C286.1,112.4,291.2,112.4,296.7,112.4z"/>
		<path class="st0" d="M474.5,171.3c0,5.2,0,10,0,15c-3,0-6,0-9.1,0c-0.2-0.7-0.4-1.5-0.7-2.3c-1.2-3.2-4.3-5.2-7.7-4.8
			c-3.6,0.4-6.2,2.7-6.8,6.1c-0.5,3.2,1,6.1,4.5,7.5c3.7,1.5,7.6,2.4,11.3,3.8c9.3,3.7,13.1,11.9,10,21.1
			c-3.6,10.6-15.6,14.9-25.5,9.1c-3,3.1-6.7,0.9-10.3,1.6c0-5.7,0-11.1,0-16.8c2.8,0,5.4-0.1,8,0.1c0.6,0.1,1.4,1.2,1.7,2
			c1.6,5.3,6.1,7.8,11.2,6.1c3.1-1,4.9-3.3,5.2-6.5c0.3-3.2-0.9-5.7-3.8-7s-5.9-2.1-8.9-3.2c-6.5-2.2-12-5.5-13.6-12.8
			c-1.3-6.1,0.4-11.4,5.1-15.5s10.2-5.5,16.3-3.6c1.8,0.6,3.2,1,5.2,0.5C468.9,170.9,471.6,171.3,474.5,171.3z"/>
		<path class="st0" d="M186.9,61.9c-2.6,0-5.1,0-7.9,0c0,2.5,0,5,0,7.7c-3.4,0-6.4,0-9.6,0c0-5.8,0-11.5,0-17.5
			c15.1,0,30.1,0,45.3,0c0,5.8,0,11.6,0,17.5c-3.1,0-6.1,0-9.4,0c0-2.5,0-5,0-7.6c-2.9,0-5.5,0-8.2,0c0,12.6,0,25.2,0,38
			c1.9,0,3.7,0,5.7,0c0,3.4,0,6.5,0,9.8c-7.2,0-14.3,0-21.6,0c0-3.1,0-6.1,0-9.6c1.8-0.1,3.7-0.2,5.7-0.3
			C186.9,87.3,186.9,74.8,186.9,61.9z"/>
		<path class="st0" d="M187.2,121.9c-2.3,0-4,0-5.9,0c0-3.2,0-6.2,0-9.4c7.1,0,14.1,0,21.3,0c0,3,0,6,0,9.2
			c-1.7,0.1-3.5,0.2-5.6,0.3c-0.1,0.9-0.2,1.8-0.2,2.7c0,10.5,0,21.1-0.1,31.6c0,2.3,0.6,3.4,3.1,3.2c3-0.2,5.9-0.1,8.9,0
			c2.3,0.1,3.2-0.7,3-3c-0.1-1.3,0-2.6,0-4.1c3.1,0,5.9,0,9,0c0,5.5,0,10.8,0,16.4c-1.1,0.1-2.1,0.2-3.1,0.2
			c-11,0-21.9-0.1-32.9,0.1c-2.9,0-3.8-0.9-3.5-3.7c0.2-1.8,0-3.6,0-5.3c0.5-0.3,0.6-0.5,0.8-0.5c5.3-0.6,5.3-0.6,5.3-6.2
			c0-9.2,0-18.4,0-27.6C187.2,124.7,187.2,123.5,187.2,121.9z"/>
		<path class="st0" d="M356.9,159.8c0,3.2,0,6,0,9c-7.2,0-14.2,0-21.4,0c0-3,0-5.9,0-8.8c0.2-0.1,0.3-0.3,0.5-0.3
			c5.4-0.6,5.4-0.6,5.4-6.4c0-9.2,0-18.4,0-27.6c0-1.1,0-2.2,0-3.6c-2.1-0.1-3.9-0.2-5.9-0.3c0-3,0-6,0-9.2c7,0,14.1,0,21.3,0
			c0,3,0,6,0,9.2c-1.9,0.1-3.7,0.2-5.9,0.3c0,1.2,0,2.3,0,3.4c0,10,0.1,20.1-0.1,30.1c-0.1,3.2,0.8,4.5,4.1,4.1
			C355.5,159.5,356.1,159.7,356.9,159.8z"/>
		<path class="st0" d="M429.6,52.3c3,0,5.9,0,9,0c0,3.1,0,6,0,9.1c-2.9,0-5.9,0-9,0C429.6,58.6,429.6,55.7,429.6,52.3z"/>
		<path class="st0" d="M393.8,64.3c3.1,0,6.1,0,9.2,0c0,3.1,0,5.9,0,9c-3,0-6,0-9.2,0C393.8,70.3,393.8,67.4,393.8,64.3z"/>
		<path class="st0" d="M358.1,3.9c3.1,0,6,0,9.1,0c0,3.1,0,6,0,9.1c-3,0-6,0-9.1,0C358.1,10.1,358.1,7.2,358.1,3.9z"/>
		<path class="st0" d="M370,3.9c3.1,0,5.9,0,9,0c0,3.1,0,6,0,9.2c-3,0-5.9,0-9,0C370,10,370,7,370,3.9z"/>
		<path class="st0" d="M429.4,13.1c0-3.2,0-6,0-9.1c3.1,0,6.1,0,9.2,0c0,3,0,5.9,0,9.1C435.6,13.1,432.6,13.1,429.4,13.1z"/>
		<path class="st0" d="M334.3,16.1c3.1,0,5.9,0,9,0c0,3.1,0,6.1,0,9.2c-3,0-5.9,0-9,0C334.3,22.3,334.3,19.4,334.3,16.1z"/>
		<path class="st0" d="M367.2,25.4c-3.1,0-5.9,0-9,0c0-3.1,0-6,0-9.2c2.9,0,5.8,0,9,0C367.2,19.1,367.2,22.1,367.2,25.4z"/>
		<path class="st0" d="M379,25.4c-0.9,0.1-1.5,0.1-2.1,0.1c-7.6,0.1-8.7-1.4-6.6-9.4c2.8,0,5.6,0,8.7,0C379,19.2,379,22.1,379,25.4z
			"/>
		<path class="st0" d="M403,112.6c0,3.1,0,6,0,9.1c-3,0-5.9,0-9.1,0c0-2.9,0-5.9,0-9.1C396.8,112.6,399.7,112.6,403,112.6z"/>
		<path class="st0" d="M438.7,16.2c0,3.1,0,6,0,9c-3.1,0-6,0-9.2,0c0-3,0-5.9,0-9C432.5,16.2,435.4,16.2,438.7,16.2z"/>
		<path class="st0" d="M331.4,49.4c-3.3,0-6,0-8.9,0c0-3,0-6,0-9.1c2.8,0,5.7,0,8.9,0C331.4,43.2,331.4,46.2,331.4,49.4z"/>
		<path class="st0" d="M334.3,49.3c0-3.1,0-6,0-9.1c3,0,5.9,0,9.1,0c0,2.9,0,5.9,0,9.1C340.4,49.3,337.5,49.3,334.3,49.3z"/>
		<path class="st0" d="M453.3,25.3c0-3.1,0-5.9,0-9c3,0,6,0,9.2,0c0,3,0,5.9,0,9C459.5,25.3,456.6,25.3,453.3,25.3z"/>
		<path class="st0" d="M367.3,49.4c-3.2,0-6.1,0-9.2,0c0-3.1,0-6,0-9.1c3,0,6,0,9.2,0C367.3,43.2,367.3,46.1,367.3,49.4z"/>
		<path class="st0" d="M370,49.3c0-3.1,0-6,0-9.1c3.1,0,6,0,9.1,0c0,3.1,0,6,0,9.1C376.1,49.3,373.2,49.3,370,49.3z"/>
		<path class="st0" d="M393.8,100.5c3,0,6,0,9.2,0c0,3,0,5.9,0,9c-3,0-6,0-9.2,0C393.8,106.6,393.8,103.6,393.8,100.5z"/>
		<path class="st0" d="M403,40.2c0,3.1,0,6.1,0,9.2c-3.1,0-6,0-9.1,0c0-3,0-6,0-9.2C396.8,40.2,399.7,40.2,403,40.2z"/>
		<path class="st0" d="M438.7,64.6c0,3,0,5.7,0,8.7c-3.1,0-6.1,0-9.2,0c0-0.8-0.1-1.5-0.1-2.2C429.2,63.6,431,62.3,438.7,64.6z"/>
		<path class="st0" d="M358.1,85.5c0-3.1,0-6,0-9c3.1,0,6.1,0,9.2,0c0,3,0,5.9,0,9C364.2,85.5,361.2,85.5,358.1,85.5z"/>
		<path class="st0" d="M438.6,49.4c-3.1,0-5.9,0-9,0c0-3.1,0-6.1,0-9.3c2.9,0,5.9,0,9,0C438.6,43.1,438.6,46.1,438.6,49.4z"/>
		<path class="st0" d="M403,88.6c0,3.1,0,5.9,0,9c-3.1,0-6.1,0-9.3,0c0-3,0-5.8,0-9C396.7,88.6,399.7,88.6,403,88.6z"/>
		<path class="st0" d="M462.5,49.4c-3.1,0-6,0-9.1,0c0-3.1,0-6.1,0-9.2c3,0,5.9,0,9.1,0C462.5,43.2,462.5,46.2,462.5,49.4z"/>
		<path class="st0" d="M465.2,40.1c3.1,0,6,0,9,0c0,3.1,0,6.1,0,9.3c-3,0-5.9,0-9,0C465.2,46.3,465.2,43.4,465.2,40.1z"/>
		<path class="st0" d="M370,85.5c0-3.1,0-6.1,0-9.2c3.1,0,5.9,0,9,0c0,3,0,6,0,9.2C376,85.5,373.1,85.5,370,85.5z"/>
		<path class="st0" d="M403,52.4c0,3.1,0,6,0,9.1c-3.1,0-6.1,0-9.2,0c0-3.1,0-6,0-9.1C396.9,52.4,399.8,52.4,403,52.4z"/>
		<path class="st0" d="M403,85.6c-3.2,0-6.1,0-9.2,0c0-3.1,0-6,0-9.2c3,0,6,0,9.2,0C403,79.4,403,82.3,403,85.6z"/>
		<path class="st0" d="M334.1,52.3c3.3,0,6.1,0,9.2,0c0,3.1,0,6.1,0,9.4c-2.6,0-5.1,0.1-7.6-0.1c-0.6,0-1.5-1.1-1.5-1.7
			C334,57.5,334.1,55.1,334.1,52.3z"/>
		<path class="st0" d="M438.6,85.6c-3.2,0-6.1,0-9.2,0c0-3.1,0-6,0-9.1c3,0,6,0,9.2,0C438.6,79.4,438.6,82.3,438.6,85.6z"/>
		<path class="st0" d="M367.2,61.5c-3.1,0-6,0-9.1,0c0-3.1,0-6,0-9.1c3,0,5.9,0,9.1,0C367.2,55.3,367.2,58.2,367.2,61.5z"/>
		<path class="st0" d="M379.1,52.2c0,3.3,0,6.1,0,9.5c-2.6,0-5.4,0.6-7.8-0.2c-3.4-1.2-1-4.5-1.5-6.9c-0.1-0.7,1-2.3,1.7-2.3
			C373.9,52,376.4,52.2,379.1,52.2z"/>
		<path class="st0" d="M331.7,52.4c0,2.7,0.1,5.1-0.1,7.5c0,0.6-0.9,1.7-1.5,1.7c-2.5,0.2-5,0.1-7.7,0.1c0-3.3,0-6.1,0-9.3
			C325.5,52.4,328.3,52.4,331.7,52.4z"/>
		<path class="st0" d="M379.1,88.5c0,3.1,0,5.9,0,9.3c-2.6,0-5.2,0.1-7.8-0.1c-0.5,0-1.4-1-1.4-1.5c-0.2-2.5-0.1-5-0.1-7.7
			C373.1,88.5,375.9,88.5,379.1,88.5z"/>
		<path class="st0" d="M462.6,73.4c-3.3,0-6.1,0-9.2,0c0-3,0-5.9,0-9.3c2.6,0,5.3-0.1,8,0.1c0.4,0,1.2,0.9,1.2,1.4
			C462.7,68.1,462.6,70.6,462.6,73.4z"/>
		<path class="st0" d="M453.4,52.3c3.1,0,6,0,9.2,0c0,2.7,0.1,5.2-0.1,7.7c0,0.6-1,1.5-1.7,1.6c-2.4,0.2-4.8,0.1-7.5,0.1
			C453.4,58.5,453.4,55.6,453.4,52.3z"/>
		<path class="st0" d="M474.3,61.5c-0.8,0.1-1.3,0.2-1.8,0.2c-8,0.3-8.9-0.9-7-9.5c1.1,0,2.3,0,3.5,0c1.7,0,3.4,0,5.3,0
			C474.3,55.4,474.3,58.3,474.3,61.5z"/>
		<path class="st0" d="M343.5,64.1c0,3.4,0,6.1,0,9.2c-3,0-6,0-9.4,0c0-2.6-0.1-5.1,0.1-7.7c0-0.5,0.9-1.4,1.5-1.5
			C338.2,64,340.7,64.1,343.5,64.1z"/>
		<path class="st0" d="M379.1,64c0,3.4,0,6.2,0,9.3c-3,0-5.9,0-9.3,0c0-2.6-0.1-5.1,0.1-7.6c0-0.6,1-1.5,1.7-1.6
			C373.9,63.9,376.4,64,379.1,64z"/>
		<path class="st0" d="M358.2,64.5c0.3-0.2,0.3-0.3,0.4-0.3c8.6-1.3,9.9,0.1,8.5,9.1c-2.9,0-5.8,0-8.9,0
			C358.2,70.4,358.2,67.5,358.2,64.5z"/>
		<path class="st0" d="M322.4,37.4c0-3.4,0-6.2,0-9.4c2.6,0,5.1-0.1,7.6,0.1c0.6,0,1.5,1,1.6,1.7c0.2,1.9,0.2,3.9,0,5.8
			c-0.1,0.7-1.1,1.7-1.7,1.8C327.5,37.5,325.1,37.4,322.4,37.4z"/>
		<path class="st0" d="M453.2,37.1c0-2.6-0.1-5,0.1-7.4c0.1-0.6,1.2-1.6,1.9-1.7c2.3-0.2,4.7-0.1,7.2-0.1c0,3.1,0,6,0,9.1
			C459.5,37.1,456.6,37.1,453.2,37.1z"/>
		<path class="st0" d="M417.7,40.4c0.3-0.2,0.4-0.3,0.5-0.3c8.9-0.8,9.6,0,8.3,9.4c-1.4,0-2.9,0-4.4,0c-1.4,0-2.8,0-4.4,0
			C417.7,46.3,417.7,43.4,417.7,40.4z"/>
		<path class="st0" d="M355.4,68.9c0,4.7,0,4.7-4.5,4.7c-5.1,0-4.8,0.6-4.8-4.4c0-5.2,0-5.2,4-5.2C355.9,64.1,355.3,63.2,355.4,68.9
			z"/>
		<path class="st0" d="M382,73.5c0-3.3,0-6.2,0-9.5c2.7,0,5.2-0.1,7.7,0.1c0.5,0,1.3,0.8,1.3,1.3c0.1,2.2,0.2,4.5,0,6.7
			c0,0.5-1,1.2-1.6,1.3C387,73.6,384.7,73.5,382,73.5z"/>
		<path class="st0" d="M367.5,37.2c-3.4,0-6.3,0-9.5,0c0-2.6-0.1-5,0-7.5c0-0.6,0.6-1.5,1-1.5c2.4-0.1,4.9-0.2,7.3,0
			c0.4,0,1,0.9,1.1,1.5C367.5,32,367.5,34.5,367.5,37.2z"/>
		<path class="st0" d="M414.9,73.3c-1.2,0.1-1.9,0.2-2.6,0.2c-7,0.2-7.8-0.7-6.6-7.7c0.1-0.6,0.8-1.6,1.3-1.7c2.2-0.2,4.5-0.2,6.7,0
			c0.5,0,1.1,1.1,1.2,1.7C415,68.2,414.9,70.7,414.9,73.3z"/>
		<path class="st0" d="M417.7,73.5c0-3.4,0-6.2,0-9.5c2.7,0,5.2-0.1,7.7,0c0.5,0,1.3,0.6,1.3,1c0.1,2.4,0.1,4.9,0,7.3
			c0,0.4-1,1-1.5,1.1C422.7,73.6,420.3,73.5,417.7,73.5z"/>
		<path class="st0" d="M450.4,61.5c-3,0-5.7,0-9,0c0-2.7-0.1-5.3,0.1-7.9c0-0.5,0.9-1.4,1.4-1.4c2.4-0.2,4.8-0.1,7.5-0.1
			C450.4,55.4,450.4,58.3,450.4,61.5z"/>
		<path class="st0" d="M441.4,64.2c3.2,0,6,0,8.9,0c0,3.1,0,5.9,0,9.3c-2.4,0-4.9,0.1-7.3-0.1c-0.6,0-1.6-1-1.6-1.6
			C441.3,69.4,441.4,67,441.4,64.2z"/>
		<path class="st0" d="M417.5,52.3c1.3-0.1,2.2-0.1,3-0.1c6.6-0.1,7.6,1.1,6.3,7.8c-0.1,0.7-1,1.6-1.6,1.6c-2.4,0.2-4.8,0.1-7.4,0.1
			c-0.1-1.4-0.1-2.4-0.1-3.4C417.5,56.4,417.5,54.5,417.5,52.3z"/>
		<path class="st0" d="M355.1,85.6c-3.1,0-5.8,0-8.7,0c0-3.1,0-6,0-9.1c2.8,0,5.6,0,8.7,0C355.1,79.4,355.1,82.4,355.1,85.6z"/>
		<path class="st0" d="M355.2,3.9c0,3,0,6,0,9.1c-2.8,0-5.7,0-8.7,0c0-3,0-5.9,0-9.1C349.3,3.9,352.1,3.9,355.2,3.9z"/>
		<path class="st0" d="M414.7,61.7c-2.5,0-4.8,0-7.1,0c-0.2,0-0.5,0-0.6-0.1c-2.6-2-0.8-4.9-1.2-7.3c-0.3-1.4,0.4-2.3,2.1-2.2
			c2.2,0.1,4.4,0,6.9,0C414.7,55.3,414.7,58.2,414.7,61.7z"/>
		<path class="st0" d="M390.8,76.4c0,3.2,0,6.1,0,9.2c-3,0-5.7,0-8.7,0c0-3,0-6,0-9.2C385,76.4,387.8,76.4,390.8,76.4z"/>
		<path class="st0" d="M382.1,61.7c-0.1-1.1-0.2-1.9-0.2-2.7c0-2.1,0-4.2,0-6.8c2.8,0,5.3-0.1,7.8,0.1c0.5,0,1.3,0.8,1.3,1.3
			c0.1,2.2,0.2,4.5,0,6.7c0,0.5-0.9,1.4-1.5,1.4C387.1,61.8,384.6,61.7,382.1,61.7z"/>
		<path class="st0" d="M406.1,76.3c2.9,0,5.6,0,8.6,0c0,3.1,0,6.1,0,9.1c-0.4,0.1-0.7,0.3-1,0.3C405.4,86.3,404.4,85.1,406.1,76.3z"
			/>
		<path class="st0" d="M417.7,85.7c0-3.3,0-6.2,0-9.5c2.6,0,5.1,0,7.6,0c0.1,0,0.2,0,0.3,0c2.6,2.1,0.8,4.9,1.2,7.3
			c0.2,1.4-0.4,2.3-2.1,2.2C422.5,85.7,420.3,85.7,417.7,85.7z"/>
		<path class="st0" d="M355.1,61.7c-2.5,0-5,0-7.4,0c-0.1,0-0.2,0-0.3,0c-2.7-2.1-0.8-5-1.1-7.6c-0.1-0.5,1.2-1.8,1.9-1.9
			c7.2-0.8,7.4-0.6,7.2,6.7C355.4,59.8,355.2,60.6,355.1,61.7z"/>
		<path class="st0" d="M441.6,85.6c0-3.1,0-6,0-9.2c2.9,0,5.7,0,8.8,0c0,3,0,6,0,9.2C447.4,85.6,444.7,85.6,441.6,85.6z"/>
		<path class="st0" d="M343.6,37.2c-3.3,0-6.2,0-9.4,0c0-2.7-0.1-5.2,0-7.8c0-0.5,0.6-1.3,1-1.3c2.4-0.1,4.9-0.1,7.3,0
			c0.4,0,1,1.2,1,1.8C343.6,32.2,343.6,34.5,343.6,37.2z"/>
		<path class="st0" d="M382,88.4c2.6,0,5-0.1,7.4,0s1.7,2.2,1.5,3.3c-0.4,2.1,1.8,5.1-1.5,6c-2.3,0.6-4.8,0.1-7.4,0.1
			C382,94.6,382,91.7,382,88.4z"/>
		<path class="st0" d="M450.3,49.4c-3,0-5.7,0-8.7,0c0-3.1,0-6,0-9.1c2.8,0,5.6,0,8.7,0C450.3,43.1,450.3,46.1,450.3,49.4z"/>
		<path class="st0" d="M414.7,97.8c-2.6,0-5.1,0.1-7.6-0.1c-0.5,0-1.3-0.8-1.3-1.3c-0.1-2.2-0.2-4.5,0-6.7c0-0.5,1-1.3,1.5-1.4
			c2.4-0.2,4.8-0.1,7.4-0.1C414.7,91.6,414.7,94.5,414.7,97.8z"/>
		<path class="st0" d="M417.7,88.4c2.7,0,5.1-0.1,7.5,0.1c0.6,0,1.5,1,1.6,1.7c0.2,2,0.2,4.1,0,6.1c-0.1,0.6-0.9,1.5-1.4,1.6
			c-2.5,0.2-5,0.1-7.7,0.1C417.7,94.6,417.7,91.8,417.7,88.4z"/>
		<path class="st0" d="M414.8,40c0,3.3,0,6.2,0,9.5c-2.7,0-5.5,0.6-7.8-0.2c-2.9-1-1-4-1.3-6.1c-0.1-1,0.7-3,1.3-3
			C409.5,39.8,412.1,40,414.8,40z"/>
		<path class="st0" d="M382,109.6c0-3,0-5.7,0-9.2c2.7,0,5.4-0.1,8.2,0.1c0.3,0,0.8,1.1,0.8,1.7c0.9,7.3,0.5,7.7-6.8,7.5
			C383.6,109.7,383,109.7,382,109.6z"/>
		<path class="st0" d="M382.1,40c1.4,0,2.4,0,3.4,0c1.6,0,3.3,0,5.2,0c0,3.1,0,6.1,0,9.3c-2.8,0-5.6,0-8.6,0
			C382.1,46.3,382.1,43.3,382.1,40z"/>
		<path class="st0" d="M414.9,109.6c-1.2,0.1-1.9,0.2-2.6,0.2c-7.1,0.1-7.8-0.6-6.6-7.7c0.1-0.6,0.8-1.6,1.3-1.7
			c2.2-0.2,4.5-0.2,6.7,0c0.4,0,1.1,0.9,1.1,1.4C414.9,104.3,414.9,106.8,414.9,109.6z"/>
		<path class="st0" d="M346.4,40.1c2.9,0,5.6,0,8.6,0c0,3,0,5.9,0,9.2c-2.7,0-5.5,0-8.6,0C346.4,46.4,346.4,43.4,346.4,40.1z"/>
		<path class="st0" d="M441.6,25.3c0-3.1,0-6,0-9.1c2.9,0,5.7,0,8.7,0c0,3,0,6,0,9.1C447.5,25.3,444.8,25.3,441.6,25.3z"/>
		<path class="st0" d="M474.5,37.2c-3.3,0-6.1,0-9.4,0c0-2.7,0-5.2,0-7.7c0-0.1,0-0.2,0-0.3c2.1-2.6,4.9-0.9,7.3-1.2
			c0.6-0.1,1.8,1.3,1.9,2.2C474.6,32.4,474.5,34.7,474.5,37.2z"/>
		<path class="st0" d="M379.2,37.2c-3.2,0-6.1,0-9.4,0c0-2.6-0.1-5,0-7.4c0-0.6,0.6-1.6,1-1.6c2.4-0.1,4.9-0.2,7.3,0
			c0.4,0,1,1.2,1,1.9C379.3,32.3,379.2,34.5,379.2,37.2z"/>
		<path class="st0" d="M417.8,16c2.5,0,5-0.1,7.4,0c0.6,0,1.5,0.6,1.5,1c0.1,2.4,0.2,4.9,0,7.3c0,0.4-1.1,1.1-1.7,1.1
			c-2.3,0.1-4.6,0.1-7.2,0.1C417.8,22.3,417.8,19.3,417.8,16z"/>
		<path class="st0" d="M393.6,124.7c3.3,0,6.2,0,9.5,0c0,2.7,0.7,5.6-0.2,7.9c-1.1,3-4.4,1.1-6.7,1.3c-0.8,0.1-2.4-1-2.5-1.6
			C393.5,129.9,393.6,127.4,393.6,124.7z"/>
		<path class="st0" d="M414.8,16c0,3.4,0,6.2,0,9.5c-2.6,0-5.3,0.6-7.6-0.1c-3.3-1.1-1-4.4-1.5-6.6c-0.3-1.2-0.3-2.8,1.8-2.8
			C409.8,16,412.1,16,414.8,16z"/>
		<path class="st0" d="M382,25.3c0-3.1,0-6,0-9.4c2.5,0,4.9-0.1,7.3,0.1c0.6,0,1.6,1,1.6,1.6c0.2,2.5,0.1,5,0.1,7.7
			C387.9,25.3,385.2,25.3,382,25.3z"/>
		<path class="st0" d="M438.8,37.2c-3.2,0-6.1,0-9.5,0c0-2.6,0-5.1,0-7.6c0-0.1,0-0.2,0-0.3c2-2.7,4.8-0.8,7.2-1.3
			c1.4-0.3,2.3,0.3,2.2,2C438.7,32.3,438.8,34.5,438.8,37.2z"/>
		<path class="st0" d="M417.7,3.9c1.1,0,2-0.1,2.9-0.1c6.3-0.1,7.8,1.8,6.1,8.1c-0.1,0.6-1,1.3-1.5,1.4c-2.4,0.2-4.8,0.1-7.5,0.1
			C417.7,10.1,417.7,7.2,417.7,3.9z"/>
		<path class="st0" d="M403.1,37.2c-3.2,0-6.1,0-9.5,0c0-2.6,0-5.1,0-7.6c0-0.1,0-0.2,0-0.3c2-2.7,4.8-0.8,7.2-1.3
			c1.4-0.3,2.3,0.3,2.3,2C403.1,32.3,403.1,34.5,403.1,37.2z"/>
		<path class="st0" d="M441.6,3.8c3,0,5.7,0,8.6,0c0,3,0,6,0,9.2c-2.8,0-5.6,0-8.6,0C441.6,10.1,441.6,7.1,441.6,3.8z"/>
		<path class="st0" d="M414.6,37.2c-1,0.1-1.8,0.2-2.6,0.2c-6.7,0.1-7.4-0.7-6.3-7.5c0.1-0.7,1.2-1.3,1.8-1.9c0.1-0.1,0.2,0,0.3,0
			C414.9,27.2,415.8,28.4,414.6,37.2z"/>
		<path class="st0" d="M417.5,37c0-1.1,0-2.1,0-3.1c0-5.9,2.1-7.5,7.8-5.8c0.6,0.2,1,0.8,1.4,1.3c0.2,0.2,0.1,0.6,0.1,0.9
			C427.5,37.4,426.4,38.3,417.5,37z"/>
		<path class="st0" d="M386.4,37.4c-5.3,0-4.6,0.3-4.6-4.6c0-5.1-0.8-4.8,5-4.8c4.2,0,4.2,0,4.2,4.8
			C391.1,37.4,391.1,37.4,386.4,37.4z"/>
		<path class="st0" d="M450.6,32.8c-0.1,5.1,0.6,4.5-4.9,4.6c-4.3,0-4.3,0-4.3-4.6c0-4.8,0-4.8,4.5-4.8
			C450.6,27.9,450.6,27.9,450.6,32.8z"/>
		<path class="st0" d="M355.4,32.8c-0.1,5.1,0.5,4.5-5,4.6c-4.3,0-4.3,0-4.3-4.9c0-4.5,0-4.5,4.8-4.5C355.4,28,355.4,28,355.4,32.8z
			"/>
	</g>
	<g>
		<g>
			<path class="st0" d="M185,298.9v5.9h-14.8v-4.7c0-1,0.4-1.6,4.8-8.4c1.9-3,3.2-5,3.5-5.7c0.3-0.7,0.5-1.6,0.5-2.8v-3.2
				c0-1-0.5-1.5-1.6-1.5c-1.3,0-1.6,0.4-1.6,2v4.7h-5.8v-7.6c0-1.6,0.3-2.5,1.1-3.1c1-0.8,3.3-1.5,5.6-1.5c2.7,0,4.9,0.5,6.3,1.3
				c1.3,0.8,1.8,2.2,1.8,4.8v5c0,2.2-0.5,3.6-2.8,7.5c-2.3,3.8-2.5,3.9-3,4.7c-0.6,0.8-1.1,1.7-1.6,2.6H185z"/>
			<path class="st0" d="M188.2,278.3c0-2.6,0.4-3.6,1.6-4.3c1.2-0.7,3.4-1,6.3-1c5.9,0,7.6,1.4,7.6,6.3v18c0,3.5-0.3,5.6-1,6.3
				c-1.2,1.1-3.7,1.7-7,1.7c-2.9,0-5.2-0.7-6.2-1.9c-0.9-1.1-1.2-2.4-1.2-5.8V278.3z M197.9,279.9c0-1.2-0.7-1.9-2-1.9
				c-1.3,0-1.8,0.6-1.8,2.3v16.4c0,2.2,0.5,3,1.9,3c1.3,0,1.9-0.8,1.9-2.4V279.9z"/>
			<path class="st0" d="M221.7,298.9v5.9h-14.8v-4.7c0-1,0.4-1.6,4.8-8.4c1.9-3,3.2-5,3.5-5.7c0.3-0.7,0.5-1.6,0.5-2.8v-3.2
				c0-1-0.5-1.5-1.6-1.5c-1.3,0-1.6,0.4-1.6,2v4.7h-5.8v-7.6c0-1.6,0.3-2.5,1.1-3.1c1-0.8,3.3-1.5,5.6-1.5c2.7,0,4.9,0.5,6.3,1.3
				c1.3,0.8,1.8,2.2,1.8,4.8v5c0,2.2-0.5,3.6-2.8,7.5c-2.3,3.8-2.5,3.9-3,4.7c-0.6,0.8-1.1,1.7-1.6,2.6H221.7z"/>
			<path class="st0" d="M224.8,278.3c0-2.6,0.4-3.6,1.6-4.3c1.2-0.7,3.4-1,6.3-1c5.9,0,7.6,1.4,7.6,6.3v18c0,3.5-0.3,5.6-1,6.3
				c-1.2,1.1-3.7,1.7-7,1.7c-2.9,0-5.2-0.7-6.2-1.9c-0.9-1.1-1.2-2.4-1.2-5.8V278.3z M234.5,279.9c0-1.2-0.7-1.9-2-1.9
				c-1.3,0-1.8,0.6-1.8,2.3v16.4c0,2.2,0.5,3,1.9,3c1.3,0,1.9-0.8,1.9-2.4V279.9z"/>
			<path class="st0" d="M259.1,273.5c4.4,0,5.7,0.9,5.7,4.2v9.5c-0.1,4.2-1.1,5.1-5.7,5.2h-3.6v12.5h-6.1v-31.3H259.1z M257.5,287.2
				c1.3,0,1.6-0.5,1.6-2.3v-4.3c0-1.5-0.6-2.1-2-2.1h-1.6v8.6H257.5z"/>
			<path class="st0" d="M281,273.5v5.1h-7.3v6.7h6.6v5.5h-6.6v8.3h7.7v5.8h-13.7v-31.3H281z"/>
			<path class="st0" d="M299.5,297.8c0,4-0.2,4.9-1.4,5.9c-1.3,1-3.4,1.6-6.5,1.6c-5.6,0-7.6-1.5-7.6-6v-20.8c0-2.2,0.4-3.5,1.2-4.2
				c1-0.8,3.3-1.4,6.1-1.4c6.1,0,8.1,1.3,8.1,5.2V297.8z M290.1,297.8c0,1.5,0.5,2.1,1.7,2.1c1.4,0,1.7-0.4,1.7-1.7v-18.2
				c0-1.4-0.5-1.8-1.8-1.8c-1.2,0-1.7,0.5-1.7,1.8V297.8z"/>
			<path class="st0" d="M312.4,273.5c4.4,0,5.7,0.9,5.7,4.2v9.5c-0.1,4.2-1.1,5.1-5.7,5.2h-3.6v12.5h-6.1v-31.3H312.4z M310.8,287.2
				c1.3,0,1.6-0.5,1.6-2.3v-4.3c0-1.5-0.6-2.1-2-2.1h-1.6v8.6H310.8z"/>
			<path class="st0" d="M327.3,273.5v25.7h6.8v5.7H321v-31.3H327.3z"/>
			<path class="st0" d="M350,273.5v5.1h-7.3v6.7h6.6v5.5h-6.6v8.3h7.7v5.8h-13.7v-31.3H350z"/>
			<path class="st0" d="M354.6,286.5l-1.2-13.1h5.7l-1.2,13.1H354.6z"/>
			<path class="st0" d="M372.6,283.3v-3.7c0-0.9-0.6-1.5-1.6-1.5c-1.4,0-1.9,0.5-1.9,1.7v3c0,1.2,0.1,1.6,0.7,2
				c0.4,0.2,0.8,0.4,1.2,0.4c1.3,0.2,2.5,0.4,3.8,0.5c3,0.6,3.9,1.8,3.9,5.5v8.3c0,2.5-0.7,4.2-2,4.9c-1.2,0.7-3.2,1-5.2,1
				c-2.3,0-5.1-0.5-6.3-1.1c-1.3-0.7-2.1-2.5-2.1-5v-6.6h6.1v5.2c0,1.5,0.5,2.1,1.7,2.1c1.3,0,1.8-0.5,1.8-1.7v-5.4
				c-0.1-2-0.4-2.1-4.9-2.3c-3.8-0.4-4.8-1.3-4.7-4.5v-8.3c0-1.9,0.5-3.1,1.6-3.7c1.3-0.7,3.4-1,5.8-1c3.4,0,6.2,0.7,7,1.7
				c0.7,0.8,0.9,1.8,0.9,4.4v4.2H372.6z"/>
			<path class="st0" d="M394.1,273.5v25.7h6.8v5.7h-13.1v-31.3H394.1z"/>
			<path class="st0" d="M418.9,297.8c0,4-0.2,4.9-1.4,5.9c-1.3,1-3.4,1.6-6.5,1.6c-5.6,0-7.6-1.5-7.6-6v-20.8c0-2.2,0.4-3.5,1.2-4.2
				c1-0.8,3.3-1.4,6.1-1.4c6.1,0,8.1,1.3,8.1,5.2V297.8z M409.6,297.8c0,1.5,0.5,2.1,1.7,2.1c1.4,0,1.7-0.4,1.7-1.7v-18.2
				c0-1.4-0.5-1.8-1.8-1.8c-1.2,0-1.7,0.5-1.7,1.8V297.8z"/>
			<path class="st0" d="M420.9,273.5h6.1l2.5,18.6l0.5,4.9l0.6-4.9l2.2-18.6h5.9l-4.6,31.3h-8.5L420.9,273.5z"/>
			<path class="st0" d="M446.8,273.5v31.3H441v-31.3H446.8z"/>
			<path class="st0" d="M463.9,273.5v5.1h-7.3v6.7h6.6v5.5h-6.6v8.3h7.7v5.8h-13.7v-31.3H463.9z"/>
		</g>
		<g>
			<path class="st0" d="M170.6,314.5h14.7c6.6,0.2,7.8,1.5,7.8,9v28.7c-0.3,6.2-2,8-7.5,7.9h-15V314.5z M181.3,352.5
				c2.7-0.1,3.4-0.7,3.4-3.1v-24.4c-0.1-2.4-0.8-3.3-3.1-3.4h-2.3v30.9H181.3z"/>
			<path class="st0" d="M220.1,350c0,5.8-0.3,7.1-2,8.6c-1.8,1.5-5,2.3-9.4,2.3c-8.2,0-11.1-2.2-11.1-8.7v-30.3
				c0-3.1,0.5-5.1,1.8-6.2c1.4-1.2,4.8-2,8.9-2c8.8,0,11.8,1.9,11.8,7.6V350z M206.5,349.9c0,2.2,0.7,3,2.5,3c2,0,2.5-0.5,2.5-2.5
				v-26.6c0-2-0.7-2.7-2.6-2.7c-1.8,0-2.5,0.7-2.5,2.7V349.9z"/>
			<path class="st0" d="M238.4,332.9v-9.1c0-1.2-0.1-1.6-0.6-2c-0.6-0.5-1.4-0.8-2.2-0.8c-1.6,0-2.4,0.8-2.4,2.5v25.7
				c0,2.5,0.6,3.4,2.3,3.4c2,0,2.9-1.1,2.9-3.6V341h8.3v11.2c0,4-0.6,5.7-2.6,6.8c-1.6,1-4.4,1.5-8.5,1.5c-4.5,0-8.2-1-9.6-2.5
				c-1-1.1-1.5-3.1-1.5-5.5v-30.1c0-3.4,0.6-5.6,1.8-6.6c1.4-1.2,4.9-2.1,8.8-2.1c3.8,0,6.9,0.5,8.8,1.6c2.1,1.2,2.7,2.5,2.7,6.4
				v11.2H238.4z"/>
			<path class="st0" d="M259.2,314.5v35.9c0,1.5,1.1,2.4,2.9,2.4c1.8,0,2.6-0.8,2.6-2.4v-35.9h8.4v35.9c0,4.7-0.1,6-0.9,7.2
				c-1.2,2.1-4.4,3.1-9.5,3.1c-5,0-8.6-1-10.1-2.7c-1.3-1.4-1.7-3.2-1.7-7.6v-35.9H259.2z"/>
			<path class="st0" d="M289.7,314.4l3.1,24.1l2.9-24H307v45.7h-7.7v-23.8l0.3-10.5l-3.7,34.2h-6.1l-4.3-34.2l0.5,10.9v23.3h-7.9
				v-45.7H289.7z"/>
			<path class="st0" d="M331.9,314.5v7.4h-10.6v9.7h9.6v8.1h-9.6v12h11.2v8.4h-19.9v-45.7H331.9z"/>
			<path class="st0" d="M346.1,314.5l5.8,26.6l-0.5-6v-20.6h7.8v45.7h-9.7l-5.4-27.2l0.2,7v20.1h-7.9v-45.7H346.1z"/>
			<path class="st0" d="M362.9,314.5h20.9v7.5h-6.3v38.1h-8.4V322h-6.3V314.5z"/>
			<path class="st0" d="M390.2,314.5h12.3l6.6,45.7h-8.5l-1.5-11.5h-5.7l-1.4,11.5h-8.9L390.2,314.5z M398,341l-1.7-21.5l-1.8,21.5
				H398z"/>
			<path class="st0" d="M425.6,314.5c7.5,0.1,8.8,1.1,9,7.3v10.5c-0.1,3.4-0.9,4.6-3.8,5.8c2.8,0.8,3.5,1.6,3.6,4.6v11
				c0.1,3.2,0.5,4.9,1.6,6.6h-7.7c-2.3-0.1-2.7-0.8-2.7-6v-10.8c-0.1-2.6-0.5-2.9-3.1-3h-1.6v19.8h-9v-45.7H425.6z M423,333.3
				c2.5-0.1,3.1-0.9,3.2-3.6v-5.1c-0.2-2.1-1.4-3.1-3.5-3.1h-1.8v11.8H423z"/>
			<path class="st0" d="M446.6,314.5l4.2,14l0.8,3.5l0.6-3.6l4-13.9h8.8l-9.7,26.8v18.8h-8.8v-19.3l-9.2-26.4H446.6z"/>
		</g>
	</g>
</g>
</svg>
