<?xml version="1.0" encoding="utf-8"?>
<!-- Generator: Adobe Illustrator 21.1.0, SVG Export Plug-In . SVG Version: 6.00 Build 0)  -->
<!DOCTYPE svg PUBLIC "-//W3C//DTD SVG 1.1//EN" "http://www.w3.org/Graphics/SVG/1.1/DTD/svg11.dtd">
<svg version="1.1" id="Calque_1" xmlns="http://www.w3.org/2000/svg" xmlns:xlink="http://www.w3.org/1999/xlink" x="0px" y="0px"
	 viewBox="0 0 826.2 293.1" style="enable-background:new 0 0 826.2 293.1;" xml:space="preserve">
<style type="text/css">
	.st0{fill:#1A1A1A;}
	.st1{fill:#FFFFFF;}
	.st2{fill:none;stroke:#30AADE;stroke-width:0.5686;stroke-miterlimit:10;}
</style>
<g>
	<polygon class="st0" points="679.7,146.6 679.7,0 0,0 0,146.5 146.5,293.1 826.2,293.1 	"/>
	<path class="st1" d="M25.6,120.9V25.7h59.2v14.6h-42v25.5h33.5v15H42.8v40.1H25.6z"/>
	<path class="st1" d="M520.1,79.6c11-3.7,18.9-14.2,18.9-26.4c0-14.1-10.6-25.9-24.3-27.6h-39.9v95.3h17.5V80.8l10.7,0l21.7,40.2
		h17.6L520.1,79.6z M521.8,53.1c0,7-5.7,12.7-12.7,12.7v0l-16.8,0V40.4l16.8,0v0C516.1,40.4,521.8,46.1,521.8,53.1z"/>
	<rect x="556.2" y="25.7" class="st1" width="17.1" height="95.3"/>
	<path class="st1" d="M288.8,25.7h24.6c8.1,0,14.6,1.1,19.4,3.2c4.8,2.2,8.9,5.5,12.3,10c6.5,8.9,9.8,20.5,9.8,35
		c0,15-3.5,26.6-10.5,34.8c-7,8.1-17.9,12.2-32.8,12.2h-22.8V25.7z M311.3,106.2c8.9,0,15.5-2.7,19.9-8.2c4.4-5.5,6.5-13.5,6.5-24
		c0-22.4-8.3-33.7-24.9-33.7h-7.4v65.9H311.3z"/>
	<path class="st2" d="M179.3,120.9"/>
	<rect x="102" y="25.7" class="st1" width="17.1" height="95.3"/>
	<path class="st1" d="M136.2,120.9V25.7h59.2v14.7h-42.6v25.4h34.1v15h-34.1v25.4h42.6v14.7H136.2z"/>
	<polygon class="st1" points="230,106.2 230,25.7 212.4,25.7 212.4,120.9 271.6,120.9 271.6,106.2 	"/>
	<path class="st1" d="M416.1,120.9V40.7h-25.7v-15h68.8v15h-25.6v80.3H416.1z"/>
	<path class="st1" d="M630.3,25.6l-40,0v95.3h17.5V80.8l22.7,0c13.6-1.7,24.1-13.5,24.1-27.6C654.6,39.1,644,27.3,630.3,25.6z
		 M624.7,65.8L624.7,65.8l-16.9,0V40.4l16.9,0v0c7,0,12.7,5.7,12.7,12.7C637.4,60.1,631.7,65.8,624.7,65.8z"/>
</g>
</svg>
