<svg id="Calque_1" xmlns="http://www.w3.org/2000/svg" viewBox="0 0 82.3 71"><style>.st0{fill:#fff}</style><path class="st0" d="M24.8 9.2c4.8-3.3 10.5-5.1 16.4-5.1 4.7 0 9.3 1.2 13.4 3.3l-3 .6c-.8.2-1.3.9-1.2 1.8.1.7.8 1.2 1.5 1.2h.3L59 9.6h.4s.1 0 .1-.1c0 0 .1 0 .1-.1l.1-.1s.1 0 .1-.1l.1-.1s0-.1.1-.1v-.1-.1-.1-.1-.1-.1-.1l-1.5-6.7c-.2-.8-1-1.3-1.8-1.1-.8.2-1.3 1-1.1 1.8l.8 2.7c-4.7-2.6-9.9-3.9-15.3-3.9C34.6 1.1 28.4 3 23 6.7c-.7.5-.9 1.4-.4 2.1.6.7 1.5.8 2.2.4zM57.4 61.8c-4.8 3.3-10.5 5.1-16.4 5.1-4.7 0-9.3-1.2-13.5-3.3l3-.6c.8-.2 1.3-.9 1.2-1.8-.2-.8-.9-1.3-1.8-1.2l-6.8 1.3H23h-.1-.1s-.1 0-.1.1c0 0-.1 0-.1.1l-.1.1s-.1 0-.1.1l-.1.1-.1.1s0 .1-.1.1v.7l1.5 6.7c.2.7.8 1.2 1.5 1.2h.3c.8-.2 1.3-1 1.1-1.8l-.8-2.8c4.7 2.6 9.9 3.9 15.3 3.9 6.5 0 12.7-1.9 18.1-5.6.7-.5.9-1.4.4-2.1-.5-.7-1.5-.9-2.1-.4z"/><circle class="st0" cx="9.5" cy="35.5" r="3.4"/><path class="st0" d="M76.7 14.6h-71c-3.1 0-5.7 2.5-5.7 5.7v30.5c0 3.1 2.5 5.7 5.7 5.7h71c3.1 0 5.7-2.5 5.7-5.7V20.3c-.1-3.2-2.6-5.7-5.7-5.7zm2.5 36.1c0 1.4-1.1 2.5-2.5 2.5h-71c-1.4 0-2.5-1.1-2.5-2.5V20.3c0-1.4 1.1-2.5 2.5-2.5h71c1.4 0 2.5 1.1 2.5 2.5v30.4z"/><path class="st0" d="M74.8 30c-.8 0-1.5.7-1.5 1.5v8c0 .8.7 1.5 1.5 1.5s1.5-.7 1.5-1.5v-8c0-.8-.7-1.5-1.5-1.5z"/></svg>