<svg enable-background="new 0 0 45.3 43.9" viewBox="0 0 45.3 43.9" xmlns="http://www.w3.org/2000/svg"><g fill="#fff"><path d="m41.4 3.9v28.1h-26-1.6l-1.1 1.1-2.7 2.7v-3.8h-4-2.1v-28.1zm.6-3.9h-38.7c-1.8 0-3.3 1.5-3.3 3.3v29.3c0 1.8 1.5 3.3 3.3 3.3h2.7v7c0 .6.5 1 1 1 .2 0 .5-.1.7-.3l7.7-7.7h26.6c1.8 0 3.3-1.5 3.3-3.3v-29.3c0-1.8-1.5-3.3-3.3-3.3z"/><path d="m13.3 14.9c-1.7 0-3.1 1.4-3.1 3.1s1.4 3.1 3.1 3.1 3.1-1.4 3.1-3.1-1.4-3.1-3.1-3.1z"/><path d="m22.7 14.9c-1.7 0-3.1 1.4-3.1 3.1s1.4 3.1 3.1 3.1 3.1-1.4 3.1-3.1-1.4-3.1-3.1-3.1z"/><path d="m32 14.9c-1.7 0-3.1 1.4-3.1 3.1s1.4 3.1 3.1 3.1 3.1-1.4 3.1-3.1-1.3-3.1-3.1-3.1z"/></g></svg>