<svg id="Calque_1" xmlns="http://www.w3.org/2000/svg" viewBox="0 0 245.2 105.8"><style>.st0{fill:#fff}</style><path class="st0" d="M11.1 75.4H9.8c-.2 0-.3-.1-.3-.3v-4.8c0-2.2.1-4.2.2-5.3h-.1c-.1.4-.4 1.1-.6 1.6l-2.7 6.5c-.1.1-.1.2-.2.2h-.8c-.1 0-.2-.1-.2-.2l-2.9-6.5c-.2-.4-.4-1.2-.5-1.6h-.1c.2 1.2.2 3.1.2 5.3v4.8c0 .2 0 .3-.2.3H.3c-.2 0-.3-.1-.3-.3v-14c0-.2.1-.3.3-.3h1.2c.1 0 .2.1.2.2l3.6 8.5c.1.2.3.7.3.9h.1c.1-.2.3-.8.4-.9L9.7 61c.1-.1.1-.2.2-.2h1.2c.2 0 .3.1.3.3v14.1c-.1.1-.1.2-.3.2zM22.9 70.5H17c-.2 0-.3.1-.3.3v1.1c0 1.2 1 2.2 2.2 2.2.8 0 1.6-.4 2-1.3.1-.1.2-.2.3-.1l1.2.6c.2.1.2.2.1.3-.2.4-.4.7-.8 1.1-.6.6-1.5 1.1-2.9 1.1-2.5 0-4.1-1.6-4.1-3.8v-3.1c0-2.2 1.6-3.8 4.1-3.8 2.5 0 4.1 1.6 4.1 3.8v1.5c.2 0 .1.1 0 .1zm-1.6-1.9c0-1.2-1-2.1-2.2-2.1-1.4 0-2.2 1-2.2 2.2v.3c0 .1.1.2.3.2h4.1c.2 0 .3-.1.3-.3v-.3h-.3zM33.6 75.4h-1.1c-.2 0-.3-.1-.3-.3v-.6c0-.3-.3-.4-.4-.2-.7.7-1.5 1.1-2.1 1.1-2.5 0-4.1-1.6-4.1-3.8V69c0-2.2 1.7-3.8 3.8-3.8.7 0 1.5.3 2.1 1 .2.2.4.1.4-.2v-4.9c0-.2.1-.3.3-.3h1.3c.2 0 .3.1.3.3v14.1c.1.1 0 .2-.2.2zM32.1 69c0-1.2-1-2.2-2.2-2.2-1.2 0-2.2 1-2.2 2.2v2.6c0 1.2 1 2.2 2.2 2.2 1.2 0 2.2-1 2.2-2.2V69zM38.5 62.9c-.6 0-1.2-.5-1.2-1.2 0-.6.5-1.2 1.2-1.2.6 0 1.2.4 1.2 1.2-.1.7-.5 1.2-1.2 1.2zm.7 12.5h-1.3c-.2 0-.3-.1-.3-.3v-9.8c0-.2.1-.3.3-.3h1.3c.2 0 .3.1.3.3v9.8c-.1.2-.1.3-.3.3zM50.7 70.5h-5.9c-.2 0-.3.1-.3.3v1.1c0 1.2 1 2.2 2.2 2.2.8 0 1.6-.4 2-1.3.1-.1.2-.2.3-.1l1.2.6c.2.1.2.2.1.3-.2.4-.4.7-.8 1.1-.6.6-1.5 1.1-2.9 1.1-2.5 0-4.1-1.6-4.1-3.8v-3.1c0-2.2 1.6-3.8 4.1-3.8 2.5 0 4.1 1.6 4.1 3.8v1.5c.3 0 .2.1 0 .1zm-1.6-1.9c0-1.2-1-2.1-2.2-2.1-1.4 0-2.2 1-2.2 2.2v.3c0 .1.1.2.3.2h4c.2 0 .3-.1.3-.3v-.3h-.2zM62.3 75.4H61c-.2 0-.3-.1-.3-.3V69c0-1.2-1.1-2.2-2.3-2.2-1.2 0-2.2 1-2.2 2.2v6.2c0 .2-.1.3-.3.3h-1.3c-.2 0-.3-.1-.3-.3v-9.8c0-.2.1-.3.3-.3h1.2c.2 0 .3.1.3.3v.6c0 .3.3.4.4.2.6-.7 1.4-1 2.1-1 2.5 0 4.1 1.6 4.1 3.8v6.2c-.2.1-.2.2-.4.2zM67 62.9c-.6 0-1.2-.5-1.2-1.2 0-.6.5-1.2 1.2-1.2.6 0 1.2.4 1.2 1.2 0 .7-.5 1.2-1.2 1.2zm.7 12.5h-1.3c-.2 0-.3-.1-.3-.3v-9.8c0-.2.1-.3.3-.3h1.3c.2 0 .3.1.3.3v9.8c0 .2-.1.3-.3.3zM79.7 75.4h-1.3c-.2 0-.3-.1-.3-.3V69c0-1.2-1.1-2.2-2.3-2.2s-2.2 1-2.2 2.2v6.2c0 .2-.1.3-.3.3H72c-.2 0-.3-.1-.3-.3v-9.8c0-.2.1-.3.3-.3h1.2c.2 0 .3.1.3.3v.6c0 .3.3.4.4.2.6-.7 1.4-1 2.1-1 2.5 0 4.1 1.6 4.1 3.8v6.2c-.2.1-.3.2-.4.2zM91.5 75.4h-1.3c-.2 0-.3-.1-.3-.3V69c0-1.2-1.1-2.2-2.3-2.2s-2.2 1-2.2 2.2v6.2c0 .2-.1.3-.3.3h-1.3c-.2 0-.3-.1-.3-.3v-9.8c0-.2.1-.3.3-.3H85c.2 0 .3.1.3.3v.6c0 .3.3.4.4.2.6-.7 1.4-1 2.1-1 2.5 0 4.1 1.6 4.1 3.8v6.2c-.2.1-.2.2-.4.2zM99 75.6c-2.5 0-4.1-1.6-4.1-3.8v-3.1c0-2.2 1.6-3.8 4.1-3.8s4.1 1.6 4.1 3.8v3.1c0 2.2-1.6 3.8-4.1 3.8zm2.3-7c0-1.2-1-2.1-2.2-2.1-1.4 0-2.2 1-2.2 2.2v3.2c0 1.2 1 2.1 2.2 2.1 1.4 0 2.2-1 2.2-2.2v-3.2zM110.6 75.3c-.1.1-.1.2-.2.2h-1.1c-.1 0-.2-.1-.2-.2l-4-9.8c-.1-.2 0-.4.2-.4h1.4c.1 0 .2.1.2.2l2.6 6.6c.1.1.3.7.3.9h.1c0-.2.2-.8.3-.9l2.6-6.6c.1-.1.1-.2.2-.2h1.4c.2 0 .3.1.2.4l-4 9.8zM124 75.4h-1.1c-.2 0-.3-.1-.3-.3v-.6c0-.3-.3-.4-.4-.2-.7.7-1.5 1.1-2 1.1h-.9c-1.7 0-3-1.1-3-2.7v-.2c0-1.7 1.3-2.7 3-2.7h2.8c.2 0 .3-.1.3-.3v-.8c0-1.2-1-2.2-2.3-2.2-.8 0-1.5.4-2 1.2-.1.1-.2.2-.4.1l-1.2-.6c-.2-.1-.2-.2-.1-.4.3-.4.5-.8 1-1.1.6-.5 1.5-.9 2.7-.9 2.5 0 4.1 1.5 4.1 3.8v6.5c.1.2 0 .3-.2.3zm-1.6-4.1c0-.2-.1-.3-.3-.3h-2.8c-.7 0-1.2.5-1.2 1.2v.4c0 .6.5 1.2 1.2 1.2h.9c1 0 1.9-.9 2.1-1.9l.1-.6zM131.8 75.6c-1-.1-1.7-.4-2.3-.9-.9-.7-1.3-1.7-1.3-2.9v-4.9c0-.2-.1-.3-.3-.3h-1.3c-.2 0-.3-.1-.3-.3v-.6L129 63s.1-.1.2-.1h.5c.2 0 .3.1.3.3v1.7c0 .2.1.3.3.3h1.6c.2 0 .3.1.3.3v1.1c0 .2-.1.3-.3.3h-1.6c-.2 0-.3.1-.3.3V72c0 1.1.7 2 2 2.2.1 0 .2.1.2.3v1.1c-.1-.1-.2 0-.4 0zM136.1 62.9c-.6 0-1.2-.5-1.2-1.2 0-.6.5-1.2 1.2-1.2s1.2.4 1.2 1.2c-.1.7-.5 1.2-1.2 1.2zm.7 12.5h-1.3c-.2 0-.3-.1-.3-.3v-9.8c0-.2.1-.3.3-.3h1.3c.2 0 .3.1.3.3v9.8c-.1.2-.2.3-.3.3zM144.5 75.6c-2.5 0-4.1-1.6-4.1-3.8v-3.1c0-2.2 1.6-3.8 4.1-3.8s4.1 1.6 4.1 3.8v3.1c0 2.2-1.6 3.8-4.1 3.8zm2.3-7c0-1.2-1-2.1-2.2-2.1-1.4 0-2.2 1-2.2 2.2v3.2c0 1.2 1 2.1 2.2 2.1 1.4 0 2.2-1 2.2-2.2v-3.2zM159.5 75.4h-1.3c-.2 0-.3-.1-.3-.3V69c0-1.2-1.1-2.2-2.3-2.2s-2.2 1-2.2 2.2v6.2c0 .2-.1.3-.3.3h-1.3c-.2 0-.3-.1-.3-.3v-9.8c0-.2.1-.3.3-.3h1.2c.2 0 .3.1.3.3v.6c0 .3.3.4.4.2.6-.7 1.4-1 2.1-1 2.5 0 4.1 1.6 4.1 3.8v6.2c-.3.1-.3.2-.4.2zM167 75.6h-.7c-1.3 0-2.1-.4-2.7-.9-.4-.4-.7-.7-.9-1.2-.1-.2 0-.3.1-.3l1.1-.5c.2-.1.3 0 .3.1.4.8 1.2 1.3 2.1 1.3h.7c1.3 0 2-.7 2-1.6 0-1.2-1.5-1.3-3.1-1.6-1.5-.3-3.2-1-3.2-2.9 0-2.1 1.6-3.1 3.6-3.1h.7c1.2 0 2 .4 2.7.8.4.4.7.8 1 1.2.1.2 0 .3-.1.4l-1.1.5c-.1.1-.3 0-.3-.1-.4-.8-1.2-1.2-2.1-1.2h-.7c-1.3 0-1.9.6-1.9 1.4 0 1.2 1.5 1.4 3.1 1.7 1.8.4 3.2 1 3.2 2.8-.1 1.7-1.3 3.2-3.8 3.2zM180.9 75.4h-7.8c-.3 0-.4-.2-.2-.4l4.8-8c.1-.2 0-.4-.2-.4h-4.3c-.2 0-.3-.1-.3-.3v-1.1c0-.2.1-.3.3-.3h7.3c.3 0 .4.2.2.4l-4.8 8c-.1.2 0 .4.2.4h4.8c.2 0 .3.1.3.3v1.2c0 .1-.1.2-.3.2zM191.6 70.5h-5.9c-.2 0-.3.1-.3.3v1.1c0 1.2 1 2.2 2.2 2.2.8 0 1.6-.4 2-1.3.1-.1.2-.2.3-.1l1.2.6c.2.1.2.2.1.3-.2.4-.4.7-.8 1.1-.6.6-1.5 1.1-2.9 1.1-2.5 0-4.1-1.6-4.1-3.8v-3.1c0-2.2 1.6-3.8 4.1-3.8s4.1 1.6 4.1 3.8v1.5c.2 0 .1.1 0 .1zm-1.6-1.9c0-1.2-1-2.1-2.2-2.1-1.4 0-2.2 1-2.2 2.2v.3c0 .1.1.2.3.2h4.1c.2 0 .3-.1.3-.3v-.3h-.3zM202.6 75.4h-1.3c-.2 0-.3-.1-.3-.3V69c0-1.2-1.1-2.2-2.3-2.2s-2.2 1-2.2 2.2v6.2c0 .2-.1.3-.3.3h-1.3c-.2 0-.3-.1-.3-.3v-9.8c0-.2.1-.3.3-.3h1.2c.2 0 .3.1.3.3v.6c0 .3.3.4.4.2.6-.7 1.4-1 2.1-1 2.5 0 4.1 1.6 4.1 3.8v6.2c-.1.1-.2.2-.4.2zM210.4 75.6c-1-.1-1.7-.4-2.3-.9-.9-.7-1.3-1.7-1.3-2.9v-4.9c0-.2-.1-.3-.3-.3h-1.3c-.2 0-.3-.1-.3-.3v-.6l2.7-2.7s.1-.1.2-.1h.5c.2 0 .3.1.3.3v1.7c0 .2.1.3.3.3h1.6c.2 0 .3.1.3.3v1.1c0 .2-.1.3-.3.3h-1.6c-.2 0-.3.1-.3.3V72c0 1.1.7 2 2 2.2.1 0 .2.1.2.3v1.1c-.1-.1-.2 0-.4 0zM218.3 67c-.1-.1-.3-.1-.4-.1-1.2 0-2.2.9-2.2 2.2v6c0 .2-.1.3-.3.3h-1.3c-.2 0-.3-.1-.3-.3v-9.8c0-.2.1-.3.3-.3h1.2c.2 0 .3.1.3.3v1c0 .3.3.4.4.2.6-.9 1.4-1.3 2.1-1.3h.5c.2 0 .2.1.2.3v1.4c-.2.1-.3.2-.5.1zM228.6 75.4h-1.1c-.2 0-.3-.1-.3-.3v-.6c0-.3-.3-.4-.4-.2-.6.7-1.4 1.1-2.1 1.1-2.5 0-4.1-1.6-4.1-3.8v-6.2c0-.2.1-.3.3-.3h1.3c.2 0 .3.1.3.3v6.2c0 1.2 1 2.2 2.2 2.2 1.2 0 2.3-1 2.3-2.2v-6.2c0-.2.1-.3.3-.3h1.3c.2 0 .3.1.3.3v9.8c0 .1-.1.2-.3.2zM245 75.4h-1.3c-.2 0-.3-.1-.3-.3V69c0-1.2-1.1-2.2-2-2.2-.9 0-2 1-2 2.2v6.2c0 .2-.1.3-.3.3h-1.3c-.2 0-.3-.1-.3-.3V69c0-1.2-1.1-2.2-2-2.2-.9 0-2 1-2 2.2v6.2c0 .2-.1.3-.3.3h-1.3c-.2 0-.3-.1-.3-.3v-9.8c0-.2.1-.3.3-.3h1.2c.2 0 .3.1.3.3v.6c0 .3.2.4.4.2.6-.7 1.4-1 2.1-1 .8 0 1.9.4 2.6 1.2.1.2.3.2.4 0 .7-.8 1.7-1.2 2.7-1.2 2.2 0 3.8 1.6 3.8 3.8v6.2c-.1.1-.2.2-.4.2zM4.8 100.7H.3c-.2 0-.3-.1-.3-.3V86.3c0-.2.1-.3.3-.3h4.5c2.5 0 4.1 1.6 4.1 4.1v.3c0 .9-.7 2.1-1.6 2.7-.2.1-.2.3 0 .4.8.4 1.6 1.6 1.6 2.7v.4c0 2.5-1.6 4.1-4.1 4.1zM7.1 90c0-1.2-1-2.2-2.3-2.2H2c-.2 0-.3.1-.3.2v4.3c0 .2.1.3.3.3h2.7c1.2 0 2.3-1 2.3-2.3V90zm0 6.4c0-1.2-1-2.2-2.3-2.2H2c-.2 0-.3.1-.3.3V99c0 .2.1.3.3.3h2.7c1.2 0 2.3-1 2.3-2.2v-.7zM19.3 100.7h-1.1c-.2 0-.3-.1-.3-.3v-.6c0-.3-.3-.4-.4-.2-.7.7-1.5 1.1-2 1.1h-.9c-1.7 0-3-1.1-3-2.7v-.2c0-1.7 1.3-2.7 3-2.7h2.8c.2 0 .3-.1.3-.3V94c0-1.2-1-2.2-2.3-2.2-.8 0-1.5.4-2 1.2-.1.1-.2.2-.4.1l-1.2-.6c-.2-.1-.2-.2-.1-.4.3-.4.5-.8 1-1.1.6-.5 1.5-.9 2.7-.9 2.5 0 4.1 1.5 4.1 3.8v6.5c.1.2 0 .3-.2.3zm-1.6-4.2c0-.2-.1-.3-.3-.3h-2.8c-.7 0-1.2.5-1.2 1.2v.4c0 .6.5 1.2 1.2 1.2h.9c1 0 1.9-.9 2.1-1.9l.1-.6zM26.8 100.7c-.5 0-1.4-.3-2.1-1-.2-.2-.4-.1-.4.2v.6c0 .2-.1.3-.3.3h-1.2c-.2 0-.3-.1-.3-.3V86.3c0-.2.1-.3.3-.3h1.3c.2 0 .3.1.3.3v4.8c0 .3.3.4.4.2.6-.7 1.4-1 2.1-1 2.1 0 3.9 1.6 3.9 3.8v2.6c.1 2.4-1.5 4-4 4zm2.3-6.5c0-1.2-1.1-2.2-2.3-2.2-1.2 0-2.2 1-2.2 2.2v2.6c0 1.2 1 2.2 2.2 2.2 1.2 0 2.3-1 2.3-2.2v-2.6zM41.9 95.7H36c-.2 0-.3.1-.3.3v1.1c0 1.2 1 2.2 2.2 2.2.8 0 1.6-.4 2-1.3.1-.1.2-.2.3-.1l1.2.6c.2.1.2.2.1.3-.2.4-.4.7-.8 1.1-.6.6-1.5 1.1-2.9 1.1-2.5 0-4.1-1.6-4.1-3.8V94c0-2.2 1.6-3.8 4.1-3.8 2.5 0 4.1 1.6 4.1 3.8v1.5c.2.1.1.2 0 .2zm-1.6-1.8c0-1.2-1-2.1-2.2-2.1-1.4 0-2.2 1-2.2 2.2v.3c0 .1.1.2.3.2h4.1c.2 0 .3-.1.3-.3v-.3h-.3zM46.6 100.7h-1.3c-.2 0-.3-.1-.3-.3V86.3c0-.2.1-.3.3-.3h1.3c.2 0 .3.1.3.3v14.1c0 .2-.1.3-.3.3zM54.3 100.9h-.7c-1.3 0-2.1-.4-2.7-.9-.4-.4-.7-.7-.9-1.2-.1-.2 0-.3.1-.3l1.1-.5c.2-.1.3 0 .3.1.4.8 1.2 1.3 2.1 1.3h.7c1.3 0 2-.7 2-1.6 0-1.2-1.5-1.3-3.1-1.6-1.5-.3-3.2-1-3.2-2.9 0-2.1 1.6-3.1 3.6-3.1h.7c1.2 0 2 .4 2.7.8.4.4.7.8 1 1.2.1.2 0 .3-.1.4l-1.1.5c-.1.1-.3 0-.3-.1-.4-.8-1.2-1.2-2.1-1.2h-.7c-1.3 0-1.9.6-1.9 1.4 0 1.2 1.5 1.4 3.1 1.7 1.8.4 3.2 1 3.2 2.8 0 1.7-1.3 3.2-3.8 3.2zM65.2 100.7c-.5 0-1.4-.3-2.1-1-.2-.2-.4-.1-.4.2v.6c0 .2-.1.3-.3.3h-1.2c-.2 0-.3-.1-.3-.3V86.3c0-.2.1-.3.3-.3h1.3c.2 0 .3.1.3.3v4.8c0 .3.3.4.4.2.6-.7 1.4-1 2.1-1 2.1 0 3.9 1.6 3.9 3.8v2.6c.1 2.4-1.5 4-4 4zm2.3-6.5c0-1.2-1.1-2.2-2.3-2.2-1.2 0-2.2 1-2.2 2.2v2.6c0 1.2 1 2.2 2.2 2.2 1.2 0 2.3-1 2.3-2.2v-2.6zM80.3 95.7h-5.9c-.2 0-.3.1-.3.3v1.1c0 1.2 1 2.2 2.2 2.2.8 0 1.6-.4 2-1.3.1-.1.2-.2.3-.1l1.2.6c.2.1.2.2.1.3-.2.4-.4.7-.8 1.1-.6.6-1.5 1.1-2.9 1.1-2.5 0-4.1-1.6-4.1-3.8V94c0-2.2 1.6-3.8 4.1-3.8 2.5 0 4.1 1.6 4.1 3.8v1.5c.3.1.2.2 0 .2zm-1.6-1.8c0-1.2-1-2.1-2.2-2.1-1.4 0-2.2 1-2.2 2.2v.3c0 .1.1.2.3.2h4.1c.2 0 .3-.1.3-.3v-.3h-.3zM88 92.3c-.1-.1-.3-.1-.4-.1-1.2 0-2.2.9-2.2 2.2v6c0 .2-.1.3-.3.3h-1.3c-.2 0-.3-.1-.3-.3v-9.8c0-.2.1-.3.3-.3H85c.2 0 .3.1.3.3v1c0 .3.3.4.4.2.6-.9 1.4-1.3 2.1-1.3h.5c.2 0 .2.1.2.3v1.4c-.2.1-.3.2-.5.1zM96 105.8h-3.2c-1.7 0-3-1.1-3-2.7v-.2c0-.9.5-1.6 1.3-2.1.1-.1.2-.2.1-.3-.3-.4-.4-.8-.4-1.2 0-.5.2-1 .4-1.4.1-.1.1-.3-.1-.4-1-.8-1.5-1.8-1.5-3v-.3c0-2.2 1.8-3.8 4.1-3.8.6 0 1.4.3 2.1 1 .2.2.4.1.4-.2v-.6c0-.2.1-.3.3-.3h1.1c.2 0 .3.1.3.3v3.8c0 2.2-1.8 3.8-4.1 3.8-.2 0-.5 0-.7-.1-.4.2-.7.5-.7 1 0 .4.3.9.7 1H96c1.7 0 3 1.1 3 2.7v.2c0 1.8-1.3 2.8-3 2.8zm.2-11.6c0-1.2-1-2.2-2.2-2.2s-2.2 1-2.2 2.2v.3c0 1.2 1 2.2 2.2 2.2s2.2-1 2.2-2.2v-.3zm1 8.7c0-.6-.5-1.2-1.2-1.2h-3.2c-.6 0-1.2.4-1.2 1.2v.2c0 .7.5 1.2 1.2 1.2H96c.7 0 1.2-.5 1.2-1.2v-.2z"/><g><path class="st0" d="M75.3 50.3H65c-.8 0-1.1-.4-1.1-1.1v-48c0-.8.4-1.1 1.1-1.1h10.4c.8 0 1.1.4 1.1 1.1v48c-.1.8-.4 1.1-1.2 1.1z"/></g><g><path class="st0" d="M130.3 3.5l-19.2 31.9c-.8 1.2-1.2 2-1.2 2.4 0 .5.4.9 1.2.9h19c.8 0 1.1.4 1.1 1.1v9.4c0 .8-.4 1.1-1.1 1.1h-41c-.8 0-1.2-.4-1.2-.9 0-.4.4-1.1 1.2-2.4l19.1-31.9c.8-1.2 1.3-2.2 1.3-2.7s-.4-.9-1.2-.9h-17c-.8 0-1.1-.4-1.1-1.1V1.1c0-.8.4-1.1 1.1-1.1h39.1c.8 0 1.2.4 1.2.9 0 .4-.6 1.4-1.3 2.6z"/></g><path class="st0" d="M49.1.1H38.4h-.2c-.3.1-.6.4-.7.6-.2.4-.5 1.2-.9 1.8l-9.2 18.8c-1.5 3-2.1 4.7-2.1 4.7H25s-.6-1.7-2.1-4.7L13.5 2.2c-.3-.6-.7-1.3-.8-1.7-.2-.2-.6-.5-1.1-.5H.8C.3.2 0 .5 0 1.2v48c0 .8.4 1.1 1.1 1.1h10.4c.8 0 1.1-.4 1.1-1.1v-2c0-12-.2-21.3-.2-21.3h.3c1.7 4.8 2.8 5.5 5.4 11.2l.2.4c.3.5.9 1 1.5 1.1.1 0 .2.1.3.1h10.2c.1 0 .2 0 .3-.1.6-.1 1.2-.5 1.5-1.1l.2-.4c2.6-5.7 3.7-6.5 5.4-11.3h.3s-.2 9.2-.2 21.3v2c0 .8.4 1.1 1.1 1.1H49c.8 0 1.1-.4 1.1-1.1v-48c.2-.7-.2-1-1-1z"/></svg>