<?xml version="1.0" encoding="utf-8"?>
<!-- Generator: Adobe Illustrator 23.0.3, SVG Export Plug-In . SVG Version: 6.00 Build 0)  -->
<svg version="1.1" id="Calque_1" xmlns="http://www.w3.org/2000/svg" xmlns:xlink="http://www.w3.org/1999/xlink" x="0px" y="0px"
	 viewBox="0 0 1490.2 311.8" style="enable-background:new 0 0 1490.2 311.8;" xml:space="preserve">
<style type="text/css">
	.st0{fill:#FFFFFF;}
</style>
<g>
	<path class="st0" d="M774.1,17.7c12.6-1,12.6-1,16.8,10.3c6,16,11.9,32.1,18.4,49.5c7.7-20.8,15-40.3,22.2-59.9c4.2,0,8.2,0,12.6,0
		c0,24.5,0,48.9,0,73.5c-2.6,0-5.2,0-8.4,0c0-19.6,0-39.1,0-58.6c-0.4-0.1-0.7-0.1-1.1-0.2c-1.4,3.5-2.7,6.9-4,10.4
		c-5.5,14.6-11,29.3-16.3,44c-1,2.8-2.3,3.8-5.4,3.8c-3,0-3.9-1.3-4.8-3.8C798,70,791.7,53.4,785.5,36.7c-0.7-1.8-1.4-3.5-2.9-5.2
		c0,19.7,0,39.4,0,59.5c-2.9,0-5.5,0-8.5,0C774.1,66.8,774.1,42.4,774.1,17.7z"/>
	<path class="st0" d="M1137.3,310c-0.9,0.2-1.3,0.4-1.8,0.4c-8,0.4-8,0.4-10.2-7.4c-4.7-16.6-9.4-33.2-15.3-50
		c-5.5,19-10.9,38-16.5,57.2c-3.2,0-6.3,0-9.9,0c-4.9-24.3-9.7-48.7-14.7-73.4c2.9,0,5.4,0,8.6,0c3.7,19.1,7.5,38.4,11.6,59.2
		c1.1-3,1.7-4.6,2.2-6.2c4.4-15.2,8.7-30.4,13.1-45.6c2-7.1,2-7.1,10.3-6.3c5.4,18.6,10.8,37.4,16.3,56.2c0.4,0,0.8,0,1.2,0
		c3.8-19.1,7.5-38.2,11.3-57.3c2.8,0,5.3,0,8.4,0C1146.9,261.2,1142.1,285.4,1137.3,310z"/>
	<path class="st0" d="M1064.7,163.2c9.6,6.4,12.9,13.8,10.7,22.7c-2,8.2-10.3,14.8-20.7,15.3c-10.8,0.5-21.6,0.1-32.8,0.1
		c0-24.5,0-48.9,0-73.5c11.3,0,22.6-0.5,33.9,0.2c8.3,0.5,15.2,4.8,17.4,13.4C1075.4,150.2,1073.1,157.8,1064.7,163.2z
		 M1030.9,167.4c0,8.5,0,16.8,0,25.1c8.4,0,16.6,0.6,24.6-0.2c9.8-0.9,14.8-12.1,8.4-19.2c-2.7-3-7.5-4.9-11.6-5.5
		C1045.4,166.8,1038.3,167.4,1030.9,167.4z M1030.6,159.3c8,0,15.6,0.3,23.2-0.1c6.5-0.3,10.2-4.4,10.6-10.4
		c0.5-6.3-2.7-11.7-9-12.3c-8.1-0.8-16.4-0.2-24.8-0.2C1030.6,143.8,1030.6,151.2,1030.6,159.3z"/>
	<path class="st0" d="M762.9,127.5c10.9,0,21.4-0.4,31.8,0.1c14,0.7,22.4,10.4,19.6,23.1c-1,4.6-4.6,8.7-7.1,13.4
		c4,2.4,8.2,6.5,9.4,12.8c2.4,12.8-6.7,23.5-21.3,24.3c-10.6,0.5-21.3,0.1-32.3,0.1C762.9,176.8,762.9,152.4,762.9,127.5z
		 M771.7,192.8c2,0.1,3.5,0.2,4.9,0.2c6.2-0.1,12.3,0.1,18.5-0.3c7.7-0.6,12.2-5.1,12.4-11.8c0.2-6.8-4.4-12.5-11.8-13.1
		c-7.9-0.6-15.9-0.1-24-0.1C771.7,176.1,771.7,184.2,771.7,192.8z M771.6,159.4c8,0,15.4,0.2,22.9-0.1c6.3-0.3,10.1-3.9,10.9-9.6
		c0.8-6-2-12-7.7-12.8c-8.5-1.3-17.3-1.2-26.1-1.6C771.6,143.9,771.6,151.3,771.6,159.4z"/>
	<path class="st0" d="M625.8,201.4c0-24.7,0-49,0-73.2c12,0,23.9-0.6,35.7,0.2c8,0.5,14.1,5.5,15.8,13.8c1.8,8.5-0.5,15.8-8.6,20.9
		c0.7,0.6,1.3,1.1,1.9,1.5c13.1,8.5,12.2,26.9-1.9,33.7c-3.5,1.7-7.6,2.8-11.5,2.9C647,201.6,636.7,201.4,625.8,201.4z M634.7,192.7
		c8,0,15.8,0.3,23.5-0.1c7.7-0.4,12.1-5.1,12.3-11.8c0.2-6.6-4.1-12.3-11.4-12.9c-8-0.7-16.2-0.2-24.4-0.2
		C634.7,176.1,634.7,184.2,634.7,192.7z M634.6,159.3c8.1,0,15.7,0.3,23.3-0.1c6.4-0.3,10.1-4.5,10.5-10.5
		c0.4-6.1-2.7-11.5-8.7-12.1c-8.3-0.8-16.7-0.2-25.2-0.2C634.6,143.8,634.6,151.3,634.6,159.3z"/>
	<path class="st0" d="M937,18c9.4-1.4,9.4-1.4,14,6.2c9.6,15.8,19.3,31.5,29,47.3c0.8,1.4,1.8,2.7,3.3,5.1c0-20.2,0-39.3,0-58.6
		c3,0,5.6,0,8.5,0c0,24.3,0,48.6,0,73c-9.1,1.7-9.3,1.6-13.9-6c-9.7-15.7-19.4-31.5-29-47.2c-0.8-1.4-1.8-2.7-3.4-5.1
		c0,20.3,0,39.3,0,58.6c-3,0-5.6,0-8.5,0C937,66.7,937,42.3,937,18z"/>
	<path class="st0" d="M817.9,309.9c-7,2.1-10.9-0.3-14.3-6.3c-9.1-15.9-19-31.3-28.6-46.9c-0.8-1.4-1.8-2.7-3.3-5.1
		c0,20.2,0,39.3,0,58.6c-3,0-5.6,0-8.6,0c0-24.4,0-48.8,0-73.1c9.4-1.5,9.4-1.5,14,6.1c9.6,15.8,19.3,31.5,29,47.3
		c0.8,1.4,1.8,2.7,3.3,5.1c0-20.2,0-39.2,0-58.6c3,0,5.6,0,8.6,0C817.9,261.1,817.9,285.4,817.9,309.9z"/>
	<path class="st0" d="M1277.3,148.8c-5,0.8-8.8,1.3-10.9-5c-2.1-6.2-8.2-8.2-14.7-8.5c-7.4-0.3-14,2.2-17.2,8.9
		c-6.3,13.5-6.3,27.6,0.2,41c3.4,7,10.3,9,17.9,8.3c7.2-0.6,12.8-3.9,15.3-10.9c1.3-3.7,1.8-7.6,2.8-12.1c-7.1,0-13.4,0-20,0
		c0-3,0-5.6,0-8.5c9,0,18,0,27.3,0c0,13,0,25.9,0,39.1c-1.9,0-3.8,0-5.9,0c-0.6-2.5-1.1-4.9-1.7-7.8c-2,1.7-3.7,3.2-5.5,4.5
		c-13.3,9.3-33.6,4.3-39.9-10.7c-6.3-14.8-6.4-30.5,0.1-45.2c7.5-17,32-20.9,45.5-8C1275.2,138.1,1277.3,142.8,1277.3,148.8z"/>
	<path class="st0" d="M878.4,278c4.8,10.8,9.4,21.2,14.1,31.8c-9.3,1.7-9.3,1.7-12.9-6.2c-3.1-7-6.1-14.1-9.5-20.9
		c-0.7-1.5-3-2.9-4.7-3.1c-5.4-0.4-10.9-0.1-16.8-0.1c0,10.3,0,20.3,0,30.6c-3.1,0-5.8,0-8.9,0c0-24.2,0-48.6,0-73.1
		c11.5,0,23-0.8,34.4,0.2c10.5,0.9,16.9,8.1,18.2,17.6c1.3,9.9-2.8,17.4-12.4,22.2C879.5,277.2,879.1,277.5,878.4,278z M848.7,270.3
		c8.2,0,16.2,0.5,24.1-0.1c6.5-0.5,10.1-5.4,10.1-12.1c0.1-6.8-3.3-11.9-9.7-12.5c-8.1-0.7-16.2-0.2-24.5-0.2
		C848.7,253.7,848.7,261.9,848.7,270.3z"/>
	<path class="st0" d="M1170.8,17.6c10.9,0,21.4-0.4,31.9,0.1c8.5,0.4,15.5,4,19,12.3c3.2,7.8,2.8,15.5-2.7,22.1
		c-2.4,2.8-5.9,4.7-9.3,7.4c4.5,10.1,9.2,20.6,13.9,31.3c-9.2,1.8-9.3,1.7-12.8-6.2c-3.1-7-6.1-14.1-9.5-20.9c-0.7-1.5-3-3-4.7-3.1
		c-5.4-0.4-10.9-0.1-16.9-0.1c0,10.4,0,20.5,0,30.8c-3.2,0-5.8,0-8.8,0C1170.8,66.8,1170.8,42.4,1170.8,17.6z M1179.8,51.4
		c8,0,15.8,0.4,23.6-0.1c6.8-0.5,10.5-5.3,10.6-12.2c0.1-6.8-3.4-11.9-9.7-12.4c-8.1-0.6-16.2-0.2-24.5-0.2
		C1179.8,34.7,1179.8,42.9,1179.8,51.4z"/>
	<path class="st0" d="M1209.5,200.9c-9.5,1.2-9.5,1.2-13-6.6c-3.1-6.8-6.2-13.6-9.1-20.5c-1-2.4-2.3-3.6-5.2-3.5
		c-5.3,0.3-10.6,0.1-16.5,0.1c0,10.2,0,20.3,0,30.7c-3.3,0-6,0-9,0c0-24.3,0-48.6,0-73.6c5.5,0,11.1-0.1,16.7,0
		c6.3,0.1,12.7-0.1,18.9,0.9c9.8,1.5,15.9,8.3,17.1,17.6c1.2,9.8-2.9,17.3-12.1,21.9c-0.4,0.2-0.9,0.5-1.9,1.1
		C1200,179.5,1204.8,190.2,1209.5,200.9z M1165.8,136.3c0,8.5,0,16.7,0,25.2c7.8,0,15.3,0.3,22.7-0.1c7.2-0.4,11.2-5,11.4-12
		c0.2-7.4-3.6-12.5-10.9-12.9C1181.5,135.9,1173.8,136.3,1165.8,136.3z"/>
	<path class="st0" d="M978.5,310.4c0-24.9,0-49,0-74.6c11.7,0.7,23.3,0.5,34.6,2.4c9.3,1.6,14.9,9.1,17.4,18.2
		c3,11.1,3,22.4,0.1,33.6c-3.4,12.8-13,20.2-26.2,20.4C995.8,310.5,987.4,310.4,978.5,310.4z M987.7,245.4c0,18.9,0,37.5,0,56.4
		c6,0,11.8,0.3,17.6-0.1c8.4-0.5,14-5.1,16.2-13.2c2.7-10,2.7-20.1,0-30.1c-1.8-7-6.3-12.1-13.6-12.9
		C1001.4,244.8,994.7,245.4,987.7,245.4z"/>
	<path class="st0" d="M1243.2,68.1c0.3,0.7,0.6,1.4,0.9,2.2c3.8,12.9,21.5,18.4,32,9.9c7.2-5.8,5.5-16.6-3.4-19.5
		c-5.6-1.8-11.7-2.3-17.6-3.3c-9.6-1.7-16.1-7.3-17.6-14.8c-1.7-8.9,1.9-17.3,10.2-22c3.1-1.8,6.7-3,10.2-3.7
		c13.3-2.5,26.2,4.6,29.8,16.1c0.6,1.8,0.7,3.8,1.1,6.1c-3.3,0-6.1,0-8.9,0c-3.7-12.1-9.8-15.1-21.7-13.5c-2.9,0.4-6.1,2.2-8.2,4.2
		c-6.3,6.1-4.1,15.3,4.4,17.6c5.4,1.5,11.1,2,16.7,3c11.7,2.1,18.7,9.3,19.2,19.6c0.5,9.6-6.4,18.1-17.3,21
		c-8.3,2.2-16.5,1.9-24.4-1.5c-8.8-3.9-14.4-12.5-13.7-21.4C1237.5,68.1,1240.3,68.1,1243.2,68.1z"/>
	<path class="st0" d="M1004.9,149.1c-3.5,0-6.2,0-9,0c-0.3-0.5-0.7-1-0.9-1.6c-3.5-11.3-14.9-16.1-25.4-10.6
		c-4.8,2.5-7.7,7.3-7,12.2c0.7,5.5,4.6,7.9,9.5,8.9c5.1,1,10.2,1.6,15.3,2.5c11.4,2,18.3,9.2,18.9,19.4c0.6,9.4-6,17.8-16.6,21
		c-8.4,2.5-16.8,2.2-24.9-1.3c-8.8-3.8-14.3-12.2-14-21c7-1.9,7.6-1.6,10.3,4.9c4.6,11.1,24.9,14.3,32.8,5.1
		c5.2-6.1,2.9-15.2-4.9-17.9c-5-1.7-10.4-2.2-15.6-3.1c-13.2-2.3-19.9-8.5-20.2-18.9c-0.3-10.7,7.7-19.4,20.1-21.9
		c13.4-2.6,26.7,4.2,30.4,15.8C1004.3,144.6,1004.4,146.6,1004.9,149.1z"/>
	<path class="st0" d="M1219.9,274.4c-0.6,4.6-0.9,10.3-2.3,15.7c-3.4,13.5-14.4,21.6-28.2,21.2c-13.4-0.3-24.6-8.9-26.6-22.5
		c-1.4-9.9-1.5-20.3-0.1-30.2c2.1-14.8,14-23.6,28.5-23.2c14.2,0.4,25.1,10.2,27.3,24.9C1219.1,264.7,1219.4,269,1219.9,274.4z
		 M1210.5,273.3c-0.7-5.2-1-10.5-2.3-15.6c-2.2-8.4-9.2-13.3-17.7-13.4c-8.7-0.1-15.5,4.6-17.9,13.1c-3.1,10.6-3.1,21.4,0,32
		c2.5,8.7,9.4,13.3,18.4,13.2c8.4-0.2,15.3-5.3,17.5-13.7C1209.5,283.8,1209.8,278.6,1210.5,273.3z"/>
	<path class="st0" d="M746.9,274.4c-0.7,4.7-1,10.4-2.3,15.8c-3.3,13.3-14.2,21.4-27.8,21.2c-13.2-0.2-24.1-8.6-27.1-21.6
		c-2.5-10.8-2.5-21.8,0-32.7c3.2-13.7,14.9-22.2,29-21.6c13.8,0.6,24.5,10.3,26.7,24.5C746.1,264.4,746.4,268.9,746.9,274.4z
		 M737.5,273.5c-0.8-5.3-1-10.7-2.4-15.8c-2.2-8.4-9.3-13.3-17.8-13.4c-8.7,0-15.5,4.6-17.9,13.1c-3.1,10.6-3.1,21.4,0,32
		c2.4,8.5,9.2,13.2,17.9,13.1c8.5,0,15.6-5,17.8-13.3C736.5,284.2,736.8,278.8,737.5,273.5z"/>
	<path class="st0" d="M636.5,274.6c9-10.5,18-21,27-31.5c6.1-7.2,6.1-7.2,17-6.4c-4,4.8-7.8,9.1-11.4,13.5
		c-4,4.9-10.5,9.5-11.1,14.8c-0.5,5,5.3,10.7,8.3,16c5.5,9.5,10.9,19,16.5,28.6c-8.9,2.1-9.9,1.7-14-5.6
		c-5.2-9.1-10.4-18.2-15.7-27.3c-0.8-1.4-1.7-2.7-2.8-4.5c-4.8,5.6-9.3,10.7-13.5,16c-0.9,1.1-1.2,3-1.2,4.6
		c-0.1,5.6-0.1,11.3-0.1,17.3c-3,0-5.7,0-8.8,0c0-24.3,0-48.6,0-73.2c2.6,0,5.4,0,8.7,0c0,12.4,0,24.9,0,37.5
		C635.8,274.4,636.1,274.5,636.5,274.6z"/>
	<path class="st0" d="M1100.7,158.6c11.6,0,22.9,0,34.5,0c0,3,0,5.5,0,8.6c-11.3,0-22.7,0-34.4,0c0,8.7,0,17,0,25.6
		c13.1,0,26,0,39.3,0c0,2.9,0,5.3,0,8.1c-15.9,0-31.9,0-48.4,0c0-24.2,0-48.6,0-73.3c16.1,0,32.2,0,48.5,0c0,2.6,0,5,0,8.1
		c-13.2,0-26.3,0-39.5,0C1100.7,143.6,1100.7,150.7,1100.7,158.6z"/>
	<path class="st0" d="M882.3,127.8c0,2.7,0,5,0,7.9c-13.2,0-26.3,0-39.6,0c0,7.9,0,15.1,0,22.8c11.5,0,22.7,0,34.4,0
		c0,3,0,5.5,0,8.6c-11.2,0-22.6,0-34.3,0c0,8.7,0,17,0,25.7c12.9,0,25.9,0,39.3,0c0,3,0,5.5,0,8.3c-16.1,0-32.2,0-48.5,0
		c0-24.5,0-48.8,0-73.4C849.8,127.8,865.8,127.8,882.3,127.8z"/>
	<path class="st0" d="M1155.2,91.2c-16.3,0-32.3,0-48.5,0c0-24.4,0-48.7,0-73.4c15.9,0,32,0,48.4,0c0,2.4,0,4.9,0,8
		c-13.1,0-26,0-39.3,0c0,7.7,0,14.9,0,22.7c11.4,0,22.8,0,34.5,0c0,3.2,0,5.7,0,8.8c-11.5,0-22.9,0-34.6,0c0,8.6,0,16.7,0,25.5
		c13.1,0,26.1,0,39.5,0C1155.2,85.9,1155.2,88.3,1155.2,91.2z"/>
	<path class="st0" d="M1415.2,17.5c8.7,24.7,17.3,49,25.9,73.5c-9.2,1.1-9.2,1.1-12-7c-3.4-9.8-3.4-9.8-14-9.8
		c-5.8,0-11.6,0.1-17.5-0.1c-2.9-0.1-4.7,0.6-5.3,3.7c-0.4,2.1-1.3,4.1-2,6.1c-2.6,7.7-2.6,7.7-11.6,7.2c0.5-1.6,0.8-3.1,1.3-4.5
		c7.3-20.8,14.8-41.6,21.8-62.6c1.8-5.4,4.3-7.7,9.8-6.7C1412.6,17.6,1413.6,17.5,1415.2,17.5z M1422.6,65.2
		c-4.3-12.6-8.4-24.6-12.5-36.7c-0.4,0.1-0.8,0.1-1.1,0.2c-4,12-8.1,24.1-12.3,36.5C1405.4,65.2,1413.7,65.2,1422.6,65.2z"/>
	<path class="st0" d="M687.5,201.2c6.2-17.7,12.3-35.1,18.4-52.5c2.1-6.1,4.5-12.2,6.4-18.4c0.9-2.9,2.8-3.2,5-2.7
		c2.6,0.5,6.2-2.1,7.7,2.2c8.2,23.5,16.5,47.1,24.7,70.6c0,0.1,0,0.3-0.1,0.8c-2.9,0-5.8,0-8.9,0c-1.6-4.5-3.4-9-4.8-13.6
		c-0.8-2.5-2-3.4-4.6-3.4c-8.5,0.1-17-0.1-25.5,0.2c-1.4,0-3.3,1.7-4.1,3c-1.2,1.9-1.6,4.3-2.3,6.6
		C696.7,201.7,696.7,201.7,687.5,201.2z M705.7,175c8.9,0,17.2,0,25.8,0c-4.3-12.5-8.3-24.4-12.4-36.4c-0.4,0-0.8,0-1.1,0
		C713.9,150.6,709.9,162.6,705.7,175z"/>
	<path class="st0" d="M965.2,310.2c-3.5,0-6.4,0-9.5,0c-1.7-4.6-3-9.3-5-13.6c-0.7-1.5-2.9-3.1-4.4-3.2c-8.5-0.3-17-0.3-25.4,0
		c-1.4,0-3.3,1.6-4.1,3c-1.2,2.1-1.7,4.7-2.5,7c-2.6,7.7-2.7,7.7-11.6,6.6c5.8-16.7,11.7-33.2,17.5-49.8c2.1-6.1,4.6-12.1,6.4-18.3
		c1.2-4.3,3.2-6.1,7.7-5.4c1.6,0.3,3.3,0,5.1,0C947.8,261.1,956.4,285.4,965.2,310.2z M934.2,247.7c-0.4,0-0.8,0-1.2-0.1
		c-4.1,12.1-8.1,24.2-12.3,36.6c8.9,0,17.2,0,25.9,0C942.3,271.8,938.2,259.8,934.2,247.7z"/>
	<path class="st0" d="M872.6,17.7c0,14.2,0,28.1,0,42c0,3.5,0.1,7,0.7,10.4c1.5,8.9,7,13.3,16.4,13.5c10.3,0.2,16-3.8,18-12.8
		c0.6-2.9,0.7-5.9,0.8-8.9c0.1-14.6,0-29.2,0-44.2c3.1,0,5.8,0,8.8,0c0.1,1,0.3,2,0.3,2.9c0,15.1,0.2,30.3-0.1,45.4
		c-0.3,16.5-10.4,26.3-26.8,26.3c-16.4,0-26.7-9.7-27.1-26.1c-0.3-16.1-0.1-32.2-0.1-48.6C866.6,17.7,869.2,17.7,872.6,17.7z"/>
	<path class="st0" d="M1058.7,91.1c-8.1-24.2-16.3-48.6-24.5-73c9-1.6,9-1.6,11.6,6.3c5.5,16.9,11.1,33.8,16.6,50.7
		c0.4,1.1,0.8,2.1,1.6,4.3c6.8-21.2,13.3-41.5,19.8-61.8c3,0,5.8,0,9.2,0c-0.6,2-1,3.9-1.6,5.7c-6.7,20-13.4,40-20.2,60.1
		C1068.3,91.9,1068.3,91.9,1058.7,91.1z"/>
	<path class="st0" d="M635.7,25.8c0,8.7,0,16.4,0,24.7c11.3,0,22.4,0,33.7,0c0,3.1,0,5.6,0,8.8c-11.3,0-22.4,0-33.8,0
		c0,10.8,0,21.1,0,31.8c-3,0-5.8,0-8.9,0c0-24.2,0-48.6,0-73.3c15.6,0,31.1,0,46.9,0c0,2.7,0,5.1,0,8
		C660.9,25.8,648.5,25.8,635.7,25.8z"/>
	<path class="st0" d="M1303.6,310.2c-3.5,0-6.1,0-8.9,0c0-24.5,0-48.7,0-73.3c15.5,0,31.1,0,47,0c0,2.5,0,4.9,0,8
		c-12.7,0-25.2,0-37.9,0c0,8.5,0,16.3,0,24.5c11.2,0,22.3,0,33.7,0c0,3.1,0,5.6,0,8.8c-11.1,0-22.2,0-33.8,0
		C1303.6,289,1303.6,299.4,1303.6,310.2z"/>
	<path class="st0" d="M1459.7,26.1c-7.7,0-14.7,0-21.9,0c0-3,0-5.6,0-8.4c17.4,0,34.7,0,52.4,0c0,2.6,0,5.1,0,8.4
		c-6.9,0-14,0-21.4,0c0,22,0,43.3,0,64.9c-3.1,0-5.8,0-9.1,0C1459.7,69.8,1459.7,48.4,1459.7,26.1z"/>
	<path class="st0" d="M1358.8,91.2c-3.5,0-6.1,0-9.2,0c0-21.6,0-43,0-64.9c-7.4,0-14.3,0-21.6,0c0-3,0-5.6,0-8.5
		c17.3,0,34.7,0,52.4,0c0,2.7,0,5.3,0,8.3c-7.1,0-14.1,0-21.5,0C1358.8,48,1358.8,69.4,1358.8,91.2z"/>
	<path class="st0" d="M906.6,127.8c0,21.7,0,42.9,0,64.8c11.7,0,23.1,0,35,0c0,3.1,0,5.7,0,8.5c-14.5,0-29.1,0-43.9,0
		c0-24.5,0-48.7,0-73.3C900.4,127.8,903.1,127.8,906.6,127.8z"/>
	<path class="st0" d="M1236.6,310.2c0-24.7,0-48.9,0-73.5c2.8,0,5.5,0,8.7,0c0,21.4,0,43,0,65c12.1,0,23.5,0,35.2,0
		c0,3.1,0,5.6,0,8.5C1266,310.2,1251.5,310.2,1236.6,310.2z"/>
	<path class="st0" d="M761.7,82.6c0,3.2,0,5.6,0,8.4c-14.6,0-29.1,0-44,0c0-24.3,0-48.5,0-73.2c2.6,0,5.4,0,8.6,0
		c0,21.2,0,42.6,0,64.8C738.3,82.6,749.8,82.6,761.7,82.6z"/>
	<path class="st0" d="M687.4,91c0-24.6,0-48.8,0-73.3c3,0,5.8,0,8.8,0c0,24.5,0,48.8,0,73.3C693.1,91,690.2,91,687.4,91z"/>
	<path class="st0" d="M1315.1,91.2c-3,0-5.6,0-8.7,0c0-24.5,0-48.8,0-73.5c2.8,0,5.6,0,8.7,0C1315.1,42.1,1315.1,66.4,1315.1,91.2z"
		/>
	<path class="st0" d="M1021.1,91.3c-3,0-5.6,0-8.6,0c0-24.5,0-48.8,0-73.5c2.8,0,5.5,0,8.6,0C1021.1,42.1,1021.1,66.4,1021.1,91.3z"
		/>
	<path class="st0" d="M1423,9c-2.9,0-5.5,0-8.6,0c0-2.9,0-5.8,0-9c2.7,0,5.5,0,8.6,0C1423,2.8,1423,5.6,1423,9z"/>
	<path class="st0" d="M1404.5,0c0,3,0,5.8,0,8.9c-3.1,0-5.8,0-8.7,0c0-3,0-5.8,0-8.9C1398.6,0,1401.4,0,1404.5,0z"/>
</g>
<path class="st0" d="M260.9,17.1c84.8,0,169.6,0,254.5,0c6.2,0,6.3,0.1,6.3,6.5c0,93.8,0,187.6,0,281.5c0,6.5,0,6.6-6.7,6.6
	c-169.5,0-339,0-508.4,0.1c-5,0-6.4-1.3-6.4-6.4c0.2-94,0.2-188,0-282C0,18.4,1.3,17,6.4,17C91.2,17.2,176,17.1,260.9,17.1z"/>
</svg>
