<?xml version="1.0" encoding="utf-8"?>
<!-- Generator: Adobe Illustrator 23.0.4, SVG Export Plug-In . SVG Version: 6.00 Build 0)  -->
<svg version="1.1" id="Layer_1" xmlns="http://www.w3.org/2000/svg" xmlns:xlink="http://www.w3.org/1999/xlink" x="0px" y="0px"
	 viewBox="0 0 395.4 132.7" style="enable-background:new 0 0 395.4 132.7;" xml:space="preserve">
<style type="text/css">
	.st0{fill:#FFFFFF;}
</style>
<g>
	<g>
		<g>
			<path class="st0" d="M166.1,74.2c0,1.3-0.4,2.3-1.2,3.1c-0.8,0.8-2,1.2-3.4,1.2c-2.4,0-3.9-1.1-4.4-3.2l1.8-0.8
				c0.3,1.3,1.2,1.9,2.7,1.9c0.7,0,1.2-0.2,1.6-0.6c0.4-0.4,0.6-0.9,0.6-1.5c0-0.6-0.2-1.1-0.7-1.4c-0.2-0.2-0.8-0.5-1.8-1
				c-1.4-0.7-2.3-1.3-2.8-1.8c-0.7-0.6-1-1.5-1-2.4c0-1.1,0.4-2,1.1-2.8c0.8-0.7,1.8-1.1,3-1.1c2.1,0,3.5,0.8,4,2.3l-1.8,0.9
				c-0.5-0.8-1.2-1.3-2.1-1.3c-0.6,0-1.1,0.2-1.5,0.5c-0.4,0.3-0.5,0.7-0.5,1.3c0,0.6,0.2,1.1,0.7,1.5c0.3,0.2,0.9,0.5,1.9,1
				c1.3,0.6,2.2,1.2,2.7,1.7C165.8,72.4,166.1,73.2,166.1,74.2z"/>
			<path class="st0" d="M177.1,66.2h-3.7v12h-2.2v-12h-3.7v-1.9h9.6V66.2z"/>
			<path class="st0" d="M181.5,78.1h-2.3V64.2h2.3V78.1z"/>
			<path class="st0" d="M192.8,71.6h-5.5v6.5h-2.3V64.2h7.8v1.9h-5.5v3.5h5.5V71.6z"/>
			<path class="st0" d="M203.8,66.2h-3.7v12h-2.3v-12h-3.7v-1.9h9.6V66.2z"/>
			<path class="st0" d="M217.3,72.9c0,3.8-1.9,5.6-5.7,5.6c-3.8,0-5.7-1.9-5.7-5.6v-8.6h2.2v8.4c0,2.5,1.2,3.8,3.5,3.8
				c2.3,0,3.5-1.3,3.5-3.8v-8.4h2.3V72.9z"/>
			<path class="st0" d="M233.1,78.7l-9-8.7c-0.5-0.5-0.9-1-1.3-1.6v9.7h-2.1V63.7l8.8,8.5c0.5,0.5,1,1,1.5,1.7v-9.6h2.1V78.7z"/>
			<path class="st0" d="M249.9,72.3c0,2-0.6,3.5-1.7,4.6c-1.1,1.1-2.7,1.6-4.7,1.6c-2.3,0-4.1-0.7-5.4-2.1c-1.4-1.4-2-3.1-2-5.2
				c0-2.1,0.7-3.9,2.1-5.2c1.4-1.4,3.2-2,5.3-2c2.2,0,3.9,0.8,5.3,2.4l-1.7,1.2c-0.9-1.1-2.1-1.6-3.6-1.6c-1.5,0-2.7,0.5-3.7,1.4
				c-1,1-1.4,2.2-1.4,3.8c0,1.6,0.5,2.9,1.4,3.8c1,1,2.2,1.5,3.7,1.5c1.3,0,2.3-0.3,3.1-0.9c0.7-0.6,1.1-1.4,1.1-2.5v-0.2h-3.4V71
				h5.5C249.9,71.8,249.9,72.2,249.9,72.3z"/>
			<path class="st0" d="M165.7,93h-5.5v6.5h-2.3V85.6h7.8v1.9h-5.5V91h5.5V93z"/>
			<path class="st0" d="M179.3,94.2c0,3.8-1.9,5.6-5.7,5.6c-3.8,0-5.7-1.9-5.7-5.6v-8.6h2.2V94c0,2.5,1.2,3.8,3.5,3.8
				c2.3,0,3.5-1.3,3.5-3.8v-8.4h2.2V94.2z M173,82.7c0,0.3-0.1,0.6-0.3,0.8c-0.2,0.2-0.5,0.3-0.8,0.3c-0.3,0-0.6-0.1-0.8-0.3
				c-0.2-0.2-0.3-0.5-0.3-0.8c0-0.3,0.1-0.6,0.3-0.8c0.2-0.2,0.5-0.3,0.8-0.3c0.3,0,0.6,0.1,0.8,0.3C172.9,82.1,173,82.4,173,82.7z
				 M176.4,82.7c0,0.3-0.1,0.6-0.3,0.8c-0.2,0.2-0.5,0.3-0.8,0.3s-0.6-0.1-0.8-0.3c-0.2-0.2-0.3-0.5-0.3-0.8c0-0.3,0.1-0.6,0.3-0.8
				c0.2-0.2,0.5-0.3,0.8-0.3c0.3,0,0.6,0.1,0.8,0.3C176.3,82.1,176.4,82.4,176.4,82.7z"/>
			<path class="st0" d="M191.8,99.5h-2.5l-4.6-6.2h-0.3v6.2h-2.1V85.6h3.1c1.7,0,2.8,0.3,3.5,0.8c0.9,0.7,1.3,1.7,1.3,3.1
				c0,2.2-1.1,3.5-3.2,3.8L191.8,99.5z M187.9,89.6c0-0.8-0.2-1.4-0.7-1.7c-0.4-0.3-1.2-0.4-2.3-0.4h-0.4v4h0.4
				c1.1,0,1.8-0.1,2.2-0.3C187.6,90.9,187.9,90.4,187.9,89.6z"/>
			<path class="st0" d="M210.4,92.6c0,2.5-0.8,4.4-2.4,5.6c-0.7,0.6-1.6,0.9-2.6,1.1c-0.7,0.1-1.7,0.2-3.1,0.2h-3.7V85.6h3.1
				c1.6,0,2.8,0,3.5,0.1c1.1,0.2,2,0.6,2.8,1.2C209.6,88.2,210.4,90,210.4,92.6z M208,92.5c0-1.8-0.5-3.1-1.6-4
				c-0.5-0.4-1.1-0.7-1.8-0.8c-0.5-0.1-1.2-0.1-2.2-0.1h-1.6v9.8h1.9c0.9,0,1.6,0,2.1-0.1c0.6-0.1,1.2-0.4,1.7-0.8
				C207.5,95.7,208,94.3,208,92.5z"/>
			<path class="st0" d="M220.5,99.5h-7.8V85.6h7.8v1.9H215V91h5.5v2H215v4.5h5.5V99.5z"/>
			<path class="st0" d="M234.3,94.2c0,3.8-1.9,5.6-5.7,5.6c-3.8,0-5.7-1.9-5.7-5.6v-8.6h2.2V94c0,2.5,1.2,3.8,3.5,3.8
				c2.3,0,3.5-1.3,3.5-3.8v-8.4h2.3V94.2z"/>
			<path class="st0" d="M245.4,87.5h-3.7v12h-2.2v-12h-3.7v-1.9h9.6V87.5z"/>
			<path class="st0" d="M254.4,95.6c0,1.3-0.4,2.3-1.2,3.1c-0.8,0.8-1.9,1.2-3.4,1.2c-2.4,0-3.9-1-4.4-3.1l1.8-0.8
				c0.3,1.3,1.2,1.9,2.7,1.9c0.7,0,1.2-0.2,1.6-0.6c0.4-0.4,0.6-0.9,0.6-1.5c0-0.6-0.2-1.1-0.7-1.4c-0.2-0.2-0.8-0.5-1.8-1
				c-1.4-0.7-2.3-1.3-2.8-1.8c-0.7-0.6-1-1.5-1-2.4c0-1.1,0.4-2,1.1-2.7c0.8-0.7,1.8-1.1,3-1.1c2.1,0,3.5,0.8,4,2.3l-1.8,0.9
				c-0.5-0.8-1.2-1.3-2.1-1.3c-0.6,0-1.1,0.2-1.4,0.5c-0.4,0.3-0.5,0.7-0.5,1.3c0,0.6,0.2,1.1,0.7,1.5c0.3,0.2,0.9,0.5,1.9,1
				c1.3,0.6,2.2,1.2,2.7,1.7C254.1,93.8,254.4,94.6,254.4,95.6z"/>
			<path class="st0" d="M268,86.7l-0.1,2.3c-1.3-1.1-2.7-1.6-4.3-1.6c-1.5,0-2.7,0.5-3.7,1.5c-1,1-1.4,2.2-1.4,3.8
				c0,1.5,0.5,2.8,1.4,3.7c0.9,1,2.1,1.4,3.5,1.4c1.6,0,3.1-0.6,4.5-1.8v2.6c-1.2,0.9-2.7,1.3-4.3,1.3c-2.1,0-3.9-0.7-5.3-2.1
				c-1.4-1.4-2.1-3.1-2.1-5.2c0-2.1,0.7-3.8,2.1-5.2c1.4-1.4,3.2-2.1,5.3-2.1C265.1,85.2,266.6,85.7,268,86.7z"/>
			<path class="st0" d="M281.8,99.5h-2.2v-6.7h-6.9v6.7h-2.3V85.6h2.3v5.1h6.9v-5.1h2.2V99.5z"/>
			<path class="st0" d="M289.7,96h-5.1v-1.9h5.1V96z"/>
			<path class="st0" d="M300.8,89.4c0,1.4-0.5,2.5-1.4,3.1c-0.7,0.5-1.8,0.7-3.5,0.7h-1.3v6.2h-2.1V85.6h3.4c1.7,0,2.8,0.2,3.5,0.7
				C300.4,87,300.8,88,300.8,89.4z M298.5,89.6c0-0.8-0.3-1.3-0.8-1.6c-0.5-0.3-1.2-0.4-2.4-0.4h-0.6v3.9h0.6c1.1,0,1.9-0.1,2.4-0.3
				C298.2,90.8,298.5,90.3,298.5,89.6z"/>
			<path class="st0" d="M316.9,92.6c0,2-0.7,3.7-2.2,5.2c-1.5,1.4-3.2,2.1-5.2,2.1c-2.1,0-3.8-0.7-5.3-2.1c-1.4-1.4-2.2-3.1-2.2-5.2
				c0-2,0.7-3.8,2.2-5.2c1.4-1.4,3.2-2.1,5.3-2.1c2.1,0,3.8,0.7,5.3,2.1C316.2,88.8,316.9,90.5,316.9,92.6z M314.6,92.6
				c0-1.4-0.5-2.7-1.5-3.7c-1-1-2.2-1.5-3.6-1.5c-1.4,0-2.6,0.5-3.6,1.5c-1,1-1.5,2.2-1.5,3.7c0,1.4,0.5,2.7,1.5,3.7
				c1,1,2.2,1.5,3.6,1.5c1.4,0,2.6-0.5,3.6-1.5C314.1,95.2,314.6,94,314.6,92.6z"/>
			<path class="st0" d="M326.6,99.5h-7.3V85.6h2.3v11.9h5.1V99.5z"/>
			<path class="st0" d="M340.7,100l-9-8.7c-0.5-0.5-0.9-1-1.3-1.6v9.7h-2.1V85l8.8,8.5c0.5,0.5,1,1,1.5,1.7v-9.6h2.1V100z"/>
			<path class="st0" d="M346,99.5h-2.2V85.6h2.2V99.5z"/>
			<path class="st0" d="M357.3,95.6c0,1.3-0.4,2.3-1.2,3.1c-0.8,0.8-2,1.2-3.4,1.2c-2.5,0-3.9-1-4.4-3.1l1.8-0.8
				c0.3,1.3,1.2,1.9,2.7,1.9c0.7,0,1.2-0.2,1.6-0.6c0.4-0.4,0.6-0.9,0.6-1.5c0-0.6-0.2-1.1-0.7-1.4c-0.2-0.2-0.8-0.5-1.8-1
				c-1.4-0.7-2.3-1.3-2.8-1.8c-0.7-0.6-1-1.5-1-2.4c0-1.1,0.4-2,1.1-2.7c0.8-0.7,1.8-1.1,3-1.1c2.1,0,3.5,0.8,4,2.3l-1.8,0.9
				c-0.5-0.8-1.2-1.3-2.1-1.3c-0.6,0-1.1,0.2-1.4,0.5c-0.4,0.3-0.5,0.7-0.5,1.3c0,0.6,0.3,1.1,0.7,1.5c0.3,0.2,0.9,0.5,1.9,1
				c1.3,0.6,2.2,1.2,2.7,1.7C357,93.8,357.3,94.6,357.3,95.6z"/>
			<path class="st0" d="M370.8,86.7l-0.1,2.3c-1.3-1.1-2.7-1.6-4.3-1.6c-1.5,0-2.8,0.5-3.7,1.5c-1,1-1.4,2.2-1.4,3.8
				c0,1.5,0.5,2.8,1.4,3.7c0.9,1,2.1,1.4,3.5,1.4c1.6,0,3.1-0.6,4.5-1.8v2.6c-1.2,0.9-2.7,1.3-4.3,1.3c-2.2,0-3.9-0.7-5.3-2.1
				c-1.4-1.4-2.1-3.1-2.1-5.2c0-2.1,0.7-3.8,2.1-5.2c1.4-1.4,3.2-2.1,5.3-2.1C368,85.2,369.5,85.7,370.8,86.7z"/>
			<path class="st0" d="M384.7,99.5h-2.2v-6.7h-6.9v6.7h-2.2V85.6h2.2v5.1h6.9v-5.1h2.2V99.5z"/>
			<path class="st0" d="M395.4,99.5h-7.8V85.6h7.8v1.9h-5.5V91h5.5v2h-5.5v4.5h5.5V99.5z"/>
			<path class="st0" d="M167.1,120.9h-10.6l7.1-12h-5.9V107h9.4l-7,11.9h7.1V120.9z"/>
			<path class="st0" d="M182.3,115.6c0,3.7-1.9,5.6-5.7,5.6c-3.8,0-5.7-1.9-5.7-5.6V107h2.2v8.4c0,2.5,1.2,3.8,3.5,3.8
				c2.3,0,3.5-1.3,3.5-3.8V107h2.3V115.6z"/>
			<path class="st0" d="M195.5,116.9c0,1.3-0.4,2.4-1.2,3.1c-0.8,0.8-2,1.2-3.4,1.2c-2.5,0-3.9-1.1-4.4-3.2l1.8-0.8
				c0.3,1.3,1.2,1.9,2.7,1.9c0.7,0,1.2-0.2,1.6-0.6c0.4-0.4,0.6-0.9,0.6-1.5c0-0.6-0.2-1.1-0.7-1.4c-0.2-0.2-0.8-0.5-1.8-1
				c-1.4-0.7-2.3-1.3-2.8-1.8c-0.7-0.7-1-1.5-1-2.5c0-1.1,0.4-2,1.2-2.8c0.8-0.7,1.8-1.1,3-1.1c2.1,0,3.5,0.8,4,2.3l-1.8,0.9
				c-0.5-0.8-1.2-1.3-2.1-1.3c-0.6,0-1.1,0.2-1.4,0.5c-0.4,0.3-0.5,0.7-0.5,1.3c0,0.6,0.2,1.1,0.7,1.5c0.3,0.2,0.9,0.5,1.9,1
				c1.3,0.6,2.2,1.2,2.7,1.7C195.2,115.2,195.5,116,195.5,116.9z"/>
			<path class="st0" d="M211.4,120.9H209l-1.6-3.6h-5.5l-1.6,3.6h-2.4l6.7-14.5L211.4,120.9z M206.6,115.4l-1.4-3.2
				c-0.2-0.3-0.3-0.9-0.5-1.6c-0.2,0.7-0.3,1.2-0.5,1.6l-1.4,3.2H206.6z"/>
			<path class="st0" d="M229.5,120.9h-2.1l-1.5-6.9c0,0-0.1-0.6-0.3-1.9c-0.1,0.7-0.3,1.3-0.6,1.9l-3.6,7.4l-3.6-7.6
				c-0.3-0.6-0.5-1.2-0.7-1.8c0,0.6-0.1,1.2-0.3,1.9l-1.5,6.8h-2.1l3.3-14.5l4.1,8.7c0.1,0.3,0.4,0.9,0.8,1.9c0.1-0.4,0.4-1,0.8-1.9
				l4-8.7L229.5,120.9z"/>
			<path class="st0" d="M248.2,120.9h-2.1l-1.5-6.9c0,0-0.1-0.6-0.3-1.9c-0.1,0.7-0.3,1.3-0.6,1.9l-3.6,7.4l-3.6-7.6
				c-0.3-0.6-0.5-1.2-0.7-1.8c0,0.6-0.1,1.2-0.3,1.9l-1.5,6.8h-2.1l3.3-14.5l4.1,8.7c0.1,0.3,0.4,0.9,0.8,1.9c0.1-0.4,0.4-1,0.8-1.9
				l4-8.7L248.2,120.9z"/>
			<path class="st0" d="M259.6,120.9h-7.8V107h7.8v1.9h-5.5v3.5h5.5v2h-5.5v4.5h5.5V120.9z"/>
			<path class="st0" d="M276.4,121.4l-9-8.7c-0.5-0.5-0.9-1-1.3-1.6v9.7H264v-14.5l8.8,8.5c0.5,0.5,1,1,1.5,1.7V107h2.1V121.4z"/>
			<path class="st0" d="M293.1,120.9h-2.4l-1.6-3.6h-5.5l-1.6,3.6h-2.4l6.7-14.5L293.1,120.9z M288.3,115.4l-1.4-3.2
				c-0.2-0.3-0.3-0.9-0.5-1.6c-0.2,0.7-0.3,1.2-0.5,1.6l-1.4,3.2H288.3z"/>
			<path class="st0" d="M305.8,120.9h-2.5l-4.6-6.2h-0.3v6.2h-2.1V107h3.1c1.7,0,2.8,0.3,3.5,0.8c0.9,0.7,1.3,1.7,1.3,3.1
				c0,2.2-1.1,3.5-3.2,3.8L305.8,120.9z M301.9,111c0-0.8-0.2-1.4-0.7-1.7c-0.4-0.3-1.2-0.4-2.3-0.4h-0.4v4h0.4
				c1.1,0,1.8-0.1,2.2-0.3C301.6,112.3,301.9,111.8,301.9,111z"/>
			<path class="st0" d="M317.9,116.9c0,1.2-0.4,2.1-1.1,2.9c-0.5,0.5-1,0.8-1.8,0.9c-0.5,0.1-1.4,0.2-2.5,0.2H309V107h3.5
				c1.7,0,2.8,0.2,3.4,0.7c0.9,0.7,1.4,1.7,1.4,2.9c0,1.5-0.7,2.5-2,2.9c0.8,0.1,1.4,0.5,1.9,1.1C317.6,115.2,317.9,116,317.9,116.9
				z M315,110.9c0-0.8-0.2-1.4-0.7-1.7c-0.4-0.3-1.2-0.4-2.2-0.4h-0.9v4h0.9c1.1,0,1.8-0.1,2.3-0.4C314.7,112.1,315,111.6,315,110.9
				z M315.5,116.8c0-0.9-0.4-1.5-1.1-1.9c-0.4-0.2-1-0.3-1.8-0.3h-1.5v4.4h0.8c1.4,0,2.3-0.1,2.7-0.4
				C315.2,118.1,315.5,117.5,315.5,116.8z"/>
			<path class="st0" d="M329.8,120.9H322V107h7.8v1.9h-5.5v3.5h5.5v2h-5.5v4.5h5.5V120.9z"/>
			<path class="st0" d="M336.5,120.9h-2.2V107h2.2V120.9z"/>
			<path class="st0" d="M349.8,108.9h-3.7v12h-2.3v-12h-3.7V107h9.6V108.9z"/>
		</g>
		<g>
			<path class="st0" d="M165.5,19.9H160v6.5h-2.2V12.5h7.8v1.9H160v3.5h5.5V19.9z"/>
			<path class="st0" d="M179.7,21.2c0,3.7-1.9,5.6-5.7,5.6c-3.8,0-5.7-1.9-5.7-5.6v-8.7h2.2V21c0,2.5,1.2,3.8,3.5,3.8
				c2.3,0,3.5-1.3,3.5-3.8v-8.4h2.3V21.2z"/>
			<path class="st0" d="M195.6,27l-9-8.7c-0.5-0.5-0.9-1-1.3-1.6v9.7h-2.1V12l8.8,8.5c0.5,0.5,1,1,1.5,1.7v-9.6h2.1V27z"/>
			<path class="st0" d="M211,19.5c0,2.5-0.8,4.4-2.4,5.6c-0.7,0.6-1.6,0.9-2.6,1.1c-0.7,0.1-1.7,0.2-3.1,0.2h-3.7V12.5h3.1
				c1.6,0,2.8,0.1,3.5,0.2c1.1,0.2,2,0.6,2.8,1.2C210.2,15.1,211,17,211,19.5z M208.7,19.5c0-1.8-0.5-3.1-1.6-4
				c-0.5-0.4-1-0.6-1.8-0.8c-0.5-0.1-1.2-0.1-2.2-0.1h-1.6v9.8h1.9c0.9,0,1.6,0,2.1-0.1c0.7-0.1,1.2-0.4,1.7-0.8
				C208.2,22.6,208.7,21.3,208.7,19.5z"/>
			<path class="st0" d="M225.2,26.4h-2.4l-1.6-3.6h-5.5l-1.6,3.6h-2.4l6.7-14.5L225.2,26.4z M220.4,21l-1.4-3.2
				c-0.2-0.3-0.3-0.9-0.5-1.6c-0.2,0.7-0.3,1.2-0.5,1.6l-1.4,3.2H220.4z"/>
			<path class="st0" d="M237.8,13.6l-0.1,2.3c-1.3-1.1-2.7-1.6-4.3-1.6c-1.5,0-2.8,0.5-3.7,1.5c-1,1-1.4,2.2-1.4,3.8
				c0,1.5,0.5,2.8,1.4,3.7c0.9,1,2.1,1.5,3.5,1.5c1.6,0,3.1-0.6,4.5-1.8v2.5c-1.2,0.9-2.7,1.3-4.3,1.3c-2.2,0-3.9-0.7-5.3-2.1
				c-1.4-1.4-2.1-3.1-2.1-5.2c0-2.1,0.7-3.8,2.1-5.2c1.4-1.4,3.2-2.1,5.3-2.1C235,12.2,236.5,12.7,237.8,13.6z"/>
			<path class="st0" d="M245.6,23.4c0,2.3-1.1,3.4-3.2,3.4c-1.2,0-2.2-0.5-3-1.4l1.4-1.5c0.4,0.5,0.9,0.8,1.4,0.8
				c0.5,0,0.9-0.2,1-0.7c0.1-0.3,0.2-0.7,0.2-1.4V12.5h2.2V23.4z"/>
			<path class="st0" d="M260.5,26.4h-2.4l-1.6-3.6h-5.5l-1.6,3.6h-2.4l6.7-14.5L260.5,26.4z M255.8,21l-1.4-3.2
				c-0.2-0.3-0.3-0.9-0.5-1.6c-0.2,0.7-0.3,1.2-0.5,1.6l-1.4,3.2H255.8z"/>
			<path class="st0" d="M285.2,12.5L279.8,27l-3.2-7.9c-0.3-0.7-0.5-1.4-0.7-1.9c-0.2,0.7-0.4,1.4-0.7,2l-3.1,7.9l-5.4-14.5h2.2
				l2.6,7c0.3,0.8,0.5,1.5,0.7,2.2c0.3-1.1,0.6-1.9,0.8-2.3L276,12l2.9,7.6c0.3,0.7,0.5,1.4,0.7,2.2c0.1-0.6,0.4-1.3,0.7-2.2
				l2.6-7.1H285.2z"/>
			<path class="st0" d="M295.4,22.5c0,1.3-0.4,2.3-1.2,3.1c-0.8,0.8-1.9,1.2-3.4,1.2c-2.5,0-3.9-1.1-4.4-3.1l1.8-0.8
				c0.3,1.3,1.2,1.9,2.7,1.9c0.7,0,1.2-0.2,1.6-0.6c0.4-0.4,0.6-0.9,0.6-1.5c0-0.6-0.2-1.1-0.7-1.4c-0.2-0.2-0.8-0.5-1.8-1
				c-1.4-0.7-2.3-1.3-2.8-1.8c-0.7-0.6-1-1.5-1-2.4c0-1.1,0.4-2,1.1-2.8c0.8-0.7,1.8-1.1,3-1.1c2.1,0,3.5,0.8,4,2.3l-1.8,0.9
				c-0.5-0.8-1.2-1.3-2.1-1.3c-0.6,0-1.1,0.2-1.4,0.5c-0.4,0.3-0.5,0.7-0.5,1.3c0,0.6,0.2,1.1,0.7,1.5c0.3,0.2,0.9,0.5,1.9,1
				c1.3,0.6,2.2,1.2,2.7,1.7C295.1,20.8,295.4,21.5,295.4,22.5z"/>
			<path class="st0" d="M306.5,16.4c0,1.4-0.5,2.5-1.4,3.1c-0.7,0.5-1.8,0.7-3.5,0.7h-1.3v6.2h-2.1V12.5h3.4c1.7,0,2.8,0.2,3.5,0.7
				C306,13.9,306.5,15,306.5,16.4z M304.2,16.5c0-0.8-0.3-1.3-0.8-1.6c-0.5-0.3-1.2-0.4-2.4-0.4h-0.6v3.9h0.6c1.1,0,1.9-0.1,2.4-0.3
				C303.9,17.8,304.2,17.3,304.2,16.5z"/>
			<path class="st0" d="M323.2,19.5c0,2-0.7,3.7-2.2,5.2c-1.5,1.4-3.2,2.1-5.2,2.1c-2.1,0-3.8-0.7-5.3-2.1c-1.4-1.4-2.2-3.1-2.2-5.2
				c0-2,0.7-3.8,2.2-5.2c1.4-1.4,3.2-2.1,5.3-2.1c2.1,0,3.8,0.7,5.3,2.1C322.5,15.8,323.2,17.5,323.2,19.5z M320.9,19.5
				c0-1.4-0.5-2.7-1.5-3.7c-1-1-2.2-1.5-3.6-1.5c-1.4,0-2.6,0.5-3.6,1.5c-1,1-1.5,2.2-1.5,3.7c0,1.4,0.5,2.7,1.5,3.7
				c1,1,2.2,1.5,3.6,1.5c1.4,0,2.6-0.5,3.6-1.5C320.4,22.2,320.9,20.9,320.9,19.5z M318.7,8.3l-2.6,3h-1.7l2-3H318.7z"/>
			<path class="st0" d="M333.6,26.4h-7.3v-5.6l-1.2,0.8v-2.1l1.2-0.9v-6.2h2.2v4.9l3.2-2.3v2.1l-3.2,2.2v4.9h5.1V26.4z"/>
			<path class="st0" d="M344.2,16.4c0,1.4-0.5,2.5-1.4,3.1c-0.6,0.5-1.8,0.7-3.5,0.7H338v6.2h-2.1V12.5h3.4c1.7,0,2.8,0.2,3.5,0.7
				C343.7,13.9,344.2,15,344.2,16.4z M341.8,16.5c0-0.8-0.3-1.3-0.8-1.6c-0.5-0.3-1.2-0.4-2.4-0.4h-0.6v3.9h0.6
				c1.1,0,1.9-0.1,2.4-0.3C341.6,17.8,341.8,17.3,341.8,16.5z"/>
			<path class="st0" d="M356.2,26.4h-2.5l-4.6-6.2h-0.3v6.2h-2.1V12.5h3.2c1.6,0,2.8,0.3,3.5,0.8c0.9,0.7,1.3,1.7,1.3,3.1
				c0,2.2-1.1,3.5-3.2,3.8L356.2,26.4z M352.2,16.6c0-0.8-0.2-1.4-0.7-1.7c-0.4-0.3-1.2-0.4-2.3-0.4h-0.4v4h0.4
				c1.1,0,1.8-0.1,2.2-0.3C352,17.9,352.2,17.4,352.2,16.6z"/>
			<path class="st0" d="M369.5,26.4h-2.4l-1.6-3.6H360l-1.6,3.6H356l6.7-14.5L369.5,26.4z M364.7,21l-1.4-3.2
				c-0.2-0.3-0.3-0.9-0.5-1.6c-0.2,0.7-0.3,1.2-0.5,1.6l-1.4,3.2H364.7z"/>
			<path class="st0" d="M382.1,13.6l-0.1,2.3c-1.3-1.1-2.7-1.6-4.3-1.6c-1.5,0-2.8,0.5-3.7,1.5c-1,1-1.4,2.2-1.4,3.8
				c0,1.5,0.5,2.8,1.4,3.7c0.9,1,2.1,1.5,3.5,1.5c1.6,0,3.1-0.6,4.5-1.8v2.5c-1.2,0.9-2.7,1.3-4.3,1.3c-2.2,0-3.9-0.7-5.3-2.1
				c-1.4-1.4-2.1-3.1-2.1-5.2c0-2.1,0.7-3.8,2.1-5.2c1.4-1.4,3.2-2.1,5.3-2.1C379.2,12.2,380.7,12.7,382.1,13.6z"/>
			<path class="st0" d="M395.2,12.5l-4.8,7.5v6.4h-2.2v-6.4l-4.7-7.5h2.4l2.9,4.7c0.1,0.2,0.3,0.6,0.6,1.1c0.2-0.4,0.4-0.8,0.6-1.2
				l3-4.7H395.2z"/>
			<path class="st0" d="M166,37.7c0,1.4-0.5,2.5-1.4,3.1c-0.6,0.5-1.8,0.7-3.5,0.7h-1.3v6.2h-2.1V33.9h3.4c1.7,0,2.8,0.2,3.5,0.7
				C165.6,35.3,166,36.3,166,37.7z M163.7,37.9c0-0.8-0.3-1.3-0.8-1.6c-0.5-0.3-1.2-0.4-2.4-0.4H160v3.9h0.6c1.1,0,1.9-0.1,2.4-0.3
				C163.5,39.1,163.7,38.6,163.7,37.9z"/>
			<path class="st0" d="M182.3,40.9c0,2-0.7,3.7-2.2,5.2c-1.5,1.4-3.2,2.1-5.2,2.1c-2.1,0-3.8-0.7-5.3-2.1c-1.4-1.4-2.2-3.1-2.2-5.2
				c0-2,0.7-3.8,2.2-5.2c1.4-1.4,3.2-2.1,5.3-2.1c2.1,0,3.8,0.7,5.3,2.1C181.5,37.1,182.3,38.8,182.3,40.9z M179.9,40.9
				c0-1.4-0.5-2.7-1.5-3.7c-1-1-2.2-1.5-3.6-1.5c-1.4,0-2.6,0.5-3.6,1.5c-1,1-1.5,2.2-1.5,3.7c0,1.4,0.5,2.7,1.5,3.7
				c1,1,2.2,1.5,3.6,1.5c1.4,0,2.6-0.5,3.6-1.5C179.4,43.5,179.9,42.3,179.9,40.9z"/>
			<path class="st0" d="M192.1,47.8h-7.3V33.9h2.2v11.9h5.1V47.8z"/>
			<path class="st0" d="M201.3,43.9c0,1.3-0.4,2.4-1.2,3.1c-0.8,0.8-1.9,1.2-3.4,1.2c-2.5,0-3.9-1.1-4.4-3.2l1.8-0.8
				c0.3,1.3,1.2,1.9,2.7,1.9c0.7,0,1.2-0.2,1.6-0.6c0.4-0.4,0.6-0.9,0.6-1.5c0-0.6-0.2-1.1-0.7-1.4c-0.2-0.2-0.8-0.5-1.8-1
				c-1.4-0.7-2.3-1.3-2.8-1.8c-0.7-0.6-1-1.5-1-2.4c0-1.1,0.4-2,1.1-2.8c0.8-0.7,1.8-1.1,3-1.1c2.1,0,3.5,0.8,4,2.3l-1.8,0.9
				c-0.5-0.8-1.2-1.3-2.1-1.3c-0.6,0-1.1,0.2-1.5,0.5c-0.4,0.3-0.5,0.7-0.5,1.3c0,0.6,0.2,1.1,0.7,1.5c0.3,0.2,0.9,0.5,1.9,1
				c1.3,0.6,2.2,1.2,2.7,1.7C201,42.1,201.3,42.9,201.3,43.9z"/>
			<path class="st0" d="M214.3,47.8h-2.9l-5.5-7.1v7.1h-2.3V33.9h2.3v5.8l5-5.8h2.8l-5.5,6.2L214.3,47.8z"/>
			<path class="st0" d="M229.2,40.9c0,2-0.7,3.7-2.2,5.2c-1.5,1.4-3.2,2.1-5.2,2.1c-2.1,0-3.8-0.7-5.3-2.1c-1.4-1.4-2.2-3.1-2.2-5.2
				c0-2,0.7-3.8,2.2-5.2c1.4-1.4,3.2-2.1,5.3-2.1c2.1,0,3.8,0.7,5.3,2.1C228.4,37.1,229.2,38.8,229.2,40.9z M226.8,40.9
				c0-1.4-0.5-2.7-1.5-3.7c-1-1-2.2-1.5-3.6-1.5c-1.4,0-2.6,0.5-3.6,1.5c-1,1-1.5,2.2-1.5,3.7c0,1.4,0.5,2.7,1.5,3.7
				c1,1,2.2,1.5,3.6,1.5c1.4,0,2.6-0.5,3.6-1.5C226.3,43.5,226.8,42.3,226.8,40.9z"/>
			<path class="st0" d="M237.1,44.3H232v-1.9h5.1V44.3z"/>
			<path class="st0" d="M252.4,48.3l-9-8.7c-0.5-0.5-0.9-1-1.3-1.6v9.7H240V33.3l8.8,8.5c0.5,0.5,1,1,1.5,1.7v-9.6h2.1V48.3z"/>
			<path class="st0" d="M257.8,47.8h-2.2V33.9h2.2V47.8z"/>
			<path class="st0" d="M268.7,47.8H261V33.9h7.8v1.9h-5.5v3.5h5.5v2h-5.5v4.5h5.5V47.8z"/>
			<path class="st0" d="M286.2,47.8h-2.1l-1.5-6.9c0,0-0.1-0.6-0.3-1.9c-0.1,0.6-0.3,1.3-0.6,1.9l-3.6,7.4l-3.6-7.6
				c-0.3-0.6-0.5-1.2-0.7-1.8c0,0.6-0.1,1.2-0.3,1.9l-1.5,6.8h-2.1l3.3-14.4l4.1,8.7c0.1,0.3,0.4,0.9,0.8,1.9c0.1-0.4,0.4-1,0.8-1.9
				l4-8.7L286.2,47.8z"/>
			<path class="st0" d="M290.2,47.8h-2.3V33.9h2.3V47.8z"/>
			<path class="st0" d="M301.1,47.8h-7.8V33.9h7.8v1.9h-5.5v3.5h5.5v2h-5.5v4.5h5.5V47.8z"/>
			<path class="st0" d="M314.9,35l-0.1,2.3c-1.3-1.1-2.7-1.6-4.3-1.6c-1.5,0-2.8,0.5-3.7,1.5c-1,1-1.4,2.2-1.4,3.8
				c0,1.5,0.5,2.8,1.4,3.7c0.9,1,2.1,1.5,3.5,1.5c1.6,0,3.1-0.6,4.5-1.8v2.6c-1.2,0.9-2.7,1.3-4.3,1.3c-2.2,0-3.9-0.7-5.3-2.1
				c-1.4-1.4-2.1-3.1-2.1-5.2c0-2.1,0.7-3.8,2.1-5.2c1.4-1.4,3.2-2.1,5.3-2.1C312,33.6,313.5,34,314.9,35z"/>
			<path class="st0" d="M328.2,47.8h-2.9l-5.5-7.1v7.1h-2.2V33.9h2.2v5.8l5-5.8h2.8l-5.5,6.2L328.2,47.8z"/>
			<path class="st0" d="M331.7,47.8h-2.3V33.9h2.3V47.8z"/>
			<path class="st0" d="M342.6,47.8h-7.8V33.9h7.8v1.9h-5.5v3.5h5.5v2h-5.5v4.5h5.5V47.8z"/>
			<path class="st0" d="M349.8,44.7c0,2.3-1.1,3.4-3.2,3.4c-1.2,0-2.2-0.5-3-1.4l1.4-1.5c0.5,0.5,0.9,0.8,1.4,0.8
				c0.5,0,0.9-0.2,1.1-0.7c0.1-0.3,0.2-0.7,0.2-1.4V33.9h2.2V44.7z"/>
		</g>
	</g>
	<path class="st0" d="M80.5,66.4l2-4.3h50.1C130.4,27.5,101.5,0,66.4,0C31.2,0,2.3,27.5,0.1,62.1h47.4L44,66.4H0
		C0,81.3,4.9,95,13.3,106.1l37.1-44.6c17.4-20.9,29.3-27.2,41.7-26.1c-9.7,2.8-19.2,10.3-28.2,24.2l-38.3,59.1
		c2.8,2.2,5.7,4.1,8.8,5.9l26-46.2c9.6-17.1,23.1-46.5,45-43c-13.8,1.2-21.9,20.6-27.3,32.6l-28.3,62.7c5.3,1.4,10.9,2.1,16.7,2.1
		c36.5,0,66.3-29.8,66.3-66.3H80.5z M109.1,36.2c8.7,0,17.1,8.8,19.7,20.2h-7.3c-1.9-9.5-7.8-17.3-14.7-20
		C107.6,36.3,108.3,36.2,109.1,36.2z M104.1,37c6.6,0.2,12.9,8.5,15.2,19.4h-7.1c-0.4-9.5-5.2-17.3-11.4-18.7
		C101.9,37.2,103,37,104.1,37z"/>
</g>
</svg>
