<?xml version="1.0" encoding="utf-8"?>
<!-- Generator: Adobe Illustrator 23.0.0, SVG Export Plug-In . SVG Version: 6.00 Build 0)  -->
<svg version="1.1" id="Calque_1" xmlns="http://www.w3.org/2000/svg" xmlns:xlink="http://www.w3.org/1999/xlink" x="0px" y="0px"
	 viewBox="0 0 660 569.2" style="enable-background:new 0 0 660 569.2;" xml:space="preserve">
<style type="text/css">
	.st0{fill:#FFFFFF;}
</style>
<g>
	<path class="st0" d="M564.7,82C503.5,29.1,420.6,0,331.4,0C242,0,158.7,29.1,96.7,82C34.3,135.2,0,207.2,0,284.7
		c0,159.5,145.6,284.5,331.4,284.5c89.2,0,172.1-29.1,233.3-82c61.5-53.1,95.3-125,95.3-202.6C660,207,626.1,135,564.7,82z
		 M559.1,480.8c-59.7,51.5-140.6,79.9-227.7,79.9c-181.1,0-322.9-121.2-322.9-276C8.5,129.8,150.3,8.5,331.4,8.5
		c87.2,0,168.1,28.4,227.7,79.9c59.5,51.4,92.3,121.1,92.3,196.2C651.5,359.7,618.7,429.3,559.1,480.8z"/>
	<polygon class="st0" points="114.5,294.2 115.9,294.2 114.5,290.5 107.6,272.1 107.6,272.6 101.9,288.2 99.6,294.2 101.9,294.2 	
		"/>
	<path class="st0" d="M250.5,278.1c0-4.5-2.7-5.5-6.4-5.5c-0.2,0-0.3,0-0.5,0h-0.5H243h0h-0.3v11.4h0.3h0h0.2h0.5c0.2,0,0.4,0,0.5,0
		C247.9,283.8,250.5,282.5,250.5,278.1z"/>
	<path class="st0" d="M510.8,135.5C462.2,95,397.6,72.7,328.9,72.7S195.6,95,147,135.5C98.3,176,71.5,230,71.5,287.4
		S98.3,398.8,147,439.3c48.6,40.5,113.2,62.7,181.9,62.7s133.3-22.3,181.9-62.7c48.7-40.6,75.5-94.5,75.5-151.9
		S559.5,176,510.8,135.5z M546.2,395.3c-3.7,5.1-7.6,10-11.7,14.8l-6.3-15.1l0,22c-2.9,3.1-6,6.1-9.1,9.1l0-94.5h13.7l22,50.8
		c-1,1.6-2,3.3-3.1,4.9l-23.5-53.7v21.5L546.2,395.3z M469.6,396.8l-36.8,82.4c-1.8,0.7-3.6,1.3-5.4,2l42.2-95.7v-22.6L416,485
		c-0.7,0.2-1.4,0.4-2.1,0.6c-0.3,0.1-0.6,0.2-0.9,0.3c0,0-0.1,0-0.1,0c-0.1,0-0.2,0.1-0.3,0.1c-0.2,0.1-0.5,0.1-0.7,0.2
		c-17.4,5-35.6,8.5-54.5,10.3c-0.3,0-0.7,0.1-1,0.1V331.6h1h54.2h0.3h0.7h0.3v120.6l0.1-0.2l0.9-2.1l50.4-118.2h14l0,125.5
		c-2.9,1.7-5.8,3.4-8.7,5.1L469.6,396.8z M469.6,180.3c0.2,0,0.1-39.5,0.1-67.7c2.9,1.6,5.8,3.3,8.7,5.1v125.5h-8.7v-20.4L414,98.5
		l-0.9-2l-0.1-0.2v19.2l0.1,0.2l0.9,2l55.4,125.5h-5L414,128.5l-0.9-2l-0.1-0.2v116.9h-0.3h-0.1H412h-54.5h-1V78.2
		c0.3,0,0.7,0.1,1,0.1c18.9,1.8,37.1,5.3,54.5,10.3c0.2,0.1,0.5,0.1,0.7,0.2c0.1,0,0.2,0.1,0.3,0.1c0,0,0.1,0,0.1,0
		c0.3,0.1,0.6,0.2,0.9,0.3c6.3,1.9,12.4,3.9,18.5,6.2C443.4,121,469.6,180.3,469.6,180.3z M528.2,157.8v22.7l6.5-15.5
		c1,1.2,2,2.3,3,3.5l-9.5,21.6v22l15.6-35.8c4.2,5.5,8,11.3,11.6,17.1l-22,49.8h-14.3l0-94.5C522.2,151.6,525.3,154.7,528.2,157.8z
		 M157.3,228.5l3.8,1.7l2.4-3.5v4.7l1.5,0.6l1.9,0.8l-1.9,0.8l-1.5,0.6v4.5l-2.4-3.5l-3.8,1.4l3-3.5L157.3,228.5z M157.3,204.7
		l3.8,1.9l2.4-4v4.7l1.5,0.6l1.9,0.8l-1.9,0.9l-1.5,0.7v4.7l-2.4-4.3l-3.8,2.1l3-4.3L157.3,204.7z M157.3,180.6l3.8,1.4l2.4-3.1v4.5
		l1.5,0.5l1.9,0.7l-1.9,1.2l-1.5,0.9v4.3l-2.4-4l-3.8,2.1l3-4.3L157.3,180.6z M157.3,156.5l3.8,1.9l2.4-3.3v4.3l1.5,0.6l1.9,0.8
		l-1.9,0.8l-1.5,0.6v4.7l-2.4-3.5l-3.8,1.7l3-3.8L157.3,156.5z M157.3,132.9l3.8,1.7l2.4-3.8v5l1.5,0.6l1.9,0.8l-1.9,0.8l-1.5,0.6
		v4.5l-2.4-3.8l-3.8,1.7l3-3.5L157.3,132.9z M175.5,149.4l-3.6,2.1v4.3l-1.8-3.8l-4,1.7l2.4-3.8l-2.4-4.7l4,1.9l1.8-3.3v4.3
		L175.5,149.4z M175.5,132.9l3.8,1.6l0.1,0l2.2-3.8v5l3.6,1.4l-3.6,1.4v4.5l-2.2-3.8l-0.1,0l-3.8,1.6l2.6-3.5L175.5,132.9z
		 M203,137.2l-3.2,1.4v4.5l-2.2-3.8l-3.8,1.7l2.4-3.5l-2.4-4.5l3.8,1.7l2.2-3.8v5L203,137.2z M204.7,125.9l-2.5-4.3l2.5,1.1l1.3,0.6
		l2.2-3.1v4.3l3.2,1.4l-3.2,1.4v4.5l-2.2-3.8l-1.3,0.7l-2.5,1.4l2.5-3.9l0.1-0.1L204.7,125.9z M211.5,109.1l4,1.4l1.8-3.2l0.2-0.3
		v4.7l3.4,1.4l-3.4,1.7v4.3l-0.2-0.4l-1.8-3.4l-4,2.1l2.4-4L211.5,109.1z M220.8,97.8l-0.3-0.5c0.1,0,0.1,0,0.2-0.1l1.4,0.6l2,0.9
		l0.6-0.9l1.4-2.2v2.2v2.1l3.4,1.3l0.3,0.1l-0.3,0.1l-3.4,1.3v1.2v3.3l-1.8-3.3l-0.3-0.5l-0.8,0.5l-2.8,1.6l1-1.6l1.4-2.4
		L220.8,97.8z M166,217.2l4,1.7l1.8-3.5v4.7l3.6,1.4l-3.6,1.4v4.5l-1.8-3.5l-4,1.4l2.4-3.5L166,217.2z M166,193.4l4,1.9l1.8-4v5
		l3.6,1.4l-3.6,1.4v4.7l-1.8-4l-4,1.9l2.4-3.5L166,193.4z M166,169.7l4,0.9l1.8-3.1v4.5l3.6,1.4l-3.6,1.9v4.3l-1.8-4l-4,2.1l2.4-4.3
		L166,169.7z M185.2,184.6l-3.6,2.1v4.3l-2.2-4l-0.1,0l-3.8,2.1l2.6-4.3l-2.6-4.3l3.8,1.4l0.1,0l2.2-3.1v4.5L185.2,184.6z
		 M184,169.7l3.8,0.9l2.4-3.1v4.5l1.6,0.7l1.8,0.7l-1.8,1l-1.6,0.9v4.3l-2.4-4l-3.8,2.1l2.6-4.3L184,169.7z M184,145.2l3.8,1.9
		l2.4-3.3v4.3l1.6,0.7l1.8,0.7l-1.8,1.1l-1.6,1v4.3l-2.4-3.8l-3.8,1.7l2.6-3.8L184,145.2z M203,160.8l-3.2,1.4v4.7l-2.2-3.5
		l-3.8,1.7l2.4-3.8l-2.4-4.7l3.8,1.9l2.2-3.3v4.3L203,160.8z M204.7,149.7l-2.5-4.6l2.5,1.2l1.3,0.6l2.2-3.3v4.3l3.2,1.4l-3.2,2.1
		v4.3L206,152l-1.3,0.6l-2.5,1.1l2.5-3.6l0.1-0.1L204.7,149.7z M221,160.8l-3.4,1.4v4.7l-0.2-0.3l-1.8-3.2l-4,1.7l2.4-3.8l-2.4-4.7
		l4,1.9l1.8-3l0.2-0.3v4.3L221,160.8z M220.4,145.2l3.6,1.9l2-3.3v4.3l3.4,1.3l0.3,0.1l-0.3,0.2l-3.4,2v4.3l-2-3.8l-3.6,1.7l2.4-3.8
		L220.4,145.2z M220.4,121.6l3.6,1.7l2-3.1v4.3l3.4,1.3l0.3,0.1l-0.3,0.1l-3.4,1.3v4.5l-2-3.8l-3.6,2.1l2.4-4L220.4,121.6z
		 M493.5,281.2v6.4h-11.7v10.2h12.2v6.4h-19.5v-37.7h19.5v6.4h-12.2v8.3H493.5z M454.8,287.1c-4.9-2-8.4-4.5-8.4-10.3
		c0-6.3,4.7-11.3,11-11.3c3.4,0,8,1.7,10.3,4.2l-3.5,5.1c-1.4-1.9-3.2-3.1-5.7-3.1c-2.4,0-4.6,1.8-4.6,4.3c0,6.4,15,3.7,15,16.4
		c0,7.6-4.7,12.9-12.4,12.9c-5.2,0-9-3-11.6-7.4l4.8-4.7c1,2.9,3.7,5.5,6.8,5.5c3,0,4.9-2.6,4.9-5.5
		C461.4,289.4,457.7,288.3,454.8,287.1z M412.7,266.5h0.3h0.1h0.9h5.1v21.1c0,4.7,0.4,11.2,6.7,11.2c6.3,0,6.7-6.6,6.7-11.2v-21.1
		h7.4v22.6c0,9.2-3.9,16.2-14,16.2c-5.8,0-9.6-2.3-11.7-6c-0.3-0.6-0.6-1.2-0.9-1.9c0-0.1-0.1-0.2-0.1-0.2c-0.1-0.3-0.2-0.6-0.3-0.9
		c-0.3-1-0.5-2-0.7-3.1c-0.2-1.3-0.3-2.7-0.3-4.1v-22.6h0.3H412.7z M406.8,313.7l-8.4,0l-5.2-34.8l-0.1,0.1l-12.9,35.4h-3.6
		l-12.4-35.7L364,279l-5.7,34.8h-0.8h-1h-1h-5.6l5.6-34.3l1-6.1l1-6.1l1.3-7.7h6.5l13.5,35.8l13.5-35.8l6.6,0L406.8,313.7z
		 M344.8,266.5V305h-5.3l-19.9-26.4h-0.1v25.6h-7.4v-38.7h5.3l19.9,26.4h0.1v-25.4H344.8z M299.5,281.2h5.7v6.4h-5.7h-6v10.2h6h6.2
		v6.4h-6.2h-13.3v-37.7h13.3h6.2v6.4h-6.2h-6v8.3H299.5z M259.3,272.9v-6.4h22.6v6.4h-7.6v31.3h-7.4v-31.3H259.3z M217.4,281.2h11
		v6.4h-11h-0.7v10.2h0.7h11.5v6.4h-11.5h-8v-37.7h8h11.5v6.4h-11.5h-0.7v8.3H217.4z M200.6,266.5v37.7h-7.4v-37.7H200.6z
		 M152.8,266.5h7.4v31.3h4.9h5.5v6.4h-5.5h-12.3V266.5z M176.5,266.5h2.8h4.6v37.7h-4.6h-2.8V266.5z M175.5,228.5l3.8,1.6l0.1,0
		l2.2-3.5v4.7l3.6,1.4l-3.6,1.4v4.5l-2.2-3.5l-0.1,0l-3.8,1.4l2.6-3.5L175.5,228.5z M175.5,204.7l3.8,1.8l0.1,0l2.2-4v4.7l3.6,1.4
		l-3.6,1.7v4.7l-2.2-4.3l-0.1,0l-3.8,2.1l2.6-4.3L175.5,204.7z M184,193.4l3.8,1.9l2.4-4v5l1.6,0.7l1.8,0.7l-1.8,0.7l-1.6,0.7v4.7
		l-2.4-4l-3.8,1.9l2.6-3.5L184,193.4z M193.7,180.6l3.8,1.4l2.2-3.1v4.5l3.2,1.2l-3.2,2.1v4.3l-2.2-4l-3.8,2.1l2.4-4.3L193.7,180.6z
		 M204.7,173.4l-2.5-3.6l2.5,0.6l1.3,0.3l2.2-3.1v4.5l3.2,1.4l-3.2,1.9v4.3l-2.2-4l-1.3,0.7l-2.5,1.4l2.5-4.1l0.1-0.1L204.7,173.4z
		 M221,184.6l-3.4,2.1v4.3l-0.2-0.4l-1.8-3.6l-4,2.1l2.4-4.3l-2.4-4.3l4,1.4l1.8-2.8l0.2-0.3v4.5L221,184.6z M220.4,169.7l3.6,0.9
		l2-3.1v4.5l3.4,1.3l0.3,0.1l-0.3,0.1l-3.4,1.7v4.3l-2-4l-3.6,2.1l2.4-4.3L220.4,169.7z M231.4,159.4l-1-1.7l-0.7-1.2l0.7,0.4l1,0.5
		l1.9,1l2.4-3.3v4.3l3.6,1.4l-3.6,1.4v4.7l-2.4-3.5l-1.9,0.9l-1,0.5l-0.7,0.3l0.7-1l1-1.3l1.1-1.5L231.4,159.4z M231.4,135.6l-1-1.6
		l-0.7-1.1l0.7,0.3l1,0.5l1.9,0.9l2.4-3.8v5l3.6,1.4l-3.6,1.4v4.5l-2.4-3.8l-1.9,0.9l-1,0.5l-0.7,0.3l0.7-0.9l1-1.3l1.1-1.4
		L231.4,135.6z M231.4,111.6l-1-1.5l-0.7-1.1l0.7,0.3l1,0.4l1.9,0.8l2.4-3.5v4.7l3.6,1.4l-3.6,1.7v4.3l-2.4-3.8l-1.9,1.1l-1,0.6
		l-0.7,0.4l0.7-1l1-1.4l1.1-1.6L231.4,111.6z M184,217.2l3.8,1.7l2.4-3.5v4.7l1.6,0.7l1.8,0.7l-1.8,0.7l-1.6,0.7v4.5l-2.4-3.5
		l-3.8,1.4l2.6-3.5L184,217.2z M203,232.8l-3.2,1.4v4.5l-2.2-3.5l-3.8,1.4l2.4-3.5l-2.4-4.5l3.8,1.7l2.2-3.5v4.7L203,232.8z
		 M204.7,221.5l-2.5-4.3l2.5,1.1l1.3,0.6l2.2-3.5v4.7l3.2,1.4l-3.2,1.4v4.5l-2.2-3.5l-1.3,0.5l-2.5,0.9l2.5-3.4l0.1-0.1L204.7,221.5
		z M204.7,197.9l-2.5-4.6l2.5,1.2l1.3,0.6l2.2-4v5l3.2,1.4l-3.2,1.4v4.7l-2.2-4l-1.3,0.6l-2.5,1.2l2.5-3.4l0.1-0.1L204.7,197.9z
		 M221,208.7l-3.4,1.7v4.7l-0.2-0.4l-1.8-3.8l-4,2.1l2.4-4.3l-2.4-4l4,1.9l1.8-3.6l0.2-0.4v4.7L221,208.7z M220.4,193.4l3.6,1.9l2-4
		v5l3.4,1.3l0.3,0.1l-0.3,0.1l-3.4,1.3v4.7l-2-4l-3.6,1.9l2.4-3.5L220.4,193.4z M239.4,208.7l-3.6,1.7v4.7l-2.4-4.3l-1.9,1.1l-1,0.6
		l-0.7,0.4l0.7-1.1l1-1.5l1.1-1.7l-1.1-1.6l-1-1.4l-0.7-1l0.7,0.4l1,0.5l1.9,1l2.4-4v4.7L239.4,208.7z M211.5,228.5l4,1.7l1.8-3.2
		l0.2-0.3v4.7l3.4,1.4l-3.4,1.4v4.5l-0.2-0.3l-1.8-3.2l-4,1.4l2.4-3.5L211.5,228.5z M220.4,217.2l3.6,1.7l2-3.5v4.7l3.4,1.3l0.3,0.1
		l-0.3,0.1l-3.4,1.3v4.5l-2-3.5l-3.6,1.4l2.4-3.5L220.4,217.2z M229.7,236.6l0.7-0.9l1-1.3l1.1-1.4l-1.1-1.8l-1-1.6l-0.7-1.1
		l0.7,0.3l1,0.5l1.9,0.9l2.4-3.5v4.7l3.6,1.4l-3.6,1.4v4.5l-2.4-3.5l-1.9,0.8l-1,0.4L229.7,236.6z M230.4,180.9l1,0.4l1.9,0.8
		l2.4-3.1v4.5l3.6,1.2l-3.6,2.1v4.3l-2.4-4l-1.9,1.1l-1,0.6l-0.7,0.4l0.7-1.1l1-1.5l1.1-1.7l-1.1-1.7l-1-1.5l-0.7-1.1L230.4,180.9z
		 M197.6,206.6l2.2-4v4.7l3.2,1.4l-3.2,1.7v4.7l-2.2-4.3l-3.8,2.1l2.4-4.3l-2.4-4L197.6,206.6z M243,289.4L243,289.4l-0.2-0.3h-0.1
		v15.2h-0.5h-6.9v-37.7h6.8h0.8h0h0.2h1h1.1c7.5,0,12.6,3.3,12.6,11.4c0,4.8-2.7,9.6-7.7,10.5l10.7,15.9h-8.9l-7.8-12.9l-1-1.7
		L243,289.4z M132.1,266.5h7.4v31.3h0.3h10.1v6.4h-10.1h-7.7V266.5z M500.2,289.1v-22.6h7.4v21.1c0,4.7,0.4,11.2,6.7,11.2
		c6.3,0,6.7-6.6,6.7-11.2v-21.1h7.4v22.6c0,9.2-3.9,16.2-14,16.2C504.1,305.2,500.2,298.3,500.2,289.1z M215.5,134.6l1.8-3.4
		l0.2-0.4v5l3.4,1.4l-3.4,1.4v4.5l-0.2-0.4l-1.8-3.4l-4,1.7l2.4-3.5l-2.4-4.5L215.5,134.6z M191.9,126.6l-1.6,0.7v4.5l-2.4-3.8
		l-3.8,2.1l2.6-4l-2.6-4.5l3.8,1.7l2.4-3.1v4.3l1.6,0.7l1.8,0.7L191.9,126.6z M180.5,117.1c0.4-0.2,0.7-0.5,1.1-0.7v2.6L180.5,117.1
		z M179.3,158.4L179.3,158.4l2.3-3.3v4.3l3.6,1.4l-3.6,1.4v4.7l-2.2-3.5l-0.1,0l-3.8,1.6l2.6-3.8l-2.6-4.7L179.3,158.4z M88,301.2
		l13.8-36.4l2-5.2h8l2.7,7.3l12.6,34.2l4.7,12.7h-4.7h-4.5l-3.8-11.1h-4.4h-12.6h-5.2l-4.3,11.1H88h-4.8L88,301.2z M566.2,304.2
		l-3-23.4h-0.1l-8.6,23.9H552l-8.3-23.9h-0.1l-3.4,23.4h-7.4l6.4-38.7h5.2l9.3,24.9l8.9-24.9h5.3l5.7,38.7H566.2z M299.5,243.2
		h-55.3l0-139.2h0.5V89c17.5-5.2,35.9-8.7,54.9-10.6V243.2z M194.3,109.3l3.3,1.2l2.2-3.5v4.7l3.2,1.4l-3.2,1.7v4.3l-2.2-3.8
		l-3.8,2.1l2.4-4l-2.2-3.8C194.1,109.4,194.2,109.3,194.3,109.3z M171.9,122.5v1.9l3.6,1.4l-3.6,1.4v4.5l-1.8-3.8l-4,2.1l2.4-4
		l-0.5-0.9C169.2,124.2,170.6,123.3,171.9,122.5z M151.9,243.2h-12.1v-95.5c3.9-3.6,7.9-7.2,12.1-10.6V243.2z M127.1,243.2h-12.6
		v-67.5c3.9-5.2,8.2-10.3,12.6-15.2V243.2z M101.9,243.2H88v-20.6c3.8-9.7,8.4-19.2,13.8-28.2V243.2z M88,331.6h13.8v48.8
		c-5.4-9.1-10-18.5-13.8-28.2V331.6z M114.5,331.6h12.6v82.7c-4.5-4.9-8.7-10-12.6-15.2V331.6z M139.8,331.6h12.7v106.5
		c-4.4-3.5-8.6-7.2-12.7-11V331.6z M165.1,331.6h14.2V457c-4.9-3-9.6-6.1-14.2-9.3V331.6z M191.9,331.6h12.8v139.1
		c-4.4-2-8.6-4.2-12.8-6.4V331.6z M217.4,331.6h12v149.2c-4.1-1.5-8.1-3-12-4.6V331.6z M243.2,331.6h1h55.3v164.8
		c-19.2-1.8-37.7-5.5-55.3-10.7c-0.3-0.1-0.7-0.2-1-0.3L243.2,331.6z"/>
	<path class="st0" d="M552.5,94.8C493,44,413.9,16,329.8,16S166.6,44,107.1,94.8c-59.6,50.9-92.4,118.7-92.4,190.7
		s32.8,139.8,92.4,190.7c59.5,50.8,138.6,78.8,222.7,78.8s163.2-28,222.7-78.8c59.6-50.9,92.4-118.7,92.4-190.7
		S612.1,145.8,552.5,94.8z M549.7,473.1c-58.7,50.2-136.8,77.8-219.9,77.8c-83.1,0-161.2-27.6-219.9-77.8
		C51.3,423,19,356.4,19,285.6c0-70.8,32.3-137.4,90.9-187.5c58.7-50.2,136.8-77.8,219.9-77.8c83.1,0,161.2,27.6,219.9,77.8
		c58.6,50.1,90.9,116.7,90.9,187.5C640.6,356.4,608.3,423,549.7,473.1z"/>
	<path class="st0" d="M95.8,407.9c-1.9-2.3-8.1-6.8-15.1-1.1c-2.9,2.3-6.8,8.3-1.7,14.6c5.5,6.8,12.3,3.9,15,1.7
		C99.9,418.3,99,411.8,95.8,407.9z M92,420.5c-3.5,2.8-9.3,4.5-12.5,0.4c-2.8-3.5-0.9-8.3,3.1-11.6c5.7-4.6,10.6-3.7,12.8-0.9
		C97.1,410.5,97.8,415.8,92,420.5z"/>
	<path class="st0" d="M120.9,435.4l0.4-0.5l-4.7-4.5l-0.4,0.5c1.4,1.5,2.1,2.4,0.6,3.9l-7.6,7.9c-2.5,2.5-5.5,4-9.1,0.5
		c-3.6-3.5-1.8-6.5-0.3-8l8.4-8.7c1.1-1.2,1.9-1.4,3.5,0.2l0.4-0.5l-5.7-5.5l-0.4,0.5c1.3,1.4,1.3,1.8-0.1,3.2l-7.8,8.1
		c-2.6,2.7-3.6,6.3,0.8,10.5c4.5,4.4,7.9,3.2,10.8,0.2l7.6-7.9C118.6,434.1,119.7,434.3,120.9,435.4z"/>
	<path class="st0" d="M135,447.3l3.8,3.1c0.9,0.7,0.8,1.2,0.8,2.3c0,1.4-0.3,2.8-0.4,4.1l0.5,0.1l2.7-5.1c-0.8-0.3-1.6-0.7-2.3-1.3
		l-11.7-9.5c-0.7-0.6-1.2-1.3-1.7-2l-4.5,3.6l0.2,0.4c1.4-0.3,2.7-0.9,4.1-1.1c1.1-0.2,1.6-0.4,2.4,0.3l3.9,3.1l-11.3,13.9
		c-0.8,1-1.5,0.8-3.2-0.4l-0.4,0.5l6.7,5.4l0.4-0.5c-1.7-1.5-1.9-2.1-1.1-3.1L135,447.3z"/>
	<path class="st0" d="M154.2,460.8c-2.4-1.6-4.9-3.3-7.2-4.8l-0.4,0.5c1.3,0.8,1.8,1.4,0.9,2.7l-9.1,13.4c-0.9,1.3-1.4,1.1-2.7,0.2
		l-0.4,0.5l6.5,4.4l0.4-0.5c-1.3-0.9-2.1-1.6-1.3-2.9l3.7-5.4l2.3,1.5c3.1,2.1,7.4,3.3,9.9-0.3C159.2,466.5,157.5,463,154.2,460.8z
		 M154.3,467.9c-2.9,4.3-5,3.2-8.4,1l-0.8-0.6l5-7.5c0.9-1.4,1.6-1.1,3.2,0.1C156.1,462.8,156,465.4,154.3,467.9z"/>
	<path class="st0" d="M175.2,473.9c-2.6-1.5-10-3.5-14.5,4.4c-1.9,3.2-3.4,10.2,3.6,14.2c7.6,4.4,12.9-0.8,14.6-3.8
		C182.7,482.2,179.6,476.5,175.2,473.9z M176.2,487.1c-2.2,3.9-7,7.5-11.5,4.9c-3.9-2.2-3.8-7.4-1.2-11.9c3.7-6.4,8.5-7.3,11.7-5.4
		C177.4,475.9,179.9,480.6,176.2,487.1z"/>
	<path class="st0" d="M200.4,489.4c-0.6-1.6-2.1-2.9-3.6-3.7c-3.2-1.6-6.9-0.7-8.5,2.6c-1.7,3.6-0.3,5.4,2.3,8c1.7,1.8,4,3.3,2.7,6
		c-0.7,1.4-2.7,3.6-6.3,1.8c-3.4-1.7-3.6-5-2.5-8l-0.5-0.3l-2.8,5.7l0.3,0.2l1.5-0.5c0.9,1.6,2.3,2.8,4,3.6c3.5,1.7,7.2,1.7,9.1-2.2
		c1.8-3.6-0.7-6.3-3.2-8.7c-1.6-1.5-3.1-2.9-2-5.3c1.2-2.5,3.5-3.5,6-2.2c1.2,0.6,1.9,1.7,2.3,3c0.4,1.5-0.1,3.6-0.4,5.2l0.5,0.2
		l2.7-5.6l-0.4-0.2L200.4,489.4z"/>
	<path class="st0" d="M211.8,493.2c-0.8-0.3-1.6-0.9-2.3-1.4l-3.3,4.7l0.3,0.3c1.3-0.7,2.3-1.6,3.6-2.3c0.9-0.5,1.4-0.8,2.4-0.4
		l4.6,1.9l-6.7,16.6c-0.5,1.2-1.2,1.2-3.2,0.5l-0.2,0.6l8,3.2l0.2-0.6c-2-0.9-2.5-1.4-2-2.6l6.7-16.6l4.6,1.8c1,0.4,1.1,1,1.5,2
		c0.4,1.3,0.5,2.7,0.8,4.1l0.5,0l1.1-5.7c-0.9-0.1-1.8-0.2-2.6-0.5L211.8,493.2z"/>
	<path class="st0" d="M249,515.3c-2.2-0.6-4.5,0.6-5.1,2.9c-0.6,2.2,0.6,4.5,2.8,5.2c2.2,0.6,4.5-0.6,5.2-2.9
		C252.5,518.2,251.2,515.9,249,515.3z"/>
	<path class="st0" d="M291.3,518c-1.8-1.6-3.5-2.9-6-3.3c-6.2-1.1-11.5,2.6-12.6,8.9c-1.1,6.5,2.1,11.2,8.6,12.3c2.4,0.4,4.8,0,7-1
		l0.6,1.5l0.6,0.1l1.2-6.6l-0.6-0.1c-1.4,3.6-4.5,6.2-8.7,5.5c-2.3-0.4-4-2.2-4.8-4.1c-1-2.4-1.2-4.3-0.7-6.9c0.3-1.9,1-4.1,2.1-5.7
		c1.6-2.2,4.3-3.7,7-3.3c4.2,0.7,6.1,4.5,6,8.5l0.5,0.1l1.2-6.9l-0.5-0.1L291.3,518z"/>
	<path class="st0" d="M314.9,536c-1,1.2-1.9,2-3.6,2.2c-1.3,0.1-2.5,0-3.8-0.1c-2.9-0.3-3.7-0.4-3.5-2.7l1.3-15.1
		c0.1-1.5,1-1.9,3-1.7l0.1-0.6l-8.2-0.7l-0.1,0.6c1.2,0.1,2.3,0.4,2.2,1.9l-1.4,16.1c-0.1,1.5-0.9,1.6-2.5,1.5l-0.1,0.6l17.2,1.5
		l2.3-6.6l-0.6-0.1C316.6,533.9,315.8,535,314.9,536z"/>
	<path class="st0" d="M341.7,535.9l-7.4-17.9c-0.7,0.9-1.4,1.8-2.4,2.4l0.6,0.9l-5.9,16.2c-0.3,0.8-1,1.4-1.9,1.5l0,0.6l5.5-0.1
		l0-0.6c-0.8-0.1-2.4-0.1-2.5-1.3c0-0.8,1.7-4.9,1.9-6l7.2-0.1c0.4,1.3,2.2,5.2,2.2,6c0,1.2-1.6,1.2-2.5,1.3l0,0.6l7.9-0.1l0-0.6
		C342.8,538.4,342.4,537.6,341.7,535.9z M329.9,530.8l3-8.6l3.6,8.5L329.9,530.8z"/>
	<path class="st0" d="M359.3,517.4l0.1,0.6c0.7,0,1.9,0,2,1c0.1,1.5-3.3,7.1-4,8.8l-2.9-4c-0.4-0.6-2.7-3.6-2.7-4
		c-0.1-1.1,1.3-1.2,2.1-1.3l-0.1-0.6l-7.6,0.7l0.1,0.6c1.4-0.1,2.2,1.3,2.9,2.2l5.5,7.9l0.6,7c0.1,1.5-0.9,1.8-2.1,1.9l0.1,0.6
		l7.6-0.7l-0.1-0.6c-1.3,0.1-2.4,0.1-2.5-1.5l-0.7-7.4l4.8-9.5c0.4-0.8,0.8-1.3,1.7-1.5l-0.1-0.6L359.3,517.4z"/>
	<path class="st0" d="M386.3,531.6l-9.5-16.8c-0.6,1-1.2,2-2.1,2.7l0.7,0.8l-3.9,16.8c-0.2,0.8-0.9,1.5-1.7,1.7l0.1,0.6l5.4-0.8
		l-0.1-0.6c-0.9,0-2.4,0.2-2.6-0.9c-0.1-0.8,1.1-5.1,1.2-6.2l7.2-1c0.6,1.3,2.8,4.9,2.9,5.7c0.2,1.2-1.4,1.4-2.3,1.5l0.1,0.6
		l7.8-1.1l-0.1-0.6C387.7,534,387.2,533.2,386.3,531.6z M374.1,528l1.9-8.9l4.6,8L374.1,528z"/>
	<path class="st0" d="M411.6,526.2c-0.6,1.4-1.2,2.5-2.7,3.2c-1.2,0.5-2.4,0.8-3.6,1c-2.9,0.7-3.6,0.8-4.1-1.5l-3.4-14.8
		c-0.3-1.4,0.3-2.1,2.3-2.6l-0.1-0.6l-8,1.9l0.1,0.6c1.2-0.3,2.3-0.4,2.6,1.1l3.6,15.8c0.3,1.5-0.3,1.8-1.9,2.2l0.1,0.6l16.9-3.9
		l0.2-7l-0.6,0.1C412.6,523.7,412.2,525,411.6,526.2z"/>
	<path class="st0" d="M438.7,514.5c-0.3,1.3-0.6,2.6-1,3.9c-0.5,1.5-1,2.6-2.4,3.4c-1.1,0.6-2.3,1-3.5,1.4c-2.8,0.9-3.5,1.1-4.2-1.1
		l-4.7-14.5c-0.5-1.4,0.2-2.1,2.1-2.8l-0.2-0.6l-7.8,2.5l0.2,0.6c1.2-0.4,2.3-0.6,2.7,0.9l5,15.4c0.5,1.5-0.2,1.8-1.7,2.3l0.2,0.6
		l16.5-5.3l-0.4-6.9L438.7,514.5z"/>
	<path class="st0" d="M463.3,505.9c-0.2,1.5-0.6,2.9-1.2,4.3c-0.7,1.6-1.3,2.1-2.7,2.7l-3.1,1.3c-1,0.4-2,0.7-2.5-0.5l-3.1-7.4
		l1.9-0.8c2.7-1.1,4.2-1,5.8,2l0.4-0.2l-3.4-8l-0.4,0.2c0.7,3.4-0.3,4.2-3.1,5.4l-1.5,0.6l-3.6-8.5l4.2-1.8c1.6-0.7,3.2-0.8,5.4,0.4
		c0.7,0.4,1.3,0.8,2,1.2l0.5-0.4l-3.3-3.9l-14.2,6l0.2,0.6c1.3-0.5,2.3-0.8,2.9,0.6l6.3,14.9c0.6,1.4-0.2,1.9-1.5,2.5l0.2,0.6
		l15.1-6.4l-1-5.5L463.3,505.9z"/>
	<path class="st0" d="M487.1,493.4c-0.1,1.5-0.3,3-0.7,4.4c-0.5,1.6-1.1,2.2-2.4,3l-3,1.6c-1,0.5-1.9,0.9-2.5-0.3l-3.9-7l1.8-1
		c2.6-1.4,4.1-1.5,6,1.4l0.4-0.2l-4.2-7.6l-0.4,0.2c1,3.3,0.2,4.2-2.5,5.7l-1.5,0.8l-4.5-8.1l4-2.2c1.5-0.8,3.1-1.2,5.4-0.2
		c0.7,0.3,1.4,0.6,2.1,1l0.5-0.4l-3.7-3.5l-13.5,7.5l0.3,0.6c1.2-0.7,2.2-1.1,3,0.3l7.9,14.2c0.7,1.3,0,1.9-1.2,2.6l0.3,0.6l14.4-8
		l-1.6-5.3L487.1,493.4z"/>
	<path class="st0" d="M514.6,480.4l-10.2-15.2l-0.4,0.3c-0.2,1-0.3,3.2-2.5,5.4l0.4,0.5c1.5-0.8,2.2-1.3,2.7-1
		c0.3,0.2,0.7,0.6,1.2,1.4l6.7,10c0.7,1.1,0.2,1.5-1.5,2.8l0.3,0.5l6.7-4.5l-0.3-0.5C515.6,481.3,515.3,481.5,514.6,480.4z"/>
	<path class="st0" d="M524.2,460.8c0.2-1.9,0.5-4.6-0.7-6.2c-0.9-1.1-2.7-1.8-4.7-0.2c-1.8,1.4-2.1,4.4-2.2,6.5l0.5,0
		c0.3-1.6,0.5-3.2,1.8-4.3c1.4-1.2,2.7-1,3.8,0.3c1.6,1.9,0.7,5,0.7,7.3c2-1.9,4.9-2.7,6.9-0.3c2,2.5,1.4,5.7,0,6.8
		c-2.4,2-4.3-0.9-5.8,0.3c-0.5,0.4-0.5,1.1-0.1,1.6c0.2,0.3,2.6,1.6,5.9-1.1c3-2.4,3.6-6.8,1.2-9.8
		C529.7,459.6,526.6,459.4,524.2,460.8z"/>
	<path class="st0" d="M538.3,447.4c-0.9,0.6-1.7,1.3-2.8,2l-2.6-3.5l5-4.5l-1.1-3.3l-0.5,0.4c0,0.9,0,1.2-0.6,1.8l-4.7,4.2l5.3,7.4
		c0.6-0.5,1.3-1,2-1.5c2.5-1.9,5.4-2.2,7.6,0.3c1.8,2,2.4,4.9,0.2,6.9c-1.9,1.7-4-0.3-5,0.5c-0.5,0.5-0.7,1.1-0.2,1.7
		c1.3,1.4,4.1-0.5,5.1-1.4c4.2-3.8,2.7-7.9,0.9-9.9C544.6,446.1,541.2,445.8,538.3,447.4z"/>
	<path class="st0" d="M67.3,378.8c-2,1.1-2.8,3.6-1.7,5.7c1.1,2,3.6,2.8,5.6,1.7c2-1.1,2.8-3.6,1.7-5.6
		C71.9,378.5,69.3,377.7,67.3,378.8z"/>
	<path class="st0" d="M67.2,355.5l0.6-0.2l-1.9-5.1l-0.6,0.2c0.2,0.8,0.7,2.3-0.4,2.7c-0.7,0.3-5.2,0-6.3,0.1l-2.5-6.8
		c1.1-0.8,4.2-3.7,5-4c1.1-0.4,1.7,1.1,2,2l0.6-0.2l-2.7-7.4l-0.6,0.2c0.3,1.6-0.3,2.2-1.7,3.4l-14.5,12.8c1.1,0.4,2.2,0.8,3.1,1.5
		l0.7-0.8l17.2,0.3C66,354.2,66.8,354.7,67.2,355.5z M48.6,353.1l6.9-6.1l2.2,6.2L48.6,353.1z"/>
	<path class="st0" d="M58.5,330.1l0.6-0.2l-4.2-16.8l-7,0l0.2,0.6c1.3,0.4,2.6,0.8,3.8,1.3c1.5,0.6,2.6,1.2,3.2,2.7
		c0.5,1.2,0.8,2.4,1.1,3.6c0.7,2.8,0.8,3.6-1.4,4.2l-14.7,3.7c-1.4,0.4-2.1-0.3-2.6-2.3l-0.6,0.2l2,8l0.6-0.2
		c-0.3-1.2-0.4-2.3,1.1-2.7l15.7-3.9C57.8,327.8,58.1,328.5,58.5,330.1z"/>
	<path class="st0" d="M52.4,303.5l0.6,0l-0.6-17.3l-6.8-1.5l0,0.6c1.2,0.6,2.4,1.3,3.5,2.1c1.3,0.9,2.3,1.7,2.6,3.3
		c0.3,1.2,0.3,2.5,0.3,3.7c0.1,2.9,0.1,3.7-2.3,3.8l-15.2,0.5c-1.5,0.1-2-0.7-2.1-2.8l-0.6,0l0.3,8.2l0.6,0c0-1.2,0.1-2.3,1.6-2.4
		l16.2-0.6C52.2,301.1,52.3,301.8,52.4,303.5z"/>
	<path class="st0" d="M34.6,272.3l16.2,1.1c1.5,0.1,1.6,1.2,1.5,2.9l0.6,0l0.6-8.6l-0.6,0c-0.1,1.7-0.3,2.8-1.9,2.7l-16.2-1.1
		c-1.5-0.1-1.6-1.2-1.5-2.9l-0.6,0l-0.6,8.6l0.6,0C32.9,273.3,33.1,272.2,34.6,272.3z"/>
	<path class="st0" d="M36.7,253.3l15.9,2.8c1.5,0.3,1.5,1.2,1.3,2.6l0.6,0.1l2.9-16.2l-5.1-2.1L52,241c1.1,1,2.1,2.1,2.9,3.3
		c1,1.4,1.1,2.2,0.8,3.7l-0.6,3.3c-0.2,1.1-0.5,2-1.8,1.8l-7.9-1.4l0.4-2c0.5-2.9,1.4-4.1,4.8-3.8l0.1-0.5l-8.6-1.5l-0.1,0.5
		c3.2,1.3,3.4,2.5,2.9,5.5l-0.3,1.6l-9.1-1.6l0.8-4.5c0.3-1.7,1-3.1,3.3-4.3c0.7-0.4,1.4-0.7,2.1-1l0-0.7l-5,0.6L34,255.3l0.6,0.1
		C34.8,254.1,35.2,253,36.7,253.3z"/>
	<path class="st0" d="M43.1,223.9l15.2,5.5c1.4,0.5,1.3,1.3,0.8,2.6l0.6,0.2c1-2.7,2.2-5.4,3.2-8.2c2.9-8.1,1.2-13.5-5.4-15.8
		c-5.4-2-11.1-0.9-14.4,8c-1.1,3-2,6-3.1,8.9l0.6,0.2C41.1,224.3,41.6,223.4,43.1,223.9z M43.5,217.3c2.3-6.3,7-8.1,13.2-5.8
		c5.4,2,7.8,6.7,5.7,12.1c-0.8,2.2-1.4,3.5-3.6,2.8l-14.3-5.2C42.6,220.5,42.7,219.5,43.5,217.3z"/>
	<path class="st0" d="M66.8,171.5l13.5,9.4c1.3,0.9,0.8,1.9-0.2,3.2l0.5,0.4l3.6-5.1l-0.5-0.4c-1,1.4-1.9,2-3,1.3l-12.8-9l0,0
		l19.6,3.4l0.3-0.4l-10.4-16.9l0,0l13,9.1c1.1,0.8,1,1.2-0.1,3.1l0.5,0.4l4.5-6.4l-0.5-0.4c-0.8,1.2-1.4,1.7-2.7,0.9l-13-9.1
		c-1.4-1-1.1-1.6-0.3-3l-0.5-0.4l-2.7,3.9l9.7,16L66.7,168l-3,4.3l0.5,0.4C65,171.7,65.7,170.8,66.8,171.5z"/>
	<path class="st0" d="M89.5,142.8l8.3,7.7c2.7,2.6,6.3,3.5,10.5-1c4.3-4.6,3.1-7.9,0-10.8l-8-7.5c-1.2-1.2-1-2.3,0-3.5l-0.5-0.4
		l-4.5,4.8l0.5,0.4c1.5-1.4,2.3-2.1,3.8-0.7l8,7.5c2.6,2.4,4.1,5.4,0.7,9.1s-6.5,1.9-8,0.5l-8.9-8.3c-1.2-1.1-1.5-1.9,0.1-3.5
		l-0.5-0.4l-5.4,5.8l0.5,0.4C87.8,141.4,88.1,141.4,89.5,142.8z"/>
	<path class="st0" d="M120.3,125.4c2.3-0.8,4.6-2.3,6.6,0c1,1.2,2.2,3.9-0.9,6.5c-2.9,2.4-6,1.2-8.3-1l-0.5,0.4l4.1,4.8l0.3-0.2
		l0.2-1.6c1.8-0.2,3.5-1,4.9-2.1c3-2.5,4.4-5.9,1.7-9.2c-2.6-3.1-6.1-2-9.2-0.6c-2,0.9-4,1.7-5.7-0.3c-1.8-2.1-1.8-4.6,0.4-6.4
		c1-0.9,2.3-1.1,3.6-0.9c1.6,0.2,3.3,1.6,4.6,2.5l0.4-0.3l-4-4.7l-0.3,0.3l-0.2,1.2c-1.7-0.1-3.5,0.7-4.8,1.8c-2.7,2.3-3.4,6-1,8.8
		C114.6,127.3,116.9,126.7,120.3,125.4z"/>
	<path class="st0" d="M129.9,105l9.3,13.3c0.9,1.3,0.2,1.9-1,2.7l0.4,0.5l13.5-9.4l-2.1-5.1l-0.5,0.2c0.1,1.5,0,3-0.3,4.4
		c-0.3,1.7-0.8,2.3-2,3.2l-2.8,1.9c-0.9,0.6-1.8,1.1-2.6,0l-4.6-6.6l1.7-1.2c2.4-1.7,3.9-1.9,6.1,0.7l0.4-0.3l-5-7.1l-0.4,0.3
		c1.4,3.2,0.6,4.2-1.9,6l-1.4,1l-5.3-7.6l3.8-2.6c1.4-1,2.9-1.5,5.4-0.7c0.7,0.2,1.5,0.5,2.2,0.8l0.4-0.5l-4-3.1l-12.6,8.8l0.4,0.5
		C128,104.3,129,103.8,129.9,105z"/>
	<path class="st0" d="M153.7,89.8l5.6,9.8c1.9,3.2,5,5.2,10.4,2.1c5.5-3.2,5.3-6.7,3.2-10.3l-5.5-9.5c-0.8-1.5-0.3-2.5,1.1-3.3
		l-0.3-0.5l-5.7,3.3l0.3,0.5c1.9-0.9,2.8-1.4,3.9,0.4l5.5,9.5c1.8,3.1,2.4,6.4-2,8.9c-4.3,2.5-6.7-0.1-7.8-1.9l-6.1-10.5
		c-0.8-1.4-0.8-2.2,1.1-3.3l-0.3-0.5l-6.8,3.9l0.3,0.5C152.4,88,152.7,88.1,153.7,89.8z"/>
	<path class="st0" d="M180,74.3l6.7,15c0.6,1.4-0.3,2-1.8,2.6l0.3,0.6l5.7-2.6l-0.3-0.6c-1.5,0.7-2.7,0.7-3.2-0.4l-6.4-14.3l0.1,0
		l15,13l0.5-0.2l-0.2-19.8l0.1,0l6.5,14.5c0.5,1.2,0.2,1.6-1.7,2.6l0.3,0.6l7.2-3.2l-0.3-0.6c-1.3,0.6-2.1,0.8-2.7-0.6l-6.5-14.5
		c-0.7-1.5-0.1-2,1.2-2.7l-0.3-0.6l-4.4,1.9l0.1,18.7l-14.2-12.4l-4.7,2.1l0.3,0.6C178.3,73.6,179.4,73.2,180,74.3z"/>
	<path class="st0" d="M231.6,67.5c2.2-0.7,3.5-3,2.8-5.2c-0.7-2.2-3-3.5-5.2-2.8c-2.2,0.7-3.4,3-2.8,5.2
		C227.1,66.9,229.4,68.2,231.6,67.5z"/>
	<path class="st0" d="M256.9,47.4l3.5,16.5c0.3,1.2-0.9,1.5-1.9,1.7l0.1,0.6c2.2-0.5,4.6-0.9,7-1.4c1.9-0.4,4.3-1.1,5.8-2.4
		c1.8-1.6,2.3-3.1,1.9-5.2c-0.6-2.9-3.2-4.6-6.1-4.3l0-0.1c2.1-1.1,3.2-3,2.7-5.4c-0.3-1.6-1.5-3-3.1-3.4c-2-0.5-3.9-0.2-5.9,0.3
		c-2.2,0.5-4.4,1-6.5,1.4l0.1,0.6C255.6,46.4,256.6,45.9,256.9,47.4z M270.1,58.1c0.7,3.3-0.7,5.3-4,6c-1.4,0.3-2.5,0.2-2.8-1.3
		l-1.7-7.9l1.2-0.3C266.1,53.9,269.1,53.7,270.1,58.1z M263.5,44.8c1.9,0.3,3,1.7,3.4,3.5c0.7,3.3-1.3,5-4,5.6l-1.4,0.3l-1.9-9
		C260.7,45,262.3,44.7,263.5,44.8z"/>
	<path class="st0" d="M283.6,42.4l2.3,16c0.2,1.5-0.7,1.8-2.1,2l0.1,0.6l16.3-2.3l0.4-5.5l-0.5-0.1c-0.6,1.4-1.3,2.7-2.2,3.8
		c-1,1.3-1.8,1.7-3.3,1.9l-3.4,0.5c-1.1,0.2-2.1,0.2-2.3-1.2l-1.1-7.9l2-0.3c2.9-0.4,4.3,0.1,5.1,3.4l0.5-0.1l-1.2-8.6l-0.5,0.1
		c-0.2,3.5-1.4,4-4.4,4.5l-1.6,0.2l-1.3-9.2l4.5-0.6c1.7-0.2,3.3,0,5.1,1.8c0.6,0.5,1.1,1.1,1.6,1.7l0.6-0.2l-2.1-4.6l-15.3,2.1
		l0.1,0.6C282.3,40.9,283.4,40.9,283.6,42.4z"/>
	<path class="st0" d="M312,39.1l0.8,16.2c0.2,1.5-0.5,1.7-2.1,1.8l0,0.6l7.8-0.4l0-0.6c-1.8,0.1-2.6,0-2.7-1.6l-0.4-7.1
		c1.3,0,2.7,0.1,3.7,1c1.9,1.8,4.5,5.8,5.9,7.9l5-0.3l0-0.6c-1.4,0.1-2.4-0.4-3-1.5c-1.3-2.4-3.5-5.2-5.5-7.2
		c2.8-1.1,4.6-2.6,4.4-5.8c-0.2-4.3-4.4-5.5-8-5.3c-2.8,0.1-5.5,0.4-8.2,0.6l0,0.6C311.2,37.4,312,37.5,312,39.1z M317.3,37
		c3.2-0.2,5.3,1.6,5.5,4.7c0.2,3.1-1.4,5-4.5,5.4c-0.9,0.1-1.8,0.2-2.7,0.3l-0.4-8.4C315,37.4,315.8,37.1,317.3,37z"/>
	<path class="st0" d="M356.8,50.9l-0.6,0c-0.7,1.1-1.5,2.3-2.4,3.3c-1,1.2-1.9,2.1-3.5,2.3c-1.2,0.1-2.5,0.1-3.8,0
		c-2.9-0.2-3.7-0.3-3.6-2.6l0.8-15.2c0.1-1.5,0.9-1.9,3-1.8l0-0.6l-8.2-0.4l0,0.6c1.2,0.1,2.3,0.3,2.2,1.8L340,54.4
		c-0.1,1.5-0.8,1.7-2.5,1.6l0,0.6l17.3,0.9L356.8,50.9z"/>
	<path class="st0" d="M373.2,59c-1.7-0.2-2.8-0.5-2.5-2.1l2.3-16c0.2-1.5,1.3-1.5,3-1.3L376,39l-8.5-1.2l-0.1,0.6
		c1.6,0.2,2.7,0.5,2.5,2.1l-2.3,16c-0.2,1.5-1.3,1.5-3,1.3l-0.1,0.6l8.5,1.2L373.2,59z"/>
	<path class="st0" d="M387.3,61.2c-2-0.5-2.6-1.2-2.4-2.2l3.2-14.9l12.3,20.8l0.4,0.1l3.9-18.1c0.2-1,1-1.4,3.1-1.3l0.1-0.6
		l-6.1-1.3l-0.1,0.6c1.8,0.6,2.5,0.9,2.2,2.4L401,60.2L389.8,41l-4.4-0.9l-0.1,0.6c1.1,0.3,1.6,1.2,2.2,2.3l-3.3,15.7
		c0,0.1,0,0.1,0,0.1c-0.4,1.5-1.5,1.3-2.9,1.1l-0.1,0.6l6.1,1.3L387.3,61.2z"/>
	<path class="st0" d="M430,66.5c2.2,0.7,4.6-0.5,5.3-2.7c0.7-2.2-0.5-4.6-2.7-5.3c-2.2-0.7-4.5,0.5-5.2,2.7
		C426.6,63.4,427.8,65.7,430,66.5z"/>
	<path class="st0" d="M457.9,83c-1.5-0.7-2.3-1.6-1.8-2.7l6.6-14.2l0.1,0l0.1,19.9l0.5,0.2l14.8-13.2l0.1,0l-6.7,14.4
		c-0.6,1.2-1,1.2-3,0.4l-0.3,0.6l7.1,3.3l0.3-0.6c-1.3-0.6-2-1.1-1.3-2.5l6.7-14.4c0.7-1.5,1.4-1.4,2.9-0.8l0.3-0.6l-4.3-2l-14,12.3
		l0-18.9l-4.7-2.2l-0.3,0.6c1,0.6,2,1.1,1.6,2.3l-7,14.9c-0.7,1.4-1.7,1.1-3.2,0.4l-0.3,0.6l5.7,2.7L457.9,83z"/>
	<path class="st0" d="M491.5,101.6c5.4,3.3,8.4,1.4,10.6-2.2l5.6-9.4c0.9-1.5,2-1.5,3.4-0.7l0.3-0.5l-5.6-3.4l-0.3,0.5
		c1.7,1.2,2.6,1.8,1.5,3.6l-5.6,9.4c-1.8,3-4.4,5.2-8.7,2.6c-4.3-2.6-3.2-5.9-2.1-7.8l6.2-10.4c0.8-1.4,1.6-1.8,3.5-0.6l0.3-0.5
		l-6.8-4.1l-0.3,0.5c1.6,1.1,1.7,1.4,0.7,3.1l-5.8,9.7C486.4,94.7,486.3,98.4,491.5,101.6z"/>
	<path class="st0" d="M511,105.9l-3.6,5.2l0.3,0.2l1.6-0.3c0.7,1.7,1.8,3.2,3.3,4.2c3.2,2.2,6.8,2.8,9.3-0.8
		c2.3-3.3,0.3-6.4-1.8-9.1c-1.4-1.7-2.6-3.4-1.1-5.5c1.6-2.3,4-2.9,6.3-1.3c1.1,0.8,1.6,1.9,1.8,3.3c0.2,1.6-0.7,3.6-1.2,5.1
		l0.4,0.3l3.6-5.1l-0.3-0.2l-1.2,0.1c-0.4-1.7-1.6-3.2-3-4.2c-2.9-2-6.7-1.8-8.8,1.3c-2.3,3.3-1.2,5.3,1,8.3c1.4,2,3.4,3.9,1.7,6.4
		c-0.9,1.2-3.2,3.1-6.5,0.8c-3.1-2.2-2.7-5.5-1.2-8.3L511,105.9z"/>
	<path class="st0" d="M539.5,112.3l-10.6,12.2c-1,1.2-1.8,0.7-2.9-0.3l-0.4,0.5l12.4,10.8l4.5-3.3l-0.3-0.5
		c-1.4,0.4-2.9,0.7-4.4,0.8c-1.7,0.1-2.5-0.2-3.6-1.2l-2.6-2.2c-0.8-0.7-1.5-1.5-0.6-2.5l5.3-6l1.6,1.3c2.2,1.9,2.8,3.3,0.8,6.1
		l0.4,0.3l5.7-6.6l-0.4-0.3c-2.8,2.1-3.9,1.6-6.2-0.4l-1.3-1.1l6.1-7l3.5,3c1.3,1.1,2.1,2.5,2,5c0,0.8-0.1,1.5-0.2,2.3l0.6,0.3
		l2.1-4.6l-11.6-10.1l-0.4,0.5C539.8,110.3,540.5,111.1,539.5,112.3z"/>
	<path class="st0" d="M551.4,113.2c0.4,0.1,1.1,0.1,1.4-0.3c0.5-0.5,0.5-1-0.1-1.5c-0.3-0.3-1-0.3-1.4-0.3l-6.3,0.5l0.9,0.8
		L551.4,113.2z"/>
	<path class="st0" d="M561,132.3l-12,10.8c-1.1,1-1.9,0.5-2.8-0.6l-0.5,0.4l11,12.2l4.8-2.7l-0.2-0.5c-1.5,0.3-3,0.4-4.4,0.3
		c-1.7-0.1-2.4-0.5-3.4-1.6l-2.3-2.5c-0.7-0.8-1.3-1.6-0.3-2.5l5.9-5.4l1.4,1.5c2,2.2,2.3,3.6,0,6.1l0.3,0.4l6.5-5.8l-0.3-0.4
		c-3,1.8-4.1,1.1-6.1-1.1l-1.1-1.2l6.9-6.2l3.1,3.4c1.2,1.3,1.8,2.7,1.4,5.2c-0.1,0.8-0.3,1.5-0.5,2.3l0.5,0.4l2.6-4.4l-10.3-11.5
		l-0.5,0.4C561.5,130.3,562.2,131.3,561,132.3z"/>
	<path class="st0" d="M575.3,181.6c4.3,7.5,9.6,9.6,15.6,6.1c5-2.9,7.8-8,3.1-16.1c-1.6-2.7-3.3-5.4-4.9-8.1l-0.5,0.3
		c0.6,1,1,2-0.3,2.8l-14,8.1c-1.3,0.8-1.8,0.2-2.6-1l-0.5,0.3C572.5,176.4,573.8,179,575.3,181.6z M576.2,177l13.2-7.6
		c1.7-1,2.4-0.3,3.6,1.7c3.4,5.8,1.7,10.5-4,13.8c-5,2.9-10.1,1.7-12.9-3.4C574.8,179.4,574.1,178.1,576.2,177z"/>
	<path class="st0" d="M604.2,196.1l-15.1,5.8c-1.4,0.6-1.9-0.2-2.4-1.6l-0.6,0.2l5.9,15.3l5.5-0.8l0-0.5c-1.5-0.3-2.9-0.7-4.2-1.3
		c-1.5-0.7-2.1-1.4-2.6-2.8l-1.2-3.2c-0.4-1-0.6-2,0.6-2.5l7.5-2.9l0.7,1.9c1.1,2.7,0.9,4.2-2.2,5.7l0.2,0.5l8.1-3.1l-0.2-0.5
		c-3.4,0.6-4.2-0.4-5.3-3.3l-0.6-1.6l8.7-3.3l1.6,4.3c0.6,1.6,0.7,3.2-0.6,5.4c-0.4,0.7-0.8,1.3-1.3,2l0.4,0.5l4-3.1l-5.5-14.4
		l-0.6,0.2C605.4,194.5,605.7,195.6,604.2,196.1z"/>
	<path class="st0" d="M605.6,229.4c-0.3,2.4,0,5.2-2.9,5.9c-1.5,0.4-4.5,0.2-5.4-3.7c-0.9-3.7,1.5-5.9,4.5-7.1l-0.1-0.6l-6.1,1.5
		l0.1,0.4l1.4,0.8c-0.6,1.7-0.7,3.6-0.2,5.4c0.9,3.8,3.4,6.6,7.5,5.5c3.9-1,4.4-4.6,4.6-8c0.1-2.2,0.2-4.3,2.8-4.9
		c2.7-0.7,4.9,0.4,5.6,3.2c0.3,1.3-0.1,2.5-0.8,3.6c-0.9,1.3-2.9,2.3-4.2,3l0.1,0.5l6-1.5l-0.1-0.4l-1-0.7c0.8-1.5,0.9-3.5,0.5-5.1
		c-0.9-3.5-3.9-5.7-7.5-4.8C606.4,223.5,605.8,225.8,605.6,229.4z"/>
	<path class="st0" d="M602.8,258.8l-0.6,0l0.4,5.5l0.6,0c0.1-0.9,0-2.4,1.1-2.5c0.8-0.1,5,1.4,6.1,1.6l0.5,7.2
		c-1.3,0.5-5,2.4-5.9,2.5c-1.2,0.1-1.3-1.5-1.4-2.4l-0.6,0l0.6,7.9l0.6,0c0.1-1.6,0.9-2.1,2.6-2.8l17.5-8.3
		c-0.9-0.7-1.9-1.3-2.5-2.3l-0.9,0.6l-16.5-5C603.5,260.4,602.9,259.7,602.8,258.8z M620,266.2l-8.3,4l-0.5-6.5L620,266.2z"/>
	<path class="st0" d="M621.6,289.3l-16.2-1.1c-1.5-0.1-1.6-0.8-1.5-2.5l-0.6,0l-1.2,17.3l6.6,2.2l0-0.6c-1.1-0.7-2.2-1.5-3.3-2.4
		c-1.2-1-2.1-1.9-2.2-3.5c-0.1-1.3,0-2.5,0.1-3.8c0.2-2.9,0.3-3.7,2.6-3.5l15.2,1.1c1.5,0.1,1.9,1,1.8,3l0.6,0l0.6-8.2l-0.6,0
		C623.4,288.3,623.2,289.4,621.6,289.3z"/>
	<path class="st0" d="M619,318.2l-15.9-2.8c-1.5-0.3-1.5-1-1.3-2.6l-0.6-0.1l-3,17l6.3,2.9l0.1-0.6c-1-0.9-2-1.8-3-2.7
		c-1.1-1.1-1.9-2.1-1.9-3.7c0-1.3,0.2-2.5,0.4-3.7c0.5-2.9,0.7-3.6,3-3.2l15,2.6c1.5,0.3,1.8,1.1,1.5,3.2l0.6,0.1l1.4-8.1l-0.6-0.1
		C620.8,317.5,620.5,318.5,619,318.2z"/>
	<path class="st0" d="M612.6,347l-15.6-4.5c-1.5-0.4-1.3-1.5-0.9-3.1l-0.6-0.2l-2.4,8.3l0.6,0.2c0.5-1.7,0.9-2.7,2.4-2.2l15.6,4.5
		c1.5,0.4,1.3,1.5,0.9,3.2l0.6,0.2l2.4-8.3l-0.6-0.2C614.6,346.4,614.1,347.4,612.6,347z"/>
	<path class="st0" d="M609.2,363.9c-0.5,1.3-1.1,2.2-2.5,1.6l-14.9-6.3c-1.4-0.6-1.2-1.5-0.6-2.8l-0.6-0.2l-6.4,15.1l4.5,3.2
		l0.3-0.4c-0.9-1.2-1.6-2.5-2.1-3.9c-0.6-1.6-0.5-2.4,0-3.8l1.3-3.1c0.4-1,0.9-1.9,2.2-1.3l7.4,3.1l-0.8,1.9
		c-1.1,2.7-2.3,3.6-5.5,2.6l-0.2,0.4l8,3.4l0.2-0.4c-2.9-2-2.7-3.2-1.6-6l0.6-1.5l8.5,3.6l-1.8,4.2c-0.7,1.6-1.7,2.8-4.2,3.5
		c-0.7,0.2-1.5,0.4-2.3,0.5l-0.1,0.6l5.1,0.5l6-14.2L609.2,363.9z"/>
	<path class="st0" d="M609.1,370.6l-0.5,1.1l0.9,5.5c0.1,0.4,0.3,1.1,0.7,1.2c0.7,0.3,1.1,0.2,1.4-0.5c0.2-0.4,0-1-0.2-1.4
		L609.1,370.6z"/>
	<path class="st0" d="M592.5,388.6c-3.5-2-5.4-0.7-8.1,1.7c-1.9,1.5-3.6,3.8-6.2,2.2c-1.3-0.8-3.4-2.9-1.4-6.4
		c1.9-3.3,5.2-3.2,8.2-1.9l0.3-0.5l-5.5-3.2l-0.2,0.3l0.4,1.6c-1.6,0.8-3,2.1-3.9,3.7c-1.9,3.3-2.2,7.1,1.6,9.2
		c3.5,2,6.4-0.2,8.9-2.6c1.6-1.5,3.2-2.9,5.4-1.6c2.4,1.4,3.2,3.7,1.8,6.1c-0.7,1.2-1.8,1.8-3.1,2c-1.5,0.3-3.6-0.4-5.2-0.7
		l-0.3,0.5l5.4,3.1l0.2-0.4l-0.2-1.2c1.6-0.5,3.1-1.9,3.9-3.4C596.4,394.1,595.7,390.4,592.5,388.6z"/>
	<path class="st0" d="M568.4,416.8c-1.8-1.5-4.4-1.2-5.9,0.6c-1.5,1.8-1.2,4.4,0.6,5.9c1.8,1.5,4.4,1.2,5.9-0.6
		S570.2,418.2,568.4,416.8z"/>
</g>
</svg>
