<svg id="Calque_1" xmlns="http://www.w3.org/2000/svg" viewBox="0 0 248.5 60.8"><style>.st0{fill:#fff}</style><path class="st0" d="M36.7 52.7c-1.4 1.3-2.6 2.9-4.2 3.8-4.5 2.5-8.9-.4-9.2-5.8-.3-4.7 1.9-8.8 3.2-13.1.5-1.6 1.3-3.2 1.8-4.9.2-.7-.2-1.5-.3-2.3-.8.2-1.9.1-2.4.6-8.1 8-15.8 16-19.8 26.8l-.3.6c-1.4 2.9-1.5 2.9-4.3 1.4-1.4-.7-1.4-1.5-.9-2.8C3.9 46.5 7.6 36.1 11 25.5c2.5-7.6 4.5-15.3 6.7-23 .4-1.2.3-3 2.5-2.4 2.8.8 3.9 2.2 3.3 4.2-2.6 8.5-5.1 16.9-7.8 25.4-1.2 3.7-2.7 7.3-4.1 10.9-.2.5-.3 1-.4 1.6.2.1.3.2.5.4 1.1-1.1 2.1-2.3 3.2-3.4 3.8-3.8 7.6-7.8 11.7-11.3 1.1-.9 3.6-.8 5.2-.3.7.2 1.2 2.4 1.3 3.6.1 1.5-.2 3.1-.7 4.4-2 5-2.9 10.3-3.9 15.6-.7 3.4.6 4.6 3.9 3.3 1.4-.5 2.6-1.4 3.9-2.1.1 0 .2.2.4.3zM143.9 40.3c1.2 2.2-.1 3.5-1.3 4.3-.9.6-2.7.7-3.7.2-2.8-1.4-3.7-4.1-3.5-7.1.2-2.9 1.3-5.5 4.3-6.7 6.7-2.5 12.8 1.9 12.5 9-.3 5.8-2.2 11.1-6.8 15.1-3.2 2.8-6.8 4.5-10.9 3-4.5-1.7-6.9-5.5-7.3-10.2-.5-5.4.1-10.8 1.5-16 2.4-9 4.8-18 7.3-27.1.1-.4.1-.8.2-2-1.9 1.2-3.6 1.7-4.5 3-.8 1.1-.8 2.9-1.2 4.8-1.3-1.3-2.7-2.5-3.8-3.8-.2-.3.3-1.6.7-1.9 3.3-1.6 6.5-3.4 10-4.5 1.4-.4 3.3.9 4.9 1.6.3.1.3 1.3.1 1.9-2.5 8-5.1 15.9-7.5 23.9-2.1 7.3-3.8 14.6-2.9 22.3.2 1.8 1 3.7 2.2 5 2 2.3 6.3 1.6 8.4-1.5 3.7-5.2 5.5-11 4.9-17.5-.2-2.1-1-3.6-3.2-4-2-.3-3.6.7-4.3 3.1-.5 1.8-.5 3.8-.5 5.7 0 .6.7 1.6 1 1.6.7 0 1.4-.5 2-1 .5.1.8-.5 1.4-1.2zM231.7 23.7c-2.1.7-3.8 1-4.4-1.5-.3-1.1-.2-1.8 1.2-1.9 4.2-.4 4.2-.5 5.3-4.7 1.1-4.3 2.2-8.6 3.2-12.9 3.3-.2 5.3 1.5 4.8 4.6-.5 3.5-1.4 7-2.2 10.5-.1.7-.2 1.3-.4 2.3h9.1c0 .2.1.4.1.5-.6.2-1.1.5-1.7.6-2.3.5-4.7.8-7 1.4-.7.2-1.6.8-1.8 1.4-2.8 8.2-4.9 16.7-5.9 25.3-.4 3.5 2 5.9 5.7 6.1-1.6 2.4-3.3 2.7-5.7 1.3-4.4-2.6-5.2-6.9-4.8-11.2.5-4.8 1.8-9.6 2.8-14.3.6-2.4 1.1-4.7 1.7-7.5zM74.2 28.8c4.4 1.3 6.9 4.4 7.8 8.6 2.7 12.5-8 23.2-20.6 20.9-6.3-1.2-11.3-4.1-14.4-9.9-4-7.7-.8-18.6 6.9-22.8 4.9-2.7 9.8-3.6 15-1.2.5.2 1 .6 1.5.9.2.1.2.3.1.2-2.2 0-4.6-.3-6.9.1-6.4 1-10.7 4.9-13 10.8-2.3 5.7-1 11.1 2.7 15.9 3.3 4.3 9.9 5.6 15.4 3.4 8.8-3.6 12.8-15.9 7.7-23.9-.6-1.2-1.4-2.1-2.2-3zM203.9 36.8c.4-.9.7-2 1.2-2.8 1.4-2.2 2.8-4.5 4.6-6.4 2-2.1 4.7-1.5 7.1-.5 2.3 1 3.4 3.4 2.9 5.5-.4 1.6-2.4 2.7-3.6 4.1-.2-.1-.5-.2-.7-.4 0-.6-.1-1.1-.1-1.7 0-.6.4-1.3.2-1.9-.3-1.4-.4-3.3-1.4-4-1.5-1.1-3.5-.1-4.4 1.3-1.6 2.5-3.4 5.1-4 8-1.2 5.7-1.7 11.5-2.3 17.3-.1 1.4-.3 2.5-1.9 2.4-1.6 0-2.5-.8-2.5-2.6-.1-6-.2-12.1-.4-18.1 0-1.6-.4-3.2-.5-4.9-3.6 1-4.9 3.8-4.2 7.9-1.2-1.1-2.5-2.1-3.6-3.3-.2-.2.4-1.4.9-1.9 2-1.9 4.1-3.9 6.3-5.4.9-.6 2.6-.6 3.8-.3.7.2 1.4 1.4 1.6 2.2.4 1.7.4 3.5.5 5.3.1.2.3.2.5.2zM99.3 32.3c-4 2.2-4.9 4.2-3.5 8-2-.5-3.3-1.7-4.3-3.2-.2-.3.3-1.2.7-1.6 2.2-2 4.3-4.1 6.7-5.7 1-.7 2.7-.4 4-.2.6.1 1.1 1.3 1.2 2.1.3 1.7.4 3.4 1 5.3.4-.8.7-1.7 1.2-2.5 1.3-2.1 2.6-4.3 4.1-6.2 2-2.4 4.6-2 7.2-1.1 2.5.8 3.1 3 3.4 5.3.1 1.2-2.8 4.3-3.9 4-.3-.1-.6-.9-.6-1.4 0-1.4.3-2.9.1-4.2-.3-1.9-1.5-2.5-3.3-1.9-2.2.7-3.8 2.3-4.4 4.4-1.3 4.1-2.5 8.2-3.3 12.4-.6 3.3-.7 6.7-.9 10.1-.1 1.1-.1 2-1.5 2-1.3 0-2.5-.1-2.8-1.7-.1-.6-.1-1.3-.1-1.9-.1-6.3-.3-12.6-.5-19 0-.9-.3-1.8-.5-3zM83.7 23.6c.2-3.6-.6-5.5-2.3-5.8-2.2-.4-3.9 1.1-5.3 4.9-1.8-.7-2.6-2.3-2.2-4.4.4-2.7 3.5-4.6 7.1-5.2 1.7-.3 4.7 2.7 5.5 5.2.6 2-.3 3.9-2.8 5.3zM55.5 19.5c-1.6-2.3-3.2-4.3-6-3.3-2.3.9-2.9 3.9-1.8 8-4.3-2.4-5.5-4.1-4.3-7.3 1-2.8 3.8-4.9 5.7-4.4 4.9 1.1 6.7 3 6.4 7z"/><path class="st0" d="M64.3 41.5c.3 1.6 0 4.1 1.1 5.3 1.8 2 3.7-.5 5.6-1.2-.5 2.6-3.9 4.1-6.4 2.6-1.3-.7-2.3-1-3.8-.4-2.8 1.1-5.3-.6-6.1-4.2 1.1.9 1.8 1.5 2.5 2.1 1.8 1.6 3.5 1.4 4.9-.7.9-1.2 1.6-2.6 2.2-3.5zM57.5 36.3c.7-1.1 1.4-2.1 2.4-3.6.9 1.2 1.6 2.1 2.7 3.5-1.9.3-3.2.6-4.6.8-.2-.3-.4-.5-.5-.7zM73.1 36.8c-1.8.4-3.1.6-5 1 1-1.6 1.7-2.7 2.6-4 .7 1 1.4 1.8 2.4 3zM168.5 47.5c4.6-.7 8.7-2.5 12.2-5.6 1.4-1.3 2.6-2.9 2.1-4.9-.4-1.9-4.3-4.5-6.4-4.6-4.3-.2-10.2 3.7-12.3 8.3-.7 1.6-1.2 3.5-4 2.5 2.5 2 2.1 4.6 2.1 7 0 .4.1.7.2 1.1 1.9 7.1 10.7 9.4 16.3 4.1.9-.8 1.5-1.8 2.3-2.8l-.6-.6c-1.6 1-3.1 2.1-4.7 2.9-2.3 1.1-4.8 1.9-7.2.3-2.1-1.4-1.9-3.5-1.9-5.6 0-1.4.5-1.9 1.9-2.1zm9-12.4c.6-.1 1.6.1 1.7.4.2.7.3 1.7-.1 2.4-1.4 3.1-4.1 4.9-7 6.5-1.3.7-2.6 1.1-4.1 1.7-.1-4 5.8-10.3 9.5-11z"/></svg>