<?xml version="1.0" encoding="utf-8"?>
<!-- Generator: Adobe Illustrator 23.0.0, SVG Export Plug-In . SVG Version: 6.00 Build 0)  -->
<svg version="1.1" id="Calque_1" xmlns="http://www.w3.org/2000/svg" xmlns:xlink="http://www.w3.org/1999/xlink" x="0px" y="0px"
	 viewBox="0 0 1280.17 1395.29" style="enable-background:new 0 0 1280.17 1395.29;" xml:space="preserve">
<style type="text/css">
	.st0{fill:#FFFFFF;}
</style>
<path class="st0" d="M274.93,735.58V423.57c0-23.36,16.71-42.99,39.9-46.71c3.46-0.55,6.99-0.86,10.49-0.86
	c80.33-0.05,160.66-0.09,240.99,0c19.67,0.02,35.05,8.16,44.98,25.51c3.75,6.54,5.36,13.74,5.36,21.31
	c-0.01,208.29-0.01,416.59-0.01,624.88c0,23.05-15.45,42.08-38.13,46.77c-3.51,0.72-7.15,1.12-10.74,1.12
	c-81.76,0.06-163.52,0.06-245.27,0.04c-22.18-0.01-42.04-15.97-46.67-37.55c-0.61-2.85-0.87-5.84-0.87-8.76
	C274.93,944.73,274.93,840.16,274.93,735.58z M309.89,894.25c0,32.32-0.03,64.64,0.01,96.96c0.03,25.11,18.99,44.04,44.02,44.04
	c59.89,0,119.78,0.01,179.67,0c23.78,0,43.07-19.21,43.07-42.9c0.01-65.21,0.01-130.43,0-195.64
	c-0.01-23.58-19.26-42.88-42.79-42.88c-60.37-0.01-120.73-0.01-181.1,0c-7.88,0-15.26,1.99-21.92,6.18
	c-13.91,8.74-20.87,21.5-20.93,37.85C309.82,829.99,309.89,862.12,309.89,894.25z M312.37,579.92c0,32.32-0.04,64.65,0.01,96.96
	c0.04,24.71,19.09,43.76,43.73,43.77c59.8,0.02,119.59,0.03,179.39-0.01c24.53-0.01,43.6-19.13,43.6-43.58V483.71
	c0-25.88-18.64-44.62-44.55-44.63c-59.13-0.03-118.26-0.03-177.39,0c-26.09,0.01-44.77,18.72-44.78,44.74
	C312.36,515.85,312.37,547.89,312.37,579.92L312.37,579.92z M919,888.84v2.95h-40.02v-2.99c11.61-1.75,19.65-8.79,26.53-17.45
	c8.81-11.08,17.5-22.25,26.17-33.45c0.52-0.67,0.78-2.23,0.37-2.84c-8.67-12.94-17.15-26.03-26.32-38.6
	c-7.35-10.07-12.03-13.22-24.51-14.85v-2.88h52.39v2.89c-2.16,0.41-4.34,0.62-6.4,1.23c-4.75,1.42-6.34,4.67-3.92,8.96
	c3.07,5.45,6.63,10.62,10.07,15.86c3.27,4.98,6.65,9.89,10.19,15.13c1.02-1.26,1.84-2.26,2.64-3.27
	c6.15-7.86,12.31-15.7,18.43-23.58c1.1-1.42,2.17-2.91,2.98-4.5c2.12-4.16,0.13-8.15-4.45-9.01c-2.12-0.4-4.3-0.51-6.59-0.78v-2.92
	h40v3.06c-9.45,0.52-16.05,5.86-21.6,12.8c-8.79,10.98-17.48,22.03-26.13,33.12c-0.46,0.59-0.59,2.04-0.2,2.62
	c11.03,16.26,22.07,32.53,33.32,48.66c4.03,5.78,9.6,9.42,17.26,9.64c0.05,1.08,0.1,2.05,0.15,3.18h-48.82
	c-0.05-0.91-0.1-1.81-0.15-2.9c1.97-0.28,3.85-0.42,5.66-0.83c4.86-1.09,6.81-4.93,4.8-9.48c-0.64-1.47-1.55-2.84-2.44-4.18
	c-6.67-10.05-13.36-20.09-20.05-30.13c-0.31-0.46-0.67-0.89-1.57-2.08c-0.34,0.74-0.47,1.32-0.81,1.75
	c-8.11,10.42-16.28,20.8-24.36,31.25c-2.08,2.69-4.51,5.52-2.76,9.27c1.72,3.67,5.39,3.75,8.81,4.08
	C918.01,888.61,918.37,888.71,919,888.84L919,888.84z M797.79,822.71c3.09-3.93,6.07-7.71,9.03-11.51
	c4.55-5.85,9.21-11.61,13.57-17.6c4.42-6.07,2.13-10.79-5.39-11.57c-1.4-0.15-2.81-0.17-4.34-0.26v-3.05h39.98l0.18,3.07
	c-9.98,0.52-16.61,6.31-22.32,13.46c-8.53,10.69-16.99,21.45-25.39,32.25c-0.52,0.67-0.75,2.24-0.34,2.86
	c10.67,15.83,21.38,31.63,32.23,47.33c4.32,6.25,9.94,10.74,18.32,10.92c0.05,1.11,0.1,2.09,0.15,3.22h-48.59v-2.94
	c1.97-0.3,3.96-0.43,5.86-0.92c4.04-1.04,5.8-4.34,4.59-8.32c-0.22-0.72-0.45-1.48-0.86-2.1c-7.62-11.57-15.26-23.12-23.14-35.05
	c-1.31,1.65-2.41,3.02-3.5,4.41c-6.63,8.45-13.26,16.89-19.86,25.36c-1.57,2.02-3.17,4.06-4.46,6.26c-2.47,4.24-0.7,8.24,4.07,9.41
	c1.73,0.42,3.53,0.6,5.51,0.93c0.05,0.91,0.09,1.82,0.14,2.92h-40.08v-2.97c12.47-1.91,20.69-9.99,28.03-19.36
	c8.6-11,17.23-21.97,25.97-33.12c-2.46-3.67-4.84-7.31-7.32-10.88c-7.42-10.68-14.54-21.59-22.41-31.93
	c-6.38-8.37-11.42-10.53-22-11.79v-3.03h52.3v2.86c-2.37,0.49-4.74,0.75-6.96,1.48c-3.96,1.31-5.27,4.23-3.73,8.06
	c0.6,1.48,1.39,2.93,2.27,4.26c5.72,8.63,11.48,17.23,17.24,25.83C796.86,821.64,797.25,822.05,797.79,822.71L797.79,822.71z
	 M814.43,633.2c2.72-3.01,5.24-6.24,8.2-8.97c5.58-5.13,12.22-7.74,19.88-6.43c8.64,1.47,13.01,7.51,14.73,15.45
	c1.02,4.69,1.22,9.61,1.33,14.43c0.26,12.07,0.04,24.14,0.44,36.2c0.24,7.31,2.37,9.02,9.66,9.47c0.36,0.02,0.72,0.1,1.17,0.17
	c0.07,0.44,0.16,0.8,0.17,1.16c0.01,0.46-0.06,0.92-0.11,1.53h-37.46v-2.67c1.88-0.17,3.76-0.22,5.6-0.54
	c3.82-0.66,5.81-2.73,6.49-6.55c0.1-0.56,0.21-1.13,0.2-1.69c-0.14-14.83-0.05-29.65-0.54-44.47c-0.34-10.22-7.63-14.75-17.38-11.5
	c-5.26,1.75-9.08,5.43-12.75,9.3c-0.55,0.58-0.67,1.73-0.67,2.62c-0.01,13.98-0.03,27.95,0.09,41.92
	c0.07,8.08,2.35,10.27,10.58,10.72c0.46,0.02,0.91,0.11,1.5,0.18v2.69h-37.7c-0.05-0.83-0.09-1.69-0.14-2.48
	c0.38-0.19,0.54-0.33,0.71-0.34c8.69-0.63,10.84-2.8,10.84-11.49c0.02-27.76-0.04-55.52-0.09-83.28c0-1.23-0.09-2.48-0.27-3.69
	c-0.84-5.72-3.08-7.22-8.58-5.77c-2.72,0.71-2.72,0.71-3.67-2.48c8.77-2.94,16.87-7.81,26.57-9.63v55.31
	C813.64,632.66,814.03,632.93,814.43,633.2L814.43,633.2z M624.13,622.69v-2.79h26.75v2.98c0,15.97-0.03,31.94,0.03,47.91
	c0.01,2.74,0.19,5.53,0.73,8.21c1.43,7.22,7.99,10.95,15.4,9.01c5.94-1.56,10.4-5.39,14.54-9.62c0.65-0.67,0.74-2.08,0.75-3.14
	c0.05-13.69,0.04-27.38,0.03-41.07c-0.01-8.31-1.91-10.37-10.22-11.15c-0.56-0.05-1.12-0.09-1.95-0.16
	c-0.06-0.95-0.12-1.83-0.19-2.92h26.42v3.07c0.03,17.39,0.05,34.79,0.11,52.19c0.01,2.18,0.13,4.38,0.44,6.53
	c0.77,5.37,3.33,6.96,8.57,5.49c0.72-0.21,1.44-0.43,2.34-0.7c0.28,0.5,0.56,0.95,0.78,1.44c0.18,0.41,0.29,0.86,0.41,1.26
	c-6.42,3.95-22.77,9.66-26.66,9.2v-15.17c-3.52,3.31-6.55,6.24-9.68,9.07c-3.82,3.47-8.23,5.83-13.45,6.27
	c-11.54,0.97-19.8-5.6-21.45-17.19c-0.59-4.12-0.86-8.32-0.91-12.49c-0.12-11.41-0.03-22.81-0.05-34.22c0-1.42-0.08-2.85-0.25-4.26
	c-0.49-4.22-2.91-6.63-7.18-7.19C627.77,623.02,626.07,622.89,624.13,622.69L624.13,622.69z M629.24,856.15
	c1.06-15.82,5.35-28.42,17.27-36.85c20.73-14.66,49.35-3.42,55.59,21.74c3.77,15.19,0.28,29.08-9.41,41.21
	c-13.06,16.35-48.21,20.14-60.47-12.82C630.46,864.7,629.96,859.5,629.24,856.15L629.24,856.15z M688.52,858.02
	c-0.18-0.04-0.36-0.07-0.54-0.11c-0.2-2.74-0.31-5.5-0.61-8.23c-1.04-9.22-3.61-17.89-9.87-25.04c-5.85-6.67-15.04-8.01-22.47-3.38
	c-3.91,2.45-6.11,6.2-7.54,10.41c-3.01,8.87-2.8,17.95-1.39,27.05c1.26,8.08,3.87,15.68,9.01,22.17c4.43,5.59,10.23,8.23,17.33,6.9
	c6.92-1.29,11.38-5.84,13.11-12.45C687.05,869.69,687.57,863.8,688.52,858.02L688.52,858.02z M939.69,666.89
	c2.53,0.64,2.74,2.22,2.13,4.37c-3.43,11.99-9.52,21.91-21.93,26.12c-14.46,4.91-30.84-2.21-37.72-16.81
	c-7.23-15.33-6.93-31.14,1.07-46.09c9.05-16.91,32.15-22.39,47.02-11.75c8.69,6.22,11.93,15.09,12.04,25.77h-52.44
	c-2.54,11.83,5.12,27.69,16.2,33.58c7.17,3.82,14.55,3.95,21.86,0.24c4.25-2.16,6.98-5.79,9.14-9.89
	C938.02,670.61,938.84,668.7,939.69,666.89L939.69,666.89z M889.73,643.53h34.8c0.67-11.07-6.2-19.54-15.93-19.85
	C898.61,623.36,889.77,632.61,889.73,643.53z M530.39,299.65c1.57,4.11,3.03,7.91,4.62,12.04c-52.39,20.12-104.7,40.2-157.35,60.41
	c-1.54-3.99-3.02-7.84-4.64-12.03C425.46,339.94,477.77,319.86,530.39,299.65z M778.17,665.54c0.67,1.49,1.64,2.58,1.45,3.41
	c-2.25,10.02-6.71,18.71-15.45,24.71c-13.94,9.57-32.04,5.54-41.9-9.52c-6.62-10.12-7.8-21.43-6.36-33.12
	c1.59-12.91,8.02-22.79,19.28-29.3c12.39-7.16,29.06-5.35,37.91,4.23c2.08,2.26,3.7,5.35,4.47,8.33c1.16,4.52-1.11,7.7-5.18,8.66
	c-4.85,1.14-9.41-0.94-10.81-5.03c-0.42-1.24-0.71-2.58-0.8-3.89c-0.74-10.14-7.93-12.07-16.04-10.38
	c-5.41,1.12-8.87,4.87-11.51,9.48c-7.35,12.81-4.6,35.25,5.63,45.97c9.25,9.7,25.02,8.5,32.96-2.65
	C774,673.36,775.64,669.91,778.17,665.54L778.17,665.54z M949.02,629.61c-0.27-0.9-0.54-1.76-0.9-2.93
	c8.96-2.92,17.08-7.79,26.78-9.59v16.68c2.84-3.68,5.24-7.18,8.06-10.31c3.48-3.87,7.71-6.44,13.28-5.88
	c5.37,0.54,9.19,4.67,9.01,9.86c-0.18,5.37-5.38,8.83-10.27,6.61c-2.21-1-4.18-2.6-6.2-4c-2.24-1.56-4.41-1.49-6.04,0.66
	c-2.62,3.46-5,7.11-7.42,10.72c-0.34,0.5-0.39,1.26-0.39,1.91c0.01,12.54,0.03,25.1,0.1,37.64c0.01,1.13,0.23,2.26,0.42,3.39
	c0.87,5.05,3.47,7.7,8.51,8.62c1.3,0.24,2.62,0.38,4.14,0.59v2.69h-38.96v-2.66c1.83-0.26,3.62-0.41,5.35-0.79
	c3.88-0.84,6.06-3.11,6.21-7.07c0.25-6.55,0.23-13.11,0.22-19.66c-0.01-9.6-0.02-19.2-0.2-28.79c-0.15-7.94-2.62-9.7-10.42-7.77
	C949.94,629.58,949.56,629.56,949.02,629.61L949.02,629.61z M681.27,609.11c-5.28,0.02-9.3-3.9-9.28-9.04
	c0.02-4.91,4.14-9.08,9.06-9.16c5.06-0.09,9.19,4.06,9.19,9.23C690.24,605.31,686.46,609.09,681.27,609.11z M651.81,609.11
	c-5.27,0.02-9.26-3.94-9.18-9.12c0.07-5.01,4.14-9.08,9.09-9.09c5.09-0.01,9.18,4.14,9.14,9.29
	C660.83,605.35,657.03,609.09,651.81,609.11L651.81,609.11z M510.13,330.24v34.93c-1.68,0.69-2.37,0.27-2.36-1.51
	c0.03-10.62,0.04-21.24-0.01-31.87C507.76,329.99,508.51,329.68,510.13,330.24L510.13,330.24z"/>
<path class="st0" d="M482.31,789.86c-0.38-1.01-0.68-1.79-1.12-2.96c8.87-3.01,16.98-7.73,26.77-9.74v55.62
	c1.88-2.15,3.17-3.63,4.47-5.1c14.65-16.64,33.87-10.8,43.15,4.42c13.11,21.48,4.17,52.28-18.41,63.19
	c-11.47,5.55-22.88,4.26-34.07-1.02c-9.05-4.27-9.03-4.31-9.03-14.28c0-25.67,0.01-51.33-0.02-77c-0.01-2.65-0.1-5.33-0.43-7.96
	c-0.7-5.68-3.05-7.23-8.56-5.88C484.23,789.35,483.41,789.57,482.31,789.86z M507.87,861.16c0,6.94-0.05,13.87,0.05,20.8
	c0.02,1.1,0.42,2.54,1.19,3.23c10.83,9.86,24.85,11.85,33.31-4.67c6.34-12.39,6.32-25.81,0.52-38.56
	c-3.34-7.33-9.25-12.29-18.02-12.25c-6.1,0.03-10.76,3.17-15.08,7.1c-1.39,1.26-2.03,2.5-2,4.4
	C507.93,847.86,507.87,854.51,507.87,861.16L507.87,861.16z M461.07,697.46v-2.53c0.27-0.13,0.51-0.33,0.76-0.34
	c1.23-0.05,2.47-0.05,3.7-0.07c7.08-0.08,10.75-3.41,11.37-10.4c0.22-2.46,0.34-4.93,0.34-7.4c0.02-24.06,0.04-48.11-0.02-72.17
	c-0.01-2.93-0.23-5.9-0.72-8.79c-0.82-4.8-3.53-7.26-8.37-7.92c-2.24-0.3-4.52-0.35-6.98-0.52c-0.07-0.84-0.14-1.65-0.21-2.46
	c0.38-0.18,0.63-0.39,0.88-0.39c20.62,0.19,41.25,0.14,61.86,0.75c8.83,0.26,17.23,2.97,24.19,8.87
	c15.21,12.91,12.06,35.61-6.06,43.92c-1.08,0.5-2.17,1-3.84,1.79c2.52,0.83,4.47,1.41,6.38,2.09c11.1,3.98,17.64,11.62,18.44,23.57
	c0.82,12.28-8.06,25.1-20.85,28.81c-7.02,2.04-14.55,3.02-21.88,3.18c-19.01,0.43-38.03,0.15-57.04,0.14
	C462.48,697.61,461.92,697.53,461.07,697.46L461.07,697.46z M493.48,689.28c9.07,3.09,25.03,3.21,33.82,0.29
	c14.98-4.97,20.89-20.68,12.75-33.96c-4.04-6.58-10.42-9.8-17.59-11.61c-9.14-2.32-18.44-1.8-27.73-1.06
	c-0.43,0.03-0.84,0.28-1.25,0.42C493.48,658.8,493.48,674.06,493.48,689.28z M493.48,635.28c9.93,1.33,19.59,1.79,29.2-0.1
	c8.21-1.61,13.87-6.38,16.42-14.49c3.55-11.26-2.2-22.92-13.58-27.67c-6-2.5-12.31-3.25-18.71-2.92c-4.48,0.23-8.93,0.92-13.34,1.39
	L493.48,635.28L493.48,635.28z"/>
</svg>
