<svg enable-background="new 0 0 314 54.6" viewBox="0 0 314 54.6" xmlns="http://www.w3.org/2000/svg"><g fill="#fff"><path d="m18 17.3c11.2 0 18 6 18 18.9 0 12.6-6.9 18.4-18 18.4-11.2 0-18-5.9-18-18.4 0-12.9 7.1-18.9 18-18.9zm0 31.4c3.4 0 5.6-1.7 5.6-12.4 0-10.8-2.2-13.1-5.7-13.1s-5.5 2.3-5.5 13.1c0 10.7 2.1 12.4 5.6 12.4z"/><path d="m77.7 29.4v13.4c.1 3.1.9 4.7 3.4 4.7h1v5.7c-3.4 0-13.4 0-16.3.2v-7.2c-1.6 5-5.1 8.3-11.3 8.3-6.9 0-12-4-11.8-13.9.1-2.3.1-10.1 0-11.9-.1-3.1-.7-4.7-3.3-4.7h-1v-5.7s6.6.1 8.1.1c3.1 0 7.6-.1 8.4-.2-.2 4.2-.2 8.6-.2 11.6v10c0 7 2.9 8.4 5.1 8.4 4.6 0 6.1-4.4 6.1-14.1v-5.7c0-3.1-1-4.2-4.8-4.2h-.7c.1-.9.1-4.9 0-5.7 0 0 7.6.1 9.3.1 3.1 0 7.5-.1 8.4-.2-.4 3.7-.4 8.1-.4 11z"/><path d="m107 40.2c.8 8.5-1.2 14.2-10.1 14.2-7.2 0-10.6-4-10.5-11.6l.2-18.9h-3.6v-4.6c7-.3 10.5-5.4 11.7-13.9.7.1 4.2.1 4.9 0-.4 3.5-.7 9.2-.7 13.3l7.5-.4c-.1.8-.1 4.8 0 5.7l-7.5-.1v16.7c0 6.1.7 7.5 2.5 7.5 2.2 0 2.8-2.9 2.4-8h3.2z"/><path d="m126 32.4v11.3c0 3.1.9 3.9 4 3.9h1.6v5.9c-.7 0-7.2-.2-11.2-.2s-10.8.2-11.3.2c.1-.9.1-4.5 0-5.9h1.1c2.9 0 3.7-.9 3.7-3.9.1-3.1.1-13.6 0-15.8-.1-2.7-.7-3.9-3.8-3.9h-.9v-5.7c3.4 0 12.1 0 15-.2l-.6 8.3c1.3-5.8 4.6-9.2 10-9.2 5.2 0 8.2 2.9 8.2 8 0 4.2-2.2 6.7-6.1 6.7-3.4 0-5.4-1.9-5.4-4.9 0-3.6 3-5.3 6-5.1-.8-.4-1.9-.7-3.2-.7-4.4 0-7.1 3.8-7.1 11.2z"/><path d="m160.4 43.5c.1 3.3 1.1 4 3.9 4h1v5.9c-.7 0-6.9-.2-10.8-.2s-10.4.2-10.9.2c.1-.9.1-4.5 0-5.9h1.1c2.9 0 3.6-.7 3.7-4 .1-3.2.1-13 0-15.8s-.7-3.8-3.8-3.8h-1c.1-1.3.1-4.3 0-5.7 4.2 0 13.2-.1 16.8-.2-.1 2.6-.1 22.3 0 25.5zm-6.3-29.9c-4 0-6.7-2.7-6.7-6.9 0-4 2.7-6.7 6.7-6.7 4.1 0 6.8 2.7 6.8 6.7 0 4.2-2.7 6.9-6.8 6.9z"/><path d="m191.2 24.9v-13.7c0-2.7-1-3.7-3.1-3.7h-2.4c.1-1.3.1-4.3 0-5.7 4.2 0 13.8-.1 17.4-.2-.1 9.5-.1 35.6 0 42.5.1 2.5 1 3.5 3.2 3.5h1.7c-.1.9-.1 4.8 0 5.7-4.3.1-13 .1-16.8.1v-7.4c-1.7 5.6-5.4 8.5-10.8 8.5-8.3 0-13-4.8-13-18.9 0-13.3 5.2-18.3 13.2-18.3 5.9 0 9.1 2.9 10.6 7.6zm0 12.7v-4c0-7-1.7-9.8-5.7-9.8-4.1 0-5.7 2.1-5.7 11.9 0 7.8.6 12.4 5.3 12.4 3.9-.1 6.1-3.4 6.1-10.5z"/><path d="m243.7 42.1c-.8 7.5-5.8 12.5-16 12.5-11 0-17.7-6-17.7-18.2 0-12.4 7.1-19.2 17.8-19.2 12.2 0 16.9 8.3 16.1 20.3-2.9-.1-19.5 0-21.8 0 .3 7.7 2.2 10.6 6.8 10.6 4.3 0 6-2.4 6.7-6.6 1.4.2 6.6.7 8.1.6zm-21.7-7.5h7.8c1.3 0 2-.2 2-2.4 0-6.4-1.5-8.9-4.5-8.9-3.2 0-5.1 2.4-5.3 11.3z"/><path d="m263.9 32.4v11.3c0 3.1.9 3.9 4 3.9h1.6v5.9c-.7 0-7.2-.2-11.2-.2s-10.8.2-11.3.2c.1-.9.1-4.5 0-5.9h1.1c2.9 0 3.7-.9 3.7-3.9.1-3.1.1-13.6 0-15.8-.1-2.7-.7-3.9-3.8-3.9h-.9v-5.7c3.4 0 12.1 0 15-.2l-.6 8.3c1.3-5.8 4.6-9.2 10-9.2 5.2 0 8.2 2.9 8.2 8 0 4.2-2.2 6.7-6.1 6.7-3.4 0-5.4-1.9-5.4-4.9 0-3.6 3-5.3 6-5.1-.8-.4-1.9-.7-3.2-.7-4.4 0-7.1 3.8-7.1 11.2z"/><path d="m291.4 25.9c0 2.3 1.5 3.4 9.3 4.1 9.4 1 13.3 5.4 13.3 12.3 0 7.5-4.5 12.3-14.4 12.3-3.7 0-7.1-1-10.3-3.1-2.6-1.6-3.3-.2-3.7 2-1-.1-3.1-.1-4 0 .5-4 .8-8.2.6-12.4 1 .1 3.1.1 4 0 2.2 4.9 6.3 8.4 12.3 8.4 4.4 0 6.2-1.6 6.2-3.7 0-1.9-1.3-3.2-8.3-3.9-10.7-.9-14.4-6.2-14.4-12.4 0-7.2 5.8-12.4 15.1-12.2 3.4.1 5.9 1 8 2.3 2.2 1.3 2.7.7 3.1-1.7 1 .1 2.9.1 3.9 0-.4 3.9-.6 7.1-.6 10.9-1-.1-3.1-.1-4.1 0-2-4.9-5.8-6.3-10-6.3-4.5 0-6 1.7-6 3.4z"/></g></svg>