<?xml version="1.0" encoding="utf-8"?>
<!-- Generator: Adobe Illustrator 23.0.4, SVG Export Plug-In . SVG Version: 6.00 Build 0)  -->
<svg version="1.1" id="svg2657" xmlns:svg="http://www.w3.org/2000/svg"
	 xmlns="http://www.w3.org/2000/svg" xmlns:xlink="http://www.w3.org/1999/xlink" x="0px" y="0px" viewBox="0 0 666.5 354.3"
	 style="enable-background:new 0 0 666.5 354.3;" xml:space="preserve">
<style type="text/css">
	.st0{fill-rule:evenodd;clip-rule:evenodd;fill:#FFFFFF;}
	.st1{fill:#FFFFFF;}
</style>
<g>
	<path id="path28" class="st0" d="M227.4,52.5h6l3.5-11.2h18.1l3.4,11.2h6.7L249.9,5.6h-7.6L227.4,52.5z M253.4,36.2h-15l7.3-25h0.1
		L253.4,36.2"/>
	<path id="path32" class="st1" d="M287,41.5c0,5.5-3.6,7.6-6.4,7.6c-3.8,0-5.6-2.7-5.6-6.6V19.7h-5.3v25c0,5.6,3.1,8.4,8.8,8.4
		c3.4,0,6.6-1.6,8.3-4.6h0.2v4h5.7c-0.2-2.3-0.3-4.6-0.3-6.8v-26H287V41.5"/>
	<path id="path36" class="st1" d="M322.4,43.2c0-10-16.4-9.9-16.4-15.7c0-2.9,2.2-4.4,5.1-4.4c3.4,0,5.2,1.8,5.1,5.3h5.9
		c0.5-6.5-4.5-9.3-10.4-9.3c-9.2,0-11.3,5.5-11.3,9c0,9.8,16.4,9.9,16.4,15.8c0,3.4-2.5,5-5.7,5c-5.4,0-5.5-4.4-5.5-6.3h-6
		c-0.2,7.5,4.2,10.7,11.3,10.7C317.5,53.2,322.4,50.4,322.4,43.2"/>
	<path id="path40" class="st1" d="M334.3,52.5h7.1l7.3-27.9h0.1l7,27.9h7.1l8.8-32.8h-5.7L359.7,48h-0.1l-6.7-28.3h-7.5L338,48h-0.1
		L332,19.7h-5.9L334.3,52.5"/>
	<path id="path42" class="st0" d="M385.4,7.4h-6.2v6.8h6.2V7.4z M396.8,7.4h-6.1v6.8h6.1V7.4z M393.2,36.2
		c0.5,10.6-3.5,12.7-6.7,12.7c-3.6,0-5.2-2.9-5.2-6.1C381.3,35.9,388.2,36.3,393.2,36.2z M393.3,52.6h5.9c-0.4-2.6-0.6-5.2-0.6-7.8
		V28.9c0-5.5-2.2-9.9-10.7-9.9c-7,0-10.9,2.5-11.1,9.9h5.7c-0.3-3.5,1.6-5.9,5.2-5.9c5.7,0,5.6,4.8,5.5,9.1
		C385.7,32,376,32.4,376,42.4c0,6.3,2,10.8,9,10.8c4.1,0,6.6-1.6,8.2-5.4h0.1V52.6"/>
	<path id="path46" class="st1" d="M412.5,19.7h-5.3v32.8h5.3V33.2c0-4.4,1.5-8.9,7.4-8.9c1,0,1.9,0.2,2.9,0.3v-5.5
		c-5.2,0-7.9,0.6-10.1,5.6h-0.1V19.7"/>
	<path id="path50" class="st1" d="M424.8,19.7v4h5.4v23.3c0,3.8,2.3,5.8,7.3,5.8c1.8,0,3.5-0.4,5.3-0.5v-4.1c-1.2,0.1-2,0.3-2.4,0.3
		c-4.9,0-4.9-2.7-4.9-4.7V23.7h7.1v-4h-7.1V11l-5.3,2.4v6.3H424.8"/>
	<path id="path52" class="st0" d="M454.4,19.7h-5.3v32.8h5.3V19.7z M448.8,11.3h6V5.6h-6V11.3z"/>
	<path id="path56" class="st0" d="M480.5,36c0,4.5,0.2,12.2-6.2,12.2c-4,0-6.4-2.5-6.4-13c0-4.4,0.2-11.6,6.2-11.6
		C480.8,23.5,480.5,31.1,480.5,36z M480.4,23.7h-0.1c-1.5-3.2-4.2-4.7-7.7-4.7c-2.7,0-10.3,1-10.3,16.1c0,9.7,1.8,17.4,10.7,17.4
		c2.9,0,5.8-1.5,7.2-4.1h0.2v6.8c0,3.4-2,5.7-5.7,5.7c-2.9,0-5-1.7-5-4.7h-6c-0.5,6,4.5,8.8,9.9,8.8c7.2,0,12.1-1.8,12.1-9.1V19.7
		h-5.3V23.7"/>
	<path id="path60" class="st0" d="M499.4,33.8c0.1-9.1,2.9-10.7,6.2-10.7c3.9,0,6.6,1.2,6.6,10.7H499.4z M517.9,37.8v-2.8
		c0-10.9-2.3-16-11.7-16c-11.4,0-12.5,7.9-12.5,17.5c0,14.5,5.5,16.6,12.5,16.6c6.9,0,11.4-3.3,11.4-10.6h-5.8
		c-0.2,3.3-2.1,6.2-5.7,6.2c-4.2,0-6.6-1.8-6.6-11H517.9"/>
	<path id="path64" class="st1" d="M547.2,43.2c0-10-16.4-9.9-16.4-15.7c0-2.9,2.2-4.4,5.1-4.4c3.4,0,5.2,1.8,5.1,5.3h5.9
		c0.4-6.5-4.5-9.3-10.4-9.3c-9.2,0-11.3,5.5-11.3,9c0,9.8,16.4,9.9,16.4,15.8c0,3.4-2.5,5-5.7,5c-5.4,0-5.5-4.4-5.5-6.3h-6
		c-0.2,7.5,4.2,10.7,11.3,10.7C542.2,53.2,547.2,50.4,547.2,43.2"/>
	<path id="path68" class="st0" d="M563,52.5h6.1l3.5-11.2h18.1l3.4,11.2h6.7L585.5,5.6h-7.6L563,52.5z M589.1,36.2h-15l7.3-25h0.1
		L589.1,36.2"/>
	<path id="path72" class="st1" d="M627.2,52.5V30.4c0-1.2,0.3-4.5,1.8-5.8c1.4-1.2,2-1.2,4-1.2c4.3,0,5.2,3.1,5.2,6.4v22.7h5.3v-25
		c0-7.7-5.5-8.5-9-8.5c-3,0-6,0.7-7.8,4.2c-1.2-3-4.7-4.2-7.7-4.2c-3.8,0-6.6,1.2-8.2,4.7h-0.1v-4.1h-5.7c0.2,2.3,0.3,4.5,0.3,6.8
		v26h5.3V30.4c0-1.2,0.3-3.2,1.2-4.8c0.8-1.2,3-2.2,4.6-2.2c4.3,0,5.2,3.1,5.2,6.4v22.7H627.2"/>
	<path id="path76" class="st1" d="M648.5,19.7v4h5.4v23.3c0,3.8,2.3,5.8,7.3,5.8c1.8,0,3.5-0.4,5.3-0.5v-4.1c-1.2,0.1-2,0.3-2.4,0.3
		c-4.9,0-4.9-2.7-4.9-4.7V23.7h7.1v-4h-7.1V11l-5.3,2.4v6.3H648.5"/>
	<path id="path78" class="st1" d="M170.6,354.3h20.6V238.3h-20.6V354.3z"/>
	<g id="path80">
		<path class="st1" d="M190.1,122.8v114.5h-18.6V122.8H190.1 M191.1,121.8h-20.6v116.5h20.6V121.8L191.1,121.8z"/>
	</g>
	<path id="path82" class="st1" d="M170.6,122.2h20.6V6.1h-20.6V122.2z"/>
	<path id="path86" class="st0" d="M53.2,122.2L53.2,122.2z M53.2,122.2L53.2,122.2z M53.2,122.3L53.2,122.3z M53.2,122.2L53.2,122.2
		z M106.4,25.7c0-6.6-4.8-11.8-6.5-13.3l-1.2,0.3c1.8,2.2,5,5.9,5,10.7c0,9.6-10.1,17.9-21.7,18.1c0.1,1,0.1,1.9,0.1,2.6
		c0,1.4-0.1,2.7-0.2,4C94.9,47.9,106.4,37.2,106.4,25.7z M88.3,105.1c-5.6,0-6.8-0.6-8.3-0.6c-0.9,0-1.8,0.1-1.8,1.4
		c0,0.9,1,2.3,2,3c1.3-1.3,3.1-1.6,6.1-1.6c1.4,0,3.2,0.3,4.1,0.4c-0.1,0.8-0.3,1.8-0.3,3.3c0,0.8,0,1.7,0,2.6
		c0,3.3-0.5,5.1-1.6,6.4c0.2,0.2,0.9,0.3,1.3,0.3c2.1,0,2.7-1.1,2.7-6.7c0-1.7,0.1-3.2,0.1-3.6c3,2.3,6.1,6.4,6.1,9.3
		c1-0.5,2.1-2,2.1-3.1c0-2-3.4-5-6.9-8.6c0.5-0.1,1.8-0.5,2.9-0.5c2.8,0,5.1,0.5,6.4,2c0.5-0.6,1-2.3,1-3.2c0-1.7-1-1.6-1.7-1.6
		c-3,0-6.7,0.5-9.3,0.9c-1-1.3-7.1-9.5-8.6-13.9C84,91.2,83.6,91,82.9,91c-1.5,0-1.9,1-2.2,2.4C84,97.5,87.2,102,88.3,105.1z
		 M54.9,93.5c-0.4-1.4-0.8-2.4-2.2-2.4c-0.8,0-1.1,0.1-1.6,0.3c-1.6,4.4-7.7,12.7-8.7,13.9c-2.6-0.4-6.3-0.9-9.3-0.9
		c-0.7,0-1.7-0.1-1.7,1.6c0,1,0.4,2.7,1,3.2c1.3-1.5,3.6-2,6.4-2c1.1,0,2.4,0.4,2.9,0.5c-3.6,3.6-6.9,6.6-6.9,8.6
		c0,1.1,1.2,2.6,2.1,3.1c0-3,3.1-7,6.1-9.3c0,0.4,0.1,2,0.1,3.6c0,5.6,0.6,6.7,2.7,6.7c0.4,0,1.1-0.1,1.3-0.3
		c-1.2-1.3-1.6-3.1-1.6-6.4c0-1,0-1.9,0-2.6c0-1.5-0.2-2.5-0.3-3.3c0.8-0.1,2.7-0.4,4.1-0.4c2.9,0,4.7,0.3,6,1.6c0.9-0.7,2-2.1,2-3
		c0-1.3-0.9-1.4-1.9-1.4c-1.5,0-2.7,0.6-8.3,0.6C48.3,102,51.5,97.5,54.9,93.5z M31.8,23.4c0-4.9,3.2-8.5,5-10.7l-1.2-0.3
		c-1.7,1.5-6.5,6.7-6.5,13.3c0,11.6,11.6,22.3,24.9,22.4c-0.1-1.3-0.2-2.6-0.2-4c0-0.9,0-1.8,0.1-2.6C42.2,41.5,31.8,33.1,31.8,23.4
		z M67.4,14.5c0.6-1.4,1.4-3,1.4-4.9c0-5-4.2-7.4-9.7-7.4c-2.9,0-4.3,0.9-4.3,1.9c0,0.9,0.9,3,1.3,3.6c1-0.5,2.9-1,4-1
		C63.9,6.7,66.8,11,67.4,14.5z M70.2,8.1c3.3,0.6,5.5-3.5,2.4-4.3c0.4,1.4-1.7,2.3-1.7,2.3s-0.8-1.8,0.2-2.9
		c-1.9-0.9-2.4,0.2-2.4,1.4C69.5,5.7,70,6.8,70.2,8.1z M80.7,36.6c0.5,0,1,0.1,1.5,0.1c9.2,0,18.3-5.9,18.3-13.5
		c0-4.1-1.8-6.9-4.1-10c-1.3,0.2-2.5,0.3-3.5,0.3c-4.1,0-6.4-2.2-6.6-4.4c0-2,1.6-3.5,4.1-3.5c3.9,0,10.9,3.6,18,3.6
		c-0.7,0.5-1.9,1.1-3.3,1.6c4.2,3.7,6.9,8.7,8,14.1L124,42.3c1.8,2.9,5.7,8.6,11.5,13.1c-7,0-11.7,0.2-17.6-9.2l-5.6-8.9
		c-0.4,1.1-0.9,2.3-1.5,3.4l11.1,17.7c1.8,2.9,5.7,8.6,11.5,13.1c-7,0-11.7,0.2-17.6-9.2l-9.5-15.3c-0.7,0.8-1.5,1.5-2.3,2.2
		l13.4,21.5c1.9,2.9,5.6,8.6,11.5,13.1c-7,0-11.7,0.2-17.6-9.2l-13.1-21c-0.9,0.5-1.8,1.1-2.7,1.6l16,25.6
		c1.8,2.9,5.6,8.6,11.5,13.1c-7,0-11.7,0.2-17.6-9.2L88.9,58.1c-1,0.4-2,0.7-3,1.1L104.6,89c1.8,2.9,5.7,8.6,11.5,13.1
		c-7,0-11.7,0.2-17.6-9.2L78.6,61L78,61.1c-0.5,1.7-0.9,3.3-0.9,4.9c0,10,6.5,18.8,14.4,25.6c-0.5,0.2-1.4,0.3-2.2,0.3
		c-1.6,0-2.7-0.1-3.4-0.2c1.8,4.1,5.7,9.5,7.7,12.2c2.6-0.5,6.3-0.8,8.8-0.8c2.6,0,2.8,1.5,2.8,2.8c0,2.3-1.1,4.2-2.4,5.2
		c-0.5-1.2-1.4-2.8-6.2-2.8l-0.5,0c1.4,1.5,5.7,5,5.7,7.9c0,1.9-2,4.7-4.8,4.7c0.2-0.6,0.1-1.2,0.1-1.6c0-2.3-2-5-3.7-6.8
		c0,0.6,0,0.5,0,1.1c0,5.4-0.5,7.9-3.9,7.9c-1.7,0-2.8-0.9-3.2-1.2c2.2-2.1,2.4-3.7,2.4-6.7l0-2.6c0-0.7,0-1.6,0.1-2.3
		c-1.2-0.2-1.7-0.2-2.7-0.2c0,0-4.9-0.4-6.1,2.2c-1.3-1.2-3.2-2.9-3.2-4.8c0-1.2,0.6-2.7,3.1-2.7c1,0,3.9,0.6,6.4,0.6
		c-0.7-1.5-3.7-5.9-6.2-9.1c-0.4,1.2-1,2.6-2.4,3.7c-0.2-2-1.4-8.5-4.6-12.3c-0.4,2.5-0.9,5.2-0.9,10.7c0,13.4,3.2,23.3,10.1,25.2
		c-0.9,1.6-2.8,2.9-4.7,2.9c-2.5,0-3.9-2.8-5.3-5.5c-0.7,2-2.7,6.8-4.7,6.8c-2,0-4-4.8-4.7-6.8c-1.4,2.7-2.8,5.5-5.3,5.5
		c-1.9,0-3.8-1.4-4.7-2.9c6.8-1.9,10.1-11.8,10.1-25.2c0-5.5-0.5-8.1-0.9-10.7C59,90,57.8,96.5,57.7,98.5c-1.4-1.1-2-2.4-2.4-3.7
		c-2.6,3.2-5.6,7.6-6.3,9.1c2.5,0,5.5-0.6,6.4-0.6c2.5,0,3.1,1.4,3.1,2.7c0,1.9-1.9,3.6-3.2,4.8c-1.2-2.5-6-2.2-6-2.2
		c-1,0-1.4,0-2.7,0.2c0.1,0.7,0.1,1.6,0.1,2.3l0,2.6c0,3,0.1,4.6,2.3,6.7c-0.4,0.3-1.6,1.2-3.2,1.2c-3.4,0-3.9-2.5-3.9-7.9
		c0-0.6,0-0.6,0-1.1c-1.7,1.9-3.7,4.5-3.7,6.8c0,0.4,0,1,0.1,1.6c-2.7,0-4.7-2.8-4.7-4.7c0-2.8,4.3-6.3,5.7-7.9l-0.5,0
		c-4.7,0-5.7,1.6-6.2,2.8c-1.3-1-2.4-2.9-2.4-5.2c0-1.3,0.3-2.8,2.8-2.8c2.5,0,6.2,0.4,8.8,0.8c2-2.8,5.9-8.1,7.7-12.2
		c-0.7,0.1-1.8,0.2-3.4,0.2c-0.8,0-1.7-0.1-2.2-0.3c7.9-6.8,14.4-15.6,14.4-25.6c0-1.6-0.4-3.2-0.9-4.9L56.9,61L37.1,92.8
		c-5.9,9.4-10.6,9.2-17.6,9.2c5.8-4.4,9.7-10.2,11.5-13.1l18.6-29.8c-1-0.3-2-0.7-3-1.1L30.1,84.5c-5.9,9.4-10.6,9.2-17.6,9.2
		c5.8-4.5,9.6-10.1,11.5-13.1l16-25.6c-0.9-0.5-1.8-1-2.7-1.6l-13.1,21c-5.9,9.4-10.6,9.2-17.6,9.2c5.8-4.5,9.6-10.1,11.5-13.1
		l13.4-21.5c-0.8-0.7-1.5-1.5-2.3-2.2l-9.5,15.3c-5.9,9.4-10.6,9.2-17.6,9.2c5.8-4.5,9.6-10.1,11.5-13.1l11.1-17.7
		c-0.6-1.1-1.1-2.2-1.5-3.4l-5.6,8.9C11.7,55.5,7,55.4,0,55.4c5.8-4.5,9.7-10.2,11.5-13.1l10.9-17.4c1.1-5.4,3.8-10.4,8-14.1
		c-1.4-0.5-2.6-1.1-3.3-1.6c7.1,0,14.1-3.6,18-3.6c2.5,0,4.1,1.5,4.1,3.5c-0.2,2.2-2.4,4.4-6.6,4.4c-0.9,0-2.1-0.1-3.5-0.3
		c-2.2,3.1-4.1,6-4.1,10c0,7.6,9.1,13.5,18.3,13.5c0.5,0,1,0,1.5-0.1c1.8-6.2,5.7-10.2,8.8-14.1c-3.7-1.3-7.8-4.9-7.8-6.5
		c0.5-0.3,7.6,2,8.3,2.2c0.2,0,0.3,0,0.5,0c0.9-0.3,1.6-1.5,1.6-1.7c-0.8-0.1-5.2-0.7-8.3-1.8c-2.3-0.8-3.5-2.4-3.5-3
		c0.7-0.1,3.6,1.4,7.7,1.4c1.5,0,1.8-0.1,3.3-0.2c-1.1-2.5-3.1-4.7-5.3-4.7c-0.9,0-2.9,0.6-4.5,1.4c-1.2-1.8-2.2-4.2-2.2-5.4
		c0-1.5,1.5-3.3,5.8-3.3c1.2,0,2.3,0.1,3.3,0.3c0.8,0.2,1.5,0.3,2.3,0.6c-0.1-0.1-0.1-0.3-0.1-0.5c0-0.6,0.5-1.2,2.5-1.2
		c3.5,0,7.1,1.1,11.5,1.1c1.1,0,1.9,0,2.6-0.3C80.9,1.7,79.7,3,78.5,4c0.7,1,2.5,3.3,2.5,7c0,6-3.9,10.9-3.9,17
		C77.1,31.6,79.9,34.7,80.7,36.6"/>
</g>
</svg>
