<?xml version="1.0" encoding="utf-8"?>
<!-- Generator: Adobe Illustrator 23.0.0, SVG Export Plug-In . SVG Version: 6.00 Build 0)  -->
<svg version="1.1" id="Calque_1" xmlns="http://www.w3.org/2000/svg" xmlns:xlink="http://www.w3.org/1999/xlink" x="0px" y="0px"
	 viewBox="0 0 354 106.3" style="enable-background:new 0 0 354 106.3;" xml:space="preserve">
<style type="text/css">
	.st0{fill:#FFFFFF;}
</style>
<g>
	<path class="st0" d="M124,25.2c2-0.3,3.4-1.6,3.7-3.6c0.1-0.5,0.1-1.1,0.1-1.6v-9.2c0-0.5-0.2-0.8-0.8-0.8h-0.6
		c-0.5,0-0.8,0.2-0.8,0.8l0,9.6c-0.1,1.4-0.8,2.3-2,2.6c-1.1,0.2-1.9,0.1-2.6-0.5c-0.1-0.1-0.3-0.2-0.4-0.3
		c-0.1-0.1-0.2-0.2-0.3-0.3l-0.2-0.2l-1.1,1.6l0.3,0.2c0.4,0.3,0.7,0.5,0.9,1l0,0.1l0.1,0c0.8,0.4,1.7,0.6,2.5,0.6
		C123.3,25.3,123.6,25.2,124,25.2z"/>
	<path class="st0" d="M121.3,47.8h8.1c0.4,0,0.8-0.4,0.8-0.7c0.1-0.4,0.1-0.7-0.1-1c-0.2-0.2-0.6-0.3-0.9-0.3h-6.1
		c-0.6,0-0.6,0-0.6-0.6v-3.7c0-0.6,0-0.6,0.6-0.6h6.1c0.8,0,1-0.2,1-1c0-0.7-0.4-0.9-1-0.9h-6.5c0-0.1,0-0.1,0-0.1
		c0-0.1-0.1-0.3-0.1-0.4v-2.5c0-1,0-1,1-1h5.7c0.8,0,1-0.2,1-1s-0.2-1-1-1h-8.1c-0.5,0-0.8,0.3-0.8,0.8V47
		C120.5,47.3,120.5,47.8,121.3,47.8z"/>
	<path class="st0" d="M192.9,31.9c0.4,0,1.1-0.2,1.1-1.2c0-0.6-0.5-1.1-1.1-1.1c-0.5,0-1.1,0.5-1.1,1.1
		C191.8,31.4,192.3,31.9,192.9,31.9z"/>
	<path class="st0" d="M209,46.2c0.3,0.3,0.7,0.6,1.1,0.8c1.2,0.7,2.4,1.1,4,1.1c0.5,0,1,0,1.6-0.1c0.6-0.1,1.2-0.4,1.9-0.6
		c1.4-0.8,2.2-2.1,2.2-3.7c0-1.6-0.7-2.7-2.2-3.5c-0.4-0.3-0.9-0.5-1.4-0.6c-0.9-0.2-1.9-0.5-2.8-0.8c-0.2-0.1-0.4-0.2-0.6-0.2
		c-0.3-0.1-0.6-0.2-0.9-0.5c-0.7-0.4-0.9-1.2-0.5-1.9c0.3-0.6,0.7-0.9,1.5-1.2c1.8-0.5,3.5,0.2,4.5,0.9c0.1,0.1,0.1,0.1,0.2,0.2
		c0.1,0.1,0.2,0.2,0.4,0.3l0.2,0.2l0.8-0.8c0.1-0.2,0.2-0.4,0.2-0.6c0-0.2-0.2-0.4-0.4-0.5c-0.4-0.4-0.7-0.6-1.3-0.9
		c-1.4-0.7-2.9-0.9-4.7-0.6c-1.2,0.1-2.1,0.5-2.8,1.3c-0.9,0.8-1.4,2-1.2,3.2c0.2,1.2,0.9,2.2,2,2.7c0.4,0.1,0.7,0.2,1,0.4
		c0.3,0.1,0.7,0.2,1,0.4c0.8,0.2,1.7,0.4,2.7,0.8c0.5,0.2,0.9,0.5,1.3,0.7c0.6,0.5,0.8,1.3,0.5,2.1c-0.3,0.7-0.9,1.1-1.7,1.4
		c-2,0.5-3.7,0.1-5.2-1.1c-0.1-0.1-0.3-0.2-0.4-0.3c-0.1-0.1-0.2-0.2-0.3-0.3l-0.2-0.2l-0.2,0.3c-0.2,0.4-0.5,0.7-0.8,1.2l-0.2,0.2
		l0.2,0.2C208.7,46,208.8,46.1,209,46.2z"/>
	<path class="st0" d="M164.5,23.6c1.4,0.9,2.8,1.3,4.4,1.3c0.4,0,0.7,0,1.1-0.1c1.5-0.1,2.9-0.8,4.2-2c0.4-0.3,0.6-0.6,0.6-1.1v-4.1
		c0-0.6-0.1-0.9-0.9-0.9h-5.1c-0.8,0-1,0.2-1,1s0.2,1,1,1h3.6c0.4,0,0.4,0,0.4,0.4v1.9c0,0.3-0.2,0.6-0.5,0.8
		c-1.8,1.3-4.5,1.4-6.3,0.2c-1.6-1-2.5-2.5-2.6-4.5c-0.1-2.2,0.6-3.8,2.2-5c2-1.5,4.9-1.4,6.8,0.2l0.1,0c0.2,0.1,0.3,0.2,0.5,0.4
		l0.2,0.2l1.6-1l-0.2-0.2c-0.2-0.2-0.3-0.3-0.4-0.5l0-0.1c-1.5-1.7-3.6-2.4-6.1-2.1c-2.9,0.4-4.9,1.8-6.1,4.4
		c-0.5,1.3-0.7,2.6-0.6,3.8C161.4,20.2,162.4,22.1,164.5,23.6z"/>
	<path class="st0" d="M197.4,31.9c0.6,0,1.2-0.4,1.2-1.1c0-0.7-0.6-1.1-1.2-1.1c-0.5,0-1.1,0.6-1.1,1.1c-0.1,0.2,0,0.4,0.2,0.7
		C196.7,31.7,197.1,31.9,197.4,31.9z"/>
	<path class="st0" d="M204.6,47.8c0.2,0.1,0.4,0.1,0.5,0.1c0.3,0,0.5-0.1,0.6-0.2c0.3-0.2,0.4-0.5,0.4-1v-6.3c0-2,0-4,0.1-6.1v-0.6
		c0-0.7-0.4-0.8-0.6-0.8h-0.7c-0.5,0-0.8,0.3-0.8,0.8v13.5C204.1,47.4,204.3,47.7,204.6,47.8z"/>
	<path class="st0" d="M129.7,63.2l-0.4-0.2c0.1-0.1,0.1-0.1,0.2-0.2c2.1-1,2.4-3.1,1.7-4.8c-0.6-1.4-1.8-2.2-3.2-2.2h-6.4
		c-0.8,0-1,0.2-1,1v12.6c0,1,0.1,1.1,1.1,1.1h6.2c1.9,0,3.3-1.1,3.7-2.9C132.1,65.9,131.4,64.1,129.7,63.2z M125,62.2
		c-0.6,0-1.3,0-1.9-0.1c-0.4,0-0.4,0-0.4-0.4v-3.5c0-0.4,0-0.4,0.4-0.4c1.4,0,2.9,0,4.3,0.1c1.2,0.1,1.9,0.9,1.9,2
		c0,1.3-0.6,2-1.8,2.2C126.7,62.2,125.8,62.2,125,62.2z M123.6,64.2l3.7,0c1.3,0,2.2,1,2.2,2.3c0.1,0.6-0.1,1.2-0.5,1.6
		c-0.4,0.4-0.9,0.7-1.5,0.7c-0.9,0.1-1.9,0.1-2.9,0c-0.5,0-1,0-1.6,0c-0.2,0-0.2-0.1-0.2-0.2l0-4.5
		C123.1,64.1,123.4,64.1,123.6,64.2z"/>
	<path class="st0" d="M179.4,33c-0.4,0-0.9,0.2-0.9,0.9V47c0,0.8,0.2,0.9,1,0.9c0.6,0,1-0.1,1-0.9v-4.9c0.3-0.1,0.5-0.1,0.9-0.1h3
		c0.5,0,1-0.1,1.5-0.2l0.3-0.1c2.1-0.6,3.3-2.5,3.1-4.9c-0.1-2-1.9-3.7-4.1-3.8H179.4z M187,37.6c0,1.4-0.8,2.4-2,2.5
		c-1.4,0.1-2.7,0.1-4.2,0.1c-0.2,0-0.2-0.1-0.2-0.2v-5.1c0,0,0,0,0,0c0.4,0,0.8,0,1.1,0c0.9,0,1.8-0.1,2.7,0c0,0,0.1,0,0.1,0
		c0.1,0,0.3,0.1,0.4,0.1C186,35.1,187,36.1,187,37.6z"/>
	<path class="st0" d="M154.7,32.9h-5.5c-0.2,0-0.8,0.1-0.8,0.9v13.4c0,0.2,0.2,0.6,0.5,0.6c0.2,0.1,0.4,0.1,0.5,0.1
		c0.3,0,0.5-0.1,0.6-0.2c0.3-0.2,0.4-0.5,0.4-1v-3.8c0-0.2,0-0.3,0.1-0.5c0-0.1,0-0.2,0-0.2c0,0,0.1,0,0.1,0h1.3c0.2,0,0.4,0,0.6,0
		c0.6,0,0.6,0,1.1,0.6l0.3,0.4c1,1.3,1.8,2.6,2.6,3.9c0.1,0.3,0.4,0.8,0.8,0.7c0.4,0.1,0.7,0.1,1.1,0c0.2,0,0.4,0,0.6,0h0.5
		l-0.3-0.4c-0.7-1.1-1.3-2-1.9-3c-0.2-0.3-0.4-0.6-0.6-0.9c-0.3-0.5-0.7-1-1-1.6c0,0,0,0,0,0c0.2,0,0.3-0.1,0.4-0.1
		c1.8-0.5,2.9-1.9,3.1-3.9l0-1.2c-0.1-0.7-0.5-1.5-1-2.2C157.3,33.5,156.1,32.9,154.7,32.9z M155.7,39.7c-0.6,0.3-1.1,0.4-1.4,0.4
		h-3.3c-0.4,0-0.4,0-0.4-0.6v-4.3c0-0.4,0-0.4,0.4-0.4h3.5c1.3,0,2.1,0.7,2.5,1.9C157.2,38.1,156.7,39.2,155.7,39.7z"/>
	<path class="st0" d="M165.4,47.5c0.9,0.4,2,0.6,3,0.6c1.5,0,3.1-0.4,4.3-1.3c2.1-1.4,3.1-3.5,3.1-6.3c0-0.1,0-0.4,0-0.5l0.1-0.1
		l0-0.1c-0.3-3.1-1.8-5.3-4.5-6.4c-1.2-0.5-2.4-0.6-3.7-0.5c-2.2,0.1-4.1,1.2-5.3,3.1c-1.2,1.7-1.5,3.7-1.1,6.2
		C161.7,44.6,163.2,46.5,165.4,47.5z M163.8,37.4c1-1.9,2.5-2.7,4.8-2.7c3.2,0.1,4.7,2.5,5,4.5c0.2,1.1,0.1,2.1-0.2,3.3
		c-0.8,2.6-3.1,3.7-5,3.6h0c-2.6-0.1-4.6-1.8-5.1-4.3C163,40.1,163.2,38.7,163.8,37.4z"/>
	<path class="st0" d="M178.4,24.8h8c0.6,0,0.9-0.2,0.9-0.9c0-0.6-0.1-1-0.9-1h-6c-0.1,0-0.2,0-0.3,0c-0.1,0-0.3-0.1-0.5-0.1l0-4.5
		c0,0,0.1-0.1,0.1-0.1h6.4c0.8,0,1-0.2,1-1s-0.2-1-1-1h-5.8c-0.1,0-0.3,0-0.4,0c-0.1,0-0.2,0-0.4-0.1v-4c0-0.2,0.1-0.3,0.3-0.3h6.4
		c0.9,0,1-0.3,1-1c0-0.8-0.2-0.9-1-0.9h-7.9c-0.6,0-0.9,0.1-0.9,0.9V24C177.5,24.6,177.6,24.8,178.4,24.8z"/>
	<path class="st0" d="M146.9,24.6c0.4,0.1,0.8,0.1,1.1-0.1c0.3-0.2,0.4-0.6,0.4-1v-9.8c0-0.1,0-0.2,0-0.4c0.1,0.1,0.2,0.2,0.3,0.3
		l1,1.4c1.2,1.7,2.3,3.2,3.5,4.8c0.5,0.7,1,1.4,1.5,2.1c0.5,0.7,1,1.4,1.6,2.2c0.3,0.4,0.9,0.7,1.4,0.7c0.2,0,0.3,0,0.5-0.1
		c0.3-0.1,0.4-0.4,0.4-0.6V10.5l-0.1-0.1c0,0-0.1-0.1-0.1-0.1c-0.1-0.1-0.2-0.3-0.4-0.3c-0.3-0.1-0.8-0.2-1.1,0.1
		c-0.3,0.2-0.4,0.5-0.4,1v9.8c-0.1-0.1-0.1-0.1-0.2-0.3c-1.2-1.7-2.4-3.3-3.6-5c-1.2-1.6-2.4-3.3-3.6-4.9c-0.6-0.8-1.2-0.8-1.9-0.8
		c-0.5,0-0.8,0.2-0.8,0.8V24C146.5,24.2,146.6,24.6,146.9,24.6z"/>
	<path class="st0" d="M188.1,47.1c0,0.1-0.1,0.2-0.1,0.3l-0.2,0.4l1.5,0c0.7,0.1,1.1-0.1,1.3-0.8c0.1-0.3,0.3-0.7,0.4-1
		c0.1-0.3,0.3-0.7,0.4-1.1c0.1-0.3,0.3-0.5,0.7-0.5h6.1c0.4,0,0.5,0.2,0.6,0.4c0.2,0.5,0.5,0.9,0.6,1.4c0.4,1.3,0.6,1.5,1.5,1.5
		c0.2,0,0.5,0,0.8,0c0.2,0,0.3,0,0.4-0.2l0.1-0.1v-0.1c0-0.2-0.1-0.4-0.2-0.7c0-0.1-0.1-0.2-0.1-0.3c-0.8-2-1.7-4.1-2.5-6.2
		c-0.8-2-1.7-4.1-2.5-6.1l-0.1-0.4c-0.3-1-0.4-1.1-1.4-1c-0.2,0-0.3,0-0.6,0c-0.7,0-1.1,0.3-1.3,0.9c-0.7,1.7-1.3,3.3-2,4.9
		c-1.1,2.7-2.2,5.4-3.3,8.1C188.2,46.8,188.1,47,188.1,47.1z M192.5,42.5c0.3-1.1,1.9-5.4,2.7-6.9c0.7,1.5,2.4,5.8,2.8,6.9
		C196.8,42.7,193.6,42.7,192.5,42.5z"/>
	<path class="st0" d="M186.7,57.5c1,0.2,1.8,0.6,2.6,1.4c0.6,0.6,0.8,0.6,1.5,0.1c0.1-0.1,0.2-0.2,0.4-0.3l0.3-0.2l-0.3-0.3
		c-0.1-0.1-0.2-0.2-0.2-0.3c0-0.1,0-0.1-0.1-0.2l-0.1-0.1c-1.5-1.5-3.4-2.2-5.7-2.1c-2.8,0.1-4.9,1.4-6.2,3.8
		c-0.7,1.3-1,2.8-0.9,4.3c0.1,2.3,1.1,4.2,2.9,5.5c1.4,1.1,3,1.6,4.7,1.6c0.7,0,1.3-0.1,2-0.3c1.2-0.2,2.3-0.8,3.4-1.7
		c0.2-0.2,0.6-0.6,0.6-1.2v-3.8c0-0.6-0.1-1-0.9-1l-5.3,0c-0.5,0.1-0.8,0.3-0.8,1c0,0.6,0.1,0.9,0.9,0.9h3.2c0.2,0,0.3,0,0.5,0.1
		c0.1,0,0.2,0,0.3,0l0,2.4c0,0.1-0.2,0.3-0.4,0.4c-1.3,1-2.8,1.4-4.3,1.2c-1.4-0.2-2.7-1-3.5-2.2c-1.3-1.8-1.4-3.8-0.5-6.2
		C181.9,58,184.7,57,186.7,57.5z"/>
	<path class="st0" d="M53.7,0C39.4-0.2,26.1,5.3,16,15.2C5.8,25.2,0.1,38.6,0,52.8c-0.1,14.3,5.4,27.8,15.6,38
		c10,10,23.2,15.5,37.1,15.5c0.2,0,0.5,0,0.7,0c13.8,0,27.4-5.6,37.3-15.5c10-10.2,15.3-22.5,15.6-36.5c0.3-14.4-5.1-28-15-38.2
		C81.3,5.8,67.9,0.1,53.7,0z M26.9,78.7c0-0.1,0-0.2,0-0.4V66.2c0-0.1,0-0.1,0-0.1c0,0,0,0,0.1,0h55.8c0.8,0,0.8,0,0.8,0.8V79
		c0,0.2,0,0.2,0,0.2c0,0-0.1,0-0.2,0H27.8c-0.2,0-0.8,0-0.9-0.1C26.8,79.1,26.9,78.8,26.9,78.7z M26.9,39.9V27.7
		c4.2-0.1,53.6-0.1,56.7,0c0,0.1,0,0.3,0,0.4v11.4c0,0.2,0,0.4,0,0.5c0,0-0.1,0-0.5,0H27.8c-0.2,0-0.4,0-0.6,0
		C27.1,39.9,27,39.9,26.9,39.9z M70.4,47.5v12.1l-56.6,0c0,0-0.1,0-0.1,0c0-4.3,0-8.6,0.1-12.9h55.8c0.1,0,0.3,0,0.4,0
		c0.2,0,0.4,0,0.4,0C70.4,46.7,70.4,47.1,70.4,47.5z"/>
	<path class="st0" d="M129.7,86.1l-0.3-0.1c0.1-0.1,0.1-0.1,0.2-0.2c1.7-1.1,2.4-3.2,1.5-4.9c-0.7-1.3-1.8-2.1-3.2-2.1h-6.3
		c-0.7,0-1,0.1-1,1v12.8c0,0.9,0.1,1,1,1h6.3c1.9,0,3.3-1.1,3.7-2.9C132.1,88.9,131.4,87,129.7,86.1z M127.7,85
		c-0.1,0-0.2,0-0.3,0.1s-0.2,0.1-0.3,0.1h-3.9c-0.4,0-0.4,0-0.4-0.4v-3.6c0-0.3,0-0.3,0.3-0.3c1.5,0,3,0,4.5,0.1c1.1,0,1.7,1,1.7,2
		C129.3,84,128.6,84.8,127.7,85z M122.7,87.2C122.7,87.2,122.7,87.2,122.7,87.2c0.2,0,0.3-0.1,0.6-0.1h4c0.8,0,1.4,0.3,1.9,0.9
		c0.4,0.6,0.6,1.3,0.4,2.1c-0.3,0.8-0.8,1.7-2,1.7H123c-0.3,0-0.3-0.1-0.3-0.2L122.7,87.2C122.7,87.2,122.7,87.2,122.7,87.2z"/>
	<path class="st0" d="M252.1,79.4c-0.4-0.2-0.8-0.2-1.2,0c-0.3,0.2-0.6,0.6-0.6,1l0,9.8c-0.2-0.2-0.3-0.4-0.5-0.6l-7.2-9.7
		c-0.5-0.5-0.9-0.8-1.6-0.8c-0.8,0-1.1,0.1-1.1,1.1v12.5c0,1,0.3,1.1,1.1,1.1l0.1,0c0.6-0.1,0.9-0.2,0.9-1v-9.8c0-0.1,0-0.2,0-0.3
		c0.1,0.1,0.2,0.3,0.3,0.4c2.5,3.3,5,6.7,7.4,10c0.5,0.6,0.9,0.9,1.5,0.9c0.1,0,0.2,0,0.4,0c0.5,0,0.8-0.2,0.8-0.8V80
		C252.5,79.7,252.3,79.5,252.1,79.4z"/>
	<path class="st0" d="M261.5,79h-4.9c-1,0-1.1,0.1-1.1,1.1v6.2c0,2.1,0,4.3-0.1,6.3c0,1,0.3,1.1,1.1,1.1c0.5,0,1,0,1.6,0
		c0.5,0,1.1,0,1.6,0c0.5,0,1.1,0,1.6-0.1c3.3-0.3,5.9-2.3,6.6-5.2c0.3-1,0.4-2,0.2-3.3C267.6,81.7,265,79.2,261.5,79z M266.1,85.7
		c0,0.8,0,1.6-0.2,2.3c-0.6,1.9-1.7,3.1-3.5,3.6c-1.2,0.3-2.4,0.3-3.7,0.3c-0.3,0-0.7,0-1,0c0-0.2,0-0.4,0-0.5l0-9.9
		c0-0.7,0-0.7,0.6-0.7c0.3,0,0.6,0,0.9,0c1.1,0,2.2,0,3.2,0.2C264.6,81.5,266.1,83.5,266.1,85.7z"/>
	<path class="st0" d="M262.3,46.8c0-0.8-0.2-1-1-1h-6.4c-0.2,0-0.3-0.1-0.3-0.3v-4.1c0-0.2,0-0.3,0.4-0.3h6.2c0.6,0,1-0.1,1-0.9
		c0-0.8-0.2-1-1-1h-6.3c-0.2,0-0.3-0.1-0.3-0.3v-3.8c0-0.3,0.1-0.3,0.3-0.3h6.4c0.8,0,1-0.2,1-1l0-0.1c-0.1-0.6-0.3-0.8-1.1-0.8
		h-7.6c-1,0-1.1,0.1-1.1,1.1v6.3c0,2.1,0,4.3,0.1,6.2c0,1,0.1,1.1,1.1,1.1h7.8C262,47.7,262.3,47.4,262.3,46.8z"/>
	<path class="st0" d="M247.3,41.8V47c0,0.3,0.1,0.8,0.5,0.9c0.2,0.1,0.4,0.1,0.6,0.1c0.2,0,0.4,0,0.6-0.1c0.3-0.1,0.5-0.6,0.5-0.9
		V34.2c0-0.9-0.1-1-1-1c-1,0-1.1,0.3-1.1,1.1v4.5c0,0.7,0,0.7-0.7,0.7h-7c-0.1,0-0.2,0-0.3,0c-0.1,0-0.2,0-0.3-0.1v-5.6
		c0-0.2-0.2-0.6-0.5-0.6c-0.6-0.2-0.9-0.1-1.1,0.1c-0.3,0.2-0.4,0.5-0.4,1v13c0,0.2,0.2,0.6,0.5,0.6c0.4,0.1,0.8,0.1,1.1-0.1
		c0.3-0.2,0.4-0.6,0.4-1v-5.6c0,0,0,0,0.1,0l0.1,0.2h7.7C247.3,41.4,247.3,41.4,247.3,41.8z"/>
	<path class="st0" d="M222.2,92.1c-0.2-0.3-0.4-0.5-0.5-0.7c-0.2-0.5-0.5-0.9-0.8-1.3c-0.2-0.2-0.3-0.4-0.4-0.7
		c-0.1-0.2-0.2-0.4-0.3-0.5c-0.2-0.3-0.5-0.7-0.6-1.1c0.1,0,0.2,0,0.2,0l0.1,0l0.1,0c1-0.3,1.9-0.9,2.4-1.8c0.8-1.5,0.9-3.4,0.1-4.8
		c-0.5-0.9-1.5-2-3.7-2.2c-1.2-0.1-2.4-0.1-3.6,0c-0.6,0-1.2,0-1.8,0c-0.8,0-1,0.2-1,1v13.1c0,0.2,0.2,0.6,0.5,0.6
		c0.2,0,0.4,0.1,0.6,0.1c0.2,0,0.4,0,0.6-0.2c0.3-0.2,0.4-0.5,0.4-1v-4.1c0-0.2,0-0.5,0-0.5c0.1,0,0.3,0,0.5,0l1.2,0
		c0.7-0.1,1.1,0.1,1.4,0.7c0.8,1.4,1.8,2.9,2.7,4.3c0.1,0.3,0.4,0.7,0.8,0.7c0,0,0,0,0,0c0.4,0.1,0.7,0.1,1.1,0c0.2,0,0.4,0,0.6,0
		h0.5l-0.2-0.4C222.7,92.9,222.4,92.5,222.2,92.1z M220.9,83.4c0,1.4-0.9,2.5-2.1,2.6c-0.9,0.1-1.9,0.1-2.8,0c-0.5,0-0.9,0-1.4,0
		c0,0,0,0,0,0c0-1.6,0-3.3-0.1-5.2c0.1,0,0.1,0,0.2,0c0.1,0,0.1,0,0.1,0c1.3,0,2.6,0,3.9,0.1C220,81,220.9,82.1,220.9,83.4z"/>
	<path class="st0" d="M229,58.4c1.2-0.8,2.7-1.1,4.1-0.7c0.8,0.2,1.8,0.5,2.5,1.2c0.6,0.6,0.8,0.6,1.5,0.1c0,0,0.1-0.1,0.2-0.1
		c0.1-0.1,0.2-0.1,0.3-0.2l0.2-0.2l-0.2-0.2c0,0-0.1-0.1-0.2-0.1l-0.1-0.1c-1.5-1.6-3.4-2.4-5.8-2.2c-2.8,0.3-4.9,1.5-6.2,3.8
		c-0.7,1.3-1,2.8-0.9,4.4c0.1,2.4,1.1,4.3,2.9,5.6c1.4,1.1,3,1.6,4.7,1.6c0.7,0,1.3-0.1,2-0.3c1.2-0.2,2.3-0.8,3.4-1.7
		c0.2-0.2,0.6-0.6,0.6-1.2V64c0-0.5-0.4-0.9-0.9-0.9h-5.2c-0.6,0-0.9,0.2-0.9,0.9c0,0.6,0.2,0.9,0.9,0.9h3.2c0.1,0,0.3,0,0.4,0
		c0.1,0,0.2,0,0.4,0.1v2.4c0,0-0.1,0.1-0.1,0.1c-0.1,0.1-0.1,0.3-0.3,0.3c-1.2,1-2.8,1.4-4.3,1.1c-1.5-0.2-2.8-1.1-3.6-2.4
		c-0.9-1.5-1.1-2.9-0.8-4.7C227,60.4,227.8,59.2,229,58.4z"/>
	<path class="st0" d="M238.3,92.8c0-0.2-0.1-0.3-0.1-0.5c-0.5-1.1-0.9-2.3-1.4-3.4c-0.5-1.1-0.9-2.3-1.4-3.4c-0.4-1-0.8-1.9-1.2-2.9
		c-0.4-1-0.8-2-1.2-2.9c-0.1-0.3-0.4-0.7-0.7-0.7c0,0,0,0,0,0c-0.6-0.1-1.3-0.1-1.8,0c-0.5,0-0.7,0.6-0.9,1
		c-0.8,2.1-1.7,4.1-2.5,6.1c-0.8,2.1-1.7,4.2-2.5,6.2c-0.1,0.3-0.3,0.6-0.4,1l-0.1,0.4h0.4c0.5,0,0.7,0,1.1-0.1
		c0.9,0,1.2-0.5,1.3-0.9c0.1-0.3,0.2-0.6,0.4-1c0.1-0.3,0.2-0.7,0.3-0.9c0.2-0.3,0.4-0.5,0.7-0.5h6.1c0.4,0,0.6,0.2,0.7,0.5
		c0.3,0.8,0.5,1.4,0.9,2.1c0.1,0.3,0.3,0.6,0.7,0.6c0.4,0.1,0.7,0.1,1,0c0.2,0,0.3,0,0.5,0h0.4l-0.1-0.4
		C238.4,93.1,238.3,93,238.3,92.8z M234,88.6c-0.6,0.1-1.3,0.1-1.9,0.1c-0.3,0-0.5,0-0.8,0h-2.9c0.4-1.4,2.1-5.6,2.8-7
		c0.5,1.3,1.1,2.6,1.6,4C233.3,86.6,233.6,87.6,234,88.6z"/>
	<path class="st0" d="M234.2,45.8L234.2,45.8c0.1-0.2,0.2-0.3,0.2-0.3c0.1-0.1,0.1-0.2,0.2-0.3l0.1-0.3l-0.3-0.1
		c-0.2-0.1-0.3-0.2-0.5-0.2c-0.3-0.1-0.5-0.2-0.7-0.4l-0.2-0.1l-0.2,0.2c-0.1,0.1-0.1,0.1-0.2,0.2h-0.1l-0.1,0.1
		c-1.7,1.7-4.3,2-6.3,0.7c-1.2-0.8-2.1-2.1-2.4-3.7c-0.3-1.7,0-3.5,1-4.8c0.9-1.2,2.4-2,4-2c1.5-0.1,2.8,0.4,3.8,1.4
		c0.1,0.2,0.3,0.3,0.4,0.4c0,0,0.1,0.1,0.1,0.1l0.2,0.2l0.2-0.1c0.3-0.2,0.7-0.5,1.2-0.7l0.3-0.2l-0.3-0.3c-0.1-0.1-0.2-0.2-0.3-0.3
		c-0.1-0.1-0.2-0.3-0.3-0.4c-1.5-1.6-3.4-2.3-5.8-2c-2.9,0.2-5.1,1.9-6.2,4.7c-0.5,1-0.6,2.3-0.5,3.5c0.1,1.9,0.8,3.5,2,4.8
		c1.5,1.6,3.3,2.4,5.6,2.4C231.1,48,232.8,47.3,234.2,45.8z"/>
	<path class="st0" d="M272.9,87.4c0-0.1,0-0.2,0.1-0.3h6.7c0.8,0,1-0.2,1-1s-0.2-1-1-1h-5.7c-1,0-1,0-1-0.9v-2.5c0-1,0-1,1-1h5.7
		c0.9,0,0.9-0.7,0.9-1l0-0.1c-0.1-0.6-0.3-0.8-1.1-0.8h-7.6c-1,0-1.1,0.1-1.1,1.1v12.5c0,1.1,0.1,1.2,1.2,1.2h7.5
		c0.7,0,1.1,0,1.1-0.8c0.1-0.3,0.1-0.6-0.1-0.8c-0.2-0.2-0.5-0.3-1-0.3h-6c-0.2,0-0.5,0-0.5,0c0,0-0.1-0.1-0.1-0.5v-3.6
		C272.9,87.6,272.9,87.5,272.9,87.4z"/>
	<path class="st0" d="M336.3,89.9c-0.5-0.7-0.9-1.4-1.3-2c2.2-0.4,3.5-2.2,3.4-4.6c-0.1-2.4-1.8-4.1-4-4.2h-5.7
		c-0.6,0-0.9,0.2-0.9,0.9v13.2c0,0.2,0.2,0.6,0.5,0.6c0.2,0.1,0.4,0.1,0.5,0.1c0.3,0,0.5-0.1,0.6-0.2c0.3-0.2,0.4-0.5,0.4-1v-4.2
		c0-0.4,0-0.4,0.4-0.4l1.5,0c0.5-0.1,0.9,0.1,1.3,0.7l2.8,4.3c0.2,0.3,0.5,0.6,0.8,0.6h2l-0.2-0.4C337.8,92.1,337,91,336.3,89.9z
		 M330,80.9C330.1,80.8,330.1,80.8,330,80.9c0.1,0,0.2-0.1,0.3-0.1c1.3,0,2.7,0,3.9,0.1c1.3,0.2,2.2,1.3,2.2,2.6
		c0,1.4-0.9,2.5-2.1,2.6c-0.9,0.1-1.9,0.1-2.8,0c-0.4,0-0.9,0-1.3,0c0,0,0,0-0.1,0V80.9z"/>
	<path class="st0" d="M353.3,86.1H348c-0.6,0-1,0.1-1,0.9c0,0.6,0.2,0.9,0.9,0.9h3.2c0.1,0,0.3,0,0.4,0c0.1,0,0.2,0,0.4,0.1
		c0,0.2,0,0.5,0,0.7c0,0.6,0.1,1.2,0,1.8c0,0.1-0.1,0.3-0.2,0.4c-2.5,1.8-6,1.4-7.7-0.9c-1.5-1.9-1.7-4.1-0.7-6.4
		c1.1-2.4,3.9-3.4,5.9-2.9c1.1,0.2,1.9,0.6,2.6,1.3c0.7,0.5,0.8,0.6,1.6,0.1l0.6-0.6l-0.2-0.2c0,0,0,0,0,0V81l-0.3-0.3
		c-1.4-1.5-3.4-2.3-5.7-2.1c-2.8,0.3-4.9,1.5-6.2,3.9c-0.7,1.4-1,2.9-0.9,4.6c0.1,2.2,1.1,4,2.7,5.3c1.5,1.2,3.1,1.7,4.8,1.7
		c0.6,0,1.3-0.1,2-0.3c1.2-0.2,2.3-0.8,3.4-1.7c0.3-0.3,0.6-0.7,0.6-1v-4.2C354,86.4,353.7,86.1,353.3,86.1z"/>
	<path class="st0" d="M323.2,78.8c-0.3,0.2-0.6,0.6-0.6,1l0,7.9c-0.1,1.6-0.4,2.7-1.4,3.5c-1.1,0.9-2.6,1.2-4,0.7
		c-1.3-0.5-2.2-1.6-2.5-2.9c-0.1-0.4-0.1-0.8-0.1-1.1v-7.6c0,0,0,0,0-0.1c0-0.1,0.1-0.4,0-0.6c-0.1-0.2-0.3-0.5-0.6-0.6
		c-0.3-0.1-0.8-0.2-1.2,0.1c-0.3,0.2-0.4,0.5-0.4,1v4h0l0,0.3c0,0.6,0.1,1.2,0.1,1.7c0,0.9,0,1.8,0.2,2.7c0.1,2.4,1.6,4.3,3.8,4.9
		c0.7,0.2,1.4,0.3,2.2,0.3c0.7,0,1.4-0.1,2.2-0.3c1.9-0.5,3.1-1.6,3.5-3.3c0.2-0.8,0.4-1.8,0.4-2.7v-8.1c0-0.2-0.2-0.5-0.4-0.7
		C324,78.6,323.6,78.6,323.2,78.8z"/>
	<path class="st0" d="M307.9,86.1l-0.3-0.1c0,0,0.1-0.1,0.1-0.1c2-1.2,2.6-3.4,1.5-5.3c-0.6-1.1-1.8-1.8-3.1-1.8h-6.3
		c-0.7,0-1,0.1-1,1v12.6c0,1,0.1,1.1,1.1,1.1h6.2c1.9,0,3.3-1.1,3.7-2.9C310.4,88.9,309.6,87,307.9,86.1z M305.7,85L305.7,85
		c-0.3,0.1-0.3,0.1-0.5,0.1h-3.8c-0.4,0-0.4,0-0.4-0.4v-3.6c0-0.4,0-0.4,0.4-0.4c1.5,0,3,0,4.4,0.1c1,0.1,1.8,0.9,1.8,2
		C307.5,84,306.9,84.8,305.7,85z M301,87.2C301,87.2,301,87.2,301,87.2c0.2,0,0.3-0.1,0.6-0.1h4c0.8,0,1.4,0.3,1.9,0.9
		c0.4,0.6,0.6,1.3,0.4,2.1c-0.3,0.8-0.8,1.7-2,1.7h-4.5c-0.3,0-0.3-0.1-0.3-0.2L301,87.2C300.9,87.2,301,87.2,301,87.2z"/>
	<path class="st0" d="M294.8,78.8c-0.9,0-1.1,0.3-1.1,1.1v9.4c0,0.1,0,0.2,0,0.2c0,0.1,0,0.2,0,0.3c0,0,0,0,0,0
		c-0.1-0.1-0.2-0.2-0.3-0.3l0-0.1c-0.6-0.7-1.1-1.4-1.6-2.1c-0.2-0.3-0.4-0.6-0.6-0.9c-0.5-0.7-1.1-1.4-1.6-2.1
		c-1.3-1.7-2.5-3.2-3.6-4.9c-0.2-0.4-0.6-0.7-1.2-0.7c-1.1,0-1.4,0.1-1.4,1.4v12.5c0,0.7,0.5,0.9,0.8,0.9c0,0,0,0,0,0
		c0.2,0,0.3,0,0.5,0c0.2,0,0.4,0,0.5-0.2c0.2-0.2,0.3-0.6,0.3-1V82.3c0.1,0.2,0.3,0.3,0.5,0.6c1.8,2.3,3.5,4.6,5.2,6.9
		c0.7,1,1.4,1.9,2.1,2.9c0.7,1,1.1,1.1,2.3,0.7l0.2-0.1V79.7C295.7,79.1,295.4,78.8,294.8,78.8z"/>
	<path class="st0" d="M221.2,70.9c0.5,0,0.8-0.2,0.8-0.8V57.4c0-0.1,0-0.1,0-0.2c0-0.2,0.1-0.4-0.1-0.6c0,0-0.1-0.1-0.1-0.1
		c-0.1-0.1-0.2-0.3-0.4-0.3c-0.3-0.1-0.8-0.2-1.1,0.1c-0.3,0.2-0.4,0.5-0.4,1v9.7c0,0,0,0,0,0c-0.1-0.1-0.2-0.3-0.3-0.4l-7.1-9.6
		c-0.4-0.7-1-0.9-1.8-0.9c-0.4,0-0.9,0.2-0.9,0.9V70c0,0.2,0.2,0.6,0.5,0.6c0.6,0.2,0.9,0.1,1.1-0.1c0.3-0.2,0.4-0.5,0.4-1v-9.9
		c0,0,0.1,0.1,0.1,0.1c0.1,0.2,0.3,0.3,0.4,0.4c2,2.7,4.6,6.2,7.3,9.9C220,70.8,220.6,70.9,221.2,70.9z"/>
	<path class="st0" d="M156.9,92.2c-0.4-0.6-0.8-1.2-1.2-1.8c-0.4-0.6-0.8-1.2-1.2-1.8c-0.2-0.2-0.3-0.5-0.5-0.7
		c0.2-0.1,0.4-0.1,0.5,0l0.1,0.1l0.1,0c1.4-0.5,2.3-1.5,2.7-2.9c0.1-0.5,0.1-1,0.1-1.5c0-1.9-1.2-3.5-2.9-4
		c-0.5-0.3-1.2-0.3-1.8-0.3h-5.1c-0.5,0-0.8,0.3-0.8,0.8v13.4l0,0.1c0.1,0.3,0.3,0.5,0.7,0.5c0,0,0,0,0,0c0.1,0,0.3,0,0.4,0
		c0.2,0,0.5,0,0.7-0.2c0.3-0.3,0.3-0.7,0.3-1.1v-4.5c0.3-0.1,0.7-0.1,1-0.1c0.3,0,0.5,0,0.8,0c0.5-0.1,0.9,0.1,1.3,0.7l2.9,4.3
		c0,0,0,0.1,0.1,0.1c0.2,0.2,0.4,0.5,0.6,0.5c0.4,0.1,0.7,0.1,1.1,0c0.2,0,0.4,0,0.6,0h0.5l-0.3-0.4
		C157.3,92.9,157.1,92.6,156.9,92.2z M155.5,83.4c-0.1,1.5-1,2.5-2.2,2.6c-0.9,0.1-1.8,0.1-2.7,0c-0.4,0-0.9,0-1.3,0c0,0,0,0-0.1,0
		c0,0,0,0-0.1,0c0,0,0,0,0,0v-5.2c0.1,0,0.1,0,0.2-0.1c0.1,0,0.1,0,0.1,0c1.4,0,2.7,0,4,0.1C154.6,80.9,155.5,82,155.5,83.4z"/>
	<path class="st0" d="M144.4,32.9C144.4,32.9,144.4,32.9,144.4,32.9c-0.4-0.1-0.7-0.1-0.9,0.1c-0.2,0.2-0.3,0.5-0.3,0.9v8.4
		c0,2-1.1,3.4-3,3.8c-0.4,0.1-1,0.1-1.6,0c-1.6-0.2-2.6-1-3-2.4c-0.2-0.7-0.3-1.4-0.3-2.1v-7.3c0,0,0,0,0-0.1c0-0.1,0.1-0.4,0-0.6
		c-0.1-0.3-0.4-0.6-0.6-0.6c0,0,0,0,0,0c-0.4-0.1-0.9-0.1-1.2,0.2c-0.3,0.3-0.3,0.7-0.3,1v7c0,0.7,0,1.5,0.1,2.2
		c0.3,2,1.4,3.4,3.4,4.2c0.8,0.3,1.6,0.4,2.4,0.4c0.4,0,0.8,0,1.2-0.1c2.4-0.2,4-1.6,4.7-3.8c0.2-0.8,0.2-1.5,0.2-2v-3.8
		c0-1.5,0-3,0.1-4.5C145.4,33.2,145.1,32.9,144.4,32.9z"/>
	<path class="st0" d="M160.6,69.8c0-0.1,0.1-0.2,0.1-0.3c0.5-1.9,1.1-3.8,1.6-5.7c0.5-1.9,1.1-3.8,1.6-5.7c0.1-0.3,0.1-0.6,0.2-0.9
		c0.1-0.3,0.2-0.7,0.2-1l0-0.2l-0.2-0.1c-0.7-0.3-1.2-0.3-1.6-0.1c-0.3,0.2-0.6,0.5-0.7,1.2c-0.5,1.7-0.9,3.4-1.4,5.1
		c-0.4,1.7-0.9,3.4-1.4,5c0,0.1-0.1,0.1-0.1,0.2c0,0,0,0.1,0,0.1l-0.2-0.6c-0.8-3.3-1.8-6.7-2.8-10c-0.3-0.9-0.6-0.9-1.4-0.9
		c-0.7,0.1-0.8,0.6-0.9,0.9c0,0,0,0.1-0.1,0.2c-0.7,2.9-1.6,6.1-2.7,10.1c-0.1,0.2-0.1,0.3-0.2,0.5c0,0,0,0.1,0,0.1
		c0-0.1,0-0.2-0.1-0.2c-0.2-1-0.5-1.9-0.7-2.8c-0.2-0.9-0.5-1.8-0.7-2.8c-0.2-0.8-0.4-1.6-0.7-2.4c-0.2-0.8-0.4-1.6-0.7-2.5
		l-0.1-0.1c-0.1-0.3-0.3-0.6-0.6-0.7c-0.3-0.1-0.9-0.3-1.6,0.2l-0.1,0.1v0.1c0,0.4,0,0.7,0.1,0.9c0.4,1.2,0.7,2.4,1,3.6
		c0.3,1.2,0.7,2.4,1,3.6c0.2,0.9,0.5,1.8,0.8,2.7c0.3,0.9,0.5,1.8,0.8,2.7c0,0.1,0.1,0.2,0.1,0.3c0.1,0.3,0.2,0.6,0.4,0.6
		c0.3,0.1,0.5,0.1,0.8,0.1c0.2,0,0.5,0,0.7-0.1c0.3,0,0.4-0.3,0.5-0.6c0-0.1,0.1-0.2,0.1-0.3c0.5-1.9,1-3.7,1.5-5.5
		c0.4-1.4,0.8-2.8,1.1-4.2c0.1-0.2,0.1-0.3,0.2-0.5c0-0.1,0.1-0.2,0.1-0.3c0,0,0.1,0,0.1,0c0.1,0.1,0.1,0.2,0.1,0.3
		c0.1,0.8,0.4,1.7,0.6,2.3l2.2,7.9c0,0.1,0.1,0.1,0.1,0.2c0.1,0.3,0.3,0.6,0.5,0.6c0.5,0.1,1,0.1,1.5,0
		C160.4,70.4,160.5,70.1,160.6,69.8z"/>
	<path class="st0" d="M143.4,91.7h-6c-0.2,0-0.3,0-0.5-0.1c-0.1,0-0.2,0-0.3,0c-0.1-1.5-0.1-3,0-4.6h6.4c0.7,0,1,0,1-0.9
		c0-0.8-0.3-1-1.1-1h-5.6c-0.2,0-0.3,0-0.5-0.1c-0.1,0-0.2,0-0.3,0v-4.2c0.3,0,0.5-0.1,0.8-0.1c0.1,0,0.3-0.1,0.4-0.1h5.8
		c0.6,0,0.9-0.2,0.9-0.9s-0.2-0.9-0.9-0.9h-7.6c-1.1,0-1.2,0.1-1.2,1.2v12.4c0,1,0.1,1.1,1.1,1.1h7.8c0.6,0,0.9-0.2,0.9-0.8
		c0.1-0.3,0.1-0.6-0.1-0.8C144.1,91.8,143.8,91.7,143.4,91.7z"/>
	<path class="st0" d="M137.2,25c0.3,0,0.6,0,0.9-0.1c2.6-0.4,4.1-1.7,4.6-4c0.1-0.7,0.2-1.5,0.2-2.2v-8.1c0-0.4-0.2-0.6-0.6-0.6
		h-0.5c-0.7,0-0.9,0.5-0.9,0.9l0,8c-0.1,1.2-0.3,2.5-1.3,3.4c-1.3,1.1-2.7,1.3-4.4,0.7c-1.2-0.4-2-1.4-2.2-3v-9.2
		c0-0.6-0.3-0.8-0.6-0.8c0,0,0,0,0,0c-0.5-0.1-0.8-0.1-1.1,0.1c-0.3,0.2-0.3,0.7-0.3,1.1v4.2c0,1.4,0,2.9-0.1,4.3
		c0.1,2.7,1.8,4.8,4.3,5.2C135.9,24.9,136.5,25,137.2,25z"/>
	<path class="st0" d="M168,91.8h-5.1c-0.7,0-0.7,0-0.7-0.7V79.8c0-0.3-0.2-0.6-0.4-0.8c-0.4-0.2-0.8-0.2-1.2,0
		c-0.3,0.2-0.6,0.6-0.6,1v12.8c0,0.8,0.2,1,1,1h6.9c0.8,0,1-0.2,1-1C169,92,168.6,91.8,168,91.8z"/>
	<path class="st0" d="M143.3,70.6c0.6,0,0.9-0.2,0.9-0.8c0.1-0.3,0.1-0.6-0.1-0.8c-0.2-0.2-0.5-0.3-0.9-0.3h-6c-0.1,0-0.2,0-0.3,0
		c-0.1,0-0.2,0-0.3-0.1v-4.6c0.3,0,0.6,0,0.9-0.2h5.6c0.7,0,1,0,1-0.9c0-0.8-0.2-1-1-1H137c-0.2,0-0.4,0-0.4,0c0,0,0-0.1,0-0.4v-3.9
		c0.2,0,0.3,0,0.4-0.1c0.2,0,0.3,0,0.5,0h5.8c0.6,0,1-0.1,1-0.9s-0.4-0.9-1-0.9h-7.8c-0.9,0-1.1,0.3-1.1,1.1v12.9
		c0,0.6,0.1,0.9,0.9,0.9H143.3z"/>
	<path class="st0" d="M195.5,87.5h-3.8c-0.2,0-0.8,0.1-0.8,0.9c0,0.5,0.2,0.8,0.8,0.8h3.7c0.8,0,0.9-0.5,0.9-0.8
		C196.3,87.6,195.8,87.5,195.5,87.5z"/>
	<path class="st0" d="M202.7,70.1c1.7-0.6,2.8-1.7,3.3-3.5c0.2-0.7,0.4-1.5,0.4-2.2v-7.9c0-0.8-0.2-1-1-1s-1,0.2-1,1v1.2
		c0,0.8,0,1.5,0,2.3c0,1.5,0.1,3.1,0,4.6c-0.1,2.6-1.3,3.9-3.7,4.1c-2.2,0.2-3.8-1-4.2-3.2v-9.1c0-0.2-0.2-0.4-0.3-0.6l-0.1-0.1
		c-0.5-0.2-0.9-0.1-1.2,0.1c-0.3,0.2-0.5,0.6-0.5,1v4.4c0,0.8,0,1.5-0.1,2.2c0,0.6-0.1,1.2-0.1,1.7c0.1,2.4,1.7,4.3,3.9,4.9
		c0.7,0.2,1.4,0.3,2.1,0.3C201.1,70.5,201.9,70.4,202.7,70.1z"/>
	<path class="st0" d="M207.6,86.2c-0.1-0.1-0.2-0.1-0.3-0.2l0.1-0.1c1.5-0.7,2.2-1.9,2-3.8c-0.1-1.2-0.8-2.2-2.1-2.9
		c-0.8-0.3-1.4-0.4-2.1-0.4h-5.8c-0.5,0-0.8,0.3-0.8,0.8v13c0,0.9,0.1,1.1,1,1.1h6.3c1.9,0,3.3-1.1,3.7-3
		C210,88.8,209.3,87.1,207.6,86.2z M205.6,85L205.6,85c-0.3,0.1-0.3,0.1-0.5,0.1h-3.9c-0.4,0-0.4,0-0.4-0.4v-3.6
		c0-0.4,0-0.4,0.4-0.4c1.5,0,3,0,4.4,0.1c1,0.1,1.8,0.9,1.8,2C207.3,83.7,207,84.8,205.6,85z M200.7,87.2
		C200.7,87.2,200.7,87.2,200.7,87.2c0.2-0.1,0.4-0.1,0.5-0.2l3.9,0c1,0.1,1.7,0.5,2.2,1.2c0.4,0.7,0.4,1.5,0,2.3
		c-0.4,0.8-1.1,1.2-1.9,1.2H201c-0.3,0-0.3-0.1-0.3-0.2V87.2z"/>
	<path class="st0" d="M168.9,57.8h6c0.4,0,0.7-0.1,0.9-0.3c0.2-0.2,0.2-0.5,0.1-0.9c-0.1-0.7-0.7-0.7-1-0.7l-7.7,0
		c-1.1,0-1.1,0.3-1.1,1.2v12.5c0,1,0.1,1.1,1.1,1.1h7.6c0.2,0,0.3,0,0.4-0.1c0.1,0,0.2-0.1,0.3-0.1h0.3v-1.9h-0.3
		c-0.4,0-0.6,0-1.1,0.1h-5.8c-0.2,0-0.5,0-0.5,0c0,0-0.1-0.1-0.1-0.5v-3.6c0-0.1,0-0.2,0-0.3c0-0.1,0-0.2,0.1-0.3h6.5
		c0.8,0,1-0.2,1-1s-0.2-1-1-1h-6.1c-0.6,0-0.6,0-0.6-0.6v-3.1C168.1,57.8,168.1,57.8,168.9,57.8z"/>
	<path class="st0" d="M188.4,78.8c-0.4-0.1-0.7-0.1-1,0.1c-0.3,0.2-0.5,0.6-0.5,1v9.3c0,0.2,0,0.3-0.1,0.4c0,0.1,0,0.2-0.1,0.4
		c0,0-0.1,0-0.1,0.1c-0.2-0.2-0.3-0.4-0.4-0.6c-1.9-2.5-3.9-5.2-5.7-7.7c-0.2-0.4-0.5-0.7-0.8-1.1c-0.3-0.4-0.5-0.7-0.8-1.1
		c-0.4-0.6-1.4-0.8-2.1-0.6c-0.3,0.1-0.5,0.4-0.5,0.6v13.4c0,0.6,0.4,0.7,0.6,0.8c0.2,0,0.4,0.1,0.5,0.1c0.2,0,0.4,0,0.5-0.1
		c0.3-0.2,0.3-0.7,0.3-1.1v-9.5c0-0.2,0-0.3,0.1-0.4c0-0.1,0-0.2,0.1-0.3c0.1,0.1,0.3,0.2,0.3,0.4c1.1,1.4,2.2,2.9,3.2,4.4
		c1.1,1.5,2.1,2.9,3.2,4.3c0.4,0.6,0.7,1.1,1.2,1.7c0.3,0.3,1.5,0.6,2.1,0.2c0.2-0.2,0.3-0.3,0.3-0.6V79.5
		C188.9,79.3,188.7,78.9,188.4,78.8z"/>
	<path class="st0" d="M172.3,79c-0.7,0-1,0.1-1,1v6.3c0,1.3,0,2.7-0.1,4.1v2.4c0,0.3,0.1,0.8,0.5,0.9c0.2,0.1,0.4,0.1,0.6,0.1
		c0.2,0,0.4,0,0.6-0.1c0.3-0.1,0.5-0.6,0.5-0.9V80C173.3,79.2,173,79,172.3,79z"/>
</g>
</svg>
