<svg id="Calque_1" xmlns="http://www.w3.org/2000/svg" viewBox="0 0 280.5 29.7"><style>.st0{fill:#fff}</style><path id="path31" class="st0" d="M140.1 7.6c0 .1.2.1.2 0V1.3h-13.9s-.1.1 0 .2l2.1.4v26.4l-2 .4c-.1 0-.1.2 0 .2h13.9v-6.2c0-.1-.1-.1-.2 0-.2 1-.9 4-.9 4h-6.5V16.5h6s.4 1.9.5 2.9c0 .1.2.1.2 0v-7.7c0-.1-.1-.1-.2 0-.1.6-.5 2.9-.5 2.9h-6V3.4h6.4s.5 2.5.9 4.2zm44 20.7V17c4.9 0 9.5.2 9.5-7.9 0-7.1-2.6-7.8-7.3-7.8h-8.4c-.1 0-.1.2 0 .2l1.8.4v26.4l-1.6.4c-.2 0-.1.2 0 .2h8c.1 0 .1-.2 0-.2l-2-.4zm0-24.8c3.3 0 5.2-.5 5.2 5.6 0 6.3-2.3 5.9-5.2 5.9V3.5zm12.2 24.8l-1.6.4c-.2 0-.1.2 0 .2h7.9s.1-.1 0-.2l-1.8-.4V1.9l1.7-.4c.1 0 .1-.2 0-.2h-8c-.1 0-.1.1 0 .2l1.7.4v26.4z"/><path id="path33" class="st0" d="M2.2 27.9l-2.1.6c-.1 0-.1.2 0 .2h10.5c4.6 0 9.1-.6 9.1-13.8 0-13.9-4.4-13.8-8.9-13.8H.1s-.1.1 0 .2l2.1.5v26.1zm4.6-1.4v-23h3.3c2.3 0 5 .1 5 11.4 0 11.8-3.5 11.6-5 11.6H6.8zM36 7.4c0 .1.2.1.2 0V1.1H22.3s-.1.1 0 .2l2.1.4v26.4l-2 .4c-.1 0-.1.2 0 .2h13.9v-6.2c0-.1-.1-.1-.2 0-.2 1-.9 4-.9 4h-6.5V16.3h6s.4 1.9.5 2.9c0 .1.2.1.2 0v-7.7c0-.1-.1-.1-.2 0-.1.6-.5 2.9-.5 2.9h-6V3.2h6.4s.5 2.5.9 4.2zm22.8 21.2c.1 0 .1-.1 0-.2-.2-.1-1.1-.3-1.6-.5H57l-7.3-12.8c3 0 5.1-1.8 5.2-6.3C55 1.6 53 1 47.4 1h-8.7c-.1 0-.1.2 0 .2s1.9.4 1.9.4V28l-1.8.4c-.1 0-.1.2 0 .2h8.1c.1 0 .1-.2 0-.2l-1.8-.4V15.4h.2l7.1 13.2h6.4zM45.2 3.4c4 0 5.4-.5 5.4 5.2 0 5.8-2.4 5.4-5.4 5.4V3.4zm26.7 25.1c-.1 0-.1.2 0 .2h7.8s.1-.1 0-.2l-1.7-.4V3.4h5.1s.8 3.8 1.1 5c0 .1.2.1.2 0V1.1H66.7v7.3c0 .1.2.1.2 0 .5-2 1.2-5 1.2-5h5.4V28"/><path id="path35" class="st0" d="M92.5 22l1.5 6.1-1.1.4c-.1 0-.1.2 0 .2h7.6c.1 0 .1-.2 0-.2L99 28 92.1 1.1h-2.3L82.7 28l-1.2.4c-.1 0-.1.2 0 .2h4.3c.1 0 .1-.1 0-.2l-1-.4 1.6-6.1c2.5.1 6.1.1 6.1.1zM89.7 9l2.4 11h-5.2"/><path id="path37" class="st0" d="M114.8 17.8c1.8.2 4.4.4 4.4.4v7.5c-.9.4-2.4 1.4-5.3 1.4-5.7 0-9.7-4.7-9.7-12.4 0-3.9.6-6 2.1-8.3 1.7-2.7 5-3.9 7.6-3.9 3.7 0 6.3.8 7.9 1.8.2.7.4 2.5.7 4.2 0 .1.2.1.2 0V.3c0-.1-.2-.1-.2 0 0 0-.3 1.4-.4 1.8h-.1s-1.8-1-3.9-1.5c-1.4-.3-2.9-.5-4.7-.5-4 0-8 1.2-10.6 4.4-2.6 3.1-3.4 6.4-3.4 10.6 0 11.2 8.6 14.2 13.5 14.2 5.5 0 9-1.9 11.3-3.5v-8.3H115c-.2 0-.3.3-.2.3zm30.7 9.7c1.5 1.1 2.9 1.6 4.5 1.6 2.2.1 5.1-.4 6.7-3 1.7-2.6 1.5-5.8.8-7.9-.7-2-2.8-3.3-5-4.7-2.5-1.6-5.6-2.6-5.6-6.1 0-1.8.4-2.9 1.4-3.9 1.3-1.3 4.4-1.4 7.1.5 0 0 .6 3 .8 4.2 0 .2.2.1.2 0-.2-5-.1-6.6-.1-8.2 0-.1-.1-.1-.2 0 0 .2-.5 1.9-.5 2-3.2-2.2-7.8-1.8-10.1.6-2.9 3.2-2.9 7.9-1.3 10.5 1.4 2.3 4 3.4 8 5.9 2.5 1.6 2.3 4.5 1.6 5.8-.8 1.6-2.6 2.1-3.8 2.1-1.7 0-3.6-1-4.4-2.3-.3-.5-.7-2.9-.8-3.8 0-.1-.3-.1-.3.1 0 3.9.3 7.1.3 8.6 0 .1.2.1.2 0 .3-.9.5-2 .5-2zm17.5 0c1.5 1.1 2.9 1.6 4.5 1.6 2.2.1 5.1-.4 6.7-3 1.7-2.6 1.5-5.8.8-7.9-.7-2-2.8-3.3-5-4.7-2.5-1.6-5.6-2.6-5.6-6.1 0-1.8.4-2.9 1.4-3.9 1.3-1.3 4.4-1.4 7.1.5 0 0 .6 3 .8 4.2 0 .2.2.1.2 0-.2-5-.1-6.6-.1-8.2 0-.1-.1-.1-.2 0 0 .2-.5 1.9-.5 2-3.2-2.2-7.8-1.8-10.1.6-2.9 3.2-2.9 7.9-1.3 10.5 1.4 2.3 4 3.4 8 5.9 2.5 1.6 2.3 4.5 1.6 5.8-.8 1.6-2.6 2.1-3.8 2.1-1.7 0-3.6-1-4.4-2.3-.3-.5-.7-2.9-.8-3.8 0-.1-.3-.1-.3.1 0 3.9.3 7.1.3 8.6 0 .1.2.1.2 0 .3-.9.5-2 .5-2zm20.9.6V16.8c4.9 0 9.5.2 9.5-7.9 0-7.1-2.6-7.8-7.3-7.8h-8.4c-.1 0-.1.2 0 .2l1.8.4v26.4l-1.6.4c-.2 0-.1.2 0 .2h8c.1 0 .1-.2 0-.2l-2-.4zm0-24.9c3.3 0 5.2-.5 5.2 5.6 0 6.3-2.4 5.9-5.2 5.9V3.2zm12.2 24.9l-1.6.4c-.2 0-.1.2 0 .2h7.9s.1-.1 0-.2l-1.8-.4V1.7l1.7-.4c.1 0 .1-.2 0-.2h-8c-.1 0-.1.1 0 .2l1.7.4v26.4zm22.7-20.7c0 .1.2.1.2 0V1.1h-13.9s-.1.1 0 .2l2.1.4v26.4l-2 .4c-.1 0-.1.2 0 .2H219v-6.2c0-.1-.1-.1-.2 0-.2 1-.9 4-.9 4h-6.5V16.3h6s.4 1.9.5 2.9c0 .1.2.1.2 0v-7.7c0-.1-.1-.1-.2 0-.1.6-.5 2.9-.5 2.9h-6V3.2h6.4c.1 0 .6 2.5 1 4.2zm17.8 10.4c1.8.2 4.4.4 4.4.4v7.5c-.9.4-2.4 1.4-5.3 1.4-5.7 0-9.7-4.7-9.7-12.4 0-3.9.6-6 2.1-8.3 1.7-2.7 5-3.9 7.6-3.9 3.7 0 6.3.8 7.9 1.8.2.7.4 2.5.7 4.2 0 .1.2.1.2 0V.3c0-.1-.2-.1-.2 0 0 0-.3 1.4-.4 1.8l-.1.1s-1.8-1-3.9-1.5c-1.4-.3-2.9-.5-4.7-.5-4 0-8 1.2-10.6 4.4-2.6 3.1-3.4 6.4-3.4 10.6 0 11.2 8.6 14.2 13.5 14.2 5.5 0 9-1.9 11.3-3.5v-8.3h-9.2c-.2-.1-.3.2-.2.2zm25.5-10.4c0 .1.2.1.2 0V1.1h-13.9s-.1.1 0 .2l2.1.4v26.4l-2 .4c-.1 0-.1.2 0 .2h13.9v-6.2c0-.1-.1-.1-.2 0-.2 1-.9 4-.9 4h-6.5V16.3h6s.4 1.9.5 2.9c0 .1.2.1.2 0v-7.7c0-.1-.1-.1-.2 0-.1.6-.5 2.9-.5 2.9h-6V3.2h6.4s.5 2.5.9 4.2zm11.8-6.1c.1 0 .1-.2 0-.2h-8.3c-.1 0-.2.1 0 .2l1.8.4v26.4l-2.1.4c-.1 0-.1.2 0 .2h15.1v-6.2c0-.1-.2-.1-.2 0l-.9 4H272V1.7"/></svg>