<svg id="Calque_1" xmlns="http://www.w3.org/2000/svg" viewBox="0 0 272.3 35"><style>.st0{fill:#fff}</style><path class="st0" d="M272.3 29.4h-57v5.7h-2.8V22.4h-3.1v12.7h-2.8V22.4h-3.1v12.7h-2.8v-.2-15.2h14.7v-2.9h-8.7V5.3H272.4c-.1 8-.1 16-.1 24.1zm-51.1-6.9c-.3.1-.6.1-.8.2-.6.1-.6.1-.6.8 0 .3.1.4.4.4h4.4c.8 0 1.7-.2 2.5-.5.9-.4 1.6-1.1 1.9-2.1.5-1.7-.3-3.1-2-3.7 0 0-.1 0-.2-.1l.6-.3c1.1-.6 1.6-1.7 1.4-3-.2-1.2-.9-2-2.1-2.2-.6-.1-1.2-.2-1.9-.2h-5v.7c0 .3.1.4.4.4.4 0 .7.1 1.1.2-.1 3-.1 6.2-.1 9.4zm38.3 1.3v-.5-3.9c0-.5.1-.9.2-1.4.3-.9.8-1.5 1.7-1.8 1-.3 1.7.1 1.8 1.1V23.6h1.7v-.1-6.4c0-1.2-.7-2-1.7-2.2-.6-.1-1.3 0-1.9.1-.8.1-1.4.6-1.9 1.3v-1.1c0-.2-.1-.3-.3-.3-1 0-1.9.1-2.9.1v1c.5.1.9.1 1.4.2v7.4c.7.2 1.3.2 1.9.2zm-21.8-4.4c0-.6 0-1.2-.1-1.7-.3-1.8-1.4-2.7-3.1-2.8-1.9-.1-3.3.9-3.8 2.6-.4 1.2-.4 2.5-.1 3.7.4 1.3 1.1 2.2 2.5 2.5 1.4.3 2.7.1 4-.3.1 0 .2-.1.2-.2V22c-.2.1-.3.1-.4.1-.9.3-1.8.4-2.7.4-1.4-.1-2.5-1.7-2.1-3.1h5.6zm6.9-7.3c.4 0 .8.1 1.1.1.2 0 .3.1.3.3v9.7c0 .2-.1.3-.3.3-.3 0-.6.1-.9.2-.1 0-.2.1-.2.2v.8h4.7c.1-1 .1-1-.8-1.1-.1 0-.2-.1-.3 0-.4 0-.4-.2-.4-.5V11.6v-.5h-3.2v1zm-.2 2.9c-1.2-.2-1.9.2-2.7 1.5v-1.3h-3.1v.7c0 .3.1.4.4.4.4 0 .7.1 1.1.2v7.4h1.8V20c0-.7.1-1.4.3-2.1.3-.9.8-1.2 1.7-1.2h.6c-.1-.6-.1-1.1-.1-1.7zm7.5 1.4c.1 0 .1 0 0 0v6c0 .1-.1.2-.2.2-.3.1-.7.1-1 .2-.1 0-.2.1-.2.2v.8h4.8v-.5c0-.4 0-.6-.5-.6-.2 0-.5-.1-.7-.1-.3 0-.4-.1-.4-.5v-6.6-.5c-1.1.1-2.1.1-3.2.1v.6c0 .3.1.4.3.4.4.1.8.2 1.1.3zm.9-2.6c.7 0 1.2-.5 1.2-1.2s-.5-1.2-1.2-1.2-1.2.5-1.2 1.2.5 1.2 1.2 1.2zM135.5 0v35h-.7V0h.7zM152.6 9.2h-2.7V5.3h7.4v.1c0 2 .1 4.1-.4 6-.3 1.2-.5 2.5-.8 3.7v.2c.4-.3.8-.6 1.1-.9 1.1-.7 2.2-1.3 3.6-1.4 1.5-.1 2.5.6 3.2 1.9.4.8.6 1.7.6 2.6.2 3.4-.7 6.5-3 9.1-1.9 2.3-4.4 3.2-7.4 2.8-1.6-.2-3.3-.3-4.9-.3h-.5c1.2-6.5 2.5-13.2 3.8-19.9zm1.4 16.6c.1 0 .1.1.1.1.2 0 .4 0 .6.1 1.5.3 2.6-.2 3.4-1.4.9-1.2 1.4-2.5 1.7-4 .1-.6.1-1.2.1-1.8-.1-1-.9-1.5-1.9-1.2-.6.2-1.2.5-1.8.9-.5.3-.9.7-.9 1.4 0 .1-.1.3-.1.4-.4 1.8-.8 3.6-1.2 5.5zM170.6 23c-.2 1.6.9 3 2.5 3 1.3 0 2.5-.3 3.8-.4.2 0 .3 0 .5-.1v3c0 .1-.1.2-.2.2-1.9.5-3.8 1-5.8.9-2.3-.1-4.2-1.7-5-4-1.2-3.5.2-9.1 4.2-11.4 1.9-1.1 3.9-1.4 6-.9 2.7.6 3.6 2.7 3.4 5-.2 2.6-2 4-4.4 4.5-1.1.2-2.2.2-3.3.2h-1.7zm.4-2.7c.6 0 1.2.1 1.8 0 1.1-.1 2.1-.9 2.3-1.9.2-.9-.2-1.5-1-1.6-.3 0-.6.1-.8.2-1.4.7-2 1.9-2.3 3.3zM200.7 19.6H182.9v-2.9h17.8v2.9zM194.8 22.3h2.7V35h-2.7V22.3zM191.6 35h-2.7V22.3h2.7V35zM182.9 22.3h2.8V35h-2.8V22.3zM101.7 25.7c1 .4 1.3.8 1.3 1.9 0 .8-.6 1.5-1.5 1.6-.8.1-1.6.1-2.4.2v-7c.8.1 1.6.1 2.4.2.7.1 1.1.6 1.2 1.2.1.7-.1 1.4-.8 1.8-.1 0-.1 0-.2.1 0-.1 0-.1 0 0zm-1.9 3c.6.1 1.4 0 1.8-.2.5-.3.7-.7.7-1.3-.1-.6-.3-1-.9-1.1-.4-.1-.9-.1-1.3-.1-.1 0-.2.1-.2.2-.1.8-.1 1.6-.1 2.5zm0-3.2c.5-.1 1-.1 1.4-.2.5-.2.7-.6.7-1.1 0-.5-.2-.9-.7-1-.4-.1-.9-.1-1.4-.2v2.5zM66.9 14.3c1.1.4 1.4 1 1.3 2.1-.1.8-.8 1.4-1.8 1.5H64.3v-7c.8 0 1.6 0 2.4.2.6.1 1.1.5 1.2 1.2.1.7 0 1.4-.7 1.8-.1.1-.2.1-.3.2zm-1.8 3c.6 0 1.2.1 1.7-.2.5-.3.7-.7.7-1.3 0-.5-.3-.9-.7-1-.5-.1-1.1-.2-1.7-.2v2.7zm0-3.2c.5-.1 1-.1 1.4-.2.5-.2.7-.6.7-1.2 0-.5-.3-.9-.8-1-.4-.1-.8-.1-1.3-.1v2.5zM197.1 13c0-1.2.9-2.1 2.1-2.1 1.2 0 2 .9 2 2 0 1.2-.9 2.1-2.1 2.1-1.1 0-2-.9-2-2zM26.7 17.8c-.4-.7-.4-1 .3-1.5-.8-.8-.9-1.9-.3-2.7.6-.8 1.5-.9 2.8-.1 0-.4.2-.5.6-.4 0 .7.1 1.5 0 2.2-.1.8-.7 1.3-1.5 1.3-.3 0-.6 0-1 .1-.2 0-.5.1-.5.4 0 .3.2.4.5.4h1.5c.2 0 .4 0 .7.1.4.1.7.3.8.8.1.5 0 .9-.4 1.2-.4.2-.8.4-1.2.4-.6.1-1.3 0-1.9-.1-.4-.1-.8-.3-.9-.8-.1-.5.1-.9.4-1.2l.1-.1zm2.9-3.3c0-.6-.5-1.1-1.3-1.1-.7 0-1.2.5-1.2 1.3s.5 1.3 1.2 1.3c.8.1 1.2-.4 1.3-1.5zm-1.3 5c.4-.1.7-.1 1.1-.2.4-.1.6-.4.6-.8 0-.3-.3-.5-.7-.5-.6 0-1.2 0-1.9-.1-.1 0-.1 0-.2.1-.1.2-.3.5-.4.7 0 .3.2.5.5.6.3.1.7.2 1 .2zM81.6 13.4c0-.3.2-.5.6-.4-.1.8.1 1.6-.1 2.5-.2.7-.8 1-1.4 1.1-.3 0-.7 0-1 .1-.2 0-.5.1-.5.4 0 .3.2.4.4.4H81c.2 0 .5 0 .7.1.4.1.8.3.9.8.1.5 0 1-.5 1.3-.3.2-.7.3-1 .4h-2c-.5 0-.9-.3-1-.8-.1-.5.1-.9.5-1.2l.1-.1c-.4-.8-.3-1.1.4-1.5-.5-.4-.7-.9-.7-1.5 0-.5.1-.9.4-1.3.6-.9 1.4-1 2.8-.3zm0 1.2c0-.7-.5-1.1-1.3-1.1-.7 0-1.2.5-1.2 1.3s.5 1.3 1.2 1.3c.8 0 1.3-.5 1.3-1.5zm-1.3 5c.4-.1.7-.1 1.1-.2.4-.1.6-.4.5-.8-.1-.4-.4-.5-.7-.5-.6 0-1.3 0-1.9-.1h-.2c-.1.2-.3.5-.4.7 0 .3.2.5.4.6.5.1.9.2 1.2.3zM0 17.9V11c1 0 2-.1 2.9.2.8.3 1.3.9 1.5 1.7.2 1 .2 2-.1 3-.4 1.3-1.3 2-2.7 2H0zm.7-.6h.7c1.1 0 1.9-.5 2.1-1.6.1-.7.2-1.4.1-2-.2-1.8-1.2-2.2-3-1.9.1 1.8.1 3.6.1 5.5zM92.6 17.9h-.7V13h.5c0 .1.1.3.1.4.9-.4 1.9-1 2.9 0 .2-.1.3-.2.5-.3.5-.2.9-.3 1.4-.3.5.1.8.3.9.8V17.7h-.7v-1.2V14c0-.6-.3-.8-.8-.7-.4.1-.8.2-1.1.4-.1 0-.2.2-.2.4v3.6h-.7v-.4-3.1c0-.8-.3-1.1-1.1-.9h-.2c-.8.3-.8.3-.8 1.2v3.4zM17.3 14.9v3h-.7V11c.9 0 1.9-.1 2.8.2.7.2 1 .8 1 1.4 0 .8-.2 1.4-.9 1.8-.1.1-.3.1-.4.2.7.3.9.9 1.1 1.6.2.5.3 1.1.5 1.7h-.5c-.2 0-.3-.1-.4-.3-.1-.5-.3-1-.4-1.5-.4-1.1-.9-1.4-2.1-1.2zm0-.6c.6 0 1.2.1 1.7-.2.5-.3.7-.7.7-1.2s-.2-.9-.6-1.1c-.6-.3-1.2-.2-1.8-.2v2.7zM55 13.4v-3h.6v7.4c-.5.2-.5.2-.6-.3-.3.1-.6.3-.9.4-1 .4-1.8-.1-2.1-1.1-.2-.8-.2-1.6 0-2.5.4-1.4 1.5-1.8 2.7-1 .1 0 .2.1.3.1zm0 2.1v-1.2c0-.1 0-.2-.1-.3-.4-.7-1.6-.7-2 0-.5.9-.4 1.9-.1 2.9.1.3.4.5.7.5.4-.1.9-.3 1.3-.4.1 0 .1-.2.1-.3.1-.4.1-.8.1-1.2zM85.7 26.9c.1-.5.2-1 .3-1.4.3-.9 1.1-1.3 2.2-1.2.9.1 1.5.7 1.6 1.6.1.6.1 1.3-.1 1.9-.2 1.1-1.1 1.7-2.2 1.6-1.1-.1-1.7-.8-1.8-2 .1-.1.1-.3 0-.5.1.1.1 0 0 0zm3.6 0c-.1-.4-.1-.7-.2-1.1-.2-.6-.5-.9-1.1-1-.6 0-1 .2-1.3.8-.3.7-.3 1.5-.1 2.2.2.6.6.9 1.1.9.5 0 1-.3 1.2-.8.2-.3.3-.7.4-1zM100.4 15.8c0 1.2.6 1.8 1.7 1.5.3-.1.7-.2 1-.2.1.6.1.6-.4.7-.5.1-.9.1-1.4.1-.7 0-1.2-.4-1.4-1-.4-1-.4-2 0-3s1.6-1.4 2.6-1c.5.2.7.7.7 1.2 0 .6-.2 1.1-.7 1.3-.4.1-.8.2-1.1.2-.3.2-.7.2-1 .2zm0-.5c.5 0 1 0 1.5-.1s.7-.5.6-1c-.1-.4-.4-.6-.9-.6-.7-.1-1.3.7-1.2 1.7zM34.5 15.8c-.1 1.1.6 1.7 1.7 1.6.3-.1.7-.2 1-.2.1.5.1.6-.4.7-.5.1-.9.2-1.4.2-.7 0-1.2-.4-1.5-1-.4-1-.4-1.9 0-2.9s1.5-1.5 2.6-1.1c.5.2.8.7.8 1.4-.1.7-.5 1.2-1.2 1.3-.3.1-.6.1-.9.1-.2-.1-.5-.1-.7-.1zm0-.5c.5 0 1 0 1.5-.1s.7-.5.6-1c-.1-.4-.4-.6-.8-.6-.8-.1-1.4.7-1.3 1.7zM104.8 27.2c0 1.1.5 1.7 1.6 1.6.4 0 .8-.2 1.2-.2.1.6.1.6-.4.7-.5.1-1 .1-1.5.1-.7 0-1.2-.5-1.4-1.1-.3-.9-.3-1.8 0-2.6.4-1 1.4-1.5 2.4-1.2.6.2.9.5 1 1.2.1.6-.2 1.2-.7 1.4-.3.1-.7.2-1 .2-.4-.1-.8-.1-1.2-.1zm-.1-.7l.1.1c.5 0 1.1 0 1.6-.1s.7-.5.6-1c-.1-.4-.4-.6-.9-.6-.4 0-.8.2-1 .6-.2.3-.3.7-.4 1zM84.1 15.8c-.1 1.1.6 1.7 1.7 1.6.4-.1.7-.2 1.1-.3.1.6.1.6-.5.7-.4.1-.8.2-1.2.2-.8 0-1.3-.4-1.6-1.2-.3-.9-.3-1.8 0-2.6.4-1.1 1.4-1.6 2.5-1.2.6.2.9.6.9 1.1.1.7-.2 1.3-.8 1.5-.4.1-.8.2-1.2.2h-.9zm0-.6h.5c.4 0 .8 0 1.2-.2.4-.1.6-.6.5-1-.1-.4-.4-.6-.8-.6-.8.1-1.4.8-1.4 1.8zM6.3 15.8c0 1.2.6 1.8 1.7 1.5.3-.1.7-.2 1-.2.1.6.1.6-.4.7-.3.1-.7.2-1.1.2-1 0-1.6-.4-1.8-1.4-.2-.8-.2-1.7.1-2.5.4-1 1.6-1.5 2.6-1.1.5.2.7.6.7 1.1 0 .6-.1 1.1-.6 1.4-.4.2-.8.2-1.3.3-.2.1-.6 0-.9 0zm0-.5c.5 0 1.1 0 1.6-.1.4-.1.7-.5.6-1-.1-.4-.3-.7-.8-.7-.9 0-1.4.7-1.4 1.8zM42.6 15.8c.1.3.1.5.2.8.2.5.5.8 1.1.8.5 0 1-.1 1.5-.2.1.5.1.6-.5.7-.3.1-.7.1-1 .1-1.1 0-1.7-.4-1.9-1.5-.2-.7-.1-1.5.1-2.2.4-1.1 1.4-1.6 2.5-1.3.6.2.9.6.9 1.2 0 .8-.2 1.3-.9 1.5-.4.1-.9.1-1.4.2-.1-.1-.3-.1-.6-.1zm.1-.5c.5-.1 1.1-.1 1.6-.2.4-.1.6-.5.5-1-.1-.4-.3-.6-.8-.6-.8 0-1.4.8-1.3 1.8zM114.8 15.8c.1.3.1.6.2.8.2.5.5.8 1 .7.5 0 1-.1 1.6-.2.1.5.1.6-.5.7-.3.1-.6.1-.9.1-1.2.1-1.8-.4-2-1.6-.1-.7-.1-1.5.1-2.2.4-1.1 1.4-1.6 2.5-1.3.6.2.9.6.9 1.2 0 .8-.3 1.3-.9 1.5-.4.1-.8.1-1.2.2-.3.1-.5.1-.8.1zm-.1-.6h.9c.3 0 .6-.1.9-.2.4-.1.5-.6.4-1-.1-.4-.3-.6-.8-.6s-.9.2-1.1.6c-.1.4-.1.8-.3 1.2zM60.4 17.2c.1.6.1.6-.5.7-.3.1-.6.1-1 .1-1.2 0-1.8-.5-2-1.6-.1-.8-.1-1.5.2-2.2.4-1 1.4-1.5 2.5-1.2.6.2.9.6.9 1.3 0 .7-.3 1.2-.9 1.4-.3.1-.7.1-1.1.2h-.9c-.2.9.4 1.6 1.3 1.6.6-.1 1.1-.3 1.5-.3zm-2.7-1.9c.6-.1 1.1-.1 1.7-.2.4-.1.6-.6.5-1-.1-.4-.4-.6-.8-.6-.9 0-1.5.7-1.4 1.8zM22.5 15.8c0 1.2.6 1.8 1.7 1.5.3-.1.7-.2 1-.2.1.6.1.6-.4.7-.3.1-.6.1-.9.1-1.2.1-1.8-.4-2-1.6-.1-.8-.1-1.5.2-2.2.4-1 1.4-1.5 2.5-1.2.5.2.8.5.9 1.1 0 .6-.1 1.2-.7 1.5-.4.1-.8.2-1.2.2-.5.1-.8.1-1.1.1zm0-.5c.5-.1 1.1-.1 1.6-.2.4-.1.6-.5.5-1-.1-.4-.4-.6-.8-.6-.8 0-1.4.7-1.3 1.8zM120.3 29.3V26c0-1-.4-1.3-1.4-1-.9.3-.9.3-.9 1.2v3.1h-.6v-4.9h.5c0 .1.1.3.1.4.2-.1.3-.2.5-.2.5-.1 1-.3 1.5-.3.6 0 1 .4 1.1 1 .1.6 0 1.2 0 1.8v1.7c-.1.6-.1.6-.8.5zM91.3 24.4h.5c0 .1.1.3.1.4.2-.1.4-.2.6-.2.5-.1 1-.2 1.4-.3.5 0 1 .4 1 .9v4.1h-.6v-.4-3c0-.9-.4-1.1-1.2-.9-1 .3-1.1.3-1.1 1.4v3h-.7v-5zM72.6 13h.6v4.9h-.5c0-.1-.1-.3-.1-.4-.5.2-1.1.4-1.6.5-.7.1-1.4-.3-1.4-.9-.1-1.3 0-2.7 0-4h.6v3.3c0 .2 0 .4.1.6.1.3.3.5.6.5.6 0 1.1-.2 1.5-.4.1 0 .1-.2.1-.4v-3.2c.1-.2.1-.3.1-.5zM46.9 13h.5c0 .1.1.3.1.4.1-.1.3-.1.4-.2.5-.2 1-.4 1.6-.3.6.1 1 .4 1 1v4h-.7v-.4-3c0-.8-.4-1.1-1.1-.9h-.1c-1 .2-1.1.3-1.1 1.4v3h-.6v-5zM83.1 28.6c.6-1.3.8-2.8 1.1-4.2h.8c-.3 1.1-.6 2.2-.9 3.2l-.6 1.5c-.1.3-.3.2-.5.2s-.4 0-.5-.2c-.7-1.5-1.1-3-1.4-4.6v-.1h.7c.4 1.4.7 2.8 1.1 4.2h.2zM109.5 12.9v.6c-.3 0-.6-.1-.9-.1h-.7c-.3 0-.5.2-.6.5-.1.3.1.6.4.7.4.2.7.3 1.1.4.7.3 1 .8 1 1.5s-.4 1.2-1.1 1.2c-.6 0-1.2 0-1.7-.1-.4-.1-.2-.4-.2-.6.5.1 1 .1 1.5.2.5 0 .8-.2.9-.5.1-.5-.1-.8-.5-1l-.9-.3c-.7-.3-1.1-.9-.9-1.6.1-.5.5-.9 1.2-.9h1.4zM113.4 17.4v.6h-1.1c-.6-.1-.9-.5-.9-1.2v-2.7-.5h-.8V13h.8v-2h.7v2h1.2v.6h-1.2V16.3c0 .9.2 1.1 1.1 1.1h.2zM112.6 21.8c.1 0 .1 0 0 0 .7-.1.7-.1.7.5v6.4c0 .6 0 .6-.7.5v-7.4zM109 29.3v-4.9h.5c0 .1.1.3.1.4.6-.3 1.1-.6 1.8-.5v.5c-.5.1-.9.3-1.4.4-.2.1-.3.2-.3.5v3c-.1.7-.1.7-.7.6zM12.9 12.9v.5c-.5.1-.9.3-1.4.4-.3.1-.3.2-.3.5v3.5h-.7v-4.9h.5c0 .1.1.3.1.4.6-.1 1.1-.4 1.8-.4zM89 17.9h-.7V13h.5c0 .1.1.3.1.4.6-.3 1.1-.6 1.7-.5v.5c-.5.2-1 .3-1.4.4-.2.1-.2.3-.2.5v3.6zM39.3 17.9h-.7V13h.5c0 .1.1.3.1.4.6-.2 1.1-.6 1.8-.5v.5c-.5.1-.9.3-1.4.4-.2.1-.3.2-.3.4.1 1.3 0 2.5 0 3.7zM75.1 13c.5-.1.5-.1.6.4.6-.3 1.1-.6 1.8-.5v.5c-.4.1-.9.2-1.3.4-.3.1-.4.3-.4.6v3.5h-.7V13zM119.7 17.9h-.7V13c.5-.1.5-.1.6.4.6-.2 1.1-.6 1.8-.5v.5c-.5.1-1 .3-1.4.4-.2.1-.3.2-.3.4v3.7zM115 29.3v-4.9h.7v4.4c0 .6 0 .6-.7.5zM104.6 13h.7v4.9h-.7V13zM32.4 17.9h-.6V13h.6v4.9zM115.9 22.8c0 .3-.3.6-.6.6s-.6-.3-.6-.6.2-.6.6-.6c.3 0 .6.3.6.6zM104.9 10.8c.3 0 .6.2.6.5s-.2.6-.6.6c-.3 0-.6-.2-.6-.6.1-.2.3-.4.6-.5zM32.7 11.4c0 .3-.2.6-.6.6-.3 0-.6-.2-.6-.6 0-.3.2-.6.5-.6.4 0 .6.3.7.6zM70.4 11.2c.3 0 .5.2.5.5s-.2.5-.5.5-.5-.2-.5-.5c-.1-.3.2-.5.5-.5zM72.7 12.2c-.4 0-.6-.2-.6-.5s.2-.5.5-.5.5.2.5.5-.2.5-.4.5z"/><path class="st0" d="M223.1 18.2c.9 0 1.8-.1 2.6.2.9.3 1.4.9 1.4 1.9 0 .9-.5 1.6-1.4 1.9-.8.3-1.6.2-2.4.2-.1 0-.2-.1-.2-.2v-4zM223.1 16.8v-3.9c.9.1 1.7 0 2.5.2.7.1 1.1.6 1.2 1.3.1.8-.1 1.5-.8 1.9-.3.2-.7.3-1.1.4-.6.1-1.2.1-1.8.1zM232.2 18.1c.1-.8.4-1.4 1-1.8.6-.4 1.3-.3 1.9 0 .5.3.9 1.1.8 1.6 0 .1-.1.2-.2.2h-3.5z"/></svg>