<svg id="Calque_1" xmlns="http://www.w3.org/2000/svg" viewBox="0 0 273 87.8"><style>.st0{fill:#fff}</style><path class="st0" d="M111.9 41.6c0 .5-.1 1.1-.1 1.6 0 4.6-.1 9.3 0 13.9 0 1.5-.5 1.8-1.8 1.8-2.4-.1-4.9-.1-7.4 0-1 0-1.4-.3-1.4-1.4V19.8c0-1 .3-1.4 1.4-1.4 2.6.1 5.1.1 7.7 0 1.2 0 1.7.5 2.1 1.5 2.2 5 4.5 10 6.8 15 .1.2.1.4.2.6.2-.1.3-.2.5-.2 0-.5.1-1 .1-1.5V21.1c0-2.6 0-2.6 2.5-2.6 2.1 0 4.3.1 6.4 0 1.2 0 1.6.3 1.6 1.5v37.5c0 1.1-.4 1.5-1.4 1.5-2.4 0-4.9-.1-7.4 0-1.1 0-1.6-.5-2.1-1.4-2.5-5.3-5-10.7-7.5-16 .1-.1 0-.1-.2 0zM22.1 43.4h-4.8c-.9 0-1.4-.2-1.4-1.3 0-1.9 0-3.8.1-5.7 0-.4.6-1.2.9-1.2 5-.1 10-.1 15.1-.1v23.8h-7c-.3 0-.7-.4-.8-.7-.3-.5-.4-1-.6-1.7-.7.5-1.3 1-2 1.3-2.9 1.4-5.9 1.9-9 1.5-2.4-.3-4.7-.7-6.8-2.1C2.7 55 1.3 51.9.7 48.4c-.9-6.2-1-12.5 0-18.8.9-5.6 3.6-9.9 10.6-11.4 5.1-1 10.1-1 14.8 1.6 3.5 2 5.2 5.1 5.5 9.1.2 3.4.2 3.4-3.3 3.4h-6.6c-.3-.9-.5-1.7-.7-2.6-.6-2.5-2.2-3.8-4.7-3.6-2.4.1-4.2 1.7-4.3 4.1-.3 4.2-.6 8.4-.5 12.6 0 2 .7 4.1 1.1 6.1.1.3.3.6.5.9 2.1 2.7 7.5 2.3 8.7-.9.5-1.5.2-3.5.3-5.5zM85.2 55.8c-.5.3-.7.3-.9.5-2.7 3.5-11.4 3.6-14.9 1.6-3.6-2-5.3-5.2-5.3-9.3V30.4c0-3.4-.1-6.8-.2-10.3 0-1.2.4-1.7 1.6-1.6 2.5.1 5 0 7.5 0 1 0 1.5.3 1.6 1.4 0 .7.1 1.4.1 2.1 0 7.9.1 15.7 0 23.6 0 3.4 1.7 4.9 4.2 5.1 3.5.2 5.8-1.6 6-4.8.1-1.4.1-2.9.1-4.3V20.2c0-1.2.3-1.7 1.6-1.7 2.4.1 4.8.1 7.2 0 1.4 0 1.8.5 1.8 1.9-.1 7.1 0 14.3 0 21.4 0 5.1 0 10.1.1 15.2 0 1.4-.3 1.9-1.8 1.9-2.2-.1-4.4-.1-6.6 0-1.4.1-2-.4-1.8-1.8-.1-.3-.2-.7-.3-1.3zM156.3 38.2c4.4 1.2 5.9 3.6 6 8.2.1 3.2 0 6.3-2.1 9-1.5 1.9-3.5 3-5.9 3-5.7.1-11.4 0-17.1.1-1.3 0-1.5-.5-1.5-1.6V20.3c0-1.1.3-1.6 1.4-1.6 5.4.1 10.8.1 16.2.3 4.3.2 6.9 2.2 7.6 6.5.6 3.2.8 6.6-1.2 9.6-.6.9-1.5 1.5-2.3 2.2-.3.2-.6.5-1.1.9zM143.2 47v4.3c0 .9.2 1.4 1.3 1.4h6.3c2-.1 3.2-1.3 3.4-3.2 0-.3.1-.6.2-.9.6-2 0-3.9-1-5.6-.4-.7-1.5-1.2-2.3-1.2-2.2-.2-4.5-.1-6.7 0-.4 0-1 .7-1 1-.2 1.3-.2 2.7-.2 4.2zm3.9-11.2h2.4c2 0 3-.6 3.5-2.5.4-1.6.6-3.2.4-4.8-.2-2.5-1.8-3.7-4.4-3.7h-4.6c-.9 0-1.3.3-1.2 1.3.1 2 0 4 0 6 0 3.7 0 3.7 3.9 3.7zM182.4 40.6h-9.2c-1.4 0-1.8.5-1.6 1.9.5 2.5.7 5.1 1.4 7.6.8 2.8 3.2 4.3 6.2 4.2 1.5 0 3-.2 4.5-.6 2.2-.6 3.5-2.6 3.6-5 .1-2.1.1-2.2 2.3-2.2 3.3 0 3.4 0 3 3.2-.4 3.7-2.3 6.6-5.9 8.1-4 1.7-8.2 1.8-12.4.5-3.6-1.1-5.6-3.9-6.7-7.3-1.8-5.8-1.9-11.7-1.4-17.7.3-3.7 1-7.3 3.1-10.5s5-4.9 8.9-5c2.5-.1 5-.2 7.4.8 3.5 1.5 5.5 4.2 6.4 7.7 1.1 4.3 1.3 8.7 1.2 13.1 0 1-.5 1.2-1.3 1.2h-9.5zm4.8-4.4c0-2.1.2-4.1-.1-6.1-.5-3.4-1.8-6.3-5.6-7.3-3.2-.8-7.2.7-8.6 4.1-1 2.4-1.1 4.9-1.3 7.4-.1 1.7-.1 2 1.7 2h12.2c.6.1 1.1 0 1.7-.1zM47.3 22.2c.5-.6.9-1.2 1.4-1.7 2.5-2.3 5.5-3.1 8.7-2.6 4 .5 4 .6 3.9 4.6 0 1.8 0 3.6-.1 5.4 0 .1-.1.2-.1.2-2.2-.1-4.3-.3-6.5-.4-5-.3-7.2 3-7.4 7-.2 7.2-.1 14.5-.2 21.7 0 2.4 0 2.4-2.4 2.4h-6.7c-1 0-1.5-.3-1.5-1.4V19.9c0-1.1.5-1.4 1.5-1.4 2.3 0 4.7.1 7 0 1.4-.1 2 .4 1.8 1.8-.1.6 0 1.1 0 1.7.3.1.4.2.6.2zM254.2 22.6c.2-.4.3-.9.6-1.3 2.6-4 11-4.5 14.5-2.1 2.7 1.9 3.4 4.7 3.4 7.8v19.1c0 3.6.1 7.2.3 10.9 0 1.1-.3 1.6-1.5 1.5-.9-.1-1.7-.1-2.6 0-1.4.1-1.7-.4-1.7-1.7V29.7c0-.8 0-1.6-.2-2.4-1-3.9-5.1-4.7-8.3-3.8-3.3.9-4.8 3.2-4.8 7 .1 8.8 0 17.6.1 26.3 0 1.4-.4 1.7-1.7 1.7-4.2 0-4.2 0-4.2-4.3V20c0-1.3.3-1.9 1.7-1.7 1.2.1 2.7-.3 3.4.3.6.6.4 2.2.5 3.3 0 .3.2.5.5.7zM221.1 0h5.1c.3 0 .7.5.8.9.1.4.1.9.1 1.4v54.2c0 2 0 2-2 2-4-.1-3.4.6-3.4-3.5V4c-.3-1.3-.5-2.5-.6-4zM204.6 22.4c.3-.5.7-1 1-1.5 1.7-2 3.8-3.1 6.5-3.2 1.4 0 2.9-.1 4.3.1.4 0 1 .6 1.1 1 .1 1.2 0 2.4.1 3.7 0 1.4-.7 1.1-1.7 1-1.8-.2-3.8-.4-5.5 0-4.5 1-6.1 4.5-6.2 8.6-.2 7.8-.1 15.6-.1 23.4 0 3.2.5 2.8-2.8 2.9h-1.1c-1.2.2-1.6-.4-1.6-1.6V19.9c0-1.3.4-1.8 1.7-1.6h.2c1.1.1 2.5-.3 3.3.3.6.4.3 2 .4 3 0 .1.1.3.1.4 0 .2.1.3.3.4zM241 38.4v18.5c0 1.2-.3 1.6-1.5 1.6-5.2-.1-4.4.7-4.4-4.3v-34c0-1.4.3-1.9 1.8-1.8 4.2.1 4.2 0 4.2 4.1-.1 5.3-.1 10.6-.1 15.9zM228.3 69.9h1.1c3.9 0 3.8 0 4.4 3.9.3 2.1.9 4.2 1.4 6.4.1.4.3.8.7 1.7.5-2 .9-3.5 1.3-5.1.5-2 .8-3.9 1.3-5.9.1-.4.6-.8 1-.8 1.2-.1 2.4 0 3.7 0 0 .4.1.8.1 1.1v15.2c0 1.3-.5 1.5-1.6 1.5s-1.8-.1-1.8-1.5c.1-2.5 0-4.9 0-7.4h-.4c-.6 2.5-1.3 5.1-1.8 7.6-.2 1.2-.8 1.4-1.8 1.3-.9-.1-2 .5-2.3-1.2-.4-2.5-1.1-4.9-2-7.4 0 .5-.1 1-.1 1.5 0 1.8-.1 3.7 0 5.5.1 1.4-.7 1.5-1.8 1.6-1.2 0-1.6-.4-1.6-1.6.1-5 0-10 0-15 .1-.6.1-.9.2-1.4zM256.9 78.5c1.7 1.5 2.4 4.9 1.4 6.9-.7 1.5-2 2.1-3.6 2.2-2.3.1-4.6.1-6.9 0-.4 0-1.1-.5-1.1-.8-.1-5.6 0-11.2 0-16.9 2.9 0 5.7-.2 8.4.1 2.6.2 3.7 3.1 3.2 5.3-.3 1.1-.9 2.1-1.4 3.2zm-6.6 3.9c0 2.3 0 2.3 1.9 2.3 2.2 0 2.8-.5 2.9-2.2 0-1.8-.7-2.4-2.8-2.4-1.9 0-2 0-2 2.3zm1.8-5.2c2.2 0 2.4-.2 2.4-2.1 0-2-.5-2.4-2.5-2.5-1.9-.1-1.7 1.1-1.7 2.2 0 2.4 0 2.4 1.8 2.4zM224.8 75.9h-2.9c-.6-1-.9-2.1-1.7-2.7-1.3-1-3.1-.2-3.2 1.5-.2 2.8-.1 5.6 0 8.4 0 1.2 1.2 2 2.5 1.9 1.3-.1 2.1-.7 2.1-2.2v-2.2c-.9 0-1.8-.1-2.9-.1 0-.7-.1-1.3 0-1.9.1-.4.6-1 1-1 1.4-.1 2.8-.1 4.1 0 .4 0 1 .6 1 1 .1 2.8.1 5.5.1 8.3 0 1.4-1.3 1-1.8.8-1.1-.4-2-.1-3 .1-3.8.8-6.4-.9-6.8-5.1-.3-3 0-6.2.4-9.2.3-2.2 2.3-3.5 4.5-3.5h1.1c3.6-.6 5.8 2.1 5.5 5.9zM265.2 80.4v5.9c0 1-.5 1.4-1.4 1.3-.8-.1-2.1.4-2.1-1.1 0-5.4 0-10.8.1-16.2 0-.1.1-.2.2-.4h3.2v7.2c1.3 0 2.5.1 3.6 0 .3 0 .7-.7.7-1 .1-1.5.1-3 0-4.4-.1-1.4.4-2 1.8-1.8.5.1 1 .1 1.6.1 0 .5.1 1 .1 1.4V86c0 1.2-.3 1.7-1.6 1.7-1.2 0-2-.2-1.9-1.7.1-1.4 0-2.9 0-4.3 0-.9-.3-1.3-1.2-1.3-1 .1-1.9 0-3.1 0zM82.1 16V7c0-.3.6-.8 1-.8 2.2-.1 4.4-.1 6.6 0 .4 0 1 .7 1 1.1.1 2.6.1 5.2 0 7.8 0 .3-.5.9-.7.9h-7.9zM68.6 16V7.1c0-.3.6-.9 1-.9 2.1-.1 4.3 0 6.4-.1.9 0 1.2.4 1.2 1.2v7.6c0 .4-.6 1-.9 1-2.5.1-5 .1-7.7.1zM241 10.8c0 3.5 0 3.5-3.5 3.5h-1.4c-.9.1-1.2-.4-1.2-1.2V8.2c0-.8.4-1.2 1.2-1.2h3.7c.9 0 1.3.4 1.2 1.3v2.5z"/></svg>