<?xml version="1.0" encoding="utf-8"?>
<!-- Generator: Adobe Illustrator 23.0.0, SVG Export Plug-In . SVG Version: 6.00 Build 0)  -->
<svg version="1.1" id="Calque_1" xmlns="http://www.w3.org/2000/svg" xmlns:xlink="http://www.w3.org/1999/xlink" x="0px" y="0px"
	 viewBox="0 0 320 188.7" style="enable-background:new 0 0 320 188.7;" xml:space="preserve">
<style type="text/css">
	.st0{fill:#FFFFFF;}
</style>
<g>
	<path class="st0" d="M268.1,178.9c2.6,1.1,3.4,2.1,3.4,5c0,2.1-1.6,4-4,4.2c-2.1,0.3-4.2,0.3-6.3,0.5v-18.5
		c2.1,0.3,4.2,0.3,6.3,0.5c1.8,0.3,2.9,1.6,3.2,3.2c0.3,1.8-0.3,3.7-2.1,4.7C268.3,178.6,268.3,178.6,268.1,178.9
		C268.1,178.6,268.1,178.6,268.1,178.9z M263.1,186.8c1.6,0.3,3.7,0,4.7-0.5c1.3-0.8,1.8-1.8,1.8-3.4c-0.3-1.6-0.8-2.6-2.4-2.9
		c-1.1-0.3-2.4-0.3-3.4-0.3c-0.3,0-0.5,0.3-0.5,0.5C263.1,182.3,263.1,184.4,263.1,186.8z M263.1,178.4c1.3-0.3,2.6-0.3,3.7-0.5
		c1.3-0.5,1.8-1.6,1.8-2.9c0-1.3-0.5-2.4-1.8-2.6c-1.1-0.3-2.4-0.3-3.7-0.5C263.1,171.8,263.1,178.4,263.1,178.4z M176.3,148.8
		c2.9,1.1,3.7,2.6,3.4,5.5c-0.3,2.1-2.1,3.7-4.7,4h-5.5v-18.5c2.1,0,4.2,0,6.3,0.5c1.6,0.3,2.9,1.3,3.2,3.2c0.3,1.8,0,3.7-1.8,4.7
		C176.9,148.6,176.6,148.6,176.3,148.8z M171.6,156.8c1.6,0,3.2,0.3,4.5-0.5c1.3-0.8,1.8-1.8,1.8-3.4c0-1.3-0.8-2.4-1.8-2.6
		c-1.3-0.3-2.9-0.5-4.5-0.5V156.8z M171.6,148.3c1.3-0.3,2.6-0.3,3.7-0.5c1.3-0.5,1.8-1.6,1.8-3.2c0-1.3-0.8-2.4-2.1-2.6
		c-1.1-0.3-2.1-0.3-3.4-0.3C171.6,141.7,171.6,148.3,171.6,148.3z M70.4,158.1c-1.1-1.8-1.1-2.6,0.8-4c-2.1-2.1-2.4-5-0.8-7.1
		s4-2.4,7.4-0.3c0-1.1,0.5-1.3,1.6-1.1c0,1.8,0.3,4,0,5.8c-0.3,2.1-1.8,3.4-4,3.4c-0.8,0-1.6,0-2.6,0.3c-0.5,0-1.3,0.3-1.3,1.1
		c0,0.8,0.5,1.1,1.3,1.1h4c0.5,0,1.1,0,1.8,0.3c1.1,0.3,1.8,0.8,2.1,2.1c0.3,1.3,0,2.4-1.1,3.2c-1.1,0.5-2.1,1.1-3.2,1.1
		c-1.6,0.3-3.4,0-5-0.3c-1.1-0.3-2.1-0.8-2.4-2.1s0.3-2.4,1.1-3.2C70.1,158.3,70.4,158.1,70.4,158.1z M78,149.4
		c0-1.6-1.3-2.9-3.4-2.9c-1.8,0-3.2,1.3-3.2,3.4s1.3,3.4,3.2,3.4C76.7,153.6,77.8,152.3,78,149.4z M74.6,162.6
		c1.1-0.3,1.8-0.3,2.9-0.5c1.1-0.3,1.6-1.1,1.6-2.1c0-0.8-0.8-1.3-1.8-1.3c-1.6,0-3.2,0-5-0.3c-0.3,0-0.3,0-0.5,0.3
		c-0.3,0.5-0.8,1.3-1.1,1.8c0,0.8,0.5,1.3,1.3,1.6S73.8,162.6,74.6,162.6z M215.1,146.5c0-0.8,0.5-1.3,1.6-1.1
		c-0.3,2.1,0.3,4.2-0.3,6.6c-0.5,1.8-2.1,2.6-3.7,2.9c-0.8,0-1.8,0-2.6,0.3c-0.5,0-1.3,0.3-1.3,1.1s0.5,1.1,1.1,1.1h3.7
		c0.5,0,1.3,0,1.8,0.3c1.1,0.3,2.1,0.8,2.4,2.1c0.3,1.3,0,2.6-1.3,3.4c-0.8,0.5-1.8,0.8-2.6,1.1h-5.3c-1.3,0-2.4-0.8-2.6-2.1
		c-0.3-1.3,0.3-2.4,1.3-3.2l0.3-0.3c-1.1-2.1-0.8-2.9,1.1-4c-1.3-1.1-1.8-2.4-1.8-4c0-1.3,0.3-2.4,1.1-3.4
		C209.3,144.9,211.4,144.6,215.1,146.5z M215.1,149.6c0-1.8-1.3-2.9-3.4-2.9c-1.8,0-3.2,1.3-3.2,3.4s1.3,3.4,3.2,3.4
		C213.8,153.6,215.1,152.3,215.1,149.6z M211.7,162.8c1.1-0.3,1.8-0.3,2.9-0.5s1.6-1.1,1.3-2.1c-0.3-1.1-1.1-1.3-1.8-1.3
		c-1.6,0-3.4,0-5-0.3h-0.5c-0.3,0.5-0.8,1.3-1.1,1.8c0,0.8,0.5,1.3,1.1,1.6C209.8,162.3,210.9,162.6,211.7,162.8z M0,158.3v-18.2
		c2.6,0,5.3-0.3,7.6,0.5c2.1,0.8,3.4,2.4,4,4.5c0.5,2.6,0.5,5.3-0.3,7.9c-1.1,3.4-3.4,5.3-7.1,5.3H0z M1.8,156.8h1.8
		c2.9,0,5-1.3,5.5-4.2c0.3-1.8,0.5-3.7,0.3-5.3c-0.5-4.7-3.2-5.8-7.9-5C1.8,147,1.8,151.7,1.8,156.8z M244.1,158.3h-1.8v-12.9h1.3
		c0,0.3,0.3,0.8,0.3,1.1c2.4-1.1,5-2.6,7.6,0c0.5-0.3,0.8-0.5,1.3-0.8c1.3-0.5,2.4-0.8,3.7-0.8c1.3,0.3,2.1,0.8,2.4,2.1v10.8H257
		v-3.2v-6.6c0-1.6-0.8-2.1-2.1-1.8c-1.1,0.3-2.1,0.5-2.9,1.1c-0.3,0-0.5,0.5-0.5,1.1v9.5h-1.8v-1.1v-8.2c0-2.1-0.8-2.9-2.9-2.4h-0.5
		c-2.1,0.8-2.1,0.8-2.1,3.2L244.1,158.3L244.1,158.3z M45.6,150.4v7.9h-1.8v-18.2c2.4,0,5-0.3,7.4,0.5c1.8,0.5,2.6,2.1,2.6,3.7
		c0,2.1-0.5,3.7-2.4,4.7c-0.3,0.3-0.8,0.3-1.1,0.5c1.8,0.8,2.4,2.4,2.9,4.2c0.5,1.3,0.8,2.9,1.3,4.5h-1.3c-0.5,0-0.8-0.3-1.1-0.8
		c-0.3-1.3-0.8-2.6-1.1-4C50.1,150.7,48.8,149.9,45.6,150.4z M45.6,148.8c1.6,0,3.2,0.3,4.5-0.5c1.3-0.8,1.8-1.8,1.8-3.2
		s-0.5-2.4-1.6-2.9c-1.6-0.8-3.2-0.5-4.7-0.5C45.6,141.7,45.6,148.8,45.6,148.8z M145,146.5v-7.9h1.6v19.5c-1.3,0.5-1.3,0.5-1.6-0.8
		c-0.8,0.3-1.6,0.8-2.4,1.1c-2.6,1.1-4.7-0.3-5.5-2.9c-0.5-2.1-0.5-4.2,0-6.6c1.1-3.7,4-4.7,7.1-2.6
		C144.4,146.2,144.7,146.5,145,146.5z M145,152v-3.2c0-0.3,0-0.5-0.3-0.8c-1.1-1.8-4.2-1.8-5.3,0c-1.3,2.4-1.1,5-0.3,7.6
		c0.3,0.8,1.1,1.3,1.8,1.3c1.1-0.3,2.4-0.8,3.4-1.1c0.3,0,0.3-0.5,0.3-0.8C145,154.1,145,153.1,145,152z M225.9,182.1
		c0.3-1.3,0.5-2.6,0.8-3.7c0.8-2.4,2.9-3.4,5.8-3.2c2.4,0.3,4,1.8,4.2,4.2c0.3,1.6,0.3,3.4-0.3,5c-0.5,2.9-2.9,4.5-5.8,4.2
		c-2.9-0.3-4.5-2.1-4.7-5.3C226.2,183.1,226.2,182.6,225.9,182.1C226.2,182.3,226.2,182.1,225.9,182.1z M235.4,182.1
		c-0.3-1.1-0.3-1.8-0.5-2.9c-0.5-1.6-1.3-2.4-2.9-2.6c-1.6,0-2.6,0.5-3.4,2.1c-0.8,1.8-0.8,4-0.3,5.8c0.5,1.6,1.6,2.4,2.9,2.4
		c1.3,0,2.6-0.8,3.2-2.1C234.9,183.9,235.1,182.8,235.4,182.1z M264.6,152.8c0,3.2,1.6,4.7,4.5,4c0.8-0.3,1.8-0.5,2.6-0.5
		c0.3,1.6,0.3,1.6-1.1,1.8c-1.3,0.3-2.4,0.3-3.7,0.3c-1.8,0-3.2-1.1-3.7-2.6c-1.1-2.6-1.1-5.3,0-7.9c1.1-2.6,4.2-3.7,6.9-2.6
		c1.3,0.5,1.8,1.8,1.8,3.2c0,1.6-0.5,2.9-1.8,3.4c-1.1,0.3-2.1,0.5-2.9,0.5C266.5,152.8,265.4,152.8,264.6,152.8z M264.6,151.5
		c1.3,0,2.6,0,4-0.3s1.8-1.3,1.6-2.6c-0.3-1.1-1.1-1.6-2.4-1.6C266,146.7,264.4,148.8,264.6,151.5z M90.9,152.8
		c-0.3,2.9,1.6,4.5,4.5,4.2c0.8-0.3,1.8-0.5,2.6-0.5c0.3,1.3,0.3,1.6-1.1,1.8c-1.3,0.3-2.4,0.5-3.7,0.5c-1.8,0-3.2-1.1-4-2.6
		c-1.1-2.6-1.1-5,0-7.6c1.1-2.6,4-4,6.9-2.9c1.3,0.5,2.1,1.8,2.1,3.7c-0.3,1.8-1.3,3.2-3.2,3.4c-0.8,0.3-1.6,0.3-2.4,0.3
		C92.3,152.8,91.5,152.8,90.9,152.8z M90.9,151.5c1.3,0,2.6,0,4-0.3c1.3-0.3,1.8-1.3,1.6-2.6c-0.3-1.1-1.1-1.6-2.1-1.6
		C92.3,146.7,90.7,148.8,90.9,151.5z M276.2,182.8c0,2.9,1.3,4.5,4.2,4.2c1.1,0,2.1-0.5,3.2-0.5c0.3,1.6,0.3,1.6-1.1,1.8
		s-2.6,0.3-4,0.3c-1.8,0-3.2-1.3-3.7-2.9c-0.8-2.4-0.8-4.7,0-6.9c1.1-2.6,3.7-4,6.3-3.2c1.6,0.5,2.4,1.3,2.6,3.2
		c0.3,1.6-0.5,3.2-1.8,3.7c-0.8,0.3-1.8,0.5-2.6,0.5C278.4,182.8,277.3,182.8,276.2,182.8z M276,181l0.3,0.3c1.3,0,2.9,0,4.2-0.3
		c1.3-0.3,1.8-1.3,1.6-2.6c-0.3-1.1-1.1-1.6-2.4-1.6c-1.1,0-2.1,0.5-2.6,1.6C276.5,179.2,276.2,180.2,276,181z M221.7,152.8
		c-0.3,2.9,1.6,4.5,4.5,4.2c1.1-0.3,1.8-0.5,2.9-0.8c0.3,1.6,0.3,1.6-1.3,1.8c-1.1,0.3-2.1,0.5-3.2,0.5c-2.1,0-3.4-1.1-4.2-3.2
		c-0.8-2.4-0.8-4.7,0-6.9c1.1-2.9,3.7-4.2,6.6-3.2c1.6,0.5,2.4,1.6,2.4,2.9c0.3,1.8-0.5,3.4-2.1,4c-1.1,0.3-2.1,0.5-3.2,0.5
		C224.1,152.8,221.7,152.8,221.7,152.8z M221.7,151.2h1.3c1.1,0,2.1,0,3.2-0.5c1.1-0.3,1.6-1.6,1.3-2.6c-0.3-1.1-1.1-1.6-2.1-1.6
		C223.3,146.7,221.7,148.6,221.7,151.2z M16.6,152.8c0,3.2,1.6,4.7,4.5,4c0.8-0.3,1.8-0.5,2.6-0.5c0.3,1.6,0.3,1.6-1.1,1.8
		c-0.8,0.3-1.8,0.5-2.9,0.5c-2.6,0-4.2-1.1-4.7-3.7c-0.5-2.1-0.5-4.5,0.3-6.6c1.1-2.6,4.2-4,6.9-2.9c1.3,0.5,1.8,1.6,1.8,2.9
		c0,1.6-0.3,2.9-1.6,3.7c-1.1,0.5-2.1,0.5-3.4,0.8C18.5,153.1,17.4,152.8,16.6,152.8z M16.6,151.5c1.3,0,2.9,0,4.2-0.3
		c1.1-0.3,1.8-1.3,1.6-2.6c-0.3-1.1-0.8-1.8-2.1-1.8C17.9,146.7,16.6,148.6,16.6,151.5z M112.3,152.8c0.3,0.8,0.3,1.3,0.5,2.1
		c0.5,1.3,1.3,2.1,2.9,2.1c1.3,0,2.6-0.3,4-0.5c0.3,1.3,0.3,1.6-1.3,1.8c-0.8,0.3-1.8,0.3-2.6,0.3c-2.9,0-4.5-1.1-5-4
		c-0.5-1.8-0.3-4,0.3-5.8c1.1-2.9,3.7-4.2,6.6-3.4c1.6,0.5,2.4,1.6,2.4,3.2c0,2.1-0.5,3.4-2.4,4c-1.1,0.3-2.4,0.3-3.7,0.5
		C113.6,152.8,113.1,152.8,112.3,152.8z M112.6,151.5c1.3-0.3,2.9-0.3,4.2-0.5c1.1-0.3,1.6-1.3,1.3-2.6c-0.3-1.1-0.8-1.6-2.1-1.6
		C113.9,146.7,112.3,148.8,112.6,151.5z M302.6,152.8c0.3,0.8,0.3,1.6,0.5,2.1c0.5,1.3,1.3,2.1,2.6,1.8c1.3,0,2.6-0.3,4.2-0.5
		c0.3,1.3,0.3,1.6-1.3,1.8c-0.8,0.3-1.6,0.3-2.4,0.3c-3.2,0.3-4.7-1.1-5.3-4.2c-0.3-1.8-0.3-4,0.3-5.8c1.1-2.9,3.7-4.2,6.6-3.4
		c1.6,0.5,2.4,1.6,2.4,3.2c0,2.1-0.8,3.4-2.4,4c-1.1,0.3-2.1,0.3-3.2,0.5C303.9,152.8,303.4,152.8,302.6,152.8z M302.3,151.2h2.4
		c0.8,0,1.6-0.3,2.4-0.5c1.1-0.3,1.3-1.6,1.1-2.6c-0.3-1.1-0.8-1.6-2.1-1.6c-1.3,0-2.4,0.5-2.9,1.6
		C302.9,149.1,302.9,150.2,302.3,151.2z M159.2,156.5c0.3,1.6,0.3,1.6-1.3,1.8c-0.8,0.3-1.6,0.3-2.6,0.3c-3.2,0-4.7-1.3-5.3-4.2
		c-0.3-2.1-0.3-4,0.5-5.8c1.1-2.6,3.7-4,6.6-3.2c1.6,0.5,2.4,1.6,2.4,3.4s-0.8,3.2-2.4,3.7c-0.8,0.3-1.8,0.3-2.9,0.5h-2.4
		c-0.5,2.4,1.1,4.2,3.4,4.2C156.8,157,158.2,156.5,159.2,156.5z M152.1,151.5c1.6-0.3,2.9-0.3,4.5-0.5c1.1-0.3,1.6-1.6,1.3-2.6
		c-0.3-1.1-1.1-1.6-2.1-1.6C153.4,146.7,151.8,148.6,152.1,151.5z M59.3,152.8c0,3.2,1.6,4.7,4.5,4c0.8-0.3,1.8-0.5,2.6-0.5
		c0.3,1.6,0.3,1.6-1.1,1.8c-0.8,0.3-1.6,0.3-2.4,0.3c-3.2,0.3-4.7-1.1-5.3-4.2c-0.3-2.1-0.3-4,0.5-5.8c1.1-2.6,3.7-4,6.6-3.2
		c1.3,0.5,2.1,1.3,2.4,2.9c0,1.6-0.3,3.2-1.8,4c-1.1,0.3-2.1,0.5-3.2,0.5C60.9,152.8,60.1,152.8,59.3,152.8z M59.3,151.5
		c1.3-0.3,2.9-0.3,4.2-0.5c1.1-0.3,1.6-1.3,1.3-2.6c-0.3-1.1-1.1-1.6-2.1-1.6C60.6,146.7,59,148.6,59.3,151.5z M317.1,188.4v-8.7
		c0-2.6-1.1-3.4-3.7-2.6c-2.4,0.8-2.4,0.8-2.4,3.2v8.2h-1.6v-12.9h1.3c0,0.3,0.3,0.8,0.3,1.1c0.5-0.3,0.8-0.5,1.3-0.5
		c1.3-0.3,2.6-0.8,4-0.8c1.6,0,2.6,1.1,2.9,2.6c0.3,1.6,0,3.2,0,4.7v4.5C318.9,188.6,318.9,188.6,317.1,188.4z M240.7,175.5h1.3
		c0,0.3,0.3,0.8,0.3,1.1c0.5-0.3,1.1-0.5,1.6-0.5c1.3-0.3,2.6-0.5,3.7-0.8c1.3,0,2.6,1.1,2.6,2.4v10.8h-1.6v-1.1v-7.9
		c0-2.4-1.1-2.9-3.2-2.4c-2.6,0.8-2.9,0.8-2.9,3.7v7.9h-1.8C240.7,188.6,240.7,175.5,240.7,175.5z M191.4,145.4h1.6v12.9h-1.3
		c0-0.3-0.3-0.8-0.3-1.1c-1.3,0.5-2.9,1.1-4.2,1.3c-1.8,0.3-3.7-0.8-3.7-2.4c-0.3-3.4,0-7.1,0-10.5h1.6v8.7c0,0.5,0,1.1,0.3,1.6
		c0.3,0.8,0.8,1.3,1.6,1.3c1.6,0,2.9-0.5,4-1.1c0.3,0,0.3-0.5,0.3-1.1v-8.4C191.4,146.2,191.4,145.9,191.4,145.4z M123.6,145.4h1.3
		c0,0.3,0.3,0.8,0.3,1.1c0.3-0.3,0.8-0.3,1.1-0.5c1.3-0.5,2.6-1.1,4.2-0.8c1.6,0.3,2.6,1.1,2.6,2.6v10.5h-1.8v-1.1v-7.9
		c0-2.1-1.1-2.9-2.9-2.4h-0.3c-2.6,0.5-2.9,0.8-2.9,3.7v7.9h-1.6C123.6,158.6,123.6,145.4,123.6,145.4z M219,186.5
		c1.6-3.4,2.1-7.4,2.9-11.1h2.1c-0.8,2.9-1.6,5.8-2.4,8.4l-1.6,4c-0.3,0.8-0.8,0.5-1.3,0.5c-0.5,0-1.1,0-1.3-0.5
		c-1.8-4-2.9-7.9-3.7-12.1v-0.3h1.8c1.1,3.7,1.8,7.4,2.9,11.1C218.5,186.5,219,186.5,219,186.5z M288.6,145.2v1.6
		c-0.8,0-1.6-0.3-2.4-0.3h-1.8c-0.8,0-1.3,0.5-1.6,1.3c-0.3,0.8,0.3,1.6,1.1,1.8c1.1,0.5,1.8,0.8,2.9,1.1c1.8,0.8,2.6,2.1,2.6,4
		c0,1.8-1.1,3.2-2.9,3.2c-1.6,0-3.2,0-4.5-0.3c-1.1-0.3-0.5-1.1-0.5-1.6c1.3,0.3,2.6,0.3,4,0.5c1.3,0,2.1-0.5,2.4-1.3
		c0.3-1.3-0.3-2.1-1.3-2.6l-2.4-0.8c-1.8-0.8-2.9-2.4-2.4-4.2c0.3-1.3,1.3-2.4,3.2-2.4C284.9,145.2,288.6,145.2,288.6,145.2z
		 M298.9,157v1.6H296c-1.6-0.3-2.4-1.3-2.4-3.2v-7.1V147h-2.1v-1.6h2.1v-5.3h1.8v5.3h3.2v1.6h-3.2v7.1c0,2.4,0.5,2.9,2.9,2.9
		C298.4,157,298.9,157,298.9,157z M296.8,168.6C297.1,168.6,297.1,168.6,296.8,168.6c1.8-0.3,1.8-0.3,1.8,1.3v16.9
		c0,1.6,0,1.6-1.8,1.3V168.6z M287.3,188.4v-12.9h1.3c0,0.3,0.3,0.8,0.3,1.1c1.6-0.8,2.9-1.6,4.7-1.3v1.3c-1.3,0.3-2.4,0.8-3.7,1.1
		c-0.5,0.3-0.8,0.5-0.8,1.3v7.9C288.9,188.6,288.9,188.6,287.3,188.4z M34,145.2v1.3c-1.3,0.3-2.4,0.8-3.7,1.1
		c-0.8,0.3-0.8,0.5-0.8,1.3v9.2h-1.8v-12.9H29c0,0.3,0.3,0.8,0.3,1.1C30.8,145.9,32.2,145.2,34,145.2z M234.6,158.3h-1.8v-12.9h1.3
		c0,0.3,0.3,0.8,0.3,1.1c1.6-0.8,2.9-1.6,4.5-1.3v1.3c-1.3,0.5-2.6,0.8-3.7,1.1c-0.5,0.3-0.5,0.8-0.5,1.3V158.3z M103.6,158.3h-1.8
		v-12.9h1.3c0,0.3,0.3,0.8,0.3,1.1c1.6-0.5,2.9-1.6,4.7-1.3v1.3c-1.3,0.3-2.4,0.8-3.7,1.1c-0.5,0.3-0.8,0.5-0.8,1.1
		C103.9,152,103.6,155.2,103.6,158.3z M198,145.4c1.3-0.3,1.3-0.3,1.6,1.1c1.6-0.8,2.9-1.6,4.7-1.3v1.3c-1.1,0.3-2.4,0.5-3.4,1.1
		c-0.8,0.3-1.1,0.8-1.1,1.6v9.2H198V145.4z M315.5,158.3h-1.8v-12.9c1.3-0.3,1.3-0.3,1.6,1.1c1.6-0.5,2.9-1.6,4.7-1.3v1.3
		c-1.3,0.3-2.6,0.8-3.7,1.1c-0.5,0.3-0.8,0.5-0.8,1.1V158.3z M303.1,188.4v-12.9h1.8v11.6C305,188.6,305,188.6,303.1,188.4z
		 M275.7,145.4h1.8v12.9h-1.8V145.4z M85.4,158.3h-1.6v-12.9h1.6V158.3z M305.5,171.3c0,0.8-0.8,1.6-1.6,1.6s-1.6-0.8-1.6-1.6
		s0.5-1.6,1.6-1.6C304.7,169.7,305.5,170.5,305.5,171.3z M276.5,139.6c0.8,0,1.6,0.5,1.6,1.3c0,0.8-0.5,1.6-1.6,1.6
		c-0.8,0-1.6-0.5-1.6-1.6C275.2,140.4,275.7,139.9,276.5,139.6z M86.2,141.2c0,0.8-0.5,1.6-1.6,1.6c-0.8,0-1.6-0.5-1.6-1.6
		c0-0.8,0.5-1.6,1.3-1.6C85.4,139.6,85.9,140.4,86.2,141.2z M185.6,140.7c0.8,0,1.3,0.5,1.3,1.3c0,0.8-0.5,1.3-1.3,1.3
		s-1.3-0.5-1.3-1.3C184,141.2,184.8,140.7,185.6,140.7z M191.6,143.3c-1.1,0-1.6-0.5-1.6-1.3c0-0.8,0.5-1.3,1.3-1.3
		c0.8,0,1.3,0.5,1.3,1.3C192.7,142.8,192.2,143.3,191.6,143.3z"/>
	<path class="st0" d="M149.9,0v29.8h22.5v7.5h-38.1v39.4v0.5h7.2V44.3h8v32.9h7.2V44.3h8v32.9h7.2V62.4h147.6c0-21,0-41.7,0.3-62.4
		H149.9z M269.3,15.8c1.8,0,3.1,1.3,3.1,3.1c0,1.8-1.3,3.1-3.1,3.1c-1.8,0-3.1-1.3-3.1-3.1C266.1,17.1,267.4,15.8,269.3,15.8z
		 M207.6,41.4c-0.8,2.6-2.6,4.4-4.9,5.4c-2.1,0.8-4.4,1.3-6.5,1.3h-11.4c-0.8,0-1-0.3-1-1c0-1.8,0-1.8,1.6-2.1
		c0.5-0.3,1.3-0.3,2.1-0.5h0c0-8.3,0-16.6,0.3-24.3c-1-0.3-1.8-0.5-2.8-0.5c-0.8,0-1-0.3-1-1v-1.8h12.9c1.8,0,3.4,0.3,4.9,0.5
		c3.1,0.5,4.9,2.6,5.4,5.7c0.5,3.4-0.8,6.2-3.6,7.8l-1.6,0.8c0.3,0.3,0.5,0.3,0.5,0.3C206.9,33.4,208.9,37,207.6,41.4z M221.1,44.5
		c2.3,0,4.7-0.3,7-1c0.3,0,0.5,0,1-0.3v3.1c0,0.3-0.3,0.5-0.5,0.5c-3.4,1-6.7,1.6-10.4,0.8s-5.4-3.1-6.5-6.5
		c-0.8-3.1-0.8-6.5,0.3-9.6c1.3-4.4,4.9-7,9.8-6.7c4.4,0.3,7.2,2.6,8,7.2c0.3,1.3,0.3,2.8,0.3,4.4h-14.5
		C214.6,40.1,217.5,44.3,221.1,44.5z M246.2,29.5c-2.3,0-3.6,0.8-4.4,3.1c-0.5,1.8-0.8,3.6-0.8,5.4v10.1h-4.7V29
		c-1-0.3-1.8-0.5-2.8-0.5c-0.8,0-1-0.3-1-1v-1.8h8V29c2.1-3.4,3.9-4.4,7-3.9c0,1.6,0,2.8,0.3,4.4H246.2z M260.2,47.6H248v-2.1
		c0-0.3,0.3-0.5,0.5-0.5c0.8-0.3,1.6-0.5,2.3-0.5c0.5,0,0.8-0.3,0.8-0.8V18.6c0-0.5-0.3-0.8-0.8-0.8c-0.8,0-1.8-0.3-2.8-0.3h0V15
		h8.3v1.3v27.2c0,0.8,0,1.3,1,1.3c0.3-0.3,0.5,0,0.8,0C260.5,45,260.5,45,260.2,47.6z M275.7,47.9h-12.4v-2.1c0-0.3,0.3-0.5,0.5-0.5
		c0.8-0.3,1.8-0.3,2.6-0.5c0.3,0,0.5-0.3,0.5-0.5V28.7h0c-0.8-0.3-1.8-0.5-2.8-0.8c-0.5,0-0.8-0.3-0.8-1v-1.6c2.8,0,5.4,0,8.3-0.3
		v1.3v17.1c0,1,0.3,1.3,1,1.3c0.5,0,1.3,0.3,1.8,0.3c1.3,0,1.3,0.5,1.3,1.6V47.9z M300.6,47.1v0.3h-4.4V31.1
		c-0.3-2.6-2.1-3.6-4.7-2.8c-2.3,0.8-3.6,2.3-4.4,4.7c-0.3,1.3-0.5,2.3-0.5,3.6v10.1v1.3h0h0l0,0c-1.6,0-3.1,0-4.9-0.5V28.2
		c-1.3-0.3-2.3-0.3-3.6-0.5v-2.6c2.6,0,4.9-0.3,7.5-0.3c0.5,0,0.8,0.3,0.8,0.8v2.8c1.3-1.8,2.8-3.1,4.9-3.4c1.6-0.3,3.4-0.5,4.9-0.3
		c2.6,0.5,4.4,2.6,4.4,5.7V47.1z"/>
	<polygon class="st0" points="286.6,47.9 286.6,47.9 286.6,47.9 	"/>
	<path class="st0" d="M218.5,28.5c1.6-1,3.4-0.8,4.9,0c1.3,0.8,2.3,2.8,2.1,4.1c0,0.3-0.3,0.5-0.5,0.5h-9.1
		C216.2,31.1,217,29.5,218.5,28.5z"/>
	<path class="st0" d="M39.4,24.9c-1.8-3.4-4.4-5.2-8.3-4.9c-3.6,0.3-6.5,1.8-9.3,3.6c-0.8,0.8-1.8,1.6-2.8,2.3v-0.5
		c0.8-3.1,1.3-6.5,2.1-9.6c1.3-4.9,1-10.4,1-15.5V0H2.8v10.1h7h0C6.5,27.4,3.1,44.8,0,61.6h1.3c4.1,0,8.5,0.3,12.7,0.8
		c7.8,1,14.2-1.3,19.2-7.2c6-6.7,8.3-14.8,7.8-23.6C40.9,29.3,40.4,26.9,39.4,24.9z M28.5,39.6c-0.8,3.9-2.1,7.2-4.4,10.4
		c-2.1,3.1-4.9,4.4-8.8,3.6c-0.5-0.3-1-0.3-1.6-0.3c0,0,0-0.3-0.3-0.3h0c1-4.9,2.1-9.6,3.1-14.2c0-0.3,0.3-0.8,0.3-1
		c0-1.8,1-2.8,2.3-3.6c1.6-1,3.1-1.8,4.7-2.3c2.6-0.8,4.7,0.5,4.9,3.1C28.7,36.5,28.7,38.1,28.5,39.6z"/>
	<path class="st0" d="M72,20.7c-5.4-1.3-10.6-0.5-15.5,2.3c-10.4,6-14,20.5-10.9,29.5c2.1,6,7,10.1,12.9,10.4c5.2,0.3,10.1-1,15-2.3
		c0.3,0,0.5-0.3,0.5-0.5v-7.8c-0.5,0.3-0.8,0.3-1.3,0.3c-3.4,0.3-6.5,1-9.8,1c-4.1,0-7-3.6-6.5-7.8h4.4c2.8,0,5.7,0,8.5-0.5
		c6.2-1.3,10.9-4.9,11.4-11.7C81.3,27.7,79,22.3,72,20.7z M68.1,33.9c-0.5,2.6-3.1,4.7-6,4.9c-1.6,0.3-3.1,0-4.7,0
		c0.8-3.6,2.3-6.7,6-8.5c0.5-0.3,1.3-0.5,2.1-0.5C67.6,30,68.6,31.6,68.1,33.9z"/>
	<rect x="88.3" y="29.5" class="st0" width="46.1" height="7.5"/>
	<rect x="119.1" y="44" class="st0" width="7" height="32.9"/>
	<rect x="103.8" y="44" class="st0" width="7" height="32.9"/>
	<rect x="88.3" y="44" class="st0" width="7.2" height="32.9"/>
	<ellipse transform="matrix(0.7071 -0.7071 0.7071 0.7071 24.1755 97.9766)" class="st0" cx="130.4" cy="19.8" rx="5.4" ry="5.2"/>
	<path class="st0" d="M199.9,28.5c1.8-1,2.3-2.8,2.1-4.9c-0.3-1.8-1.3-3.1-3.1-3.4c-2.1-0.5-4.1-0.3-6.5-0.5v10.1
		c1.6,0,3.1,0,4.7-0.3C198.1,29.3,199.1,29,199.9,28.5z"/>
	<path class="st0" d="M199.1,33.9c-2.1-0.8-4.4-0.5-6.7-0.5h0v10.4c0,0.3,0.3,0.5,0.5,0.5c2.1,0,4.1,0.3,6.2-0.5
		c2.3-0.8,3.6-2.6,3.6-4.9C202.7,36.2,201.4,34.7,199.1,33.9z"/>
	<path class="st0" d="M225.5,32.6c0.3-1.3-0.8-3.4-2.1-4.1c-1.6-0.8-3.4-1-4.9,0s-2.3,2.6-2.6,4.7h9.1
		C225.2,33.1,225.5,32.9,225.5,32.6z"/>
	<rect x="0" y="113.7" class="st0" width="320" height="2.5"/>
</g>
</svg>
