<svg id="svg25679" xmlns="http://www.w3.org/2000/svg" viewBox="0 0 737.22 512.51"><style>.st0{fill:#fff}</style><path class="st0" d="M392.8 512.45c-11.27 0-23.18.17-35.09-.04-18.41-.32-36.73-1.93-54.96-4.52-22.1-3.14-43.89-7.77-65.33-14a455.97 455.97 0 0 1-90.12-37.04c-34.57-18.75-65.42-42.27-91.8-71.52-16.79-18.62-30.87-39.05-40.92-62.11C7.16 306.15 2.5 288.4.7 269.82c-3.29-34.02 5.17-65.37 20.91-95.13 13.18-24.93 30.81-46.42 51.18-65.78 27.65-26.27 58.89-47.27 93.18-63.87 26.46-12.81 53.89-22.99 82.41-30.06 14.84-3.68 29.84-6.82 44.91-9.44 10.3-1.79 20.83-2.27 31.26-3.33 7.12-.72 14.23-1.55 21.36-2.1 3.47-.26 6.98-.01 10.47.05 11.41.17 22.83.08 34.23.6 11.38.53 22.79 1.19 34.07 2.68 14.58 1.93 29.16 4.18 43.51 7.33 14.93 3.27 29.73 7.32 44.34 11.82 24.08 7.41 47.2 17.3 69.42 29.18 37.21 19.9 71.13 44.24 99.78 75.44 18.13 19.74 32.5 41.97 42.59 66.87 6.63 16.37 10.9 33.31 12.38 50.97 2.6 30.82-4.19 59.66-17.72 87.18-18.79 38.23-47.1 68.34-80.31 94.28-17.59 13.74-36.81 24.89-56.29 35.66-20.57 11.37-42.44 19.58-64.62 27.06-16.5 5.57-33.28 10.15-50.37 13.4-14.2 2.7-28.52 4.84-42.85 6.77-10.32 1.39-20.72 2.02-31.74 3.05zM129.28 193.12l-.06-.68c-7.5.91-15.03 1.68-22.51 2.77-5.67.83-11.16 2.58-15.16 6.94-4.41 4.81-9.89 6.89-16.15 7.36-8.17.62-16.18 1.87-23.9 4.82-2.06.79-2.65 1.62-2.31 3.72 2.13 13.15 4.22 26.31 6.2 39.49 3.15 20.91 6.3 41.83 9.27 62.77 1.3 9.15 2.1 18.37 3.32 27.53.17 1.27 1.16 2.99 2.24 3.49a56.76 56.76 0 0 0 9.73 3.51c9.03 2.36 18.07 2.15 27.14-.07 6.04-1.48 11.1-4.84 16.41-7.77 1.79-.99 3.71-2.05 5.68-2.32 9.3-1.31 18.37.68 27.43 2.38 6.6 1.23 13.09 3.55 19.73 4.07 15.77 1.22 31.25-1.2 46.26-6.08 15.11-4.91 30.15-10.03 45.12-15.34 7.76-2.76 14.94-2.86 22.27 1.44 2.79 1.63 6.49 2.51 9.73 2.41 7.96-.26 15.91-1.14 23.82-2.07 8-.94 15.35-3.63 21.52-9.07 1.72-1.52 2.69-3.03 1.9-5.4-.65-1.97-.98-4.05-1.58-6.04-7.22-23.55-11.69-47.67-15.54-71.96-3.31-20.86-2.62-41.87-3.56-62.81-.18-3.92-.37-4.24-4.04-2.72-5.69 2.35-11.59 3.45-17.76 3.49-6.65.04-13.01-1.62-19.47-2.82-13.28-2.46-26.65-2.75-40.02-.57-12.14 1.98-23.91 4.6-33.86 12.79-13.58 11.17-29.61 13.56-46.44 10.71-11.75-2.01-23.39-4.54-35.41-3.97zm59.46 184.73c-.08.31-.17.61-.25.92 1.27.82 2.49 1.75 3.83 2.44 16.95 8.68 34.57 15.72 52.81 21.19 31.31 9.4 63.27 15.23 95.91 17.42 21.32 1.43 42.63 1.42 63.91-.3 26.8-2.17 53.15-6.89 79.01-14.38 26.07-7.55 50.92-17.81 73.99-32.22.47-.29.89-.68 1.88-1.44-2.05-.42-3.54-.84-5.05-1-12.89-1.35-25.72-3.06-38.37-5.97-5.59-1.29-11.33-2.2-16.72-4.1-20.02-7.05-40.68-10.07-61.78-10.43-7.82-.13-15.65.41-23.47.61-12.62.32-25.34-.5-37.63 3.45-.11.03-.27-.13-.59-.29.05-1.07.04-2.23.16-3.37 1.69-16.4 3.46-32.8 5.09-49.21 2.61-26.27 5.14-52.56 7.69-78.84 1.8-18.57 3.57-37.14 5.39-55.7.67-6.8 1.49-13.58 2.11-20.38.08-.84-.45-2.3-1.05-2.52-1.66-.61-3.51-.72-5.17-1.01-6.92 58.18-13.82 116.08-20.71 173.99-.24.01-.49.03-.73.04-.28-1.68-.62-3.35-.85-5.03-2.79-20.63-5.58-41.27-8.34-61.91-4.32-32.28-8.64-64.56-12.94-96.85-.68-5.12-1.17-5.48-6.37-5.06-1.89.15-2.45.95-2.22 2.72.24 1.82.29 3.65.5 5.47 2.92 25.15 5.86 50.29 8.77 75.44 3.99 34.5 7.97 69.01 11.94 103.52.52 4.51 1 9.02 1.53 13.86-1.17-.54-2.04-.82-2.78-1.31-4.6-3.04-9.32-2.53-14.37-1.09-12.8 3.65-25.67 7.1-38.56 10.42-7.98 2.06-15.6 1.08-22.28-4.1-5.67-4.4-11.42-4.41-17.4-.81-1 .6-2.04 1.13-3.02 1.76-10.12 6.51-20.81 11.9-31.97 16.39-1.06.43-1.93 1.39-3 1.71-2.06.61-4.28.72-6.3 1.43-8.66 3.06-17.61 4.31-26.74 4.54-1.96.04-3.91 0-5.86 0zm180.32-116.17c.22-.01.43-.03.65-.04.24-2.87.41-5.76.74-8.62 1.88-16.05 3.78-32.09 5.7-48.13 2.31-19.35 4.62-38.69 6.99-58.03.56-4.54.48-8.82-1.53-13.16-2.63-5.66-.04-13.66 5.25-16.78 4.29-2.52 9.08-3.25 14.01-2.25 5.8 1.18 9.73 4.64 11.49 10.28 1.7 5.44.4 10.19-3.94 14.02-4.24 3.74-3.73 8.73-3.82 13.65.45.04.69.11.92.08.49-.06.99-.16 1.47-.27 17.33-4.09 34.83-4.47 52.38-1.95 18.03 2.59 35.47 7.62 52.68 13.47 20.14 6.84 40.66 11.59 62.1 11.03 7.91-.21 15.81-.73 23.71-1.13.29-.01.57-.22 1.59-.65-3.66-3.99-6.81-7.98-10.51-11.36-12.81-11.68-27.05-21.36-42.43-29.36-23.26-12.09-47.76-20.87-73.22-26.96-30.27-7.25-61.1-10.11-92.13-10.86-24.09-.58-48.14.19-72.11 2.82-28.67 3.16-56.76 8.93-83.94 18.74-24.49 8.83-47.88 19.78-68.73 35.66-7.5 5.71-14.83 11.61-20.84 18.95-.6.73-1.09 1.56-1.83 2.63 3.6.31 6.77.34 9.86.88 7.37 1.3 14.67 3.02 22.05 4.23 17.43 2.86 33.34-.19 46.65-12.65 7.67-7.19 16.83-11.53 26.87-14.24 17.78-4.81 35.59-4.32 53.42-.29 9 2.04 18.05 3.33 27.22 1.2 2.5-.58 4.98-1.37 7.34-2.38 4.24-1.8 4.5-3.26 1.56-6.87-.68-.84-1.43-1.64-2.05-2.52-2.95-4.18-3.37-8.56-1.06-13.19 3.73-7.47 13.25-10.85 21.49-7.59 8.29 3.28 11.6 11.25 7.88 19.36-1.43 3.12-1.53 6.3-1.1 9.54 1.62 12.13 3.37 24.25 4.99 36.38 3.13 23.36 6.21 46.73 9.32 70.1.3 2.09.62 4.17.91 6.26zm268.08 19.65c-7.57-3.27-15.32-3.5-23.12-1.99-8.58 1.66-17.05 3.89-25.64 5.45-11.93 2.17-23.99 3.3-36.04 1.21-8.28-1.44-16.38-4-24.68-5.13-8.01-1.09-15.65-3.08-23.16-5.87-25.63-9.52-52.11-13.73-79.41-12.35-6.22.31-12.4 1.39-18.6 2.13-2.73.33-4.17 1.87-4.18 4.66-.01 1.14 0 2.27 0 3.46 2.53 0 4.85.12 7.15-.02 8.23-.52 16.45-1.44 24.68-1.66 17.79-.47 35.07 2.33 52.12 7.65 14.76 4.6 29.92 7.93 44.9 11.87 10.42 2.74 20.92 5.1 31.76 4.76 11.07-.35 22.14-.96 33.19-1.73 4.29-.3 8.75-.73 12.73-2.19 7.76-2.84 15.62-3.95 23.79-3.44 1.29.08 2.58.01 3.87.01.23-2.41.42-4.48.64-6.82zm-5.37 65.19c.34-2.53.81-5.21 1.02-7.9.17-2.16-1-3.54-3.2-3.66-4.8-.26-9.74-1.18-14.4-.43-8.77 1.4-17.46 3.5-26.04 5.84-13.87 3.77-27.64 4.55-41.68.92-22.4-5.8-44.85-11.42-67.33-16.9-9.85-2.4-19.75-5.21-29.78-6.13-11.14-1.02-22.46-.32-33.69.1-5.45.2-10.92 1.23-16.29 2.35-4.28.89-5.71 3.68-4.79 7.68 6.08 0 12.14-.04 18.2.01 14.57.12 29.22-.68 43.69.63 31.84 2.89 62.76 10.11 92.13 23.11 8.43 3.73 16.89 4.08 25.54 1.11 5.9-2.03 11.72-4.33 17.65-6.25 8.94-2.89 18.07-4.83 27.52-3.34 3.75.57 7.38 1.82 11.45 2.86zm2.83-38.14c-4.17 0-8.15-.01-12.13 0-8.12.03-16.08.86-23.78 3.81-9.88 3.8-20.24 5.45-30.79 5.85-11.2.42-22.05-1.79-32.76-4.76-23.18-6.45-46.34-12.96-69.48-19.52-19.86-5.63-39.73-5.97-59.69-.58-6.83 1.84-8.95 4.89-7.89 11.99 3.28-.93 6.52-1.92 9.8-2.77 12.24-3.19 24.66-5.48 37.3-3.69 8.21 1.16 16.34 3.15 24.38 5.26 18.91 4.98 37.67 10.55 56.64 15.33 12.76 3.22 25.76 5.41 39.08 3.84 3.89-.46 7.81-.59 11.7-1.04 12.9-1.48 25.82-2.79 38.66-4.65 5.67-.82 11.16-1.86 16.75.08.44.15.96.08 1.4.12.14-.24.28-.38.29-.53.17-2.74.33-5.48.52-8.74zm10.21-70.27c.1-1.41.18-2.41.23-3.4.21-4.69-.89-6.29-5.33-7.74-1.58-.52-3.17-1.01-4.77-1.48-12.92-3.84-26.06-5.7-39.46-3.35-5.4.94-10.62 2.87-16 3.88-12.51 2.35-24.7.29-36.71-3.28-2.78-.82-5.51-1.78-8.26-2.67-2.6 8.05-1.09 11.63 6.5 14.36 10.32 3.72 21.05 4.24 31.81 2.87 10.9-1.38 21.73-3.29 32.6-4.91 11.68-1.74 23.1-.57 34.14 3.6 4.84 1.83 8.48 4.82 7.18 11.11 1.15-.11 2.04-.14 2.91-.29 7.67-1.29 15.25-1.16 22.7 1.37 2.44.83 4.91 1.61 7.41 2.24.6.15 1.7-.12 2-.57 1.33-2.05.82-4.59-1.23-5.94-1.37-.9-2.93-1.56-4.47-2.17-7.4-2.95-15.14-3.8-23.04-3.65-2.66.06-5.3.02-8.21.02zm-109.32-47.29c0 3.26-.08 6.08.07 8.88.03.51.92 1.26 1.52 1.4 5.34 1.26 10.79 2.11 16.03 3.66 7.98 2.37 16 2.95 24.22 2.07 12.98-1.39 25.87-3.58 39.06-1.8 11.48 1.55 23.04 2.42 33.8 7.22.58.26 1.23.34 1.97.53.95-2.63.26-4.8-1.46-6.52-1.27-1.27-2.84-2.32-4.45-3.15-2.96-1.53-6.09-2.7-9.05-4.24-6.2-3.22-12.85-4.86-19.72-4.8-10.06.08-20.14.45-30.16 1.31-12.76 1.09-25.42 1.72-38-1.39-4.43-1.08-8.89-2.03-13.83-3.17zm104.89 71.62c.09-1.15.24-2.3.27-3.46.14-4.95-.83-6.57-5.59-7.68-3.86-.91-7.91-1.9-11.8-1.64-11.2.75-22.52 1.29-33.49 3.44-14.73 2.89-29.25 2.89-43.91.51-4.41-.71-8.78-1.65-13.16-2.49-1.63 5.41-.39 8.78 4.47 10.9 3.41 1.49 6.96 2.88 10.59 3.57 10.72 2.03 21.57 1.14 32.38.74 6.88-.25 13.54-1.47 19.69-4.85 1.35-.74 2.97-1.29 4.5-1.37 6.71-.35 13.45-.94 20.14-.57 5.24.28 10.41 1.84 15.91 2.9zm-301 193.52c3.44.22 6.57.54 9.71.59 2.02.03 2.51.87 2.43 2.75-.24 5.15-.47 10.31-.45 15.47.02 5.95 2.06 8.3 7.9 9.24 2.2.35 4.49.34 6.72.19.59-.04 1.41-1.14 1.59-1.88.51-2.12-.34-3.34-2.72-3.15-.83.07-1.66-.01-2.5-.04-4.32-.12-5.15-.87-5.11-5.14.04-5.08.29-10.15.35-15.23.02-1.53.6-2.04 2.09-1.99 2.72.08 5.45.02 8.13.02.92-4.26.72-4.52-3.28-4.62-.42-.01-.83 0-1.25-.02-6.26-.25-5.73.92-5.42-5.85.08-1.8.17-3.3-2.39-3.3-3.15 0-3.41.07-3.53 2.98-.06 1.41-.12 2.83-.08 4.24.03 1.31-.55 1.82-1.81 1.71-2.07-.17-4.14-.37-6.21-.48-3.88-.2-4.67-1.18-3.16-4.76.44-1.04 1.89-1.98 3.06-2.3 1.29-.35 2.81-.05 4.2.16 1.67.25 2.52-.25 2.62-2.03.09-1.64.12-3.07-2.13-3.03-1.5.02-3-.07-4.49-.07-5.97 0-8.95 2.53-9.52 8.52-.21 2.23-1 2.96-3.11 2.6-2.48-.42-2.03 1.61-2.27 2.92-.29 1.53.8 1.94 1.99 1.79 2.81-.36 2.87 1.22 2.7 3.32-.61 7.46-1.13 14.92-1.62 22.39-.04.56.21 1.42.62 1.67 2.75 1.71 5.13.37 5.35-2.86.48-7.81 1.03-15.6 1.59-23.81zm109.16 26.38c-.01 4.94.5 5.64 5.12 5.32 3.12-.22 6.3-.75 9.27-1.71 5.4-1.74 8.33-6.07 8.35-11.76 0-1.98-.23-3.99-.62-5.94-1.59-7.99-3.29-15.95-4.91-23.94-.7-3.43-.86-3.4-4.28-2.75-2.67.51-1.7 2.33-1.65 3.97-7.28-5.36-18.64-1.92-20.09 8.97-.81 6.07.58 11.8 4.52 16.64 4.16 5.11 10.78 6.16 16.38 2.6 1.6-1.02 2.86-2.56 4.28-3.87 2.02 6.63-.75 11.38-7.54 12.39-2.83.43-5.76.08-8.83.08zm-190.76-20.66c-.33 1.14-.48 1.96-.81 2.7-1.17 2.61-.3 4.3 2.28 5.23 4.28 1.54 8.47 3.53 12.88 4.45 8.01 1.66 13.64-2 15.45-9.29 1.28-5.15-.38-9.73-5.13-12.72-3.22-2.03-6.8-3.49-10.17-5.3-3.14-1.69-4.06-3.57-3.37-6.47.63-2.65 3.03-4.41 6.18-4.51 4.81-.15 8.89 1.79 12.74 4.42.71.48 1.47.89 2.41 1.45.31-.99.53-1.6.69-2.23.9-3.5.94-3.95-2.29-5.18-4.24-1.61-8.6-3.25-13.04-3.89-8.31-1.2-15.09 6.66-13.05 14.56.91 3.51 3.46 5.63 6.43 7.27 2.84 1.56 5.84 2.84 8.68 4.39 2.15 1.17 3.58 2.92 3.54 5.59-.08 4.53-3.73 7.64-8.57 6.63-3.28-.68-6.46-2.07-9.54-3.46-1.78-.79-3.27-2.21-5.31-3.64zM281.9 56.51c-1.05-3.34-1.1-3.26-4.5-2.62-2.74.52-1.53 2.33-1.34 3.67.76 5.26 1.65 10.5 2.5 15.75 1.14 7.05 2.31 14.11 3.44 21.16.51 3.21 2.67 1.17 4.09 1.26 1.62.09 1.82-.97 1.56-2.37-.48-2.53-.86-5.08-1.25-7.62-.23-1.47-.39-2.95-.63-4.77 8.06 5.31 17.33 1.66 19.21-6.32.85-3.59.77-7.64.11-11.3-1.03-5.75-4.03-10.57-10.19-12.06-5.24-1.25-9.66.54-13 5.22zm50.51 117.98c-.8 44.95 3.31 89.3 16.01 132.58.21-.03.41-.05.62-.08-5.55-44.16-11.09-88.33-16.63-132.5zm305.51 146.63c-.24 1.96-.46 3.6-.65 5.24-.68 5.94 1.3 8.35 7.28 8.73 1.15.07 2.39.14 3.47-.18 7.1-2.07 13.43-.33 19.46 3.53 2.13 1.37 4.49 2.36 6.76 3.54 3.12-6.94 2.36-9.56-3.21-13.84-9.89-7.59-21.38-7.21-33.11-7.02zM130.06 112.5c.08-.23.16-.46.25-.69-1.73-1.28-2.06-4.25-5.15-3.88-8.35.99-17.12 9.66-18.18 17.98-1.32 10.33 8.57 23.09 19.27 24.89 8.67 1.46 18.2-4.38 22.2-13.59 1.56-3.59.72-5.67-3.03-7.48-.71 2.1-1.19 4.33-2.18 6.29-3.84 7.58-13.41 13.86-23.2 4.51a32.933 32.933 0 0 1-3.64-4.1c-6.09-8.19-4.28-16.74 4.7-21.55 2.07-1.11 4.55-1.45 6.86-2.09.67-.19 1.4-.2 2.1-.29zm359.78-50.81c1.06-4.31 1.94-8.36 3.09-12.34.6-2.08-.23-2.59-2-2.99-1.79-.41-3.09-.73-3.68 1.71-3.01 12.36-6.09 24.7-9.33 37-.66 2.53.9 2.54 2.36 3.03 1.65.55 2.83.52 3.27-1.62.63-3.09 1.46-6.15 2.3-9.19.79-2.88 1.42-5.85 2.64-8.55 1.68-3.72 5.82-5.12 9.78-3.77 3.28 1.12 4.67 3.81 3.73 8.15-1.23 5.68-2.66 11.33-4.19 16.94-.51 1.85-.12 2.65 1.72 2.93 1.55.24 3.21 1.29 3.83-1.4 1.38-5.91 3.14-11.73 4.36-17.67 1.86-9.04-3.85-15.23-12.67-13.93-1.69.24-3.28 1.05-5.21 1.7zM186.86 100c.6-.35 1.19-.78 1.85-1.07 4.57-2.01 9.15-4.01 13.73-5.99 5.35-2.31 5.48-2.71 2.3-7.71-3.14-4.94-8.09-7.42-13.03-6.54-10.09 1.8-15.23 10.29-12.15 20.05 3.58 11.35 12.94 15.35 23.55 9.96 1.91-.97 3.71-2.25 5.39-3.59 3.18-2.53 3.19-3.57-.21-7.68-.5.9-.76 1.97-1.44 2.47-2.53 1.85-5.04 3.89-7.86 5.16-5.09 2.29-10.2.02-12.13-5.06zm348.68-16.5c-1.5-.51-2.79-1.12-4.16-1.37-3.71-.69-7.47-1.8-11.18-1.69-4.26.13-7.06 3.76-7.96 8.67-.7 3.85 1.08 7.64 4.69 9.66 4.31 2.41 8.76 2.9 13.53.34-.22.75-.3 1.22-.49 1.64-.92 2.04.72 2.18 1.93 2.58 1.24.41 2.68 1.57 3.41-.68 2.03-6.24 4.31-12.4 6.02-18.73 1.47-5.43-.67-10.16-5.7-12.49-3.24-1.5-6.9-2.33-10.46-2.87-3.95-.6-4.6.28-4.81 4.71.91 0 1.82-.12 2.7.02 2.84.47 5.79.7 8.48 1.64 3.96 1.39 5.32 4.57 4 8.57zm66.86 43.07c.32.12.51.15.62.25 4.47 3.87 8.94 7.75 13.41 11.62 3.47 3.01 3.49 3.01 6.26-.76 3.3-4.49 4.6-9.42 1.84-14.5-2.9-5.33-7.54-8.37-13.83-8.25-6.16.11-12.98 5.53-15.5 12.12-1.63 4.28-1.19 8.35 1.11 12.22 2.56 4.31 6.44 7.11 10.92 9.17 3.65 1.68 4.65 1.26 6.38-2.8-.78-.28-1.62-.43-2.3-.85-3.06-1.94-6.46-3.55-9.01-6.03-3.6-3.5-3.28-8.08.1-12.19zM474.74 54.09c2.08-4.14 1.62-6.17-1.79-8.36-.98-.63-2-1.2-3.05-1.69-8.76-4.05-18.54-2.71-23.94 3.77-5.98 7.17-7.49 15.64-4.65 24.42 3.25 10.04 15.6 15.21 26.24 11.54 3.42-1.18 4.51-3.44 3.34-7.21-3.58 2.23-7.44 3.24-11.65 2.92-6.96-.53-11.32-4.32-12.48-11.09-.92-5.38.28-10.46 2.83-15.16 1.99-3.68 5.27-5.71 9.52-5.96 5.36-.31 9.99 1.36 13.83 5.16.56.55 1.16 1.07 1.8 1.66zm-326.17 51.75c-2.62-4.24-4.94-7.77-7.03-11.43-1.31-2.3-2.49-.98-3.83-.24-1.4.76-2.27 1.47-1.15 3.26 6.79 10.86 13.55 21.75 20.19 32.7 1.27 2.1 2.33 1.31 3.8.49 1.63-.92 2.36-1.77 1.12-3.66-2.65-4.03-5.15-8.16-7.64-12.29-.72-1.2-1.33-2.5-1.77-3.83-1.16-3.57.59-7.38 4.11-9.18 3.18-1.63 5.97-.95 8.33 2.57 3.29 4.9 6.39 9.93 9.38 15.03 1.16 1.98 2.16 1.71 3.73.66 1.41-.95 2.65-1.53 1.25-3.61-2.69-4-5.04-8.23-7.66-12.28-1.35-2.08-2.77-4.19-4.5-5.94-3.03-3.05-6.74-3.83-10.77-2.08-3.96 1.75-6.61 4.66-7.56 9.83zm101.99-33.25c-.38-1.37-.61-2.08-.78-2.8-1.5-6.31-3.03-12.61-4.46-18.93-.54-2.38-2.07-1.59-3.47-1.29-1.45.31-2.76.66-2.15 2.76.75 2.55 1.26 5.17 1.87 7.76 2.34 9.95 4.72 19.89 7 29.86.56 2.45 2.06 1.7 3.62 1.43 1.71-.29 2.55-.91 2.03-2.82-.77-2.8-1.41-5.64-2.06-8.48-.19-.81-.23-1.66-.42-3.1 5.44 3.21 10.4 5.91 15.11 9.01 3.19 2.1 5.72.33 8.66-.95-6.42-3.85-12.83-7.71-19.38-11.64 4.14-5.89 8.04-11.43 12.06-17.15-3.88-.42-6.43.63-8.21 3.12-3.03 4.26-6.06 8.51-9.42 13.22zm149.88 109.74c-.23-.04-.46-.08-.68-.13-.12 2.15-.15 4.32-.37 6.46-1.39 13.25-2.88 26.48-4.22 39.74-1.99 19.63-3.84 39.28-5.83 58.91-1.61 15.82-3.4 31.62-4.97 47.44-.32 3.24-.05 6.54-.05 9.81 9.29-53.69 15.12-107.72 16.12-162.23zm-88.6-119.96c.25 1.89.36 3.81.76 5.67 1.44 6.63 5.44 10.6 11.87 11.43 5.51.71 11.2-1.32 14.11-6.46 2.43-4.3 2.44-8.92 1.68-13.6-1.77-10.77-12.43-15.96-21.72-10.5-5.08 2.99-6.57 7.88-6.7 13.46zm81.61 418.05c.43 1.13.61 2.76 1.18 2.9 1.38.35 2.99.22 4.38-.18.45-.13.7-1.73.66-2.64-.39-9.07-.89-18.13-1.26-27.2-.08-1.91-1.16-1.97-2.48-1.82-1.34.15-3.32-.64-3.32 1.84.01 2.33.2 4.66.25 6.99.09 4.16.42 8.34.1 12.48-.34 4.42-3.88 6.91-8.67 6.73-3.73-.14-5.73-2.5-6-7.16-.33-5.82-.74-11.64-.87-17.46-.05-2.23-.94-2.62-2.86-2.54-1.87.08-3.21.2-3.05 2.69.44 6.48.53 12.98 1.09 19.45.38 4.37 2.24 8.2 6.74 9.68 4.52 1.49 8.89.96 12.59-2.44.47-.44.96-.85 1.52-1.32zm17.54-30.06c-1.32.13-2.46.27-3.6.35-1.47.11-2.01.84-1.81 2.31 1.22 9.14 2.4 18.29 3.6 27.43.2 1.51.67 2.29 2.57 1.96 3.5-.61 3.53-.44 3.13-3.89-.11-.91-.24-1.81-.35-2.72-.56-4.62-1.37-9.22-1.59-13.86-.23-4.74 2.96-8.01 7.45-8.34 4.47-.33 6.48 1.5 7.43 6.77.1.57.15 1.15.22 1.73.68 5.27 1.41 10.54 2.02 15.83.22 1.88 1.33 2.18 2.77 1.77 1.22-.35 3.43.4 3.12-2.1-.87-6.84-1.61-13.71-2.85-20.49-.78-4.28-3.18-7.79-7.84-8.78-4.76-1.01-8.9.28-12.16 3.99-.35.4-.56.94-1.12 1.92-.45-1.77-.67-2.64-.99-3.88zM370.9 49.31c-.05-1.04-.08-1.54-.09-2.03-.06-2.52-2.01-1.65-3.32-1.79-1.35-.15-2.46.07-2.48 1.9-.1 9.07-.28 18.13-.37 27.2-.01.64.33 1.59.81 1.89 2.39 1.46 4.85-.05 4.91-2.85.12-5.4.13-10.82.49-16.21.32-4.83 3.7-7.48 8.66-7.25 3.86.18 5.84 2.75 5.94 7.71.01.75.02 1.5 0 2.25-.12 4.91-.2 9.81-.39 14.71-.07 1.89.97 2.31 2.49 2.22 1.29-.08 3.2.66 3.23-1.6.1-6.98.34-13.98-.04-20.94-.28-5.14-3.26-8.27-7.72-9.25-4.55-1.02-8.55.12-12.12 4.04zm258.33 307.32c1.62 5.6 4.43 7.12 10.48 6.92 8.3-.28 16.62-.13 24.93.02 3.04.06 6.06.66 9.06 1 1.22-4.3.11-6.44-4.51-8.02-11.3-3.86-23.02-3.99-35.04-3.89.44 3.99-3.09 2.64-4.92 3.97zm47.16-78.45c.22-3.3.49-6.19.53-9.09.01-.52-.85-1.33-1.46-1.53-2.21-.71-4.48-1.26-6.75-1.79-7.23-1.7-14.51-1.78-21.8-.42-1.98.37-3.77 1.24-4.18 3.41-.41 2.16-.47 4.38-.76 7.37 11.98-3.53 22.94.09 34.42 2.05zM297.8 445.67c-.42.1-.59.18-.74.17-1.3-.13-2.76-1.04-3.23 1.33-.36 1.84-.46 3.06 1.85 3.37.42.06.96 1.15.99 1.79.05 1.06-.28 2.13-.44 3.2-.74 5.01-1.72 10-2.14 15.04-.36 4.29 1.32 6.48 5.45 7.84 2.19.72 4.56.89 6.79 1.5 1.93.53 2.74-.03 3.01-2.01.28-2.01-.24-2.98-2.39-3-1.15-.01-2.31-.29-3.44-.54-3.19-.71-4.1-1.89-3.61-5.13.79-5.26 1.76-10.49 2.61-15.73.25-1.52.98-1.85 2.43-1.54 2.11.46 4.28.61 6.39 1.07 1.58.34 2.17-.34 2.34-1.72.17-1.33.54-2.72-1.52-2.97-1.98-.24-3.93-.7-5.91-.89-2.23-.22-2.78-1.34-2.23-3.37.33-1.2.43-2.46.72-3.67.67-2.76-1.55-2.36-3-2.76-1.43-.39-2.61-.39-2.84 1.6-.23 2.12-.7 4.23-1.09 6.42zm-58.44-357.3c-4.85 3.73-9.83 7.58-15.82 3.48-4.72-3.23-6.36-8.66-5-14 1.97-7.76 8.82-7.31 15.02-7.24-.15-4.51-1.31-5.52-5.44-4.91-.57.08-1.15.18-1.73.24-7.94.81-13.85 6.55-14.14 13.96-.26 6.72 3.28 16.61 12.44 18.57 4.85 1.04 9.21-.56 13.28-3.03 3.5-2.13 3.67-3.1 1.39-7.07zm168.03-36.52c3.04 0 5.77-.08 8.49.03 1.64.06 1.97-.77 1.98-2.13.01-1.23.11-2.33-1.68-2.36-1.99-.03-3.98-.39-5.97-.44-1.81-.04-2.61-.7-2.33-2.58.21-1.4.21-2.82.36-4.23.25-2.41-1.48-2.12-2.95-2.23-1.52-.11-2.83-.15-2.85 2.02-.01 2.05-.31 4.09-.5 6.33-1 0-1.95-.29-2.41.07-.65.5-1.21 1.45-1.28 2.26-.05.68.68 2.04 1.02 2.03 2.52-.11 2.35 1.48 2.24 3.13-.33 5.06-.8 10.12-.92 15.19-.12 5.09 1.68 7.63 5.91 8.54 2.58.55 5.26.72 7.91.85.53.03 1.42-.77 1.6-1.36.79-2.61.16-3.37-2.65-3.56-1-.07-1.99-.17-2.98-.28-3.43-.39-4.17-1.13-4.02-4.64.26-5.55.68-11.1 1.03-16.64zm269.24 259.37c1.48-6.72-.45-9.76-6.14-11.07-9.83-2.26-19.78-2.27-29.77-1.85-.62.03-1.67.68-1.75 1.16-.34 2.07-.39 4.18-.56 6.57 13.42-.97 26.46-2.74 38.22 5.19zM560.45 85.35c1.01-3.31.93-3.29-2.28-4.72-2.53-1.12-2.59 1.06-3.16 2.27-3.35 7.06-6.59 14.17-9.88 21.25-1.93 4.16-1.86 4.36 2.47 5.88.22.08.49.05.96.1.57-1.11 1.19-2.26 1.75-3.45 1.99-4.21 3.8-8.51 5.98-12.61 2.88-5.43 7.75-6.67 12.47-3.45.66.45 1.3.95 2.13 1.55.46-.85.84-1.48 1.15-2.13 1.39-2.87 1.25-3.18-1.59-4.48-3.18-1.45-6.4-1.56-10-.21zm128.43 142.29c-.42-3.38-2.25-5.14-4.37-6.67-8.38-6.07-17.81-5.58-27.34-4.33-.37.05-.93.55-.97.89-.25 2.37-.39 4.76-.6 7.69 11.47-3.62 22.12.34 33.28 2.42zM589.83 83.45c-1.36-.77-2.65-1.65-4.06-2.18-.38-.14-1.4.63-1.73 1.21-6.33 11.21-12.54 22.49-18.92 33.67-1.28 2.24.18 2.68 1.53 3.5 1.42.86 2.47 1.28 3.55-.69 6.1-11.15 12.34-22.22 18.53-33.32.32-.58.6-1.18 1.1-2.19zM314.98 480.22c-.15 1.54 2.07.78 3.51 1.14 1.52.38 2.24 0 2.43-1.75 1.04-9.23 2.19-18.45 3.32-27.67.17-1.36-.07-2.49-1.66-2.37-1.47.11-3.71-1.5-4.16 1.46-.3 1.97-.46 3.96-.69 5.93-.86 7.34-1.73 14.68-2.75 23.26zm39.93-417.58h-.92c0-4.9.04-9.8-.01-14.69-.03-2.81-2.18-1.82-3.66-1.87-1.56-.06-2.15.72-2.08 2.34.35 8.05.6 16.11.89 24.17.04 1 .05 2 .17 2.99.31 2.57 2.32 1.48 3.7 1.63 1.52.17 1.97-.6 1.94-2.09-.09-4.17-.03-8.33-.03-12.48zm227.49 65.98c5.14-7.87 10.21-15.76 15.42-23.55 1.26-1.88.56-2.64-1-3.69-1.68-1.13-2.67-1.39-3.93.63-4.28 6.82-8.75 13.52-13.14 20.28-2.58 3.97-2.52 4.13 1.79 6.23.14.07.32.05.86.1zm-163.73 66.74c.81-2.31 1.5-4.29 2.28-6.53-1.88-.2-3.67-.87-4.05-3.25-.02-.11-1.38-.12-1.39-.09-.29 2.56-2.43 2.99-4.04 3.41.73 2.31 1.38 4.35 2.08 6.55.82-.56 1.68-1.15 2.59-1.77.89.59 1.76 1.17 2.53 1.68zm70.17 53.97c.79-2.5 1.44-4.55 2.13-6.73-1.51-.49-3.67-.55-3.86-3.08-.01-.11-1.03-.15-1.58-.22-.24 2.54-2.43 2.88-3.94 3.35.72 2.26 1.35 4.26 2.06 6.49 1.63-1.51 3.51-2.11 5.19.19zm-56.64-73.76c-1.53-.43-3.72-.61-3.8-3.2-.6.05-1.51-.12-1.75.2-.46.61-.55 1.51-.75 2.17-1.2.34-2.27.64-3.33.94-.22.19-.44.38-.67.57 3.06 1.2 2.39 3.65 2.41 5.89 2.97-1.16 2.97-1.16 5.89-.24.65-2.05 1.29-4.1 2-6.33zm20.19 20.25c-1.47-.52-3.41-.62-3.88-3.1-.22-1.18-1.63-.72-1.83.42-.28 1.64-1.21 2.19-2.69 2.36-.44.05-.84.41-1.93.98 3 1.22 2.61 3.56 2.39 6.67 2.31-2.67 4.32-2.42 5.91-.96.71-2.21 1.32-4.12 2.03-6.37zm39.3 41.67c.72 2.27 1.36 4.29 2.07 6.54 1.63-1.69 3.66-1.59 6.12.19-1.71-2.93.39-4.46 1.78-6.48-1.44-.41-2.51-.71-3.12-.88-.92-1.21-1.6-2.11-2.29-3.01-.57.93-1.13 1.86-1.82 2.98-.74.18-1.76.43-2.74.66zm-10.38-20.52c.68-2.19 1.31-4.23 2.03-6.56-1.54-.4-3.7-.82-3.92-3.39-.61.24-1.7.39-1.76.72-.29 1.65-1.27 2.18-2.76 2.32-.42.04-.81.44-1.81 1.01 2.98 1.18 2.44 3.58 2.44 6.17 1.39-.87 2.33-1.46 3.22-2.02.93.64 1.73 1.19 2.56 1.75zm-63.74-.12c-.1-1.33-.47-2.47-.16-3.39.32-.97 1.29-1.73 2.18-2.84-2.16-.75-4.12-.93-4.63-3.48-.23-1.17-1.59-.35-1.78.66-.28 1.49-1.1 2.08-2.51 2.23-.49.05-.94.44-.99.47.71 2.26 1.32 4.24 1.93 6.18 1.09-.42 4.1-.43 5.96.17zm85.7-22.59c1.68-2.45 3.66-1.2 5.19-.23.74-2.27 1.38-4.24 2.11-6.47-1.7-.27-3.72-.64-3.96-3.16 0-.04-1.51-.03-1.51.02-.22 2.57-2.53 2.62-3.94 3.22.7 2.19 1.33 4.18 2.11 6.62zm-38.91-5.73c-1.98-.84-4.13-.82-4.52-3.47-.15-1.05-1.61-.61-1.8.55-.27 1.63-1.24 2.16-2.69 2.34-.43.05-.82.4-.85.41.69 2.21 1.31 4.18 2.05 6.54 1.61-2.66 3.64-1.31 6.04-.1-1.62-2.86.45-4.38 1.77-6.27zm16.31 70.08c.73-2.28 1.38-4.33 2.07-6.52-1.53-.47-3.45-.6-3.91-3.09-.19-1.04-1.59-.75-1.81.49-.28 1.6-1.21 2.16-2.7 2.28-.43.03-.83.39-.92.44.68 2.2 1.28 4.18 1.97 6.41.76-.46 1.7-1.03 2.69-1.64.93.57 1.87 1.16 2.61 1.63zm20.51-10.95c.69 2.21 1.34 4.25 2.06 6.53 1.65-1.82 3.66-1.63 5.24-.14.72-2.24 1.35-4.19 2.07-6.43-1.64-.3-3.69-.64-3.91-3.15-.01-.08-1.5-.13-1.51-.08-.33 2.44-2.28 2.91-3.95 3.27zM451.8 216.1c-.85-.96-3.39.12-3.56-2.4-.03-.47-.77-.89-1.18-1.33-.37.48-.69 1.01-1.12 1.42-.69.65-1.42 1.26-2.2 1.8-.49.35-1.1.54-1.21.59.68 2.29 1.27 4.27 1.95 6.53 1.67-2.13 3.64-1.53 5.19-.23.74-2.21 1.38-4.14 2.13-6.38zm59.99-6.91c-.88-1.04-3.42.08-3.57-2.45-.03-.47-.74-.9-1.14-1.36-.39.46-1.01.87-1.12 1.39-.26 1.24-.86 1.81-2.13 1.89-.58.04-1.13.46-2.43 1.02 2.95 1.34 2.75 3.59 2.42 5.87 1.97-.62 4.57-.64 5.98-.22.64-1.96 1.28-3.93 1.99-6.14zm-21.64-19.54c.75-2.3 1.41-4.34 2.14-6.56-1.68-.36-3.76-.52-3.97-3.05-.01-.09-1.04-.1-1.59-.15-.14 2.55-2.29 2.82-3.85 3.3.69 2.22 1.33 4.26 2.05 6.57 1.66-1.95 3.62-1.62 5.22-.11zm-56.43 42.37c.77-.47 1.77-1.07 2.63-1.6 1.08.63 2.02 1.18 2.63 1.54.75-2.28 1.41-4.28 2.13-6.44-.95-.26-2.05-.55-3.18-.86-.08-.32-.08-.68-.25-.94-.4-.64-.87-1.23-1.31-1.85-.44.61-.84 1.26-1.34 1.82-.44.49-.93.98-1.5 1.27-.67.35-1.45.49-1.79.6.7 2.3 1.31 4.27 1.98 6.46zm-14.75-1.38c-.79-.99-3.48.08-3.64-2.45-.03-.43-.63-.82-.97-1.24-.43.42-.85.86-1.29 1.27-.69.64-1.35 1.33-2.11 1.89-.48.36-1.12.51-1.33.6.71 2.25 1.34 4.24 2.01 6.35.8-.43 1.72-1.34 2.63-1.32.98.03 1.94.92 2.64 1.29.7-2.19 1.34-4.17 2.06-6.39zm25.6 12.27c1.62-2.35 3.58-1.33 5.09-.23.77-2.25 1.44-4.22 2.2-6.45-1.92-.08-3.62-.85-4-3.21-.01-.07-1.53.01-1.53.04-.07 2.69-2.43 2.72-3.91 3.3.7 2.15 1.34 4.11 2.15 6.55zm7.83 5.91c2.87 1.36 2.26 3.74 2.19 6.73 2.24-2.56 4.24-2.48 5.89-.8.75-2.3 1.41-4.32 2.1-6.45-1.73-.4-3.7-.71-3.94-3.15 0-.04-1.61-.01-1.61.04-.16 2.54-2.35 2.6-4.63 3.63zm-33.48.1c-1.7-.31-3.43-.68-3.95-3.2-.25-1.21-1.62-.4-1.79.61-.26 1.63-1.08 2.27-2.66 2.28-.41 0-.82.41-.87.44.7 2.22 1.32 4.21 2.03 6.44 1.65-1.91 3.58-1.65 5.25.02.67-2.25 1.27-4.23 1.99-6.59zm47.01-83.85c-2.48-.67-4.68-1-4.83-3.62-.62.25-1.74.45-1.77.76-.18 1.75-1.32 2.08-2.71 2.31-.44.07-.83.42-1.48.76.82.94 1.82 1.64 2.1 2.56.3 1-.07 2.2-.15 3.32 2.27-1.89 4.34-1.18 6.64.22-1.02-2.69.09-4.5 2.2-6.31zm-53.81.39c.75 2.35 1.37 4.33 2.06 6.51.76-.47 1.71-1.05 2.58-1.6 1.05.6 1.99 1.14 2.63 1.51.74-2.25 1.38-4.21 2.1-6.39-.85-.22-1.93-.51-3.06-.8-.24-.76-.33-1.66-.79-2.29-.22-.31-1.13-.11-1.72-.15-.08 2.58-2.15 2.89-3.8 3.21zm58.46 19.14c.72-2.29 1.35-4.32 2.04-6.5-.89-.25-1.99-.56-3.04-.85-.26-.78-.34-1.62-.79-2.15-.27-.31-1.1-.14-1.69-.19-.1 2.57-2.36 2.69-3.8 3.24.7 2.24 1.33 4.26 2.05 6.56 1.68-2.1 3.64-1.5 5.23-.11zm52.48-2.53c-2-1.07-1.96-1.09-3.76-3.34-.91-1.14-1.67-.55-1.88.53-.31 1.58-1.17 2.23-2.7 2.32-.42.03-.82.42-.84.43.66 2.21 1.25 4.19 1.91 6.41.82-.51 1.81-1.12 2.65-1.64 1.09.62 2.01 1.15 2.68 1.54.68-2.19 1.27-4.08 1.94-6.25zm-31.52 41.15c-2.11-.69-4.09-.84-4.57-3.43-.22-1.16-1.61-.38-1.79.64-.27 1.49-.99 2.14-2.48 2.21-.49.02-.97.45-1.07.5.71 2.23 1.34 4.22 2.02 6.4.85-.55 1.78-1.14 2.64-1.69.98.66 1.84 1.23 3.25 2.17-.11-1.66-.46-2.76-.16-3.66.33-1.03 1.24-1.86 2.16-3.14zm-38.36 5.09c.94 1.2 1.91 1.98 2.23 2.98.3.94-.09 2.11-.23 3.76 1.51-.96 2.44-1.55 3.3-2.1 1.06.64 1.98 1.19 2.91 1.74.28-.05.57-.11.85-.16-1.88-2.72.25-4.33 1.47-6.42-2.2-.45-4.22-.69-4.43-3.17 0-.02-1.64.04-1.64.09-.08 2.64-2.4 2.46-4.46 3.28zm-12.28-36.07l2.05-6.55c-1.54-.47-3.7-.57-3.86-3.12 0-.03-1.66-.02-1.66.03-.16 2.58-2.41 2.57-3.88 3.1.71 2.18 1.38 4.23 2.14 6.54 1.62-1.93 3.56-1.59 5.21 0zm34.57 46.15c1.63-1.82 3.63-1.65 5.97.08-1.42-2.87.53-4.46 1.69-6.17-1.29-1.3-3.84-.25-3.94-2.8-.02-.47-.75-.91-1.16-1.37-.38.47-.7 1.01-1.14 1.41-.76.7-1.56 1.35-2.39 1.95-.42.31-.96.46-1.06.51.68 2.16 1.28 4.05 2.03 6.39zm40.34-29.71c1.62-2.19 3.76-1.07 5.23-.33.82-2.3 1.5-4.2 2.21-6.18-1.07-.31-2.16-.62-3.21-.92-.1-.34-.13-.6-.26-.8-.39-.66-.81-1.3-1.22-1.95-.47.58-.91 1.19-1.43 1.72-.51.51-1.06 1.01-1.68 1.38-.59.35-1.29.52-1.61.64.69 2.24 1.29 4.21 1.97 6.44zm-44.65 38.54c.73-2.27 1.39-4.3 2.1-6.51-1.53-.49-3.47-.7-3.96-3.22-.2-1.01-1.6-.49-1.78.67-.24 1.51-1.13 2.02-2.49 2.21-.5.07-.96.44-2.14 1.02 3.06 1.24 2.72 3.52 2.61 6.01 2.11-1.88 4.05-1.94 5.66-.18zm50.1-6.48c-.86-.96-3.4.14-3.55-2.38-.03-.46-.76-.88-1.17-1.31-.38.46-.73.97-1.16 1.38-.69.66-1.4 1.31-2.18 1.86-.48.34-1.1.49-2.51 1.09 3.32 1.25 2.85 3.59 2.86 6.07 2.1-2.13 4.04-1.77 5.64-.25.7-2.21 1.34-4.17 2.07-6.46zm-93.7-16.9c.78-2.36 1.42-4.3 2.17-6.58-1.9-.07-3.65-.88-3.98-3.28-.64.3-1.73.5-1.82.91-.3 1.39-1.09 1.88-2.36 2.07-.52.07-1.01.4-1.22.49.69 2.15 1.31 4.1 2.06 6.43 1.52-1.94 3.51-1.8 5.15-.04zm13.5-17.95c-.59-1.02-3.5.35-3.56-2.33-.01-.45-.78-.88-1.2-1.31-.39.48-.75.99-1.18 1.43-.61.62-1.21 1.28-1.92 1.77-.51.35-1.2.45-2.55.91 2.72 1.52 2.92 3.7 2.31 6.61 1.59-1.02 2.53-1.62 3.38-2.17 1.06.63 2 1.19 2.68 1.59.7-2.21 1.31-4.17 2.04-6.5zm-17.31 36.78c1.55-1.65 3.56-1.45 5.1-.04.74-2.23 1.38-4.18 2.09-6.31-1.66-.39-3.4-.83-3.96-3.26-.26-1.12-1.68-.43-1.78.65-.17 1.78-1.31 2.06-2.69 2.29-.44.07-.83.41-.93.46.71 2.04 1.37 3.91 2.17 6.21zm97.24 20.47c-2.64-.68-4.73-1.01-4.93-3.56 0-.03-1.52-.01-1.52.05-.2 2.55-2.31 2.84-3.9 3.24.72 2.24 1.38 4.27 2.18 6.73 1.56-3.09 3.61-1.16 5.86-.24-.95-2.59-.03-4.39 2.31-6.22zm-19.14-33.07c.68 2.24 1.3 4.26 1.97 6.47.87-.58 1.8-1.19 2.61-1.73 1.08.65 2.01 1.21 2.67 1.61.73-2.26 1.37-4.24 2.08-6.42-1.43-.53-3.45-.65-3.96-3.2-.23-1.17-1.61-.54-1.8.57-.27 1.62-1.14 2.21-2.67 2.26-.42.01-.84.41-.9.44zm-14.36-17c1.58-1.61 3.53-1.8 5.14-.01.72-2.23 1.37-4.25 2.09-6.5-.87-.24-2.02-.55-2.72-.74-.73-1.2-1.25-2.07-1.77-2.93-.75.93-1.51 1.87-2.43 3.02-.64.17-1.65.44-2.42.64.7 2.19 1.33 4.15 2.11 6.52zm-24.8 6.17c.72 2.28 1.37 4.34 2.13 6.76 1.71-2.77 3.59-1.41 5.85-.15-1.29-2.79.38-4.5 2.02-6.56-2.3-.43-4.35-.65-4.53-3.16 0-.07-1.12-.06-1.72-.09-.01 2.67-2.34 2.69-3.75 3.2zm-28.91 33.64c.77-.47 1.71-1.05 2.57-1.58 1.07.61 2.01 1.15 2.67 1.52.72-2.27 1.37-4.28 2.07-6.48-.95-.21-2.05-.46-3.12-.7-.08-.32-.1-.58-.22-.79-.42-.74-.87-1.45-1.32-2.18-.47.68-.89 1.4-1.41 2.04-.37.45-.81.93-1.32 1.16-.71.32-1.51.41-2 .53.7 2.2 1.33 4.16 2.08 6.48zm24.68-42.08c.93.58 1.87 1.17 2.62 1.64.71-2.23 1.36-4.26 2.08-6.49-1.62-.36-3.33-.84-3.99-3.2-.34-1.22-1.6-.39-1.77.66-.24 1.51-1.03 2.08-2.47 2.17-.5.03-.98.45-1.06.49.67 2.21 1.27 4.17 1.93 6.37.76-.47 1.7-1.05 2.66-1.64zm42.59 47.03c-1.62-.44-3.35-.91-3.99-3.27-.33-1.22-1.65-.34-1.77.67-.19 1.6-1.11 2.02-2.47 2.2-.5.07-.97.42-1.06.47.7 2.22 1.31 4.18 2.04 6.52 1.62-2.64 3.64-1.23 5.17-.26.74-2.25 1.38-4.19 2.08-6.33zm-69.57-60.05c-1.53-.4-3.66-.95-3.94-3.5-.5.08-1.42.13-1.43.24-.19 2.54-2.46 2.68-3.86 3.29.69 2.2 1.3 4.18 2 6.42 1.64-1.64 3.66-1.75 5.3-.11.64-2.1 1.19-3.93 1.93-6.34zm47.82-.89c1.01.62 1.95 1.18 2.66 1.62l2.04-6.43c-.94-.92-3.4.05-3.55-2.43-.03-.47-.75-.9-1.16-1.34-.39.47-.74.98-1.18 1.4-.67.65-1.37 1.3-2.13 1.85-.49.35-1.11.52-2.52 1.15 3.44 1.15 2.56 3.62 2.68 6.2 1.27-.82 2.14-1.37 3.16-2.02zm23.67 22.38c-1.71-.39-3.81-.81-4.04-3.39 0-.04-1.38-.03-1.38.03-.25 2.54-2.37 2.95-4.73 3.8 2.77 1.37 2.38 3.66 2.14 6.7 2.35-2.42 4.36-2.26 5.89-.82.74-2.2 1.39-4.15 2.12-6.32zm-58.6-56.75c-2.37-.64-4.45-.8-4.61-3.33-.01-.21-.79-.62-.94-.52-.44.29-1.02.77-1.04 1.2-.09 1.51-1.02 1.88-2.26 2.08-.53.09-1.03.36-2.32.82 2.71 1.5 2.96 3.64 2.57 6.25 2.19-1.99 4.19-1.9 6.62.02-1.61-2.94.22-4.52 1.98-6.52zm55.85 41.05c.77-2.29 1.46-4.33 2.19-6.48-1.64-.48-3.74-.6-3.94-3.12-.01-.1-1.06-.12-1.62-.18-.06 2.69-2.5 2.74-3.91 3.34.75 2.32 1.4 4.35 2.14 6.64 1.64-2.32 3.56-1.61 5.14-.2zm-36.27-6.52c.71 2.4 1.29 4.38 1.96 6.62 1.69-1.75 3.68-1.92 5.25-.19.74-2.22 1.41-4.19 2.14-6.37-1.32-.68-3.86-.45-3.91-3.19 0-.04-1.07-.07-1.65-.1-.04 2.68-2.33 2.75-3.79 3.23zm28.93-21.02c2.74 1.45 2.33 3.77 2.08 6.81 2.35-2.5 4.37-2.39 6.82-.56-1.74-2.97.43-4.49 1.72-6.42-1.91-.87-4.39-.73-4.43-3.45 0-.03-1.55-.09-1.55-.07-.2 2.56-2.29 2.85-4.64 3.69zm27.65 52.93c.4 0 .8-.01 1.2-.01-2-2.77-.19-4.37 1.15-5.94-.98-1.71-3.96-.28-3.92-3.04.01-.42-.78-.86-1.2-1.29-.38.48-1.03.94-1.08 1.46-.14 1.41-.9 1.77-2.14 1.85-.57.04-1.13.4-2.71 1.01 3.55 1.24 2.88 3.6 2.7 6.23 1.42-.82 2.38-1.38 3.34-1.93.9.55 1.78 1.1 2.66 1.66zm-66.8-54.68c-2.55-.11-4.24-.89-4.62-3.23-.01-.07-1.48-.04-1.49.04-.28 2.47-2.24 2.91-3.92 3.23.7 2.23 1.33 4.26 2.05 6.54 1.65-1.86 3.66-1.64 6.04.07-1.5-2.87.52-4.42 1.94-6.65zm30.93-4.52c-2.05.23-3.29-.88-4.05-3.12-.42-1.23-1.64-.31-1.76.72-.2 1.69-1.12 2.18-2.65 2.21-.41.01-.82.41-.89.45.68 2.16 1.3 4.11 1.98 6.28 1.61-1.7 3.68-1.5 5.29-.06.71-2.2 1.33-4.15 2.08-6.48zM319.52 441.43c-.11 1.42-.38 2.69 1.81 2.99 3.63.5 3.66.63 4.05-3.12.07-.66.32-1.31.31-1.95-.01-.53-.21-1.43-.48-1.5-1.43-.35-2.94-.74-4.34-.54-.53.08-.88 1.7-1.21 2.65-.17.45-.11.98-.14 1.47zM601.51 99.21c1.4-2.19 2.98-3.83 3.4-5.73.16-.72-2.35-2.03-3.64-3.07-1.27 1.64-2.97 3.14-3.57 5-.22.68 2.16 2.21 3.81 3.8zM349.88 41.27c3.83-.02 3.97-.19 3.63-3.31-.09-.82-.04-1.66-.19-2.47-.08-.43-.43-1.16-.65-1.16-1.46 0-3.99-.21-4.2.35-.62 1.73-.5 3.79-.3 5.69.07.48 1.52.8 1.71.9z"/><path class="st0" d="M157.51 265.94c3.49-2.67 3.6-2.81 6.8-.02 2.95 2.57 5.96 2.95 9.09.78 3.03-2.1 5.86-4.5 8.78-6.77-.09-.33-.17-.66-.26-.99-1.73-.64-3.42-1.49-5.21-1.9-10.84-2.47-19.91-7.86-27.13-16.29-.43-.51-.6-2.04-.3-2.25 2.48-1.74 5.09-3.29 7.9-5.04 1.51 6.18 5.82 8.64 10.73 10.8 3.97 1.75 8 2.57 12.11 1.76 4.96-.97 8.93-3.94 11.9-8 .39-.54-.27-2.63-.99-3.04-1.45-.81-3.25-1.15-4.95-1.3-1.56-.14-2.32-.57-2.06-2.52 1.84.2 3.62.44 5.42.59 3.6.3 3.73.18 4.16-3.38.08-.64.01-1.3.01-2.3-2.9 0-5.72.17-8.51-.07-1.38-.12-3.03-.64-3.97-1.57-2.96-2.9-2.28-4.69 1.53-6.1 2.75-1.02 5.26-2.66 7.89-4 .47-.24 1.01-.53 1.51-.52 4.54.08 9.08.27 13.62.34 3.85.06 5.19 1.25 5.55 5.16.08.91.06 1.83.06 2.75 0 7.75.33 15.51-.09 23.24-.42 7.72 1.2 15.01 3.17 22.33 1.37 5.11 3.35 9.88 6.66 14.12 1.03 1.32 1.43 3.35 1.59 5.1.26 2.81.22 5.67.03 8.49-.22 3.17.68 5.89 2.46 8.43.86 1.23 1.59 2.54 2.37 3.82 2.7 4.44 2.59 8.9-.17 13.22-1.43 2.24-2.91 4.57-4.86 6.3-1.78 1.58-4.14 2.88-6.44 3.37-1.31.28-3.36-.99-4.43-2.16-.83-.91-.98-2.77-.83-4.13.08-.73 1.36-1.54 2.26-1.92 2.91-1.24 5.04-3.19 6.7-6.1-5.64-2.26-7.45-7.79-11.27-11.41-1.55-1.48-2.79-3.3-4.1-5.02-.96-1.27-1.69-1.14-2.42.15-1.39 2.46-2.54 5.11-4.24 7.34-2.6 3.42-2.87 7.67-4.63 11.28-1.59 3.25-.63 6.55-1.56 9.78-6.42 1.16-12.25-1.77-18.35-2.47-.96-5.4 1.75-7.68 8.62-6.93.38-2.75.96-5.51 1.1-8.29.19-3.91.12-7.83.03-11.74-.06-2.75.75-5.11 2.75-6.98 2.83-2.66 5.74-5.24 9.12-8.31-.33-.18-.94-.45-1.49-.82-2.71-1.81-4.39-4.23-4.59-7.61-.03-.55-.71-1.41-1.21-1.51-.68-.13-1.74.1-2.17.59-5.28 6.01-10.16 6.02-15.69 4.28-4.57-1.44-8.87-3.77-13.18-5.93-3.12-1.56-3.07-1.96-.91-4.81.3-.39.56-.82.83-1.23.41-.21.84-.4 1.26-.59zm49.05-49.77c-2.99.56-3.78 2.14-2.42 4.33.78-1.39 1.48-2.64 2.42-4.33z"/><path class="st0" d="M176.63 317.56c-3.78 1.9-5.23 4.48-5.44 7.99-1.39-1.67-2.87-2.9-3.55-4.48-.4-.93.16-2.66.87-3.56.69-.88 2.15-1.62 3.26-1.6 1.37.02 2.74.88 4.86 1.65zM157.51 265.94c-.43.19-.85.38-1.28.57-1.32.76-2.65 1.53-4 2.31-1.31-3.64-.82-6.31 2.15-7.59 1.29-.56 3.42.81 5.6 1.42-1.14 1.52-1.8 2.4-2.47 3.29zM155.66 232.88c-1.91 1.23-3.87 2.39-5.72 3.72-1.72 1.24-3.56.25-3.78-.87-.24-1.2.91-3.67 1.87-3.91 2.35-.58 4.94-.19 7.43-.19.07.42.14.84.2 1.25zM176.61 228.99c4.38-2.21 8.32-1.95 12.26-1.28.48.08.88.67 1.31 1.03-.49.39-.96 1.1-1.47 1.13-3.31.2-6.63.31-9.95.31-.61.01-1.23-.65-2.15-1.19zM445.17 457.19c.4-6.72 4.8-10.66 10.55-8.99 1.28.37 2.66 1.2 3.47 2.24 3.19 4.04 4.45 8.72 3.37 13.8-.79 3.74-3.24 5.84-6.61 6.19-3.57.38-6.64-1.09-8.12-4.51-1.2-2.78-1.8-5.81-2.66-8.73zM300.02 69.29c-.11 3.04-.59 5.8-2.94 7.82-3.49 2.99-8.77 2.12-11.18-2.05-2.4-4.16-3.24-8.7-1.98-13.44.71-2.68 2.34-4.66 5.1-5.28 3.02-.67 5.76-.09 7.81 2.55 2.44 3.12 2.97 6.78 3.19 10.4zM200.15 88.84c-5.12 2.27-10.1 4.47-15.06 6.67-2.04-4.15-.27-8.67 3.99-10.78 4.51-2.22 8.59-.85 11.07 4.11zM534.15 87.63c-1.71 6.49-5.71 9.3-10.96 8.32-4.01-.75-6.09-3.91-4.88-7.4.81-2.33 2.44-3.78 4.88-3.37 3.64.59 7.21 1.59 10.96 2.45zM605.84 123.06c3.29-3.72 8.14-3.84 11.92-.55 3.62 3.15 3.89 7.37.49 11.38-4.14-3.62-8.28-7.22-12.41-10.83zM335.11 63.34c-.66 2.78-.87 4.88-1.65 6.75-2.22 5.29-9.03 6.15-12.7 1.73-3.2-3.86-3.81-12-1.22-16.33 2.73-4.57 9.42-5.08 12.34-.56 1.67 2.6 2.29 5.88 3.23 8.41z"/></svg>