<svg id="Calque_1" xmlns="http://www.w3.org/2000/svg" viewBox="0 0 153 153"><style>.st0{fill:#fff}</style><path class="st0" d="M130.6 130.6c-29.8 29.8-78.4 29.8-108.2 0s-29.8-78.4 0-108.2 78.4-29.8 108.2 0 29.9 78.4 0 108.2zM23.5 23.5c-29.2 29.2-29.2 76.8 0 106.1s76.8 29.2 106.1 0 29.2-76.8 0-106.1-76.9-29.3-106.1 0z"/><path class="st0" d="M41.9 47.7c.2.2 0 .3 0 .3l-.7.8s-.2.2-.4 0l-12.5-12 2.5-2.6c2.9-3 5.4-2.6 7.3-.7l.4.4c1.8 1.7 2.3 3.6 1.2 5.7l4.8 1.5c1.1.3 1.9.3 2.4-.2l.2-.2c.2-.2.4 0 .4 0l.6.6s.2.2 0 .4l-.3.3c-.9 1-2 1-4.1.5l-5-1.6-2 2 5.2 4.8zm-6.1-5.9l1.6-1.6c1.7-1.8 2.1-3.3.1-5.2l-.4-.4c-1.7-1.6-3.3-1.3-5.1.6l-1.5 1.5 5.3 5.1zM66.2 15l8.8-.9c.3 0 .3.2.3.2l.1 1s0 .2-.2.2l-7.3.7.6 6.5 5.6-.5c.3 0 .3.2.3.2l.1 1s0 .2-.2.2l-5.6.5.6 6.6 7.3-.7c.3 0 .3.2.3.2l.1 1s0 .2-.2.2l-8.9.9L66.2 15zM99.6 37.9c-.1.2-.3.1-.3.1l-.9-.6s-.2-.1-.1-.4l9.9-14.3 3.3 2.2c3 2 2.9 4.7 1.2 7.2l-.4.5c-1.7 2.5-4.2 3.5-7.2 1.5l-2-1.4-3.5 5.2zm4.4-6.3l2 1.4c1.8 1.2 3.5 1.2 5.1-1.1l.4-.5c1.6-2.3 1-3.9-.7-5.1l-2-1.4-4.8 6.7zM132.6 66.1l-6.7 1.9c-3 .8-5.7.1-6.7-3.3-1-3.5 1-5.5 4-6.3 0 0 6.6-1.8 6.7-1.9 3-.8 5.7-.1 6.7 3.3s-1 5.5-4 6.3zm-2.2-8.2l-6.7 1.9c-2.7.8-3.5 2.4-3 4.4.6 2.1 2.1 3 4.8 2.3l6.7-1.9c2.7-.8 3.6-2.4 3-4.4-.5-2.1-2.1-3.1-4.8-2.3zM118.4 92.9c-.2-.1-.1-.3-.1-.3l.5-1s.1-.2.3-.1l15.7 7.5-1.5 3.2c-1.8 3.7-4.3 4.2-6.7 3l-.6-.2c-2.3-1.1-3.3-2.7-2.9-5H118c-1.1.1-1.9.3-2.2 1l-.1.2c-.1.2-.3.1-.3.1l-.8-.4s-.2-.1-.1-.3l.2-.4c.6-1.2 1.6-1.6 3.7-1.8h5.2l1.2-2.5-6.4-3zm7.7 3.7l-1 2c-1.1 2.2-1 3.8 1.5 5l.5.2c2.1 1 3.6.2 4.7-2.1l.9-1.9-6.6-3.2zM102.8 131.3L95.7 117c-.1-.2.1-.3.1-.3l.9-.5s.2-.1.3.1l7.1 14.3 3.6-1.8c.2-.1.3.1.3.1l.4.9s.1.2-.1.3l-8.6 4.2c-.2.1-.3-.1-.3-.1l-.4-.9s-.1-.2.1-.3l3.7-1.7zM66.4 138.1l-8.6-2c-.2-.1-.2-.3-.2-.3l.2-1s.1-.2.3-.2l7.2 1.7 1.5-6.4-5.4-1.3c-.2-.1-.2-.3-.2-.3l.2-1s.1-.2.3-.2l5.5 1.3 1.5-6.5-7.2-1.7c-.2-.1-.2-.3-.2-.3l.2-1s.1-.2.3-.2l8.7 2.1-4.1 17.3zM42.2 105.6c.2-.1.3 0 .3 0l.6.9s.1.2-.1.4l-14 10.2-2.1-2.9c-2.4-3.4-1.6-5.8.5-7.3l.4-.3c2-1.5 4-1.7 5.8-.2l2.4-4.5c.4-1 .6-1.8.2-2.4l-.1-.2c-.1-.2.1-.4.1-.4l.7-.5s.2-.2.4 0l.2.3c.8 1.1.7 2.2-.2 4.1l-2.5 4.6 1.7 2.3 5.7-4.1zm-6.9 5l-1.3-1.8c-1.5-2-2.9-2.7-5.1-1l-.4.3c-1.9 1.4-1.8 3.1-.3 5.1l1.3 1.7 5.8-4.3zM20.2 66.6l6.9.6c3.1.3 5.4 1.9 5.1 5.5-.3 3.6-2.9 4.8-5.9 4.5 0 0-6.8-.6-6.9-.6-3.1-.3-5.4-1.9-5.1-5.5.3-3.6 2.9-4.8 5.9-4.5zm-.7 8.5l6.9.6c2.8.2 4.2-1 4.3-3.1.2-2.1-.9-3.6-3.7-3.8l-6.9-.6c-2.8-.2-4.2 1-4.4 3.1-.1 2.1 1 3.5 3.8 3.8z"/></svg>