<svg xmlns="http://www.w3.org/2000/svg" viewBox="0 0 325.1 107.4"><path d="M325.1 107.4V0H135.8v41.6c0 2.3 1.9 4.2 4.2 4.2 2.3 0 4.2-1.9 4.2-4.2V10.1h11.1v36.4c-1.9 4-5.7 6.7-10.2 6.7H135c-6.3 0-11.5-5.1-11.5-11.5V9h-10.6v44.2h-9.7v1c5 .9 8.9 4.9 9.7 10h1v-10h12.3v44.2h14v9H325.1zm-40.4-34.3h11.8v2.6h-4.4v13H289v-13h-4.4v-2.6h.1zm-14.7 0h3.1v10.1c0 2.2 1.4 3.1 3.3 3.1 2.1 0 3.3-1 3.3-3.1V73.1h3.1V83c0 3.6-2.3 5.8-6.3 5.8s-6.4-2.2-6.4-5.7v-10h-.1zm8.2-10.6V47h3.1v15.6h-3.1v-.1zM256 73.1h11.8v2.6h-4.4v13h-3.1v-13H256v-2.6zm-5.7 0h3.1v15.6h-3.1V73.1zm-14.5 0h11.8v2.6h-4.4v13h-3.1v-13h-4.4v-2.6h.1zm-12.6 12.1l2.3-.9c.6 1.4 2.1 2.2 3.5 2.2 1.8 0 2.8-.6 2.8-2 0-3.2-8.2-2.1-8.2-7.4 0-2.4 2.1-4.3 5.3-4.3 2.8 0 4.8 1.3 5.7 3.2l-2 1c-.6-1.2-1.8-1.9-3.4-1.9-1.9 0-2.6.8-2.6 1.8 0 2.9 8.1 2.1 8.1 7.3 0 2.9-2.2 4.6-5.6 4.6-2.8.1-5.2-1.4-5.9-3.6zm-14.8-12.1h2.4l7 10.1V73.1h2.7v15.6h-2.2l-7.2-10.3v10.3h-2.7V73.1zm-15.3-10.6h-2.8V52.1l-4.5 7.8h-1.4l-4.5-7.8v10.4h-2.8V47h2.9l5.2 9.3 5.2-9.3h2.9v15.5h-.2zm7.2 0h-3.1V47h3.1v15.5zm1 10.6h3.1v15.6h-3.1V73.1zm5.6-20.6v4.6c0 2 1.1 3.3 3.1 3.3 1.5 0 2.4-.6 2.9-2l2.3.8c-.7 2.3-2.6 3.5-5.4 3.5-3.6 0-6-2.2-6-5.6v-4.6c0-3.6 2.3-5.8 5.9-5.8 2.7 0 4.8 1.6 5.4 3.5l-2.2.9c-.4-1.1-1.4-1.9-2.9-1.9-2.1 0-3.1 1.2-3.1 3.3zm17.8 1.4l6.2 8.6h-3.5l-4.7-6.7-1.8 2v4.7h-3.1V47h3.1v7.7l5.9-7.7h3.6l-5.7 6.9zm11.8 8.6h-3.1V47h3.1v15.5zm4.1-15.5h10.5v2.5h-7.4v3.9h5.7v2.3h-5.7V60h7.7v2.5h-10.8V47zm18.8-10.6h-3.2l-1.2-3.5h-6.4l-1.2 3.5h-3.2l5.9-15.6h3.4l5.9 15.6zm14.9-5.9c0 3.6-2.3 5.9-6.4 5.9h-6.3V20.8h6.3c4.1 0 6.4 2.4 6.4 5.9v3.8zm.9 16.5l-4.6 15.6h-3.3l-3.1-11.4-3.2 11.3h-3.3L253.1 47h3.1l3.1 12.3 3.3-12.3h2.9l3.3 12.4 3.1-12.4h3.3zm15.3-10.6h-3.2l-1.2-3.5h-6.4l-1.2 3.5h-3.2l5.9-15.6h3.4l5.9 15.6zm.2 10.3c2.7 0 4.8 1.6 5.4 3.5l-2.2.9c-.4-1.1-1.4-1.9-2.9-1.9-2.1 0-3.1 1.2-3.1 3.3v4.6c0 2 1.1 3.3 3.1 3.3 1.5 0 2.4-.6 2.9-2l2.3.8c-.7 2.3-2.6 3.5-5.4 3.5-3.6 0-6-2.2-6-5.6v-4.6c-.1-3.5 2.2-5.8 5.9-5.8zm18.1-10.3H306V26l-4.5 7.8H300l-4.5-7.8v10.4h-2.8V20.8h2.9l5.2 9.3 5.2-9.3h2.9v15.6h-.1zm.7 12.3l-7.8 11.2h7.7v2.5H298v-1.8l7.8-11.2h-7.5V47h11.2v1.7zm.2 39.9h-10.8V73.1h10.5v2.5H302v3.9h5.7v2.3H302v4.3h7.7v2.5zm-29.3-57.9h4.9l-2.4-7.3-2.5 7.3zm-9.2-.3v-3.5c0-2.5-1.1-3.6-3.3-3.6h-3.2V34h3.2c2.2 0 3.3-1.1 3.3-3.6zm-21.9.3h4.9l-2.4-7.3-2.5 7.3zM101.4 88.1h-9.3v19.3H114V78.2h-1c-1.1 5.8-5.9 9.9-11.6 9.9zm-5-25.9h-4.2v18.1h4.3c1.1 0 2.2-.4 3-1.3.8-.8 1.2-1.9 1.2-3v-9.6c-.1-2.3-2-4.2-4.3-4.2zm-2.7-8h7V9h-9.6V0h-23v10.1h13.3v35.1h12.3v9zM68.1 43.5c-.7 4.3-3.8 7.9-8 9.2l-.4.1v9.4H47.2v14.5h12.5v8H47.2v13.8h12.5v8.9h5.4V96.3h10.1v11.1H80V53.2H69.1v-9.7h-1zm-12.2-1.9V0h-8.5v41.6c0 2.3 1.9 4.2 4.2 4.2 2.4.1 4.3-1.8 4.3-4.2zM35 54.2h10.6v-1c-5.6-.7-9.9-5.4-10.4-11.4h-1c-.5 6-4.8 10.8-10.4 11.5v1c5.1.7 9.2 4.5 10.2 9.5h1v-9.6zM21.9 31.4h13.2v-8.5H21.9v-10c0-2.3-1.9-4.2-4.2-4.2-2.3 0-4.2 1.9-4.2 4.2v28.5c0 2.3 1.9 4.2 4.2 4.2 2.3 0 4.2-1.9 4.2-4.2v-10zm12.2-21.1h1V0H23.9v1c5.1.9 9.2 4.6 10.2 9.3zM17.5 62.2h-4.2V80h4.3c1.1 0 2.2-.4 3-1.2.8-.8 1.2-1.9 1.2-3v-9.3c-.1-2.4-2-4.3-4.3-4.3zm0 25.8h-4.3v19.5h8.5V92.2c0-2.3-1.9-4.2-4.2-4.2zM11.2 1V0H0v11.3h1C1.9 6 6.1 1.8 11.2 1zM1 43H0v11.2h10.8v-1C5.8 52.3 1.7 48 1 43zm24.7 40.8v1c4.3 1.3 7.5 4.8 8.3 9.2h1V74.7h-1c-1 4.4-4.2 7.9-8.3 9.1z" fill="#fff"/></svg>