<svg id="Calque_1" xmlns="http://www.w3.org/2000/svg" viewBox="0 0 315.5 105.7"><style>.st0{fill:#fff}</style><path class="st0" d="M52.8 105.7c-28.7.2-53-23.5-52.8-53.2C.2 23.9 23.5-.3 53.4 0c29 .2 52.9 24.1 52.3 54-.3 14.1-5.6 26.2-15.5 36.3-9.4 9.4-22.9 15.5-37.4 15.4zM55 65.5H26.7c-.3 0-.4.1-.4.4V78c0 1.1-.2 1.2 1.2 1.2h55.6c.4 0 .5-.1.5-.5v-.6-11.5c0-1.1 0-1.1-1.1-1.1H55zm-41.9-6c.2 0 .3.1.4.1h56.8l.1-.1v-.8-11.5c0-1.3 0-1.1-1.1-1.1H13.2c-.1 4.4-.1 8.9-.1 13.4zm13.2-19.6c.4 0 .8.1 1.2.1h55.3c.8 0 .8-.1.8-.8V27.8c0-.2 0-.5-.1-.7-.8-.2-56.7-.1-57.2 0v12.8zM148.8 58.5c-.1.3-.2.5-.3.8-.7 2.7-1.5 5.4-2.2 8.2-.1.2-.2.6-.3.6-.4.1-.8.1-1.2 0-.1 0-.2-.4-.3-.6-.4-1.5-.9-3-1.3-4.5-.6-2-1.1-4-1.7-6-.1-.2-.1-.4-.1-.7.4-.3.8-.2 1.1-.1.2.1.3.4.4.6.4 1.4.7 2.7 1.1 4.1.4 1.6.8 3.1 1.2 4.7.1.2.1.4.2.5h.2c.1-.3.2-.5.3-.8.8-2.8 1.6-5.7 2.3-8.5.1-.3.1-.6.6-.7.6 0 .7 0 .9.6.8 2.8 1.6 5.6 2.3 8.4l.3.9c.3-.2.3-.4.4-.6.8-2.8 1.5-5.7 2.3-8.5.2-.9.6-1.1 1.6-.7-.1.5-.3 1.1-.4 1.6-.9 3.2-1.8 6.3-2.7 9.5-.1.2-.2.6-.3.6-.4.1-.8.1-1.2 0-.1 0-.2-.3-.3-.5l-1.8-6.6c-.2-.6-.4-1.3-.5-1.9 0-.2-.1-.3-.2-.5-.3.1-.4.1-.4.1zM276.4 80.3l.6.3c1.3.7 1.9 2.1 1.5 3.5-.3 1.4-1.4 2.3-2.9 2.3h-5.2c-.7 0-.7 0-.7-.7v-7.5-3.1c0-.6.1-.6.6-.6h5.3c1 0 1.9.5 2.4 1.4.9 1.5.3 3.2-1.2 4.1-.1.1-.2.2-.4.3zm-5.3.7c0 .1-.1.2-.1.3v3.6c0 .3.2.4.5.4h3.8c1 0 1.6-.7 1.9-1.6.4-1.5-.6-2.8-2.1-2.8h-3.4c-.3.1-.4.1-.6.1zm2-1.2h1.7c.2 0 .3 0 .5-.1 1.1-.2 1.7-1 1.7-2.1 0-1-.7-1.8-1.7-1.9-1.2-.1-2.5-.1-3.7-.1-.5 0-.6.1-.6.6v3c0 .5.1.6.6.6h1.5zM192.4 80.3c.2.1.4.2.5.3 1.3.7 1.9 2.1 1.6 3.6-.3 1.4-1.4 2.3-2.9 2.3h-5.3c-.6 0-.6 0-.6-.7v-2.2-8.1-.6c0-.2.1-.4.4-.4h4.9c.6 0 1.1.1 1.7.3.9.5 1.5 1.2 1.6 2.2.1 1.4-.3 2.4-1.6 3l-.3.3zm-5.3.7c0 .1-.1.2-.1.2v3.7c0 .3.2.4.5.4h3.7c.8 0 1.4-.4 1.8-1.1.8-1.6-.2-3.2-2-3.3h-3.4c-.1.1-.3.1-.5.1zm2.1-1.2h1.7c.2 0 .3 0 .5-.1 1.1-.2 1.6-1 1.6-2.1 0-1-.7-1.8-1.7-1.9-1.2-.1-2.5-.1-3.7-.1-.5 0-.6.1-.6.6v3c0 .5.1.6.6.6h1.6zM127 62l.6.3c1.3.7 1.9 2.1 1.5 3.5-.3 1.4-1.4 2.3-2.9 2.3H121c-.7 0-.7 0-.7-.7v-8.3-2.3c0-.5.1-.6.6-.6h5.4c1.1 0 2 .6 2.5 1.7.5 1.2.4 2.9-1.3 3.7-.2.1-.3.2-.5.4zm-5.2.6c-.1.1-.1.2-.1.2v3.8c0 .3.2.4.4.4 1.3 0 2.6.1 3.8 0 1.4-.1 2-1.2 1.9-2.2 0-1.2-.9-2.1-2.1-2.1h-3c-.3-.1-.6-.1-.9-.1zm2-1.1c.7 0 1.4 0 2.1-.1 1.1-.2 1.7-.9 1.7-2.1 0-1.1-.7-1.8-1.8-1.9-1.2-.1-2.4-.1-3.6-.1-.5 0-.6.1-.6.6v2.9c0 .5.1.6.6.6.5.1 1.1.1 1.6.1zM127 80.3l.6.3c1.3.7 1.9 2.1 1.5 3.5-.3 1.4-1.4 2.3-2.9 2.3h-5.3c-.6 0-.6 0-.6-.6V75.1c0-.6.1-.6.6-.6h5.3c1.1 0 2 .6 2.5 1.6.7 1.4.1 3-1.2 3.8-.2.2-.3.3-.5.4zm-5.3.7c0 .1-.1.2-.1.3v3.6c0 .3.2.4.5.4h3.8c1 0 1.6-.7 1.9-1.6.4-1.5-.6-2.8-2.1-2.8h-3.4c-.3.1-.4.1-.6.1zm2.1-1.2h1.7c.2 0 .4-.1.5-.1 1-.2 1.6-1 1.6-2s-.7-1.9-1.7-1.9c-1.3-.1-2.5-.1-3.8-.1-.4 0-.5.1-.5.5v3c0 .5.1.6.6.6h1.6zM150.5 28.9v-.7-7.6-.3c0-.7.3-.9 1-.7.1 0 .2.2.3.3v11.3c0 .1-.1.3-.2.3-.4.2-1 0-1.3-.4-.9-1.2-1.7-2.4-2.6-3.6-1.3-1.7-2.5-3.4-3.8-5.2-.1-.2-.3-.3-.5-.5-.2.3-.2.5-.2.7v8.2c0 .6-.4.9-1 .7-.1 0-.2-.2-.2-.3v-.5-10.2-.5c0-.3.1-.4.4-.4.6 0 1 0 1.4.6 2 2.8 4.1 5.5 6.1 8.3.1.2.3.3.4.5h.2zM221.8 77c0 .3-.1.5-.1.8V86c0 .5-.1.5-.6.6-.6 0-.7 0-.7-.7V75.4c0-.7.1-.7.7-.7.5 0 .8.2 1.2.6l6 8.1c.2.2.4.5.6.8.1-.2.2-.3.2-.4v-.6V76v-.5c0-.6.6-.9 1.1-.6.1.1.2.2.2.3v11.1c0 .3-.1.4-.4.4-.6.1-1-.1-1.4-.6-2-2.8-4.1-5.6-6.2-8.4-.1-.2-.3-.4-.5-.6 0-.2 0-.1-.1-.1zM175.8 83.8c0-.3.1-.5.1-.8v-7.4-.4c0-.6.5-.9 1-.7.1 0 .2.2.2.3v11.3c0 .1-.1.2-.2.3-.3.2-1.2 0-1.4-.2-.4-.5-.7-.9-1-1.4-1.8-2.4-3.6-4.9-5.4-7.3-.1-.2-.3-.4-.5-.5-.1 0-.1 0-.2.1 0 .3-.1.5-.1.8v8c0 .7-.2.9-.9.7-.2 0-.3-.1-.3-.4v-.4-10.3-.5c0-.1.1-.3.2-.3.5-.2 1.2 0 1.5.4.4.6.9 1.2 1.3 1.8 1.6 2.2 3.2 4.4 4.8 6.5.1.2.3.4.5.6.3-.1.3-.1.4-.2zM258 77v8.7c0 .7-.1.8-.8.7-.4 0-.5-.2-.5-.5v-.3-10.2c0-.9.1-.9.9-.9.4 0 .6.2.8.5 1.4 2 2.9 3.9 4.4 5.9.6.8 1.2 1.7 1.9 2.5.1.2.3.3.5.5.3-.3.2-.5.2-.8v-7.5-.4c0-.6.1-.7.7-.7.4 0 .5.1.5.5v11.2c-1 .3-1.2.2-1.7-.5-2-2.7-4-5.5-6.1-8.2-.2-.3-.4-.5-.6-.7-.1.2-.2.2-.2.2zM196.2 58.7V67.4c0 .7-.4.9-1 .7-.1 0-.2-.2-.2-.3v-.5-10.1-.4c0-.3.1-.5.5-.5.6 0 1 .1 1.3.6l6 8.1c.2.2.3.4.5.6h.2v-.7-7.4-.4c0-.7.3-.9 1-.7.1 0 .2.2.3.3.1.1 0 .3 0 .5V67.9c0 .3-.1.4-.4.4-.5 0-.9-.1-1.3-.6-2-2.8-4-5.5-6.1-8.3-.2-.2-.4-.5-.6-.7-.1-.1-.1-.1-.2 0zM166.1 44c0 2.1-.7 3.9-2.5 5.1-2.9 2-8.3 1.2-9.2-3.8-.3-1.8-.1-3.5.9-5s2.5-2.4 4.3-2.5c1-.1 2 0 3 .4 2.3 1 3.4 2.8 3.6 5.2-.1.1-.1.4-.1.6zm-6 5c1.8.1 3.7-1 4.4-3.2.3-1 .4-1.9.2-2.9-.3-1.9-1.7-3.9-4.4-4-1.9 0-3.3.7-4.2 2.4-.6 1.2-.7 2.5-.5 3.9.5 2.3 2.3 3.7 4.5 3.8zM145 45.2c0 .2-.1.5-.1.8v3.2c0 .7-.4.9-1 .7-.1 0-.2-.2-.2-.3v-.5-10.4-.3c0-.3.1-.5.4-.5h4.6c1 0 2 .4 2.7 1.2.4.5.7 1.1.8 1.7v1c-.1 1.5-.9 2.6-2.4 3-.2.1-.4.1-.7.2.5.9 1 1.6 1.5 2.4.5.8 1 1.6 1.6 2.5-.5 0-.9.1-1.3 0-.2 0-.4-.3-.5-.5-.7-1.1-1.4-2.2-2.2-3.3-.8-1.2-.5-1-1.8-1h-1.2s-.1.1-.2.1zm-.1-3.7v1.8c0 .6.1.7.6.7h2.8c.4 0 .9-.2 1.3-.4 1-.5 1.4-1.6 1.1-2.7-.3-1.1-1.1-1.8-2.3-1.8h-2.9c-.5 0-.6.1-.6.6v1.8zM233.4 80.5v-5.2c0-.7 0-.7.7-.7h4.1c2.8.2 4.9 2.2 5.3 5 .1.9.1 1.8-.2 2.7-.6 2.5-2.7 4-5.3 4.2-1.3.1-2.7 0-4 0-.6 0-.7 0-.7-.7.1-1.7.1-3.5.1-5.3zm1.4 4.9c1.4 0 2.8.2 4.2-.2 1.6-.5 2.6-1.6 3.1-3.2.2-.6.2-1.3.2-2 0-2-1.4-3.7-3.3-4.2-1.1-.3-2.3-.2-3.5-.2-.7 0-.7.1-.7.8v8.2c-.1.2-.1.5 0 .8zM165.1 21.5l-.9.6c-.2-.2-.3-.3-.5-.4-1.7-1.5-4.3-1.5-6-.2-1.5 1.1-2 2.6-1.9 4.4.1 1.7.8 3.1 2.3 4 1.6 1.1 4 .9 5.5-.2.3-.2.5-.5.5-.9v-1.6c0-.5-.1-.6-.6-.6h-3c-.5 0-.6-.1-.6-.6s.1-.6.6-.6h4.3c.5 0 .5.1.5.5v3.4c0 .3-.1.5-.4.7-1 .9-2.1 1.5-3.4 1.6-1.6.2-3.1-.1-4.5-1-1.6-1.2-2.5-2.7-2.6-4.7-.1-1.1.1-2.1.5-3.1 1-2.1 2.6-3.2 4.9-3.5 1.9-.2 3.6.3 4.9 1.7.1.2.2.3.4.5zM314.2 81.7c-.4 0-.6-.1-.9-.1h-2.7c-.4 0-.5-.1-.5-.5s.1-.5.6-.5h4.4c.3 0 .4.2.4.4v3.5c0 .2-.2.5-.4.7-.8.7-1.7 1.2-2.7 1.4-2 .5-3.8.1-5.5-1.2-1.4-1.1-2.1-2.6-2.2-4.3-.1-1.3.1-2.5.7-3.7 1.1-1.9 2.8-2.9 5-3.1 1.8-.1 3.4.4 4.6 1.7l.2.2s0 .1.1.2l-.3.3c-.5.3-.5.3-1-.1-.7-.6-1.4-.9-2.3-1.1-1.7-.4-4.2.4-5.2 2.6-.9 2-.7 3.9.6 5.6 1.5 2 4.5 2.5 6.8.8.2-.1.3-.4.3-.5.1-.8 0-1.5 0-2.3zM179.1 58.1c-.2.1-.3.2-.4.3-.4.3-.5.3-.9-.1-.7-.6-1.4-1-2.3-1.2-1.7-.4-4.2.4-5.2 2.6-.8 1.9-.8 3.7.4 5.4 1.5 2.2 4.6 2.7 6.9.9.2-.1.4-.4.4-.5v-2.3c-.3 0-.6-.1-.9-.1h-2.7c-.5 0-.5-.1-.5-.5s.1-.5.5-.6h4.4c.4 0 .5.1.5.6v3.2c0 .4-.2.6-.4.8-.8.7-1.7 1.2-2.7 1.4-2 .5-3.8.1-5.4-1.1-1.5-1.1-2.2-2.6-2.3-4.4-.1-1.2.1-2.4.7-3.5 1.1-2 2.8-3 5-3.1 1.8-.1 3.3.4 4.6 1.7.1.2.1.3.3.5zM218 58.1c-.1.1-.3.2-.4.3-.4.3-.5.3-.9-.1-.6-.6-1.4-.9-2.2-1.1-2.7-.6-5.2 1.1-5.7 3.8-.3 1.5-.1 2.8.7 4.1 1.5 2.3 4.7 2.9 7 1.1.2-.1.3-.4.4-.5v-2.3c-.4 0-.6-.1-.9-.1h-2.7c-.4 0-.5-.1-.5-.5s.1-.5.5-.5h4.4c.3 0 .5.2.5.5v3.4c0 .3-.2.6-.4.8-.8.7-1.7 1.2-2.7 1.4-2 .5-3.8.1-5.4-1.1-1.5-1.1-2.2-2.6-2.3-4.5-.1-1.3.1-2.5.7-3.6 1.1-1.9 2.8-2.9 5-3.1 1.8-.1 3.4.4 4.7 1.8 0 .1.1.1.1.2 0-.1 0-.1.1 0zM299.4 81.7c1 1.6 2.1 3.1 3.1 4.8h-1.3c-.2 0-.4-.2-.5-.4l-2.4-3.6c-.3-.5-.7-.8-1.3-.7h-1.2c-.5 0-.6.1-.6.6v3.5c0 .7-.4.9-1 .7-.1 0-.2-.2-.2-.3v-.5-10.3-.3c0-.4.1-.5.5-.5h4.8c1.8.1 3 1.5 3.1 3.3.1 2-1.1 3.3-2.7 3.6 0 0-.1 0-.3.1zm-4-5.9v4.6c.1 0 .2.1.2.1 1.2 0 2.4.1 3.6 0 1.2-.1 2-1.2 2-2.4s-.8-2.2-2-2.4c-1.1-.1-2.3-.1-3.4-.1-.1.1-.2.1-.4.2zM147.7 81.7c.6.9 1.1 1.6 1.6 2.4.5.8 1 1.5 1.6 2.4-.5 0-.9.1-1.3 0-.2 0-.4-.3-.5-.4l-2.4-3.6c-.3-.5-.7-.8-1.3-.7-.5.1-1.1-.1-1.7.2V85.9c0 .7-.2.9-.9.8-.2 0-.3-.1-.4-.3v-.6-10.1-.5c0-.3.2-.4.4-.4h4.3c.5 0 1 0 1.4.2 1.4.4 2.3 1.6 2.3 3.1 0 .4 0 .8-.1 1.2-.3 1.1-1 1.9-2.1 2.3-.2-.1-.5 0-.9.1zm-4-1.3c.1 0 .2.1.3.1 1.2 0 2.3.1 3.5 0 1.2-.1 2-1.1 2.1-2.4 0-1.2-.8-2.3-2-2.4-1.1-.1-2.2-.1-3.4-.1-.1 0-.3.1-.5.1v4.7zM202.7 81.7c.2.7.6 1.1.9 1.6.3.5.7 1 1 1.6.3.5.7 1 1.1 1.7-.5 0-.9.1-1.3 0-.2 0-.4-.3-.5-.5-.8-1.2-1.6-2.4-2.3-3.6-.3-.6-.7-.8-1.4-.7h-1c-.7 0-.7 0-.7.7v3.4c0 .7-.3.9-1 .7-.1 0-.2-.2-.2-.3v-.5-10.2-.3c0-.5.1-.6.6-.6 1.5 0 3-.1 4.5 0 3.4.2 3.9 3.6 2.8 5.5-.4.7-1.1 1.2-1.9 1.4-.2-.1-.4 0-.6.1zm-4.1-1.3c.1 0 .1.1.2.1 1.2 0 2.4.1 3.6 0 1.2-.1 2-1.2 2-2.4s-.9-2.2-2.1-2.4c-1.1-.1-2.2-.1-3.3-.1-.1 0-.3.1-.5.1.1 1.7.1 3.2.1 4.7zM188.2 49.8c-.1.1-.1.1-.2.1-1.3.1-1.3.1-1.7-1.1-.1-.4-.3-.8-.5-1.2-.1-.4-.4-.5-.7-.5H180c-.4 0-.7.2-.8.6-.2.6-.5 1.1-.7 1.7-.1.4-.3.6-.8.5h-.9c.1-.2.1-.4.2-.6 1.5-3.6 2.9-7.2 4.4-10.9.2-.4.4-.6.9-.6 1.3 0 1.1-.2 1.5 1 1.4 3.4 2.8 6.9 4.2 10.3.1.3.2.5.2.7zm-5.6-10.4c-.4.6-2.5 6-2.5 6.5.6.2 4.5.2 5.1 0-.1-.5-2.2-5.8-2.6-6.5zM219.1 44.4V49.3c0 .6-.4.9-1 .7-.1 0-.2-.2-.2-.3v-.5V39v-.2c0-.7.4-.9 1-.7.1 0 .2.2.2.3V43.3c.3 0 .5.1.7.1h5.9c.7 0 .8 0 .8-.8v-3.8c0-.6 0-.7.7-.7.6 0 .6 0 .6.6v10.8c0 .2-.1.5-.2.5-.3.1-.6.1-.9 0-.1 0-.2-.3-.2-.5v-1.9-2.5c0-.5-.1-.6-.6-.6h-6.3c-.1-.2-.3-.2-.5-.1zM207.2 86.5c.1-.3.2-.6.3-.8 1.4-3.5 2.8-6.9 4.2-10.4.1-.3.3-.7.5-.7.5-.1 1-.1 1.5 0 .1 0 .3.3.4.5.7 1.6 1.3 3.3 2 4.9.8 1.9 1.5 3.8 2.3 5.7.1.2.1.4.2.7-.4 0-.8.1-1.2 0-.2 0-.3-.2-.4-.4-.3-.6-.5-1.1-.7-1.7-.1-.4-.4-.6-.8-.6h-5.1c-.4 0-.6.2-.8.5-.2.5-.4 1.1-.6 1.6-.1.4-.4.6-.9.6-.3.1-.5.1-.9.1zm3-3.8h2.7c.9 0 1.7.1 2.6-.1-.9-2.2-1.7-4.4-2.6-6.5-.4.4-2.6 5.7-2.7 6.6zM169.3 30.4c.4 0 .7.1.9.1h5c.4 0 .5.1.5.6 0 .4-.1.5-.5.5h-6.7c-.5 0-.5-.1-.5-.5v-.9-9.5-.6c0-.5.1-.5.5-.5h6.6c.6 0 .6 0 .6.5s0 .6-.6.6H169.7c-.3 0-.5.2-.5.5v3.6c.4 0 .6.1.9.1h4.9c.5 0 .6.1.6.6s-.1.6-.6.6H169.6c-.1 0-.3.2-.3.3v4zM121.7 43.1h5.6c.5 0 .6.1.6.5 0 .5-.1.6-.6.6h-5.1c-.6 0-.7.1-.7.7V48c0 .6.1.7.7.7h5.1c.6 0 .7.2.6.8 0 .2-.2.4-.4.4h-6.8c-.3 0-.5-.1-.5-.4v-.3-10.4-.4c0-.2.1-.4.4-.4H127.4c.5 0 .6.1.6.6s-.1.6-.6.6h-4.8c-1.1 0-1.1 0-1.1 1.1v2.2c.1.1.1.3.2.6zM230.8 43.9v-5.3c0-.7 0-.7.7-.7h6.4c.6 0 .6.1.7.5 0 .5-.1.6-.6.6H232.6c-.3 0-.5.1-.5.5v3.2c0 .3.2.5.5.5h5.3c.5 0 .6.1.6.6 0 .4-.1.5-.6.5H232.7c-.4 0-.6.1-.6.5v3.4c0 .3.2.5.5.5H238c.5 0 .6.1.6.6 0 .4-.1.5-.5.5h-6.5c-.7 0-.7 0-.7-.7-.1-1.6-.1-3.4-.1-5.2zM166.2 67v1.1c-.2 0-.4.1-.6.1h-6.4c-.7 0-.7 0-.7-.7V57c0-.7 0-.8.7-.8h6.3c.3 0 .6-.1.7.4.1.5-.1.7-.6.7h-5c-.9 0-.9.1-.9.9v2.6c0 .6.1.7.7.7h5.1c.5 0 .6.1.6.6s-.1.6-.6.6h-5.7c0 .3-.1.5-.1.7v3c0 .7.1.7.7.7h4.9c.4-.1.6-.1.9-.1zM247.6 81c0 .3-.1.5-.1.7v3c0 .7.1.7.7.7h5c.7 0 .8.1.7.6 0 .5-.1.5-.7.5H246.9c-.8 0-.8 0-.8-.8v-6.2-4.3c0-.7 0-.7.7-.7h6.4c.6 0 .6.1.7.5 0 .4-.1.6-.5.6h-4.8c-1.1 0-1.1 0-1.1 1.1v2.1c0 1 0 1 1.1 1h4.8c.5 0 .6.1.6.6s-.1.6-.6.6h-5.8zM133.2 75.7v4c.3 0 .6.1.9.1h4.7c.6 0 .7.1.7.6s-.1.5-.6.5h-5.6c-.1 1.5-.1 2.9 0 4.3.3 0 .6.1.9.1h5c.6 0 .7.1.6.6 0 .4-.1.5-.5.5h-6.5c-.7 0-.7 0-.7-.7v-8.9-1.5c0-.8 0-.8.8-.8H139.3c.4 0 .5.1.5.5s-.1.5-.5.5h-4.9c-.5.1-.8.2-1.2.2zM133.2 62.6v4.3c.3 0 .6.1.8.1h5c.6 0 .7.1.6.6 0 .4-.1.5-.5.5h-6.7c-.5 0-.5-.1-.5-.5v-1.2-9.1-.5c0-.6.1-.7.7-.7h6.5c.5 0 .6.1.6.5s-.1.5-.6.5h-4.9c-.3 0-.6.1-1 .1v3.5c0 .6.1.6.6.6H138.9c.5 0 .6.1.6.6s-.1.5-.6.5h-4.8c-.3.2-.5.2-.9.2zM193.9 48.3c.3-.4.5-.7.7-1 .2.2.4.3.6.5 1.4 1.1 2.9 1.4 4.6 1 .7-.2 1.3-.6 1.6-1.3.3-.8.1-1.5-.5-2-.3-.2-.7-.4-1.1-.6-.8-.3-1.5-.5-2.3-.7-.6-.2-1.1-.4-1.7-.6-1.9-.9-2-3.4-.6-4.6.6-.6 1.3-.9 2.2-1 1.3-.2 2.6-.1 3.8.5.4.2.7.4 1 .7.3.2.3.4.1.7l-.5.5c-.2-.2-.4-.3-.5-.4-1.2-.8-2.6-1.2-4-.8-.6.2-1.1.5-1.4 1.1-.4.7-.2 1.5.5 1.9.4.3.9.4 1.3.6.8.3 1.6.5 2.4.7.4.1.8.3 1.1.5 1.1.6 1.7 1.4 1.7 2.7 0 1.3-.6 2.3-1.7 2.9-.5.2-1 .4-1.5.5-1.6.2-3.1.1-4.5-.8-.5-.3-.9-.7-1.3-1zM140.5 42.3v3.2c0 .5-.1 1.1-.2 1.6-.5 1.7-1.8 2.8-3.7 3-1 .1-1.9.1-2.9-.3-1.6-.6-2.5-1.7-2.7-3.3-.1-.6-.1-1.2-.1-1.8v-5.9c0-.7.2-.9 1-.8.1 0 .3.2.3.3.1.2 0 .4 0 .5v6.1c0 .6.1 1.2.3 1.8.4 1.3 1.3 2 2.7 2.2.5.1 1 .1 1.4 0 1.7-.3 2.7-1.6 2.7-3.4V39v-.5c0-.6.1-.7.7-.6.5 0 .6.1.6.6-.1 1.3-.1 2.5-.1 3.8zM129.1 23.9v-3.5c0-.8.2-.9.9-.8.2 0 .3.1.3.4V27.7c.2 1.3.8 2.3 2 2.7 1.4.5 2.7.4 3.9-.6.9-.8 1.1-1.9 1.2-3v-6.1-.6c0-.4.2-.5.5-.5h.4c.2 0 .3.1.3.3v6.8c0 .6-.1 1.2-.2 1.8-.5 2-1.8 2.9-3.7 3.2-.8.1-1.6 0-2.3-.1-1.9-.3-3.3-1.8-3.4-4.1.1-1.2.1-2.4.1-3.6zM281.2 78.9v-3.6c0-.7.3-.9 1-.7.1 0 .3.2.3.3.1.2 0 .4 0 .5v6.4c0 .3 0 .6.1 1 .5 2.6 3.7 3.7 5.8 2 1-.8 1.2-1.9 1.3-3.1v-6-.6c0-.6.6-.9 1.1-.6.1.1.2.3.2.4V81.7c0 .7-.1 1.5-.3 2.2-.4 1.4-1.4 2.2-2.8 2.6-1.2.3-2.3.3-3.5 0-1.8-.5-2.9-2-3-3.9-.2-1.2-.1-2.5-.2-3.7.1 0 0 0 0 0zM182.1 60.6v-3.7c0-.6.5-.9 1.1-.7.1.1.2.2.2.3v7.6c.4 2.2 2 3.1 3.8 2.9 2.1-.2 3.2-1.4 3.3-3.7.1-1.9 0-3.9 0-5.8v-1c0-.5.1-.6.6-.6s.6.1.6.6v6.6c0 .6-.1 1.2-.3 1.8-.4 1.4-1.2 2.3-2.6 2.8-1.2.4-2.5.4-3.7.1-1.9-.5-3-2.1-3.1-3.9 0-.9.1-2.1.1-3.3zM170.1 45.2v4.3c0 .4-.1.5-.6.5-.6 0-.6 0-.6-.5v-.4-10.2-.4c0-.3.1-.5.5-.5h4.8c1.7.1 3.1 1.4 3.2 3 .2 1.9-.7 3.4-2.4 3.9-.5.1-.9.2-1.4.2h-2.5c-.4 0-.7 0-1 .1zm.2-6.1c-.1.2-.1.2-.1.3v4.2c0 .3.2.4.4.4 1.2 0 2.3 0 3.5-.1 1.2-.1 1.9-1.1 1.9-2.3 0-1.4-.9-2.3-1.8-2.4-.2 0-.4-.1-.5-.1-1.2-.1-2.3 0-3.4 0zM214.4 47.3c.3.2.6.3 1 .5-.1.2-.2.3-.3.5-1.1 1.2-2.5 1.8-4.1 1.8-1.8 0-3.3-.6-4.5-1.9-1-1.1-1.5-2.4-1.6-3.9-.1-.9 0-1.9.4-2.8.9-2.3 2.6-3.6 5-3.8 1.8-.2 3.4.2 4.7 1.6.2.2.3.4.5.6-.4.2-.7.4-1 .6-.1-.1-.3-.2-.4-.4-1.9-2-5.3-1.6-6.9.5-1.7 2.4-1.1 6 1.3 7.5 1.8 1.2 4.1.9 5.6-.6.1 0 .2-.1.3-.2zM154.7 80v4.6c0 .7 0 .8.8.8h4.3c.5 0 .6.1.6.5 0 .5-.1.6-.6.6H154c-.5 0-.6-.1-.6-.6V75.2c0-.6.6-.9 1.1-.6.1.1.2.3.2.5V80zM119.1 30.5l.6-.9c.2.2.4.3.6.5.7.6 1.5.7 2.4.5 1.1-.3 1.8-1.1 1.9-2.4v-.8-6.8-.5c0-.3.1-.4.4-.4h.5c.3 0 .4.1.4.4v7.7c0 .4 0 .9-.1 1.3-.3 1.8-1.5 2.6-2.9 2.8-1 .1-2 .1-2.9-.4-.2-.5-.5-.7-.9-1zM191.5 43.9v5.3c0 .7-.4.9-1 .7-.1 0-.2-.2-.2-.3v-.5-10.3-.5c0-.2.1-.4.4-.4h.6c.2 0 .3.1.3.4v.5c-.1 1.7-.1 3.4-.1 5.1zM162.8 80.5v-5.3c0-.6.1-.6.6-.6s.6.1.6.6v10.7c0 .2-.1.5-.2.5-.3.1-.6.1-.9 0-.1 0-.2-.3-.2-.5v-2c.1-1.1.1-2.3.1-3.4zM181.3 82.7h-1.6c-.3 0-.4-.1-.4-.4 0-.3.1-.5.4-.5h3.2c.3 0 .4.2.4.5s-.2.4-.5.4h-1.5zM184.5 36.6c-.4 0-.8-.4-.7-.7 0-.3.4-.7.7-.7.4 0 .8.3.8.7 0 .4-.4.7-.8.7zM180.7 36.6c-.4 0-.7-.3-.7-.8 0-.4.4-.7.7-.7.4 0 .7.3.7.7 0 .5-.2.8-.7.8z"/></svg>