<svg id="Calque_1" xmlns="http://www.w3.org/2000/svg" viewBox="0 0 1913.08 652.87"><style>.st0{fill:#fff}</style><path class="st0" d="M1897 0c.03 21.5.08 42.99.09 64.49.01 98.16 0 196.32 0 294.48v7.23h-65.66v15.58h23.59v91.17h-54.11V366.77h-19.39v106.3h-33.9v-13.48h-11.74c-7.67 0-15.33-.02-23 .01-2.33.01-4.26-.07-4.22-3.33.12-9.49.04-18.98.04-29.04h34.86v-15.86h-34.55v-29.23h36.54v-15.48c-1.58-.08-3.21-.22-4.84-.23-15.33-.02-30.67.17-45.99-.12-4.54-.09-5.52 1.38-5.5 5.67.17 31.5.09 62.99.09 94.49v6.44h-54.01c13.29-5.71 19.33-15.16 19.4-28.04.08-13.43-6.3-22.47-20.37-26.08 1.43-.95 2.12-1.54 2.92-1.93 11.9-5.81 16.42-14.82 14.63-29.24-1.38-11.09-8.21-18.56-20.98-19.92-13.83-1.48-27.84-1.23-42.43-1.75v107.36c-10.38 0-20.14.12-29.9-.17-1.12-.03-2.64-2.23-3.16-3.71-3.95-11.13-7.69-22.33-11.5-33.52-2.17-6.37-4.51-12.61-11.81-14.72 4.33-2.5 8.91-4.23 12.3-7.29 8.16-7.37 8.9-17.08 6.73-27.19-2.19-10.2-8.84-16.51-18.78-18.43-7.45-1.44-15.2-1.47-22.83-1.8-6.15-.27-12.34.17-18.49-.13-3.86-.19-4.77 1.25-4.73 4.88.17 15.66.07 31.33.07 47v55.08c-8.57 0-16.68.21-24.76-.22-1.21-.06-2.72-2.96-3.32-4.8-10.5-32.27-20.95-64.56-31.16-96.93-1.25-3.95-2.98-5.36-6.99-4.99-5.25.49-11.81-1.28-15.46 1.27-3.44 2.41-3.93 9.14-5.56 14.02-9.75 29.05-19.52 58.09-29.11 87.19-1.13 3.43-2.68 4.7-6.31 4.64-11.61-.22-23.24-.08-36.35-.08 3.23-2.39 5.33-3.83 7.29-5.43 12.42-10.13 14.65-38.69-2.54-49.03-7.13-4.29-14.37-8.4-21.5-12.69-5.16-3.11-8.67-7.36-8.19-13.8.6-8.03 7.64-13.17 17.02-12.03 6.06.74 12.02 2.24 18.38 3.47.31-3.93.79-8.18.85-12.43.02-1.1-1.1-2.93-2.06-3.22-11.86-3.56-23.74-4.75-35.75-.33-23.24 8.56-23.12 39.04-7.06 50.5 4.86 3.46 10.21 6.23 15.34 9.32 2.85 1.72 5.82 3.26 8.5 5.21 6.46 4.68 8.41 10.72 6.06 17.93-1.99 6.11-7.81 10.7-15.08 10.07-7.82-.67-15.52-2.79-23.77-4.37-.27 4.7-.6 10.38-.96 16.46h-36.64c.66-1.44 1.88-2.88 1.89-4.33.13-17.81.09-35.62.09-53.89h-34.17v14.22c3.96 0 7.89.15 11.81-.05 3.14-.16 4.55.77 4.46 4.17-.18 7.49-.15 15-.01 22.5.06 2.97-1.31 3.99-3.99 4.61-16.6 3.82-30.81-3.68-36.58-19.78-4.29-11.97-4.46-24.27-.74-36.33 5.78-18.74 21.1-27.19 40.6-22.76 4.79 1.09 9.4 2.93 14.71 4.62.27-4.91.65-9.68.69-14.46.01-.95-1.12-2.49-2.05-2.79-17.71-5.89-46.3-6.71-62.87 11.57-12.43 13.72-15.31 30.38-13.66 48.03 1.85 19.82 10.59 35.44 29.28 44.66h-62.61V366.47c-5.44 0-10.41-.23-15.32.21-.89.08-2.18 2.89-2.19 4.45-.16 16.5-.1 33-.1 49.5 0 8.33.01 16.67-.01 25 0 1.61-.16 3.22-1.24 5.1-.74-1.52-1.55-3.01-2.21-4.57-10.66-25.12-21.36-50.22-31.86-75.41-1.37-3.29-3-4.6-6.59-4.42-5.94.3-11.91.08-18.26.08v106.97h-18.6c-9.7 0-9.75.02-12.76-9.29-10.02-31.01-20.05-62.02-29.93-93.07-1.06-3.34-2.43-5.02-6.21-4.69-5.43.47-12.2-1.42-16 1.19-3.56 2.45-4.09 9.41-5.78 14.44-9.71 28.88-19.44 57.77-28.96 86.71-1.2 3.63-2.88 4.9-6.7 4.8-10.28-.26-20.58-.09-31.48-.09 7.38-35.85 14.61-70.96 22.02-106.93-5.42 0-10.36-.27-15.23.2-1.1.11-2.53 2.66-2.84 4.27-4.72 24.2-9.28 48.42-13.89 72.64-.36 1.87-.84 3.72-1.26 5.57-.41-.01-.83-.02-1.24-.04-1.8-9.19-3.62-18.37-5.41-27.56-3.3-16.99-6.72-33.96-9.77-51-.63-3.52-2.12-4.3-5.27-4.18-4.99.18-10.01.23-14.99-.01-3.34-.16-4.55 1.06-5.17 4.34-4.78 25.2-9.77 50.36-14.71 75.54-.18.94-.47 1.86-1.59 2.98-.42-1.43-.98-2.83-1.24-4.28-4.47-24.56-8.98-49.12-13.28-73.71-.63-3.59-1.81-5.22-5.69-4.89-4.11.35-8.26.08-13.24.08 7.21 35.79 14.28 70.94 21.46 106.58h-43.91v-13.55h-44.16c7.54-13.33 14.57-25.77 21.61-38.2 5.66-10 10.77-20.37 17.19-29.85 5.28-7.79 4.92-15.85 4.44-24.64h-63.68v15.08h41.25c-1.19 2.36-1.91 3.95-2.77 5.46-11.91 21-23.7 42.08-35.85 62.94-3.06 5.25-4.89 10.43-4.26 16.48.2 1.95.03 3.93.03 6.28H555.09c3.57-3.74 7.88-7.01 10.59-11.3 9.9-15.64 5.16-35.08-10.53-44.73-5.95-3.66-12.4-6.58-18.06-10.62-3.32-2.37-6.77-5.88-8-9.6-3.2-9.62 5.08-17.64 16.47-16.31 6.06.71 12.01 2.25 18.34 3.48.12-1.83.26-3.94.41-6.05.73-9.93.73-9.96-8.96-11.6-9.63-1.63-19.12-1.85-28.54 1.67-23.06 8.61-22.95 38.73-7.3 50.23 4.27 3.14 9.01 5.64 13.56 8.38 2.99 1.8 6.13 3.37 9.05 5.27 7.78 5.06 10.19 11.29 7.58 19.13-2.21 6.66-8.64 10.95-17.13 10-7.16-.8-14.17-3-21.68-4.68-.29 5.03-.61 10.73-.95 16.76h-34.9V366.86h-17.5v83.45l-1.23.39c-.74-1.47-1.57-2.89-2.21-4.4-10.66-25.12-21.38-50.21-31.84-75.41-1.47-3.53-3.3-4.75-7-4.56-5.78.29-11.59.08-17.97.08v106.66c-2.34.12-4.11.3-5.89.3-128.82.01-257.65.01-386.47 0-1.64 0-3.28-.25-4.92-.39C0 315.37 0 157.73 0 0h1897zM1832.05 581.26c9.54-13.62 27.35-15.82 37.57-.69 4.68-3.19 8.94-7.68 14.1-9.29 14.98-4.69 28.27 4.66 28.92 20.62.78 19.3.28 38.64.31 57.97 0 .29-.25.58-.55 1.22h-13.27v-5.49c0-15.16.01-30.33-.01-45.49 0-2.17.03-4.34-.15-6.49-.53-6.52-3.86-10.53-9.29-11.34-6.77-1.01-12.63 1.64-14.67 7.62-1.42 4.16-2.03 8.77-2.11 13.19-.25 14.33-.1 28.66-.1 42.99v4.89h-13.87v-5.14c0-15.66.02-31.33-.02-46.99-.01-2.32-.1-4.68-.53-6.95-1.16-6.01-4.12-8.99-9.24-9.64-6.43-.82-12.19 1.52-14.09 6.96-1.61 4.61-2.37 9.71-2.48 14.61-.32 13.82-.11 27.66-.12 41.49v5.75h-13.79c0-2.21.01-4.16 0-6.1-.18-22.99-.29-45.98-.64-68.97-.06-3.7.85-5.36 4.68-4.84.98.13 2.01.14 2.99 0 4.17-.61 6.38.79 5.94 5.35-.12 1.27.21 2.6.42 4.76zM813.82 651.1h-13.69v-5.66c-.03-17 .15-34-.17-50.99-.19-10.26-8.63-15.59-17.65-11-3.03 1.54-5.67 5.17-6.98 8.44-1.42 3.57-1.42 7.83-1.46 11.79-.15 14.16-.21 28.33.03 42.49.07 4.19-1.18 5.73-5.33 5.29-2.61-.28-5.27-.05-8.63-.05v-5.75c0-15.5.02-30.99-.02-46.49-.01-2.32-.03-4.69-.44-6.96-1.12-6.27-4.18-9.39-9.48-10.01-6.66-.78-12.38 1.77-14.24 7.54-1.5 4.66-2.13 9.76-2.21 14.68-.27 15.32-.1 30.64-.1 46.48h-13.54c-.08-1.6-.23-3.35-.24-5.1-.2-23.32-.29-46.65-.67-69.97-.06-3.87 1.18-5.19 4.82-4.7.65.09 1.35.11 2 0 5.21-.92 7.4 1.27 6.86 6.48-.1.92.21 1.88.52 4.34 4.69-8.42 11.35-11.75 19.44-11.75 8.38 0 14.21 4.77 18.63 12.03 5.05-8.11 11.64-12.69 20.9-12 13.02.96 21.1 8.56 21.49 21.79.59 19.46.16 38.94.16 59.08zM395.84 652.2V542.94c.36-.31.61-.72.85-.72 11.14.16 22.38-.54 33.39.73 18.85 2.18 30.61 13.77 35.99 31.53 5.14 16.97 4.48 33.96-2.9 50.27-6.31 13.95-17.69 22.2-32.45 24.69-11.23 1.89-22.77 1.88-34.88 2.76zm14.6-97.06v83.82c3.52 0 6.69.18 9.82-.03 12.84-.89 23.23-6.07 28.68-18.27 6.19-13.88 6.76-28.4 2.64-42.93-4.96-17.54-20.9-25.65-41.14-22.59zM581.52 601.41c6.37-7.43 13.44-14.38 18.91-22.42 5.59-8.22 12.72-8.93 22.46-7.17-10.45 11.98-20.5 23.5-30.9 35.43 11.07 14.37 22.08 28.67 33.94 44.06-6.02 0-10.9.22-15.73-.15-1.27-.1-2.63-1.83-3.55-3.1-7.26-9.95-14.43-19.98-21.63-29.98-1.14-1.59-2.32-3.15-4.48-4.49v37.48h-13.58V534.25h13.4v66.91c.38.08.77.17 1.16.25zM1042.98 587.81c.4.66.27.53.24.39-2.37-12.09-1.87-13.49 10.44-16.17 6.17-1.34 12.91-1.67 19.14-.75 12.25 1.79 19.72 10.92 20.11 23.66.36 11.64.13 23.3.15 34.95.01 6.82 0 13.64 0 21h-11.85c-.31-2.86-.6-5.58-1-9.34-7.86 10.46-17.82 12.32-28.76 10.27-9.42-1.76-15.66-9.28-16.47-18.85-1.12-13.07 3.95-23.16 15.26-26.69 9.22-2.88 19.05-3.78 29.15-5.66 3.19-11.4-4.58-20.97-17.27-18.87-6.31 1.06-12.36 3.86-19.14 6.06zm37.25 24.75c-9.29-.72-17.71-1.15-25.27 3.78-6.09 3.98-8.18 12.34-5.05 19.1 2.56 5.52 9.14 7.95 16.3 6.01 6.92-1.87 11.33-6.45 12.72-13.29 1.01-4.93.89-10.11 1.3-15.6zM1264.42 611.16c-1.13 11.07-2.53 21.66-9.46 30.47-12.84 16.34-40.21 14.59-49.99-3.8-9.15-17.2-8.75-35.32-.08-52.78 5.49-11.06 15.71-15.06 27.4-14.73 12.76.36 22.47 6.46 26.94 18.67 2.59 7.07 3.52 14.75 5.19 22.17zm-14.92 2.18c-.68-6.42-1.05-10.9-1.69-15.34-.28-1.95-1.01-3.86-1.7-5.73-2.5-6.82-7.42-10.54-14.66-10.87-7-.32-12.78 3.42-15.25 10.68-4.38 12.84-4.39 25.92 0 38.76 2.48 7.25 7.51 10.37 14.8 10.41 7.3.03 12.5-3.01 14.84-10.25 2.01-6.25 2.72-12.92 3.66-17.66zM549.44 611.36c-1.18 11.08-2.59 21.67-9.61 30.43-13.15 16.41-40.57 14.29-50.22-4.56-8.75-17.09-8.35-35.11.37-52.37 5.47-10.83 15.54-14.82 27.02-14.56 12.72.28 22.59 6.2 27.11 18.41 2.67 7.22 3.61 15.08 5.33 22.65zm-14.53.31c-1.37-6.8-2.2-13.6-4.18-20.05-2.07-6.74-7.51-10.17-14.51-10.18-6.93 0-12.34 3.21-14.73 9.93-4.74 13.32-4.77 26.83 0 40.13 2.38 6.64 7.58 9.79 14.74 9.77 7.2-.03 12.39-3.37 14.51-10.02 1.99-6.26 2.8-12.9 4.17-19.58zM1796.93 651.06h-12.85c-.29-3.1-.55-5.86-.94-9.99-6.12 10.07-14.55 12.25-24.32 11.17-10.39-1.15-18.33-8.91-18.69-20.09-.61-19.14-.33-38.31-.48-57.47-.02-2.53.98-3.42 3.54-3.58 10.27-.66 10.27-.74 10.27 9.37 0 13.16-.03 26.32.02 39.49.01 2.99.13 6.01.53 8.97.9 6.79 3.77 10.2 9.31 11.5 6 1.41 13.05-.77 15.51-6.26 2.24-5 3.58-10.75 3.79-16.23.52-13.81.31-27.65.09-41.48-.07-4.08 1.04-5.99 5.29-5.32.49.08 1 .01 1.5.01 7.12 0 7.1 0 7.14 6.96.13 23.32.29 46.65.43 69.97 0 .81-.08 1.62-.14 2.98zM697.62 651.07h-12.54c-.29-3.09-.54-5.84-.93-9.98-6.12 10.02-14.53 12.23-24.29 11.16-10.58-1.16-18.45-9.1-18.77-20.55-.54-18.98-.3-37.98-.44-56.97-.02-2.5.91-3.45 3.49-3.62 10.32-.69 10.31-.78 10.31 9.33 0 13.16-.03 26.32.02 39.49.01 2.99.13 6.01.52 8.97.92 6.97 3.95 10.47 9.76 11.67 5.96 1.23 12.93-1.2 15.33-6.76 2.11-4.89 3.36-10.48 3.54-15.81.48-13.81.29-27.65.08-41.48-.06-4.02.91-5.63 5.24-5.45 9.49.41 8.65-1.18 8.66 8.5.04 23.63.02 47.27.02 71.5zM1603.79 651.42c0-16.56.03-32.2-.03-47.83-.01-3.15-.18-6.33-.62-9.45-.99-7.12-4.14-10.88-9.57-11.84-6.59-1.17-13.28 1.64-16.03 7.52-1.58 3.38-2.67 7.29-2.76 10.99-.37 14.81-.26 29.64-.33 44.46-.01 1.8 0 3.59 0 5.76h-13.79c0-2.19.01-4.13 0-6.06-.18-22.98-.29-45.96-.64-68.94-.05-3.6.68-5.44 4.6-4.91 1.14.16 2.35.16 3.49 0 4.16-.61 5.81 1.21 5.5 5.28-.1 1.3.2 2.63.36 4.43.76-.59 1.36-.85 1.64-1.31 5.51-8.92 17.11-10.92 26.68-8.1 8.91 2.62 14.52 9.85 14.84 20.85.53 18.47.31 36.96.51 55.44.03 2.86-1.08 3.86-3.82 3.74-3.1-.13-6.23-.03-10.03-.03zM923.46 651.11h-13.53c-.09-1.86-.23-3.61-.25-5.37-.2-23.31-.29-46.63-.67-69.93-.06-3.9 1.24-5.15 4.84-4.67.65.09 1.35.11 1.99 0 5.24-.93 7.36 1.33 6.84 6.49-.09.92.21 1.88.49 4.02 5.82-9.45 13.88-12.44 23.46-11.12 11.99 1.65 19.04 8.8 19.43 20.97.62 19.3.36 38.62.44 57.93 0 .46-.3.92-.55 1.63h-13.17v-10.72c0-12.66.04-25.31-.03-37.97-.01-2.82-.23-5.66-.64-8.45-.99-6.82-4.05-10.53-9.27-11.58-6.06-1.22-12.81 1.12-15.6 6.42-1.88 3.56-3.28 7.8-3.41 11.78-.47 14.47-.31 28.97-.38 43.46 0 2.15.01 4.31.01 7.11zM1296.46 651.11h-13.53c-.09-1.84-.23-3.6-.25-5.35-.2-23.31-.29-46.63-.67-69.93-.06-3.89 1.21-5.17 4.83-4.69.65.09 1.35.11 1.99 0 5.22-.92 7.39 1.29 6.85 6.48-.09.92.21 1.88.44 3.69 4.47-6.1 9.4-9.82 16.57-10.79 14.1-1.9 25.63 6.21 26.32 20.47.81 16.62.46 33.29.6 49.94.03 3.29 0 6.58 0 10.14h-13.83v-8.71c0-13.32.03-26.65-.03-39.97-.01-2.82-.23-5.66-.64-8.45-.99-6.82-4.04-10.53-9.26-11.59-6.24-1.27-13.07 1.29-15.88 6.83-1.75 3.45-3.04 7.53-3.15 11.36-.43 14.48-.3 28.97-.37 43.46 0 2.14.01 4.3.01 7.11zM1544.26 615.62h-45.43c-1.38 11.84 3.37 21.62 11.64 24.84 6.35 2.48 8.62 2.14 27.56-4.18.24 3.22.61 6.32.61 9.43 0 .93-.81 2.19-1.63 2.74-11.75 7.96-36.42 4.83-44.41-6.69-4.1-5.92-6.81-13.44-7.98-20.59-2.04-12.42-1.21-24.94 5.19-36.39 5.79-10.35 15.02-14.98 26.5-14.43 12.35.59 20.65 7.5 23.8 19.3 2.15 8.06 2.71 16.56 4.15 25.97zm-14.91-10.71c-.32-8.65-.23-17.16-8.15-22.21-4.71-3-10.43-2.97-15.06.56-7.05 5.38-7.64 13.34-7.94 21.65h31.15zM846.46 615.91c-.24 13.09 3.93 21.37 11.95 24.53 6.57 2.59 9.47 2.16 27.62-4.2.23 3.23.6 6.32.6 9.42 0 .94-.78 2.21-1.59 2.76-11.59 7.99-36.38 4.86-44.42-6.62-4.04-5.76-6.69-13.11-7.9-20.1-2.22-12.77-1.38-25.61 5.3-37.31 5.77-10.11 14.96-14.57 26.22-14.05 12.1.56 20.47 7.2 23.66 18.79 2.04 7.43 2.25 15.37 3.22 23.09.46 3.68-2.17 3.41-4.54 3.41-11.66 0-23.32-.01-34.98.01-1.62 0-3.24.17-5.14.27zm30.96-11.06c-.47-8.46-.22-16.93-8.08-22.09-4.55-2.99-10.08-2.98-14.65.16-7.6 5.21-8.11 13.41-8.47 21.93h31.2z"/><path class="st0" d="M1875.11 382.28h21.66v90.77h-21.66v-90.77zM1454.55 583.16c-10.93 0-20.71-.29-30.46.12-5.16.22-5.06-2.46-5.06-6.11 0-3.67-.04-6.28 5.09-6.14 13.32.35 26.66.28 39.99.02 4.18-.08 4.92 1.53 5.02 5.24.14 4.89-1.08 8.95-3.82 13.03-9.93 14.79-19.55 29.79-29.28 44.72-1.05 1.61-2.03 3.26-3.59 5.77h37.32c0 3.35.24 6.16-.13 8.89-.13.99-1.7 2.56-2.63 2.57-16.13.16-32.26.11-48.61.11-.8-6.61-.74-12.19 3.14-17.85 11.1-16.18 21.58-32.8 33.02-50.37zM1358.13 637.34c7.74 1.33 14.76 3.11 21.86 3.58 6.09.4 10.66-3.45 11.78-8.13 1.2-5-1.32-10.06-6.98-13.07-4.7-2.49-9.68-4.43-14.42-6.86-10.47-5.36-13.93-11.94-12.41-23.08 1.27-9.25 8.87-17.37 18.92-18.62 6.13-.77 12.49.22 18.75.52 4.26.21 5.79 2.51 4.89 6.67-.38 1.76-.36 3.6-.57 5.94-3.47-.78-6.61-1.53-9.77-2.17-1.63-.33-3.29-.6-4.94-.68-6.99-.35-12.11 2.72-13.41 7.96-1.4 5.65 1.15 10.27 7.69 13.48 4.47 2.2 9.15 3.96 13.57 6.25 9.66 5 13.44 12.74 11.82 23.56-1.57 10.47-8.36 18.29-18.77 19.12-7.64.61-15.48-.87-23.19-1.76-4.35-.5-6.27-3.13-5.19-7.71.45-1.89.3-3.92.37-5zM1645.15 582.4h-12.85c.52-3.99-.23-8.88 1.71-10.45 2.29-1.86 6.91-.85 11.14-1.12 0-4.02.17-7.98-.06-11.91-.17-2.9 1.04-4.27 3.71-4.9 3.19-.75 6.33-1.7 10.07-2.72v19.85c4 0 7.59.29 11.12-.07 4.56-.46 6.07 1.43 5.51 5.7-.21 1.61-.17 3.26-.28 5.52h-16.14v13.94c0 11-.06 22 .03 33 .09 11.23 3.09 13.48 14.16 10.9.45-.11.95-.01 2.14-.01 0 2.89.27 5.7-.14 8.41-.16 1.06-1.78 2.63-2.83 2.7-5.42.37-10.96 1-16.28.24-5.55-.8-8.95-5.05-10.04-10.56-.7-3.57-.93-7.27-.96-10.92-.07-15.65-.01-31.29-.01-47.6zM1150.43 639.79c0 3.2.27 6-.13 8.71-.16 1.06-1.76 2.65-2.8 2.72-5.42.37-10.96 1.02-16.28.26-5.54-.79-8.97-5.04-10.06-10.54-.71-3.57-.94-7.27-.96-10.92-.1-15.65-.04-31.29-.04-47.5h-12.85c.51-4.09-.25-8.98 1.69-10.56 2.28-1.86 6.91-.86 11.16-1.15 0-3.99.18-7.94-.06-11.87-.17-2.9 1.01-4.29 3.68-4.92 3.19-.76 6.33-1.68 10.24-2.74v19.86c4.05 0 7.54.28 10.95-.07 4.51-.46 6.1 1.34 5.55 5.67-.2 1.6-.03 3.25-.03 5.54h-16.39v8.42c0 12.17 0 24.33.01 36.5 0 1.67-.03 3.34.11 5 .64 7.69 3.53 9.94 11.17 8.75 1.42-.23 2.82-.64 5.04-1.16zM1023.55 639.95c2.88 9.49 1.48 11.69-7.9 12.31-2.48.17-5 .18-7.47-.07-7.27-.74-12.13-4.96-13.14-12.17-.78-5.57-.81-11.27-.85-16.92-.11-13.31-.04-26.61-.04-40.66h-13.17c.78-4.28.3-9.03 2.33-10.67 2.1-1.7 6.64-.38 10.84-.38 0-4.46.16-8.39-.05-12.31-.15-2.79.8-4.38 3.54-5.03 3.19-.76 6.35-1.69 10.25-2.75v19.85h9.92c6.8.01 6.81.01 6.66 7-.03 1.14-.18 2.28-.32 4.08h-15.65c-.17 2.05-.39 3.47-.39 4.9-.02 13.82-.01 27.65-.01 41.47 0 1.17 0 2.34.09 3.5.63 7.73 3.46 10.02 11.06 8.87 1.46-.23 2.87-.68 4.3-1.02zM875.95 473.08h-33.63c5.56-28.94 11.03-57.44 16.5-85.94.49-.02.98-.05 1.46-.07 5.19 28.46 10.37 56.93 15.67 86.01zM1075.21 391.64c11.45 26.97 22.9 53.93 34.58 81.44h-35.8v-81.03c.4-.14.81-.28 1.22-.41zM416.2 391.63c11.45 26.96 22.9 53.92 34.59 81.45H415v-81l1.2-.45zM1703 582.41c5.58-9.25 12.95-12.32 22.45-12.07v12.55c-.41.21-.84.61-1.27.61-11.83-.14-17.59 4.19-19.6 15.93-1.06 6.18-.98 12.59-1.07 18.91-.16 10.78-.04 21.56-.04 32.72h-13.79c0-2.24.01-4.18 0-6.12-.18-22.98-.29-45.96-.64-68.94-.06-3.67.81-5.39 4.65-4.86.98.13 2.02.16 2.99 0 4.71-.8 6.34 1.41 5.98 5.83-.12 1.28.14 2.61.34 5.44zM1179.78 651.09h-13.63c-.09-1.95-.23-3.57-.23-5.19-.01-22.98.1-45.96-.11-68.94-.04-4.49 1.03-6.15 5.78-5.91 9 .46 8.17-1.03 8.18 8.47.02 21.82.01 43.63.01 65.45v6.12zM1440.01 473.13h-52.3c2.32-7.85 4.41-15.29 6.84-22.62.28-.86 2.38-1.57 3.65-1.59 10.49-.13 20.98-.17 31.46.04 1.38.03 3.58 1.32 3.97 2.5 2.29 6.93 4.17 13.99 6.38 21.67zM1007.99 473.06h-52.25c2.27-7.72 4.31-15.04 6.67-22.26.3-.93 2.26-1.85 3.46-1.86 10.65-.14 21.31-.16 31.96.02 1.29.02 3.35 1.15 3.69 2.2 2.33 7.09 4.27 14.29 6.47 21.9zM1536.39 473.09h-30.61v-26.62c0-5-.15-10 .12-14.98.06-1.19 1.34-3.12 2.36-3.34 6.53-1.4 13.94 1.81 16.2 8.01 4.35 11.99 7.89 24.27 11.93 36.93zM1607 443.28c0-4.48.1-8.97-.04-13.45-.09-2.76.92-3.97 3.75-3.78 3.47.24 7.01-.04 10.42.48 10.06 1.54 14.91 7.86 14.26 18.1-.61 9.73-6.46 15.24-16.51 15.56-11.89.38-11.89.38-11.89-11.43.01-1.82.01-3.65.01-5.48zM983.26 383.58c4.46 16.54 8.93 33.08 13.54 50.16h-29.72c4.99-16.97 9.86-33.55 14.73-50.13l1.45-.03zM1399.09 433.65c4.98-16.92 9.82-33.41 14.67-49.9l1.5-.12c4.45 16.47 8.91 32.94 13.52 50.01-9.99.01-19.32.01-29.69.01zM1505.78 397.64c0-4.33.08-8.66-.02-12.98-.06-2.5.83-3.75 3.46-3.56 3.47.25 7 .15 10.43.68 8.01 1.23 11.6 4.83 12.43 11.93 1.05 9-1.94 15.42-8.61 18.45-.9.41-1.85.74-2.81.99-12.9 3.43-14.87 1.96-14.87-11.02-.01-1.5-.01-2.99-.01-4.49zM1607 381.07c5.41 0 10.09-.46 14.64.11 7.3.91 12.13 7.27 12 14.85-.14 8.38-5.62 14.86-13.55 16.01-12.41 1.81-13.09 1.23-13.09-11.14v-19.83zM1180.29 538.54c0 4.04-.27 7.2.06 10.31.51 4.79-1.25 6.87-6.11 6.16-2.88-.42-8.07-.27-8.28-1.23-.96-4.43-.62-9.17-.52-13.79.01-.5 1.45-1.36 2.25-1.39 3.98-.14 7.94-.06 12.6-.06z"/></svg>