<svg id="Calque_1" xmlns="http://www.w3.org/2000/svg" viewBox="0 0 326 138.9"><style>.st0{fill:#fff}</style><path class="st0" d="M233.2.1c-.8.1-1.6.2-2.3.4-1.5.2-3 .4-4.5.7-1.4.2-2.8.5-4.2.7-1.8.3-3.5.6-5.3.9-2.3.4-4.6.8-6.8 1.3-3.2.7-6.5 1.3-9.7 2-4.9 1.1-9.8 2.3-14.6 3.6-9.8 2.6-19.6 5.6-29.1 9-8.1 2.9-16 6.2-23.8 10-7.1 3.4-14 7.2-20.6 11.5-5.7 3.7-11.2 7.8-16.2 12.4-4.7 4.2-8.9 8.8-12.6 14-1.8 2.5-3.5 5.1-5 7.9-1.7 3.4-3 6.9-3.8 10.7-.5 2.1-.8 4.2-1 6.3-.2 2.1-.3 4.2-.2 6.3 0 1.4.1 2.7.2 4.1.1 1.5.3 3 .5 4.5.4 2.7.9 5.3 1.5 7.9 1.5 6.1 3.5 12.1 6.1 17.8.9 2 1.8 3.9 2.8 5.9.1.1.1.3.2.4-.1.2-.2.1-.3.2H7.2c-.1-.2-.3-.5-.4-.7-1-1.8-1.8-3.7-2.5-5.7-1.5-3.9-2.6-7.9-3.3-12.1-.4-2.1-.6-4.2-.8-6.3-.2-2-.2-4-.2-6.1 0-2 .1-4.1.3-6.1.5-4.5 1.3-8.8 2.6-13.1 1.9-6.2 4.6-12.1 7.9-17.7 2.9-4.8 6.1-9.3 9.9-13.4 3.5-3.8 7.3-7.3 11.4-10.4 4.9-3.8 10.2-7.1 15.6-10.1 6.2-3.4 12.6-6.4 19.1-9.1 6.8-2.8 13.7-5.2 20.7-7.4 7.8-2.4 15.6-4.5 23.5-6.3 4.1-1 8.2-1.9 12.3-2.7 3.6-.7 7.2-1.4 10.8-2 3-.6 6.1-1.1 9.2-1.6 2.6-.4 5.1-.8 7.7-1.2 1.9-.3 3.8-.6 5.7-.8 1.7-.2 3.5-.4 5.2-.7 1.5-.2 3-.4 4.6-.6 1.6-.2 3.2-.4 4.9-.5 1.7-.2 3.5-.4 5.2-.6 1-.1 2.1-.2 3.1-.3 1.5-.1 3-.3 4.6-.4 1.2-.1 2.3-.2 3.5-.3 1.2-.1 2.5-.2 3.7-.3.6-.1 1.2-.1 1.8-.1 2-.1 4-.3 5.9-.4 1.9-.1 3.8-.3 5.8-.4 1.7-.1 3.5-.2 5.2-.3 1.2-.1 2.4-.1 3.5-.2 1.4-.1 2.9-.1 4.3-.2 1.3-.1 2.6-.1 4-.1 2.9-.1 5.7-.1 8.6-.2.8-.2 1.7-.2 2.6-.1 0-.1 0 0 0 0zM207.4 87.2c.3-.9.4-1.8.6-2.6.5-.1 1.7-.1 2.4 0 .1.2 0 .4 0 .6-.3 1.2-.5 2.3-.8 3.5-.9 3.8-1.7 7.7-2.6 11.5-.3 1.5-.7 2.9-1.4 4.2-.4.8-.9 1.6-1.4 2.3-1.3 1.5-2.8 2.4-4.8 2.7-1.9.3-3.7.2-5.5-.4-.3-.1-.6-.2-.9-.4.1-.9.4-1.8.5-2.6.2-.1.3.1.4.1 1.2.8 2.5 1.1 3.9 1.1 2.1 0 3.8-.9 5-2.7.7-1 1.1-2.2 1.4-3.4.1-.4.2-.8.2-1.3-.1.1-.2.1-.3.2l-.9.9c-1 .8-2.1 1.4-3.3 1.6-.8.1-1.6.2-2.3 0-1.1-.2-2-.8-2.6-1.8-.6-.8-.8-1.7-1-2.7-.3-2.3.1-4.5.8-6.6.6-1.8 1.6-3.4 2.8-4.9.9-1.1 2-1.8 3.4-2.2.9-.3 1.9-.4 2.9-.2 1.3.3 2.2 1 2.8 2.1.1.2.2.5.3.7.3.2.3.2.4.3zm-10.6 8.7c0 1 .1 1.6.3 2.3.6 1.5 1.7 2.2 3.3 2.1 1.2-.1 2.2-.6 3-1.4.7-.7 1.2-1.4 1.6-2.2 1.1-2.1 1.5-4.3 1.4-6.7 0-.6-.2-1.3-.5-1.8-.4-.8-1.1-1.4-2-1.5-.9-.2-1.8 0-2.6.3-.9.4-1.5 1-2.1 1.7-1.6 2.1-2.4 4.6-2.4 7.2zM269.3 138.3c-.8.1-1.8.1-2.3 0 .1-.8.5-1.6.6-2.6l-.4.4c-.4.5-.8.9-1.3 1.3-.8.7-1.8 1.2-2.8 1.4-.7.1-1.3.2-2 0-1-.2-1.8-.8-2.3-1.6-.5-.8-.7-1.7-.9-2.6-.2-1.8 0-3.5.4-5.3.6-2.8 1.8-5.3 3.6-7.5.6-.8 1.4-1.5 2.2-2 .9-.6 2-1 3.1-.9 1.3 0 2.3.6 3 1.6.3.4.5.8.6 1.3 0 .1.1.2.1.3.2 0 .2-.1.2-.2.4-1.4.7-2.8 1.1-4.2.5-1.7.9-3.4 1.4-5.2.1-.2.1-.4.2-.6h2.2c.1.2 0 .4-.1.6l-2.1 8.1c-1.5 5.6-2.9 11.3-4.4 16.9.1.3 0 .5-.1.8zm.7-12.9v-.7c-.1-.7-.2-1.5-.6-2.1-.4-.6-.9-1.1-1.7-1.2-.4-.1-.9 0-1.3 0-.8.1-1.5.5-2.1 1.1-.6.5-1 1.1-1.4 1.7-1.4 2.3-2.2 4.7-2.4 7.4-.1.7 0 1.4.1 2.1.1.5.3 1 .5 1.4.5.7 1.1 1.1 2 1.2 1 0 1.8-.3 2.6-.8.7-.5 1.2-1.2 1.7-1.9.9-1.3 1.5-2.7 1.9-4.1.4-1.3.6-2.7.7-4.1zM152.3 122c.3-.1.4-.3.5-.5.7-.8 1.5-1.5 2.5-2 .8-.4 1.6-.7 2.6-.7 1.4 0 2.5.6 3.3 1.9.5.8.7 1.7.8 2.6.2 1.9 0 3.7-.5 5.5-.7 2.7-1.9 5.1-3.6 7.3-.7.9-1.6 1.6-2.6 2.2-1 .5-2 .7-3.1.6-.7-.1-1.4-.4-1.9-.9s-.8-1.1-1.1-1.7c-.1-.2-.1-.4-.3-.5-.2.4-.3.9-.4 1.3-.1.4-.2.9-.3 1.3-.5.1-1.7.2-2.3 0v-.2c2.2-8.7 4.5-17.3 6.8-26 0-.1.1-.1.1-.3h2.2v.4c-.8 3-1.6 6-2.3 8.9-.2.2-.3.5-.4.8zm7.3 3.6v-.7c0-.7-.2-1.3-.5-2-.7-1.4-1.9-1.6-2.9-1.4-.9.2-1.7.6-2.4 1.2-.5.5-1 1.1-1.4 1.7-1.4 2.3-2.2 4.8-2.4 7.5-.1.8 0 1.6.2 2.4.1.4.3.8.6 1.2.4.6 1 .9 1.7.9.8.1 1.6-.1 2.3-.5.4-.2.8-.5 1.2-.9.5-.5.9-1 1.2-1.6.9-1.4 1.5-2.9 1.9-4.4.3-1.2.5-2.3.5-3.4z"/><path class="st0" d="M115.6 78.8c-.1.9-.5 2.6-.7 3-.2-.1-.3-.2-.5-.3-1.1-.6-2.2-1-3.3-1.3-1.4-.3-2.8-.2-4.2.3-.7.3-1.3.7-1.9 1.2-1 1-1.4 2.3-1.3 3.7 0 .8.4 1.4 1.1 1.7.7.4 1.5.6 2.2.9l2.1.6c.7.2 1.3.5 2 .9 1.5.8 2.2 2.1 2.3 3.8.1 1 0 2-.3 3-.7 2.6-2.3 4.3-4.7 5.5-1.3.6-2.6.8-4 .9-2.2.1-4.3-.3-6.3-1.1-.3-.1-.5-.2-.8-.4v-.4l.6-2.7c0-.1 0-.1.1-.2.2.1.4.2.5.3 1 .7 2.1 1.2 3.3 1.5 1.6.4 3.1.4 4.7-.1 1-.3 1.8-.8 2.5-1.6 1.1-1.3 1.5-2.7 1.2-4.4-.1-.6-.5-1.1-1-1.4-.5-.3-1.1-.6-1.7-.8-.8-.2-1.6-.5-2.4-.7-.6-.2-1.1-.4-1.7-.6-.4-.2-.8-.4-1.1-.6-1-.6-1.5-1.6-1.6-2.7-.2-1.8.1-3.5 1-5 1.3-2.2 3.2-3.6 5.7-4.1 1.3-.3 2.5-.3 3.8-.2 1.3.1 2.6.5 3.9 1 .1 0 .2.1.3.1.1.1.2.1.2.2zM279 122.9c0-.1-.1-.2 0-.2.2-.7.4-1.5.6-2.2 0-.2.1-.3.3-.4 1.3-.5 2.5-1 3.9-1.1.5-.1 1-.1 1.5-.1.7 0 1.3.1 1.9.3 1.2.4 2 1.3 2.3 2.5.3.9.3 1.9.2 2.9-.1 1.3-.5 2.6-.8 3.8-.8 3.1-1.6 6.3-2.5 9.4-.1.2-.1.4-.2.6-.8.1-1.5 0-2.3 0 .1-.9.5-1.8.6-2.7-.2.2-.3.2-.4.3-.3.3-.6.7-1 1-1 .9-2.1 1.5-3.4 1.8-.7.1-1.3.1-2 0-.9-.1-1.6-.6-2.1-1.3-.5-.7-.8-1.5-.9-2.3-.1-1.9.2-3.7 1.3-5.3 1.2-1.8 2.8-2.8 4.9-3.2.8-.2 1.6-.3 2.4-.3h3.5c.4-.8.6-2 .4-2.7-.2-.9-.7-1.5-1.5-1.9-.7-.3-1.5-.4-2.3-.3-1.4.1-2.7.5-4 1.1 0 0-.2.1-.4.3zm7.3 5.9h-2.1c-.9 0-1.7 0-2.6.2-.7.1-1.4.3-2 .7-.8.5-1.5 1.1-1.8 2-.3.8-.4 1.7-.3 2.6.1 1.1.9 1.8 1.9 2 .5.1.9.1 1.4 0 .8-.2 1.5-.6 2.2-1.1.7-.6 1.2-1.2 1.7-2 .8-1.3 1.3-2.6 1.6-4.1.1-.1 0-.1 0-.3zM237.9 129.6h-11.3c-.1.1-.1.2-.2.4-.3 1-.3 2-.3 3 0 .5.1.9.3 1.3.6 1.4 1.7 2 3.2 2.1 2 .1 3.9-.4 5.6-1.3l.6-.3c0 .4-.1.7-.2 1-.1.3-.2.6-.2 1-.1.3-.2.6-.3 1-1 .5-2 .8-3 1.1-1.2.3-2.3.3-3.5.3-2.8-.2-4.3-1.9-4.7-4.1-.2-1.1-.2-2.1-.1-3.2.2-1.6.5-3.2 1.1-4.7.7-1.9 1.7-3.5 2.9-5.1 1.1-1.3 2.4-2.2 4.1-2.7 1-.3 2-.4 3.1-.2s2 .7 2.7 1.7c.5.7.8 1.4 1 2.3.2 1.1.2 2.2.1 3.3-.1 1-.3 1.9-.5 2.9-.3-.2-.4-.1-.4.2zm-1.9-2.4c.1-.2.1-.3.1-.4.2-.8.2-1.6.1-2.3-.1-.6-.2-1.2-.6-1.7-.4-.6-.9-1-1.6-1.2-.7-.2-1.4-.2-2.1 0-.9.2-1.6.7-2.3 1.3-1.2 1.1-2 2.5-2.5 4.1v.2c.1 0 .2.1.3.1 3-.1 5.8-.1 8.6-.1zM209.2 138.3c-.6.1-1.8.1-2.3 0-.1-.2 0-.4.1-.6 1.1-4.3 2.2-8.6 3.3-12.8 1.1-4.1 2.1-8.2 3.2-12.2.1-.3.1-.5.2-.7.5-.1 1.7-.1 2.3 0v.3c-.7 2.9-1.5 5.7-2.2 8.6-.5 1.9-1 3.9-1.5 5.8 0 .2-.1.4-.1.6.2-.1.3-.1.4-.2.4-.3.8-.6 1.1-1 2.5-2.1 4.9-4.3 7.4-6.4.1-.1.2-.2.3-.2.1-.1.2-.2.4-.2h2.6c.1.2-.1.2-.1.3-.1.1-.2.1-.2.2-2.3 2-4.6 4.1-6.9 6.1l-2.4 2.1c-.2.1-.3.3-.5.4.3.6.6 1.1 1 1.7.3.5.6 1.1.9 1.6.3.6.6 1.1 1 1.7.3.5.6 1.1.9 1.6.3.6.6 1.1 1 1.7.3.5.6 1.1.9 1.6-.5.1-2 .1-2.8.1-.1-.2-.2-.3-.3-.5-1.5-2.7-3-5.3-4.6-8-.1-.2-.2-.5-.4-.7-.2.1-.2.3-.2.4-.5 2.1-1.1 4.1-1.6 6.2-.5.8-.7 1.7-.9 2.5zM310.8 138.3c-.6.1-1.8.1-2.3 0v-.2c2.2-8.7 4.5-17.3 6.7-26 0-.1.1-.2.1-.3.7-.1 1.5 0 2.2 0v.4c-.7 2.9-1.5 5.7-2.2 8.6-.5 1.9-1 3.9-1.5 5.8 0 .2-.1.4-.1.5.3 0 .4-.1.5-.3 1-.9 2-1.7 3-2.6 1.8-1.5 3.6-3.1 5.3-4.6.3-.3.6-.4 1.1-.4H325.8v.2c-3.3 2.9-6.7 5.9-10 8.8v.1c0 .2.1.4.2.5 1.5 2.7 3.1 5.4 4.7 8.1.2.3.4.6.6 1 .1.1.1.2.1.3-.5.1-2.1.1-2.8 0-.1-.2-.2-.4-.4-.6-1.5-2.7-3-5.3-4.6-8-.1-.2-.2-.4-.4-.6-.2.1-.2.3-.2.5-.7 2.7-1.4 5.4-2.1 8 .1.4 0 .6-.1.8zM169.6 102.6c-.7.1-2 .1-2.4 0 .1-.8.4-1.7.5-2.6-.2.1-.3.2-.3.3-.3.3-.6.7-1 1-1 .9-2.2 1.6-3.5 1.8-.8.1-1.6.2-2.4 0-1.1-.3-1.9-1-2.4-2-.3-.7-.4-1.5-.4-2.3 0-1 .1-1.9.4-2.9.8-3.5 1.6-7.1 2.3-10.6 0-.2.1-.4.2-.6.6-.1 2-.1 2.5 0 0 .2-.1.5-.1.7-.8 3.4-1.5 6.8-2.3 10.2-.1.7-.2 1.3-.3 2v1c.1 1.1.9 1.8 1.9 2 1.2.2 2.3 0 3.4-.7.9-.5 1.5-1.3 2.1-2.1.6-1 1-2 1.2-3.1.7-3 1.3-6 2-8.9.1-.4.2-.8.3-1.1.5-.1 1.6-.1 2.4 0 .1.2 0 .4 0 .6-.2 1-.4 2-.7 3-.8 3.5-1.5 6.9-2.3 10.4-.3 1.2-.5 2.3-.8 3.5-.1 0-.2.2-.3.4zM122.7 119.3h2.2c.1.3 0 .5-.1.7-.4 1.4-.7 2.8-1.1 4.3-1.1 4.4-2.3 8.8-3.4 13.3-.1.3-.2.6-.2.9h-2.3v-.4c.2-.6.3-1.2.5-1.8 0-.2.1-.4.1-.5-.2 0-.3.2-.4.3-.5.6-1 1.1-1.5 1.5-.9.7-1.8 1.2-2.9 1.4-.7.1-1.4.2-2.2 0-.9-.2-1.6-.8-2-1.7-.3-.6-.4-1.3-.5-2 0-.8 0-1.5.2-2.3.3-1.3.6-2.7 1-4 .8-3 1.5-6 2.3-8.9.1-.2.1-.4.2-.6.5-.1 1.8-.1 2.3 0 0 .2-.1.4-.1.6-1 3.8-2 7.6-3 11.3-.2.7-.3 1.4-.4 2.1 0 .5 0 1 .2 1.4.3.8.8 1.3 1.6 1.4 1 .2 1.8 0 2.7-.5.7-.4 1.3-.9 1.8-1.4 1-1.1 1.6-2.5 2-3.9.4-1.6.8-3.1 1.2-4.7.5-1.9 1-3.8 1.5-5.8.1-.3.2-.5.3-.7zM186.4 138.4c-.7.1-1.4 0-2.2 0 0-.2 0-.3.1-.4.2-.6.3-1.2.5-1.7.1-.2.1-.4.2-.7-.2.2-.3.2-.4.3-.4.4-.7.8-1.1 1.2-1 .9-2.1 1.5-3.4 1.8-.7.1-1.3.2-2 0-1-.2-1.8-.8-2.3-1.7-.3-.7-.4-1.4-.5-2.1 0-.9.1-1.8.3-2.6l1.2-4.8c.6-2.5 1.3-5 2-7.5.1-.2.1-.4.2-.6.5-.1 1.7-.1 2.3 0 0 .2-.1.4-.1.7l-3 11.4c-.2.7-.3 1.4-.4 2.1 0 .4 0 .8.1 1.2.3.8.8 1.3 1.6 1.4.8.2 1.6 0 2.4-.3.9-.4 1.5-1 2.1-1.7.8-1 1.4-2.1 1.8-3.4.4-1.2.7-2.4 1-3.6.6-2.4 1.3-4.8 1.9-7.3.1-.2.1-.4.2-.6.5-.1 1.7-.1 2.3 0v.3c-.6 2.5-1.3 5-2 7.6-.9 3.4-1.8 6.9-2.7 10.3.2.1.1.4-.1.7zM177.6 102.6c-.8 0-1.6.1-2.3 0-.1-.2-.1-.4 0-.6.3-1.5.7-3 1-4.5.8-3.7 1.6-7.3 2.4-11 .1-.6.2-1.1.4-1.7 0-.1.1-.2.1-.3h2.4v.3c-.1.5-.3 1.1-.4 1.6 0 .2-.1.4-.1.7.2 0 .3-.2.4-.3.5-.6 1.1-1.1 1.8-1.6 1.1-.7 2.3-1.2 3.7-1.2.6 0 1.2.1 1.8.3.8.3 1.4.8 1.8 1.6.3.6.5 1.1.5 1.8.1 1.1 0 2.1-.2 3.1-.4 2.1-.9 4.2-1.4 6.2-.4 1.6-.7 3.2-1.1 4.8 0 .2-.1.4-.2.6-.1 0-.3.1-.4.1-1 .1-1.6 0-2.1-.1 0-.2.1-.4.1-.7.8-3.4 1.5-6.8 2.3-10.2.1-.6.2-1.3.3-2 .1-.4 0-.8 0-1.2-.2-1-.8-1.6-1.7-1.8-1.2-.3-2.3-.1-3.4.5-1 .5-1.7 1.3-2.3 2.3-.6 1-1 2-1.2 3.1-.7 3.1-1.4 6.3-2.1 9.4 0 .4 0 .6-.1.8zM241.9 138.3c-.7.1-1.8.1-2.3 0v-.1c1.6-6.2 3.2-12.4 4.8-18.7 0-.1.1-.1.1-.2.5-.1 1.8-.1 2.3 0 0 .5-.2.9-.3 1.4-.1.4-.3.8-.3 1.3.3-.1.4-.3.5-.4.7-.8 1.4-1.4 2.3-1.9 1-.6 2-.9 3.2-.9.4 0 .8.1 1.2.2.8.2 1.4.7 1.8 1.4.3.5.5 1.1.5 1.6.1 1.1 0 2.2-.2 3.3-.3 1.5-.7 3-1.1 4.5-.7 2.7-1.4 5.3-2.1 8-.1.2-.1.4-.2.6-.5.1-1.8.1-2.3 0 0-.2.1-.4.1-.7.9-3.6 1.9-7.2 2.8-10.9.1-.5.2-1.1.4-1.6.1-.5.1-1.1.1-1.6-.1-1.2-1-2-2.2-2.1-1.1 0-2.1.3-3 1-.7.5-1.3 1.2-1.8 2-.6 1-1.1 2.1-1.4 3.2-.9 3.3-1.7 6.6-2.6 10-.2.1-.2.4-.3.6zM303.5 138.3c-.8.1-1.8.1-2.3 0-.1-.2 0-.4.1-.6.7-2.8 1.5-5.6 2.2-8.4.3-1.3.7-2.6 1-4 .2-.7.2-1.3.1-2-.2-1.1-1-1.8-2.1-1.8-1.1-.1-2 .2-2.9.8-.8.5-1.4 1.2-1.9 2-.7 1.1-1.2 2.3-1.5 3.5-.9 3.3-1.7 6.6-2.6 10-.1.2-.1.4-.2.6-.5.1-1.6.1-2.3 0-.1-.2 0-.4.1-.6.8-3 1.5-6 2.3-8.9.8-3 1.5-5.9 2.3-8.9.1-.2.1-.4.2-.6.6-.1 1.8-.1 2.3 0 0 .1 0 .3-.1.4-.2.6-.3 1.2-.5 1.9 0 .1 0 .3-.1.5.2-.2.4-.3.5-.5.6-.7 1.4-1.4 2.2-1.9 1-.6 2.1-.9 3.2-.9.4 0 .8.1 1.2.2 1 .3 1.6.9 2 1.8.2.6.3 1.2.4 1.8 0 1-.1 1.9-.3 2.9-.4 1.7-.9 3.4-1.3 5.2-.6 2.4-1.2 4.8-1.9 7.1 0 .1 0 .3-.1.4zM99 112.9c.5-.1 1.8-.1 2.4 0 .1.1.1.3 0 .5l-.9 3.3c-1.6 6.1-3.2 12.2-4.7 18.3 0 .2-.1.4-.1.6.1 0 .2.1.3.1h8.5c.2 0 .5 0 .7.1 0 .4-.4 2-.7 2.6H92.3c-.1-.2 0-.5.1-.7.6-2.2 1.1-4.4 1.7-6.6 1.5-5.9 3-11.7 4.6-17.6.2-.2.3-.4.3-.6zM149.3 77.5c-.1.8-.3 1.5-.5 2.2-.1 0-.3.1-.4.1h-1.6c-.4 0-.8 0-1.2.1-.8.1-1.4.5-1.8 1.2-.1.3-.3.6-.4.9-.2.8-.4 1.6-.6 2.3v.1c.1.2.3.1.5.1h3c.2 0 .4 0 .6.1 0 .5-.2 1.4-.4 2.1-.2.1-.4.1-.6.1H142.3c-.1.2-.1.4-.2.6-.7 3-1.3 5.9-2 8.9-.4 1.9-.8 3.8-1.3 5.8 0 .2-.1.4-.2.6-.3.1-.5.1-.8.1h-.8c-.3 0-.5 0-.8-.1v-.4l1.5-6.6c.6-2.8 1.2-5.6 1.9-8.4 0-.1 0-.3.1-.5-.2 0-.3-.1-.4-.1h-1.9c-.1-.4.1-.8.1-1.1.1-.3.2-.7.2-1h2.4c.1-.2.1-.3.2-.5l.6-2.4c.2-.5.4-1.1.7-1.6.7-1.4 1.8-2.2 3.3-2.4.5-.1.9-.1 1.4-.2h2.5c.2-.1.3 0 .5 0zM131.1 119.3c.1-.4.2-.7.3-1.1.2-.9.5-1.8.9-2.7.2-.5.5-1 .8-1.5.7-1.1 1.8-1.8 3.1-2 .4-.1.9-.1 1.3-.1H140.2c0 .5-.3 1.7-.6 2.4h-1.9c-.4 0-.8 0-1.2.1-.7.1-1.2.4-1.6 1-.2.4-.5.8-.6 1.2-.3.7-.4 1.5-.7 2.3v.3c.2.2.4.1.5.1H137.4c0 .4-.3 1.8-.6 2.3h-3.3c-.2 0-.5 0-.7.1 0 .2-.1.3-.2.5-1.3 5.1-2.7 10.2-4 15.4-.1.2-.1.5-.3.7h-2.2c-.1-.3 0-.4.1-.6.6-2.3 1.2-4.5 1.8-6.8.7-2.9 1.5-5.7 2.2-8.6.1-.2.1-.4.1-.6-.1 0-.3-.1-.4-.1H128c.1-.8.3-1.5.6-2.3h2.5zM207.3 120.1c-.2.9-.5 1.9-.7 2.8-.2.1-.3-.1-.4-.2-.6-.5-1.2-.9-1.9-1.1-1.7-.5-3.3-.1-4.7.9-.4.3-.7.6-1 .9-1.5 1.7-2.4 3.7-2.9 5.9-.3 1.1-.4 2.2-.4 3.3 0 .4.1.8.2 1.2.3 1.5 1.4 2.4 3 2.5 1.1.1 2.2-.1 3.2-.6.5-.2.9-.4 1.4-.6.1-.1.3-.1.4-.2v.3c-.2.7-.4 1.5-.6 2.2-.1.2-.2.4-.4.4-1.1.5-2.3.9-3.6.9-.7 0-1.4 0-2.2-.1-2-.4-3.2-1.6-3.7-3.6-.2-.9-.3-1.9-.2-2.9.1-1.6.4-3.2.9-4.7.7-2.2 1.9-4.2 3.5-6 1.3-1.4 2.8-2.3 4.6-2.7 2-.4 3.8-.1 5.5.9-.1.3-.1.4 0 .5zM122.8 100.8c-.2.8-.3 1.6-.5 2.3H119.1c-.4 0-.7-.1-1.1-.2-1.3-.4-2.3-1.2-2.5-3-.1-1 .1-1.9.3-2.8.7-3 1.4-6 2-9.1 0-.2.1-.4.1-.7-.4-.1-.7-.1-1.1-.1-.3 0-.7 0-1-.1.1-.7.3-1.4.5-2.1.7-.2 1.4 0 2.1-.1.2-.2.2-.4.2-.6.3-1.3.6-2.7.9-4 0-.2.1-.3.1-.5.7-.1 1.9-.1 2.4 0 .1.2 0 .4 0 .5l-.9 3.9c0 .2-.1.4 0 .5.2.1.4.1.7.1h3.7c.2 0 .5 0 .7.1-.1.7-.3 1.4-.5 2.1h-5c-.3.2-.3.5-.3.7l-.9 3.9-1.2 5.4c-.1.4-.2.9-.2 1.3v.6c0 .7.4 1.4 1.4 1.6.4.1.8.1 1.2.1h1.5c.1.2.3.2.6.2zM149.3 86.8c-.7-.2-1.4 0-2.1-.1.1-.7.3-1.4.5-2.1.7-.1 1.4 0 2-.1.2-.1.2-.3.2-.5.3-1.3.6-2.5.9-3.8.1-.3.1-.6.2-.8.5-.1 1.9-.1 2.5 0-.3 1.7-.8 3.3-1.1 5 .2.2.4.1.6.1H157.4c0 .4-.2 1.5-.4 2.1-.2.1-.4.1-.7.1h-4.4c-.1.2-.1.3-.2.5-.7 3.3-1.5 6.6-2.2 9.9-.1.3-.1.6-.1.9v.7c.1.8.6 1.3 1.3 1.4.4.1.7.1 1.1.1h2.2v.3c-.1.6-.2 1.1-.4 1.7-.1.2-.1.3-.4.3-1.1 0-2.2.1-3.3-.1-.3 0-.7-.1-1-.3-1.2-.4-1.8-1.3-2-2.5-.2-1 0-2 .2-3 .7-3.1 1.4-6.3 2.1-9.4 0 0 .1-.1.1-.4zM139.6 121.7c-.6-.2-1.3 0-1.9-.2v-.1-.2c.2-.6.3-1.2.5-1.8.7-.1 1.3 0 2-.1.2-.2.2-.4.2-.6.4-1.4.7-2.8 1.1-4.2.1-.2.1-.4.2-.6.5-.1 1.5-.1 2.3 0 .1.2 0 .4 0 .5-.3 1.3-.7 2.6-1 4-.1.3-.2.5-.1.9.5.1 1 0 1.5.1h3.2c0 .4-.1.8-.2 1.2-.1.4-.2.8-.3 1.1h-4.2c-.6 0-.7 0-.8.6-.9 3.5-1.8 6.9-2.7 10.4-.1.6-.2 1.1-.2 1.7 0 .7.3 1.3 1.4 1.5.3 0 .7 0 1.1.1h1.4c.2 0 .4 0 .5.1 0 .5-.4 1.9-.6 2.4h-3c-.3 0-.7-.1-1-.2-1.3-.4-2.1-1.3-2.2-2.7-.1-1.1.1-2.1.3-3.1.7-2.5 1.3-5 2-7.6.2-.8.4-1.6.6-2.5-.2-.2-.2-.4-.1-.7zM168.1 119.3c.8-.1 1.8-.1 2.3 0 0 .5-.2.9-.3 1.3-.1.4-.3.9-.3 1.4.2-.2.3-.2.4-.3.3-.4.6-.8 1-1.1.8-.8 1.7-1.3 2.8-1.6.8-.2 1.6-.3 2.5-.1.1 0 .2.1.3.1 0 .6-.5 2.4-.8 2.9-.1 0-.2-.1-.3-.1-1.1-.5-2.2-.4-3.3.1-.6.3-1.1.7-1.6 1.2-1 1-1.6 2.2-2.1 3.5-.4.9-.6 1.9-.9 2.9l-2.1 8.1c-.1.2-.1.4-.2.6-.5.1-1.6.1-2.3 0-.1-.2 0-.4.1-.6.3-1 .5-2 .8-3.1 1.3-4.9 2.6-9.8 3.8-14.7 0 0 .1-.2.2-.5zM131.3 84.6c.8-.1 1.9-.1 2.4 0 .1.2 0 .4 0 .5-.4 2-.9 4-1.3 5.9-.8 3.7-1.6 7.3-2.5 11 0 .2-.1.4-.1.5-.5.1-1.8.1-2.4 0-.1-.2 0-.3 0-.5.4-1.9.8-3.7 1.3-5.6l2.4-10.8c0-.3.1-.6.2-1zM132.1 81.1c0-.5.5-2.9.8-3.5.5-.1 1.8-.1 2.4 0 0 .4-.5 2.8-.7 3.5-.5.1-1.9.1-2.5 0zM183.3 111.9c.7-.1 2.1-.1 2.5 0-.3 1.1-.5 2.2-.9 3.2-.6.1-1.9.1-2.5 0 0-.1-.1-.2 0-.3.3-.8.6-1.8.9-2.9-.1.1 0 .1 0 0zM187.7 115.3c0-.1-.1-.2-.1-.2 0-.2.1-.4.1-.7l.6-2.4c.5-.1 2.1-.1 2.5 0 0 .6-.6 2.8-.9 3.3h-2.2z"/></svg>