<svg id="Ebene_1" xmlns="http://www.w3.org/2000/svg" viewBox="0 0 340.1 176.4"><style>.st0{fill:#fff}</style><path class="st0" d="M199.5 49c6.6 1.5 13.1 3.3 19.5 5.5l.2-.3.3-17.5-.4-.8c-.9.6-1.9 1.1-2.9 1.7-1.3.8-2.1 1.9-3.4 2.7-4.8 2.8-9.2 5.7-13.3 8.7M180.4 35.2c-4.4 2.4-8.9 4.8-13.5 7 7.8 1.2 15.5 2.5 23.2 4.1-1-1.2-2-2.4-3-3.7-2.2-2.7-4.4-5.1-6.7-7.4M164.3 41.7c4.5-2.2 9-4.5 13.5-6.9-1.8-1.8-3.6-3.6-5.4-5.3-3.9 3.9-7.9 7.7-11.9 11.7 1.3.1 2.5.3 3.8.5M120.2 34.3c12 1.8 24.2 3.4 36.3 5.2 3.9-3.9 7.9-7.7 11.9-11.7-3.2-3.1-6.5-6.1-9.7-9.1-2.5-.1-5-.2-7.4-.2-7.5-.4-15.4-1-23-1.5l-8 16.6-.1.7zM189.7 41.8c1 1.2 2 2.4 3 3.7 2.4.5 4.8 1 7.2 1.6 4.2-3 8.6-6 13.3-8.7 1.3-.8 2.1-1.9 3.4-2.7 1-.6 2-1.1 2.9-1.7l-7.2-15.4-3.6.6c-8.5 5.4-17 10.5-25.7 15.3 2.3 2.2 4.6 4.7 6.7 7.3M162.3 19.6c3.2 3.1 6.4 6.1 9.7 9.2 2.8-2.8 5.6-5.7 8.2-8.7-6-.1-12-.3-17.9-.5M204.4 19c-7.6 1.1-15.3 1.4-22.9 1.3-2.6 3-5.4 5.9-8.2 8.7 1.8 1.7 3.6 3.5 5.4 5.3 8.6-4.7 17.2-9.9 25.7-15.3M189.6.3l-.4-.3h-38.8l-.5.4c3.9 5.8 8.6 10.8 13.7 15.7 6 .2 11.9.4 17.9.4 2.4-2.8 4.7-5.7 6.8-8.7 1.2-2.4 1.3-5 1.3-7.5M210.5 14.2L193.2 1c0 2.6-.9 5-2.1 7.2-2.1 3.1-3.6 6.1-6 8.9 7.6 0 15.3-.3 22.9-1.3.8-.5 1.6-1.1 2.5-1.6M160.9 16.7c-5-4.8-9.8-9.9-13.7-15.7l-16.6 13.6-.2.4c7.6.4 15.5 1.1 23 1.5 2.6.1 5.1.2 7.5.2M196.6 53.8c4.4 5.8 8.1 11.8 10.5 18.4.2 0 .4.1.6.1l12.1-15.9c-6.4-2.1-12.9-3.9-19.5-5.5-1.2 1.1-2.4 2-3.7 2.9M205 71c-2.4-6.6-6.2-12.6-10.5-18.4-5.2 4-10.1 8.1-14.9 12.4 8.2 2.2 16.7 4.3 25.4 6M194 51.4c1.2-.9 2.5-1.9 3.8-2.8-2.4-.6-4.8-1.1-7.2-1.6 1.1 1.5 2.3 2.9 3.4 4.4M176.9 63.8c4.8-4.2 9.7-8.4 14.9-12.4-1.1-1.5-2.3-2.9-3.5-4.4-7.6-1.6-15.4-2.9-23.2-4.1l-7.8 3.6c-3.1 3.3-6.2 6.8-9 10.5 9.6 1.8 19 4.3 28.6 6.8M125.2 54.3c7 .4 13.8 1.3 20.6 2.6 2.8-3.7 5.9-7.2 9-10.5-.3.1-.5.2-.8.4-9 3.9-18.7 6.4-28.8 7.5M163.9 42.5c-1.2-.2-2.5-.4-3.7-.6-1.4 1.4-2.7 2.7-4 4.1 2.5-1.1 5.1-2.3 7.7-3.5"/><path class="st0" d="M120.8 53l.3.4c.8 0 1.6.1 2.4.1 10-1.1 19.8-3.6 28.8-7.5.3-.1.5-.2.8-.4 1.3-1.4 2.7-2.8 4-4.1-12.1-1.8-24.3-3.4-36.3-5.2V53zM157 86.5h28.1c-6-3.6-12.4-6.2-19.2-8-3 2.7-5.9 5.4-8.9 8"/><path class="st0" d="M165.9 77.7c7.2 1.9 14.1 4.6 20.5 8.4h3.1l16.8-13 .2-.3c-.1-.2-.1-.4-.2-.6-9.3-1.8-18.3-4.1-27.1-6.4-4.5 3.9-8.8 7.9-13.3 11.9M202.9 69.9c-.2 0-.4-.1-.6-.1.1.2.1.4.2.6l.4-.5zM151.6 85.7h2.3c3-2.7 6-5.3 8.9-8-9-2.4-18.5-3.4-28-4.1l16.8 12.1zM138.9 67.7c-1.3 1.4-2.6 2.7-4.1 3.7l.2.2c9.5.7 19 1.7 28 4.1 4.1-3.8 9.8-6.6 14-10.3-9.6-2.5-20.6-5.9-30.1-7.8-.6.7-1.1 1.5-1.6 2.2-2.1 2.8-4.2 5.1-6.4 7.9M122.1 55.3l10.5 16.1c1.5-1.1 2.8-2.4 4.1-3.7 2.1-2.7 4.3-5 6.4-7.7.5-.8 1.1-1.5 1.6-2.2-6.8-1.3-13.6-2.3-20.6-2.6-.5-.1-1.2 0-2 .1M125.6 54.5c.7-.1 1.4-.1 2.2-.2-.8 0-1.6-.1-2.4-.1l.2.3zM324.5 158.1c6.9 0 12.6-4.7 15.6-7.4v-3.2h-6l4.4-29.2c.9-6.4-1.6-8.7-6.7-8.7-5.3 0-11.8 4.4-16.7 9.5l.1-.8c.7-6.4-1.6-8.7-6.7-8.7-5.6 0-12 4.8-16.9 10.2l1-10.9-13.6 3-4.6 45.3h14.7v-13.8l2.1-19.2c2.1-.9 4.5-1.7 8.2-1.7.5 0 1.4.1 2 .2l-3.9 34.5h14.6v-13.8l2.3-19.3c2-.8 4.7-1.5 8.1-1.5.5 0 1.4.1 2 .2l-4 26.9c-.3 2.4-.3 2.6-.3 4.1 0 2.7 2 4.3 4.3 4.3m-70-.1c5.5 0 12-4.4 14.8-7.4v-3.1h-5.7l5.6-50.5c.4-3.8-1.3-5-4.2-5-3.6 0-12.1.9-15.1 1.7v5.8h5.7l-5.7 49.1c-.2 1.6-.4 3-.4 4.5-.1 3.4 1.4 4.9 5 4.9m-24.8.2c6.3 0 11.6-4.6 14.9-7.5v-3.2h-6.2l2.9-38.6-13.6 2.9-2.7 37c-.1 1.5-.3 2.8-.3 4.4 0 3.6 1.2 5 5 5m-35.3 17.7h15v-12.8l4.9-44.8h7.3l.7-7.9h-7.2l.3-3.8c.4-4.6 2.6-5.8 5-5.8 1.7 0 9.6 2.3 14.5 6.2 2.7-2.9 4.2-7.7 4.7-11.6-4.2-2.7-11.6-3.9-16-3.9-11.2 0-20.7 7-21.9 17.4l-.2 1.5h-6.3l-.7 7.9h6.2l-6.3 57.6zm-30.8-30.6c-.7 0-1.4-.1-2-.3 0-8.3 2.2-26.4 8.6-26.4 1.8 0 2.9.3 4.2.8l-2.7 24.4c-3.6 1.2-6.1 1.5-8.1 1.5m-7.8 12.9c6.7 0 10.8-4.8 15.3-9.8-.2 2.3-.6 4-.6 5.6 0 2.7 1.8 4.1 5.2 4.1 5.7 0 11.5-4.4 14.8-7.4v-3.2h-5.9l3.7-34.7c-3.3-1.7-7.2-3.2-13.8-3.2-19.1 0-26.9 23.3-26.9 38.6 0 6.3 2.7 10 8.2 10m-19.7-55.7c1.8 0 8.3-6.3 8.3-7.8 0-1.4-5.3-7.7-6.7-7.7-1.6 0-8.3 6.2-8.3 7.7-.1 1.2 5.2 7.8 6.7 7.8m-19 73.9c10.1 0 20.6-15 21.5-25.4l3.7-41.9-13.6 3-4 45.4c-.5 5.9-1.6 6.6-6.5 6.6-1.6 0-4.1-.3-7.6-1.2-1.3 3.6-2.3 7.7-2.8 11.8 3.2 1 6.2 1.7 9.3 1.7M103 158.1c7 0 12.6-4.7 15.6-7.4v-3.2h-6.1l3.8-29.2c.8-6.4-1.6-8.7-6.7-8.7-5.6 0-12 4.8-16.9 10.2l1-10.9-13.6 3-4.2 45.3h14.4v-13.8l2.1-19.2c2.1-.9 4.5-1.7 8.2-1.7.5 0 1.4.1 2 .2l-3.5 26.8c-.3 2.4-.3 2.6-.3 4.1 0 2.9 2 4.5 4.2 4.5m-54.6 0c15.1 0 23-19.2 23-32.3 0-11.4-8.8-16.2-18.7-16.2-14.5 0-21.6 20.9-21.6 33.1 0 10.8 7.6 15.4 17.3 15.4m2.7-9.7c-2 0-4.6-.2-6.4-1-.2-2.3-.2-4.6-.2-6.9 0-4.7.2-22.2 7.2-22.2 2 0 4.3.3 6.2 1.5.2 1.8.3 3.8.3 5.6-.1 4.2-.9 23-7.1 23M0 157.1h14.8v-13.8l1.9-18.8c3.3-1.9 6.5-2.3 10.2-2.3.7 0 3.1.4 3.7.5l1.7-12.9c-.7-.1-1.7-.2-2.3-.2-5.4 0-10.2 5.3-12.7 9.6l1-10.2-13.6 2.8L0 157.1z"/></svg>