<?xml version="1.0" encoding="utf-8"?>
<!-- Generator: Adobe Illustrator 21.1.0, SVG Export Plug-In . SVG Version: 6.00 Build 0)  -->
<!DOCTYPE svg PUBLIC "-//W3C//DTD SVG 1.1//EN" "http://www.w3.org/Graphics/SVG/1.1/DTD/svg11.dtd">
<svg version="1.1" id="Calque_1" xmlns="http://www.w3.org/2000/svg" xmlns:xlink="http://www.w3.org/1999/xlink" x="0px" y="0px"
	 viewBox="0 0 73 76" style="enable-background:new 0 0 73 76;" xml:space="preserve">
<style type="text/css">
	.st0{fill:#FFFFFF;}
</style>
<path class="st0" d="M73,64.4C73,70.8,67.8,76,61.5,76C55.1,76,50,70.8,50,64.5c0-1.4,0.2-2.7,0.7-4l-27.8-16c-2.4,2.9-6,4.8-10,4.8
	C5.8,49.3,0,43.5,0,36.4s5.8-12.9,12.9-12.9c4,0,7.5,1.8,9.9,4.6l28-16.2c-0.2-0.8-0.3-1.6-0.3-2.5c0-5.2,4.2-9.4,9.4-9.4
	s9.4,4.2,9.4,9.4s-4.2,9.4-9.4,9.4c-2.8,0-5.3-1.2-7-3.2l-28,16.2c0.5,1.4,0.8,2.9,0.8,4.5c0,1.5-0.3,3-0.7,4.3l27.9,16.1
	c2.1-2.4,5.2-3.9,8.6-3.9C67.8,52.9,73,58.1,73,64.4z"/>
</svg>
