<?xml version="1.0" encoding="utf-8"?>
<!-- Generator: Adobe Illustrator 21.1.0, SVG Export Plug-In . SVG Version: 6.00 Build 0)  -->
<!DOCTYPE svg PUBLIC "-//W3C//DTD SVG 1.1//EN" "http://www.w3.org/Graphics/SVG/1.1/DTD/svg11.dtd">
<svg version="1.1" id="Calque_1" xmlns="http://www.w3.org/2000/svg" xmlns:xlink="http://www.w3.org/1999/xlink" x="0px" y="0px"
	 viewBox="0 0 63.7 59.9" style="enable-background:new 0 0 63.7 59.9;" xml:space="preserve">
<style type="text/css">
	.st0{fill:#FFFFFF;}
</style>
<g>
	<path class="st0" d="M30.9,0c-0.2-0.1-0.4,0-0.5,0.2L12.2,19H0.9C0.6,19,0,19.1,0,19.4v21.2C0,40.9,0.6,41,0.9,41h10.9l18.7,18.7
		c0.1,0.1,0.3,0.2,0.4,0.2c0.1,0-0.1,0,0,0c0.2-0.1,0.1-0.3,0.1-0.5V0.6C31,0.3,31.1,0.1,30.9,0z"/>
	<polygon class="st0" points="63.7,21.1 60.4,17.7 51.8,26.4 43.3,17.8 39.9,21.2 48.5,29.7 39.8,38.3 43.2,41.6 51.8,33 60.3,41.5 
		63.6,38.2 55.1,29.7 	"/>
</g>
</svg>
