<?xml version="1.0" encoding="utf-8"?>
<!-- Generator: Adobe Illustrator 21.1.0, SVG Export Plug-In . SVG Version: 6.00 Build 0)  -->
<!DOCTYPE svg PUBLIC "-//W3C//DTD SVG 1.1//EN" "http://www.w3.org/Graphics/SVG/1.1/DTD/svg11.dtd">
<svg version="1.1" id="Calque_1" xmlns="http://www.w3.org/2000/svg" xmlns:xlink="http://www.w3.org/1999/xlink" x="0px" y="0px"
	 viewBox="0 0 826.2 293.1" style="enable-background:new 0 0 826.2 293.1;" xml:space="preserve">
<style type="text/css">
	.st0{fill:#FFFFFF;}
</style>
<g>
	<path class="st0" d="M509.1,40.4L509.1,40.4l-16.8,0v25.4l16.8,0v0c7,0,12.7-5.7,12.7-12.7C521.8,46.1,516.1,40.4,509.1,40.4z"/>
	<path class="st0" d="M624.7,40.4L624.7,40.4l-16.9,0v25.4l16.9,0v0c7,0,12.7-5.7,12.7-12.7C637.4,46.1,631.7,40.4,624.7,40.4z"/>
	<path class="st0" d="M312.8,40.2h-7.4v65.9h5.8c8.9,0,15.5-2.7,19.9-8.2c4.4-5.5,6.5-13.5,6.5-24C337.7,51.5,329.4,40.2,312.8,40.2
		z"/>
	<path class="st0" d="M679.7,146.6l0-146.6H0v146.5l146.5,146.6h679.7L679.7,146.6z M84.8,40.2h-42v25.5h33.5v15H42.8v40.1H25.6
		V25.7h59.2V40.2z M119.1,120.9H102V25.7h17.1V120.9z M195.4,40.4h-42.6v25.4h34.1v15h-34.1v25.4h42.6v14.7h-59.2V25.7h59.2V40.4z
		 M271.6,120.9h-59.2V25.7H230l0,80.5h41.7V120.9z M344.4,108.7c-7,8.1-17.9,12.2-32.8,12.2h-22.8V25.7h24.6
		c8.1,0,14.6,1.1,19.4,3.2s8.9,5.5,12.3,10c6.5,8.9,9.8,20.5,9.8,35C354.9,89,351.4,100.6,344.4,108.7z M459.2,40.7h-25.6v80.3
		h-17.5V40.7h-25.7v-15h68.8V40.7z M524.8,120.9l-21.7-40.2l-10.7,0v40.2h-17.5V25.7h39.9c13.7,1.7,24.3,13.5,24.3,27.6
		c0,12.2-7.9,22.7-18.9,26.4l22.3,41.3H524.8z M573.3,120.9h-17.1V25.7h17.1V120.9z M630.5,80.8l-22.7,0v40.1h-17.5V25.7l40,0
		c13.7,1.7,24.3,13.5,24.3,27.6C654.6,67.2,644.1,79.1,630.5,80.8z"/>
</g>
</svg>
