<?xml version="1.0" encoding="utf-8"?>
<!-- Generator: Adobe Illustrator 21.1.0, SVG Export Plug-In . SVG Version: 6.00 Build 0)  -->
<!DOCTYPE svg PUBLIC "-//W3C//DTD SVG 1.1//EN" "http://www.w3.org/Graphics/SVG/1.1/DTD/svg11.dtd">
<svg version="1.1" id="Calque_1" xmlns="http://www.w3.org/2000/svg" xmlns:xlink="http://www.w3.org/1999/xlink" x="0px" y="0px"
	 viewBox="0 0 1200 946" style="enable-background:new 0 0 1200 946;" xml:space="preserve">
<style type="text/css">
	.st0{fill:none;}
	.st1{opacity:0.2;}
	.st2{fill:#FFFFFF;}
</style>
<g>
	<rect class="st0" width="1200" height="946"/>
	<g>
		<g class="st1">
			<polygon class="st2" points="577.3,652.3 577.3,652.3 573.6,652.2 571.5,692.1 378,757.6 381.1,767.1 570.9,702.9 569.4,730.3 
				572.7,730.4 565,861.2 567.6,861.3 575.3,730.6 579.4,730.8 583.6,652.7 578.6,652.4 			"/>
			<path class="st2" d="M1040.4,613.4l-10.6-8.1l-34.4-215.6l-10.2-7.2l-8.9-51.4l-11.5-5.1l-33.5,5.9l-6.4-35.2L849.8,270
				l-61.1,30.1l-0.1,0.1c-42-48.9-121.6-113-141.2-127.8c1.5-6.6,9.3-36.1,14.5-56l0.8-2.9L517.5,64.9l-16.9,31l20.3,9.6l-2.3,4.8
				l56.6,29c0.8,0.4,23.7,12.5,42.4,22.8l-7.6,16.9l-8.9-5.8l-8.9,13.9c-2-1.3-4.2-2.6-6.4-3.9c-11.7-6.8-29.3-15.5-46.6-18.3
				c-2.5-0.4-5.3-0.8-8.4-1.3l2.1-9.5l-0.6-0.1l-2.1,9.6c-5.1-0.7-10.7-1.5-16.7-2.3l2.5-14.2l7.5-16.9l-0.6-0.3l-7.5,17l-2.5,14.3
				c-32.5-4.3-73.4-9-73.9-9l-0.2,0l-25.2-0.7l2-8.5c14.5,0.8,52,4.2,69,9.6l0.2-0.6c-17-5.4-54.4-8.7-69.1-9.6l5.1-21.1l37.2,11.5
				l0,0.1l3.7,1l9.1-35.6l23.2,10.5l6.4-12.6l-26-11.8l0-0.1l-3.7-1l-8.8,34.1c-6.5-1.5-26.1-6.2-38.1-9l0-0.1l-10.6-2.5l-11.1,46.4
				L398,152l-8.3,24.4l-22.1-3.2l-26.5-0.8l-27.2,3.4c0,0,6.6,31.8,6.6,34.2l10.4,0.8l43.4,4.1l7.5,41.8l-128.7,81.8l-31.9,1
				l9.6-53.6l-29.1,54.2l-1,0l0.1,1.7l-4,7.4l-1.2,6.3l-60.9,2.3v12.1h-20.4V404l-67.2,4.8l0.3,71.6h-7.6v41.7l10.8,8.9v92.3h-4.5
				v17.8l78.9,44.5l80.9,54.4l10.5-8.1l27.2,33.6l21.5,18.6l48.1,33.3l41.3,27.1l32.8,18.5l37.4,17.6l2.3-7l-29.1-13.8L361.5,840
				L270,779L249,761.2l-21.3-27.1l2.5-2.2l17.2,12.7l37.9,34.7l51.6,28l44.2,15.6l14.6,2.9l2-4l-74.3-46.6l-35-33.4l-38.5-50.6
				l-13.7-20.7c0,0-9.3-2.2-19-11.2c-6.5-6-28.7-37.9-43.4-84.6c-5.1-44.9,4.9-60.5,12.5-72.4c2.5-3.9,4.7-7.3,6-11.2l-0.4-0.1
				c-1.4,3.9-3.5,7.2-6,11.1c-7.5,11.7-17.4,27.1-12.8,70.5c-7.5-24.4-12.8-52.8-12.8-83.5c14.9-3.5,48.3-11.5,28.2-9.3
				c-16.6,1.8-23.8-3.9-27.3-9.4c0.4-4.1,0.9-8.1,1.5-12c16.1-31.7,46.4-91.2,55-107.8l0.6,0c0.8,10,3.9,24.6,6.6,37.6
				c2.4,11.3,4.6,21.9,4.9,27.3c0.3,6.4-0.6,21.1-6,35.7c-3.1,8.2-7.1,15.2-12.1,20.8c-5.9,6.7-13.2,11.3-21.5,13.8l0.1,0.4
				c8.4-2.5,15.7-7.2,21.7-13.9c5-5.6,9.1-12.6,12.1-20.9c5.5-14.7,6.3-29.5,6-35.9c-0.3-5.4-2.5-16.1-4.9-27.4
				c-2.7-13-5.8-27.6-6.6-37.6l37.7-1.2l127.5-81L410,414.4l33.1,57.7l9.4-5.4l-26.8-46.6l6.2-4.7l30.9-13.1l83.4-24.5l30.9,3.5
				l135.9,20.1l2.2-12.4h0l7.3-41.7l-54.4-10.5l-6.5-3.8l-0.6,1.1l6.7,3.9l53.4,10.3l-7.1,40.4l-128.6-23.3l-22.1-59.7l4.6-4.9
				l31.5-4.8l0-0.2l19.7,1l20.8,3.4l0.2-1.3l-20.8-3.4h0l-19.7-1l-2.9-11.1l-0.1-5.3l1.9-11.8l3.4-8.8l-1.2-0.4l-3.4,8.9l0,0.1
				l-1.9,12l0.1,5.5l0,0l-41.7,9L530.7,275c0,0-11.8,2.8-28.3,6.8l-1.3-14l-1.9,0.2l-1.2-17.4c3.1,0.3,14.7,1.2,15.6,1.2v-1.3
				c-0.8,0-11.9-0.9-16.2-1.3l-0.7-0.1l1.3,18.9l-1.6,0.1l1.4,14.7c-34.1,8.1-83.9,20-96.1,22.7l-15.5-86.5
				c12.6,6.5,24.5,11,36.3,13.5c7.7,1.7,15.2,2.5,22.5,2.5c12.5,0,24.4-2.4,35.6-7.2l-0.3-0.6c-17.6,7.6-37.1,9.2-57.7,4.7
				c-11.9-2.6-23.9-7.1-36.6-13.7l-0.4-2.5l4.2,0.4l0.6-2.3l110.7,11.8l5.8-17.7l-29.4,3.2l-76-9.5l9.5-39.6l27,0.8
				c3.2,0.4,38.3,4.4,68.5,8.3l-2.5,18.8l23.4,3.1l2.5-18.7c2.8,0.4,5.3,0.8,7.7,1.2c15.7,2.5,32,10.6,42.9,17
				c13.2,7.7,24.4,16.3,29.6,21.4c1.3,1.3,3.4,3.2,6.1,5.6l-9.1,17.2l5.6,3l8.3-15.8c22.1,19.8,65.9,57.9,68.2,59.9l7.1-8.2
				c-0.6-0.5-48.7-42.3-70.1-61.6l18.7-35.6c9.8,7.4,31.8,25,57.2,46.9c25.4,21.9,59.6,53,82.5,79.9l-0.9,1.2l-36.5,19.9l9.3,6.4
				l35.2-19.1l37.8,39.9L854,346h17.4v-14.9h-18.2l-0.3-5.5h33.4v-7.2h-33.8l-2.3-41.6l70,25l9.3,44.1l15.7-2.5l21.2,83.6l14.9-0.8
				l2.5,17l10.2-1.7l17.8,98.9l-5.1,1.7l13.6,75.1l12.3,4.2l2.1,10.2l-44.2,4.2l5.3-7.1l19.8,0.9l-19.1-38.8l-9.2-32.8
				c0,0-8.6,2.9-9.6,3.2l2.9,22.6l1.3,4.2c-1.3-2.6-2.3-4.6-2.3-4.6c-2.8,10.6-6.8,28.5-26.1,36.9l-18.7-73.3l36.9-8.3l-1.5-6.6
				l-37.1,8.4l-5.8-22.7l22.9-0.6l0-1.3l-11.7,0.3l-4.4-45.4H934v-0.1l-13-0.1l-0.2-1.8l18,0.3l0-1.3l-18.1-0.3l-7-80.4l-15,1.3
				l0.7,8.4L798,404.4l-0.6,0l1.3,27l103.2-6.7l6.2,70.8c-33.2,2.2-79.7,5.3-82.4,5.4c0.2,0,0.3,0,0.4,0v23.3c0.5,0,2,0,85.9-5.6
				l6.5,25.2l-78.3,17.6l0,0.1l-0.3,0L832,568l-1.9,30.3l4,5.7l9.3,0.4l5.7-11.2l0.2-26.9l70.8-15.9l22.5,87.8l13.2-3.4
				c2.6,1.2,5.4,2.4,8.2,3.6l-26.2,2.5l0.2,16.2l-58.2,2.4l-1.1-23.8l-2.5,0.1l4,83.1l-24,15.8l-4.4-90.9L849,644l4.4,92.4
				L782.5,783l12.1,18.5l32.3-23.3l-3.8-8.5l57.5-36.9l0,0.5l2.5-0.1l-0.1-2l51.7-33.2l9.8-0.4l-24.2,31L907.6,742l-71.7,36.5
				l-19.5,17.8l-21.6,24.2l-36.5,30.6l-50.5,30.6l3,5.1l34.8-17.8l17.8,12.3l25.9,3l145.2-26.7l-16.6-110.8L925,731l29.3-31.4
				l11-12.7l77.3-19.1l9.3-14L1040.4,613.4z M523.3,188l-14.1-1.9l1.9-14.1l14.1,1.9L523.3,188z M529.4,102.5l3.4-7l22.4,8.5
				l-7.4,14.1L527,107.5L529.4,102.5L529.4,102.5z M556.9,122.8l15.9-32.6l0.3,0.1l17.2,19.3l30,12.4l32.2,5.6
				c-1.2,4.7-2.7,10.2-4.1,15.7c0,0.1,0,0.1-0.1,0.2c-8.1,1.7-31,6.5-37,7.8c-2.4-1.3-4.7-2.5-7-3.8l3.6-8.3l8.1-7.2l-0.4-0.5
				l-8.2,7.2l-0.1,0l-3.6,8.3c-13.1-7-24.4-13.1-25.4-13.6L556.9,122.8z M621.3,209.7c-1.6-1.4-2.8-2.6-3.7-3.5
				c-2.3-2.2-5.7-5.2-10.1-8.5l9.3-14.4l-2.2-1.4l7.8-17.2c7.7,4.3,14.2,8,17.4,10.1L621.3,209.7z M927.9,472l4.3,44.4l-5.1,0.1
				l-2.9-11.3l-2.9-33.3L927.9,472z M800,430l-1.2-24.4l100.9-7.4l2.2,25.3L800,430z M882.4,717.4l-2.7-55.3l58.1-2.4l0.2,21.1
				L882.4,717.4z"/>
			<polygon class="st2" points="108.9,381.1 95.2,381.1 95.2,400.3 108.9,399.5 			"/>
			<path class="st2" d="M597.9,563.1h46.7v-17.8h-46.7V563.1z M599.2,546.5h44.1v15.3h-44.1V546.5z"/>
			<circle class="st2" cx="638.7" cy="554.5" r="2.1"/>
			<polygon class="st2" points="756.1,797.3 758.5,798.2 796.6,705.8 796.6,707.1 826.5,706.2 826.2,697.1 796.3,698 796.5,703.7 
				795,703 			"/>
			<path class="st2" d="M332.9,703.6c-4.4-0.4-8.4,2.8-8.8,7.3l-2,20.1c-0.4,4.4,2.8,8.4,7.3,8.8l0,0c4.4,0.4,8.4-2.8,8.8-7.3
				l2-20.1C340.6,708,337.4,704.1,332.9,703.6L332.9,703.6z"/>
			<rect x="595.2" y="692.5" class="st2" width="16.8" height="16.8"/>
			<rect x="497.1" y="811.4" class="st2" width="19" height="19"/>
			
				<rect x="964.6" y="488.5" transform="matrix(0.9803 -0.1976 0.1976 0.9803 -77.8726 202.9533)" class="st2" width="26.8" height="6.4"/>
			
				<rect x="543.3" y="137.7" transform="matrix(0.4361 -0.8999 0.8999 0.4361 179.727 578.2458)" class="st2" width="16" height="16"/>
			<rect x="640.2" y="200.6" transform="matrix(0.5 -0.866 0.866 0.5 141.6636 662.4875)" class="st2" width="8.8" height="16"/>
			
				<rect x="618.8" y="278.9" transform="matrix(0.1522 -0.9883 0.9883 0.1522 238.5723 860.3038)" class="st2" width="4" height="24.3"/>
			
				<rect x="675.5" y="342.8" transform="matrix(0.1522 -0.9883 0.9883 0.1522 233.342 966.9078)" class="st2" width="9.5" height="9.2"/>
		</g>
		<g>
			<path class="st2" d="M420.4,65.4l-1,4.7c-8.8-1.7-17.5-3.1-26.1-4.2l0.6-4.6l-5.7-0.7l-0.6,4.6c-9.1-1-18.1-1.7-27-2.1l0.1-4.8
				l-5.7-0.1L355,63c-8.8-0.2-17.5-0.1-26,0.4l-0.3-4.7l-5.7,0.4l0.3,4.7c-9.4,0.7-18.7,1.8-27.8,3.4l-0.8-4.6l-5.6,1l0.8,4.7
				c-3.5,0.7-6.9,1.4-10.4,2.2c-5.8,1.3-11.5,2.8-17.1,4.5l-1.6-4.5l-5.4,1.9l1.5,4.4c-9.5,3-18.7,6.6-27.7,10.6l-2-4.3l-5.2,2.5
				l2,4.2c-12.2,5.8-24,12.5-35.1,20.2l-18.8-22.5l-6.4,5.3l12.2,14.7l-43.5,42.1l-14.7-13l-5.5,6.2l21,18.5
				c-3.2,3.9-6.2,7.8-9.2,11.9c-5,6.9-9.8,14-14.2,21.4l-4.1-2.4l-2.9,5l4.1,2.4c-5,8.7-9.6,17.7-13.8,27l-4.5-1.9l-2.2,5.3l4.4,1.8
				c-3.6,8.4-6.8,17-9.7,25.8l-4.8-1.4l-1.6,5.5l4.6,1.3c-2.7,9-5.1,18.1-7.1,27.3l-4.7-0.9l-1.1,5.6l4.7,0.9c-1.7,8.6-3,17.3-4,26
				l-4.9-0.3l-0.4,5.7l4.7,0.3c-0.9,9.3-1.4,18.5-1.4,27.8h-4v5.7h35V355h-5.5c0.1-8.7,0.5-17.4,1.4-26.1l4.9,0.3l0.4-5.7l-4.6-0.3
				c0.9-7.7,2.1-15.3,3.5-22.9l4.7,0.9l1.1-5.6l-4.6-0.9c1.8-8.5,4-16.9,6.6-25.2l4.6,1.3l1.6-5.5l-4.4-1.3
				c2.6-7.8,5.5-15.5,8.7-22.9l4.4,1.8l2.2-5.3l-4.3-1.8c3.7-8.3,7.9-16.3,12.3-24.1l4.2,2.4l2.9-5l-4.1-2.4
				c4-6.6,8.2-12.9,12.7-19.1c12.2-16.7,26.3-31.7,41.8-44.5c14.9-12.3,31.2-22.6,48.5-30.8l2.1,4.4l5.2-2.5l-2-4.3
				c8.1-3.6,16.5-6.8,25.1-9.5l1.6,4.7l5.4-1.9l-1.5-4.5c4.8-1.4,9.6-2.6,14.4-3.7c3-0.7,6-1.3,9-1.9l0.8,4.7l5.6-1l-0.8-4.8
				c8.3-1.4,16.7-2.4,25.3-3.1l0.4,4.8l5.7-0.4l-0.4-4.8c7.8-0.4,15.7-0.6,23.8-0.4l-0.1,4.8l5.7,0.1l0.1-4.8c8,0.3,16.1,1,24.3,1.9
				l-0.6,4.8l5.7,0.7l0.6-4.8c7.9,1,15.8,2.3,23.8,3.8l-1,4.6l5.6,1.2l7.3-34.2L420.4,65.4z"/>
			<path class="st2" d="M1039.6,649.2h0.1l-1-27.6l-35.9,1.4c-2.1-3.6-5.4-10.2-9.5-20.3c-5-12.2-9.1-24.2-10.2-29.8
				c-2.5-12.9-27.9-166.5-28.2-168l-0.2-1.2l-0.7-1c-0.1-0.2-2.8-4.1-5.9-8.1c-5.8-7.4-8.9-9.9-12.4-9.9c-1,0-9.8-0.6-27.4-3.1
				c-15.2-2.2-40.9-6.6-76.5-14.7c-48.9-11.1-73-34.1-98.6-58.6c-9-8.6-18.4-17.6-29-26C681.4,264,657,251.9,640.5,245
				c-21.1-8.8-38.7-13.3-48.2-14.6c-33.7-4.5-72.3-8.1-125.6-13.2c-31.3-3-66.9-6.3-109.1-10.6c-14-1.4-28.4-0.2-42.9,3.6
				c-13.2,3.5-26.1,9-38.4,16.4c-11.3,6.9-22,15.4-30.8,24.6c-8.7,9.1-15.7,18.9-20.2,28.4c-2.4,4.9-4.9,10.7-8.1,18
				c-6.8,15.3-17.1,38.4-35.3,76.2c-13.6,28.1-22.2,48.3-28.1,65.5c-4.8,14.1-7.9,26.7-10,41.2l-64.3,4.5l1.7,23.3l60.5-4.3
				c-0.5,10.3-0.4,21.8,0,33.5l-23.8,1.9L121,607l26.7-0.9l-9.3,49.8l-13.2,0.5l1.1,27.6l61.3-2.3l14.7,28.6l0.1,0.1l43,53.6
				l0.1,0.1l21.3,18.3l0.1,0l55.2,37.8c26.9,18.2,59.8,39,99.2,56.3c21.6,9.5,43.6,17.2,65.6,22.9c25.1,6.6,50.9,10.8,76.9,12.6
				c8.9,0.6,17.6,0.9,26.2,0.9c17.3,0,33.9-1.3,49.7-3.8c24-3.8,45.2-10.5,63.2-19.7c55.7-28.7,96.8-55.2,97.2-55.5l0.1-0.1
				l46.1-41.6l65.7-47.5l54.1-64.4l74.2-18.5L1039.6,649.2z M164.1,442.8c5.7-16.7,14.2-36.6,27.6-64.3
				c18.3-37.9,28.6-61.1,35.4-76.5c3.2-7.2,5.8-12.9,8-17.8c8.3-17.5,25.8-35.6,46.8-48.3c11.4-6.9,23.3-12,35.5-15.2
				c13.2-3.5,26.3-4.6,39-3.3c42.3,4.3,77.8,7.7,109.2,10.6c53.3,5.1,91.8,8.7,125.2,13.2c8.8,1.2,25.3,5.4,45.4,13.9
				c15.8,6.6,39.3,18.3,61.2,35.8c10.2,8.2,19.4,16.9,28.2,25.4c12.7,12.2,25.9,24.7,42.1,35.5c18.2,12.1,38.3,20.5,61.6,25.8
				c61.6,14,96.6,17.7,105,18.1c1.9,1.6,6.1,6.9,9.9,12.4c0.4,2.5,1.3,8.1,2.6,15.8l-791.9,56C157,466.9,159.8,455.5,164.1,442.8z
				 M950.7,446.8c7.8,46.9,19.9,119.2,21.6,128.2c1.5,8,7,22.8,11.3,33.1c2.8,6.7,5.1,11.7,7,15.5L182,654.3
				c-0.8-1.8-6.3-14.8-17.3-42.1c-5.2-13.1-9.4-35.3-11.4-60.8c-1.3-16.7-1.6-33.7-0.9-48.2L950.7,446.8z M938.2,680.9l-141.4,91.9
				l0,0c-0.4,0.3-40,28.7-94.2,60c-17.3,10-37.9,17.6-61.4,22.5c-23.1,4.9-48.4,7-75,6.5c-25.8-0.6-51.7-3.5-76.9-8.8
				c-22.1-4.6-44.4-11.2-66.2-19.6c-40.3-15.4-73.8-34.6-101.3-51.3c-11.5-7-36.1-28-62.8-53.5c-19.5-18.7-36.2-36-46.1-47.8
				l725-27.6L938.2,680.9z M156.1,619.9c7.2,18,11.9,29.3,14.2,34.8l-20.8,0.8L156.1,619.9z M964.4,678.2L910,743l-65.6,47.3l-0.1,0
				L798.3,832c-2.1,1.4-42.5,27.2-96.9,55.3c-17.7,9.1-38.8,15.7-62.5,19.5c-23.3,3.7-48.7,4.7-75.3,2.8c-25.8-1.8-51.5-6-76.4-12.5
				c-21.8-5.7-43.7-13.4-65.2-22.8c-39.2-17.2-71.9-38-98.7-56.1l-55.1-37.7l-21.1-18.1L204.5,709l-14.1-27.4l19.1-0.7
				c23.8,29,87.9,89.5,110.8,103.4c27.6,16.8,61.2,36,101.7,51.5c22,8.4,44.4,15,66.6,19.7c25.4,5.3,51.4,8.3,77.4,8.9
				c2.8,0.1,5.5,0.1,8.3,0.1c23.8,0,46.4-2.2,67.4-6.6c23.7-5,44.7-12.6,62.2-22.8c53.7-31,93.2-59.2,94.4-60.1l142.6-92.7
				l-0.4-29.2l96.8-3.7l0.4,10.7L964.4,678.2z"/>
		</g>
	</g>
</g>
</svg>
