<?xml version="1.0" encoding="utf-8"?>
<!-- Generator: Adobe Illustrator 21.1.0, SVG Export Plug-In . SVG Version: 6.00 Build 0)  -->
<!DOCTYPE svg PUBLIC "-//W3C//DTD SVG 1.1//EN" "http://www.w3.org/Graphics/SVG/1.1/DTD/svg11.dtd">
<svg version="1.1" id="Calque_1" xmlns="http://www.w3.org/2000/svg" xmlns:xlink="http://www.w3.org/1999/xlink" x="0px" y="0px"
	 viewBox="0 0 4768.8 4027.4" style="enable-background:new 0 0 4768.8 4027.4;" xml:space="preserve">
<style type="text/css">
	.st0{opacity:0.2;}
	.st1{fill:#FFFFFF;}
</style>
<g class="st0">
	<polygon class="st1" points="2532.8,2799.1 2532.8,2799.1 2515.3,2798.2 2505.1,2986.6 1593.3,3295.2 1608.3,3339.7 2502.4,3037.1 
		2495.3,3166.2 2511.1,3167 2474.8,3783.1 2486.8,3783.8 2523.1,3167.7 2542.3,3168.7 2562.3,2800.7 2538.8,2799.4 	"/>
	<path class="st1" d="M4714.8,2615.4l-50-38l-162-1016l-48-34l-42-242l-54-24l-158,28l-30-166l-354-126l-288,142l-0.5,0.6
		c-197.8-230.5-572.9-532.5-665.4-602c7-31.1,43.6-170.3,68.4-263.8l3.6-13.6L2250.7,31.2l-79.6,146l95.7,45.4l-10.8,22.6
		l266.9,136.6c3.8,2,111.7,59.1,199.9,107.6l-35.9,79.5l-42-27.1l-42.1,65.3c-9.6-6.1-19.7-12.2-30-18.2
		c-55.2-32.1-138.1-73.2-219.8-86.2c-11.9-1.9-25.1-3.9-39.4-6l10.1-44.9l-2.9-0.7l-10.1,45.1c-23.9-3.5-50.5-7.1-78.6-10.8
		l11.6-66.8l35.3-79.8l-2.7-1.2l-35.3,80L2229,485c-153.1-20.3-345.7-42.2-348.2-42.5l-1.1-0.1l-118.7-3.5l9.6-40.1
		c68.5,3.9,245,19.8,325.3,45.1l0.9-2.9c-80.3-25.3-256.4-41.2-325.5-45.2l23.8-99.4l175.4,54l-0.1,0.4l17.4,4.5l43.1-167.6
		l109.4,49.7l30-59.5l-122.5-55.6l0.1-0.3l-17.4-4.5l-41.4,160.9c-30.5-7.2-123-29.1-179.5-42.6l0.1-0.4l-49.8-11.9l-52.3,218.4
		l-19.8-0.4l-39,115l-104-15l-125-4l-128,16c0,0,31,150,31,161l49,4l204.5,19.2l35.2,197L1005,1320.1l-150.5,4.7l45.4-252.4
		l-137.3,255.3l-4.7,0.1l0.3,8.1l-18.8,35l-5.5,29.5l-286.9,11v57h-96v160.5l-316.5,22.5l1.5,337.5H0v196.5l51,42v435H30v84
		l371.8,209.6l381,256.5l49.5-38l128,158.5l101.5,87.5l226.6,156.8l194.4,127.7l154.5,87.2l176,82.8l11-33l-137-65l-171.5-93.5
		l-431-287.5l-99.4-84.2L885,3184.3l12-10.5l81,60l178.5,163.5l243,132l208.5,73.5l69,13.5l9.4-18.8l-349.9-219.7l-165-157.5
		L990,2981.8l-64.5-97.5c0,0-43.6-10.4-89.5-53c-30.5-28.3-135.3-178.6-204.4-398.5c-23.9-211.7,23.2-285.2,59.1-341.1
		c11.8-18.4,22-34.2,28.5-52.7l-1.9-0.7c-6.5,18.2-16.6,34-28.3,52.3c-35.4,55.3-81.8,127.6-60.5,332.2
		c-35.3-115.1-60.5-248.8-60.3-393.6c70.3-16.3,227.4-54.1,132.7-43.8c-78.4,8.5-112-18.4-128.6-44.3c1.8-19.3,4.1-38.2,6.9-56.6
		c75.9-149.2,218.6-429.8,259-508l2.7-0.1c3.9,47.1,18.3,115.8,31.1,177.4c11.1,53.2,21.6,103.4,22.9,128.6
		c1.6,30.1-2.6,99.4-28.2,168.2c-14.4,38.7-33.5,71.6-56.8,97.8c-27.9,31.4-62,53.2-101.3,64.9l0.6,1.9
		c39.7-11.8,74.1-33.9,102.2-65.5c23.5-26.4,42.7-59.5,57.2-98.5c25.7-69.2,29.9-138.8,28.3-169c-1.3-25.4-11.8-75.7-23-129
		c-12.8-61.4-27.2-130.1-31.1-177l177.8-5.6l600.6-381.7l123.2,689.2l156.2,271.9l44.4-25.5l-126.1-219.5l29-22.3l145.5-61.5
		l393-115.5l145.5,16.5l640.5,94.5l10.5-58.5l-0.2,0l34.6-196.3l-256.4-49.5l-30.6-17.7l-3,5.2l31.4,18.3l251.6,48.5l-33.6,190.4
		l-605.9-109.9l-104-281.2l21.5-23.3l148.5-22.5l-0.2-0.9l92.8,4.9l97.8,16l1-5.9l-98-16l-0.2,0l-93-4.9l-13.8-52.1l-0.5-24.8
		l8.9-55.4l15.9-41.7l-5.6-2.1l-16,42l-0.1,0.3l-9.1,56.6l0.6,26.1l0.1,0.2l-196.7,42.6l-107.9-83.8c0,0-55.5,13.3-133.3,32
		l-6.2-65.9l-9.1,0.8l-5.8-82.1c14.6,1.2,69.2,5.7,73.3,5.7v-6c-3.6,0-56.3-4.3-76.2-6l-3.5-0.3l6.3,89.2l-7.5,0.7l6.5,69.1
		c-160.5,38.4-395.3,94.4-452.6,107.1l-72.9-407.8c59.4,30.7,115.6,51.6,171.2,63.7c36.3,7.8,71.7,11.8,106.2,11.8
		c58.8,0,114.9-11.4,167.6-34l-1.2-2.8c-83.1,35.7-174.6,43.2-272,22.1c-56-12.1-112.6-33.3-172.5-64.5l-2.1-11.6l19.7,1.8l3-10.8
		l521.6,55.8l27.3-83.3l-138.7,15.3l-358.1-44.9l44.7-186.8l127.3,3.7c14.9,1.7,180.5,20.6,322.6,39.2l-11.7,88.6l110.1,14.6
		l11.6-88.1c13,1.9,25.2,3.8,36.1,5.5c73.9,11.8,150.7,50,202.1,79.9c62.1,36.2,114.8,76.6,139.6,100.7c6.2,6.1,16.1,15.2,28.7,26.6
		l-42.7,81.1l26.5,14l39.1-74.3c104.3,93.5,310.7,272.9,321.4,282.1l33.6-38.6c-2.7-2.3-229.4-199.3-330.4-290.2l88.2-167.6
		c46,34.9,150,117.6,269.7,220.9c119.6,103.3,280.7,249.6,388.6,376.3l-4.4,5.5l-172,94l44,30l166-90l178,188l116-36h82v-70h-85.9
		l-1.4-26h157.3v-34h-159.2l-10.8-196l330,118l44,208l74-12l100,394l70-4l12,80l48-8l84,466l-24,8l64,354l58,20l10,48l-208.4,20
		l25.2-33.3l93.1,4.1l-90-183l-43.5-154.5c0,0-40.5,13.5-45,15l13.5,106.5l5.9,19.7c-6.2-12.4-10.8-21.6-10.8-21.6
		c-13.1,49.9-32,134.5-123.2,174l-88.3-345.2l174-39.2l-7-31.2l-174.9,39.4l-27.4-107.1l107.8-2.6l-0.1-6l-55,1.4l-20.6-214.1
		l-0.3,0l0-0.3l-61.2-0.6l-0.8-8.7l84.9,1.3l0.1-6l-85.5-1.3l-33.2-378.8l-70.7,6.2l3.5,39.7l-478.3,35.3l-2.9,0.2l6.3,127
		l486.4-31.4l29.2,333.6c-156.5,10.5-375.6,25-388.5,25.5c0.8,0,1.4,0,1.7,0v110c2.3,0,9.2,0,404.9-26.5l30.4,118.9l-368.8,83
		l0.2,0.7l-1.6-0.1l-37,30l-9,143l19,27l44,2l27-53l0.9-126.6l333.4-75.1l105.8,413.8l62-15.8c12.4,5.7,25.5,11.4,38.5,16.8
		l-123.5,11.9l0.8,76.4l-274.4,11.4l-5.4-112.1l-12,0.6l18.8,391.6l-113.3,74.4l-20.6-428.5l-12,0.6l20.9,435.6l-333.9,219.1l57,87
		l152-110l-18-40l271-174.1l0.1,2.4l12-0.6l-0.4-9.3l243.4-156.4l46-2l-114,146l-60,64l-338,172l-92,84l-102,114l-172,144l-238,144
		l14,24l164-84l84,58l122,14l684-126l-78-522l34-74l138-148l52-60l364-90l44-66L4714.8,2615.4z M2278.2,611.1l-66.5-8.8l8.8-66.5
		l66.5,8.8L2278.2,611.1z M2306.7,208.3l16.1-32.8l105.7,40l-35,66.4l-97.8-50.1l11.2-23.4L2306.7,208.3z M2436.3,303.7l74.8-153.5
		l1.3,0.4l80.9,90.8l141.5,58.5l151.6,26.6c-5.8,22.1-12.7,48.2-19.5,74.2c-0.1,0.3-0.2,0.7-0.3,1c-38.4,8-146.2,30.6-174.5,36.7
		c-11.1-6-22.1-12-33-17.8l16.8-38.9l38.4-33.8l-2-2.3l-38.7,34l-0.3,0.2l-17,39.3c-61.6-33.2-114.9-61.5-119.7-64L2436.3,303.7z
		 M2739.8,713.6c-7.4-6.8-13.4-12.4-17.6-16.5c-10.8-10.5-27-24.4-47.5-40.1l43.7-67.8l-10.3-6.6l36.6-81.1
		c36.2,20.1,66.8,37.6,81.8,47.4L2739.8,713.6z M4184.5,1949.2l20.1,209.4l-24.1,0.6l-13.6-53.3l-13.8-157L4184.5,1949.2z
		 M3581.7,1751.2l-5.7-115l475.5-35.1l10.4,119.1L3581.7,1751.2z M3970.4,3105.7l-12.5-260.5l273.9-11.4l1.1,99.6L3970.4,3105.7z"/>
	<polygon class="st1" points="325.5,1520.9 261,1520.9 261,1611.6 325.5,1607.9 	"/>
	<path class="st1" d="M2629.8,2378.4h220v-84h-220V2378.4z M2635.8,2300.4h208v72h-208V2300.4z"/>
	<circle class="st1" cx="2821.8" cy="2338.2" r="10"/>
	<polygon class="st1" points="3375.3,3482 3386.4,3486.6 3565.8,3051.2 3566,3057.3 3707,3052.8 3705.6,3009.8 3564.6,3014.3 
		3565.5,3041 3558.3,3038 	"/>
	<path class="st1" d="M1381.1,3040.8c-20.9-2.1-39.6,13.2-41.6,34.2l-9.3,94.6c-2.1,20.9,13.2,39.6,34.2,41.6h0
		c20.9,2.1,39.6-13.2,41.6-34.2l9.3-94.6C1417.3,3061.5,1402,3042.9,1381.1,3040.8L1381.1,3040.8z"/>
	<rect x="2616.8" y="2988.4" class="st1" width="79" height="79"/>
	<rect x="2154.5" y="3548.4" class="st1" width="89.7" height="89.7"/>
	
		<rect x="4357.6" y="2026.9" transform="matrix(0.9803 -0.1976 0.1976 0.9803 -316.361 913.9891)" class="st1" width="126.5" height="30"/>
	
		<rect x="2372.1" y="374.1" transform="matrix(0.4361 -0.8999 0.8999 0.4361 988.4423 2400.8501)" class="st1" width="75.3" height="75.3"/>
	<rect x="2828.9" y="670.3" transform="matrix(0.5 -0.866 0.866 0.5 811.6919 2821.7295)" class="st1" width="41.3" height="75.3"/>
	
		<rect x="2728.1" y="1039.4" transform="matrix(0.1522 -0.9883 0.9883 0.1522 1236.7639 3635.3762)" class="st1" width="18.7" height="114.7"/>
	
		<rect x="2995.5" y="1340.6" transform="matrix(0.1522 -0.9883 0.9883 0.1522 1212.1105 4137.6509)" class="st1" width="44.8" height="43.4"/>
</g>
<g>
	<path class="st1" d="M1793.3,33.5l-4.7,22.2c-41.4-8-82.3-14.6-122.8-19.8l2.6-21.9l-26.8-3.2l-2.6,21.9
		c-42.9-4.8-85.2-8.1-127.1-9.7l0.4-22.6l-27-0.4l-0.3,22.2c-41.4-0.9-82.3-0.3-122.7,2l-1.6-22.2l-26.9,2l1.6,22
		c-44.4,3.3-88,8.6-130.9,15.8l-3.8-21.9l-26.6,4.6l3.8,22c-16.4,3.1-32.7,6.5-48.8,10.2c-27.2,6.2-54,13.2-80.5,21l-7.4-21.4
		l-25.5,8.8l7.1,20.5c-44.8,14.3-88.3,30.9-130.7,49.8l-9.6-20.3l-24.4,11.6l9.5,20c-57.6,27.3-112.9,59-165.5,95l-88.4-106.2
		l-30,24.9l57.6,69.3L436.2,427.9l-69.4-61.1L341,396.1l98.8,87.1c-14.9,18.2-29.3,36.8-43.3,55.9c-23.7,32.3-46,66-66.9,100.7
		l-19.5-11.2l-13.5,23.4l19.2,11.1c-23.6,41-45.3,83.4-64.9,127.1l-21.1-8.8l-10.4,24.9l20.7,8.7c-16.9,39.6-32.1,80.2-45.6,121.4
		l-22.4-6.4l-7.4,26l21.7,6.2c-12.9,42.3-24.1,85.2-33.3,128.7l-22.3-4.4l-5.2,26.5l22.1,4.3c-7.9,40.6-14.2,81.6-18.8,122.7
		l-22.9-1.6l-1.8,26.9l22,1.5c-4.1,43.6-6.4,87.3-6.7,131h-19v27h165v-27h-26c0.4-41,2.5-82,6.5-122.8l22.9,1.6l1.8-26.9l-21.8-1.5
		c4.2-36.2,9.8-72.1,16.7-107.8l22.1,4.3l5.2-26.5l-21.9-4.3c8.6-40.1,18.9-79.8,31-118.8l21.6,6.2l7.4-26l-20.8-5.9
		c12.1-36.7,25.7-72.8,40.8-108.1l20.8,8.7l10.4-24.9l-20.4-8.5c17.6-39,37-76.9,58.1-113.5l19.7,11.4l13.5-23.4l-19.5-11.3
		c18.8-31,38.7-61,59.8-89.9c57.6-78.7,123.9-149.2,197-209.5c70.4-58,146.8-106.5,228.7-145.3l9.8,20.6l24.4-11.6l-9.6-20.3
		c38.3-17,77.6-31.9,118.1-44.7l7.6,22l25.5-8.8l-7.2-21c22.4-6.5,45-12.4,68-17.6c14.1-3.2,28.2-6.2,42.5-8.9l3.8,22.3l26.6-4.6
		l-3.9-22.5c39-6.6,78.8-11.4,119.4-14.4l1.7,22.8l26.9-2l-1.7-22.6c36.8-2,74.1-2.6,112-1.7l-0.4,22.8l27,0.4l0.3-22.4
		c37.7,1.5,76,4.5,114.7,8.8l-2.7,22.8l26.8,3.2l2.7-22.8c37,4.7,74.5,10.8,112.3,18l-4.6,21.8l26.4,5.6L1819.7,39L1793.3,33.5z"/>
	<path class="st1" d="M4710.8,2784.4l0.5,0l-4.9-129.9l-169.3,6.5c-9.9-17-25.3-48.1-44.9-95.6c-23.7-57.5-43.1-113.9-48.1-140.4
		c-11.6-61-131.6-784.4-132.8-791.7l-0.9-5.6l-3.2-4.7c-0.5-0.8-13.2-19.4-27.9-38.3c-27.3-35-42-46.8-58.2-46.8
		c-4.8,0-46.4-2.6-129-14.7c-71.8-10.6-192.6-31.2-360.4-69.3c-230.4-52.3-344.1-160.9-464.4-275.9
		c-42.6-40.7-86.6-82.8-136.5-122.7c-107.6-86.2-222.7-143.2-300.4-175.8c-99.4-41.7-182.4-62.9-227-68.8
		c-158.7-21.1-340.5-38.3-592-62.2c-147.7-14-315.1-29.9-514.1-50.1c-65.8-6.7-133.8-0.9-202,17.1c-62.1,16.4-123,42.5-180.9,77.5
		c-53.4,32.4-103.7,72.4-145.2,115.8c-41,42.8-73.9,89-95.1,133.8c-11.1,23.3-23.1,50.5-38.4,84.8c-32.1,72.1-80.5,181-166.3,358.9
		c-63.9,132.6-104.7,227.8-132.3,308.7c-22.7,66.6-37.2,125.8-47.3,193.9l-303.1,21.4l7.8,109.7l284.9-20.1
		c-2.2,48.6-2.1,102.6,0.2,157.7l-112,9l15.1,318.8l125.6-4.3l-44,234.8l-62.2,2.4l5,129.9l288.9-11l69.3,134.8l0.3,0.5l202.4,252.5
		l0.3,0.4l100.4,86.4l0.3,0.2l260.3,177.9c126.9,85.6,281.6,184,467.2,265.5c101.6,44.6,205.6,81,309,108
		c118.2,30.9,240,51,362.2,59.5c41.8,2.9,82.9,4.4,123.3,4.4c81.5,0,159.9-5.9,234.1-17.8c112.9-18,213.2-49.3,297.9-92.9
		c262.4-135.2,456-260,458-261.3l0.4-0.3l217.2-196.2l309.8-223.7l254.7-303.6l349.8-87.2L4710.8,2784.4z M585.7,1811.7
		c26.9-78.8,66.9-172.3,129.9-303c86.1-178.6,134.7-288,166.9-360.4c15.1-34,27.1-60.9,37.9-83.7C959.6,982,1042.1,896.9,1141,837
		c53.7-32.5,110-56.7,167.4-71.8c62.2-16.4,124.1-21.7,183.8-15.6c199.1,20.1,366.6,36.1,514.4,50.1c251,23.8,432.4,41.1,590.1,62
		c41.3,5.5,119.2,25.5,213.9,65.3c74.6,31.3,185.2,86,288.2,168.5c48.1,38.5,91.3,79.8,133.1,119.8c60,57.3,122.1,116.6,198.2,167.2
		c85.6,56.9,180.5,96.6,290.2,121.5c290.3,65.9,455.3,83.3,494.7,85.1c8.9,7.7,28.9,32.6,46.7,58.2c1.9,11.6,6.3,38,12.3,74.4
		L542.4,1985.4C551.9,1925.1,565.3,1871.6,585.7,1811.7z M4292.2,1830.6c36.8,221.2,93.6,561.8,101.6,603.9
		c7.2,37.9,33.2,107.6,53.3,155.8c13.2,31.6,24,55.2,33,72.8L669.9,2808.3c-3.6-8.3-29.9-69.8-81.3-198.4
		c-24.7-61.8-44.2-166.2-53.5-286.5c-6.1-78.9-7.4-158.8-4.1-226.9L4292.2,1830.6z M4232.9,2933.5l-666.4,433.2l-0.2,0.2
		c-1.9,1.3-188.7,135-443.8,282.5c-81.4,47.1-178.8,82.7-289.5,105.9c-109,22.9-227.9,33.1-353.6,30.5
		c-121.7-2.6-243.6-16.5-362.4-41.5c-104.1-21.9-209.1-52.9-312.1-92.3c-190-72.6-347.9-163-477.4-241.8
		c-54.2-33-170.3-131.9-295.8-251.9c-92-88.1-170.4-169.6-217.2-225.3l3416.3-130.2L4232.9,2933.5z M548,2646.3
		c34,84.8,56.2,138,67.1,164.1l-98.2,3.7L548,2646.3z M4356.4,2920.9l-256.3,305.4l-308.9,223.1l-0.3,0.2l-217,196
		c-10,6.4-200.4,128.4-456.5,260.4c-83.6,43.1-182.6,73.9-294.3,91.8c-110,17.6-229.3,22-354.6,13.3
		c-121.4-8.5-242.5-28.4-359.9-59.1c-102.8-26.9-206.1-63.1-307.2-107.4c-184.7-81.1-338.8-179.2-465.3-264.4l-259.7-177.5
		l-99.3-85.4l-201.3-251.1l-66.4-129.3l89.9-3.4c112.3,136.5,414.4,421.5,521.9,487c129.9,79.1,288.5,169.8,479.4,242.7
		c103.6,39.6,209.2,70.8,313.9,92.8c119.5,25.1,242.2,39.2,364.7,41.8c13,0.3,26,0.4,38.9,0.4c112.2,0,218.8-10.4,317.4-31.1
		c111.9-23.5,210.5-59.6,293-107.3c252.9-146.2,439-279,444.7-283L4245,2940l-2.1-137.8l455.9-17.4l1.8,50.3L4356.4,2920.9z"/>
</g>
</svg>
